<svg width="15" height="15" viewBox="0 0 15 15" fill="none" xmlns="http://www.w3.org/2000/svg">
<path d="M1 2.9697C1 2.76074 1.08301 2.56034 1.23076 2.41259C1.37852 2.26483 1.57892 2.18182 1.78788 2.18182H12.8182C13.0271 2.18182 13.2275 2.26483 13.3753 2.41259C13.5231 2.56034 13.6061 2.76074 13.6061 2.9697V6.12122H1V2.9697Z" stroke="#999AAB" stroke-width="1.4" stroke-linejoin="round"/>
<path d="M4.15137 3.36364V1M10.4544 3.36364V1" stroke="#999AAB" stroke-width="1.4" stroke-linecap="round"/>
<path d="M1 6.12122H13.6061V13.2121C13.6061 13.4211 13.5231 13.6215 13.3753 13.7692C13.2275 13.917 13.0271 14 12.8182 14H1.78788C1.57892 14 1.37852 13.917 1.23076 13.7692C1.08301 13.6215 1 13.4211 1 13.2121V6.12122Z" stroke="#999AAB" stroke-width="1.4" stroke-linejoin="round"/>
</svg>
