<svg width="20" height="21" viewBox="0 0 20 21" fill="none" xmlns="http://www.w3.org/2000/svg">
<path fill-rule="evenodd" clip-rule="evenodd" d="M10 2.5C10.2546 2.5 10.4988 2.60114 10.6788 2.78118C10.8589 2.96121 10.96 3.20539 10.96 3.46V9.54H17.04C17.2946 9.54 17.5388 9.64114 17.7188 9.82118C17.8989 10.0012 18 10.2454 18 10.5C18 10.7546 17.8989 10.9988 17.7188 11.1788C17.5388 11.3589 17.2946 11.46 17.04 11.46H10.96V17.54C10.96 17.7946 10.8589 18.0388 10.6788 18.2188C10.4988 18.3989 10.2546 18.5 10 18.5C9.74539 18.5 9.50121 18.3989 9.32118 18.2188C9.14114 18.0388 9.04 17.7946 9.04 17.54V11.46H2.96C2.70539 11.46 2.46121 11.3589 2.28118 11.1788C2.10114 10.9988 2 10.7546 2 10.5C2 10.2454 2.10114 10.0012 2.28118 9.82118C2.46121 9.64114 2.70539 9.54 2.96 9.54H9.04V3.46C9.04 3.20539 9.14114 2.96121 9.32118 2.78118C9.50121 2.60114 9.74539 2.5 10 2.5Z" fill="white"/>
</svg>
