<svg width="343" height="290" viewBox="0 0 343 290" fill="none" xmlns="http://www.w3.org/2000/svg">
<rect x="175.995" y="99.0474" width="6.29918" height="41.3953" transform="rotate(6.84556 175.995 99.0474)" fill="#F3F3F6"/>
<rect x="131.256" y="58" width="110.866" height="44.0943" rx="3.77951" transform="rotate(6.84556 131.256 58)" fill="#F3F3F6" stroke="#E6E6EB" stroke-width="2.51967"/>
<path d="M151.129 89.8302C149.791 89.6695 148.627 89.2189 147.637 88.4783C146.66 87.7393 145.943 86.7903 145.485 85.6315C145.028 84.4727 144.883 83.1991 145.05 81.8106C145.218 80.4097 145.661 79.2003 146.38 78.1827C147.098 77.165 148.019 76.419 149.142 75.9448C150.278 75.4595 151.516 75.2972 152.854 75.4579C153.805 75.572 154.677 75.867 155.47 76.3429C156.277 76.8077 156.96 77.4099 157.518 78.1494L155.676 79.6984C155.361 79.153 154.927 78.7012 154.373 78.3429C153.822 77.9721 153.227 77.7485 152.589 77.6719C151.713 77.5668 150.92 77.6746 150.209 77.9952C149.498 78.3159 148.915 78.836 148.461 79.5555C148.008 80.2624 147.721 81.1163 147.601 82.117C147.481 83.1176 147.557 84.015 147.83 84.8091C148.103 85.6031 148.546 86.2463 149.159 86.7387C149.774 87.2186 150.519 87.5111 151.395 87.6162C152.083 87.6988 152.713 87.6285 153.285 87.4054C153.858 87.1823 154.346 86.8666 154.751 86.4583L156.297 88.3189C155.552 88.9273 154.757 89.3648 153.913 89.6314C153.069 89.8981 152.141 89.9643 151.129 89.8302ZM160.727 88.6223L167.407 89.4242L167.145 91.6007L157.914 90.4925L159.603 76.4203L162.155 76.7267L160.727 88.6223ZM174.89 90.4367C175.803 90.5464 176.628 90.4423 177.364 90.1247C178.101 89.7945 178.696 89.2759 179.149 88.5689C179.615 87.8635 179.907 87.0104 180.027 86.0097C180.148 85.009 180.065 84.1109 179.78 83.3153C179.507 82.5213 179.051 81.8828 178.411 81.3999C177.773 80.9046 176.997 80.6021 176.084 80.4924C175.171 80.3828 174.345 80.4931 173.608 80.8233C172.872 81.141 172.271 81.6526 171.806 82.358C171.353 83.065 171.066 83.9188 170.946 84.9195C170.826 85.9202 170.902 86.8176 171.175 87.6116C171.46 88.4072 171.922 89.0526 172.56 89.548C173.2 90.0309 173.977 90.3271 174.89 90.4367ZM176.35 78.2784C177.725 78.4436 178.915 78.8972 179.917 79.6393C180.92 80.3688 181.656 81.32 182.125 82.4929C182.594 83.6532 182.746 84.9276 182.579 86.316C182.412 87.7045 181.963 88.913 181.23 89.9417C180.499 90.9579 179.559 91.7079 178.41 92.1916C177.262 92.6629 176 92.8159 174.624 92.6508C173.261 92.4871 172.071 92.0397 171.055 91.3087C170.053 90.5666 169.317 89.6154 168.847 88.4551C168.379 87.2823 168.228 86.0016 168.394 84.6132C168.561 83.2247 169.01 82.0224 169.741 81.0062C170.474 79.9776 171.414 79.2276 172.562 78.7563C173.723 78.274 174.986 78.1148 176.35 78.2784ZM185.296 89.8968C185.684 90.4637 186.153 90.9451 186.702 91.3409C187.263 91.7382 187.807 91.9684 188.332 92.0315C188.858 92.0945 189.343 92.064 189.79 91.94C190.236 91.8159 190.591 91.611 190.853 91.3253C191.128 91.0412 191.289 90.7052 191.336 90.3174C191.376 89.9797 191.285 89.6832 191.062 89.428C190.851 89.1744 190.567 88.9562 190.208 88.7735C189.863 88.5799 189.37 88.3557 188.728 88.101C187.798 87.7102 187.036 87.3459 186.442 87.0081C185.861 86.6719 185.377 86.2078 184.991 85.6159C184.62 85.0129 184.487 84.2674 184.594 83.3793C184.687 82.6038 184.976 81.9406 185.461 81.3897C185.945 80.8389 186.577 80.4389 187.356 80.1897C188.147 79.9421 189.018 79.8754 189.968 79.9895C190.781 80.0871 191.577 80.3856 192.354 80.885C193.144 81.3858 193.763 81.9868 194.212 82.6878L192.177 83.9471C191.879 83.4672 191.502 83.0667 191.046 82.7454C190.591 82.4117 190.145 82.2185 189.707 82.166C189.019 82.0834 188.436 82.1847 187.957 82.4698C187.479 82.755 187.208 83.1603 187.145 83.6856C187.103 84.0359 187.193 84.3448 187.415 84.6125C187.638 84.8677 187.928 85.0929 188.285 85.288C188.655 85.4847 189.165 85.7299 189.815 86.0236C190.754 86.441 191.502 86.8225 192.057 87.1683C192.625 87.503 193.097 87.9594 193.472 88.5373C193.848 89.1027 193.987 89.7982 193.888 90.6238C193.789 91.4493 193.476 92.154 192.949 92.7379C192.422 93.3218 191.73 93.7463 190.873 94.0114C190.031 94.2656 189.097 94.3311 188.071 94.2079C187.158 94.0983 186.252 93.7675 185.354 93.2156C184.458 92.6512 183.752 91.9764 183.237 91.1914L185.296 89.8968ZM207.052 84.3243L199.415 83.4076L198.987 86.9725L205.629 87.7699L205.368 89.9464L198.726 89.149L198.248 93.1267L205.885 94.0435L205.624 96.22L195.435 94.9969L197.125 80.9247L207.313 82.1478L207.052 84.3243ZM213.008 94.8606C213.921 94.9702 214.739 94.8716 215.461 94.565C216.197 94.2473 216.79 93.7475 217.24 93.0655C217.704 92.3726 217.993 91.5445 218.109 90.5814C218.225 89.6182 218.138 88.7513 217.85 87.9808C217.576 87.1992 217.118 86.5733 216.477 86.1029C215.849 85.6216 215.079 85.3261 214.166 85.2165L211.818 84.9537L210.665 94.5602L213.008 94.8606ZM214.488 83.0092C215.839 83.1714 217.01 83.6165 218.001 84.3445C219.006 85.0616 219.738 85.9933 220.197 87.1396C220.67 88.2749 220.824 89.5243 220.661 90.8877C220.497 92.2511 220.05 93.4347 219.321 94.4383C218.605 95.431 217.674 96.1629 216.526 96.6342C215.392 97.0945 214.15 97.2435 212.799 97.0813L207.845 96.4867L209.535 82.4146L214.488 83.0092Z" fill="#999AAB"/>
<circle cx="136.209" cy="64.3047" r="1.88976" transform="rotate(6.84556 136.209 64.3047)" fill="#E6E6EB"/>
<circle cx="132.305" cy="96.8269" r="1.88976" transform="rotate(6.84556 132.305 96.8269)" fill="#E6E6EB"/>
<circle cx="235.026" cy="76.1674" r="1.88976" transform="rotate(6.84556 235.026 76.1674)" fill="#E6E6EB"/>
<circle cx="231.123" cy="108.69" r="1.88976" transform="rotate(6.84556 231.123 108.69)" fill="#E6E6EB"/>
<path fill-rule="evenodd" clip-rule="evenodd" d="M271.021 158.654C277.815 153.242 282.169 144.898 282.169 135.537C282.169 119.224 268.945 106 252.632 106C243.814 106 235.899 109.864 230.487 115.99C225.075 109.864 217.16 106 208.342 106C192.029 106 178.805 119.224 178.805 135.537C178.805 144.898 183.159 153.242 189.953 158.654C183.159 164.065 178.805 172.409 178.805 181.77C178.805 198.083 192.029 211.307 208.342 211.307C209.582 211.307 210.805 211.231 212.005 211.083V218.508C209.25 218.691 203.74 220.712 203.74 227.323C203.924 229.16 205.393 232.833 209.801 232.833H226.33V205.2C227.838 204.041 229.23 202.74 230.487 201.317C231.741 202.736 233.129 204.034 234.631 205.191V232.833H251.16C255.568 232.833 257.038 229.16 257.221 227.323C257.221 220.712 251.711 218.691 248.957 218.508V211.081C250.161 211.23 251.387 211.307 252.632 211.307C268.945 211.307 282.169 198.083 282.169 181.77C282.169 172.409 277.815 164.065 271.021 158.654Z" fill="#F3F3F6"/>
<path d="M271.021 158.654L270.242 157.676L269.015 158.654L270.242 159.631L271.021 158.654ZM230.487 115.99L229.55 116.818L230.487 117.878L231.424 116.818L230.487 115.99ZM189.953 158.654L190.732 159.631L191.959 158.654L190.732 157.676L189.953 158.654ZM212.005 211.083H213.255V209.668L211.852 209.842L212.005 211.083ZM212.005 218.508L212.088 219.755L213.255 219.677V218.508H212.005ZM203.74 227.323H202.49V227.386L202.496 227.448L203.74 227.323ZM226.33 232.833V234.083H227.58V232.833H226.33ZM226.33 205.2L225.568 204.209L225.08 204.584V205.2H226.33ZM230.487 201.317L231.424 200.49L230.487 199.429L229.55 200.49L230.487 201.317ZM234.631 205.191H235.881V204.575L235.393 204.2L234.631 205.191ZM234.631 232.833H233.381V234.083H234.631V232.833ZM257.221 227.323L258.465 227.448L258.471 227.386V227.323H257.221ZM248.957 218.508H247.707V219.677L248.873 219.755L248.957 218.508ZM248.957 211.081L249.11 209.84L247.707 209.666V211.081H248.957ZM280.919 135.537C280.919 144.501 276.751 152.491 270.242 157.676L271.8 159.631C278.878 153.993 283.419 145.295 283.419 135.537H280.919ZM252.632 107.25C268.254 107.25 280.919 119.915 280.919 135.537H283.419C283.419 118.534 269.635 104.75 252.632 104.75V107.25ZM231.424 116.818C236.609 110.948 244.187 107.25 252.632 107.25V104.75C243.441 104.75 235.189 108.779 229.55 115.163L231.424 116.818ZM208.342 107.25C216.786 107.25 224.365 110.948 229.55 116.818L231.424 115.163C225.784 108.779 217.533 104.75 208.342 104.75V107.25ZM180.055 135.537C180.055 119.915 192.72 107.25 208.342 107.25V104.75C191.339 104.75 177.555 118.534 177.555 135.537H180.055ZM190.732 157.676C184.223 152.491 180.055 144.502 180.055 135.537H177.555C177.555 145.295 182.095 153.993 189.174 159.631L190.732 157.676ZM180.055 181.77C180.055 172.806 184.223 164.816 190.732 159.631L189.174 157.676C182.095 163.315 177.555 172.012 177.555 181.77H180.055ZM208.342 210.057C192.719 210.057 180.055 197.393 180.055 181.77H177.555C177.555 198.773 191.339 212.557 208.342 212.557V210.057ZM211.852 209.842C210.702 209.984 209.531 210.057 208.342 210.057V212.557C209.634 212.557 210.907 212.478 212.158 212.323L211.852 209.842ZM210.755 211.083V218.508H213.255V211.083H210.755ZM211.922 217.26C210.344 217.366 208.023 217.984 206.067 219.523C204.059 221.102 202.49 223.615 202.49 227.323H204.99C204.99 224.42 206.176 222.617 207.612 221.487C209.1 220.317 210.911 219.833 212.088 219.755L211.922 217.26ZM202.496 227.448C202.608 228.566 203.096 230.189 204.22 231.56C205.382 232.977 207.197 234.083 209.801 234.083V231.583C207.997 231.583 206.874 230.853 206.153 229.974C205.395 229.049 205.056 227.917 204.984 227.199L202.496 227.448ZM209.801 234.083H226.33V231.583H209.801V234.083ZM227.58 232.833V205.2H225.08V232.833H227.58ZM229.55 200.49C228.346 201.853 227.012 203.099 225.568 204.209L227.092 206.191C228.663 204.983 230.114 203.628 231.424 202.145L229.55 200.49ZM235.393 204.2C233.954 203.092 232.625 201.849 231.424 200.49L229.55 202.145C230.857 203.624 232.303 204.976 233.869 206.181L235.393 204.2ZM235.881 232.833V205.191H233.381V232.833H235.881ZM251.16 231.583H234.631V234.083H251.16V231.583ZM255.977 227.199C255.906 227.918 255.567 229.05 254.808 229.974C254.088 230.853 252.964 231.583 251.16 231.583V234.083C253.764 234.083 255.579 232.977 256.741 231.56C257.866 230.189 258.353 228.566 258.465 227.448L255.977 227.199ZM248.873 219.755C250.05 219.833 251.862 220.317 253.349 221.488C254.785 222.617 255.971 224.42 255.971 227.323H258.471C258.471 223.615 256.902 221.102 254.895 219.523C252.939 217.984 250.618 217.366 249.04 217.261L248.873 219.755ZM247.707 211.081V218.508H250.207V211.081H247.707ZM252.632 210.057C251.439 210.057 250.264 209.984 249.11 209.84L248.803 212.321C250.058 212.477 251.335 212.557 252.632 212.557V210.057ZM280.919 181.77C280.919 197.393 268.254 210.057 252.632 210.057V212.557C269.635 212.557 283.419 198.773 283.419 181.77H280.919ZM270.242 159.631C276.751 164.816 280.919 172.806 280.919 181.77H283.419C283.419 172.012 278.878 163.315 271.8 157.676L270.242 159.631Z" fill="#E6E6EB"/>
<path d="M261.28 158.654C261.28 174.967 248.056 188.191 231.743 188.191C215.429 188.191 202.205 174.967 202.205 158.654C202.205 142.341 215.429 129.116 231.743 129.116C248.056 129.116 261.28 142.341 261.28 158.654Z" fill="#F3F3F6"/>
<ellipse cx="208.259" cy="151.034" rx="4.46683" ry="5.95577" fill="#E6E6EB"/>
<ellipse cx="232.073" cy="151.034" rx="4.46683" ry="5.95577" fill="#E6E6EB"/>
<ellipse cx="220.163" cy="156.988" rx="2.97789" ry="4.46683" transform="rotate(90 220.163 156.988)" fill="#E6E6EB"/>
<path d="M186.392 163.864L193.202 168.961C190.652 174.471 186.191 184.631 181.099 182.479C176.47 180.523 169.304 172.759 165.444 167.501C163.719 164.854 162.617 159.506 168.21 154.384C171.403 151.459 180.078 154.294 182.041 156.837C186.105 161.056 184.644 160.715 186.392 163.864Z" fill="#F3F3F6"/>
<path d="M187 163C183.674 159.655 185.008 160.99 181.804 157.484C179.841 154.941 172.669 151.477 168.209 154.384C161.856 158.525 163.595 165.317 165.32 167.964C167.659 171.552 176.091 179.254 180.125 182.252" stroke="#E6E6EB" stroke-width="2.5"/>
<path d="M274.813 163.705L266.648 166.092C267.105 172.146 274.806 180.63 280.329 180.399C285.35 180.19 287.699 178.026 293.157 174.455C295.7 172.581 299.663 167.305 295.165 161.2C290.666 155.095 284.081 156.956 281.351 158.649C276.036 156.965 274.778 161.318 274.813 163.705Z" fill="#F3F3F6"/>
<path d="M280.485 180.419C285.314 179.025 289.662 177.472 293.11 174.931C295.654 173.057 299.663 167.305 295.165 161.2C290.666 155.095 284.081 156.956 281.351 158.649C276.036 156.964 274.778 161.318 274.813 163.705L268.427 165.718" stroke="#E6E6EB" stroke-width="2.5"/>
<path d="M234.017 128.201C230.931 131.481 223.319 136.517 217.557 130.422C210.355 122.803 222.347 119.43 223.456 126.375C224.379 132.157 220.452 137.908 213.138 135.436C211.783 134.977 208.743 133.561 207.581 130.319" stroke="#E6E6EB" stroke-width="2" stroke-linecap="round"/>
<path d="M157.712 154.125L150.179 158.436C152.06 164.735 151.168 174.925 156.59 173.472C161.518 172.15 173.862 166.437 178.431 161.467C180.511 158.928 183.197 152.485 177.297 147.018C171.398 141.551 165.309 144.961 163.001 147.349C157.335 146.733 157.114 151.61 157.712 154.125Z" fill="#F3F3F6"/>
<path d="M159.386 172.734C163.837 170.305 175.375 163.932 178.215 160.676C180.311 158.274 183.002 151.732 177.236 146.703C171.47 141.675 165.392 144.947 163.073 147.212C157.47 146.715 157.184 151.278 157.74 153.622L152.829 156.592" stroke="#E6E6EB" stroke-width="2.51967" stroke-linecap="round"/>
<path fill-rule="evenodd" clip-rule="evenodd" d="M130.922 204.786C150.801 197.565 164.985 178.657 164.985 156.467C164.985 128.051 141.724 105.016 113.029 105.016C84.3347 105.016 61.0732 128.051 61.0732 156.467C61.0732 177.725 74.0909 195.971 92.6625 203.815L93.0629 218.429C90.2234 218.575 84.5883 220.478 84.7649 226.921C85.0036 228.713 86.6187 232.31 91.1699 232.363L108.237 232.56L107.554 207.636C109.353 207.823 111.18 207.919 113.029 207.919C114.042 207.919 115.048 207.89 116.046 207.833V232.091H133.21C137.787 232.091 139.313 228.533 139.504 226.754C139.504 220.349 133.782 218.392 130.922 218.214V204.786Z" fill="#F3F3F6"/>
<path d="M130.922 204.786L130.491 203.602L129.662 203.904V204.786H130.922ZM92.6625 203.815L93.9219 203.781L93.8996 202.97L93.1527 202.655L92.6625 203.815ZM93.0629 218.429L93.1276 219.687L94.356 219.624L94.3223 218.394L93.0629 218.429ZM84.7649 226.921L83.5055 226.955L83.5074 227.021L83.5161 227.087L84.7649 226.921ZM91.1699 232.363L91.1845 231.103H91.1845L91.1699 232.363ZM108.237 232.56L108.222 233.82L109.532 233.835L109.496 232.526L108.237 232.56ZM107.554 207.636L107.684 206.383L106.255 206.235L106.294 207.671L107.554 207.636ZM116.046 207.833H117.306V206.5L115.975 206.576L116.046 207.833ZM116.046 232.091H114.786V233.351H116.046V232.091ZM139.504 226.754L140.756 226.888L140.763 226.821V226.754H139.504ZM130.922 218.214H129.662V219.398L130.843 219.472L130.922 218.214ZM163.725 156.467C163.725 178.104 149.895 196.554 130.491 203.602L131.352 205.971C151.707 198.576 166.245 179.21 166.245 156.467H163.725ZM113.029 106.275C141.04 106.275 163.725 128.759 163.725 156.467H166.245C166.245 127.344 142.408 103.756 113.029 103.756V106.275ZM62.3331 156.467C62.3331 128.759 85.0189 106.275 113.029 106.275V103.756C83.6506 103.756 59.8134 127.344 59.8134 156.467H62.3331ZM93.1527 202.655C75.0258 194.998 62.3331 177.195 62.3331 156.467H59.8134C59.8134 178.254 73.156 196.944 92.1723 204.976L93.1527 202.655ZM91.4031 203.85L91.8036 218.463L94.3223 218.394L93.9219 203.781L91.4031 203.85ZM92.9982 217.17C91.3901 217.253 89.0148 217.822 87.0295 219.303C84.9836 220.83 83.4052 223.295 83.5055 226.955L86.0243 226.886C85.948 224.104 87.0989 222.395 88.5362 221.323C90.0342 220.205 91.8961 219.75 93.1276 219.687L92.9982 217.17ZM83.5161 227.087C83.6639 228.197 84.2166 229.788 85.4078 231.13C86.6338 232.512 88.5065 233.592 91.1553 233.622L91.1845 231.103C89.2821 231.081 88.0716 230.336 87.2926 229.458C86.4788 228.541 86.1046 227.437 86.0137 226.754L83.5161 227.087ZM91.1553 233.622L108.222 233.82L108.251 231.3L91.1845 231.103L91.1553 233.622ZM109.496 232.526L108.813 207.602L106.294 207.671L106.977 232.595L109.496 232.526ZM113.029 206.659C111.223 206.659 109.44 206.565 107.684 206.383L107.424 208.89C109.266 209.081 111.136 209.179 113.029 209.179V206.659ZM115.975 206.576C115 206.631 114.018 206.659 113.029 206.659V209.179C114.066 209.179 115.095 209.149 116.117 209.091L115.975 206.576ZM117.306 232.091V207.833H114.786V232.091H117.306ZM133.21 230.831H116.046V233.351H133.21V230.831ZM138.251 226.62C138.179 227.29 137.837 228.369 137.056 229.258C136.312 230.104 135.128 230.831 133.21 230.831V233.351C135.869 233.351 137.737 232.299 138.948 230.921C140.122 229.586 140.637 227.997 140.756 226.888L138.251 226.62ZM130.843 219.472C132.088 219.549 133.987 220.025 135.54 221.165C137.039 222.265 138.244 223.993 138.244 226.754H140.763C140.763 223.11 139.108 220.658 137.031 219.133C135.008 217.649 132.616 217.057 131 216.957L130.843 219.472ZM129.662 204.786V218.214H132.181V204.786H129.662Z" fill="#E6E6EB"/>
<rect x="169.846" y="134.573" width="10.0787" height="21.5126" rx="1.25984" transform="rotate(6.84556 169.846 134.573)" fill="#E6E6EB"/>
<path d="M135.211 134.881C131.493 137.782 122.809 141.777 117.82 134.547C111.584 125.51 124.535 123.937 124.572 131.302C124.603 137.434 119.619 142.758 112.444 139.03C111.115 138.339 108.195 136.387 107.511 132.846" stroke="#E6E6EB" stroke-width="2.51967" stroke-linecap="round"/>
<ellipse cx="4.67808" cy="6.23744" rx="4.67808" ry="6.23744" transform="matrix(-0.999932 0.0116947 0.0116947 0.999932 137.993 146.984)" fill="#E6E6EB"/>
<ellipse cx="4.67808" cy="6.23744" rx="4.67808" ry="6.23744" transform="matrix(-0.999932 0.0116947 0.0116947 0.999932 113.054 147.275)" fill="#E6E6EB"/>
<ellipse cx="3.11872" cy="4.67808" rx="3.11872" ry="4.67808" transform="matrix(0.0116948 0.999932 0.999932 -0.0116948 116.28 156.592)" fill="#E6E6EB"/>
<path d="M68.8538 156.143L76.3862 160.454C74.5059 166.753 75.397 176.943 69.9758 175.489C65.047 174.167 52.7032 168.454 48.1343 163.484C46.0542 160.946 43.3689 154.502 49.2679 149.035C55.167 143.569 61.2567 146.978 63.5642 149.366C69.2305 148.751 69.4516 153.627 68.8538 156.143Z" fill="#F3F3F6"/>
<path d="M67.1792 174.752C62.7287 172.323 51.19 165.95 48.35 162.694C46.2547 160.291 43.5638 153.75 49.3295 148.721C55.0953 143.692 61.1736 146.965 63.492 149.23C69.0949 148.733 69.3819 153.296 68.825 155.639L73.7368 158.61" stroke="#E6E6EB" stroke-width="2.51967" stroke-linecap="round"/>
<path d="M176.732 157.929C178.147 155.462 180.511 154.149 178.091 152.245C175.035 150.492 171.411 151.07 169.995 153.537C168.579 156.004 169.909 159.425 172.964 161.179C176.02 162.932 175.316 160.396 176.732 157.929Z" fill="#F3F3F6"/>
<path d="M177.361 152.26C176.765 151.756 175.831 150.612 174.315 150.547C173.51 150.512 172.674 150.729 171.898 151.174C171.122 151.619 170.436 152.274 169.917 153.067C169.398 153.861 169.066 154.762 168.956 155.67C168.847 156.579 168.965 157.46 169.297 158.217C169.629 158.973 170.163 159.576 170.84 159.957C171.516 160.339 172.309 160.486 173.13 160.38" stroke="#E6E6EB" stroke-width="2.51967" stroke-linecap="round"/>
</svg>
