<svg width="24" height="24" viewBox="0 0 24 24" fill="none" xmlns="http://www.w3.org/2000/svg">
<path fill-rule="evenodd" clip-rule="evenodd" d="M6.16897 9.83455C6.1692 8.01609 6.78453 6.25116 7.91493 4.82672C9.04532 3.40228 10.6243 2.40209 12.3952 1.98875C14.166 1.57541 16.0247 1.77324 17.6689 2.55006C19.313 3.32689 20.6461 4.63703 21.4514 6.2675C22.2566 7.89796 22.4867 9.75286 22.1041 11.5306C21.7216 13.3084 20.7489 14.9045 19.3443 16.0595C17.9397 17.2144 16.1857 17.8603 14.3675 17.8921C12.5494 17.9238 10.7739 17.3397 9.32975 16.2345L7.40879 18.1544L8.94083 19.6865C9.04344 19.7856 9.12529 19.9041 9.1816 20.0352C9.2379 20.1663 9.26754 20.3073 9.26878 20.4499C9.27002 20.5926 9.24284 20.734 9.18882 20.8661C9.1348 20.9981 9.05502 21.1181 8.95415 21.2189C8.85327 21.3198 8.73332 21.3996 8.60128 21.4536C8.46925 21.5076 8.32777 21.5348 8.18512 21.5336C8.04247 21.5323 7.90149 21.5027 7.77041 21.4464C7.63934 21.3901 7.52079 21.3082 7.42168 21.2056L5.88964 19.6746L3.61199 21.9523C3.41039 22.1537 3.13703 22.2669 2.85203 22.2668C2.56704 22.2667 2.29375 22.1534 2.0923 21.9518C1.89085 21.7502 1.77773 21.4768 1.77783 21.1918C1.77793 20.9068 1.89124 20.6335 2.09284 20.4321L4.37049 18.1544L2.86316 16.6471C2.76054 16.548 2.6787 16.4294 2.62239 16.2984C2.56608 16.1673 2.53645 16.0263 2.53521 15.8836C2.53397 15.741 2.56115 15.5995 2.61517 15.4675C2.66919 15.3355 2.74896 15.2155 2.84984 15.1146C2.95071 15.0137 3.07067 14.934 3.2027 14.88C3.33474 14.8259 3.47621 14.7988 3.61887 14.8C3.76152 14.8012 3.9025 14.8309 4.03357 14.8872C4.16465 14.9435 4.2832 15.0253 4.38231 15.1279L5.88964 16.6353L7.81275 14.7122C6.74417 13.3109 6.16652 11.5968 6.16897 9.83455ZM14.2267 3.92555C12.6595 3.92555 11.1566 4.54811 10.0484 5.65626C8.94025 6.76441 8.3177 8.26739 8.3177 9.83455C8.3177 11.4017 8.94025 12.9047 10.0484 14.0128C11.1566 15.121 12.6595 15.7436 14.2267 15.7436C15.7939 15.7436 17.2968 15.121 18.405 14.0128C19.5131 12.9047 20.1357 11.4017 20.1357 9.83455C20.1357 8.26739 19.5131 6.76441 18.405 5.65626C17.2968 4.54811 15.7939 3.92555 14.2267 3.92555Z" fill="#D5D5DE"/>
</svg>
