<svg width="295" height="216" viewBox="0 0 295 216" fill="none" xmlns="http://www.w3.org/2000/svg">
<ellipse cx="147.119" cy="192.852" rx="59.1187" ry="12.8519" fill="#F3F3F6"/>
<path d="M57.8451 178.469L54 170.568" stroke="black" stroke-width="2" stroke-linecap="round"/>
<path d="M62.3784 177.999L63.7622 168" stroke="black" stroke-width="2" stroke-linecap="round"/>
<path d="M217.084 199L213.239 191.099" stroke="black" stroke-width="2" stroke-linecap="round"/>
<path d="M225.759 198.936C225.759 198.936 225.759 195 228.263 191.035" stroke="black" stroke-width="2" stroke-linecap="round"/>
<path d="M221.617 198.53C221.617 198.53 219.5 194 222.003 186.027" stroke="black" stroke-width="2" stroke-linecap="round"/>
<path fill-rule="evenodd" clip-rule="evenodd" d="M100.192 80.2227C115.156 77.8746 126.603 64.9247 126.603 49.3013C126.603 32.0141 112.588 18 95.3013 18C78.0141 18 64 32.0141 64 49.3013C64 64.9247 75.4463 77.8746 90.4103 80.2227L86.5369 86.8628H104.066L100.192 80.2227Z" fill="#FF6F61"/>
<path d="M100.192 80.2227L100.037 79.2348C99.7108 79.286 99.4308 79.4951 99.289 79.7935C99.1472 80.092 99.162 80.4412 99.3284 80.7266L100.192 80.2227ZM90.4103 80.2227L91.2741 80.7265C91.4406 80.4412 91.4553 80.092 91.3136 79.7935C91.1718 79.4951 90.8917 79.286 90.5653 79.2348L90.4103 80.2227ZM86.5369 86.8628L85.6731 86.3589C85.4927 86.6682 85.4914 87.0504 85.6698 87.3609C85.8481 87.6714 86.1788 87.8628 86.5369 87.8628V86.8628ZM104.066 86.8628V87.8628C104.424 87.8628 104.754 87.6714 104.933 87.3609C105.111 87.0504 105.11 86.6682 104.929 86.3589L104.066 86.8628ZM125.603 49.3013C125.603 64.4246 114.522 76.9619 100.037 79.2348L100.347 81.2106C115.79 78.7874 127.603 65.4247 127.603 49.3013H125.603ZM95.3013 19C112.036 19 125.603 32.5663 125.603 49.3013H127.603C127.603 31.4618 113.141 17 95.3013 17V19ZM65 49.3013C65 32.5663 78.5663 19 95.3013 19V17C77.4618 17 63 31.4618 63 49.3013H65ZM90.5653 79.2348C76.0802 76.9619 65 64.4246 65 49.3013H63C63 65.4247 74.8123 78.7874 90.2553 81.2106L90.5653 79.2348ZM87.4007 87.3667L91.2741 80.7265L89.5465 79.7188L85.6731 86.3589L87.4007 87.3667ZM104.066 85.8628H86.5369V87.8628H104.066V85.8628ZM99.3284 80.7266L103.202 87.3667L104.929 86.3589L101.056 79.7188L99.3284 80.7266Z" fill="black"/>
<path d="M95.3014 86.8628C93.2147 95.4185 89.2915 119.041 92.7972 132.563C96.303 146.085 94.258 164.073 92.7972 171.376" stroke="black" stroke-width="2" stroke-linecap="round" stroke-linejoin="round"/>
<path d="M73.7755 100C73.6773 107.772 75.1831 128.757 81.6045 139.296C88.026 149.835 90.0836 165.574 90.3097 172.126" stroke="black" stroke-width="2" stroke-linecap="round" stroke-linejoin="round"/>
<path fill-rule="evenodd" clip-rule="evenodd" d="M77.996 95.3817C90.0989 91.2913 97.7593 78.5288 95.522 65.0349C93.0464 50.104 79.3901 39.9316 65.0198 42.3143C50.6495 44.6969 41.0069 58.7323 43.4824 73.6632C45.7198 87.1571 57.0892 96.7644 69.8646 96.7299L67.5956 102.999L82.1667 100.583L77.996 95.3817Z" fill="#FF998F"/>
<path d="M77.996 95.3817L77.6758 94.4344C77.3665 94.5389 77.1278 94.7877 77.0362 95.101C76.9445 95.4143 77.0116 95.7526 77.2158 96.0073L77.996 95.3817ZM69.8646 96.7299L70.8049 97.0702C70.916 96.7633 70.8703 96.4215 70.6824 96.1545C70.4946 95.8875 70.1883 95.729 69.8619 95.7299L69.8646 96.7299ZM67.5956 102.999L66.6553 102.659C66.5345 102.992 66.5998 103.365 66.8269 103.638C67.054 103.911 67.4089 104.043 67.7592 103.985L67.5956 102.999ZM82.1667 100.583L82.3303 101.569C82.6806 101.511 82.9739 101.272 83.1007 100.94C83.2276 100.608 83.169 100.234 82.9469 99.9573L82.1667 100.583ZM94.5355 65.1985C96.696 78.2288 89.2953 90.5073 77.6758 94.4344L78.3161 96.3291C90.9024 92.0753 98.8227 78.8288 96.5086 64.8714L94.5355 65.1985ZM65.1834 43.3008C78.9736 41.0143 92.1443 50.7765 94.5355 65.1985L96.5086 64.8714C93.9486 49.4315 79.8066 38.8489 64.8562 41.3277L65.1834 43.3008ZM44.469 73.4997C42.0778 59.0777 51.3931 45.5873 65.1834 43.3008L64.8562 41.3277C49.9058 43.8066 39.9359 58.387 42.4959 73.8268L44.469 73.4997ZM69.8619 95.7299C57.5967 95.763 46.6294 86.53 44.469 73.4997L42.4959 73.8268C44.8101 87.7842 56.5817 97.7657 69.8673 97.7299L69.8619 95.7299ZM68.5359 103.339L70.8049 97.0702L68.9243 96.3896L66.6553 102.659L68.5359 103.339ZM82.0031 99.5964L67.4321 102.012L67.7592 103.985L82.3303 101.569L82.0031 99.5964ZM77.2158 96.0073L81.3866 101.209L82.9469 99.9573L78.7761 94.7561L77.2158 96.0073Z" fill="black"/>
<path d="M170.783 80.2185L166.589 90.4633" stroke="black" stroke-width="2"/>
<path fill-rule="evenodd" clip-rule="evenodd" d="M184.422 70.4497C184.711 70.0803 184.955 69.6653 185.141 69.2096C186.231 66.547 184.957 63.5049 182.294 62.4148C180.854 61.8253 179.303 61.9274 178.01 62.5666C177.536 61.204 176.502 60.0437 175.062 59.4542C172.4 58.3641 169.358 59.6388 168.268 62.3015C168.081 62.7571 167.964 63.2238 167.911 63.6899C165.548 63.2707 163.131 64.5362 162.184 66.8475C161.238 69.1587 162.074 71.756 164.052 73.1142C163.763 73.4836 163.52 73.8986 163.333 74.3541C162.243 77.0167 163.518 80.0589 166.18 81.149C167.62 81.7385 169.171 81.6364 170.464 80.9973C170.938 82.3598 171.972 83.5201 173.412 84.1096C176.074 85.1997 179.117 83.9249 180.207 81.2623C180.393 80.8068 180.511 80.3401 180.563 79.874C182.926 80.2933 185.344 79.0277 186.29 76.7164C187.236 74.4052 186.4 71.8079 184.422 70.4497ZM176.291 74.1572C176.344 73.6911 176.461 73.2244 176.648 72.7689C176.834 72.3133 177.078 71.8983 177.367 71.5288C176.435 70.8891 175.757 69.9746 175.399 68.9445C174.421 69.4278 173.296 69.604 172.183 69.4066C172.13 69.8727 172.013 70.3394 171.827 70.795C171.64 71.2506 171.396 71.6655 171.107 72.035C172.039 72.6746 172.718 73.5891 173.076 74.6192C174.053 74.136 175.178 73.9598 176.291 74.1572Z" fill="#FF6F61"/>
<path d="M184.422 70.4497L183.634 69.8334L182.978 70.6717L183.856 71.2742L184.422 70.4497ZM178.01 62.5666L177.065 62.8949L177.437 63.9651L178.453 63.463L178.01 62.5666ZM167.911 63.6899L167.736 64.6746L168.784 64.8605L168.904 63.8028L167.911 63.6899ZM164.052 73.1142L164.84 73.7305L165.496 72.8922L164.618 72.2898L164.052 73.1142ZM170.464 80.9973L171.409 80.6689L171.037 79.5988L170.021 80.1008L170.464 80.9973ZM180.563 79.874L180.738 78.8894L179.69 78.7034L179.57 79.7611L180.563 79.874ZM176.291 74.1572L176.116 75.1418L177.164 75.3278L177.285 74.2701L176.291 74.1572ZM177.367 71.5288L178.155 72.1452L178.811 71.3068L177.933 70.7044L177.367 71.5288ZM175.399 68.9445L176.343 68.6162L175.971 67.546L174.956 68.0481L175.399 68.9445ZM172.183 69.4066L172.358 68.4219L171.31 68.236L171.19 69.2937L172.183 69.4066ZM171.107 72.035L170.32 71.4186L169.664 72.2569L170.541 72.8594L171.107 72.035ZM173.076 74.6192L172.131 74.9475L172.503 76.0176L173.519 75.5157L173.076 74.6192ZM184.216 68.8308C184.064 69.2004 183.867 69.5356 183.634 69.8334L185.209 71.0661C185.555 70.6249 185.845 70.1301 186.067 69.5885L184.216 68.8308ZM181.915 63.3402C184.067 64.2211 185.097 66.6793 184.216 68.8308L186.067 69.5885C187.366 66.4148 185.847 62.7887 182.673 61.4893L181.915 63.3402ZM178.453 63.463C179.5 62.9456 180.752 62.8639 181.915 63.3402L182.673 61.4893C180.956 60.7866 179.106 60.9092 177.567 61.6701L178.453 63.463ZM174.684 60.3796C175.847 60.8559 176.682 61.7919 177.065 62.8949L178.955 62.2382C178.391 60.6162 177.158 59.2314 175.441 58.5287L174.684 60.3796ZM169.193 62.6803C170.074 60.5288 172.532 59.4988 174.684 60.3796L175.441 58.5287C172.268 57.2294 168.641 58.7489 167.342 61.9226L169.193 62.6803ZM168.904 63.8028C168.947 63.4271 169.042 63.05 169.193 62.6803L167.342 61.9226C167.12 62.4641 166.98 63.0204 166.917 63.5771L168.904 63.8028ZM163.11 67.2264C163.874 65.3599 165.827 64.3358 167.736 64.6746L168.086 62.7053C165.269 62.2055 162.387 63.7125 161.259 66.4686L163.11 67.2264ZM164.618 72.2898C163.02 71.1924 162.346 69.0928 163.11 67.2264L161.259 66.4686C160.131 69.2247 161.128 72.3196 163.487 73.9387L164.618 72.2898ZM164.259 74.733C164.41 74.3634 164.607 74.0282 164.84 73.7305L163.265 72.4979C162.92 72.939 162.629 73.4337 162.408 73.9752L164.259 74.733ZM166.559 80.2235C164.408 79.3427 163.378 76.8845 164.259 74.733L162.408 73.9752C161.108 77.149 162.628 80.7751 165.802 82.0744L166.559 80.2235ZM170.021 80.1008C168.974 80.6182 167.723 80.6998 166.559 80.2235L165.802 82.0744C167.518 82.7771 169.368 82.6546 170.907 81.8937L170.021 80.1008ZM173.791 83.1842C172.627 82.7079 171.792 81.7719 171.409 80.6689L169.52 81.3256C170.084 82.9476 171.317 84.3324 173.033 85.0351L173.791 83.1842ZM179.281 80.8834C178.4 83.0349 175.942 84.065 173.791 83.1842L173.033 85.0351C176.207 86.3344 179.833 84.8149 181.132 81.6412L179.281 80.8834ZM179.57 79.7611C179.527 80.1367 179.433 80.5138 179.281 80.8834L181.132 81.6412C181.354 81.0997 181.494 80.5434 181.557 79.9869L179.57 79.7611ZM185.364 76.3376C184.6 78.204 182.647 79.2281 180.738 78.8894L180.389 80.8586C183.206 81.3584 186.087 79.8514 187.215 77.0953L185.364 76.3376ZM183.856 71.2742C185.454 72.3715 186.129 74.4711 185.364 76.3376L187.215 77.0953C188.344 74.3393 187.346 71.2444 184.988 69.6253L183.856 71.2742ZM177.285 74.2701C177.327 73.8945 177.422 73.5174 177.573 73.1478L175.722 72.39C175.501 72.9315 175.361 73.4878 175.297 74.0443L177.285 74.2701ZM177.573 73.1478C177.724 72.7781 177.922 72.4429 178.155 72.1452L176.58 70.9124C176.234 71.3536 175.944 71.8484 175.722 72.39L177.573 73.1478ZM177.933 70.7044C177.182 70.1888 176.633 69.4504 176.343 68.6162L174.454 69.2729C174.88 70.4987 175.689 71.5894 176.801 72.3532L177.933 70.7044ZM174.956 68.0481C174.164 68.4394 173.255 68.5811 172.358 68.4219L172.009 70.3912C173.338 70.627 174.678 70.4161 175.842 69.841L174.956 68.0481ZM171.19 69.2937C171.147 69.6694 171.053 70.0465 170.901 70.4162L172.752 71.1739C172.974 70.6324 173.114 70.076 173.177 69.5194L171.19 69.2937ZM170.901 70.4162C170.75 70.7858 170.553 71.1209 170.32 71.4186L171.895 72.6513C172.24 72.2101 172.53 71.7154 172.752 71.1739L170.901 70.4162ZM170.541 72.8594C171.292 73.375 171.841 74.1133 172.131 74.9475L174.02 74.2908C173.594 73.065 172.786 71.9743 171.673 71.2105L170.541 72.8594ZM173.519 75.5157C174.31 75.1243 175.219 74.9827 176.116 75.1418L176.466 73.1726C175.137 72.9368 173.796 73.1477 172.633 73.7227L173.519 75.5157Z" fill="black"/>
<circle cx="174.237" cy="71.7817" r="5.20947" transform="rotate(22.2645 174.237 71.7817)" fill="white"/>
<circle cx="152.658" cy="136.757" r="50.9601" fill="#FFCDC9" stroke="black" stroke-width="2"/>
<path d="M123.337 111.726C127.51 113.835 136.72 116.057 140.187 108.07C144.52 98.0861 131.623 99.0371 132.998 106.207C134.143 112.177 140.01 116.4 146.274 111.399C147.434 110.473 149.9 108.015 149.886 104.44" stroke="#FF6F61" stroke-width="2" stroke-linecap="round"/>
<ellipse cx="119.037" cy="126.192" rx="4.63702" ry="6.1827" transform="rotate(6.3656 119.037 126.192)" fill="black"/>
<ellipse cx="143.606" cy="128.933" rx="4.63702" ry="6.1827" transform="rotate(6.3656 143.606 128.933)" fill="black"/>
<ellipse cx="130.633" cy="133.704" rx="3.09135" ry="4.63702" transform="rotate(96.3656 130.633 133.704)" fill="black"/>
<path d="M178.216 173.364L174.257 166.083C178.754 162.241 189.904 161.735 193.539 165.709C196.842 169.323 196.96 172.432 198.242 178.655C198.693 181.7 197.77 188.061 190.462 189.146C183.154 190.231 179.918 184.403 179.213 181.353C174.398 178.838 176.542 174.979 178.216 173.364Z" fill="#FFCDC9"/>
<path d="M193.659 165.804C196.013 170.097 197.926 174.168 198.539 178.296C198.991 181.341 197.77 188.061 190.462 189.146C183.155 190.231 179.918 184.403 179.213 181.353C174.398 178.838 176.542 174.979 178.216 173.364L175.221 167.569" stroke="black" stroke-width="2"/>
<path d="M108.285 176.786C108.285 182.625 105.716 187.651 102.025 189.911C100.688 190.729 99.2046 191.185 97.6424 191.185C91.7648 191.185 87 184.738 87 176.786C87 168.834 91.7648 162.387 97.6424 162.387C99.8678 162.387 102.746 164.601 104.454 166.181C107.257 168.774 108.285 171.845 108.285 176.786Z" fill="#FFCDC9"/>
<path d="M108.285 176.786C108.285 182.625 105.716 187.651 102.025 189.911L137.708 173.03L118.227 161.172L104.454 166.181C107.257 168.774 108.285 171.845 108.285 176.786Z" fill="#FFCDC9"/>
<path d="M115.097 162.424L104.454 166.806C102.159 164.511 96.1163 161.135 91.4678 165.517C84.3523 172.225 86.4596 184.924 92.7198 189.306C96.2971 191.811 100.072 191.848 102.736 189.932L126.792 179.29" stroke="black" stroke-width="2" stroke-linecap="round"/>
<path d="M134.578 184.924C134.578 190.763 132.009 195.79 128.318 198.049C126.981 198.867 125.498 199.323 123.935 199.323C118.058 199.323 113.293 192.876 113.293 184.924C113.293 176.972 118.058 170.526 123.935 170.526C126.161 170.526 128.227 171.45 129.935 173.03C132.738 175.623 134.578 179.983 134.578 184.924Z" fill="#FFCDC9"/>
<path d="M134.578 184.924C134.578 190.763 132.009 195.79 128.318 198.049L164.001 181.168L143.342 168.021L129.935 173.03C132.738 175.623 134.578 179.983 134.578 184.924Z" fill="#FFCDC9"/>
<path d="M141.39 169.937L130.121 174.945C128.869 172.441 122.058 169.274 117.409 173.656C110.294 180.364 112.401 193.063 118.661 197.445C122.239 199.949 125.739 199.986 128.678 198.071L152.733 187.428" stroke="black" stroke-width="2" stroke-linecap="round"/>
<path d="M206 109.307C206.5 106.07 211.996 104.188 214.5 108.57C216.5 112.07 221.5 111.57 222.5 107.57" stroke="black" stroke-width="2" stroke-linecap="round" stroke-linejoin="round"/>
<g clip-path="url(#clip0_2344_4372)">
<path fill-rule="evenodd" clip-rule="evenodd" d="M232.514 95.7709C232.207 95.8981 231.964 96.142 231.837 96.4489C231.71 96.7557 231.71 97.1004 231.837 97.4072L234.999 105.028C234.141 105.037 233.309 105.321 232.625 105.839C231.94 106.357 231.441 107.082 231.2 107.905C230.959 108.729 230.99 109.608 231.287 110.413C231.584 111.218 232.132 111.906 232.85 112.376C233.568 112.846 234.418 113.072 235.275 113.022C236.132 112.971 236.95 112.646 237.608 112.095C238.266 111.545 238.729 110.797 238.929 109.962C239.13 109.128 239.056 108.251 238.72 107.461L234.68 97.7242C234.999 97.6651 235.32 97.6316 235.644 97.6237C236.383 97.6084 237.108 97.7307 237.775 97.9826C238.442 98.2345 239.039 98.6089 239.535 99.0822C240.031 99.5544 240.418 100.118 240.676 100.74C240.803 101.047 241.047 101.29 241.354 101.417C241.661 101.544 242.005 101.544 242.312 101.416C242.619 101.289 242.862 101.045 242.989 100.738C243.116 100.432 243.116 100.087 242.989 99.7802C242.596 98.8342 242.009 97.9812 241.264 97.2697C240.513 96.5581 239.627 96.0039 238.658 95.6396C237.678 95.2705 236.635 95.0941 235.588 95.1202C234.532 95.1449 233.49 95.3659 232.514 95.772L232.514 95.7709Z" fill="black"/>
</g>
<defs>
<clipPath id="clip0_2344_4372">
<rect width="17.5287" height="17.5287" fill="white" transform="translate(225 98.7178) rotate(-22.5352)"/>
</clipPath>
</defs>
</svg>
