<svg width="295" height="216" viewBox="0 0 295 216" fill="none" xmlns="http://www.w3.org/2000/svg">
<ellipse cx="147.119" cy="192.852" rx="59.1187" ry="12.8519" fill="#F3F3F6"/>
<circle cx="118.5" cy="188.5" r="6.5" fill="black"/>
<circle cx="182.5" cy="188.5" r="6.5" fill="black"/>
<path fill-rule="evenodd" clip-rule="evenodd" d="M214.291 175.964C215.394 177.082 215.188 178.725 213.83 179.633L203.691 186.416C203.126 186.794 202.421 187 201.693 187H99.0396C98.2399 187 97.4698 186.751 96.8837 186.303L88.0124 179.52C86.7302 178.54 86.6559 176.889 87.8466 175.834C89.0373 174.778 91.042 174.717 92.3242 175.697L100.284 181.783H200.568L209.834 175.584C211.192 174.676 213.187 174.846 214.291 175.964Z" fill="#FF6F61" stroke="black" stroke-width="2" stroke-linecap="round" stroke-linejoin="round"/>
<path d="M79.1338 164.343C75.9621 161.573 67.6948 157.16 60.0001 161.665" stroke="black" stroke-width="2" stroke-linecap="round" stroke-linejoin="round"/>
<path d="M81.2533 169.751C77.3717 168.118 68.1363 166.527 62.2476 173.222" stroke="black" stroke-width="2" stroke-linecap="round" stroke-linejoin="round"/>
<path d="M69.1685 52.9788L76.9812 58.028L86.0896 51.3844L85.3013 61.1189L98.1786 63.8066L85.3606 68.133L89.8774 75.4514L78.0929 73.5586L75.6282 79.5452L73.2123 75.6307L65.8415 83.7644L68.0579 72.7013L60.1573 67.3893L70.4403 63.9451L69.1685 52.9788Z" fill="#FF6F61" stroke="black" stroke-width="2"/>
<path d="M193.636 111.166L186.17 115.439C188.034 121.683 187.15 131.783 192.524 130.342C197.41 129.032 209.645 123.369 214.174 118.443C216.236 115.927 218.897 109.54 213.05 104.121C207.203 98.7023 201.167 102.082 198.879 104.449C193.263 103.839 193.044 108.673 193.636 111.166Z" fill="#FFCDC9"/>
<path d="M195.296 129.612C199.707 127.204 211.145 120.887 213.96 117.66C216.037 115.278 218.704 108.794 212.989 103.809C207.274 98.8247 201.249 102.069 198.951 104.314C193.397 103.821 193.113 108.344 193.665 110.667L188.796 113.612" stroke="black" stroke-width="2" stroke-linecap="round"/>
<path fill-rule="evenodd" clip-rule="evenodd" d="M171.653 153.952C189.36 146.777 201.845 129.463 201.845 109.244C201.845 82.5995 180.165 61 153.422 61C126.679 61 105 82.5995 105 109.244C105 127.8 115.515 143.909 130.933 151.98L114 164.773L123.568 177.436C126.119 180.813 129.783 179.813 131.297 178.89C136.362 175.063 134.721 169.673 133.267 167.456L147.015 157.069C149.111 157.345 151.25 157.488 153.422 157.488C154.931 157.488 156.424 157.419 157.897 157.284V181H173.769C178.001 181 179.412 177.473 179.588 175.71C179.588 169.361 174.298 167.421 171.653 167.245V153.952Z" fill="#FFCDC9"/>
<path d="M171.653 153.952L171.277 153.025L170.653 153.278V153.952H171.653ZM130.933 151.98L131.536 152.778L132.795 151.826L131.397 151.094L130.933 151.98ZM114 164.773L113.397 163.975L112.599 164.578L113.202 165.376L114 164.773ZM123.568 177.436L122.77 178.039L123.568 177.436ZM131.297 178.89L131.817 179.744L131.86 179.718L131.9 179.688L131.297 178.89ZM133.267 167.456L132.664 166.658L131.918 167.222L132.431 168.004L133.267 167.456ZM147.015 157.069L147.145 156.078L146.739 156.024L146.412 156.271L147.015 157.069ZM157.897 157.284H158.897V156.189L157.806 156.288L157.897 157.284ZM157.897 181H156.897V182H157.897V181ZM179.588 175.71L180.583 175.809L180.588 175.76V175.71H179.588ZM171.653 167.245H170.653V168.181L171.586 168.243L171.653 167.245ZM200.845 109.244C200.845 129.04 188.622 145.997 171.277 153.025L172.028 154.879C190.099 147.557 202.845 129.886 202.845 109.244H200.845ZM153.422 62C179.617 62 200.845 83.1553 200.845 109.244H202.845C202.845 82.0437 180.714 60 153.422 60V62ZM106 109.244C106 83.1553 127.228 62 153.422 62V60C126.131 60 104 82.0437 104 109.244H106ZM131.397 151.094C116.294 143.188 106 127.412 106 109.244H104C104 128.188 114.736 144.63 130.469 152.866L131.397 151.094ZM114.603 165.571L131.536 152.778L130.33 151.182L113.397 163.975L114.603 165.571ZM124.365 176.834L114.798 164.17L113.202 165.376L122.77 178.039L124.365 176.834ZM130.776 178.037C130.157 178.414 129.055 178.824 127.861 178.776C126.715 178.731 125.448 178.267 124.365 176.834L122.77 178.039C124.238 179.983 126.079 180.707 127.782 180.775C129.436 180.841 130.923 180.289 131.817 179.744L130.776 178.037ZM132.431 168.004C133.069 168.978 133.763 170.685 133.727 172.55C133.691 174.362 132.97 176.373 130.694 178.093L131.9 179.688C134.689 177.581 135.68 174.983 135.726 172.589C135.772 170.247 134.918 168.151 134.103 166.908L132.431 168.004ZM146.412 156.271L132.664 166.658L133.87 168.254L147.618 157.867L146.412 156.271ZM153.422 156.488C151.294 156.488 149.199 156.348 147.145 156.078L146.884 158.06C149.024 158.342 151.206 158.488 153.422 158.488V156.488ZM157.806 156.288C156.363 156.42 154.901 156.488 153.422 156.488V158.488C154.962 158.488 156.485 158.417 157.988 158.28L157.806 156.288ZM158.897 181V157.284H156.897V181H158.897ZM173.769 180H157.897V182H173.769V180ZM178.593 175.61C178.521 176.332 178.184 177.458 177.426 178.382C176.699 179.269 175.565 180 173.769 180V182C176.205 182 177.892 180.968 178.973 179.65C180.023 178.37 180.479 176.851 180.583 175.809L178.593 175.61ZM171.586 168.243C172.748 168.32 174.528 168.796 175.994 169.949C177.419 171.07 178.588 172.858 178.588 175.71H180.588C180.588 172.214 179.113 169.857 177.231 168.377C175.39 166.929 173.202 166.346 171.719 166.247L171.586 168.243ZM170.653 153.952V167.245H172.653V153.952H170.653Z" fill="black"/>
<path d="M187.152 81.6177C183.467 84.4934 174.859 88.4532 169.914 81.2869C163.733 72.3291 176.57 70.7695 176.607 78.0701C176.637 84.1488 171.697 89.4261 164.585 85.7303C163.268 85.0455 160.374 83.1102 159.696 79.6003" stroke="#FF6F61" stroke-width="2" stroke-linecap="round"/>
<path d="M108.271 109.548L116.383 112.411C115.671 118.888 118.354 128.666 112.809 128.213C107.767 127.802 94.7137 124.428 89.3739 120.395C86.8937 118.29 83.1282 112.484 87.9074 106.104C92.6866 99.7232 99.2317 101.964 101.907 103.882C107.322 102.273 108.406 106.989 108.271 109.548Z" fill="#FFCDC9"/>
<path d="M109.95 127.992C105.178 126.416 92.7922 122.255 89.4434 119.586C86.9726 117.616 83.1842 111.716 87.9113 105.786C92.6385 99.8563 99.148 101.966 101.812 103.761C107.187 102.28 108.279 106.678 108.153 109.062L113.471 111.085" stroke="black" stroke-width="2" stroke-linecap="round"/>
<ellipse cx="4.63702" cy="6.1827" rx="4.63702" ry="6.1827" transform="matrix(-0.993835 0.110872 0.110872 0.993835 192.786 92)" fill="black"/>
<ellipse cx="4.63702" cy="6.1827" rx="4.63702" ry="6.1827" transform="matrix(-0.993835 0.110872 0.110872 0.993835 168.217 94.7407)" fill="black"/>
<ellipse cx="3.09135" cy="4.63702" rx="3.09135" ry="4.63702" transform="matrix(0.110872 0.993835 0.993835 -0.110872 172.316 103.613)" fill="black"/>
<path fill-rule="evenodd" clip-rule="evenodd" d="M192.197 76.8136C194.173 76.3764 196.13 77.6245 196.568 79.6012C197.661 84.5431 194.54 89.4354 189.599 90.5284L186.295 91.2592C182.475 92.1039 178.686 90.4322 176.657 87.348C175.483 91.5219 171.654 94.5869 167.103 94.5993L163.43 94.6092C157.934 94.6241 153.467 90.1813 153.452 84.6858C153.446 82.4877 155.223 80.7009 157.422 80.6949L173.036 80.6526C174.082 80.6498 175.035 81.0508 175.747 81.709C176.24 80.8285 177.092 80.1543 178.155 79.9193L192.197 76.8136Z" fill="black"/>
<path d="M157.822 87.594L164.252 91.3445" stroke="white" stroke-width="1.5" stroke-linecap="round" stroke-linejoin="round"/>
<path d="M163.716 87.0581L168.002 89.7371" stroke="white" stroke-width="1.5" stroke-linecap="round" stroke-linejoin="round"/>
<path d="M246.791 82.7045C237.732 81.3089 222.702 89.2611 221.111 95.8576C223.452 92.5129 235.371 91.6365 237.667 91.2989C235.718 95.5849 235.59 97.1566 234.946 100.801C237.28 99.6048 251.352 92.7744 260.458 93.1403C256.242 89.5321 248.489 88.9954 245.256 89.8685L246.791 82.7045Z" fill="#FF6F61" stroke="black" stroke-width="2" stroke-linecap="round" stroke-linejoin="round"/>
<path d="M221.359 67.5021C215.312 69.9903 208.794 80.7872 210.074 85.6672C210.368 82.618 217.395 77.5823 218.691 76.5027C218.96 80.0163 219.42 81.0851 220.271 83.6931C221.297 82.0417 227.61 72.3325 233.333 69.158C229.507 68.3944 224.556 70.9514 222.868 72.7296L221.359 67.5021Z" fill="white" stroke="black" stroke-width="2" stroke-linecap="round" stroke-linejoin="round"/>
<path fill-rule="evenodd" clip-rule="evenodd" d="M118.544 91.2545L92.562 92.2173L98.0538 123.399L98.0908 123.398C98.248 124.3 102.089 124.887 106.775 124.713C111.462 124.54 115.248 123.67 115.338 122.758L115.375 122.757L118.544 91.2545Z" fill="#FFE6E4" stroke="black" stroke-width="2" stroke-linejoin="round"/>
<path fill-rule="evenodd" clip-rule="evenodd" d="M93.9397 102.285L93.9355 102.285L95.7654 113.542L95.7746 113.542C95.9593 114.469 100.62 115.047 106.314 114.836C112.008 114.625 116.614 113.704 116.729 112.765L116.729 112.765L117.919 101.397L117.915 101.397C117.777 102.336 112.504 103.282 105.99 103.523C99.4751 103.765 94.1461 103.212 93.9397 102.285Z" fill="#FF998F" stroke="black" stroke-width="2" stroke-linejoin="round"/>
<path fill-rule="evenodd" clip-rule="evenodd" d="M119.901 87.3524C119.861 86.2874 113.315 85.2348 105.14 85.5377C96.9661 85.8406 90.3814 87.3798 90.4209 88.4448L90.5799 92.7351L90.5827 92.8103L90.5879 92.8101C90.8547 94.3056 97.4155 95.2705 105.423 94.9737C113.43 94.677 119.902 93.2292 120.057 91.7181L120.062 91.7179L120.06 91.6426L119.901 87.3524Z" fill="#FF998F"/>
<path d="M119.901 87.3524L118.901 87.3894L118.901 87.3894L119.901 87.3524ZM90.4209 88.4448L91.4202 88.4078L90.4209 88.4448ZM90.5799 92.7351L89.5806 92.7721L90.5799 92.7351ZM90.5827 92.8103L89.5833 92.8473C89.5932 93.1124 89.7079 93.3626 89.9022 93.5431C90.0966 93.7236 90.3547 93.8194 90.6197 93.8096L90.5827 92.8103ZM90.5879 92.8101L91.5724 92.6345C91.4848 92.1437 91.0491 91.7923 90.5509 91.8108L90.5879 92.8101ZM120.057 91.7181L120.02 90.7188C119.522 90.7372 119.113 91.1199 119.062 91.6158L120.057 91.7181ZM120.062 91.7179L120.099 92.7172C120.364 92.7074 120.615 92.5927 120.795 92.3983C120.976 92.204 121.072 91.9459 121.062 91.6809L120.062 91.7179ZM120.06 91.6426L121.059 91.6056L121.059 91.6056L120.06 91.6426ZM105.177 86.537C109.218 86.3873 112.84 86.5736 115.438 86.9232C116.743 87.0988 117.753 87.3109 118.417 87.5276C118.756 87.6381 118.951 87.7329 119.043 87.7929C119.19 87.8895 118.916 87.7752 118.901 87.3894L120.9 87.3154C120.876 86.6633 120.388 86.2831 120.138 86.1196C119.832 85.9194 119.446 85.7596 119.037 85.6263C118.208 85.3556 117.062 85.1238 115.704 84.941C112.976 84.5738 109.238 84.3852 105.103 84.5384L105.177 86.537ZM91.4202 88.4078C91.4348 88.8027 91.1591 88.9376 91.3079 88.8257C91.399 88.7572 91.5929 88.647 91.9293 88.5111C92.5895 88.2443 93.5987 87.957 94.9048 87.6844C97.5044 87.1419 101.137 86.6868 105.177 86.537L105.103 84.5384C100.969 84.6916 97.2227 85.1576 94.4962 85.7266C93.1392 86.0098 91.9988 86.3259 91.18 86.6567C90.777 86.8196 90.3991 87.0067 90.1056 87.2274C89.87 87.4047 89.3971 87.8207 89.4216 88.4818L91.4202 88.4078ZM89.4216 88.4818L89.5806 92.7721L91.5792 92.698L91.4202 88.4078L89.4216 88.4818ZM89.5806 92.7721L89.5833 92.8473L91.582 92.7733L91.5792 92.698L89.5806 92.7721ZM90.6197 93.8096L90.625 93.8094L90.5509 91.8108L90.5456 91.811L90.6197 93.8096ZM89.6035 92.9857C89.6988 93.5202 90.0477 93.8951 90.3655 94.1385C90.6928 94.3892 91.1009 94.5895 91.5366 94.7553C92.4125 95.0889 93.5896 95.3534 94.958 95.5535C97.7084 95.9556 101.414 96.123 105.46 95.9731L105.386 93.9744C101.425 94.1212 97.8459 93.9545 95.2474 93.5745C93.9413 93.3835 92.9277 93.145 92.2482 92.8863C91.9062 92.756 91.6954 92.6379 91.5816 92.5507C91.4583 92.4563 91.5437 92.4739 91.5724 92.6345L89.6035 92.9857ZM105.46 95.9731C109.506 95.8231 113.189 95.382 115.902 94.7773C117.252 94.4765 118.406 94.1256 119.255 93.7282C119.677 93.5305 120.069 93.3006 120.377 93.0264C120.676 92.7601 120.996 92.3604 121.052 91.8203L119.062 91.6158C119.079 91.4535 119.163 91.4296 119.047 91.5329C118.94 91.6283 118.739 91.7617 118.407 91.9169C117.749 92.2252 116.755 92.5381 115.467 92.8252C112.904 93.3965 109.347 93.8276 105.386 93.9744L105.46 95.9731ZM120.094 92.7174L120.099 92.7172L120.025 90.7186L120.02 90.7188L120.094 92.7174ZM121.062 91.6809L121.059 91.6056L119.06 91.6797L119.063 91.7549L121.062 91.6809ZM121.059 91.6056L120.9 87.3154L118.901 87.3894L119.06 91.6797L121.059 91.6056Z" fill="black"/>
<path fill-rule="evenodd" clip-rule="evenodd" d="M111.873 77.1035C112.262 77.7935 111.939 78.636 111.153 78.9852L106.337 81.1253L106.632 89.0849C106.526 90.99 107.259 90.9629 105.027 91.0456C103.528 91.1011 103.528 91.1011 103.458 89.2025L103.129 80.3421C103.109 79.7935 103.454 79.282 104.013 79.034L109.745 76.4867C110.532 76.1374 111.484 76.4136 111.873 77.1035Z" fill="#FF6F61" stroke="black" stroke-width="2" stroke-linecap="round" stroke-linejoin="round"/>
<path d="M94.4907 90.2566C98.032 91.3049 107.544 91.4527 112.5 90.1853" stroke="black" stroke-width="2" stroke-linecap="round" stroke-linejoin="round"/>
<path d="M93.3392 112.504C92.3058 108.955 89.7807 107.792 92.3372 106.443C94.8937 105.094 97.8039 106.877 98.8373 110.426C99.8708 113.974 98.636 117.945 96.0795 119.294C93.523 120.644 94.3726 116.053 93.3392 112.504Z" fill="#FFCDC9"/>
<path d="M92.7936 106.438C93.4546 105.887 94.2264 105.655 95.0238 105.767C95.8211 105.879 96.6131 106.331 97.3122 107.074C98.0114 107.816 98.5905 108.819 98.9857 109.973C99.3808 111.127 99.5767 112.387 99.5517 113.613C99.5266 114.839 99.2817 115.984 98.8438 116.921C98.4059 117.859 97.7921 118.552 97.0702 118.925C96.3483 119.298 95.5463 119.336 94.7528 119.035" stroke="black" stroke-width="2" stroke-linecap="round"/>
</svg>
