<svg width="24" height="24" viewBox="0 0 24 24" fill="none" xmlns="http://www.w3.org/2000/svg">
<path d="M20.2496 2.625H15.7496C15.4512 2.625 15.165 2.74353 14.9541 2.9545C14.7431 3.16548 14.6246 3.45163 14.6246 3.75C14.6246 4.04837 14.7431 4.33452 14.9541 4.54549C15.165 4.75647 15.4512 4.875 15.7496 4.875H17.5308L14.4633 7.94437C12.8686 6.75261 10.8818 6.20904 8.90254 6.42303C6.92329 6.63702 5.09853 7.59269 3.79544 9.09775C2.49235 10.6028 1.80765 12.5455 1.8791 14.535C1.95055 16.5246 2.77286 18.4132 4.18056 19.8209C5.58826 21.2286 7.47688 22.0509 9.46638 22.1223C11.4559 22.1938 13.3986 21.5091 14.9037 20.206C16.4087 18.9029 17.3644 17.0781 17.5784 15.0989C17.7924 13.1196 17.2488 11.1328 16.0571 9.53812L19.1246 6.46875V8.25C19.1246 8.54837 19.2431 8.83452 19.4541 9.04549C19.665 9.25647 19.9512 9.375 20.2496 9.375C20.5479 9.375 20.8341 9.25647 21.045 9.04549C21.256 8.83452 21.3746 8.54837 21.3746 8.25V3.75C21.3746 3.45163 21.256 3.16548 21.045 2.9545C20.8341 2.74353 20.5479 2.625 20.2496 2.625ZM13.7255 18.2306C12.9387 19.0171 11.9364 19.5526 10.8454 19.7694C9.75429 19.9863 8.6234 19.8748 7.5957 19.4489C6.568 19.0231 5.68963 18.3022 5.07165 17.3772C4.45367 16.4522 4.12382 15.3648 4.12382 14.2523C4.12382 13.1399 4.45367 12.0525 5.07165 11.1275C5.68963 10.2025 6.568 9.48155 7.5957 9.05574C8.6234 8.62993 9.75429 8.5184 10.8454 8.73526C11.9364 8.95212 12.9387 9.48762 13.7255 10.2741C14.7786 11.3302 15.3699 12.7609 15.3699 14.2523C15.3699 15.7438 14.7786 17.1744 13.7255 18.2306Z" fill="#D5D5DE"/>
</svg>
