<svg width="295" height="216" viewBox="0 0 295 216" fill="none" xmlns="http://www.w3.org/2000/svg">
<ellipse cx="147.119" cy="192.852" rx="59.1187" ry="12.8519" fill="#F3F3F6"/>
<path d="M228.562 57.5996C217.076 49.3044 205.798 50.131 202.4 53.1328C202.4 53.1328 203.293 63.3017 203.268 72.3014C203.242 81.3011 203.268 86.9519 203.268 86.9519C204.897 82.9539 210.76 80.3667 225.77 79.4618C240.779 78.557 249.853 67.1491 252.514 61.5583C248.104 65.0261 241.128 66.6747 228.562 57.5996Z" fill="#FF998F" stroke="black" stroke-width="2" stroke-linejoin="round"/>
<path d="M164.894 175.369C163.112 179.74 163.5 184.288 165.575 187.106C166.325 188.127 167.297 188.921 168.467 189.397C172.867 191.192 178.402 187.82 180.829 181.866C183.257 175.913 182.614 171.431 178.213 169.637C176.547 168.958 172.301 170.161 170.539 170.822C167.649 171.908 166.403 171.67 164.894 175.369Z" fill="#FFE6E4"/>
<path d="M164.894 175.369C163.112 179.74 163.5 184.288 165.575 187.106L139.436 162.455L150.63 152.638L170.539 170.822C167.649 171.908 166.403 171.67 164.894 175.369Z" fill="#FFE6E4"/>
<path d="M166.667 166.076L171.706 171.298C174.051 169.264 179.257 167.431 181.981 171.819C185.327 177.207 177.192 185.073 172.989 189.602C171.134 191.6 167.943 189.602 165.299 187.013L142.419 164.162" stroke="black" stroke-width="2" stroke-linecap="round"/>
<path d="M181.741 123.397L173.298 123.125C171.858 128.979 176.502 139.365 181.786 140.855C186.589 142.21 189.474 140.894 195.728 139.211C198.708 138.228 204.078 134.475 201.72 127.324C199.362 120.172 192.573 119.892 189.473 120.647C185.006 121.733 185.006 121.881 181.741 123.397Z" fill="#FFE6E4"/>
<path d="M181.927 140.922C186.914 141.099 191.498 140.978 195.537 139.646C198.517 138.664 204.078 134.476 201.72 127.324C199.362 120.172 192.573 119.893 189.473 120.647C185.644 121.578 184.368 122.519 181.741 123.397L175.092 123.322" stroke="black" stroke-width="2"/>
<path fill-rule="evenodd" clip-rule="evenodd" d="M178.475 118.18C185.222 112.806 189.545 104.521 189.545 95.2257C189.545 79.0268 176.414 65.895 160.215 65.895C151.459 65.895 143.599 69.7316 138.225 75.8153C132.851 69.7317 124.991 65.8952 116.235 65.8952C100.037 65.8952 86.9048 79.0269 86.9048 95.2258C86.9048 104.521 91.2287 112.806 97.9749 118.18C91.2287 123.554 86.9048 131.839 86.9048 141.135C86.9048 157.333 100.037 170.465 116.235 170.465C118.484 170.465 120.674 170.212 122.777 169.733L118.81 187.589L138.864 192.045C144.212 193.233 146.798 190.012 147.423 188.254C148.869 181.743 142.627 178.269 139.324 177.345L142.223 164.3C147.19 168.164 153.434 170.465 160.215 170.465C176.414 170.465 189.545 157.333 189.545 141.134C189.545 131.839 185.222 123.554 178.475 118.18Z" fill="#FFE6E4"/>
<path d="M178.475 118.18L177.852 117.398L176.87 118.18L177.852 118.962L178.475 118.18ZM138.225 75.8153L137.476 76.4774L138.225 77.3258L138.974 76.4774L138.225 75.8153ZM97.9749 118.18L98.5979 118.962L99.5798 118.18L98.5979 117.398L97.9749 118.18ZM122.777 169.733L123.753 169.95L124.096 168.407L122.555 168.758L122.777 169.733ZM118.81 187.589L117.833 187.372L117.616 188.348L118.593 188.565L118.81 187.589ZM138.864 192.045L138.647 193.021L138.864 192.045ZM147.423 188.254L148.365 188.588L148.386 188.53L148.399 188.47L147.423 188.254ZM139.324 177.345L138.348 177.128L138.143 178.053L139.055 178.308L139.324 177.345ZM142.223 164.3L142.837 163.511L141.589 162.541L141.247 164.083L142.223 164.3ZM188.545 95.2257C188.545 104.203 184.371 112.206 177.852 117.398L179.098 118.962C186.073 113.407 190.545 104.838 190.545 95.2257H188.545ZM160.215 66.895C175.861 66.895 188.545 79.5791 188.545 95.2257H190.545C190.545 78.4745 176.966 64.895 160.215 64.895V66.895ZM138.974 76.4774C144.167 70.5994 151.758 66.895 160.215 66.895V64.895C151.16 64.895 143.032 68.8638 137.476 75.1533L138.974 76.4774ZM116.235 66.8952C124.692 66.8952 132.283 70.5995 137.476 76.4774L138.974 75.1533C133.418 68.8638 125.29 64.8952 116.235 64.8952V66.8952ZM87.9048 95.2258C87.9048 79.5792 100.589 66.8952 116.235 66.8952V64.8952C99.4843 64.8952 85.9048 78.4747 85.9048 95.2258H87.9048ZM98.5979 117.398C92.0797 112.206 87.9048 104.204 87.9048 95.2258H85.9048C85.9048 104.838 90.3777 113.407 97.3518 118.962L98.5979 117.398ZM87.9048 141.135C87.9048 132.157 92.0797 124.155 98.5979 118.962L97.3518 117.398C90.3777 122.953 85.9048 131.522 85.9048 141.135H87.9048ZM116.235 169.465C100.589 169.465 87.9048 156.781 87.9048 141.135H85.9048C85.9048 157.886 99.4843 171.465 116.235 171.465V169.465ZM122.555 168.758C120.524 169.221 118.409 169.465 116.235 169.465V171.465C118.559 171.465 120.823 171.204 122.999 170.708L122.555 168.758ZM121.801 169.516L117.833 187.372L119.786 187.806L123.753 169.95L121.801 169.516ZM118.593 188.565L138.647 193.021L139.081 191.069L119.026 186.613L118.593 188.565ZM138.647 193.021C141.562 193.669 143.818 193.126 145.447 192.101C147.046 191.095 147.984 189.662 148.365 188.588L146.481 187.919C146.237 188.604 145.57 189.661 144.382 190.408C143.226 191.136 141.514 191.609 139.081 191.069L138.647 193.021ZM148.399 188.47C149.212 184.812 147.84 181.982 145.863 179.998C143.918 178.048 141.365 176.877 139.594 176.382L139.055 178.308C140.586 178.736 142.805 179.764 144.446 181.41C146.054 183.022 147.08 185.185 146.447 188.037L148.399 188.47ZM140.301 177.562L143.199 164.517L141.247 164.083L138.348 177.128L140.301 177.562ZM160.215 169.465C153.664 169.465 147.635 167.243 142.837 163.511L141.609 165.089C146.746 169.085 153.204 171.465 160.215 171.465V169.465ZM188.545 141.134C188.545 156.781 175.861 169.465 160.215 169.465V171.465C176.966 171.465 190.545 157.885 190.545 141.134H188.545ZM177.852 118.962C184.371 124.154 188.545 132.156 188.545 141.134H190.545C190.545 131.522 186.073 122.953 179.098 117.398L177.852 118.962Z" fill="black"/>
<path d="M166.193 86.8823C162.822 90.4658 154.505 95.9679 148.21 89.3088C140.342 80.9849 153.443 77.2997 154.655 84.8873C155.663 91.2049 151.373 97.4879 143.382 94.7869C141.901 94.2864 138.58 92.7386 137.311 89.1968" stroke="#FF6F61" stroke-width="2" stroke-linecap="round"/>
<ellipse cx="143.098" cy="108.483" rx="4.43556" ry="5.91408" transform="rotate(-7.24189 143.098 108.483)" fill="black"/>
<ellipse cx="166.557" cy="105.502" rx="4.43556" ry="5.91408" transform="rotate(-7.24189 166.557 105.502)" fill="black"/>
<ellipse cx="155.57" cy="112.858" rx="2.95704" ry="4.43556" transform="rotate(82.7581 155.57 112.858)" fill="black"/>
<path d="M190.276 141.191C196.445 129.917 206.229 105.457 202.4 52.4951" stroke="black" stroke-width="2" stroke-linecap="round"/>
<path d="M197.211 131.548C197.211 134.367 199.238 136.086 196.504 136.086C193.769 136.086 191.553 133.8 191.553 130.981C191.553 128.161 193.769 125.876 196.504 125.876C199.238 125.876 197.211 128.729 197.211 131.548Z" fill="#FFE6E4"/>
<path d="M196.037 136.029C195.276 136.168 194.498 136.048 193.789 135.681C193.08 135.314 192.468 134.715 192.02 133.949C191.572 133.184 191.306 132.283 191.251 131.344C191.196 130.406 191.355 129.468 191.709 128.632C192.063 127.797 192.6 127.098 193.259 126.611C193.918 126.125 194.674 125.871 195.444 125.876C196.214 125.882 196.967 126.147 197.622 126.643" stroke="black" stroke-width="2" stroke-linecap="round"/>
<path d="M99.5083 118.036C102.849 117.378 110.067 117.645 114.187 124.119L114.292 124.304C114.735 125.185 114.496 126.263 113.722 126.874L113.547 126.997C112.637 127.576 111.448 127.361 110.793 126.532L110.669 126.357C107.864 121.948 102.806 121.641 100.364 122.117L100.135 122.165C99.0834 122.407 98.0342 121.808 97.6938 120.807L97.6353 120.602C97.3764 119.48 98.0759 118.361 99.1978 118.102L99.5083 118.036Z" fill="#FF998F" stroke="black" stroke-width="2" stroke-linecap="round" stroke-linejoin="round"/>
<path d="M115.262 142.954L115.472 142.993C116.431 143.224 117.099 144.103 117.065 145.088L117.046 145.3C116.338 150.495 111.63 160.948 98.5542 162.351L97.9253 162.411C96.8498 162.5 95.8975 161.757 95.7036 160.718L95.6743 160.506C95.5788 159.359 96.4322 158.351 97.5796 158.255L98.0874 158.208C108.65 157.078 112.368 148.75 112.916 144.737L112.955 144.528C113.202 143.501 114.193 142.808 115.262 142.954Z" fill="#FF998F" stroke="black" stroke-width="2" stroke-linecap="round" stroke-linejoin="round"/>
<path d="M80.0209 161.422C83.2866 163.878 92.3898 166.106 97.8198 161.422C103.25 156.737 103.25 145.691 100.013 133.955C93.5379 138.097 84.9247 131.193 82.3912 127.742C75.6135 136.172 71.9562 155.357 80.0209 161.422Z" fill="#FF6F61"/>
<path d="M98.394 122.894C97.3149 120.838 95.5232 117.263 88.6333 121.412C86.6952 122.982 84.479 125.145 82.3912 127.742C84.9247 131.193 93.5379 138.097 100.013 133.955C99.473 129.813 99.4731 124.95 98.394 122.894Z" fill="#FF6F61"/>
<path d="M82.3912 127.742C84.479 125.145 86.6952 122.982 88.6333 121.412C95.5232 117.263 97.3149 120.838 98.394 122.894C99.4731 124.95 99.473 129.813 100.013 133.955M82.3912 127.742C75.6135 136.172 71.9562 155.357 80.0209 161.422C83.2866 163.878 92.3898 166.106 97.8198 161.422C103.25 156.737 103.25 145.691 100.013 133.955M82.3912 127.742C84.9247 131.193 93.5379 138.097 100.013 133.955" stroke="black" stroke-width="2" stroke-linecap="round"/>
<path d="M79.2476 151.099V142.016L93.2857 142.842C93.0104 145.869 92.2948 152.09 91.6341 152.751C90.8084 153.577 86.6795 156.88 84.2022 156.054C82.2203 155.393 80.0733 152.476 79.2476 151.099Z" fill="#FFE6E4" stroke="black" stroke-width="2" stroke-linecap="round" stroke-linejoin="round"/>
<path d="M84.2022 146.97L79.2476 141.19L93.2857 142.841L84.2022 146.97Z" fill="#FF998F" stroke="black" stroke-width="2" stroke-linecap="round" stroke-linejoin="round"/>
<path d="M84.2021 150.274C84.2021 151.65 84.3673 152.916 85.0279 153.577" stroke="black" stroke-width="2" stroke-linecap="round"/>
<path d="M116.929 127.06L108.641 125.43C106.276 130.976 109.186 141.975 114.159 144.297C118.681 146.408 121.741 145.574 128.185 144.922C131.284 144.432 137.189 141.594 136.014 134.156C134.84 126.717 128.185 125.347 125.004 125.592C121.089 121.677 117.99 124.939 116.929 127.06Z" fill="#FFE6E4"/>
<path d="M114.288 144.385C119.182 145.364 123.725 145.983 127.926 145.32C131.025 144.831 137.189 141.594 136.015 134.155C134.84 126.717 128.185 125.347 125.004 125.592C121.089 121.677 117.99 124.939 116.93 127.06L110.38 125.914" stroke="black" stroke-width="2"/>
<path d="M60.6859 104.382C59.8537 105.09 59.2186 105.92 58.796 106.871C58.3735 107.823 58.186 108.775 58.2579 109.721C58.3298 110.667 58.6471 111.48 59.225 112.159C59.8029 112.838 60.5606 113.289 61.4891 113.518C62.3953 113.746 63.3985 113.725 64.4008 113.457C65.4166 113.185 66.3346 112.706 67.1668 111.997C67.7096 111.536 68.2462 110.865 68.7796 109.97C69.3129 109.076 69.7485 108.176 70.0772 107.28C70.3194 106.52 70.5662 105.655 70.8085 104.693C71.0508 103.732 71.3482 102.157 71.4162 101.797L69.4539 101.855C68.5259 101.865 67.5289 101.958 66.4601 102.15C65.3913 102.342 64.3117 102.631 63.2275 103.025C62.1309 103.404 61.292 103.866 60.6859 104.382Z" fill="#FF6F61" stroke="black" stroke-width="2" stroke-linejoin="round"/>
<path d="M65.4726 86.7686C64.6912 87.0575 64.019 87.4852 63.4672 88.0555C62.9153 88.6258 62.5314 89.2587 62.335 89.9547C62.1385 90.6507 62.1527 91.3157 62.3884 91.9532C62.6241 92.5908 63.0484 93.1119 63.6529 93.5196C64.242 93.9201 64.9657 94.168 65.7533 94.2393C66.5519 94.3103 67.3347 94.208 68.1161 93.9191C68.6257 93.7307 69.1857 93.3912 69.8019 92.8906C70.4182 92.39 70.9657 91.8603 71.4361 91.3046C71.8087 90.824 72.212 90.2696 72.6374 89.6448C73.0629 89.0199 73.6886 87.9704 73.8316 87.7305L72.4115 87.258C71.7448 87.0214 71.0067 86.8267 70.1912 86.684C69.3758 86.5413 68.5271 86.4654 67.6477 86.4632C66.7633 86.4473 66.0416 86.5582 65.4726 86.7686Z" fill="#FF6F61" stroke="black" stroke-width="2" stroke-linejoin="round"/>
<path d="M168.086 53.2636C167.603 53.1476 167.155 53.2011 166.741 53.4242C166.327 53.6476 166.067 53.9767 165.963 54.4114C165.845 54.9029 165.924 55.3301 166.201 55.6932C166.479 56.0567 166.847 56.2933 167.306 56.4038C167.774 56.5161 168.215 56.4756 168.63 56.2822C169.045 56.0894 169.312 55.7438 169.431 55.2452C169.536 54.8105 169.458 54.4005 169.199 54.0152C168.939 53.6298 168.568 53.3793 168.086 53.2636ZM175.604 43.6473C175.323 42.8682 174.819 42.1765 174.104 41.5932C173.394 41.0131 172.506 40.5933 171.462 40.3425C170.34 40.0727 169.284 40.0672 168.326 40.3271C167.367 40.5863 166.57 41.0238 165.955 41.6281C165.337 42.2339 164.939 42.8968 164.771 43.5983C164.681 43.9737 164.752 44.3604 164.983 44.7481C165.214 45.138 165.559 45.3903 166.006 45.4977C166.766 45.6806 167.396 45.3574 167.871 44.544C168.287 43.8746 168.717 43.3925 169.149 43.108C169.556 42.8401 170.122 42.7913 170.833 42.9621C171.446 43.1094 171.888 43.3974 172.187 43.8434C172.481 44.2839 172.564 44.7452 172.442 45.2527C172.386 45.4989 172.265 45.7261 172.094 45.9117C171.911 46.11 171.702 46.282 171.472 46.4226C171.228 46.5719 170.833 46.7906 170.297 47.0711C169.673 47.3994 169.161 47.6966 168.778 47.9513C168.372 48.2252 168.017 48.5672 167.727 48.9621C167.426 49.3705 167.199 49.8884 167.052 50.5019C166.926 51.0262 166.975 51.4672 167.197 51.8133C167.417 52.1566 167.74 52.3815 168.157 52.4817C168.954 52.6733 169.559 52.358 169.903 51.5789C170.062 51.2585 170.175 51.0352 170.246 50.9091C170.31 50.7949 170.39 50.6814 170.484 50.5714C170.575 50.4649 170.707 50.3503 170.876 50.23C171.053 50.1042 171.286 49.9617 171.566 49.8075C172.609 49.2465 173.349 48.836 173.764 48.5878C174.192 48.3312 174.592 47.997 174.954 47.5931C175.325 47.1785 175.589 46.6507 175.74 46.0236C175.931 45.2289 175.884 44.43 175.602 43.6476" fill="black"/>
</svg>
