<svg width="235" height="190" viewBox="0 0 235 190" fill="none" xmlns="http://www.w3.org/2000/svg">
<ellipse cx="117" cy="152.235" rx="57" ry="10.0588" fill="#F3F3F6"/>
<path fill-rule="evenodd" clip-rule="evenodd" d="M115.278 128.992C116.398 128.992 117.507 128.941 118.601 128.842V150.197H130.405C133.552 150.197 134.601 147.574 134.733 146.262C134.733 141.541 130.798 140.098 128.831 139.967V126.365C142.002 121.03 151.289 108.152 151.289 93.1139C151.289 73.2987 135.166 57.2354 115.278 57.2354C95.389 57.2354 79.2661 73.2987 79.2661 93.1139C79.2661 93.2474 79.2668 93.3806 79.2683 93.5137L77.773 92.9109C77.5419 91.2217 76.1869 88.2831 72.6153 90.0424C70.5063 89.1395 65.6579 88.5319 63.1365 93.3244C60.6151 98.1169 63.9785 101.416 65.9754 102.467C70.1195 104.361 79.1695 108.219 82.8916 108.822C86.8812 116.971 93.8787 123.392 102.444 126.647L102.444 139.967C100.477 140.098 96.5427 141.541 96.5427 146.262C96.6739 147.574 97.7231 150.197 100.871 150.197H112.674V128.9C113.534 128.961 114.402 128.992 115.278 128.992Z" fill="#FFCDC9"/>
<path d="M118.601 128.842H119.315V128.06L118.537 128.131L118.601 128.842ZM118.601 150.197H117.888V150.91H118.601V150.197ZM134.733 146.262L135.442 146.333L135.446 146.298V146.262H134.733ZM128.831 139.967H128.118V140.634L128.783 140.679L128.831 139.967ZM128.831 126.365L128.563 125.703L128.118 125.884V126.365H128.831ZM79.2683 93.5137L79.0016 94.1754L79.9934 94.5752L79.9816 93.5059L79.2683 93.5137ZM77.773 92.9109L77.0662 93.0076L77.1223 93.4177L77.5062 93.5725L77.773 92.9109ZM72.6153 90.0424L72.3346 90.6982L72.6362 90.8273L72.9305 90.6823L72.6153 90.0424ZM63.1365 93.3244L63.7678 93.6566H63.7678L63.1365 93.3244ZM65.9754 102.467L65.6432 103.098L65.6608 103.107L65.6789 103.116L65.9754 102.467ZM82.8916 108.822L83.5323 108.508L83.3701 108.176L83.0057 108.117L82.8916 108.822ZM102.444 126.647H103.158V126.155L102.698 125.98L102.444 126.647ZM102.444 139.967L102.492 140.679L103.158 140.634V139.967H102.444ZM96.5427 146.262H95.8293V146.298L95.8329 146.333L96.5427 146.262ZM112.674 150.197V150.91H113.387V150.197H112.674ZM112.674 128.9L112.725 128.189L111.961 128.134V128.9H112.674ZM118.537 128.131C117.464 128.229 116.376 128.279 115.278 128.279V129.706C116.42 129.706 117.55 129.654 118.666 129.552L118.537 128.131ZM119.315 150.197V128.842H117.888V150.197H119.315ZM130.405 149.483H118.601V150.91H130.405V149.483ZM134.023 146.191C133.969 146.733 133.716 147.576 133.148 148.269C132.602 148.935 131.75 149.483 130.405 149.483V150.91C132.207 150.91 133.453 150.147 134.251 149.174C135.028 148.227 135.365 147.103 135.442 146.333L134.023 146.191ZM128.783 140.679C129.652 140.737 130.983 141.092 132.078 141.954C133.145 142.793 134.019 144.131 134.019 146.262H135.446C135.446 143.672 134.353 141.928 132.961 140.833C131.597 139.76 129.977 139.328 128.878 139.255L128.783 140.679ZM128.118 126.365V139.967H129.544V126.365H128.118ZM150.576 93.1139C150.576 107.851 141.476 120.474 128.563 125.703L129.099 127.026C142.529 121.586 152.002 108.454 152.002 93.1139H150.576ZM115.278 57.9487C134.775 57.9487 150.576 73.6952 150.576 93.1139H152.002C152.002 72.9023 135.558 56.522 115.278 56.522V57.9487ZM79.9795 93.1139C79.9795 73.6952 95.7805 57.9487 115.278 57.9487V56.522C94.9975 56.522 78.5527 72.9023 78.5527 93.1139H79.9795ZM79.9816 93.5059C79.9802 93.3754 79.9795 93.2448 79.9795 93.1139H78.5527C78.5527 93.25 78.5535 93.3858 78.555 93.5216L79.9816 93.5059ZM77.5062 93.5725L79.0016 94.1754L79.535 92.8521L78.0397 92.2493L77.5062 93.5725ZM72.9305 90.6823C73.7385 90.2843 74.3622 90.1809 74.8343 90.2216C75.2985 90.2615 75.6681 90.4448 75.9721 90.7159C76.6104 91.2851 76.9628 92.2521 77.0662 93.0076L78.4798 92.8142C78.3521 91.8805 77.9115 90.5336 76.9216 89.651C76.4116 89.1962 75.7583 88.8691 74.9567 88.8001C74.1629 88.7318 73.2779 88.9208 72.3001 89.4024L72.9305 90.6823ZM63.7678 93.6566C64.9201 91.4665 66.5701 90.546 68.1614 90.2489C69.7884 89.9452 71.3839 90.2912 72.3346 90.6982L72.8961 89.3865C71.7377 88.8907 69.8545 88.4815 67.8996 88.8464C65.9092 89.2179 63.8743 90.3899 62.5052 92.9923L63.7678 93.6566ZM66.3075 101.836C65.4101 101.363 64.1943 100.373 63.5 98.9806C62.8257 97.6279 62.6154 95.847 63.7678 93.6566L62.5052 92.9923C61.1362 95.5943 61.3469 97.8593 62.2231 99.6171C63.0794 101.335 64.5438 102.52 65.6432 103.098L66.3075 101.836ZM83.0057 108.117C81.2323 107.83 78.1091 106.745 74.8528 105.464C71.6213 104.193 68.3347 102.761 66.2719 101.818L65.6789 103.116C67.7601 104.067 71.0706 105.51 74.3306 106.792C77.5659 108.065 80.8288 109.21 82.7776 109.526L83.0057 108.117ZM102.698 125.98C94.302 122.789 87.4426 116.496 83.5323 108.508L82.2509 109.135C86.3198 117.447 93.4554 123.994 102.191 127.314L102.698 125.98ZM103.158 139.967L103.158 126.647H101.731L101.731 139.967H103.158ZM97.2561 146.262C97.2561 144.131 98.1305 142.793 99.1969 141.954C100.293 141.092 101.623 140.737 102.492 140.679L102.397 139.255C101.299 139.328 99.678 139.76 98.3148 140.833C96.9222 141.928 95.8293 143.672 95.8293 146.262H97.2561ZM100.871 149.483C99.5251 149.483 98.6733 148.935 98.1271 148.269C97.5593 147.576 97.3067 146.733 97.2526 146.191L95.8329 146.333C95.9099 147.103 96.2474 148.227 97.0239 149.174C97.822 150.147 99.0686 150.91 100.871 150.91V149.483ZM112.674 149.483H100.871V150.91H112.674V149.483ZM111.961 128.9V150.197H113.387V128.9H111.961ZM115.278 128.279C114.419 128.279 113.568 128.249 112.725 128.189L112.623 129.612C113.5 129.674 114.385 129.706 115.278 129.706V128.279Z" fill="black"/>
<path d="M106.153 75.5159C108.357 77.858 113.793 81.4541 117.907 77.1018C123.05 71.6614 114.487 69.2528 113.695 74.2119C113.036 78.341 115.84 82.4476 121.063 80.6822C122.03 80.355 124.201 79.3434 125.03 77.0286" stroke="#FF6F61" stroke-width="1.66454" stroke-linecap="round"/>
<ellipse cx="107.282" cy="91.7861" rx="3.1897" ry="4.25293" fill="black"/>
<ellipse cx="124.287" cy="91.7856" rx="3.1897" ry="4.25293" fill="black"/>
<ellipse cx="115.783" cy="96.0366" rx="2.12647" ry="3.1897" transform="rotate(90 115.783 96.0366)" fill="black"/>
<circle cx="125.997" cy="91.9637" r="9.58014" fill="white" fill-opacity="0.5"/>
<path fill-rule="evenodd" clip-rule="evenodd" d="M124.15 99.896C125.235 100.194 126.368 100.276 127.484 100.137C128.601 99.9975 129.679 99.6396 130.657 99.0836C131.635 98.5276 132.494 97.7844 133.184 96.8965C133.875 96.0085 134.384 94.9932 134.683 93.9085C134.981 92.8238 135.063 91.6909 134.924 90.5746C134.784 89.4583 134.426 88.3803 133.87 87.4023C133.314 86.4243 132.571 85.5653 131.683 84.8745C130.795 84.1837 129.78 83.6746 128.695 83.3762C126.505 82.7735 124.164 83.0658 122.189 84.1886C120.214 85.3115 118.766 87.1731 118.163 89.3637C117.56 91.5544 117.852 93.8947 118.975 95.8699C120.098 97.8451 121.96 99.2934 124.15 99.896ZM123.393 102.649C126.314 103.453 129.434 103.063 132.068 101.566C134.702 100.069 136.632 97.5869 137.436 94.666C138.24 91.7451 137.85 88.6246 136.353 85.991C134.856 83.3574 132.374 81.4265 129.453 80.6229C126.532 79.8193 123.411 80.209 120.778 81.7061C118.144 83.2033 116.213 85.6854 115.41 88.6063C114.606 91.5271 114.996 94.6476 116.493 97.2812C117.99 99.9148 120.472 101.846 123.393 102.649Z" fill="#FF6F61"/>
<path fill-rule="evenodd" clip-rule="evenodd" d="M130.746 99.1783C131.076 98.9924 131.466 98.9451 131.831 99.0468C132.195 99.1485 132.505 99.3909 132.691 99.7207L136.648 106.733C136.827 107.062 136.869 107.448 136.765 107.808C136.662 108.168 136.421 108.473 136.095 108.657C135.769 108.841 135.384 108.89 135.022 108.792C134.661 108.695 134.352 108.46 134.162 108.137L130.205 101.125C130.019 100.795 129.971 100.405 130.072 100.04C130.174 99.6754 130.416 99.3659 130.746 99.1797L130.746 99.1783Z" fill="#FF6F61"/>
<path d="M139.27 105.297L145.216 105.207C146.16 109.346 142.765 116.601 139.029 117.586C135.631 118.481 133.616 117.52 129.234 116.261C127.149 115.533 123.414 112.827 125.16 107.821C126.906 102.815 131.688 102.7 133.861 103.268C137.064 101.047 138.802 103.696 139.27 105.297Z" fill="#FFCDC9"/>
<path d="M137.971 115.914C134.459 115.978 131.234 115.838 128.407 114.852C126.321 114.124 124.007 111.124 125.159 107.821C126.905 102.815 131.009 102.772 133.181 103.34C136.384 101.119 138.801 103.696 139.27 105.297L143.95 105.325" stroke="black" stroke-width="1.25097"/>
<path d="M152.059 36.2401C152.153 35.9199 152.607 35.92 152.702 36.2402L154.236 41.4297C154.262 41.5165 154.321 41.5892 154.401 41.6313L158.521 43.7986C158.76 43.9244 158.76 44.2665 158.521 44.3922L154.402 46.5576C154.321 46.5997 154.262 46.6724 154.236 46.7593L152.702 51.9486C152.607 52.2689 152.153 52.269 152.059 51.9487L150.523 46.7592C150.497 46.6724 150.437 46.5997 150.357 46.5576L146.238 44.3922C145.999 44.2665 145.999 43.9244 146.238 43.7986L150.357 41.6313C150.437 41.5892 150.497 41.5165 150.523 41.4297L152.059 36.2401Z" fill="#FF6F61"/>
<path d="M161.535 52.8973C161.586 52.7204 161.826 52.7204 161.876 52.8973L162.69 55.7635C162.704 55.8114 162.736 55.8516 162.778 55.8749L164.963 57.0719C165.09 57.1413 165.09 57.3303 164.963 57.3997L162.778 58.5956C162.736 58.6189 162.704 58.6591 162.69 58.707L161.876 61.5731C161.826 61.75 161.586 61.7501 161.535 61.5732L160.721 58.707C160.707 58.6591 160.675 58.6189 160.633 58.5956L158.448 57.3997C158.321 57.3303 158.321 57.1413 158.448 57.0719L160.633 55.8748C160.675 55.8516 160.707 55.8114 160.721 55.7635L161.535 52.8973Z" fill="#FF6F61"/>
<path d="M70.9497 60.7705C71.0167 60.5273 71.3376 60.5274 71.4045 60.7706L72.4898 64.7115C72.508 64.7774 72.5501 64.8327 72.6068 64.8647L75.5205 66.5106C75.6895 66.606 75.6895 66.8659 75.5204 66.9613L72.6069 68.6057C72.5502 68.6377 72.5079 68.693 72.4898 68.7589L71.4045 72.6998C71.3376 72.943 71.0167 72.9431 70.9497 72.6999L69.8635 68.7589C69.8453 68.693 69.8031 68.6377 69.7465 68.6058L66.8329 66.9613C66.6638 66.8659 66.6638 66.606 66.8328 66.5106L69.7465 64.8646C69.8031 64.8327 69.8453 64.7774 69.8635 64.7116L70.9497 60.7705Z" fill="#FF6F61"/>
</svg>
