<svg width="101" height="101" viewBox="0 0 101 101" fill="none" xmlns="http://www.w3.org/2000/svg">
<path fill-rule="evenodd" clip-rule="evenodd" d="M79.0988 35.739C79.0988 35.4629 78.8749 35.239 78.5988 35.239H66.9998C66.7237 35.239 66.4998 35.4629 66.4998 35.739V70.5977C66.4998 70.8738 66.2759 71.0977 65.9998 71.0977H55.957C55.5298 71.0977 55.2994 71.5987 55.5774 71.9231L71.935 91.007C72.1346 91.2398 72.4947 91.2398 72.6943 91.007L89.0519 71.9231C89.3299 71.5987 89.0995 71.0977 88.6723 71.0977H79.5988C79.3226 71.0977 79.0988 70.8738 79.0988 70.5977V35.739Z" fill="url(#paint0_linear_1018_4043)"/>
<path fill-rule="evenodd" clip-rule="evenodd" d="M29.2093 13.9984C29.2093 13.7222 28.9854 13.4984 28.7093 13.4984H21.0204C20.7442 13.4984 20.5204 13.7222 20.5204 13.9984V37.7286C20.5204 38.0047 20.2965 38.2286 20.0204 38.2286H13.5869C13.1597 38.2286 12.9293 38.7296 13.2073 39.054L24.151 51.8216C24.3505 52.0544 24.7107 52.0544 24.9102 51.8216L35.8539 39.054C36.1319 38.7296 35.9015 38.2286 35.4743 38.2286H29.7093C29.4332 38.2286 29.2093 38.0047 29.2093 37.7286V13.9984Z" fill="url(#paint1_linear_1018_4043)"/>
<ellipse cx="10.4416" cy="10.8392" rx="10.4416" ry="10.8392" transform="matrix(0.939974 0.341247 -0.696861 0.756986 58.2139 22.9106)" fill="#FBB41C"/>
<ellipse cx="10.6303" cy="11.0352" rx="10.6303" ry="11.0352" transform="matrix(0.939974 0.341247 -0.696861 0.756986 57.7236 21.3573)" fill="#FEDD6A"/>
<path fill-rule="evenodd" clip-rule="evenodd" d="M69.8667 29.3817C69.1646 28.4 68.071 27.5902 66.6062 27.0584C61.9052 25.3518 55.1614 27.1542 51.5436 31.0842C51.3589 31.2848 51.186 31.487 51.0246 31.6905C51.3279 31.1898 51.7032 30.692 52.1519 30.2046C55.56 26.5024 61.9128 24.8045 66.3413 26.4122C68.093 27.0482 69.2812 28.106 69.8667 29.3817Z" fill="#FBB41C"/>
<path d="M60.0792 33.7783C60.2759 33.8579 60.4886 33.8921 60.7172 33.8809C60.9566 33.8676 61.1956 33.8122 61.4343 33.7145C61.6783 33.6125 61.911 33.4736 62.1325 33.2978C62.4675 33.0319 62.6447 32.7864 62.6643 32.5614C62.6948 32.3342 62.5624 32.161 62.2672 32.0417L60.8159 31.4551L58.6278 33.1918L60.0792 33.7783ZM63.3617 31.2221C63.7826 31.3922 64.0652 31.6165 64.2095 31.8948C64.3592 32.1689 64.3595 32.4732 64.2103 32.8076C64.072 33.14 63.7949 33.4713 63.3789 33.8015C62.9629 34.1317 62.4972 34.39 61.9817 34.5764C61.4772 34.7608 60.9691 34.8596 60.4574 34.8728C59.9512 34.8818 59.4876 34.8012 59.0667 34.6311L57.5743 34.0279L55.7267 35.4944L54.4803 34.9907L60.623 30.1152L63.3617 31.2221Z" fill="#FBB906"/>
<ellipse cx="15.364" cy="14.8561" rx="15.364" ry="14.8561" transform="matrix(1 0 -0.105466 0.994423 24.6201 43.6532)" fill="#FBB41C"/>
<ellipse cx="15.6418" cy="15.1247" rx="15.6418" ry="15.1247" transform="matrix(1 0 -0.105466 0.994423 22.5645 41.7962)" fill="#FEDD6A"/>
<path fill-rule="evenodd" clip-rule="evenodd" d="M44.9638 46.6788C43.1829 45.6966 41.0828 45.1389 38.7882 45.1389C31.4293 45.1389 24.8553 50.875 24.1049 57.951C24.0666 58.3119 24.0442 58.6694 24.0372 59.0228C23.9396 58.1984 23.933 57.3428 24.026 56.4652C24.733 49.7995 30.9258 44.3958 37.8581 44.3958C40.6021 44.3958 43.0506 45.2424 44.9638 46.6788Z" fill="#FBB41C"/>
<path d="M37.0891 57.4043C37.4047 57.4152 37.6973 57.3572 37.9669 57.2301C38.2478 57.095 38.4887 56.903 38.6895 56.6542C38.8929 56.3971 39.048 56.0956 39.1546 55.7498C39.3159 55.2269 39.3031 54.8088 39.1162 54.4955C38.9407 54.1741 38.6162 54.0052 38.1427 53.9888L35.8149 53.9082L34.7612 57.3238L37.0891 57.4043ZM38.7158 52.3466C39.3909 52.3699 39.9473 52.5341 40.3849 52.839C40.8251 53.1355 41.1105 53.546 41.2412 54.0705C41.3831 54.5868 41.354 55.1696 41.1536 55.819C40.9533 56.4684 40.6247 57.0451 40.1679 57.5492C39.7225 58.0452 39.1925 58.4275 38.578 58.696C37.9661 58.9561 37.3226 59.0745 36.6475 59.0511L34.2539 58.9683L33.3641 61.8525L31.3651 61.7833L34.3232 52.1945L38.7158 52.3466Z" fill="#FBB906"/>
<defs>
<linearGradient id="paint0_linear_1018_4043" x1="72.3147" y1="35.239" x2="72.3147" y2="91.1816" gradientUnits="userSpaceOnUse">
<stop stop-color="white" stop-opacity="0"/>
<stop offset="1" stop-color="#618EEF"/>
</linearGradient>
<linearGradient id="paint1_linear_1018_4043" x1="24.5306" y1="13.4984" x2="24.5306" y2="51.9962" gradientUnits="userSpaceOnUse">
<stop stop-color="white" stop-opacity="0"/>
<stop offset="1" stop-color="#618EEF"/>
</linearGradient>
</defs>
</svg>
