<svg width="295" height="216" viewBox="0 0 295 216" fill="none" xmlns="http://www.w3.org/2000/svg">
<ellipse cx="147.119" cy="192.852" rx="59.1187" ry="12.8519" fill="#F3F3F6"/>
<mask id="path-2-outside-1_2344_4470" maskUnits="userSpaceOnUse" x="201.75" y="22" width="22" height="21" fill="black">
<rect fill="white" x="201.75" y="22" width="22" height="21"/>
<path fill-rule="evenodd" clip-rule="evenodd" d="M221.742 24.3599C221.742 24.1611 221.581 24 221.382 24L204.109 24C203.911 24 203.75 24.1611 203.75 24.3599L203.75 29.0379C203.75 29.2367 203.911 29.3978 204.109 29.3978L209.533 29.3978V40.0219C209.533 40.2585 209.677 40.4503 209.854 40.4503H215.638C215.815 40.4503 215.959 40.2585 215.959 40.0219V29.3978L221.382 29.3978C221.581 29.3978 221.742 29.2367 221.742 29.0379V24.3599Z"/>
</mask>
<path fill-rule="evenodd" clip-rule="evenodd" d="M221.742 24.3599C221.742 24.1611 221.581 24 221.382 24L204.109 24C203.911 24 203.75 24.1611 203.75 24.3599L203.75 29.0379C203.75 29.2367 203.911 29.3978 204.109 29.3978L209.533 29.3978V40.0219C209.533 40.2585 209.677 40.4503 209.854 40.4503H215.638C215.815 40.4503 215.959 40.2585 215.959 40.0219V29.3978L221.382 29.3978C221.581 29.3978 221.742 29.2367 221.742 29.0379V24.3599Z" fill="#6C0A00"/>
<path d="M221.382 24V22V24ZM204.109 24L204.109 26L204.109 24ZM203.75 24.3599L201.75 24.3599L203.75 24.3599ZM203.75 29.0379H205.75H203.75ZM204.109 29.3978L204.109 27.3978H204.109V29.3978ZM209.533 29.3978H211.533V27.3978L209.533 27.3978V29.3978ZM215.959 29.3978L215.959 27.3978H213.959V29.3978H215.959ZM221.382 29.3978V31.3978V29.3978ZM221.382 26C220.476 26 219.742 25.2657 219.742 24.3599H223.742C223.742 23.0565 222.686 22 221.382 22V26ZM204.109 26L221.382 26V22L204.109 22L204.109 26ZM205.75 24.3599C205.75 25.2657 205.015 26 204.109 26L204.109 22C202.806 22 201.75 23.0565 201.75 24.3599L205.75 24.3599ZM205.75 29.0379L205.75 24.3599L201.75 24.3599L201.75 29.0379H205.75ZM204.109 27.3978C205.015 27.3978 205.75 28.1321 205.75 29.0379H201.75C201.75 30.3413 202.806 31.3978 204.109 31.3978V27.3978ZM209.533 27.3978L204.109 27.3978L204.109 31.3978L209.533 31.3978V27.3978ZM211.533 40.0219V29.3978H207.533V40.0219H211.533ZM209.854 38.4503C210.536 38.4503 211.001 38.8235 211.227 39.1248C211.453 39.4255 211.533 39.7493 211.533 40.0219H207.533C207.533 40.5311 207.685 41.0691 208.027 41.5248C208.369 41.9812 208.995 42.4503 209.854 42.4503V38.4503ZM215.638 38.4503H209.854V42.4503H215.638V38.4503ZM213.959 40.0219C213.959 39.7493 214.039 39.4255 214.265 39.1248C214.491 38.8235 214.956 38.4503 215.638 38.4503V42.4503C216.497 42.4503 217.122 41.9812 217.465 41.5248C217.807 41.0691 217.959 40.5311 217.959 40.0219H213.959ZM213.959 29.3978V40.0219H217.959V29.3978H213.959ZM221.382 27.3978L215.959 27.3978L215.959 31.3978L221.382 31.3978V27.3978ZM219.742 29.0379C219.742 28.1321 220.476 27.3978 221.382 27.3978V31.3978C222.686 31.3978 223.742 30.3413 223.742 29.0379H219.742ZM219.742 24.3599V29.0379H223.742V24.3599H219.742Z" fill="black" mask="url(#path-2-outside-1_2344_4470)"/>
<path d="M236.922 63.4933C236.922 77.1212 225.874 88.1689 212.246 88.1689C198.618 88.1689 187.57 77.1212 187.57 63.4933C187.57 49.8653 198.618 38.8176 212.246 38.8176C225.874 38.8176 236.922 49.8653 236.922 63.4933Z" fill="white" stroke="black" stroke-width="2"/>
<path d="M212.246 35.2473C227.846 35.2474 240.492 47.8936 240.492 63.4934C240.492 79.0932 227.846 91.7395 212.246 91.7395C196.646 91.7395 184 79.0932 184 63.4934C184 47.8936 196.646 35.2473 212.246 35.2473ZM212.246 42.3879C200.59 42.3879 191.141 51.8373 191.141 63.4934C191.141 75.1495 200.59 84.5989 212.246 84.5989C223.902 84.5988 233.352 75.1495 233.352 63.4934C233.352 51.8373 223.902 42.388 212.246 42.3879Z" fill="#FF998F" stroke="black" stroke-width="2"/>
<mask id="path-6-outside-2_2344_4470" maskUnits="userSpaceOnUse" x="201.119" y="51" width="17" height="21" fill="black">
<rect fill="white" x="201.119" y="51" width="17" height="21"/>
<path fill-rule="evenodd" clip-rule="evenodd" d="M215.203 54.6624C215.203 53.7443 214.459 53 213.54 53C212.622 53 211.878 53.7443 211.878 54.6624L211.878 65.0974L206.607 62.0852C205.809 61.6297 204.794 61.9067 204.338 62.7038C203.883 63.501 204.16 64.5165 204.957 64.972L212.703 69.3984C212.81 69.4607 212.924 69.5115 213.044 69.549C213.244 69.6116 213.451 69.6345 213.653 69.6205C214.519 69.5625 215.203 68.8421 215.203 67.9619L215.203 54.6624Z"/>
</mask>
<path fill-rule="evenodd" clip-rule="evenodd" d="M215.203 54.6624C215.203 53.7443 214.459 53 213.54 53C212.622 53 211.878 53.7443 211.878 54.6624L211.878 65.0974L206.607 62.0852C205.809 61.6297 204.794 61.9067 204.338 62.7038C203.883 63.501 204.16 64.5165 204.957 64.972L212.703 69.3984C212.81 69.4607 212.924 69.5115 213.044 69.549C213.244 69.6116 213.451 69.6345 213.653 69.6205C214.519 69.5625 215.203 68.8421 215.203 67.9619L215.203 54.6624Z" fill="#FF6F61"/>
<path d="M215.203 54.6624H213.203V54.6624L215.203 54.6624ZM211.878 54.6624H209.878V54.6624L211.878 54.6624ZM211.878 65.0974L210.886 66.8339L213.878 68.5438V65.0974H211.878ZM206.607 62.0852L205.614 63.8217L205.614 63.8217L206.607 62.0852ZM204.338 62.7038L202.602 61.7116L202.602 61.7116L204.338 62.7038ZM204.957 64.972L205.949 63.2355H205.949L204.957 64.972ZM212.703 69.3984L213.712 67.6714L213.704 67.6666L213.695 67.6619L212.703 69.3984ZM213.044 69.549L213.642 67.6405L213.64 67.6399L213.044 69.549ZM213.653 69.6205L213.52 67.625L213.515 67.6253L213.653 69.6205ZM215.203 67.9619H217.203H215.203ZM213.54 55C213.354 55 213.203 54.8489 213.203 54.6624H217.203C217.203 52.6397 215.563 51 213.54 51V55ZM213.878 54.6624C213.878 54.8489 213.727 55 213.54 55V51C211.518 51 209.878 52.6397 209.878 54.6624H213.878ZM213.878 65.0974L213.878 54.6624L209.878 54.6624L209.878 65.0974H213.878ZM205.614 63.8217L210.886 66.8339L212.87 63.3609L207.599 60.3488L205.614 63.8217ZM206.075 63.6961C205.982 63.858 205.776 63.9142 205.614 63.8217L207.599 60.3488C205.843 59.3452 203.606 59.9554 202.602 61.7116L206.075 63.6961ZM205.949 63.2355C206.111 63.328 206.167 63.5342 206.075 63.6961L202.602 61.7116C201.598 63.4678 202.209 65.705 203.965 66.7085L205.949 63.2355ZM213.695 67.6619L205.949 63.2355L203.965 66.7085L211.711 71.1349L213.695 67.6619ZM213.64 67.6399C213.666 67.6479 213.69 67.6586 213.712 67.6714L211.695 71.1254C211.93 71.2628 212.182 71.375 212.448 71.458L213.64 67.6399ZM213.515 67.6253C213.556 67.6225 213.599 67.627 213.642 67.6405L212.446 71.4575C212.889 71.5962 213.345 71.6466 213.791 71.6157L213.515 67.6253ZM213.203 67.9619C213.203 67.7823 213.342 67.6369 213.52 67.625L213.787 71.616C215.696 71.4882 217.203 69.9019 217.203 67.9619H213.203ZM213.203 54.6624L213.203 67.9619H217.203L217.203 54.6624L213.203 54.6624Z" fill="black" mask="url(#path-6-outside-2_2344_4470)"/>
<path fill-rule="evenodd" clip-rule="evenodd" d="M190.067 118.654C196.861 113.242 201.215 104.898 201.215 95.5374C201.215 79.2244 187.991 66 171.677 66C162.86 66 154.945 69.8636 149.533 75.9902C144.121 69.8636 136.206 66 127.388 66C111.075 66 97.8507 79.2244 97.8507 95.5375C97.8507 104.898 102.205 113.242 108.999 118.654C102.205 124.065 97.8506 132.409 97.8506 141.77C97.8506 158.083 111.075 171.307 127.388 171.307C128.628 171.307 129.851 171.231 131.051 171.083V178.508C128.296 178.691 122.786 180.712 122.786 187.323C122.97 189.16 124.439 192.833 128.847 192.833H145.376V165.2C146.883 164.041 148.276 162.74 149.533 161.317C150.787 162.736 152.175 164.034 153.677 165.191V192.833H170.206C174.614 192.833 176.083 189.16 176.267 187.323C176.267 180.712 170.757 178.691 168.002 178.508V171.081C169.206 171.23 170.433 171.307 171.677 171.307C187.991 171.307 201.215 158.083 201.215 141.77C201.215 132.409 196.861 124.065 190.067 118.654Z" fill="#FFE6E4"/>
<path d="M190.067 118.654L189.444 117.871L188.462 118.654L189.444 119.436L190.067 118.654ZM149.533 75.9902L148.783 76.6523L149.533 77.5007L150.282 76.6523L149.533 75.9902ZM108.999 118.654L109.622 119.436L110.604 118.654L109.622 117.872L108.999 118.654ZM131.051 171.083H132.051V169.951L130.928 170.09L131.051 171.083ZM131.051 178.508L131.117 179.505L132.051 179.443V178.508H131.051ZM122.786 187.323H121.786V187.373L121.791 187.423L122.786 187.323ZM145.376 192.833V193.833H146.376V192.833H145.376ZM145.376 165.2L144.767 164.407L144.376 164.708V165.2H145.376ZM149.533 161.317L150.282 160.655L149.533 159.807L148.783 160.655L149.533 161.317ZM153.677 165.191H154.677V164.698L154.287 164.398L153.677 165.191ZM153.677 192.833H152.677V193.833H153.677V192.833ZM176.267 187.323L177.262 187.423L177.267 187.373V187.323H176.267ZM168.002 178.508H167.002V179.443L167.936 179.506L168.002 178.508ZM168.002 171.081L168.126 170.089L167.002 169.949V171.081H168.002ZM200.215 95.5374C200.215 104.581 196.01 112.641 189.444 117.871L190.69 119.436C197.712 113.843 202.215 105.216 202.215 95.5374H200.215ZM171.677 67C187.438 67 200.215 79.7766 200.215 95.5374H202.215C202.215 78.6721 188.543 65 171.677 65V67ZM150.282 76.6523C155.513 70.7314 163.159 67 171.677 67V65C162.561 65 154.377 68.9958 148.783 75.3282L150.282 76.6523ZM127.388 67C135.907 67 143.553 70.7314 148.783 76.6523L150.282 75.3282C144.688 68.9958 136.504 65 127.388 65V67ZM98.8507 95.5375C98.8507 79.7767 111.627 67 127.388 67V65C110.523 65 96.8507 78.6721 96.8507 95.5375H98.8507ZM109.622 117.872C103.056 112.641 98.8507 104.581 98.8507 95.5375H96.8507C96.8507 105.216 101.354 113.843 108.376 119.436L109.622 117.872ZM98.8506 141.77C98.8506 132.727 103.056 124.666 109.622 119.436L108.376 117.872C101.354 123.465 96.8506 132.092 96.8506 141.77H98.8506ZM127.388 170.307C111.627 170.307 98.8506 157.531 98.8506 141.77H96.8506C96.8506 158.635 110.523 172.307 127.388 172.307V170.307ZM130.928 170.09C129.769 170.234 128.587 170.307 127.388 170.307V172.307C128.669 172.307 129.933 172.228 131.174 172.075L130.928 170.09ZM130.051 171.083V178.508H132.051V171.083H130.051ZM130.984 177.51C129.446 177.612 127.176 178.217 125.267 179.719C123.317 181.253 121.786 183.695 121.786 187.323H123.786C123.786 184.34 125.011 182.466 126.504 181.291C128.038 180.084 129.901 179.587 131.117 179.505L130.984 177.51ZM121.791 187.423C121.899 188.501 122.372 190.075 123.459 191.401C124.577 192.764 126.323 193.833 128.847 193.833V191.833C126.963 191.833 125.77 191.065 125.006 190.133C124.211 189.163 123.857 187.982 123.781 187.224L121.791 187.423ZM128.847 193.833H145.376V191.833H128.847V193.833ZM146.376 192.833V165.2H144.376V192.833H146.376ZM148.783 160.655C147.569 162.03 146.223 163.288 144.767 164.407L145.986 165.993C147.544 164.795 148.983 163.45 150.282 161.979L148.783 160.655ZM154.287 164.398C152.835 163.281 151.494 162.027 150.282 160.655L148.783 161.979C150.079 163.446 151.514 164.788 153.067 165.983L154.287 164.398ZM154.677 192.833V165.191H152.677V192.833H154.677ZM170.206 191.833H153.677V193.833H170.206V191.833ZM175.272 187.224C175.196 187.982 174.843 189.163 174.048 190.133C173.283 191.066 172.09 191.833 170.206 191.833V193.833C172.73 193.833 174.476 192.764 175.594 191.401C176.682 190.075 177.154 188.501 177.262 187.423L175.272 187.224ZM167.936 179.506C169.153 179.587 171.015 180.084 172.55 181.291C174.043 182.466 175.267 184.34 175.267 187.323H177.267C177.267 183.696 175.737 181.254 173.786 179.719C171.877 178.217 169.607 177.613 168.069 177.51L167.936 179.506ZM167.002 171.081V178.508H169.002V171.081H167.002ZM171.677 170.307C170.474 170.307 169.289 170.233 168.126 170.089L167.879 172.073C169.124 172.228 170.392 172.307 171.677 172.307V170.307ZM200.215 141.77C200.215 157.531 187.438 170.307 171.677 170.307V172.307C188.543 172.307 202.215 158.635 202.215 141.77H200.215ZM189.444 119.436C196.01 124.666 200.215 132.726 200.215 141.77H202.215C202.215 132.092 197.712 123.465 190.69 117.871L189.444 119.436Z" fill="black"/>
<path d="M153.424 89.7676C150.338 93.0474 142.726 98.0834 136.965 91.9885C129.763 84.3698 141.754 80.9968 142.863 87.9415C143.786 93.7239 139.86 99.4747 132.546 97.0024C131.19 96.5443 128.151 95.1277 126.989 91.8859" stroke="#FF6F61" stroke-width="2" stroke-linecap="round"/>
<ellipse cx="128.304" cy="111.034" rx="4.46683" ry="5.95577" fill="black"/>
<ellipse cx="152.118" cy="111.034" rx="4.46683" ry="5.95577" fill="black"/>
<ellipse cx="140.208" cy="116.988" rx="2.97789" ry="4.46683" transform="rotate(90 140.208 116.988)" fill="black"/>
<path d="M155.967 126.404C155.967 125.694 155.392 125.119 154.682 125.119H96.145C95.4352 125.119 94.8598 125.694 94.8598 126.404V174.004H134.822C135.532 174.004 136.101 174.584 136.24 175.28C136.772 177.948 139.027 181.643 145.273 181.643C152.49 181.643 155.367 176.71 155.941 174.127C155.959 174.044 155.967 173.962 155.967 173.877V126.404Z" fill="white"/>
<path d="M145.273 181.643C139.027 181.643 136.772 177.948 136.24 175.28C136.101 174.584 135.532 174.004 134.822 174.004H94.8598H76.2852C75.5754 174.004 74.9954 174.581 75.0892 175.285C75.4448 177.953 76.9494 181.643 81.1107 181.643H145.273Z" fill="white"/>
<path d="M145.273 181.643C152.49 181.643 155.367 176.71 155.941 174.127C155.959 174.044 155.967 173.962 155.967 173.877V126.404C155.967 125.694 155.392 125.119 154.682 125.119H96.145C95.4352 125.119 94.8598 125.694 94.8598 126.404V174.004M145.273 181.643C139.027 181.643 136.772 177.948 136.24 175.28C136.101 174.584 135.532 174.004 134.822 174.004H94.8598M145.273 181.643H81.1107C76.9494 181.643 75.4448 177.953 75.0892 175.285C74.9954 174.581 75.5754 174.004 76.2852 174.004H94.8598" stroke="black" stroke-width="2" stroke-linecap="round"/>
<circle cx="96.2058" cy="139.898" r="10.9241" fill="#FFE6E4" stroke="black" stroke-width="2"/>
<path d="M160.472 132.058L167.788 127.718C171.902 132.184 172.848 143.602 168.911 147.482C165.331 151.01 162.147 151.25 155.812 152.803C152.706 153.383 146.146 152.68 144.753 145.225C143.36 137.771 149.214 134.227 152.315 133.387C154.71 128.352 158.751 130.404 160.472 132.058Z" fill="#FFE6E4"/>
<path d="M168.819 147.609C164.505 150.188 160.402 152.307 156.192 153.094C153.086 153.674 146.146 152.68 144.753 145.225C143.36 137.771 149.214 134.227 152.315 133.387C154.71 128.352 158.751 130.403 160.472 132.058L166.301 128.764" stroke="black" stroke-width="2"/>
<path d="M52.1936 63.9915C55.4386 71.6104 65.1665 89.4742 73.1241 97.2508L71.3613 104.02C71.1824 104.707 70.4806 105.119 69.7937 104.94L64.3598 103.525C56.4718 95.4813 48.3427 78.0969 45.5626 71.4309L52.1936 63.9915Z" fill="#FF6F61"/>
<path d="M64.3598 103.525L63.2847 107.653C63.1474 108.181 62.6925 108.564 62.1495 108.61L56.8579 109.058C49.64 99.8107 35.0058 79.3383 34.2128 71.4309L45.5626 71.4309C48.3427 78.0969 56.4718 95.4813 64.3598 103.525Z" fill="#FF6F61"/>
<path d="M69.7937 104.94C70.4806 105.119 71.1824 104.707 71.3613 104.02L73.1241 97.2508C73.3471 99.7702 73.6645 102.023 74.0391 104.681C74.2237 105.99 74.4221 107.398 74.63 108.985C73.2261 110.948 70.2399 114.852 69.5266 114.759C65.0744 114.24 59.8938 112.694 56.8579 109.058L62.1495 108.61C62.6925 108.564 63.1474 108.181 63.2847 107.653L64.3598 103.525L69.7937 104.94Z" fill="white"/>
<path d="M34.2128 71.4309L38.2604 62.8457C38.4097 62.5291 38.6817 62.2871 39.0135 62.1756L47.9468 59.1737C48.5051 58.9861 49.1196 59.2021 49.4377 59.6978L52.1936 63.9915L45.5626 71.4309L34.2128 71.4309Z" fill="white"/>
<path d="M74.63 108.985C74.8108 110.365 74.9987 111.881 75.1909 113.586C75.2718 114.303 74.7426 114.946 74.0209 114.965C72.7191 115.001 71.1726 114.95 69.5266 114.759C70.2399 114.852 73.2261 110.948 74.63 108.985Z" fill="black"/>
<path d="M52.1936 63.9915C55.4386 71.6104 65.1665 89.4742 73.1241 97.2508M52.1936 63.9915L49.4377 59.6978C49.1196 59.2021 48.5051 58.9861 47.9468 59.1737L39.0135 62.1756C38.6817 62.2871 38.4097 62.5291 38.2604 62.8457L34.2128 71.4309M52.1936 63.9915L45.5626 71.4309M73.1241 97.2508L71.3613 104.02C71.1824 104.707 70.4806 105.119 69.7937 104.94L64.3598 103.525M73.1241 97.2508C73.3471 99.7702 73.6645 102.023 74.0391 104.681C74.2237 105.99 74.4221 107.398 74.63 108.985M64.3598 103.525L63.2847 107.653C63.1474 108.181 62.6925 108.564 62.1495 108.61L56.8579 109.058M64.3598 103.525C56.4718 95.4813 48.3427 78.0969 45.5626 71.4309M56.8579 109.058C49.64 99.8107 35.0058 79.3383 34.2128 71.4309M56.8579 109.058C59.8938 112.694 65.0744 114.24 69.5266 114.759M34.2128 71.4309L45.5626 71.4309M74.63 108.985C74.8108 110.365 74.9987 111.881 75.1909 113.586C75.2718 114.303 74.7426 114.946 74.0209 114.965C72.7191 115.001 71.1726 114.95 69.5266 114.759M74.63 108.985C73.2261 110.948 70.2399 114.852 69.5266 114.759" stroke="black" stroke-width="2"/>
<ellipse cx="2.57038" cy="1.45653" rx="2.57038" ry="1.45653" transform="matrix(-0.817326 0.576175 0.576175 0.817326 43.8818 62.478)" fill="black"/>
<path d="M48.7759 53.9963L48.1333 45" stroke="black" stroke-width="2" stroke-linecap="round"/>
<path d="M53.2743 55.2815L58.415 46.2852" stroke="black" stroke-width="2" stroke-linecap="round"/>
</svg>
