<svg width="24" height="24" viewBox="0 0 24 24" fill="none" xmlns="http://www.w3.org/2000/svg">
<path d="M12.001 20.0002C9.76764 20.0002 7.87598 19.2252 6.32598 17.6752C4.77598 16.1252 4.00098 14.2336 4.00098 12.0002C4.00098 9.76692 4.77598 7.87525 6.32598 6.32525C7.87598 4.77525 9.76764 4.00025 12.001 4.00025C13.151 4.00025 14.251 4.23758 15.301 4.71225C16.351 5.18691 17.251 5.86625 18.001 6.75025V5.00025C18.001 4.71691 18.097 4.47958 18.289 4.28825C18.481 4.09691 18.7183 4.00091 19.001 4.00025C19.2836 3.99958 19.5213 4.09558 19.714 4.28825C19.9066 4.48091 20.0023 4.71825 20.001 5.00025V10.0002C20.001 10.2836 19.905 10.5212 19.713 10.7132C19.521 10.9052 19.2836 11.0009 19.001 11.0002H14.001C13.7176 11.0002 13.4803 10.9042 13.289 10.7122C13.0976 10.5202 13.0016 10.2829 13.001 10.0002C13.0003 9.71758 13.0963 9.48025 13.289 9.28825C13.4816 9.09625 13.719 9.00025 14.001 9.00025H17.201C16.6676 8.06691 15.9386 7.33358 15.014 6.80025C14.0893 6.26691 13.085 6.00025 12.001 6.00025C10.3343 6.00025 8.91764 6.58358 7.75098 7.75025C6.58431 8.91691 6.00098 10.3336 6.00098 12.0002C6.00098 13.6669 6.58431 15.0836 7.75098 16.2502C8.91764 17.4169 10.3343 18.0002 12.001 18.0002C13.1343 18.0002 14.172 17.7129 15.114 17.1383C16.056 16.5636 16.785 15.7926 17.301 14.8252C17.4343 14.5919 17.622 14.4296 17.864 14.3382C18.106 14.2469 18.3516 14.2426 18.601 14.3252C18.8676 14.4086 19.0593 14.5836 19.176 14.8502C19.2926 15.1169 19.2843 15.3669 19.151 15.6002C18.4676 16.9336 17.4926 18.0002 16.226 18.8002C14.9593 19.6002 13.551 20.0002 12.001 20.0002Z" fill="#D5D5DE"/>
</svg>
