<svg width="295" height="216" viewBox="0 0 295 216" fill="none" xmlns="http://www.w3.org/2000/svg">
<ellipse cx="147.119" cy="192.852" rx="59.1187" ry="12.8519" fill="#F3F3F6"/>
<rect x="206.792" y="53.2032" width="38.0601" height="50.3862" transform="rotate(13.2972 206.792 53.2032)" fill="#FF998F" stroke="black" stroke-width="2"/>
<rect x="210.8" y="59.6915" width="27.2747" height="31.1266" transform="rotate(13.2972 210.8 59.6915)" fill="white" stroke="black" stroke-width="2"/>
<rect x="225.43" y="55.4639" width="38.0601" height="50.3862" transform="rotate(28.2972 225.43 55.4639)" fill="#FFE6E4" stroke="black" stroke-width="2"/>
<rect x="227.622" y="62.7686" width="27.2747" height="31.1266" transform="rotate(28.2972 227.622 62.7686)" fill="white" stroke="black" stroke-width="2"/>
<path fill-rule="evenodd" clip-rule="evenodd" d="M187.342 114.523C194.072 109.163 198.385 100.898 198.385 91.6258C198.385 75.4673 185.286 62.3682 169.127 62.3682C160.393 62.3682 152.553 66.1951 147.192 72.2636C141.832 66.1951 133.992 62.3682 125.258 62.3682C109.099 62.3682 96 75.4673 96 91.6258C96 100.898 100.313 109.163 107.043 114.523C100.313 119.884 96 128.148 96 137.42C96 153.579 109.099 166.678 125.258 166.678C126.486 166.678 127.697 166.602 128.886 166.455V173.81C126.157 173.992 120.7 175.993 120.7 182.542C120.882 184.361 122.337 188 126.703 188H143.076V160.628C144.569 159.48 145.947 158.192 147.192 156.783C148.434 158.189 149.809 159.474 151.298 160.62V188H167.671C172.037 188 173.492 184.361 173.674 182.542C173.674 175.993 168.216 173.992 165.488 173.81V166.454C166.68 166.602 167.895 166.678 169.127 166.678C185.286 166.678 198.385 153.579 198.385 137.42C198.385 128.148 194.072 119.884 187.342 114.523Z" fill="#FFE6E4"/>
<path d="M187.342 114.523L186.719 113.741L185.737 114.523L186.719 115.305L187.342 114.523ZM147.192 72.2636L146.443 72.9257L147.192 73.774L147.942 72.9257L147.192 72.2636ZM107.043 114.523L107.666 115.305L108.648 114.523L107.666 113.741L107.043 114.523ZM128.886 166.455H129.886V165.324L128.763 165.463L128.886 166.455ZM128.886 173.81L128.953 174.808L129.886 174.746V173.81H128.886ZM120.7 182.542H119.7V182.592L119.705 182.642L120.7 182.542ZM143.076 188V189H144.076V188H143.076ZM143.076 160.628L142.466 159.835L142.076 160.136V160.628H143.076ZM147.192 156.783L147.942 156.121L147.192 155.272L146.443 156.121L147.192 156.783ZM151.298 160.62H152.298V160.128L151.908 159.827L151.298 160.62ZM151.298 188H150.298V189H151.298V188ZM173.674 182.542L174.669 182.642L174.674 182.592V182.542H173.674ZM165.488 173.81H164.488V174.746L165.421 174.808L165.488 173.81ZM165.488 166.454L165.611 165.461L164.488 165.322V166.454H165.488ZM197.385 91.6258C197.385 100.581 193.221 108.562 186.719 113.741L187.965 115.305C194.923 109.763 199.385 101.215 199.385 91.6258H197.385ZM169.127 63.3682C184.733 63.3682 197.385 76.0196 197.385 91.6258H199.385C199.385 74.915 185.838 61.3682 169.127 61.3682V63.3682ZM147.942 72.9257C153.121 67.0629 160.692 63.3682 169.127 63.3682V61.3682C160.095 61.3682 151.986 65.3273 146.443 71.6015L147.942 72.9257ZM125.258 63.3682C133.693 63.3682 141.264 67.0629 146.443 72.9257L147.942 71.6015C142.399 65.3273 134.29 61.3682 125.258 61.3682V63.3682ZM97 91.6258C97 76.0195 109.651 63.3682 125.258 63.3682V61.3682C108.547 61.3682 95 74.915 95 91.6258H97ZM107.666 113.741C101.164 108.562 97 100.581 97 91.6258H95C95 101.215 99.4622 109.763 106.419 115.305L107.666 113.741ZM97 137.42C97 128.466 101.164 120.484 107.666 115.305L106.419 113.741C99.4622 119.283 95 127.831 95 137.42H97ZM125.258 165.678C109.651 165.678 97 153.027 97 137.42H95C95 154.131 108.547 167.678 125.258 167.678V165.678ZM128.763 165.463C127.615 165.605 126.445 165.678 125.258 165.678V167.678C126.527 167.678 127.779 167.6 129.009 167.448L128.763 165.463ZM127.886 166.455V173.81H129.886V166.455H127.886ZM128.82 172.812C127.295 172.914 125.044 173.513 123.151 175.003C121.217 176.524 119.7 178.946 119.7 182.542H121.7C121.7 179.59 122.911 177.736 124.388 176.574C125.906 175.38 127.749 174.888 128.953 174.808L128.82 172.812ZM119.705 182.642C119.812 183.711 120.281 185.272 121.359 186.587C122.468 187.94 124.2 189 126.703 189V187C124.84 187 123.661 186.241 122.906 185.319C122.12 184.361 121.77 183.192 121.695 182.443L119.705 182.642ZM126.703 189H143.076V187H126.703V189ZM144.076 188V160.628H142.076V188H144.076ZM146.443 156.121C145.24 157.482 143.908 158.727 142.466 159.835L143.686 161.421C145.229 160.234 146.655 158.902 147.942 157.445L146.443 156.121ZM151.908 159.827C150.47 158.721 149.142 157.479 147.942 156.121L146.443 157.445C147.727 158.898 149.149 160.228 150.688 161.412L151.908 159.827ZM152.298 188V160.62H150.298V188H152.298ZM167.671 187H151.298V189H167.671V187ZM172.679 182.443C172.604 183.192 172.254 184.361 171.468 185.319C170.712 186.241 169.534 187 167.671 187V189C170.174 189 171.906 187.94 173.015 186.587C174.093 185.272 174.562 183.711 174.669 182.642L172.679 182.443ZM165.421 174.808C166.625 174.888 168.468 175.38 169.986 176.574C171.463 177.736 172.674 179.59 172.674 182.542H174.674C174.674 178.946 173.157 176.524 171.222 175.002C169.33 173.513 167.079 172.914 165.554 172.812L165.421 174.808ZM164.488 166.454V173.81H166.488V166.454H164.488ZM169.127 165.678C167.936 165.678 166.762 165.604 165.611 165.461L165.365 167.446C166.598 167.599 167.854 167.678 169.127 167.678V165.678ZM197.385 137.42C197.385 153.027 184.733 165.678 169.127 165.678V167.678C185.838 167.678 199.385 154.131 199.385 137.42H197.385ZM186.719 115.305C193.221 120.484 197.385 128.466 197.385 137.42H199.385C199.385 127.831 194.923 119.283 187.965 113.741L186.719 115.305Z" fill="black"/>
<path d="M162.497 86.5161C158.438 89.2971 149.139 92.8965 144.411 85.0469C138.501 75.2349 152.087 74.432 151.65 82.1033C151.287 88.4906 145.754 93.7128 138.524 89.3677C137.184 88.5626 134.27 86.3414 133.787 82.6102" stroke="#FF6F61" stroke-width="2" stroke-linecap="round"/>
<path d="M99.6598 116.054L107.126 120.328C105.262 126.571 106.145 136.672 100.772 135.231C95.8863 133.921 83.6509 128.258 79.1221 123.332C77.0603 120.815 74.3985 114.428 80.2458 109.009C86.0931 103.591 92.1293 106.97 94.4166 109.338C100.033 108.727 100.252 113.561 99.6598 116.054Z" fill="#FFE6E4"/>
<path d="M98 134.5C93.5885 132.093 82.1511 125.776 79.3361 122.548C77.2591 120.167 74.5918 113.682 80.3069 108.698C86.0221 103.713 92.0471 106.957 94.3452 109.202C99.8989 108.71 100.183 113.232 99.6313 115.555L104.5 118.5" stroke="black" stroke-width="2" stroke-linecap="round"/>
<ellipse cx="158.138" cy="99.8994" rx="4.42452" ry="5.89936" fill="black"/>
<ellipse cx="146.341" cy="105.797" rx="2.94968" ry="4.42452" transform="rotate(90 146.341 105.797)" fill="black"/>
<path d="M131 95.9873C133.333 96.1994 136.688 97.26 138 99.9239C135.812 99.9239 132.75 101.078 131 102.987" stroke="black" stroke-width="2" stroke-linecap="round" stroke-linejoin="round"/>
<rect x="159.206" y="108" width="13.5616" height="8.04255" rx="3" fill="#FF6F61" stroke="black" stroke-width="2"/>
<rect x="114" y="111.574" width="66" height="38.4255" rx="9" fill="#FF998F" stroke="black" stroke-width="2"/>
<ellipse cx="145.644" cy="131.234" rx="11.7534" ry="11.617" fill="#FFCDC9" stroke="black" stroke-width="2"/>
<ellipse cx="145.644" cy="131.234" rx="5.42466" ry="5.3617" fill="#FFE6E4" stroke="black" stroke-width="2"/>
<ellipse cx="121.685" cy="120.064" rx="2.26027" ry="2.23404" fill="#FF998F" stroke="black" stroke-width="2"/>
<path d="M166.438 116.936L166.438 144.638" stroke="black" stroke-width="2" stroke-linecap="round"/>
<path d="M184.895 127.802L192.687 131.215C191.457 137.161 189.425 148.07 183.977 147.133C179.024 146.281 170.279 140.351 165.325 136.11C163.042 133.925 160.753 128.967 165.033 122.707C167.477 119.133 176.569 119.919 179.06 121.949C183.977 125.133 182.477 125.133 184.895 127.802Z" fill="#FFE6E4"/>
<path d="M186.023 127.047C182.523 124.547 183.023 125.047 178.977 122.633C175.523 120.266 168.714 118.862 165.033 122.707C159.788 128.185 163.027 134.403 165.309 136.588C168.403 139.55 176.39 143.998 181 146" stroke="black" stroke-width="2"/>
<path d="M59.1112 54.9378C64.2882 53.3115 67.8425 45.4946 67.7618 41.0279C68.3999 45.4946 69.5783 52.3681 75.419 54.9376C69.7747 56.3584 68.3999 66.5519 67.8495 69.936C66.4856 64.6377 64.9519 57.5073 59.1112 54.9378Z" fill="#FF6F61" stroke="black" stroke-width="2" stroke-linecap="round" stroke-linejoin="round"/>
<path d="M81.7999 45.2361C85.3736 44.1135 87.5986 37.4352 87.5429 34.3518C87.9834 37.4352 89.311 43.4621 93.3428 45.2358C89.4466 46.2166 88.4976 53.2531 88.1176 55.5891C87.1761 51.9317 85.8318 47.0098 81.7999 45.2361Z" fill="#FF6F61" stroke="black" stroke-width="2" stroke-linecap="round" stroke-linejoin="round"/>
</svg>
