<svg width="101" height="101" viewBox="0 0 101 101" fill="none" xmlns="http://www.w3.org/2000/svg">
<path d="M13.5 64.8866H87.0462V85.6275C87.0462 89.2165 84.1368 92.1259 80.5478 92.1259H19.9984C16.4094 92.1259 13.5 89.2165 13.5 85.6275V64.8866Z" fill="#FF6F61"/>
<path d="M22.0985 50.6053C23.1974 48.7895 25.5067 47.635 28.0399 47.635H72.5063C75.0395 47.635 77.3487 48.7895 78.4477 50.6053L86.3852 63.7205C88.4932 67.2035 85.3029 71.2424 80.4438 71.2424H20.1024C15.2433 71.2424 12.053 67.2035 14.161 63.7205L22.0985 50.6053Z" fill="#FFE6E4"/>
<ellipse cx="5.2072" cy="5.40549" rx="5.2072" ry="5.40549" transform="matrix(0.939974 0.341247 -0.696861 0.756986 57.7109 10.6437)" fill="#FBB41C"/>
<ellipse cx="5.30133" cy="5.50321" rx="5.30133" ry="5.50321" transform="matrix(0.939974 0.341247 -0.696861 0.756986 57.4668 9.86896)" fill="#FEDD6A"/>
<path fill-rule="evenodd" clip-rule="evenodd" d="M63.5218 13.871C63.1717 13.3812 62.6262 12.9773 61.8955 12.712C59.5511 11.8609 56.188 12.7597 54.3838 14.7196C54.2922 14.8192 54.2063 14.9195 54.1262 15.0205C54.2773 14.7713 54.4641 14.5236 54.6873 14.2812C56.387 12.4349 59.5551 11.5881 61.7636 12.3899C62.6373 12.7071 63.2299 13.2347 63.5218 13.871Z" fill="#FBB41C"/>
<path d="M58.6419 16.0632C58.74 16.1028 58.8461 16.1199 58.96 16.1143C59.0794 16.1077 59.1986 16.08 59.3176 16.0313C59.4393 15.9805 59.5554 15.9112 59.6659 15.8235C59.8329 15.6909 59.9213 15.5685 59.9311 15.4563C59.9462 15.343 59.8802 15.2566 59.733 15.1971L59.0093 14.9046L57.9181 15.7706L58.6419 16.0632ZM60.2788 14.7884C60.4888 14.8732 60.6297 14.9851 60.7016 15.1239C60.7763 15.2605 60.7764 15.4123 60.702 15.5791C60.6331 15.7448 60.4949 15.9101 60.2874 16.0747C60.0799 16.2394 59.8477 16.3682 59.5907 16.4612C59.339 16.5531 59.0857 16.6024 58.8305 16.609C58.578 16.6135 58.3468 16.5733 58.1369 16.4884L57.3927 16.1876L56.4713 16.919L55.8497 16.6678L58.9131 14.2364L60.2788 14.7884Z" fill="#FBB906"/>
<ellipse cx="8.40638" cy="8.12847" rx="8.40638" ry="8.12847" transform="matrix(1 0 -0.105466 0.994423 29.4453 18.688)" fill="#FBB41C"/>
<ellipse cx="8.55834" cy="8.27541" rx="8.55834" ry="8.27541" transform="matrix(1 0 -0.105466 0.994423 28.3203 17.6719)" fill="#FEDD6A"/>
<path fill-rule="evenodd" clip-rule="evenodd" d="M40.5749 20.3418C39.6009 19.8051 38.4527 19.5004 37.1982 19.5004C33.1718 19.5004 29.5749 22.639 29.1642 26.5105C29.1433 26.7082 29.131 26.9039 29.1272 27.0973C29.0738 26.6463 29.0702 26.1782 29.1211 25.6981C29.5079 22.0509 32.8963 19.0943 36.6893 19.0943C38.1896 19.0943 39.5284 19.5569 40.5749 20.3418Z" fill="#FBB41C"/>
<path d="M36.2682 26.2119C36.4409 26.2178 36.601 26.1861 36.7485 26.1166C36.9022 26.0426 37.034 25.9376 37.1439 25.8015C37.2552 25.6607 37.34 25.4958 37.3984 25.3066C37.4866 25.0205 37.4796 24.7918 37.3773 24.6203C37.2813 24.4445 37.1038 24.352 36.8447 24.3431L35.5711 24.299L34.9945 26.1678L36.2682 26.2119ZM37.1583 23.4445C37.5277 23.4573 37.8321 23.5471 38.0715 23.714C38.3124 23.8762 38.4685 24.1008 38.54 24.3878C38.6177 24.6703 38.6017 24.9892 38.4921 25.3445C38.3825 25.6998 38.2027 26.0153 37.9528 26.2911C37.7091 26.5625 37.4191 26.7717 37.0829 26.9186C36.7481 27.0609 36.396 27.1257 36.0266 27.1129L34.7169 27.0676L34.2301 28.6457L33.1363 28.6078L34.7549 23.3614L37.1583 23.4445Z" fill="#FBB906"/>
<rect x="30.8408" y="54.7709" width="38.9902" height="4.33224" rx="2.16612" fill="#FF6F61"/>
<ellipse cx="13.8133" cy="13.3566" rx="13.8133" ry="13.3566" transform="matrix(1 0 -0.105466 0.994423 39.2559 36.4118)" fill="#FBB41C"/>
<ellipse cx="14.063" cy="13.5981" rx="14.063" ry="13.5981" transform="matrix(1 0 -0.105466 0.994423 37.4072 34.7426)" fill="#FEDD6A"/>
<path fill-rule="evenodd" clip-rule="evenodd" d="M57.547 39.132C55.9457 38.2489 54.0576 37.7474 51.9944 37.7474C45.3782 37.7474 39.4678 42.9046 38.7931 49.2663C38.7587 49.5902 38.7386 49.911 38.7323 50.2281C38.6448 49.4876 38.6389 48.7189 38.7225 47.9307C39.3581 41.9377 44.9259 37.0795 51.1585 37.0795C53.6255 37.0795 55.8269 37.8406 57.547 39.132Z" fill="#FBB41C"/>
<path d="M50.4661 48.7752C50.7499 48.785 51.013 48.7328 51.2554 48.6186C51.508 48.497 51.7245 48.3245 51.9051 48.1008C52.0879 47.8696 52.2273 47.5985 52.3232 47.2877C52.4683 46.8176 52.4567 46.4417 52.2887 46.16C52.1309 45.871 51.8392 45.7191 51.4135 45.7044L49.3206 45.632L48.3733 48.7027L50.4661 48.7752ZM51.9287 44.2279C52.5357 44.2489 53.0359 44.3965 53.4293 44.6707C53.8251 44.9372 54.0817 45.3063 54.1992 45.7778C54.3268 46.242 54.3006 46.766 54.1205 47.3499C53.9404 47.9337 53.645 48.4522 53.2343 48.9055C52.8338 49.3514 52.3573 49.6951 51.8048 49.9365C51.2547 50.1703 50.6761 50.2768 50.0691 50.2557L47.9172 50.1813L47.1172 52.7744L45.3199 52.7122L47.9795 44.0912L51.9287 44.2279Z" fill="#FBB906"/>
<rect x="38.6445" y="58.9226" width="24.7446" height="8.71686" fill="#FFE6E4"/>
<rect x="32.8926" y="57.1867" width="34.8674" height="1.96832" rx="0.984161" fill="#FF6F61"/>
</svg>
