<svg width="343" height="290" viewBox="0 0 343 290" fill="none" xmlns="http://www.w3.org/2000/svg">
<mask id="path-1-inside-1_821_3748" fill="white">
<path fill-rule="evenodd" clip-rule="evenodd" d="M269.702 150.355C269.702 158.145 266.078 165.089 260.424 169.593C266.078 174.096 269.702 181.04 269.702 188.831C269.702 202.407 258.696 213.412 245.12 213.412C237.782 213.412 231.195 210.197 226.691 205.098C222.187 210.197 215.599 213.413 208.261 213.413C194.685 213.413 183.679 202.407 183.679 188.831C183.679 181.04 187.303 174.096 192.957 169.592C187.304 165.089 183.68 158.145 183.68 150.355C183.68 136.778 194.685 125.773 208.262 125.773C215.6 125.773 222.187 128.988 226.691 134.086C231.195 128.988 237.782 125.773 245.12 125.773C258.696 125.773 269.702 136.778 269.702 150.355Z"/>
</mask>
<path fill-rule="evenodd" clip-rule="evenodd" d="M269.702 150.355C269.702 158.145 266.078 165.089 260.424 169.593C266.078 174.096 269.702 181.04 269.702 188.831C269.702 202.407 258.696 213.412 245.12 213.412C237.782 213.412 231.195 210.197 226.691 205.098C222.187 210.197 215.599 213.413 208.261 213.413C194.685 213.413 183.679 202.407 183.679 188.831C183.679 181.04 187.303 174.096 192.957 169.592C187.304 165.089 183.68 158.145 183.68 150.355C183.68 136.778 194.685 125.773 208.262 125.773C215.6 125.773 222.187 128.988 226.691 134.086C231.195 128.988 237.782 125.773 245.12 125.773C258.696 125.773 269.702 136.778 269.702 150.355Z" fill="#F3F3F6"/>
<path d="M260.424 169.593L259.178 168.028L257.214 169.593L259.178 171.157L260.424 169.593ZM226.691 205.098L228.19 203.774L226.691 202.077L225.192 203.774L226.691 205.098ZM192.957 169.592L194.203 171.157L196.167 169.592L194.203 168.028L192.957 169.592ZM226.691 134.086L225.192 135.411L226.691 137.107L228.19 135.411L226.691 134.086ZM261.67 171.157C267.78 166.29 271.702 158.78 271.702 150.355H267.702C267.702 157.51 264.376 163.888 259.178 168.028L261.67 171.157ZM271.702 188.831C271.702 180.405 267.78 172.895 261.67 168.028L259.178 171.157C264.376 175.298 267.702 181.675 267.702 188.831H271.702ZM245.12 215.412C259.801 215.412 271.702 203.511 271.702 188.831H267.702C267.702 201.302 257.592 211.412 245.12 211.412V215.412ZM225.192 206.423C230.059 211.933 237.185 215.412 245.12 215.412V211.412C238.379 211.412 232.33 208.461 228.19 203.774L225.192 206.423ZM208.261 215.413C216.197 215.413 223.322 211.933 228.19 206.422L225.192 203.774C221.051 208.462 215.002 211.413 208.261 211.413V215.413ZM181.679 188.831C181.679 203.511 193.58 215.413 208.261 215.413V211.413C195.789 211.413 185.679 201.302 185.679 188.831H181.679ZM191.711 168.028C185.601 172.895 181.679 180.405 181.679 188.831H185.679C185.679 181.675 189.005 175.297 194.203 171.157L191.711 168.028ZM181.68 150.355C181.68 158.78 185.602 166.29 191.711 171.157L194.203 168.028C189.006 163.887 185.68 157.51 185.68 150.355H181.68ZM208.262 123.773C193.581 123.773 181.68 135.674 181.68 150.355H185.68C185.68 137.883 195.79 127.773 208.262 127.773V123.773ZM228.19 132.762C223.322 127.252 216.197 123.773 208.262 123.773V127.773C215.002 127.773 221.051 130.724 225.192 135.411L228.19 132.762ZM245.12 123.773C237.185 123.773 230.06 127.252 225.192 132.762L228.19 135.411C232.33 130.724 238.379 127.773 245.12 127.773V123.773ZM271.702 150.355C271.702 135.674 259.801 123.773 245.12 123.773V127.773C257.592 127.773 267.702 137.883 267.702 150.355H271.702Z" fill="#E6E6EB" mask="url(#path-1-inside-1_821_3748)"/>
<path d="M205.599 148.015C209.071 149.77 216.736 151.619 219.621 144.972C223.227 136.663 212.494 137.455 213.639 143.422C214.592 148.39 219.474 151.905 224.687 147.743C225.653 146.972 227.704 144.926 227.693 141.951" stroke="#E6E6EB" stroke-width="2" stroke-linecap="round"/>
<ellipse cx="203.684" cy="160.054" rx="3.85907" ry="5.14542" transform="rotate(6.3656 203.684 160.054)" fill="#E6E6EB"/>
<ellipse cx="224.131" cy="162.335" rx="3.85907" ry="5.14542" transform="rotate(6.3656 224.131 162.335)" fill="#E6E6EB"/>
<ellipse cx="213.335" cy="166.306" rx="2.57271" ry="3.85907" transform="rotate(96.3656 213.335 166.306)" fill="#E6E6EB"/>
<path d="M249.604 199.311L246.309 193.253C250.052 190.055 259.331 189.634 262.356 192.941C265.105 195.948 265.203 198.536 266.27 203.715C266.646 206.249 265.878 211.543 259.796 212.446C253.714 213.349 251.02 208.499 250.433 205.961C246.427 203.867 248.211 200.656 249.604 199.311Z" fill="#F3F3F6"/>
<path d="M262.457 193.02C264.415 196.593 266.008 199.981 266.517 203.416C266.893 205.95 265.878 211.543 259.796 212.446C253.714 213.349 251.02 208.499 250.433 205.961C246.427 203.867 248.211 200.656 249.604 199.311L247.111 194.489" stroke="#E6E6EB" stroke-width="2"/>
<path d="M191.407 202.16C191.407 207.019 189.27 211.202 186.197 213.083C185.085 213.764 183.85 214.143 182.55 214.143C177.659 214.143 173.693 208.778 173.693 202.16C173.693 195.542 177.659 190.177 182.55 190.177C184.402 190.177 186.798 192.019 188.219 193.334C190.552 195.492 191.407 198.047 191.407 202.16Z" fill="#F3F3F6"/>
<path d="M191.407 202.16C191.407 207.019 189.27 211.202 186.197 213.083L215.894 199.034L199.681 189.166L188.219 193.334C190.552 195.492 191.407 198.047 191.407 202.16Z" fill="#F3F3F6"/>
<path d="M197.076 190.207L188.219 193.854C186.309 191.944 181.28 189.135 177.412 192.782C171.49 198.364 173.244 208.933 178.454 212.58C181.431 214.664 184.572 214.694 186.789 213.101L206.809 204.244" stroke="#E6E6EB" stroke-width="2" stroke-linecap="round"/>
<path d="M213.288 208.933C213.288 213.792 211.151 217.975 208.078 219.856C206.966 220.537 205.732 220.916 204.431 220.916C199.54 220.916 195.574 215.551 195.574 208.933C195.574 202.315 199.54 196.95 204.431 196.95C206.283 196.95 208.003 197.719 209.424 199.034C211.757 201.192 213.288 204.82 213.288 208.933Z" fill="#F3F3F6"/>
<path d="M213.288 208.933C213.288 213.792 211.151 217.975 208.078 219.856L237.775 205.807L220.582 194.866L209.424 199.034C211.757 201.192 213.288 204.82 213.288 208.933Z" fill="#F3F3F6"/>
<path d="M218.958 196.459L209.58 200.627C208.538 198.543 202.869 195.908 199 199.555C193.078 205.137 194.832 215.706 200.042 219.353C203.019 221.437 205.933 221.467 208.378 219.874L232.832 208.996" stroke="#E6E6EB" stroke-width="2" stroke-linecap="round"/>
<circle cx="43.2427" cy="43.2427" r="42.2427" transform="matrix(-1 0 0 1 157.766 124.94)" fill="#F3F3F6" stroke="#E6E6EB" stroke-width="2"/>
<path d="M138.926 147.352C135.453 149.107 127.788 150.956 124.903 144.309C121.297 136 132.03 136.791 130.885 142.758C129.933 147.727 125.05 151.241 119.837 147.08C118.871 146.308 116.82 144.263 116.831 141.288" stroke="#E6E6EB" stroke-width="2" stroke-linecap="round"/>
<ellipse cx="3.85907" cy="5.14542" rx="3.85907" ry="5.14542" transform="matrix(-0.993835 0.110872 0.110872 0.993835 145.769 153.849)" fill="#E6E6EB"/>
<ellipse cx="3.85907" cy="5.14542" rx="3.85907" ry="5.14542" transform="matrix(-0.993835 0.110872 0.110872 0.993835 125.322 156.13)" fill="#E6E6EB"/>
<ellipse cx="2.57271" cy="3.85907" rx="2.57271" ry="3.85907" transform="matrix(0.110872 0.993835 0.993835 -0.110872 128.733 163.514)" fill="#E6E6EB"/>
<path d="M93.2536 198.648L96.5485 192.589C92.8057 189.391 83.5261 188.971 80.5018 192.278C77.7521 195.285 77.6539 197.873 76.5877 203.052C76.2116 205.586 76.9799 210.88 83.0618 211.783C89.1436 212.685 91.8375 207.835 92.4242 205.297C96.4308 203.204 94.6465 199.992 93.2536 198.648Z" fill="#F3F3F6"/>
<path d="M80.4014 192.357C78.443 195.93 76.8504 199.318 76.3406 202.753C75.9645 205.287 76.9801 210.88 83.062 211.783C89.1439 212.685 91.8377 207.835 92.4244 205.297C96.431 203.204 94.6468 199.992 93.2538 198.648L95.7466 193.825" stroke="#E6E6EB" stroke-width="2"/>
<path d="M151.452 201.496C151.452 206.355 153.59 210.539 156.662 212.419C157.774 213.1 159.009 213.479 160.309 213.479C165.201 213.479 169.166 208.114 169.166 201.496C169.166 194.878 165.201 189.513 160.309 189.513C158.457 189.513 156.062 191.355 154.64 192.67C152.307 194.828 151.452 197.384 151.452 201.496Z" fill="#F3F3F6"/>
<path d="M151.452 201.496C151.452 206.355 153.59 210.539 156.662 212.419L126.965 198.37L143.178 188.502L154.64 192.67C152.307 194.828 151.452 197.384 151.452 201.496Z" fill="#F3F3F6"/>
<path d="M145.783 189.544L154.64 193.191C156.55 191.281 161.579 188.471 165.448 192.118C171.37 197.701 169.616 208.269 164.406 211.916C161.429 214 158.287 214.031 156.07 212.437L136.05 203.58" stroke="#E6E6EB" stroke-width="2" stroke-linecap="round"/>
<path d="M129.571 208.269C129.571 213.128 131.708 217.312 134.78 219.192C135.893 219.873 137.127 220.252 138.427 220.252C143.319 220.252 147.284 214.887 147.284 208.269C147.284 201.651 143.319 196.286 138.427 196.286C136.575 196.286 134.856 197.055 133.435 198.37C131.102 200.528 129.571 204.157 129.571 208.269Z" fill="#F3F3F6"/>
<path d="M129.571 208.269C129.571 213.128 131.708 217.312 134.78 219.192L105.084 205.143L122.277 194.202L133.435 198.37C131.102 200.528 129.571 204.157 129.571 208.269Z" fill="#F3F3F6"/>
<path d="M123.902 195.796L133.28 199.964C134.322 197.88 139.991 195.244 143.859 198.891C149.781 204.474 148.027 215.042 142.817 218.689C139.84 220.773 136.927 220.804 134.481 219.21L114.462 210.353" stroke="#E6E6EB" stroke-width="2" stroke-linecap="round"/>
<path fill-rule="evenodd" clip-rule="evenodd" d="M138.67 80C130.895 80 124.592 86.303 124.592 94.0781C124.592 101.853 130.895 108.156 138.67 108.156H141.523L144.669 116.447C145.322 118.168 147.756 118.168 148.409 116.447L151.554 108.156H208.717C216.492 108.156 222.795 101.853 222.795 94.0781C222.795 86.303 216.492 80 208.717 80H138.67Z" fill="#F3F3F6"/>
<path d="M141.523 108.156L142.458 107.801L142.213 107.156H141.523V108.156ZM144.669 116.447L143.734 116.802L144.669 116.447ZM148.409 116.447L149.344 116.802L148.409 116.447ZM151.554 108.156V107.156H150.864L150.619 107.801L151.554 108.156ZM125.592 94.0781C125.592 86.8553 131.447 81 138.67 81V79C130.342 79 123.592 85.7507 123.592 94.0781H125.592ZM138.67 107.156C131.447 107.156 125.592 101.301 125.592 94.0781H123.592C123.592 102.405 130.342 109.156 138.67 109.156V107.156ZM141.523 107.156H138.67V109.156H141.523V107.156ZM145.604 116.092L142.458 107.801L140.588 108.511L143.734 116.802L145.604 116.092ZM147.474 116.092C147.147 116.953 145.93 116.953 145.604 116.092L143.734 116.802C144.713 119.383 148.364 119.383 149.344 116.802L147.474 116.092ZM150.619 107.801L147.474 116.092L149.344 116.802L152.489 108.511L150.619 107.801ZM208.717 107.156H151.554V109.156H208.717V107.156ZM221.795 94.0781C221.795 101.301 215.939 107.156 208.717 107.156V109.156C217.044 109.156 223.795 102.405 223.795 94.0781H221.795ZM208.717 81C215.939 81 221.795 86.8552 221.795 94.0781H223.795C223.795 85.7507 217.044 79 208.717 79V81ZM138.67 81H208.717V79H138.67V81Z" fill="#E6E6EB"/>
<circle cx="153.719" cy="94.1908" r="3.32892" fill="#E6E6EB"/>
<circle cx="173.693" cy="94.1908" r="3.32892" fill="#E6E6EB"/>
<circle cx="193.666" cy="94.1908" r="3.32892" fill="#E6E6EB"/>
</svg>
