<svg width="223" height="43" viewBox="0 0 223 43" fill="none" xmlns="http://www.w3.org/2000/svg">
<path fill-rule="evenodd" clip-rule="evenodd" d="M17 0C7.61116 0 0 7.61116 0 17C0 26.3888 7.61117 34 17 34H19.2857L24.1318 42.4806C24.5157 43.1524 25.4843 43.1524 25.8682 42.4806L30.7143 34H206C215.389 34 223 26.3888 223 17C223 7.61116 215.389 0 206 0H17Z" fill="#3A3C42"/>
<path d="M20.2402 12.2559V15.3066H21.5938V16.2949H20.2402V19.5068H19.0479V12.2559H20.2402ZM18.3496 13.3301V14.2861H12.5918V13.3301H14.8799V12.2451H16.0723V13.3301H18.3496ZM15.4707 14.6836C16.8672 14.6836 17.834 15.4248 17.8447 16.542C17.834 17.6484 16.8672 18.3789 15.4707 18.3789C14.0635 18.3789 13.0859 17.6484 13.0859 16.542C13.0859 15.4248 14.0635 14.6836 15.4707 14.6836ZM15.4707 15.6074C14.7295 15.6074 14.2461 15.9512 14.2461 16.542C14.2461 17.1221 14.7295 17.4658 15.4707 17.4551C16.2119 17.4658 16.7061 17.1221 16.7061 16.542C16.7061 15.9512 16.2119 15.6074 15.4707 15.6074ZM20.627 20.7959V21.7627H14.0205V18.9375H15.2129V20.7959H20.627ZM32.8301 12.2559V19.4209H31.6377V15.8438H29.6826V17.8418H25.1387V12.8896H26.3311V14.458H28.501V12.8896H29.6826V14.877H31.6377V12.2559H32.8301ZM33.0449 20.7959V21.7627H26.4277V18.7119H27.6416V20.7959H33.0449ZM26.3311 16.8965H28.501V15.3818H26.3311V16.8965ZM39.748 12.6641C41.166 12.6641 42.1758 13.4482 42.1865 14.6191C42.1758 15.5806 41.4507 16.3057 40.3711 16.5098V17.2939C41.1768 17.251 41.9878 17.1758 42.7451 17.0684L42.8418 17.9385C40.8223 18.3037 38.5664 18.3359 36.9229 18.3359L36.7939 17.3799C37.4922 17.3853 38.3086 17.3799 39.168 17.3477V16.5098C38.0562 16.3271 37.3096 15.5967 37.3203 14.6191C37.3096 13.4482 38.3193 12.6641 39.748 12.6641ZM39.748 13.5771C38.9746 13.5771 38.4268 13.9639 38.4375 14.6191C38.4268 15.2529 38.9746 15.6504 39.748 15.6611C40.5215 15.6504 41.0479 15.2529 41.0586 14.6191C41.0479 13.9639 40.5215 13.5771 39.748 13.5771ZM44.5068 12.2559V15.3926H45.8174V16.3809H44.5068V19.668H43.3145V12.2559H44.5068ZM44.8506 20.7852V21.752H38.126V19.0127H39.3184V20.7852H44.8506ZM49.8779 13.6416C49.8672 14.9629 50.6406 16.166 52.166 16.6494L51.5215 17.584C50.4634 17.2134 49.7222 16.5098 49.3086 15.5859C48.8789 16.644 48.0679 17.4766 46.8916 17.8848L46.2578 16.918C47.8691 16.3916 48.6748 15.0918 48.6748 13.6953V12.7715H49.8779V13.6416ZM54.4541 12.2451V17.96H53.2617V15.1025H51.3281V14.125H53.2617V12.2451H54.4541ZM51.167 18.2178C53.2295 18.2178 54.4863 18.9053 54.4863 20.0869C54.4863 21.2686 53.2295 21.9453 51.167 21.9453C49.1152 21.9453 47.8584 21.2686 47.8691 20.0869C47.8584 18.9053 49.1152 18.2178 51.167 18.2178ZM51.167 19.1416C49.8135 19.1416 49.0508 19.4746 49.0508 20.0869C49.0508 20.6777 49.8135 21.0107 51.167 21.0107C52.5205 21.0107 53.2939 20.6777 53.2939 20.0869C53.2939 19.4746 52.5205 19.1416 51.167 19.1416ZM61.4795 15.2959V16.252H59.6748V17.3477C60.4858 17.3154 61.2915 17.2617 62.0488 17.1865L62.1348 18.0459C60.0723 18.3359 57.8379 18.3896 56.0332 18.3896L55.8721 17.4336C56.6724 17.4282 57.5586 17.4229 58.4717 17.3906V16.252H56.71V12.8467H61.4043V13.8135H57.9131V15.2959H61.4795ZM63.9287 12.2451V19.5391H62.7256V12.2451H63.9287ZM64.208 20.7959V21.7627H57.4189V19.002H58.6221V20.7959H64.208ZM76.3789 12.2451V21.9561H75.2402V12.2451H76.3789ZM74.4453 12.4492V21.4727H73.3066V16.8965H72.2324V15.833H73.3066V12.4492H74.4453ZM72.4795 13.3945V14.3613H71.792V18.5508C72.0981 18.5239 72.3882 18.4917 72.6621 18.4541L72.7373 19.3242C71.2119 19.6357 69.2139 19.668 67.9785 19.668L67.8389 18.6797L68.7197 18.6689V14.3613H68.0322V13.3945H72.4795ZM69.7939 18.6475L70.6963 18.6152V14.3613H69.7939V18.6475ZM82.4697 13.5771C82.4697 15.0811 83.9414 16.585 85.9717 16.9395L85.4346 17.9385C83.8071 17.5947 82.4751 16.6118 81.8467 15.3066C81.2021 16.6011 79.8701 17.5894 78.248 17.9385L77.7217 16.9395C79.7305 16.5742 81.1914 15.0703 81.2021 13.5771V12.8574H82.4697V13.5771ZM86.3262 19.7324V20.7207H77.4531V19.7324H86.3262ZM92.3848 13.083V14.0605H88.7002V15.79H91.998V16.7354H88.7002V18.7334C90.29 18.728 91.5039 18.6743 92.9004 18.4434L93.0186 19.4102C91.4932 19.6465 90.1289 19.7002 88.335 19.7002H87.5186V13.083H92.3848ZM95.0703 12.2451V21.9561H93.8672V12.2451H95.0703ZM104.599 12.2451V17.2402H103.406V15.2529H101.451V16.9287H96.9072V12.6748H98.0996V13.8779H100.27V12.6748H101.451V14.2754H103.406V12.2451H104.599ZM104.599 17.6377V20.1406H99.3994V20.8926H104.91V21.8379H98.207V19.2705H103.406V18.583H98.1963V17.6377H104.599ZM98.0996 15.9834H100.27V14.8125H98.0996V15.9834ZM117.446 17.6914V18.6582H115.287V21.9561H114.073V18.6582H111.925V21.9561H110.7V18.6582H108.573V17.6914H117.446ZM112.988 12.5889C115.051 12.5996 116.49 13.4375 116.49 14.7588C116.49 16.0586 115.051 16.8857 112.988 16.8857C110.915 16.8857 109.497 16.0586 109.508 14.7588C109.497 13.4375 110.915 12.5996 112.988 12.5889ZM112.988 13.5557C111.613 13.5557 110.722 13.9961 110.732 14.7588C110.722 15.5 111.613 15.9404 112.988 15.9404C114.363 15.9404 115.255 15.5 115.255 14.7588C115.255 13.9961 114.363 13.5557 112.988 13.5557ZM123.537 13.2119V14.1572H118.112V13.2119H120.282V12.1592H121.475V13.2119H123.537ZM120.862 14.5439C122.184 14.5439 123.129 15.2744 123.14 16.3594C123.129 17.4336 122.184 18.1533 120.862 18.1533C119.541 18.1533 118.606 17.4336 118.617 16.3594C118.606 15.2744 119.541 14.5439 120.862 14.5439ZM120.862 15.4355C120.175 15.4355 119.724 15.7793 119.734 16.3594C119.724 16.9287 120.175 17.2617 120.862 17.2617C121.55 17.2617 122.022 16.9287 122.022 16.3594C122.022 15.7793 121.55 15.4355 120.862 15.4355ZM126.223 12.2451V18.4648H125.03V17.3262H123.591V16.3701H125.03V15.4141H123.602V14.4473H125.03V12.2451H126.223ZM122.957 18.5723C125.009 18.5723 126.276 19.1953 126.276 20.2588C126.276 21.3115 125.009 21.9453 122.957 21.9453C120.905 21.9453 119.638 21.3115 119.638 20.2588C119.638 19.1953 120.905 18.5723 122.957 18.5723ZM122.957 19.4854C121.646 19.4854 120.895 19.7432 120.895 20.2588C120.895 20.7637 121.646 21.0322 122.957 21.0322C124.257 21.0322 124.998 20.7637 124.998 20.2588C124.998 19.7432 124.257 19.4854 122.957 19.4854ZM136.449 17.2617V18.2178H127.598V17.2617H136.449ZM135.45 20.7959V21.7627H128.693V18.9375H129.886V20.7959H135.45ZM132.013 12.5566C134.129 12.5566 135.504 13.2979 135.515 14.5225C135.504 15.7578 134.129 16.5098 132.013 16.5098C129.896 16.5098 128.511 15.7578 128.511 14.5225C128.511 13.2979 129.896 12.5566 132.013 12.5566ZM132.013 13.5127C130.605 13.5127 129.746 13.8779 129.757 14.5225C129.746 15.1777 130.605 15.543 132.013 15.5322C133.431 15.543 134.279 15.1777 134.279 14.5225C134.279 13.8779 133.431 13.5127 132.013 13.5127ZM147.847 12.2559V19.4209H146.654V16.9824H144.699V17.8418H140.155V12.8896H141.348V14.458H143.518V12.8896H144.699V13.9316H146.654V12.2559H147.847ZM148.062 20.7959V21.7627H141.444V18.7119H142.658V20.7959H148.062ZM141.348 16.8965H143.518V15.3818H141.348V16.8965ZM144.699 16.0156H146.654V14.8984H144.699V16.0156ZM157.354 12.2559V17.9277H156.161V16.8535H153.852V15.8867H156.161V14.8447H153.948C153.331 16.3916 151.918 17.4712 149.802 18.0566L149.318 17.1113C151.59 16.4937 152.799 15.3442 152.992 13.8994H149.834V12.9326H154.292C154.292 13.271 154.265 13.5933 154.206 13.8994H156.161V12.2559H157.354ZM154.142 18.0352C156.107 18.0352 157.418 18.7764 157.418 19.9688C157.418 21.1611 156.107 21.9023 154.142 21.9023C152.154 21.9023 150.844 21.1611 150.844 19.9688C150.844 18.7764 152.154 18.0352 154.142 18.0352ZM154.142 18.9697C152.831 18.9697 152.036 19.3242 152.036 19.9688C152.036 20.6025 152.831 20.957 154.142 20.957C155.42 20.957 156.226 20.6025 156.226 19.9688C156.226 19.3242 155.42 18.9697 154.142 18.9697ZM166.807 12.2451V21.9668H165.604V12.2451H166.807ZM161.575 12.9541C163.036 12.9541 164.1 14.2861 164.11 16.3809C164.1 18.4971 163.036 19.8184 161.575 19.8184C160.104 19.8184 159.04 18.4971 159.04 16.3809C159.04 14.2861 160.104 12.9541 161.575 12.9541ZM161.575 14.0283C160.748 14.0283 160.189 14.8984 160.189 16.3809C160.189 17.874 160.748 18.7441 161.575 18.7441C162.392 18.7441 162.95 17.874 162.95 16.3809C162.95 14.8984 162.392 14.0283 161.575 14.0283ZM173.499 12.9541C174.815 12.9541 175.787 14.0498 175.959 15.8223H177.807V12.2451H178.988V21.9668H177.807V16.7891H175.97C175.841 18.6636 174.853 19.8184 173.499 19.8184C172.038 19.8184 171.007 18.4971 171.007 16.3809C171.007 14.2861 172.038 12.9541 173.499 12.9541ZM173.499 14.0283C172.693 14.0283 172.146 14.8984 172.156 16.3809C172.146 17.874 172.693 18.7441 173.499 18.7441C174.305 18.7441 174.842 17.874 174.853 16.3809C174.842 14.8984 174.305 14.0283 173.499 14.0283ZM188.484 12.2451V21.9668H187.292V17.9814H185.52V17.0039H187.292V15.3389H185.552V14.3613H187.292V12.2451H188.484ZM185.004 13.083V16.7139H181.889V18.7764C183.172 18.7656 184.29 18.7119 185.595 18.5186L185.691 19.4961C184.198 19.7324 182.963 19.7646 181.459 19.7646H180.707V15.7793H183.833V14.0391H180.675V13.083H185.004ZM198.056 12.2559V21.9453H196.842V19.7217H194.779V18.8193H196.842V12.2559H198.056ZM189.816 17.2402C191.643 17.2402 194.07 17.2295 196.176 16.9395L196.251 17.8203C195.359 17.9761 194.441 18.0674 193.544 18.1211V21.6553H192.341V18.1855C191.492 18.2124 190.687 18.2178 189.967 18.2178L189.816 17.2402ZM193.007 12.6748C194.436 12.6748 195.478 13.4805 195.478 14.6406C195.478 15.8223 194.436 16.5957 193.007 16.5957C191.546 16.5957 190.515 15.8223 190.515 14.6406C190.515 13.4805 191.546 12.6748 193.007 12.6748ZM193.007 13.5879C192.19 13.5879 191.643 14.0068 191.643 14.6406C191.643 15.2959 192.19 15.6826 193.007 15.6826C193.78 15.6826 194.339 15.2959 194.339 14.6406C194.339 14.0068 193.78 13.5879 193.007 13.5879ZM208.239 19.7969V20.7744H199.366V19.7969H201.418V17.3369C200.645 16.8965 200.177 16.2036 200.183 15.3389C200.172 13.792 201.697 12.7715 203.781 12.7715C205.876 12.7715 207.401 13.792 207.401 15.3389C207.401 16.1875 206.95 16.8696 206.198 17.3154V19.7969H208.239ZM203.781 13.7168C202.331 13.7168 201.343 14.3291 201.354 15.3389C201.343 16.3379 202.331 16.9609 203.781 16.9609C205.231 16.9609 206.23 16.3379 206.23 15.3389C206.23 14.3291 205.231 13.7168 203.781 13.7168ZM202.6 19.7969H204.984V17.7666C204.614 17.8525 204.211 17.8955 203.781 17.8955C203.362 17.8955 202.965 17.8525 202.6 17.7773V19.7969ZM210.871 13.2227L210.753 18.7119H209.539L209.41 13.2227H210.871ZM210.151 21.0859C209.689 21.0859 209.313 20.71 209.313 20.248C209.313 19.7969 209.689 19.4209 210.151 19.4209C210.592 19.4209 210.979 19.7969 210.979 20.248C210.979 20.71 210.592 21.0859 210.151 21.0859Z" fill="white"/>
</svg>
