<svg width="20" height="21" viewBox="0 0 20 21" fill="none" xmlns="http://www.w3.org/2000/svg">
<path d="M8.6 12.3L6.45 10.15C6.26667 9.96667 6.03333 9.875 5.75 9.875C5.46667 9.875 5.23334 9.96667 5.05 10.15C4.86667 10.3333 4.775 10.5667 4.775 10.85C4.775 11.1333 4.86667 11.3667 5.05 11.55L7.9 14.4C8.1 14.6 8.33333 14.7 8.6 14.7C8.86667 14.7 9.1 14.6 9.3 14.4L14.95 8.75C15.1333 8.56667 15.225 8.33333 15.225 8.05C15.225 7.76667 15.1333 7.53333 14.95 7.35C14.7667 7.16667 14.5333 7.075 14.25 7.075C13.9667 7.075 13.7333 7.16667 13.55 7.35L8.6 12.3ZM10 20.5C8.61667 20.5 7.31667 20.2373 6.1 19.712C4.88334 19.1867 3.825 18.4743 2.925 17.575C2.025 16.6757 1.31267 15.6173 0.788001 14.4C0.263335 13.1827 0.000667933 11.8827 1.26582e-06 10.5C-0.000665401 9.11733 0.262001 7.81733 0.788001 6.6C1.314 5.38267 2.02633 4.32433 2.925 3.425C3.82367 2.52567 4.882 1.81333 6.1 1.288C7.318 0.762667 8.618 0.5 10 0.5C11.382 0.5 12.682 0.762667 13.9 1.288C15.118 1.81333 16.1763 2.52567 17.075 3.425C17.9737 4.32433 18.6863 5.38267 19.213 6.6C19.7397 7.81733 20.002 9.11733 20 10.5C19.998 11.8827 19.7353 13.1827 19.212 14.4C18.6887 15.6173 17.9763 16.6757 17.075 17.575C16.1737 18.4743 15.1153 19.187 13.9 19.713C12.6847 20.239 11.3847 20.5013 10 20.5Z" fill="#3A3C42"/>
</svg>
