<svg width="16" height="16" viewBox="0 0 16 16" fill="none" xmlns="http://www.w3.org/2000/svg">
<path d="M8 2.00171C6.84335 2.00171 6.00371 2.01542 5.49822 2.04198C5.04747 2.05936 4.60096 2.13598 4.17021 2.26988C3.73193 2.42597 3.33387 2.67762 3.00489 3.0066C2.67591 3.33558 2.42426 3.73364 2.26817 4.17193C2.13427 4.60268 2.05764 5.04918 2.04027 5.49993C2.01371 6.00885 2 6.84507 2 8.00171C2 9.15836 2.01371 9.998 2.04027 10.5035C2.05655 10.9533 2.1328 11.4031 2.26817 11.8315C2.4241 12.2693 2.67514 12.6677 3.005 12.9967C3.33057 13.324 3.72983 13.5673 4.17021 13.7061C4.59603 13.8586 5.04412 13.9443 5.49822 13.9597C6.00714 13.9863 6.84335 14 8 14C9.15665 14 9.99629 13.9863 10.5018 13.9597C10.9525 13.9424 11.399 13.8657 11.8298 13.7318C12.2678 13.5752 12.6656 13.3234 12.9945 12.9945C13.3234 12.6656 13.5752 12.2678 13.7318 11.8298C13.8666 11.3991 13.9426 10.9564 13.9597 10.5018C13.9863 9.99286 14 9.15665 14 8C14 6.84335 13.9914 6.01228 13.9734 5.50678C13.9495 5.05286 13.8683 4.60379 13.7318 4.17021C13.5758 3.73202 13.3243 3.33401 12.9955 3.00504C12.6667 2.67607 12.2688 2.42436 11.8306 2.26817C11.3999 2.13427 10.9534 2.05764 10.5026 2.04027C9.99257 2.01342 9.15865 2 8.00086 2L8 2.00171ZM7.57161 12.9684C6.85763 12.9684 6.30358 12.9596 5.90947 12.9419C5.41958 12.9335 4.93285 12.8615 4.46152 12.7277C4.20077 12.6252 3.96394 12.47 3.76582 12.2719C3.5677 12.0738 3.41254 11.8369 3.31001 11.5762C3.17618 11.1048 3.10418 10.6181 3.09582 10.1282C3.07782 9.73583 3.06926 9.18578 3.06926 8.46609V7.60931C3.06926 6.89533 3.07811 6.34128 3.09582 5.94717C3.10096 5.45795 3.17293 4.97044 3.31001 4.49921C3.40682 4.23542 3.55989 3.99585 3.75859 3.79715C3.95729 3.59845 4.19686 3.44538 4.46066 3.34856C4.93199 3.21474 5.41872 3.14274 5.90861 3.13437C6.30101 3.11638 6.85106 3.10781 7.57076 3.10781H8.42753C9.14151 3.10781 9.69556 3.11666 10.0897 3.13437C10.5789 3.13951 11.0664 3.21148 11.5376 3.34856C11.8016 3.44527 12.0413 3.5983 12.2402 3.797C12.439 3.99571 12.5922 4.23533 12.6891 4.49921C12.8262 4.96958 12.8982 5.4588 12.9033 5.94717C12.9205 6.32243 12.9299 6.87248 12.9299 7.60931V8.46609C12.9299 9.18007 12.921 9.73411 12.9033 10.1282C12.895 10.6181 12.823 11.1048 12.6891 11.5762C12.5866 11.8369 12.4314 12.0738 12.2333 12.2719C12.0352 12.47 11.7984 12.6252 11.5376 12.7277C11.0681 12.8648 10.578 12.9367 10.0897 12.9419C9.71526 12.959 9.16436 12.9684 8.42753 12.9684H7.57161ZM11.2129 4.05798C11.0646 4.057 10.9193 4.10032 10.7957 4.18237C10.6722 4.26442 10.5759 4.38148 10.5192 4.51857C10.4625 4.65566 10.448 4.80654 10.4776 4.9519C10.5072 5.09727 10.5794 5.23051 10.6851 5.33457C10.7872 5.44103 10.9191 5.51401 11.0636 5.54384C11.208 5.57367 11.3581 5.55896 11.4939 5.50164C11.5825 5.46301 11.6619 5.40607 11.727 5.33457C11.8641 5.19063 11.9463 5.00471 11.9626 4.8068C11.9593 4.609 11.8792 4.42023 11.7394 4.28035C11.5995 4.14047 11.4107 4.06128 11.2129 4.05798ZM8 5.01756C7.47283 5.01421 6.95463 5.15397 6.50064 5.42196C6.04655 5.68499 5.66871 6.06283 5.40397 6.51863C5.14078 6.9745 5.00222 7.49161 5.00222 8.01799C5.00222 8.54438 5.14078 9.06149 5.40397 9.51735C5.66819 9.97223 6.04679 10.3501 6.50219 10.6134C6.9576 10.8767 7.47395 11.0164 8 11.0184C8.79486 11.0155 9.55633 10.6984 10.1184 10.1364C10.6804 9.57432 10.9975 8.81285 11.0004 8.01799C11.0004 7.49536 10.8608 6.97273 10.596 6.51863C10.333 6.06323 9.95476 5.68503 9.49936 5.42196C9.04537 5.15397 8.52717 5.01421 8 5.01756ZM8 9.94402C7.48873 9.94402 6.9984 9.74092 6.63688 9.3794C6.27536 9.01788 6.07225 8.52755 6.07225 8.01628C6.07225 7.50501 6.27536 7.01468 6.63688 6.65316C6.9984 6.29164 7.48873 6.08853 8 6.08853C8.51127 6.08853 9.0016 6.29164 9.36312 6.65316C9.72464 7.01468 9.92775 7.50501 9.92775 8.01628C9.92775 8.52755 9.72464 9.01788 9.36312 9.3794C9.0016 9.74092 8.51127 9.94402 8 9.94402Z" fill="#3A3C42"/>
</svg>
