<svg width="343" height="343" viewBox="0 0 343 343" fill="none" xmlns="http://www.w3.org/2000/svg">
<ellipse cx="91.5714" cy="258.541" rx="35.9796" ry="10.4592" fill="#F3F3F6"/>
<ellipse cx="247.622" cy="258.541" rx="36.398" ry="10.4592" fill="#F3F3F6"/>
<rect x="86.0508" y="65" width="168.566" height="166.965" rx="6.936" fill="white" stroke="black" stroke-width="2"/>
<path d="M98.6641 74.4102C98.6641 76.1792 97.23 77.6133 95.4609 77.6133C93.6919 77.6133 92.2578 76.1792 92.2578 74.4102C92.2578 72.6411 93.6919 71.207 95.4609 71.207C97.23 71.207 98.6641 72.6411 98.6641 74.4102Z" stroke="black" stroke-width="2"/>
<path d="M249.211 74.4102C249.211 76.1792 247.777 77.6133 246.008 77.6133C244.239 77.6133 242.805 76.1792 242.805 74.4102C242.805 72.6411 244.239 71.207 246.008 71.207C247.777 71.207 249.211 72.6411 249.211 74.4102Z" stroke="black" stroke-width="2"/>
<rect x="192.355" y="80.0156" width="40.8398" height="40.0391" rx="1.14631" fill="#F3F3F6" stroke="black" stroke-width="2"/>
<line x1="198.16" y1="89.4258" x2="226.59" y2="89.4258" stroke="#D5D5DE" stroke-width="2" stroke-linecap="round"/>
<line x1="198.16" y1="96.6328" x2="226.59" y2="96.6328" stroke="#D5D5DE" stroke-width="2" stroke-linecap="round"/>
<line x1="198.16" y1="103.84" x2="226.59" y2="103.84" stroke="#D5D5DE" stroke-width="2" stroke-linecap="round"/>
<line x1="198.16" y1="111.047" x2="215.379" y2="111.047" stroke="#D5D5DE" stroke-width="2" stroke-linecap="round"/>
<rect x="181.945" y="92.0273" width="40.8398" height="40.0391" rx="1.14631" fill="#F3F3F6" stroke="black" stroke-width="2"/>
<line x1="187.75" y1="101.438" x2="216.18" y2="101.438" stroke="#D5D5DE" stroke-width="2" stroke-linecap="round"/>
<line x1="187.75" y1="108.645" x2="216.18" y2="108.645" stroke="#D5D5DE" stroke-width="2" stroke-linecap="round"/>
<line x1="187.75" y1="115.852" x2="216.18" y2="115.852" stroke="#D5D5DE" stroke-width="2" stroke-linecap="round"/>
<line x1="187.75" y1="123.059" x2="204.969" y2="123.059" stroke="#D5D5DE" stroke-width="2" stroke-linecap="round"/>
<mask id="path-16-inside-1_821_3659" fill="white">
<path fill-rule="evenodd" clip-rule="evenodd" d="M117.883 130.412V169.319C117.883 170.858 119.13 172.105 120.669 172.105H164.745C166.284 172.105 167.531 170.858 167.531 169.319V113.231C167.531 111.693 166.284 110.445 164.745 110.445H138.783L117.883 130.412Z"/>
</mask>
<path fill-rule="evenodd" clip-rule="evenodd" d="M117.883 130.412V169.319C117.883 170.858 119.13 172.105 120.669 172.105H164.745C166.284 172.105 167.531 170.858 167.531 169.319V113.231C167.531 111.693 166.284 110.445 164.745 110.445H138.783L117.883 130.412Z" fill="#FFE6E4"/>
<path d="M117.883 130.412L116.501 128.966L115.883 129.557V130.412H117.883ZM138.783 110.445V108.445H137.981L137.401 108.999L138.783 110.445ZM119.883 169.319V130.412H115.883V169.319H119.883ZM120.669 170.105C120.235 170.105 119.883 169.754 119.883 169.319H115.883C115.883 171.963 118.026 174.105 120.669 174.105V170.105ZM164.745 170.105H120.669V174.105H164.745V170.105ZM165.531 169.319C165.531 169.754 165.179 170.105 164.745 170.105V174.105C167.388 174.105 169.531 171.963 169.531 169.319H165.531ZM165.531 113.231V169.319H169.531V113.231H165.531ZM164.745 112.445C165.179 112.445 165.531 112.797 165.531 113.231H169.531C169.531 110.588 167.388 108.445 164.745 108.445V112.445ZM138.783 112.445H164.745V108.445H138.783V112.445ZM137.401 108.999L116.501 128.966L119.264 131.858L140.165 111.891L137.401 108.999Z" fill="black" mask="url(#path-16-inside-1_821_3659)"/>
<mask id="path-18-inside-2_821_3659" fill="white">
<path fill-rule="evenodd" clip-rule="evenodd" d="M117.883 130.412L138.783 110.446L138.783 127.626C138.783 129.165 137.535 130.412 135.997 130.412L117.883 130.412Z"/>
</mask>
<path fill-rule="evenodd" clip-rule="evenodd" d="M117.883 130.412L138.783 110.446L138.783 127.626C138.783 129.165 137.535 130.412 135.997 130.412L117.883 130.412Z" fill="#FF998F"/>
<path d="M117.883 130.412L116.502 128.966L112.894 132.412L117.883 132.412L117.883 130.412ZM138.783 110.446L140.783 110.446L140.783 105.769L137.401 109L138.783 110.446ZM119.265 131.858L140.164 111.892L137.401 109L116.502 128.966L119.265 131.858ZM136.783 110.446L136.783 127.626L140.783 127.626L140.783 110.446L136.783 110.446ZM136.783 127.626C136.783 128.06 136.431 128.412 135.997 128.412L135.997 132.412C138.64 132.412 140.783 130.269 140.783 127.626L136.783 127.626ZM135.997 128.412L117.883 128.412L117.883 132.412L135.997 132.412L135.997 128.412Z" fill="black" mask="url(#path-18-inside-2_821_3659)"/>
<path d="M125.33 137.718H160.704" stroke="#FF998F" stroke-width="2" stroke-linecap="round"/>
<path d="M125.33 147.798H160.704" stroke="#FF998F" stroke-width="2" stroke-linecap="round"/>
<path d="M125.33 157.876H143.328" stroke="#FF998F" stroke-width="2" stroke-linecap="round"/>
<path fill-rule="evenodd" clip-rule="evenodd" d="M279.694 199.855C285.135 195.522 288.621 188.84 288.621 181.344C288.621 168.281 278.032 157.691 264.968 157.691C257.908 157.691 251.569 160.785 247.235 165.691C242.901 160.785 236.563 157.691 229.502 157.691C216.439 157.691 205.849 168.281 205.849 181.344C205.849 188.84 209.336 195.522 214.776 199.856C209.336 204.189 205.849 210.871 205.849 218.367C205.849 231.43 216.439 242.02 229.502 242.02C230.495 242.02 231.474 241.958 232.435 241.84V247.785C230.229 247.933 225.817 249.55 225.817 254.845C225.964 256.316 227.141 259.257 230.671 259.257H243.907L243.907 237.129C245.114 236.201 246.229 235.159 247.235 234.02C248.239 235.156 249.351 236.195 250.554 237.121V259.257H263.79C267.32 259.257 268.496 256.316 268.643 254.845C268.643 249.55 264.231 247.933 262.025 247.786V241.838C262.989 241.958 263.972 242.02 264.968 242.02C278.032 242.02 288.621 231.43 288.621 218.367C288.621 210.871 285.135 204.189 279.694 199.855Z" fill="#FFE6E4"/>
<path d="M279.694 199.855L279.071 199.073L278.089 199.855L279.071 200.638L279.694 199.855ZM247.235 165.691L246.486 166.354L247.235 167.202L247.985 166.354L247.235 165.691ZM214.776 199.856L215.399 200.638L216.381 199.856L215.399 199.073L214.776 199.856ZM232.435 241.84H233.435V240.708L232.313 240.847L232.435 241.84ZM232.435 247.785L232.502 248.783L233.435 248.721V247.785H232.435ZM225.817 254.845H224.817V254.895L224.822 254.944L225.817 254.845ZM243.907 259.257V260.257H244.907V259.257H243.907ZM243.907 237.129L243.297 236.336L242.907 236.636V237.129H243.907ZM247.235 234.02L247.985 233.357L247.235 232.509L246.486 233.357L247.235 234.02ZM250.554 237.121H251.554V236.629L251.164 236.329L250.554 237.121ZM250.554 259.257H249.554V260.257H250.554V259.257ZM268.643 254.845L269.638 254.944L269.643 254.895V254.845H268.643ZM262.025 247.786H261.025V248.721L261.959 248.783L262.025 247.786ZM262.025 241.838L262.148 240.846L261.025 240.706V241.838H262.025ZM287.621 181.344C287.621 188.523 284.284 194.921 279.071 199.073L280.317 200.638C285.986 196.122 289.621 189.158 289.621 181.344H287.621ZM264.968 158.691C277.479 158.691 287.621 168.834 287.621 181.344H289.621C289.621 167.729 278.584 156.691 264.968 156.691V158.691ZM247.985 166.354C252.137 161.653 258.206 158.691 264.968 158.691V156.691C257.609 156.691 251.002 159.918 246.486 165.029L247.985 166.354ZM229.502 158.691C236.264 158.691 242.334 161.653 246.486 166.354L247.985 165.029C243.469 159.918 236.862 156.691 229.502 156.691V158.691ZM206.849 181.344C206.849 168.834 216.991 158.691 229.502 158.691V156.691C215.887 156.691 204.849 167.729 204.849 181.344H206.849ZM215.399 199.073C210.187 194.921 206.849 188.523 206.849 181.344H204.849C204.849 189.158 208.485 196.123 214.153 200.638L215.399 199.073ZM206.849 218.367C206.849 211.188 210.187 204.79 215.399 200.638L214.153 199.073C208.485 203.589 204.849 210.553 204.849 218.367H206.849ZM229.502 241.02C216.991 241.02 206.849 230.878 206.849 218.367H204.849C204.849 231.982 215.887 243.02 229.502 243.02V241.02ZM232.313 240.847C231.392 240.961 230.454 241.02 229.502 241.02V243.02C230.537 243.02 231.556 242.956 232.558 242.832L232.313 240.847ZM231.435 241.84V247.785H233.435V241.84H231.435ZM232.369 246.788C231.105 246.872 229.247 247.367 227.681 248.599C226.073 249.863 224.817 251.876 224.817 254.845H226.817C226.817 252.52 227.767 251.076 228.917 250.171C230.109 249.234 231.56 248.846 232.502 248.783L232.369 246.788ZM224.822 254.944C224.912 255.84 225.302 257.139 226.202 258.237C227.132 259.371 228.586 260.257 230.671 260.257V258.257C229.226 258.257 228.326 257.672 227.749 256.968C227.141 256.228 226.87 255.321 226.812 254.745L224.822 254.944ZM230.671 260.257H243.907V258.257H230.671V260.257ZM244.907 259.257L244.907 237.129H242.907L242.907 259.257H244.907ZM246.486 233.357C245.521 234.449 244.454 235.447 243.297 236.336L244.516 237.922C245.774 236.955 246.936 235.869 247.985 234.682L246.486 233.357ZM251.164 236.329C250.011 235.442 248.946 234.446 247.985 233.357L246.486 234.682C247.532 235.866 248.69 236.949 249.944 237.913L251.164 236.329ZM251.554 259.257V237.121H249.554V259.257H251.554ZM263.79 258.257H250.554V260.257H263.79V258.257ZM267.648 254.745C267.591 255.321 267.319 256.228 266.712 256.968C266.135 257.672 265.235 258.257 263.79 258.257V260.257C265.875 260.257 267.328 259.371 268.258 258.237C269.158 257.139 269.549 255.84 269.638 254.944L267.648 254.745ZM261.959 248.783C262.901 248.846 264.352 249.234 265.543 250.171C266.693 251.076 267.643 252.52 267.643 254.845H269.643C269.643 251.876 268.387 249.864 266.78 248.599C265.214 247.367 263.355 246.872 262.092 246.788L261.959 248.783ZM261.025 241.838V247.786H263.025V241.838H261.025ZM264.968 241.02C264.013 241.02 263.072 240.96 262.148 240.846L261.902 242.831C262.907 242.955 263.93 243.02 264.968 243.02V241.02ZM287.621 218.367C287.621 230.877 277.479 241.02 264.968 241.02V243.02C278.584 243.02 289.621 231.982 289.621 218.367H287.621ZM279.071 200.638C284.284 204.79 287.621 211.188 287.621 218.367H289.621C289.621 210.553 285.986 203.588 280.317 199.073L279.071 200.638Z" fill="black"/>
<path d="M250.352 176.724C247.88 179.35 241.785 183.383 237.171 178.502C231.404 172.402 241.006 169.7 241.894 175.262C242.634 179.892 239.489 184.497 233.632 182.518C232.547 182.151 230.113 181.016 229.183 178.42" stroke="#FF6F61" stroke-width="2" stroke-linecap="round"/>
<ellipse cx="230.236" cy="193.754" rx="3.57695" ry="4.76927" fill="black"/>
<ellipse cx="249.305" cy="193.754" rx="3.57695" ry="4.76927" fill="black"/>
<ellipse cx="239.768" cy="198.522" rx="2.38464" ry="3.57695" transform="rotate(90 239.768 198.522)" fill="black"/>
<path d="M208.304 204.672L214.543 207.405C213.559 212.167 211.931 220.902 207.569 220.152C203.602 219.47 196.6 214.721 192.632 211.325C190.805 209.575 188.971 205.605 192.399 200.592C194.356 197.73 201.637 198.36 203.631 199.985C207.569 202.535 206.368 202.535 208.304 204.672Z" fill="#FFE6E4"/>
<path d="M210.476 205.738C207.273 203.736 206.701 202.683 203.565 200.533C201.57 198.908 195.347 197.513 192.399 200.592C188.199 204.979 190.792 209.958 192.62 211.708C195.097 214.08 203.076 218.549 206.768 220.152" stroke="black" stroke-width="2"/>
<path d="M186.75 159.293L201.164 218.551" stroke="black" stroke-width="2" stroke-linecap="round"/>
<path d="M194.666 206.465C193.542 204.506 191.45 204.121 193.349 203.031C195.248 201.941 197.698 202.645 198.822 204.603C199.945 206.561 199.317 209.032 197.418 210.122C195.519 211.212 195.79 208.423 194.666 206.465Z" fill="#FFE6E4"/>
<path d="M193.695 202.884C194.168 202.484 194.757 202.258 195.396 202.23C196.034 202.203 196.698 202.375 197.314 202.728C197.93 203.081 198.474 203.601 198.886 204.231C199.298 204.861 199.562 205.576 199.649 206.297C199.736 207.018 199.642 207.717 199.379 208.318C199.115 208.918 198.691 209.397 198.154 209.7C197.617 210.003 196.988 210.119 196.336 210.035" stroke="black" stroke-width="2" stroke-linecap="round"/>
<path d="M105.796 224.235C105.796 225.852 104.297 227.163 102.449 227.163C100.601 227.163 99.1021 225.852 99.1021 224.235C99.1021 222.617 100.601 221.306 102.449 221.306C104.297 221.306 105.796 222.617 105.796 224.235Z" stroke="black" stroke-width="2"/>
<path d="M130.404 197.063L124.425 200.485C125.918 205.484 125.21 213.573 129.513 212.419C133.426 211.37 143.224 206.835 146.85 202.89C148.501 200.875 150.633 195.76 145.95 191.421C141.268 187.082 136.434 189.788 134.603 191.684C130.105 191.195 129.93 195.066 130.404 197.063Z" fill="#FFCDC9"/>
<path d="M131.733 211.834C135.266 209.906 144.425 204.847 146.679 202.262C148.342 200.356 150.478 195.163 145.901 191.172C141.325 187.18 136.5 189.778 134.66 191.575C130.212 191.181 129.985 194.803 130.427 196.663L126.528 199.021" stroke="black" stroke-width="2" stroke-linecap="round"/>
<path fill-rule="evenodd" clip-rule="evenodd" d="M109.139 237.275C124.918 231.543 136.176 216.534 136.176 198.922C136.176 176.366 117.712 158.082 94.936 158.082C72.1597 158.082 53.6958 176.366 53.6958 198.922C53.6958 214.273 62.2485 227.646 74.8925 234.622L68.2338 254.873L81.2588 258.6C84.7322 259.594 86.7778 257.225 87.3664 255.917C88.9645 251.056 85.1111 248.329 82.9847 247.573L85.878 238.773C88.7928 239.42 91.8242 239.762 94.936 239.762C95.7402 239.762 96.5389 239.739 97.3317 239.694V258.59H110.956C114.589 258.59 115.8 255.766 115.951 254.354C115.951 249.27 111.41 247.716 109.139 247.575V237.275Z" fill="#FFCDC9"/>
<path d="M109.139 237.275L108.798 236.335L108.139 236.574V237.275H109.139ZM74.8925 234.622L75.8425 234.934L76.1014 234.147L75.3756 233.747L74.8925 234.622ZM68.2338 254.873L67.2838 254.561L66.959 255.549L67.9587 255.835L68.2338 254.873ZM81.2588 258.6L81.5339 257.639L81.2588 258.6ZM87.3664 255.917L88.2784 256.327L88.2999 256.279L88.3164 256.229L87.3664 255.917ZM82.9847 247.573L82.0347 247.261L81.7297 248.188L82.6496 248.515L82.9847 247.573ZM85.878 238.773L86.0947 237.797L85.2108 237.601L84.928 238.461L85.878 238.773ZM97.3317 239.694H98.3317V238.635L97.275 238.695L97.3317 239.694ZM97.3317 258.59H96.3317V259.59H97.3317V258.59ZM115.951 254.354L116.945 254.46L116.951 254.407V254.354H115.951ZM109.139 247.575H108.139V248.515L109.077 248.573L109.139 247.575ZM135.176 198.922C135.176 216.095 124.199 230.74 108.798 236.335L109.481 238.215C125.637 232.345 137.176 216.973 137.176 198.922H135.176ZM94.936 159.082C117.169 159.082 135.176 176.928 135.176 198.922H137.176C137.176 175.805 118.255 157.082 94.936 157.082V159.082ZM54.6958 198.922C54.6958 176.928 72.7027 159.082 94.936 159.082V157.082C71.6166 157.082 52.6958 175.805 52.6958 198.922H54.6958ZM75.3756 233.747C63.0345 226.937 54.6958 213.891 54.6958 198.922H52.6958C52.6958 214.655 61.4625 228.354 74.4094 235.498L75.3756 233.747ZM69.1837 255.186L75.8425 234.934L73.9425 234.31L67.2838 254.561L69.1837 255.186ZM81.5339 257.639L68.5089 253.912L67.9587 255.835L80.9837 259.562L81.5339 257.639ZM86.4544 255.507C86.2303 256.005 85.6949 256.759 84.8676 257.272C84.0756 257.763 82.9858 258.054 81.5339 257.639L80.9837 259.562C83.0052 260.14 84.6748 259.744 85.9211 258.972C87.1321 258.222 87.9139 257.137 88.2784 256.327L86.4544 255.507ZM82.6496 248.515C83.5718 248.843 84.8845 249.612 85.7699 250.803C86.6194 251.945 87.1066 253.505 86.4164 255.604L88.3164 256.229C89.2243 253.468 88.5838 251.235 87.3746 249.609C86.2012 248.031 84.5239 247.059 83.3197 246.631L82.6496 248.515ZM84.928 238.461L82.0347 247.261L83.9346 247.885L86.828 239.086L84.928 238.461ZM94.936 238.762C91.8975 238.762 88.9387 238.428 86.0947 237.797L85.6613 239.75C88.6468 240.412 91.7508 240.762 94.936 240.762V238.762ZM97.275 238.695C96.5011 238.739 95.7213 238.762 94.936 238.762V240.762C95.7591 240.762 96.5767 240.738 97.3883 240.692L97.275 238.695ZM98.3317 258.59V239.694H96.3317V258.59H98.3317ZM110.956 257.59H97.3317V259.59H110.956V257.59ZM114.957 254.247C114.9 254.779 114.628 255.636 114.008 256.341C113.418 257.013 112.478 257.59 110.956 257.59V259.59C113.066 259.59 114.549 258.755 115.51 257.662C116.442 256.602 116.851 255.34 116.945 254.46L114.957 254.247ZM109.077 248.573C110.065 248.635 111.572 249.012 112.805 249.917C113.995 250.79 114.951 252.162 114.951 254.354H116.951C116.951 251.461 115.637 249.515 113.988 248.305C112.383 247.127 110.484 246.657 109.201 246.577L109.077 248.573ZM108.139 237.275V247.575H110.139V237.275H108.139Z" fill="black"/>
<path d="M122.009 178.206C119.057 180.508 112.164 183.679 108.205 177.941C103.255 170.767 113.535 169.519 113.564 175.365C113.589 180.232 109.633 184.458 103.938 181.499C102.882 180.95 100.565 179.401 100.022 176.59" stroke="#FF6F61" stroke-width="2" stroke-linecap="round"/>
<ellipse cx="3.71324" cy="4.95099" rx="3.71324" ry="4.95099" transform="matrix(-0.993835 0.110872 0.110872 0.993835 126.521 187.32)" fill="black"/>
<ellipse cx="3.71324" cy="4.95099" rx="3.71324" ry="4.95099" transform="matrix(-0.993835 0.110872 0.110872 0.993835 106.846 189.515)" fill="black"/>
<ellipse cx="2.47549" cy="3.71324" rx="2.47549" ry="3.71324" transform="matrix(0.110872 0.993835 0.993835 -0.110872 110.128 196.619)" fill="black"/>
<circle cx="148.051" cy="174.867" r="9.62245" fill="white" fill-opacity="0.5"/>
<path fill-rule="evenodd" clip-rule="evenodd" d="M142.022 184.829C139.674 183.444 137.771 181.272 136.752 178.516C134.402 172.158 137.651 165.098 144.01 162.748C150.368 160.397 157.428 163.647 159.778 170.005C162.128 176.363 158.879 183.423 152.521 185.773C150.298 186.595 147.99 186.732 145.827 186.292L144.635 189.625L140.797 188.252L142.022 184.829ZM151.321 182.661C146.714 184.364 141.599 182.01 139.896 177.403C138.194 172.797 140.548 167.682 145.155 165.979C149.761 164.276 154.876 166.63 156.579 171.237C158.282 175.844 155.928 180.959 151.321 182.661Z" fill="#E8E8EB"/>
<path d="M142.022 184.829L142.963 185.165L143.242 184.387L142.53 183.967L142.022 184.829ZM145.827 186.292L146.027 185.312L145.178 185.139L144.886 185.955L145.827 186.292ZM144.635 189.625L144.298 190.566L145.24 190.903L145.577 189.961L144.635 189.625ZM140.797 188.252L139.856 187.915L139.519 188.857L140.461 189.193L140.797 188.252ZM135.814 178.863C136.916 181.842 138.975 184.192 141.514 185.69L142.53 183.967C140.373 182.695 138.626 180.701 137.69 178.169L135.814 178.863ZM143.663 161.81C136.787 164.351 133.273 171.986 135.814 178.863L137.69 178.169C135.532 172.329 138.516 165.844 144.356 163.686L143.663 161.81ZM160.716 169.658C158.174 162.782 150.539 159.268 143.663 161.81L144.356 163.686C150.197 161.527 156.681 164.511 158.84 170.352L160.716 169.658ZM152.867 186.711C159.744 184.17 163.258 176.535 160.716 169.658L158.84 170.352C160.999 176.192 158.014 182.677 152.174 184.835L152.867 186.711ZM145.628 187.272C147.968 187.748 150.465 187.599 152.867 186.711L152.174 184.835C150.131 185.59 148.012 185.716 146.027 185.312L145.628 187.272ZM144.886 185.955L143.694 189.288L145.577 189.961L146.769 186.629L144.886 185.955ZM144.972 188.683L141.134 187.31L140.461 189.193L144.298 190.566L144.972 188.683ZM141.739 188.589L142.963 185.165L141.08 184.492L139.856 187.915L141.739 188.589ZM138.958 177.75C140.853 182.875 146.543 185.494 151.668 183.599L150.974 181.723C146.886 183.235 142.346 181.145 140.834 177.057L138.958 177.75ZM144.808 165.041C139.683 166.935 137.064 172.625 138.958 177.75L140.834 177.057C139.323 172.968 141.413 168.428 145.501 166.917L144.808 165.041ZM157.517 170.89C155.623 165.765 149.933 163.146 144.808 165.041L145.501 166.917C149.59 165.405 154.13 167.495 155.641 171.584L157.517 170.89ZM151.668 183.599C156.793 181.705 159.411 176.015 157.517 170.89L155.641 171.584C157.153 175.672 155.063 180.212 150.974 181.723L151.668 183.599Z" fill="black"/>
<path d="M139.917 188.061L145.439 189.724L142.376 201.226L138.804 202.083L135.871 198.908L139.917 188.061Z" fill="#FF6F61" stroke="black" stroke-width="2"/>
<path d="M144.309 198.457C145.433 196.499 147.526 196.113 145.627 195.023C143.728 193.933 141.277 194.637 140.153 196.595C139.03 198.554 139.658 201.024 141.557 202.114C143.456 203.204 143.185 200.415 144.309 198.457Z" fill="#FFCDC9"/>
<path d="M145.28 194.877C144.807 194.477 144.218 194.25 143.58 194.223C142.941 194.195 142.277 194.367 141.661 194.72C141.045 195.073 140.501 195.593 140.089 196.223C139.677 196.853 139.413 197.568 139.326 198.289C139.239 199.01 139.333 199.71 139.596 200.31C139.86 200.911 140.284 201.389 140.821 201.692C141.358 201.995 141.987 202.111 142.639 202.028" stroke="black" stroke-width="2" stroke-linecap="round"/>
<path d="M283.532 203.901L276.994 205.812C277.36 210.66 283.526 217.453 287.949 217.269C291.97 217.101 293.851 215.368 298.221 212.509C300.258 211.008 303.431 206.784 299.829 201.895C296.227 197.006 290.954 198.496 288.767 199.852C284.511 198.503 283.504 201.989 283.532 203.901Z" fill="#FFE6E4"/>
<path d="M288.074 217.285C291.941 216.168 295.423 214.925 298.184 212.89C300.221 211.389 303.432 206.783 299.829 201.895C296.227 197.006 290.954 198.496 288.767 199.852C284.511 198.503 283.504 201.989 283.532 203.901L278.418 205.513" stroke="black" stroke-width="2"/>
<path d="M59.8719 198.664L65.8507 202.086C64.3582 207.086 65.0655 215.174 60.7624 214.02C56.8502 212.971 47.0523 208.436 43.4257 204.492C41.7746 202.477 39.6431 197.362 44.3255 193.023C49.0079 188.684 53.8416 191.39 55.6732 193.285C60.1709 192.797 60.3463 196.668 59.8719 198.664Z" fill="#FFCDC9"/>
<path d="M58.5424 213.435C55.0097 211.507 45.8508 206.449 43.5966 203.864C41.9334 201.957 39.7975 196.765 44.3741 192.773C48.9507 188.781 53.7754 191.379 55.6156 193.177C60.063 192.783 60.2907 196.404 59.8487 198.264L63.7474 200.623" stroke="black" stroke-width="2" stroke-linecap="round"/>
</svg>
