<svg width="15" height="11" viewBox="0 0 15 11" fill="none" xmlns="http://www.w3.org/2000/svg">
<path fill-rule="evenodd" clip-rule="evenodd" d="M13.8599 0.287413C13.9534 0.367573 14.0302 0.465378 14.0859 0.575238C14.1416 0.685099 14.1751 0.804862 14.1845 0.927681C14.1939 1.0505 14.179 1.17397 14.1407 1.29103C14.1024 1.40809 14.0413 1.51645 13.9611 1.60991L6.46111 10.3599C6.37702 10.458 6.27356 10.5377 6.15723 10.5939C6.04089 10.6501 5.91419 10.6817 5.78508 10.6866C5.65597 10.6915 5.52723 10.6697 5.40694 10.6225C5.28666 10.5754 5.17743 10.5038 5.08611 10.4124L0.711107 6.03741C0.540415 5.86052 0.44603 5.62366 0.448282 5.37785C0.450533 5.13204 0.549239 4.89695 0.723142 4.72321C0.897045 4.54947 1.13223 4.45099 1.37804 4.44897C1.62385 4.44695 1.86062 4.54155 2.03736 4.71241L5.69736 8.37116L12.5386 0.389913C12.7005 0.201394 12.9305 0.0848381 13.1783 0.0658531C13.426 0.0468681 13.6712 0.125757 13.8599 0.287413Z" fill="#FF6F61"/>
</svg>
