<svg width="82" height="82" viewBox="0 0 82 82" fill="none" xmlns="http://www.w3.org/2000/svg">
<g clip-path="url(#clip0_2384_5612)">
<rect x="1" y="1" width="80" height="80" rx="40" fill="white"/>
<path d="M56.9478 26.3323L53.9309 33.7012" stroke="black" stroke-width="1.43856"/>
<path d="M65.2268 13.526C67.142 14.3101 68.0589 16.4983 67.2749 18.4135C67.1406 18.7413 66.964 19.0389 66.7559 19.3048C68.18 20.2814 68.782 22.1498 68.1013 23.8127C67.4205 25.4757 65.6813 26.3844 63.9812 26.082C63.9433 26.4178 63.8601 26.7541 63.7258 27.0823C62.9417 28.9974 60.7535 29.9144 58.8384 29.1303C57.8021 28.7059 57.059 27.8705 56.7187 26.8896C55.7884 27.3499 54.6734 27.4251 53.6373 27.0009C51.7221 26.2168 50.8052 24.0287 51.5893 22.1135C51.7236 21.7854 51.8994 21.4869 52.1077 21.2209C50.6843 20.2441 50.0821 18.3768 50.7628 16.7142C51.4435 15.052 53.1819 14.1418 54.8815 14.4433C54.9195 14.108 55.0042 13.7724 55.1383 13.4447C55.9224 11.5295 58.1106 10.6126 60.0257 11.3967C61.0614 11.8208 61.8043 12.6559 62.1448 13.6361C63.0751 13.1759 64.1909 13.1019 65.2268 13.526ZM60.2678 18.2208C59.564 18.569 58.755 18.6958 57.9537 18.5534C57.9157 18.8891 57.8325 19.2255 57.6982 19.5536C57.564 19.8814 57.3873 20.1791 57.1792 20.4449C57.8505 20.9052 58.3377 21.564 58.5954 22.3058C59.2991 21.9576 60.1087 21.83 60.9099 21.9723C60.948 21.637 61.0318 21.301 61.1659 20.9733C61.3003 20.6453 61.476 20.3467 61.6844 20.0807C61.0134 19.6203 60.5253 18.9625 60.2678 18.2208Z" fill="#FF6F61"/>
<path d="M65.2268 13.526L65.4994 12.8604L65.4994 12.8604L65.2268 13.526ZM67.2749 18.4135L67.9405 18.686L67.9405 18.686L67.2749 18.4135ZM66.7559 19.3048L66.1895 18.8614L65.7172 19.4647L66.3491 19.898L66.7559 19.3048ZM68.1013 23.8127L68.767 24.0853L68.767 24.0852L68.1013 23.8127ZM63.9812 26.082L64.1072 25.3738L63.3526 25.2397L63.2665 26.0012L63.9812 26.082ZM63.7258 27.0823L64.3914 27.3548L64.3915 27.3547L63.7258 27.0823ZM58.8384 29.1303L58.5658 29.7959L58.5659 29.7959L58.8384 29.1303ZM56.7187 26.8896L57.3983 26.6539L57.1309 25.8832L56.3998 26.2449L56.7187 26.8896ZM53.6373 27.0009L53.3647 27.6666L53.3648 27.6666L53.6373 27.0009ZM51.5893 22.1135L50.9236 21.8409L50.9236 21.841L51.5893 22.1135ZM52.1077 21.2209L52.6739 21.6645L53.1464 21.0614L52.5147 20.6279L52.1077 21.2209ZM50.7628 16.7142L50.0972 16.4417L50.0971 16.4417L50.7628 16.7142ZM54.8815 14.4433L54.7558 15.1515L55.5097 15.2853L55.5961 14.5245L54.8815 14.4433ZM55.1383 13.4447L54.4727 13.1722L54.4727 13.1722L55.1383 13.4447ZM60.0257 11.3967L60.2983 10.7311L60.2983 10.731L60.0257 11.3967ZM62.1448 13.6361L61.4654 13.8721L61.733 14.6422L62.4637 14.2808L62.1448 13.6361ZM60.2678 18.2208L60.9473 17.9849L60.6799 17.2144L59.9489 17.5761L60.2678 18.2208ZM57.9537 18.5534L58.0795 17.8452L57.3251 17.7111L57.2389 18.4725L57.9537 18.5534ZM57.6982 19.5536L58.3639 19.8261L58.3639 19.8261L57.6982 19.5536ZM57.1792 20.4449L56.6129 20.0016L56.1406 20.6048L56.7724 21.0381L57.1792 20.4449ZM58.5954 22.3058L57.916 22.5418L58.1835 23.3121L58.9144 22.9504L58.5954 22.3058ZM60.9099 21.9723L60.7842 22.6805L61.5382 22.8144L61.6246 22.0535L60.9099 21.9723ZM61.1659 20.9733L60.5003 20.7008L60.5003 20.7008L61.1659 20.9733ZM61.6844 20.0807L62.2506 20.5243L62.723 19.9212L62.0913 19.4877L61.6844 20.0807ZM65.2268 13.526L64.9543 14.1917C66.5018 14.8253 67.2427 16.5934 66.6092 18.1409L67.2749 18.4135L67.9405 18.686C68.8751 16.4032 67.7822 13.795 65.4994 12.8604L65.2268 13.526ZM67.2749 18.4135L66.6092 18.1409C66.5011 18.4049 66.3586 18.6454 66.1895 18.8614L66.7559 19.3048L67.3222 19.7482C67.5694 19.4325 67.7801 19.0777 67.9405 18.686L67.2749 18.4135ZM66.7559 19.3048L66.3491 19.898C67.4998 20.6871 67.9853 22.1974 67.4357 23.5402L68.1013 23.8127L68.767 24.0852C69.5787 22.1021 68.8603 19.8757 67.1627 18.7116L66.7559 19.3048ZM68.1013 23.8127L67.4357 23.5402C66.8861 24.8827 65.4812 25.6182 64.1072 25.3738L63.9812 26.082L63.8553 26.7902C65.8815 27.1505 67.955 26.0686 68.767 24.0853L68.1013 23.8127ZM63.9812 26.082L63.2665 26.0012C63.2357 26.2735 63.1685 26.5451 63.0601 26.8098L63.7258 27.0823L64.3915 27.3547C64.5518 26.9631 64.6508 26.5621 64.696 26.1628L63.9812 26.082ZM63.7258 27.0823L63.0601 26.8097C62.4266 28.3573 60.6584 29.0982 59.1109 28.4646L58.8384 29.1303L58.5659 29.7959C60.8487 30.7305 63.4569 29.6376 64.3914 27.3548L63.7258 27.0823ZM58.8384 29.1303L59.111 28.4646C58.274 28.1219 57.6739 27.4482 57.3983 26.6539L56.7187 26.8896L56.0392 27.1254C56.4442 28.2927 57.3302 29.2899 58.5658 29.7959L58.8384 29.1303ZM56.7187 26.8896L56.3998 26.2449C55.6459 26.6179 54.7462 26.6777 53.9098 26.3352L53.6373 27.0009L53.3648 27.6666C54.6006 28.1725 55.9309 28.0819 57.0377 27.5343L56.7187 26.8896ZM53.6373 27.0009L53.9098 26.3352C52.3623 25.7017 51.6214 23.9336 52.2549 22.386L51.5893 22.1135L50.9236 21.841C49.989 24.1238 51.082 26.732 53.3647 27.6666L53.6373 27.0009ZM51.5893 22.1135L52.2549 22.3861C52.3638 22.1203 52.5058 21.8791 52.6739 21.6645L52.1077 21.2209L51.5415 20.7774C51.2929 21.0946 51.0835 21.4506 50.9236 21.8409L51.5893 22.1135ZM52.1077 21.2209L52.5147 20.6279C51.3643 19.8384 50.8789 18.329 51.4285 16.9867L50.7628 16.7142L50.0971 16.4417C49.2853 18.4247 50.0042 20.6497 51.7007 21.814L52.1077 21.2209ZM50.7628 16.7142L51.4284 16.9868C51.9781 15.6444 53.3827 14.9079 54.7558 15.1515L54.8815 14.4433L55.0071 13.7351C52.9811 13.3757 50.9088 14.4595 50.0972 16.4417L50.7628 16.7142ZM54.8815 14.4433L55.5961 14.5245C55.6268 14.2547 55.695 13.9835 55.804 13.7172L55.1383 13.4447L54.4727 13.1722C54.3134 13.5613 54.2123 13.9613 54.1668 14.3621L54.8815 14.4433ZM55.1383 13.4447L55.804 13.7172C56.4376 12.1697 58.2057 11.4288 59.7532 12.0623L60.0257 11.3967L60.2983 10.731C58.0155 9.79644 55.4073 10.8894 54.4727 13.1722L55.1383 13.4447ZM60.0257 11.3967L59.7532 12.0623C60.5895 12.4048 61.1896 13.0782 61.4654 13.8721L62.1448 13.6361L62.8243 13.4C62.419 12.2336 61.5333 11.2368 60.2983 10.7311L60.0257 11.3967ZM62.1448 13.6361L62.4637 14.2808C63.217 13.9082 64.1175 13.8491 64.9543 14.1917L65.2268 13.526L65.4994 12.8604C64.2642 12.3547 62.9332 12.4437 61.826 12.9913L62.1448 13.6361ZM60.2678 18.2208L59.9489 17.5761C59.3789 17.8581 58.7254 17.96 58.0795 17.8452L57.9537 18.5534L57.8278 19.2616C58.7846 19.4316 59.7492 19.2799 60.5868 18.8655L60.2678 18.2208ZM57.9537 18.5534L57.2389 18.4725C57.2081 18.7449 57.1409 19.0165 57.0325 19.2811L57.6982 19.5536L58.3639 19.8261C58.5242 19.4344 58.6232 19.0334 58.6684 18.6342L57.9537 18.5534ZM57.6982 19.5536L57.0326 19.2811C56.9245 19.545 56.7819 19.7856 56.6129 20.0016L57.1792 20.4449L57.7456 20.8883C57.9927 20.5727 58.2035 20.2178 58.3639 19.8261L57.6982 19.5536ZM57.1792 20.4449L56.7724 21.0381C57.3128 21.4087 57.707 21.9403 57.916 22.5418L58.5954 22.3058L59.2749 22.0697C58.9685 21.1877 58.3882 20.4018 57.586 19.8517L57.1792 20.4449ZM58.5954 22.3058L58.9144 22.9504C59.4846 22.6683 60.1388 22.5659 60.7842 22.6805L60.9099 21.9723L61.0357 21.2641C60.0787 21.0942 59.1135 21.2469 58.2764 21.6611L58.5954 22.3058ZM60.9099 21.9723L61.6246 22.0535C61.6554 21.7823 61.7231 21.5108 61.8316 21.2458L61.1659 20.9733L60.5003 20.7008C60.3404 21.0912 60.2406 21.4917 60.1952 21.8911L60.9099 21.9723ZM61.1659 20.9733L61.8316 21.2459C61.9404 20.9801 62.0825 20.7389 62.2506 20.5243L61.6844 20.0807L61.1181 19.6372C60.8696 19.9544 60.6601 20.3104 60.5003 20.7008L61.1659 20.9733ZM61.6844 20.0807L62.0913 19.4877C61.5504 19.1164 61.1558 18.5855 60.9473 17.9849L60.2678 18.2208L59.5883 18.4567C59.8948 19.3396 60.4763 20.1241 61.2774 20.6738L61.6844 20.0807Z" fill="black"/>
<circle cx="59.4318" cy="20.2635" r="3.74707" transform="rotate(22.2645 59.4318 20.2635)" fill="white"/>
<circle cx="43.9105" cy="66.9992" r="36.6546" fill="#FFCDC9" stroke="black" stroke-width="1.43856"/>
<path d="M22.8208 48.9948C25.8217 50.5118 32.4469 52.1096 34.9402 46.3648C38.0568 39.1838 28.7806 39.8678 29.7697 45.0251C30.5932 49.3192 34.8133 52.3567 39.3184 48.7598C40.1533 48.0932 41.9265 46.3252 41.917 43.7539" stroke="#FF6F61" stroke-width="1.43856" stroke-linecap="round"/>
<ellipse cx="19.7275" cy="59.4002" rx="3.33532" ry="4.44709" transform="rotate(6.3656 19.7275 59.4002)" fill="black"/>
<ellipse cx="37.3998" cy="61.3716" rx="3.33532" ry="4.44709" transform="rotate(6.3656 37.3998 61.3716)" fill="black"/>
<ellipse cx="28.0681" cy="64.8035" rx="2.22355" ry="3.33532" transform="rotate(96.3656 28.0681 64.8035)" fill="black"/>
<path d="M62.2941 93.3294L59.4464 88.0928C62.6812 85.3288 70.7014 84.9652 73.3153 87.8239C75.6917 90.4228 75.7766 92.6591 76.6981 97.1354C77.0231 99.3256 76.3591 103.901 71.1027 104.681C65.8462 105.461 63.518 101.27 63.0109 99.0762C59.5481 97.267 61.0902 94.4912 62.2941 93.3294Z" fill="#FFCDC9"/>
</g>
<rect x="1" y="1" width="80" height="80" rx="40" stroke="#D5D5DE"/>
<defs>
<clipPath id="clip0_2384_5612">
<rect x="1" y="1" width="80" height="80" rx="40" fill="white"/>
</clipPath>
</defs>
</svg>
