<svg width="82" height="82" viewBox="0 0 82 82" fill="none" xmlns="http://www.w3.org/2000/svg">
<g clip-path="url(#clip0_821_4080)">
<rect x="1" y="1" width="80" height="80" rx="40" fill="#F3F3F6"/>
<path d="M56.9478 26.3323L53.9309 33.7012" stroke="black" stroke-width="1.43856"/>
<path fill-rule="evenodd" clip-rule="evenodd" d="M60.2673 18.2228C59.5642 18.5703 58.7552 18.6971 57.9547 18.5551C57.9167 18.8904 57.8323 19.2261 57.6981 19.5538C57.564 19.8815 57.3887 20.1799 57.1808 20.4457C57.8511 20.9058 58.339 21.5636 58.5966 22.3046C59.2997 21.957 60.1088 21.8302 60.9092 21.9722C60.9473 21.6369 61.0316 21.3012 61.1658 20.9735C61.3 20.6458 61.4752 20.3474 61.6832 20.0817C61.0128 19.6215 60.5249 18.9637 60.2673 18.2228ZM63.9826 26.0841C65.6822 26.3855 67.4206 25.4753 68.1012 23.8129C68.7818 22.1504 68.1807 20.2822 66.7575 19.3053C66.9655 19.0396 67.1407 18.7412 67.2749 18.4135C68.059 16.4983 67.1421 14.3101 65.2269 13.5261C64.1912 13.102 63.0756 13.1755 62.1455 13.6353C61.8048 12.6552 61.0611 11.8205 60.0254 11.3965C58.1102 10.6124 55.922 11.5294 55.1379 13.4445C55.0038 13.7722 54.9194 14.1079 54.8813 14.4432C53.1818 14.1418 51.4433 15.052 50.7627 16.7144C50.0821 18.3769 50.6832 20.2451 52.1064 21.222C51.8985 21.4877 51.7232 21.7861 51.589 22.1138C50.805 24.029 51.7219 26.2172 53.6371 27.0012C54.6728 27.4253 55.7883 27.3518 56.7184 26.8921C57.0591 27.8721 57.8029 28.7068 58.8386 29.1308C60.7538 29.9149 62.9419 28.9979 63.726 27.0828C63.8602 26.7551 63.9445 26.4194 63.9826 26.0841Z" fill="#FF6F61"/>
<path d="M57.9547 18.5551L58.0804 17.8469L57.3265 17.7132L57.2401 18.474L57.9547 18.5551ZM60.2673 18.2228L60.9467 17.9866L60.6792 17.2168L59.9486 17.5779L60.2673 18.2228ZM57.1808 20.4457L56.6143 20.0023L56.1424 20.6053L56.7737 21.0387L57.1808 20.4457ZM58.5966 22.3046L57.9172 22.5407L58.1848 23.3105L58.9153 22.9494L58.5966 22.3046ZM60.9092 21.9722L60.7836 22.6804L61.5375 22.8141L61.6239 22.0533L60.9092 21.9722ZM61.6832 20.0817L62.2496 20.525L62.7215 19.922L62.0902 19.4886L61.6832 20.0817ZM63.9826 26.0841L64.1082 25.3759L63.3543 25.2422L63.2679 26.0029L63.9826 26.0841ZM66.7575 19.3053L66.1911 18.862L65.7192 19.465L66.3505 19.8983L66.7575 19.3053ZM62.1455 13.6353L61.4661 13.8714L61.7337 14.6412L62.4642 14.2801L62.1455 13.6353ZM54.8813 14.4432L54.7557 15.1514L55.5096 15.2851L55.596 14.5244L54.8813 14.4432ZM52.1064 21.222L52.6728 21.6653L53.1448 21.0623L52.5135 20.629L52.1064 21.222ZM56.7184 26.8921L57.3978 26.6559L57.1303 25.8861L56.3997 26.2472L56.7184 26.8921ZM57.8291 19.2634C58.7849 19.4329 59.7493 19.2812 60.5861 18.8676L59.9486 17.5779C59.3792 17.8594 58.7255 17.9613 58.0804 17.8469L57.8291 19.2634ZM58.3638 19.8263C58.5233 19.4368 58.624 19.0367 58.6694 18.6363L57.2401 18.474C57.2094 18.7442 57.1413 19.0154 57.0325 19.2813L58.3638 19.8263ZM57.7472 20.889C57.9955 20.5717 58.2043 20.2158 58.3638 19.8263L57.0325 19.2813C56.9236 19.5471 56.7819 19.7882 56.6143 20.0023L57.7472 20.889ZM59.276 22.0684C58.9695 21.1866 58.3882 20.402 57.5878 19.8526L56.7737 21.0387C57.314 21.4095 57.7086 21.9406 57.9172 22.5407L59.276 22.0684ZM58.9153 22.9494C59.4848 22.6679 60.1385 22.566 60.7836 22.6804L61.0348 21.264C60.0791 21.0944 59.1147 21.2461 58.2779 21.6597L58.9153 22.9494ZM60.5001 20.701C60.3407 21.0905 60.24 21.4906 60.1945 21.891L61.6239 22.0533C61.6546 21.7832 61.7226 21.5119 61.8315 21.246L60.5001 20.701ZM61.1167 19.6383C60.8684 19.9556 60.6596 20.3115 60.5001 20.701L61.8315 21.246C61.9403 20.9802 62.082 20.7391 62.2496 20.525L61.1167 19.6383ZM59.5879 18.4589C59.8945 19.3407 60.4757 20.1253 61.2761 20.6747L62.0902 19.4886C61.55 19.1178 61.1553 18.5867 60.9467 17.9866L59.5879 18.4589ZM63.857 26.7923C65.883 27.1517 67.9553 26.0677 68.7669 24.0854L67.4356 23.5404C66.886 24.8828 65.4813 25.6194 64.1082 25.3759L63.857 26.7923ZM68.7669 24.0854C69.5785 22.103 68.8611 19.8769 67.1646 18.7123L66.3505 19.8983C67.5003 20.6876 67.9852 22.1978 67.4356 23.5404L68.7669 24.0854ZM67.3239 19.7486C67.5723 19.4313 67.7811 19.0755 67.9405 18.686L66.6092 18.141C66.5004 18.4068 66.3587 18.6479 66.1911 18.862L67.3239 19.7486ZM67.9405 18.686C68.8751 16.4032 67.7822 13.795 65.4994 12.8604L64.9544 14.1917C66.5019 14.8253 67.2428 16.5934 66.6092 18.141L67.9405 18.686ZM65.4994 12.8604C64.2648 12.355 62.934 12.4431 61.8268 12.9904L62.4642 14.2801C63.2172 13.9078 64.1176 13.8491 64.9544 14.1917L65.4994 12.8604ZM62.8249 13.3991C62.4194 12.2324 61.5325 11.2363 60.2979 10.7309L59.7528 12.0622C60.5896 12.4048 61.1903 13.078 61.4661 13.8714L62.8249 13.3991ZM60.2979 10.7309C58.0151 9.79627 55.4069 10.8892 54.4723 13.172L55.8036 13.717C56.4372 12.1695 58.2053 11.4286 59.7528 12.0622L60.2979 10.7309ZM54.4723 13.172C54.3128 13.5615 54.2121 13.9617 54.1667 14.362L55.596 14.5244C55.6267 14.2542 55.6947 13.9829 55.8036 13.717L54.4723 13.172ZM55.0069 13.735C52.9809 13.3756 50.9086 14.4596 50.0971 16.4419L51.4284 16.9869C51.978 15.6445 53.3826 14.9079 54.7557 15.1514L55.0069 13.735ZM50.0971 16.4419C49.2855 18.4243 50.0028 20.6504 51.6994 21.815L52.5135 20.629C51.3636 19.8397 50.8787 18.3295 51.4284 16.9869L50.0971 16.4419ZM51.54 20.7787C51.2917 21.096 51.0829 21.4518 50.9234 21.8413L52.2547 22.3863C52.3635 22.1205 52.5053 21.8794 52.6728 21.6653L51.54 20.7787ZM50.9234 21.8413C49.9888 24.1241 51.0817 26.7323 53.3645 27.6669L53.9096 26.3356C52.362 25.702 51.6211 23.9339 52.2547 22.3863L50.9234 21.8413ZM53.3645 27.6669C54.5991 28.1723 55.9299 28.0842 57.0372 27.5369L56.3997 26.2472C55.6467 26.6195 54.7464 26.6782 53.9096 26.3356L53.3645 27.6669ZM59.1111 28.4651C58.2743 28.1225 57.6736 27.4493 57.3978 26.6559L56.039 27.1282C56.4446 28.2949 57.3315 29.291 58.5661 29.7964L59.1111 28.4651ZM63.0603 26.8103C62.4268 28.3578 60.6586 29.0987 59.1111 28.4651L58.5661 29.7964C60.8489 30.731 63.4571 29.6381 64.3917 27.3553L63.0603 26.8103ZM63.2679 26.0029C63.2372 26.2731 63.1692 26.5444 63.0603 26.8103L64.3917 27.3553C64.5511 26.9658 64.6518 26.5656 64.6973 26.1653L63.2679 26.0029Z" fill="black"/>
<circle cx="59.4318" cy="20.2635" r="3.74707" transform="rotate(22.2645 59.4318 20.2635)" fill="white"/>
<circle cx="43.9105" cy="66.9992" r="36.6546" fill="#FFCDC9" stroke="black" stroke-width="1.43856"/>
<path d="M22.8208 48.9948C25.8217 50.5118 32.4469 52.1096 34.9402 46.3648C38.0568 39.1838 28.7806 39.8678 29.7697 45.0251C30.5932 49.3192 34.8133 52.3567 39.3184 48.7598C40.1533 48.0932 41.9265 46.3252 41.917 43.7539" stroke="#FF6F61" stroke-width="1.43856" stroke-linecap="round"/>
<ellipse cx="19.7275" cy="59.4002" rx="3.33532" ry="4.44709" transform="rotate(6.3656 19.7275 59.4002)" fill="black"/>
<ellipse cx="37.3998" cy="61.3716" rx="3.33532" ry="4.44709" transform="rotate(6.3656 37.3998 61.3716)" fill="black"/>
<ellipse cx="28.0681" cy="64.8035" rx="2.22355" ry="3.33532" transform="rotate(96.3656 28.0681 64.8035)" fill="black"/>
<path d="M62.2941 93.3294L59.4464 88.0928C62.6812 85.3288 70.7014 84.9652 73.3153 87.8239C75.6917 90.4228 75.7766 92.6591 76.6981 97.1354C77.0231 99.3256 76.3591 103.901 71.1027 104.681C65.8462 105.461 63.518 101.27 63.0109 99.0762C59.5481 97.267 61.0902 94.4912 62.2941 93.3294Z" fill="#FFCDC9"/>
</g>
<rect x="1" y="1" width="80" height="80" rx="40" stroke="#D5D5DE"/>
<defs>
<clipPath id="clip0_821_4080">
<rect x="1" y="1" width="80" height="80" rx="40" fill="white"/>
</clipPath>
</defs>
</svg>
