<svg width="82" height="82" viewBox="0 0 82 82" fill="none" xmlns="http://www.w3.org/2000/svg">
<g clip-path="url(#clip0_2384_5514)">
<rect x="1" y="1" width="80" height="80" rx="40" fill="white"/>
<path d="M56.1222 53.6266L50.7519 56.7002C52.0924 61.1913 51.4572 68.4564 55.3223 67.4199C58.8364 66.4776 67.6371 62.4042 70.8946 58.8609C72.3776 57.051 74.2922 52.4568 70.0863 48.5593C65.8805 44.6618 61.5387 47.0927 59.8936 48.7953C55.8536 48.3562 55.696 51.8332 56.1222 53.6266Z" fill="#FFCDC9"/>
<path d="M57.3164 66.8941C60.4895 65.1624 68.7162 60.6188 70.741 58.2972C72.2349 56.5843 74.1535 51.9204 70.0427 48.335C65.9319 44.7496 61.5982 47.083 59.9452 48.6978C55.9506 48.3436 55.746 51.5967 56.143 53.2675L52.6411 55.3856" stroke="black" stroke-width="1.43856" stroke-linecap="round"/>
<path d="M27.1973 17.5432C46.433 17.5432 62.0273 33.0796 62.0273 52.2444C62.0272 66.7871 53.0466 79.2379 40.3105 84.3987V93.9631C42.2133 94.0901 46.0185 95.4859 46.0186 100.052C45.8915 101.321 44.876 103.858 41.832 103.858H30.416V86.7961C29.3561 86.8929 28.2825 86.9446 27.1973 86.9446C25.6356 86.9446 24.0981 86.8403 22.5908 86.6418L12.7002 94.1155C13.7459 95.7103 14.9262 99.5876 11.2832 102.34C10.1946 103.003 7.55865 103.722 5.72363 101.294L-1.1582 92.1858L11.0234 82.9817C-0.06673 77.1771 -7.63171 65.5918 -7.63184 52.2444C-7.63184 33.0797 7.96166 17.5434 27.1973 17.5432Z" fill="#FFCDC9"/>
<path d="M27.1973 17.5432V16.8239H27.1973L27.1973 17.5432ZM62.0273 52.2444L62.7466 52.2444V52.2444H62.0273ZM40.3105 84.3987L40.0404 83.732L39.5913 83.9141V84.3987H40.3105ZM40.3105 93.9631H39.5913V94.636L40.2627 94.6808L40.3105 93.9631ZM46.0186 100.052L46.7343 100.124L46.7378 100.088V100.052L46.0186 100.052ZM30.416 103.858H29.6967V104.577H30.416V103.858ZM30.416 86.7961H31.1353V86.0082L30.3506 86.0798L30.416 86.7961ZM27.1973 86.9446L27.1973 87.6639H27.1973V86.9446ZM22.5908 86.6418L22.6847 85.9287L22.3924 85.8902L22.1572 86.068L22.5908 86.6418ZM12.7002 94.1155L12.2666 93.5416L11.7298 93.9472L12.0987 94.5099L12.7002 94.1155ZM11.2832 102.34L11.6575 102.954L11.6882 102.936L11.7168 102.914L11.2832 102.34ZM5.72363 101.294L5.14974 101.728L5.14978 101.728L5.72363 101.294ZM-1.1582 92.1858L-1.59181 91.6119L-2.16569 92.0455L-1.7321 92.6194L-1.1582 92.1858ZM11.0234 82.9817L11.4571 83.5556L12.3631 82.871L11.357 82.3444L11.0234 82.9817ZM-7.63184 52.2444H-8.35112V52.2444L-7.63184 52.2444ZM27.1973 17.5432V18.2625C46.0383 18.2625 61.3081 33.4794 61.3081 52.2444H62.0273H62.7466C62.7466 32.6799 46.8277 16.8239 27.1973 16.8239V17.5432ZM62.0273 52.2444L61.3081 52.2444C61.3079 66.4828 52.5156 78.6769 40.0404 83.732L40.3105 84.3987L40.5807 85.0653C53.5776 79.7988 62.7465 67.0913 62.7466 52.2444L62.0273 52.2444ZM40.3105 84.3987H39.5913V93.9631H40.3105H41.0298V84.3987H40.3105ZM40.3105 93.9631L40.2627 94.6808C41.0984 94.7366 42.379 95.0787 43.4333 95.9082C44.458 96.7144 45.2993 98.0006 45.2993 100.052L46.0186 100.052L46.7378 100.052C46.7378 97.5373 45.6764 95.8425 44.3228 94.7776C42.9988 93.7359 41.4254 93.3166 40.3584 93.2455L40.3105 93.9631ZM46.0186 100.052L45.3029 99.9803C45.2509 100.5 45.0081 101.31 44.463 101.974C43.9397 102.612 43.1238 103.138 41.832 103.138V103.858V104.577C43.5842 104.577 44.7981 103.834 45.5753 102.887C46.3307 101.966 46.6592 100.873 46.7343 100.124L46.0186 100.052ZM41.832 103.858V103.138H30.416V103.858V104.577H41.832V103.858ZM30.416 103.858H31.1353V86.7961H30.416H29.6967V103.858H30.416ZM30.416 86.7961L30.3506 86.0798C29.3114 86.1747 28.2596 86.2253 27.1973 86.2253V86.9446V87.6639C28.3053 87.6639 29.4008 87.6111 30.4814 87.5124L30.416 86.7961ZM27.1973 86.9446L27.1973 86.2253C25.6676 86.2253 24.1616 86.1232 22.6847 85.9287L22.5908 86.6418L22.4969 87.355C24.0347 87.5574 25.6035 87.6638 27.1973 87.6639L27.1973 86.9446ZM22.5908 86.6418L22.1572 86.068L12.2666 93.5416L12.7002 94.1155L13.1338 94.6893L23.0245 87.2157L22.5908 86.6418ZM12.7002 94.1155L12.0987 94.5099C12.558 95.2105 13.0571 96.4384 13.0308 97.7796C13.0053 99.0832 12.4863 100.53 10.8496 101.766L11.2832 102.34L11.7168 102.914C13.7232 101.398 14.4354 99.5297 14.4691 97.8077C14.502 96.1235 13.888 94.6153 13.3017 93.7211L12.7002 94.1155ZM11.2832 102.34L10.9089 101.726C10.4634 101.997 9.67072 102.292 8.812 102.258C7.98761 102.225 7.07623 101.891 6.29749 100.861L5.72363 101.294L5.14978 101.728C6.20606 103.126 7.53017 103.646 8.75467 103.695C9.94484 103.743 11.0144 103.346 11.6575 102.954L11.2832 102.34ZM5.72363 101.294L6.29753 100.861L-0.584311 91.7522L-1.1582 92.1858L-1.7321 92.6194L5.14974 101.728L5.72363 101.294ZM-1.1582 92.1858L-0.724591 92.7597L11.4571 83.5556L11.0234 82.9817L10.5898 82.4078L-1.59181 91.6119L-1.1582 92.1858ZM11.0234 82.9817L11.357 82.3444C0.493573 76.6585 -6.91243 65.3127 -6.91256 52.2444L-7.63184 52.2444L-8.35112 52.2444C-8.35099 65.871 -0.627033 77.6957 10.6899 83.619L11.0234 82.9817ZM-7.63184 52.2444H-6.91256C-6.91256 33.4795 8.35641 18.2626 27.1973 18.2625L27.1973 17.5432L27.1973 16.8239C7.56691 16.8241 -8.35112 32.68 -8.35112 52.2444H-7.63184Z" fill="black"/>
<path d="M51.459 32.3733C48.8079 34.4417 42.6165 37.29 39.0598 32.1354C34.614 25.6922 43.8475 24.5704 43.8739 29.8216C43.8958 34.1938 40.3424 37.9898 35.227 35.3314C34.2791 34.8389 32.1976 33.4469 31.71 30.9222" stroke="#FF6F61" stroke-width="1.43856" stroke-linecap="round"/>
<path d="M-5.27921 52.463L0.555769 54.5222C0.0434748 59.181 1.97306 66.2139 -2.01538 65.8884C-5.64155 65.5924 -15.0307 63.1656 -18.8715 60.2649C-20.6554 58.7507 -23.3639 54.575 -19.9263 49.9856C-16.4887 45.3962 -11.781 47.0079 -9.85682 48.3874C-5.96143 47.23 -5.182 50.6222 -5.27921 52.463Z" fill="#FFCDC9"/>
<ellipse cx="3.33532" cy="4.44709" rx="3.33532" ry="4.44709" transform="matrix(-0.993835 0.110872 0.110872 0.993835 55.5112 39.8408)" fill="black"/>
<ellipse cx="3.33532" cy="4.44709" rx="3.33532" ry="4.44709" transform="matrix(-0.993835 0.110872 0.110872 0.993835 37.8389 41.8121)" fill="black"/>
<ellipse cx="2.22355" cy="3.33532" rx="2.22355" ry="3.33532" transform="matrix(0.110872 0.993835 0.993835 -0.110872 40.7871 48.1935)" fill="black"/>
<path d="M55.0869 28.9175C56.5086 28.603 57.916 29.5002 58.2307 30.9218C59.0168 34.4763 56.7734 37.996 53.219 38.7823L50.8424 39.3076C48.0937 39.9155 45.3674 38.7104 43.9084 36.4895C43.0656 39.4938 40.3131 41.7013 37.0385 41.7102L34.3954 41.7177C30.4428 41.7283 27.2301 38.5324 27.2193 34.5798C27.215 32.9987 28.4931 31.7136 30.0742 31.7094L41.305 31.6783C42.0583 31.6762 42.7428 31.9678 43.2553 32.4421C43.6095 31.8074 44.2216 31.3204 44.9871 31.151L55.0869 28.9175Z" fill="black"/>
<path d="M30.3628 36.6715L34.9874 39.3692" stroke="white" stroke-width="1.07892" stroke-linecap="round" stroke-linejoin="round"/>
<path d="M34.6016 36.2863L37.6846 38.2132" stroke="white" stroke-width="1.07892" stroke-linecap="round" stroke-linejoin="round"/>
</g>
<rect x="1" y="1" width="80" height="80" rx="40" stroke="#D5D5DE"/>
<defs>
<clipPath id="clip0_2384_5514">
<rect x="1" y="1" width="80" height="80" rx="40" fill="white"/>
</clipPath>
</defs>
</svg>
