<svg width="82" height="82" viewBox="0 0 82 82" fill="none" xmlns="http://www.w3.org/2000/svg">
<g clip-path="url(#clip0_821_4081)">
<rect x="1" y="1" width="80" height="80" rx="40" fill="#F3F3F6"/>
<path d="M56.1222 53.6266L50.7519 56.7002C52.0924 61.1913 51.4572 68.4564 55.3223 67.4199C58.8364 66.4776 67.6371 62.4042 70.8946 58.8609C72.3776 57.051 74.2922 52.4568 70.0863 48.5593C65.8805 44.6618 61.5387 47.0927 59.8936 48.7953C55.8536 48.3562 55.696 51.8332 56.1222 53.6266Z" fill="#FFCDC9"/>
<path d="M57.3164 66.8941C60.4895 65.1624 68.7162 60.6188 70.741 58.2972C72.2349 56.5843 74.1535 51.9204 70.0427 48.335C65.9319 44.7496 61.5982 47.083 59.9452 48.6978C55.9506 48.3436 55.746 51.5967 56.143 53.2675L52.6411 55.3856" stroke="black" stroke-width="1.43856" stroke-linecap="round"/>
<path fill-rule="evenodd" clip-rule="evenodd" d="M40.3103 84.4016C53.0471 79.241 62.0269 66.7873 62.0269 52.244C62.0269 33.0793 46.4332 17.5432 27.1975 17.5432C7.9618 17.5432 -7.63184 33.0793 -7.63184 52.244C-7.63184 65.5912 -0.0684299 77.1783 11.0212 82.9831L-1.1582 92.185L5.72357 101.294C7.55871 103.722 10.1945 103.003 11.2831 102.339C14.9265 99.5867 13.7458 95.7094 12.7 94.1149L22.5886 86.6438C24.0966 86.8424 25.6351 86.9449 27.1975 86.9449C28.2828 86.9449 29.3565 86.8954 30.4165 86.7987V103.857H41.8324C44.8767 103.857 45.8914 101.32 46.0183 100.052C46.0183 95.4852 42.213 94.09 40.3103 93.9631V84.4016Z" fill="#FFCDC9"/>
<path d="M40.3103 84.4016L40.0402 83.7349L39.591 83.9169V84.4016H40.3103ZM11.0212 82.9831L11.4548 83.557L12.3608 82.8725L11.3548 82.3459L11.0212 82.9831ZM-1.1582 92.185L-1.5918 91.6111L-2.16569 92.0447L-1.7321 92.6186L-1.1582 92.185ZM5.72357 101.294L5.14967 101.727V101.727L5.72357 101.294ZM11.2831 102.339L11.6574 102.954L11.688 102.935L11.7167 102.913L11.2831 102.339ZM12.7 94.1149L12.2664 93.541L11.7295 93.9466L12.0986 94.5093L12.7 94.1149ZM22.5886 86.6438L22.6826 85.9306L22.3903 85.8921L22.155 86.0699L22.5886 86.6438ZM30.4165 86.7987H31.1358V86.0107L30.3511 86.0824L30.4165 86.7987ZM30.4165 103.857H29.6972V104.576H30.4165V103.857ZM46.0183 100.052L46.734 100.123L46.7376 100.087V100.052H46.0183ZM40.3103 93.9631H39.591V94.636L40.2625 94.6808L40.3103 93.9631ZM61.3076 52.244C61.3076 66.4832 52.516 78.6801 40.0402 83.7349L40.5804 85.0682C53.5782 79.8019 62.7462 67.0915 62.7462 52.244H61.3076ZM27.1975 18.2625C46.0385 18.2625 61.3076 33.4791 61.3076 52.244H62.7462C62.7462 32.6796 46.828 16.8239 27.1975 16.8239V18.2625ZM-6.91256 52.244C-6.91256 33.4791 8.35654 18.2625 27.1975 18.2625V16.8239C7.56706 16.8239 -8.35112 32.6796 -8.35112 52.244H-6.91256ZM11.3548 82.3459C0.491967 76.6598 -6.91256 65.3121 -6.91256 52.244H-8.35112C-8.35112 65.8702 -0.628828 77.6968 10.6876 83.6204L11.3548 82.3459ZM-0.7246 92.7589L11.4548 83.557L10.5876 82.4092L-1.5918 91.6111L-0.7246 92.7589ZM6.29747 100.86L-0.584301 91.7514L-1.7321 92.6186L5.14967 101.727L6.29747 100.86ZM10.9087 101.725C10.4632 101.997 9.67054 102.292 8.8119 102.257C7.98763 102.225 7.07628 101.891 6.29747 100.86L5.14967 101.727C6.206 103.125 7.53013 103.646 8.75468 103.695C9.94487 103.742 11.0144 103.345 11.6574 102.954L10.9087 101.725ZM12.0986 94.5093C12.5579 95.2098 13.057 96.4376 13.0308 97.7788C13.0054 99.0823 12.4863 100.529 10.8495 101.766L11.7167 102.913C13.7232 101.397 14.4355 99.5288 14.4691 97.8069C14.502 96.1226 13.8879 94.6145 13.3015 93.7204L12.0986 94.5093ZM22.155 86.0699L12.2664 93.541L13.1336 94.6888L23.0222 87.2177L22.155 86.0699ZM27.1975 86.2256C25.6665 86.2256 24.1595 86.1252 22.6826 85.9306L22.4947 87.3569C24.0338 87.5596 25.6036 87.6642 27.1975 87.6642V86.2256ZM30.3511 86.0824C29.3128 86.1771 28.261 86.2256 27.1975 86.2256V87.6642C28.3047 87.6642 29.4002 87.6137 30.4819 87.515L30.3511 86.0824ZM31.1358 103.857V86.7987H29.6972V103.857H31.1358ZM41.8324 103.138H30.4165V104.576H41.8324V103.138ZM45.3026 99.98C45.2506 100.499 45.0081 101.309 44.4632 101.974C43.9401 102.612 43.1244 103.138 41.8324 103.138V104.576C43.5847 104.576 44.7985 103.834 45.5756 102.886C46.3308 101.965 46.6591 100.872 46.734 100.123L45.3026 99.98ZM40.2625 94.6808C41.0982 94.7365 42.3787 95.0785 43.4331 95.9079C44.4578 96.714 45.299 98.0001 45.299 100.052H46.7376C46.7376 97.5368 45.6761 95.8421 44.3225 94.7772C42.9985 93.7357 41.425 93.3166 40.3582 93.2454L40.2625 94.6808ZM39.591 84.4016V93.9631H41.0296V84.4016H39.591Z" fill="black"/>
<path d="M51.459 32.3733C48.8079 34.4417 42.6165 37.29 39.0598 32.1354C34.614 25.6922 43.8475 24.5704 43.8739 29.8216C43.8958 34.1938 40.3424 37.9898 35.227 35.3314C34.2791 34.8389 32.1976 33.4469 31.71 30.9222" stroke="#FF6F61" stroke-width="1.43856" stroke-linecap="round"/>
<path d="M-5.27921 52.463L0.555769 54.5222C0.0434748 59.181 1.97306 66.2139 -2.01538 65.8884C-5.64155 65.5924 -15.0307 63.1656 -18.8715 60.2649C-20.6554 58.7507 -23.3639 54.575 -19.9263 49.9856C-16.4887 45.3962 -11.781 47.0079 -9.85682 48.3874C-5.96143 47.23 -5.182 50.6222 -5.27921 52.463Z" fill="#FFCDC9"/>
<ellipse cx="3.33532" cy="4.44709" rx="3.33532" ry="4.44709" transform="matrix(-0.993835 0.110872 0.110872 0.993835 55.5112 39.8408)" fill="black"/>
<ellipse cx="3.33532" cy="4.44709" rx="3.33532" ry="4.44709" transform="matrix(-0.993835 0.110872 0.110872 0.993835 37.8389 41.8121)" fill="black"/>
<ellipse cx="2.22355" cy="3.33532" rx="2.22355" ry="3.33532" transform="matrix(0.110872 0.993835 0.993835 -0.110872 40.7871 48.1935)" fill="black"/>
<path fill-rule="evenodd" clip-rule="evenodd" d="M55.0875 28.9174C56.5093 28.6029 57.9169 29.5006 58.2313 30.9225C59.0175 34.4771 56.7733 37.996 53.2187 38.7822L50.8422 39.3078C48.0951 39.9154 45.3693 38.713 43.9097 36.4946C43.0656 39.4969 40.3116 41.7015 37.0384 41.7104L34.3958 41.7176C30.443 41.7283 27.23 38.5326 27.2193 34.5799C27.215 32.9988 28.4933 31.7135 30.0744 31.7093L41.3055 31.6788C42.058 31.6768 42.7435 31.9652 43.2557 32.4386C43.6102 31.8053 44.2231 31.3203 44.9875 31.1512L55.0875 28.9174Z" fill="black"/>
<path d="M30.3628 36.6715L34.9874 39.3692" stroke="white" stroke-width="1.07892" stroke-linecap="round" stroke-linejoin="round"/>
<path d="M34.6016 36.2863L37.6846 38.2132" stroke="white" stroke-width="1.07892" stroke-linecap="round" stroke-linejoin="round"/>
</g>
<rect x="1" y="1" width="80" height="80" rx="40" stroke="#D5D5DE"/>
<defs>
<clipPath id="clip0_821_4081">
<rect x="1" y="1" width="80" height="80" rx="40" fill="white"/>
</clipPath>
</defs>
</svg>
