<svg width="82" height="82" viewBox="0 0 82 82" fill="none" xmlns="http://www.w3.org/2000/svg">
<g clip-path="url(#clip0_2384_5572)">
<rect x="1" y="1" width="80" height="80" rx="40" fill="white"/>
<path d="M82.3812 22.2904C74.1197 16.3237 66.0074 16.9183 63.5634 19.0775C63.5634 19.0775 64.2058 26.3917 64.1872 32.8651C64.1687 39.3384 64.1872 43.4029 64.1872 43.4029C65.3594 40.5272 69.5763 38.6663 80.3724 38.0154C91.1685 37.3646 97.6952 29.1591 99.6091 25.1378C96.4372 27.6321 91.4192 28.8179 82.3812 22.2904Z" fill="#FF998F" stroke="black" stroke-width="1.43856" stroke-linejoin="round"/>
<path d="M48.7037 69.6168L42.6311 69.4209C41.595 73.6322 44.9358 81.1025 48.7358 82.1741C52.1907 83.1484 54.266 82.2018 58.7643 80.9916C60.9077 80.2848 64.7704 77.5854 63.0743 72.4413C61.3782 67.2972 56.495 67.096 54.2653 67.6385C51.0524 68.4202 51.0524 68.5261 48.7037 69.6168Z" fill="#FFE6E4"/>
<path d="M48.8375 82.2223C52.4248 82.3497 55.7217 82.2626 58.6268 81.3047C60.7702 80.598 64.7705 77.5854 63.0744 72.4413C61.3783 67.2972 56.495 67.0961 54.2654 67.6386C51.5114 68.3086 50.5935 68.9851 48.7037 69.6169L43.9215 69.5632" stroke="black" stroke-width="1.43856"/>
<path d="M33.2202 28.257C44.8717 28.257 54.3168 37.7022 54.3169 49.3536C54.3169 56.04 51.206 61.9991 46.353 65.8644C51.206 69.7296 54.3169 75.6888 54.3169 82.3751C54.3168 94.0266 44.8717 103.472 33.2202 103.472C28.342 103.472 23.8521 101.814 20.2788 99.0343L18.1938 108.421C20.5691 109.085 25.0592 111.584 24.019 116.267C23.5698 117.532 21.7092 119.849 17.8628 118.994L3.43799 115.789L6.2915 102.943C4.77846 103.287 3.20402 103.472 1.58643 103.472C-10.065 103.472 -19.5103 94.0266 -19.5103 82.3751C-19.5102 75.6888 -16.3993 69.7296 -11.5464 65.8644C-16.3992 61.9991 -19.5103 56.0399 -19.5103 49.3536C-19.5101 37.7023 -10.0649 28.2571 1.58643 28.257C7.88472 28.257 13.5372 31.0182 17.4028 35.3947C21.2684 31.0178 26.9216 28.257 33.2202 28.257Z" fill="#FFE6E4"/>
<path d="M33.2202 28.257V27.5377V28.257ZM54.3169 49.3536H55.0362V49.3536L54.3169 49.3536ZM46.353 65.8644L45.9049 65.3018L45.1985 65.8644L45.9049 66.427L46.353 65.8644ZM54.3169 82.3751L55.0362 82.3751V82.3751H54.3169ZM33.2202 103.472V104.191V103.472ZM20.2788 99.0343L20.7205 98.4666L19.8232 97.7684L19.5766 98.8783L20.2788 99.0343ZM18.1938 108.421L17.4917 108.265L17.3439 108.93L18.0001 109.114L18.1938 108.421ZM24.019 116.267L24.6968 116.507L24.7116 116.466L24.7212 116.423L24.019 116.267ZM17.8628 118.994L17.7068 119.696L17.7068 119.696L17.8628 118.994ZM3.43799 115.789L2.73582 115.633L2.57986 116.335L3.28197 116.491L3.43799 115.789ZM6.2915 102.943L6.99367 103.098L7.24021 101.989L6.13167 102.241L6.2915 102.943ZM1.58643 103.472L1.58642 104.191H1.58643V103.472ZM-19.5103 82.3751L-20.2295 82.3751V82.3751H-19.5103ZM-11.5464 65.8644L-11.0983 66.427L-10.3919 65.8644L-11.0983 65.3018L-11.5464 65.8644ZM-19.5103 49.3536L-20.2295 49.3536V49.3536H-19.5103ZM1.58643 28.257V27.5377H1.58642L1.58643 28.257ZM17.4028 35.3947L16.8637 35.8708L17.4029 36.4812L17.942 35.8708L17.4028 35.3947ZM33.2202 28.257V28.9762C44.4744 28.9762 53.5975 38.0994 53.5976 49.3536L54.3169 49.3536L55.0362 49.3536C55.036 37.305 45.2689 27.5377 33.2202 27.5377V28.257ZM54.3169 49.3536H53.5976C53.5976 55.8116 50.5939 61.5671 45.9049 65.3018L46.353 65.8644L46.8011 66.427C51.818 62.4312 55.0362 56.2683 55.0362 49.3536H54.3169ZM46.353 65.8644L45.9049 66.427C50.5939 70.1617 53.5976 75.9171 53.5976 82.3751H54.3169H55.0362C55.0362 75.4604 51.818 69.2976 46.8011 65.3018L46.353 65.8644ZM54.3169 82.3751L53.5976 82.3751C53.5975 93.6294 44.4745 102.753 33.2202 102.753V103.472V104.191C45.269 104.191 55.0361 94.4238 55.0362 82.3751L54.3169 82.3751ZM33.2202 103.472V102.753C28.5078 102.753 24.1721 101.152 20.7205 98.4666L20.2788 99.0343L19.8371 99.602C23.532 102.477 28.1763 104.191 33.2202 104.191V103.472ZM20.2788 99.0343L19.5766 98.8783L17.4917 108.265L18.1938 108.421L18.896 108.577L20.981 99.1903L20.2788 99.0343ZM18.1938 108.421L18.0001 109.114C19.1014 109.422 20.6974 110.161 21.8779 111.345C23.0341 112.504 23.7724 114.06 23.3169 116.111L24.019 116.267L24.7212 116.423C25.3058 113.791 24.3192 111.756 22.8966 110.329C21.4982 108.927 19.6616 108.085 18.3876 107.728L18.1938 108.421ZM24.019 116.267L23.3412 116.026C23.1662 116.519 22.6862 117.279 21.8318 117.817C20.9997 118.34 19.7685 118.681 18.0188 118.292L17.8628 118.994L17.7068 119.696C19.8035 120.162 21.4257 119.772 22.5979 119.034C23.7477 118.311 24.4226 117.28 24.6968 116.507L24.019 116.267ZM17.8628 118.994L18.0188 118.292L3.594 115.087L3.43799 115.789L3.28197 116.491L17.7068 119.696L17.8628 118.994ZM3.43799 115.789L4.14016 115.945L6.99367 103.098L6.2915 102.943L5.58934 102.787L2.73582 115.633L3.43799 115.789ZM6.2915 102.943L6.13167 102.241C4.66999 102.574 3.14914 102.753 1.58643 102.753V103.472V104.191C3.25889 104.191 4.88693 104 6.45133 103.644L6.2915 102.943ZM1.58643 103.472L1.58643 102.753C-9.66776 102.752 -18.791 93.6293 -18.791 82.3751H-19.5103H-20.2295C-20.2295 94.4238 -10.4622 104.191 1.58642 104.191L1.58643 103.472ZM-19.5103 82.3751L-18.791 82.3751C-18.7909 75.9172 -15.7873 70.1617 -11.0983 66.427L-11.5464 65.8644L-11.9945 65.3018C-17.0114 69.2976 -20.2295 75.4605 -20.2295 82.3751L-19.5103 82.3751ZM-11.5464 65.8644L-11.0983 65.3018C-15.7872 61.5671 -18.791 55.8115 -18.791 49.3536H-19.5103H-20.2295C-20.2295 56.2682 -17.0112 62.4312 -11.9945 66.427L-11.5464 65.8644ZM-19.5103 49.3536L-18.791 49.3536C-18.7908 38.0996 -9.66763 28.9764 1.58644 28.9762L1.58643 28.257L1.58642 27.5377C-10.4621 27.5378 -20.2294 37.3051 -20.2295 49.3536L-19.5103 49.3536ZM1.58643 28.257V28.9762C7.66974 28.9762 13.1288 31.6423 16.8637 35.8708L17.4028 35.3947L17.9419 34.9185C13.9457 30.3941 8.0997 27.5377 1.58643 27.5377V28.257ZM17.4028 35.3947L17.942 35.8708C21.6769 31.6419 27.1365 28.9762 33.2202 28.9762V28.257V27.5377C26.7067 27.5377 20.86 30.3937 16.8637 34.9185L17.4028 35.3947Z" fill="black"/>
<path d="M37.5205 43.3528C35.0955 45.9303 29.1135 49.8879 24.5857 45.0981C18.926 39.1109 28.3496 36.4602 29.221 41.9178C29.9465 46.4619 26.8606 50.9812 21.1127 49.0384C20.0477 48.6784 17.6589 47.5651 16.7459 45.0175" stroke="#FF6F61" stroke-width="1.43856" stroke-linecap="round"/>
<ellipse cx="20.9087" cy="58.8897" rx="3.19041" ry="4.25388" transform="rotate(-7.24189 20.9087 58.8897)" fill="black"/>
<ellipse cx="37.7823" cy="56.7454" rx="3.19041" ry="4.25388" transform="rotate(-7.24189 37.7823 56.7454)" fill="black"/>
<ellipse cx="29.8795" cy="62.036" rx="2.12694" ry="3.19041" transform="rotate(82.7581 29.8795 62.036)" fill="black"/>
<path d="M54.8433 82.4155C59.28 74.3071 66.3175 56.7132 63.5637 18.6187" stroke="black" stroke-width="1.43856" stroke-linecap="round"/>
<path d="M59.8309 75.48C59.8309 77.5079 61.2889 78.7438 59.3222 78.7438C57.3555 78.7438 55.7612 77.0999 55.7612 75.072C55.7612 73.0442 57.3555 71.4003 59.3222 71.4003C61.2889 71.4003 59.8309 73.4521 59.8309 75.48Z" fill="#FFE6E4"/>
<path d="M58.9866 78.7034C58.4389 78.8035 57.8792 78.7167 57.3693 78.4527C56.8594 78.1887 56.4191 77.7577 56.0971 77.2072C55.775 76.6568 55.5837 76.0084 55.5443 75.3335C55.5048 74.6587 55.6188 73.9836 55.8735 73.3829C56.1283 72.7822 56.514 72.2791 56.988 71.9293C57.462 71.5794 58.006 71.3964 58.5598 71.4003C59.1136 71.4043 59.6557 71.5951 60.1263 71.9518" stroke="black" stroke-width="1.43856" stroke-linecap="round"/>
<path d="M-10.2031 65.717C-7.70837 65.3048 -2.75419 65.6303 0.113281 70.136L0.189453 70.2698C0.507879 70.9037 0.335397 71.6781 -0.22168 72.1174L-0.34668 72.2063C-1.0018 72.6231 -1.85747 72.4683 -2.32812 71.8713L-2.41699 71.7463C-4.37027 68.6771 -7.84063 68.3703 -9.6543 68.6643L-9.99414 68.7307C-10.7506 68.9051 -11.5053 68.4736 -11.75 67.7542L-11.792 67.6067C-11.9782 66.7997 -11.4749 65.9951 -10.668 65.8088L-10.2031 65.717Z" fill="#FF998F" stroke="black" stroke-width="1.43856" stroke-linecap="round" stroke-linejoin="round"/>
<path d="M2.08585 72.2515L-3.87576 71.0794C-5.57707 75.0686 -3.48409 82.9796 0.0934935 84.6498C3.34612 86.1682 5.54695 85.5685 10.1815 85.0992C12.4107 84.7472 16.6581 82.7056 15.8133 77.3554C14.9686 72.0052 10.1816 71.0196 7.89366 71.1955C5.07777 68.3796 2.8485 70.7262 2.08585 72.2515Z" fill="#FFE6E4"/>
<path d="M0.18653 84.7136C3.70641 85.4176 6.97418 85.8631 9.99568 85.386C12.225 85.034 16.6586 82.7056 15.8138 77.3554C14.9691 72.0052 10.1821 71.0196 7.89416 71.1955C5.07827 68.3796 2.849 70.7262 2.08635 72.2515L-2.62469 71.4276" stroke="black" stroke-width="1.43856"/>
<path d="M41.7891 21.5553C41.438 21.4709 41.1121 21.5099 40.8113 21.6721C40.51 21.8346 40.3214 22.0739 40.2455 22.3901C40.1597 22.7475 40.2174 23.0582 40.4188 23.3223C40.621 23.5866 40.888 23.7587 41.2224 23.8391C41.5623 23.9208 41.8831 23.8913 42.1851 23.7506C42.4867 23.6104 42.681 23.3591 42.7679 22.9964C42.8439 22.6803 42.7875 22.3821 42.5989 22.1019C42.4098 21.8216 42.1399 21.6394 41.7891 21.5553ZM47.2568 14.5616C47.0526 13.995 46.6861 13.492 46.1661 13.0678C45.65 12.6458 45.0039 12.3405 44.245 12.1582C43.4285 11.9619 42.661 11.9579 41.9643 12.1469C41.2664 12.3354 40.687 12.6536 40.2399 13.0931C39.7902 13.5337 39.501 14.0158 39.3784 14.526C39.3128 14.799 39.3646 15.0802 39.5323 15.3622C39.7009 15.6458 39.9514 15.8292 40.2764 15.9074C40.8298 16.0403 41.2875 15.8053 41.6333 15.2138C41.9358 14.7269 42.2486 14.3763 42.5627 14.1694C42.8584 13.9745 43.2704 13.9391 43.7873 14.0633C44.2331 14.1704 44.5547 14.3799 44.7719 14.7042C44.9857 15.0246 45.0463 15.3601 44.9576 15.7292C44.9164 15.9082 44.829 16.0735 44.7043 16.2084C44.5716 16.3527 44.4194 16.4778 44.2521 16.58C44.0749 16.6886 43.7874 16.8477 43.3976 17.0517C42.9433 17.2904 42.571 17.5066 42.2926 17.6918C41.9975 17.891 41.739 18.1397 41.5286 18.4269C41.3098 18.724 41.1446 19.1006 41.0374 19.5468C40.9458 19.9281 40.9811 20.2488 41.1429 20.5005C41.3029 20.7502 41.5374 20.9137 41.8407 20.9866C42.4204 21.126 42.8607 20.8966 43.1112 20.33C43.2265 20.0971 43.3087 19.9347 43.36 19.8429C43.4065 19.7599 43.4648 19.6774 43.5334 19.5973C43.5999 19.5199 43.6959 19.4366 43.8187 19.349C43.9471 19.2576 44.1168 19.1539 44.3203 19.0418C45.079 18.6338 45.6167 18.3352 45.9187 18.1547C46.2302 17.9681 46.5212 17.725 46.7846 17.4313C47.054 17.1297 47.2465 16.7459 47.3561 16.2898C47.4946 15.7118 47.4609 15.1308 47.2556 14.5619" fill="black"/>
</g>
<rect x="1" y="1" width="80" height="80" rx="40" stroke="#D5D5DE"/>
<defs>
<clipPath id="clip0_2384_5572">
<rect x="1" y="1" width="80" height="80" rx="40" fill="white"/>
</clipPath>
</defs>
</svg>
