<svg width="82" height="82" viewBox="0 0 82 82" fill="none" xmlns="http://www.w3.org/2000/svg">
<g clip-path="url(#clip0_821_4077)">
<rect x="1" y="1" width="80" height="80" rx="40" fill="#F3F3F6"/>
<mask id="path-2-outside-1_821_4077" maskUnits="userSpaceOnUse" x="10.3286" y="-6.75415" width="17" height="16" fill="black">
<rect fill="white" x="10.3286" y="-6.75415" width="17" height="16"/>
<path fill-rule="evenodd" clip-rule="evenodd" d="M25.2704 -4.49531C25.2704 -4.63827 25.1545 -4.75415 25.0115 -4.75415L12.5874 -4.75415C12.4445 -4.75415 12.3286 -4.63827 12.3286 -4.49531L12.3286 -1.13045C12.3286 -0.987504 12.4445 -0.871619 12.5874 -0.871619L16.4884 -0.871619V6.77005C16.4884 6.94023 16.5919 7.07818 16.7195 7.07818H20.8794C21.007 7.07818 21.1105 6.94023 21.1105 6.77005V-0.871619L25.0115 -0.871618C25.1545 -0.871618 25.2704 -0.987503 25.2704 -1.13045V-4.49531Z"/>
</mask>
<path fill-rule="evenodd" clip-rule="evenodd" d="M25.2704 -4.49531C25.2704 -4.63827 25.1545 -4.75415 25.0115 -4.75415L12.5874 -4.75415C12.4445 -4.75415 12.3286 -4.63827 12.3286 -4.49531L12.3286 -1.13045C12.3286 -0.987504 12.4445 -0.871619 12.5874 -0.871619L16.4884 -0.871619V6.77005C16.4884 6.94023 16.5919 7.07818 16.7195 7.07818H20.8794C21.007 7.07818 21.1105 6.94023 21.1105 6.77005V-0.871619L25.0115 -0.871618C25.1545 -0.871618 25.2704 -0.987503 25.2704 -1.13045V-4.49531Z" fill="#6C0A00"/>
<path d="M25.0115 -4.75415V-6.19271V-4.75415ZM12.5874 -4.75415L12.5874 -3.31559L12.5874 -4.75415ZM12.3286 -4.49531L13.7672 -4.49531L12.3286 -4.49531ZM12.3286 -1.13045L10.8901 -1.13045L12.3286 -1.13045ZM12.5874 -0.871619L12.5874 -2.31018H12.5874V-0.871619ZM16.4884 -0.871619H17.927V-2.31018H16.4884V-0.871619ZM21.1105 -0.871619V-2.31018L19.6719 -2.31018V-0.871619H21.1105ZM25.0115 -0.871618V0.566943V-0.871618ZM25.0115 -3.31559C24.36 -3.31559 23.8318 -3.84377 23.8318 -4.49531H26.7089C26.7089 -5.43276 25.949 -6.19271 25.0115 -6.19271V-3.31559ZM12.5874 -3.31559L25.0115 -3.31559V-6.19271L12.5874 -6.19271L12.5874 -3.31559ZM13.7672 -4.49531C13.7672 -3.84377 13.239 -3.31559 12.5874 -3.31559L12.5874 -6.19271C11.65 -6.19271 10.8901 -5.43276 10.8901 -4.49531L13.7672 -4.49531ZM13.7672 -1.13045L13.7672 -4.49531L10.8901 -4.49531L10.8901 -1.13045L13.7672 -1.13045ZM12.5874 -2.31018C13.239 -2.31018 13.7672 -1.782 13.7672 -1.13045L10.8901 -1.13045C10.8901 -0.19301 11.65 0.566942 12.5874 0.566942V-2.31018ZM16.4884 -2.31018L12.5874 -2.31018L12.5874 0.566942L16.4884 0.566943L16.4884 -2.31018ZM17.927 6.77005V-0.871619H15.0498V6.77005H17.927ZM16.7195 5.63962C17.21 5.63962 17.5444 5.90806 17.7069 6.12479C17.8692 6.34109 17.927 6.57397 17.927 6.77005H15.0498C15.0498 7.1363 15.1594 7.52325 15.4052 7.85107C15.6514 8.17933 16.1014 8.51674 16.7195 8.51674V5.63962ZM20.8794 5.63962H16.7195V8.51674H20.8794V5.63962ZM19.6719 6.77005C19.6719 6.57397 19.7297 6.34109 19.8919 6.12479C20.0545 5.90805 20.3889 5.63962 20.8794 5.63962V8.51674C21.4975 8.51674 21.9474 8.17933 22.1936 7.85107C22.4395 7.52325 22.549 7.1363 22.549 6.77005H19.6719ZM19.6719 -0.871619V6.77005H22.549V-0.871619H19.6719ZM25.0115 -2.31018L21.1105 -2.31018V0.566943L25.0115 0.566943V-2.31018ZM23.8318 -1.13045C23.8318 -1.782 24.36 -2.31018 25.0115 -2.31018V0.566943C25.949 0.566943 26.7089 -0.193007 26.7089 -1.13045H23.8318ZM23.8318 -4.49531V-1.13045H26.7089V-4.49531H23.8318Z" fill="black" mask="url(#path-2-outside-1_821_4077)"/>
<path d="M36.1888 23.6525C36.1888 33.4549 28.2425 41.4012 18.4401 41.4012C8.63777 41.4012 0.691406 33.4549 0.691406 23.6525C0.691406 13.8502 8.63777 5.90381 18.4401 5.90381C28.2425 5.90381 36.1888 13.8502 36.1888 23.6525Z" fill="white" stroke="black" stroke-width="1.43856"/>
<path d="M18.4399 3.33533C29.6606 3.33539 38.7563 12.4321 38.7563 23.6527C38.7563 34.8733 29.6605 43.9691 18.4399 43.9691C7.21931 43.9691 -1.87738 34.8733 -1.87744 23.6527C-1.87744 12.432 7.21927 3.33533 18.4399 3.33533ZM18.4399 8.47205C10.0559 8.47205 3.25928 15.2687 3.25928 23.6527C3.25934 32.0367 10.056 38.8334 18.4399 38.8334C26.8239 38.8333 33.6205 32.0366 33.6206 23.6527C33.6206 15.2687 26.8239 8.47211 18.4399 8.47205Z" fill="#FF998F" stroke="black" stroke-width="1.43856"/>
<mask id="path-6-outside-2_821_4077" maskUnits="userSpaceOnUse" x="10.5947" y="14.105" width="12" height="16" fill="black">
<rect fill="white" x="10.5947" y="14.105" width="12" height="16"/>
<path fill-rule="evenodd" clip-rule="evenodd" d="M20.5669 17.3007C20.5669 16.6403 20.0316 16.105 19.3712 16.105C18.7108 16.105 18.1754 16.6403 18.1754 17.3007V24.8064L14.3839 22.6398C13.8106 22.3122 13.0801 22.5114 12.7525 23.0848C12.4248 23.6581 12.624 24.3886 13.1974 24.7162L18.7657 27.8981C18.8508 27.9482 18.9427 27.988 19.0397 28.016C19.1757 28.0553 19.3155 28.0693 19.4527 28.0598C19.6917 28.0437 19.9115 27.9573 20.0916 27.8212C20.1442 27.7815 20.1939 27.7372 20.24 27.6883C20.4427 27.4741 20.5669 27.1849 20.5669 26.8668L20.5669 17.3007Z"/>
</mask>
<path fill-rule="evenodd" clip-rule="evenodd" d="M20.5669 17.3007C20.5669 16.6403 20.0316 16.105 19.3712 16.105C18.7108 16.105 18.1754 16.6403 18.1754 17.3007V24.8064L14.3839 22.6398C13.8106 22.3122 13.0801 22.5114 12.7525 23.0848C12.4248 23.6581 12.624 24.3886 13.1974 24.7162L18.7657 27.8981C18.8508 27.9482 18.9427 27.988 19.0397 28.016C19.1757 28.0553 19.3155 28.0693 19.4527 28.0598C19.6917 28.0437 19.9115 27.9573 20.0916 27.8212C20.1442 27.7815 20.1939 27.7372 20.24 27.6883C20.4427 27.4741 20.5669 27.1849 20.5669 26.8668L20.5669 17.3007Z" fill="#FF6F61"/>
<path d="M19.3712 16.105V17.5435V16.105ZM20.5669 17.3007H19.1284H20.5669ZM18.1754 24.8064L17.4617 26.0554L19.614 27.2853V24.8064H18.1754ZM14.3839 22.6398L15.0977 21.3908L14.3839 22.6398ZM12.7525 23.0848L11.5035 22.371L12.7525 23.0848ZM13.1974 24.7162L12.4837 25.9652H12.4837L13.1974 24.7162ZM18.7657 27.8981L19.4952 26.6582L19.4873 26.6536L19.4794 26.6491L18.7657 27.8981ZM19.0397 28.016L19.4391 26.634L19.4377 26.6336L19.0397 28.016ZM19.4527 28.0598L19.3561 26.6245L19.3529 26.6247L19.4527 28.0598ZM20.0916 27.8212L19.2253 26.6727L19.2241 26.6737L20.0916 27.8212ZM20.24 27.6883L19.1949 26.6998L19.1938 26.7009L20.24 27.6883ZM20.5669 26.8668H22.0055H20.5669ZM19.3712 17.5435C19.2371 17.5435 19.1284 17.4348 19.1284 17.3007H22.0055C22.0055 15.8458 20.8261 14.6664 19.3712 14.6664V17.5435ZM19.614 17.3007C19.614 17.4348 19.5053 17.5435 19.3712 17.5435V14.6664C17.9163 14.6664 16.7369 15.8458 16.7369 17.3007H19.614ZM19.614 24.8064V17.3007H16.7369V24.8064H19.614ZM13.6702 23.8888L17.4617 26.0554L18.8892 23.5574L15.0977 21.3908L13.6702 23.8888ZM14.0015 23.7985C13.935 23.9149 13.7866 23.9554 13.6702 23.8888L15.0977 21.3908C13.8345 20.669 12.2253 21.1078 11.5035 22.371L14.0015 23.7985ZM13.9112 23.4672C14.0276 23.5337 14.068 23.6821 14.0015 23.7985L11.5035 22.371C10.7816 23.6342 11.2205 25.2434 12.4837 25.9652L13.9112 23.4672ZM19.4794 26.6491L13.9112 23.4672L12.4837 25.9652L18.0519 29.1471L19.4794 26.6491ZM19.4377 26.6336C19.4585 26.6395 19.4778 26.648 19.4952 26.6582L18.0361 29.1379C18.2239 29.2484 18.427 29.3365 18.6417 29.3984L19.4377 26.6336ZM19.3529 26.6247C19.3806 26.6228 19.41 26.6255 19.4391 26.634L18.6403 29.398C18.9415 29.485 19.2504 29.5159 19.5525 29.4949L19.3529 26.6247ZM19.2241 26.6737C19.2603 26.6463 19.3068 26.6278 19.3561 26.6245L19.5493 29.4951C20.0767 29.4596 20.5627 29.2684 20.959 28.9688L19.2241 26.6737ZM19.1938 26.7009C19.2036 26.6906 19.2142 26.6811 19.2253 26.6727L20.9578 28.9697C21.0743 28.8819 21.1843 28.7837 21.2862 28.6757L19.1938 26.7009ZM19.1284 26.8668C19.1284 26.8028 19.155 26.742 19.1949 26.6998L21.2851 28.6769C21.7304 28.2062 22.0055 27.567 22.0055 26.8668H19.1284ZM19.1284 17.3007L19.1284 26.8668H22.0055V17.3007L19.1284 17.3007Z" fill="black" mask="url(#path-6-outside-2_821_4077)"/>
<path fill-rule="evenodd" clip-rule="evenodd" d="M83.7658 59.0126C88.6523 55.1201 91.7843 49.1186 91.7843 42.3856C91.7843 30.652 82.2723 21.1399 70.5386 21.1399C64.1963 21.1399 58.503 23.919 54.6102 28.3259C50.7174 23.919 45.0241 21.1399 38.6817 21.1399C26.9481 21.1399 17.436 30.6519 17.436 42.3856C17.436 49.1187 20.5682 55.1203 25.4549 59.0129C20.5683 62.9054 17.4363 68.9069 17.4363 75.6399C17.4363 87.3735 26.9484 96.8856 38.6821 96.8856C39.5741 96.8856 40.4533 96.8306 41.3165 96.7238V102.064C39.3349 102.197 35.3718 103.65 35.3718 108.405C35.5039 109.726 36.5608 112.368 39.7312 112.368H51.6205L51.6205 92.4928C52.7047 91.6592 53.7061 90.7234 54.6104 89.6997C55.5122 90.7204 56.5105 91.6539 57.5911 92.4857L57.5911 112.368H69.4804C72.6509 112.368 73.7077 109.726 73.8398 108.405C73.8398 103.65 69.8767 102.196 67.8952 102.064V96.7225C68.7612 96.83 69.6434 96.8853 70.5386 96.8853C82.2723 96.8853 91.7843 87.3733 91.7843 75.6396C91.7843 68.9066 88.6523 62.9052 83.7658 59.0126Z" fill="#FFE6E4"/>
<path d="M83.7658 59.0126L83.3176 58.45L82.6113 59.0126L83.3176 59.5752L83.7658 59.0126ZM54.6102 28.3259L54.0711 28.8021L54.6102 29.4123L55.1493 28.8021L54.6102 28.3259ZM25.4549 59.0129L25.9031 59.5755L26.6093 59.0128L25.903 58.4502L25.4549 59.0129ZM41.3165 96.7238H42.0357V95.9101L41.2282 96.01L41.3165 96.7238ZM41.3165 102.064L41.3643 102.782L42.0357 102.737V102.064H41.3165ZM35.3718 108.405H34.6525V108.441L34.6561 108.477L35.3718 108.405ZM51.6205 112.368V113.088H52.3398V112.368H51.6205ZM51.6205 92.4928L51.1821 91.9226L50.9012 92.1385V92.4928H51.6205ZM54.6104 89.6997L55.1495 89.2235L54.6104 88.6132L54.0713 89.2235L54.6104 89.6997ZM57.5911 92.4857H58.3104V92.1316L58.0299 91.9157L57.5911 92.4857ZM57.5911 112.368H56.8719V113.088H57.5911V112.368ZM73.8398 108.405L74.5555 108.477L74.5591 108.441V108.405H73.8398ZM67.8952 102.064H67.1759V102.737L67.8473 102.782L67.8952 102.064ZM67.8952 96.7225L67.9838 96.0087L67.1759 95.9084V96.7225H67.8952ZM91.065 42.3856C91.065 48.8904 88.0402 54.6881 83.3176 58.45L84.2139 59.5752C89.2644 55.5521 92.5036 49.3469 92.5036 42.3856H91.065ZM70.5386 21.8592C81.875 21.8592 91.065 31.0492 91.065 42.3856H92.5036C92.5036 30.2547 82.6695 20.4207 70.5386 20.4207V21.8592ZM55.1493 28.8021C58.9114 24.5432 64.4111 21.8592 70.5386 21.8592V20.4207C63.9814 20.4207 58.0947 23.2948 54.0711 27.8497L55.1493 28.8021ZM38.6817 21.8592C44.8093 21.8592 50.309 24.5432 54.0711 28.8021L55.1493 27.8497C51.1257 23.2948 45.2389 20.4206 38.6817 20.4206V21.8592ZM18.1553 42.3856C18.1553 31.0492 27.3453 21.8592 38.6817 21.8592V20.4206C26.5508 20.4206 16.7168 30.2547 16.7168 42.3856H18.1553ZM25.903 58.4502C21.1803 54.6883 18.1553 48.8905 18.1553 42.3856H16.7168C16.7168 49.347 19.9561 55.5523 25.0068 59.5755L25.903 58.4502ZM18.1556 75.6399C18.1556 69.1351 21.1804 63.3374 25.9031 59.5755L25.0067 58.4502C19.9562 62.4734 16.7171 68.6786 16.7171 75.6399H18.1556ZM38.6821 96.1663C27.3456 96.1663 18.1556 86.9763 18.1556 75.6399H16.7171C16.7171 87.7708 26.5511 97.6049 38.6821 97.6049V96.1663ZM41.2282 96.01C40.3942 96.1131 39.5445 96.1663 38.6821 96.1663V97.6049C39.6037 97.6049 40.5124 97.548 41.4047 97.4377L41.2282 96.01ZM40.5972 96.7238V102.064H42.0357V96.7238H40.5972ZM41.2686 101.347C40.1623 101.42 38.5296 101.855 37.1563 102.936C35.7534 104.039 34.6525 105.796 34.6525 108.405H36.0911C36.0911 106.259 36.9718 104.911 38.0458 104.066C39.1494 103.198 40.4891 102.84 41.3643 102.782L41.2686 101.347ZM34.6561 108.477C34.7337 109.252 35.0737 110.384 35.8559 111.338C36.66 112.319 37.9158 113.088 39.7312 113.088V111.649C38.3762 111.649 37.5184 111.097 36.9683 110.426C36.3965 109.729 36.1421 108.879 36.0875 108.334L34.6561 108.477ZM39.7312 113.088H51.6205V111.649H39.7312V113.088ZM52.3398 112.368L52.3398 92.4928H50.9012L50.9012 112.368H52.3398ZM54.0713 89.2235C53.1975 90.2127 52.2297 91.1171 51.1821 91.9226L52.0589 93.063C53.1796 92.2014 54.2148 91.234 55.1495 90.1759L54.0713 89.2235ZM58.0299 91.9157C56.9856 91.1119 56.0209 90.2099 55.1495 89.2235L54.0714 90.1759C55.0034 91.231 56.0354 92.1958 57.1524 93.0556L58.0299 91.9157ZM58.3104 112.368L58.3104 92.4857H56.8719L56.8719 112.368H58.3104ZM69.4804 111.649H57.5911V113.088H69.4804V111.649ZM73.1241 108.334C73.0695 108.879 72.8151 109.729 72.2433 110.426C71.6933 111.097 70.8355 111.649 69.4804 111.649V113.088C71.2958 113.088 72.5517 112.319 73.3557 111.338C74.1379 110.384 74.478 109.252 74.5555 108.477L73.1241 108.334ZM67.8473 102.782C68.7225 102.84 70.0622 103.198 71.1658 104.066C72.2398 104.911 73.1205 106.259 73.1205 108.405H74.5591C74.5591 105.796 73.4582 104.039 72.0553 102.936C70.682 101.855 69.0493 101.42 67.943 101.347L67.8473 102.782ZM67.1759 96.7225V102.064H68.6144V96.7225H67.1759ZM70.5386 96.1661C69.6731 96.1661 68.8205 96.1125 67.9838 96.0087L67.8066 97.4363C68.702 97.5474 69.6138 97.6046 70.5386 97.6046V96.1661ZM91.065 75.6396C91.065 86.9761 81.875 96.1661 70.5386 96.1661V97.6046C82.6695 97.6046 92.5036 87.7706 92.5036 75.6396H91.065ZM83.3176 59.5752C88.0402 63.3372 91.065 69.1349 91.065 75.6396H92.5036C92.5036 68.6784 89.2644 62.4732 84.2139 58.45L83.3176 59.5752Z" fill="black"/>
<path d="M57.4092 38.2356C55.1896 40.5947 49.7144 44.217 45.5702 39.833C40.39 34.3531 49.0152 31.9269 49.8128 36.9222C50.4769 41.0813 47.6524 45.2177 42.3915 43.4395C41.4167 43.11 39.2303 42.091 38.3947 39.7593" stroke="#FF6F61" stroke-width="1.43856" stroke-linecap="round"/>
<ellipse cx="39.3408" cy="53.5323" rx="3.21291" ry="4.28387" fill="black"/>
<ellipse cx="56.4697" cy="53.5324" rx="3.21291" ry="4.28387" fill="black"/>
<ellipse cx="47.9033" cy="57.8145" rx="2.14194" ry="3.21291" transform="rotate(90 47.9033 57.8145)" fill="black"/>
<path d="M59.238 64.5873C59.238 64.0767 58.8241 63.6628 58.3136 63.6628H16.2092C15.6987 63.6628 15.2848 64.0767 15.2848 64.5873V98.8254H44.0288C44.5393 98.8254 44.949 99.242 45.0487 99.7427C45.4311 101.662 47.0537 104.32 51.5462 104.32C56.7373 104.32 58.8061 100.771 59.2194 98.9135C59.2326 98.854 59.238 98.7947 59.238 98.7338V64.5873Z" fill="white"/>
<path d="M51.5462 104.32C47.0537 104.32 45.4311 101.662 45.0487 99.7427C44.949 99.242 44.5393 98.8254 44.0288 98.8254H15.2848H1.92441C1.41387 98.8254 0.99672 99.2402 1.06416 99.7463C1.31994 101.666 2.4022 104.32 5.39532 104.32H51.5462Z" fill="white"/>
<path d="M51.5462 104.32C56.7373 104.32 58.8061 100.771 59.2194 98.9135C59.2326 98.854 59.238 98.7947 59.238 98.7338V64.5873C59.238 64.0767 58.8241 63.6628 58.3136 63.6628H16.2092C15.6987 63.6628 15.2848 64.0767 15.2848 64.5873V98.8254M51.5462 104.32C47.0537 104.32 45.4311 101.662 45.0487 99.7427C44.949 99.242 44.5393 98.8254 44.0288 98.8254H15.2848M51.5462 104.32H5.39532C2.4022 104.32 1.31994 101.666 1.06416 99.7463C0.99672 99.2402 1.41387 98.8254 1.92441 98.8254H15.2848" stroke="black" stroke-width="1.43856" stroke-linecap="round"/>
<circle cx="16.253" cy="74.2937" r="7.8575" fill="#FFE6E4" stroke="black" stroke-width="1.43856"/>
<path d="M62.4783 68.6544L67.7406 65.5325C70.6998 68.7447 71.3803 76.9574 68.5483 79.7482C65.9735 82.2856 63.6829 82.4584 59.1267 83.5753C56.8926 83.9927 52.1738 83.487 51.172 78.1252C50.1701 72.7633 54.3806 70.2143 56.611 69.6101C58.334 65.9887 61.2405 67.464 62.4783 68.6544Z" fill="#FFE6E4"/>
<path d="M68.4819 79.8401C65.379 81.6946 62.4281 83.2189 59.4 83.7846C57.1659 84.2021 52.1737 83.4871 51.1718 78.1252C50.17 72.7633 54.3804 70.2143 56.6109 69.6101C58.3338 65.9887 61.2403 67.4641 62.4782 68.6544L66.6711 66.2846" stroke="black" stroke-width="1.43856"/>
</g>
<rect x="1" y="1" width="80" height="80" rx="40" stroke="#D5D5DE"/>
<defs>
<clipPath id="clip0_821_4077">
<rect x="1" y="1" width="80" height="80" rx="40" fill="white"/>
</clipPath>
</defs>
</svg>
