<svg width="82" height="82" viewBox="0 0 82 82" fill="none" xmlns="http://www.w3.org/2000/svg">
<g clip-path="url(#clip0_2384_5641)">
<rect x="1" y="1" width="80" height="80" rx="40" fill="white"/>
<mask id="path-2-outside-1_2384_5641" maskUnits="userSpaceOnUse" x="10.3286" y="-6.75415" width="17" height="16" fill="black">
<rect fill="white" x="10.3286" y="-6.75415" width="17" height="16"/>
<path fill-rule="evenodd" clip-rule="evenodd" d="M25.2704 -4.49531C25.2704 -4.63827 25.1545 -4.75415 25.0115 -4.75415L12.5874 -4.75415C12.4445 -4.75415 12.3286 -4.63827 12.3286 -4.49531L12.3286 -1.13045C12.3286 -0.987504 12.4445 -0.871619 12.5874 -0.871619L16.4884 -0.871619V6.77005C16.4884 6.94023 16.5919 7.07818 16.7195 7.07818H20.8794C21.007 7.07818 21.1105 6.94023 21.1105 6.77005V-0.871619L25.0115 -0.871618C25.1545 -0.871618 25.2704 -0.987503 25.2704 -1.13045V-4.49531Z"/>
</mask>
<path fill-rule="evenodd" clip-rule="evenodd" d="M25.2704 -4.49531C25.2704 -4.63827 25.1545 -4.75415 25.0115 -4.75415L12.5874 -4.75415C12.4445 -4.75415 12.3286 -4.63827 12.3286 -4.49531L12.3286 -1.13045C12.3286 -0.987504 12.4445 -0.871619 12.5874 -0.871619L16.4884 -0.871619V6.77005C16.4884 6.94023 16.5919 7.07818 16.7195 7.07818H20.8794C21.007 7.07818 21.1105 6.94023 21.1105 6.77005V-0.871619L25.0115 -0.871618C25.1545 -0.871618 25.2704 -0.987503 25.2704 -1.13045V-4.49531Z" fill="#6C0A00"/>
<path d="M25.0115 -4.75415V-6.19271V-4.75415ZM12.5874 -4.75415L12.5874 -3.31559L12.5874 -4.75415ZM12.3286 -4.49531L13.7672 -4.49531L12.3286 -4.49531ZM12.3286 -1.13045L10.8901 -1.13045L12.3286 -1.13045ZM12.5874 -0.871619L12.5874 -2.31018H12.5874V-0.871619ZM16.4884 -0.871619H17.927V-2.31018H16.4884V-0.871619ZM21.1105 -0.871619V-2.31018L19.6719 -2.31018V-0.871619H21.1105ZM25.0115 -0.871618V0.566943V-0.871618ZM25.0115 -4.75415V-3.31559C24.36 -3.31559 23.8318 -3.84377 23.8318 -4.49531H25.2704H26.7089C26.7089 -5.43276 25.949 -6.19271 25.0115 -6.19271V-4.75415ZM12.5874 -4.75415L12.5874 -3.31559L25.0115 -3.31559V-4.75415V-6.19271L12.5874 -6.19271L12.5874 -4.75415ZM12.3286 -4.49531L13.7672 -4.49531C13.7672 -3.84377 13.239 -3.31559 12.5874 -3.31559L12.5874 -4.75415L12.5874 -6.19271C11.65 -6.19271 10.8901 -5.43276 10.8901 -4.49531L12.3286 -4.49531ZM12.3286 -1.13045H13.7672L13.7672 -4.49531L12.3286 -4.49531L10.8901 -4.49531L10.8901 -1.13045L12.3286 -1.13045ZM12.5874 -0.871619V-2.31018C13.239 -2.31018 13.7672 -1.782 13.7672 -1.13045H12.3286L10.8901 -1.13045C10.8901 -0.19301 11.65 0.566942 12.5874 0.566942V-0.871619ZM16.4884 -0.871619V-2.31018L12.5874 -2.31018L12.5874 -0.871619L12.5874 0.566942L16.4884 0.566943L16.4884 -0.871619ZM16.4884 6.77005H17.927V-0.871619H16.4884H15.0498V6.77005H16.4884ZM16.7195 7.07818V5.63962C17.21 5.63962 17.5444 5.90806 17.7069 6.12479C17.8692 6.34109 17.927 6.57397 17.927 6.77005H16.4884H15.0498C15.0498 7.1363 15.1594 7.52325 15.4052 7.85107C15.6514 8.17933 16.1014 8.51674 16.7195 8.51674V7.07818ZM20.8794 7.07818V5.63962H16.7195V7.07818V8.51674H20.8794V7.07818ZM21.1105 6.77005H19.6719C19.6719 6.57397 19.7297 6.34109 19.8919 6.12479C20.0545 5.90805 20.3889 5.63962 20.8794 5.63962V7.07818V8.51674C21.4975 8.51674 21.9474 8.17933 22.1936 7.85107C22.4395 7.52325 22.549 7.1363 22.549 6.77005H21.1105ZM21.1105 -0.871619H19.6719V6.77005H21.1105H22.549V-0.871619H21.1105ZM25.0115 -0.871618V-2.31018L21.1105 -2.31018V-0.871619V0.566943L25.0115 0.566943V-0.871618ZM25.2704 -1.13045H23.8318C23.8318 -1.782 24.36 -2.31018 25.0115 -2.31018V-0.871618V0.566943C25.949 0.566943 26.7089 -0.193007 26.7089 -1.13045H25.2704ZM25.2704 -4.49531H23.8318V-1.13045H25.2704H26.7089V-4.49531H25.2704Z" fill="black" mask="url(#path-2-outside-1_2384_5641)"/>
<path d="M36.1888 23.6525C36.1888 33.4549 28.2425 41.4012 18.4401 41.4012C8.63777 41.4012 0.691406 33.4549 0.691406 23.6525C0.691406 13.8502 8.63777 5.90381 18.4401 5.90381C28.2425 5.90381 36.1888 13.8502 36.1888 23.6525Z" fill="white" stroke="black" stroke-width="1.43856"/>
<path d="M18.4399 3.33533C29.6606 3.33539 38.7563 12.4321 38.7563 23.6527C38.7563 34.8733 29.6605 43.9691 18.4399 43.9691C7.21931 43.9691 -1.87738 34.8733 -1.87744 23.6527C-1.87744 12.432 7.21927 3.33533 18.4399 3.33533ZM18.4399 8.47205C10.0559 8.47205 3.25928 15.2687 3.25928 23.6527C3.25934 32.0367 10.056 38.8334 18.4399 38.8334C26.8239 38.8333 33.6205 32.0366 33.6206 23.6527C33.6206 15.2687 26.8239 8.47211 18.4399 8.47205Z" fill="#FF998F" stroke="black" stroke-width="1.43856"/>
<mask id="path-6-outside-2_2384_5641" maskUnits="userSpaceOnUse" x="10.5947" y="14.105" width="12" height="16" fill="black">
<rect fill="white" x="10.5947" y="14.105" width="12" height="16"/>
<path fill-rule="evenodd" clip-rule="evenodd" d="M20.5669 17.3007C20.5669 16.6403 20.0316 16.105 19.3712 16.105C18.7108 16.105 18.1754 16.6403 18.1754 17.3007V24.8064L14.3839 22.6398C13.8106 22.3122 13.0801 22.5114 12.7525 23.0848C12.4248 23.6581 12.624 24.3886 13.1974 24.7162L18.7657 27.8981C18.8508 27.9482 18.9427 27.988 19.0397 28.016C19.1757 28.0553 19.3155 28.0693 19.4527 28.0598C19.6917 28.0437 19.9115 27.9573 20.0916 27.8212C20.1442 27.7815 20.1939 27.7372 20.24 27.6883C20.4427 27.4741 20.5669 27.1849 20.5669 26.8668L20.5669 17.3007Z"/>
</mask>
<path fill-rule="evenodd" clip-rule="evenodd" d="M20.5669 17.3007C20.5669 16.6403 20.0316 16.105 19.3712 16.105C18.7108 16.105 18.1754 16.6403 18.1754 17.3007V24.8064L14.3839 22.6398C13.8106 22.3122 13.0801 22.5114 12.7525 23.0848C12.4248 23.6581 12.624 24.3886 13.1974 24.7162L18.7657 27.8981C18.8508 27.9482 18.9427 27.988 19.0397 28.016C19.1757 28.0553 19.3155 28.0693 19.4527 28.0598C19.6917 28.0437 19.9115 27.9573 20.0916 27.8212C20.1442 27.7815 20.1939 27.7372 20.24 27.6883C20.4427 27.4741 20.5669 27.1849 20.5669 26.8668L20.5669 17.3007Z" fill="#FF6F61"/>
<path d="M19.3712 16.105V17.5435V16.105ZM20.5669 17.3007H19.1284H20.5669ZM18.1754 24.8064L17.4617 26.0554L19.614 27.2853V24.8064H18.1754ZM14.3839 22.6398L15.0977 21.3908L14.3839 22.6398ZM12.7525 23.0848L11.5035 22.371L12.7525 23.0848ZM13.1974 24.7162L12.4837 25.9652H12.4837L13.1974 24.7162ZM18.7657 27.8981L19.4952 26.6582L19.4873 26.6536L19.4794 26.6491L18.7657 27.8981ZM19.0397 28.016L19.4391 26.634L19.4377 26.6336L19.0397 28.016ZM19.4527 28.0598L19.3561 26.6245L19.3529 26.6247L19.4527 28.0598ZM20.0916 27.8212L19.2253 26.6727L19.2241 26.6737L20.0916 27.8212ZM20.24 27.6883L19.1949 26.6998L19.1938 26.7009L20.24 27.6883ZM20.5669 26.8668H22.0055H20.5669ZM19.3712 16.105V17.5435C19.2371 17.5435 19.1284 17.4348 19.1284 17.3007H20.5669H22.0055C22.0055 15.8458 20.8261 14.6664 19.3712 14.6664V16.105ZM18.1754 17.3007H19.614C19.614 17.4348 19.5053 17.5435 19.3712 17.5435V16.105V14.6664C17.9163 14.6664 16.7369 15.8458 16.7369 17.3007H18.1754ZM18.1754 24.8064H19.614V17.3007H18.1754H16.7369V24.8064H18.1754ZM14.3839 22.6398L13.6702 23.8888L17.4617 26.0554L18.1754 24.8064L18.8892 23.5574L15.0977 21.3908L14.3839 22.6398ZM12.7525 23.0848L14.0015 23.7985C13.935 23.9149 13.7866 23.9554 13.6702 23.8888L14.3839 22.6398L15.0977 21.3908C13.8345 20.669 12.2253 21.1078 11.5035 22.371L12.7525 23.0848ZM13.1974 24.7162L13.9112 23.4672C14.0276 23.5337 14.068 23.6821 14.0015 23.7985L12.7525 23.0848L11.5035 22.371C10.7816 23.6342 11.2205 25.2434 12.4837 25.9652L13.1974 24.7162ZM18.7657 27.8981L19.4794 26.6491L13.9112 23.4672L13.1974 24.7162L12.4837 25.9652L18.0519 29.1471L18.7657 27.8981ZM19.0397 28.016L19.4377 26.6336C19.4585 26.6395 19.4778 26.648 19.4952 26.6582L18.7657 27.8981L18.0361 29.1379C18.2239 29.2484 18.427 29.3365 18.6417 29.3984L19.0397 28.016ZM19.4527 28.0598L19.3529 26.6247C19.3806 26.6228 19.41 26.6255 19.4391 26.634L19.0397 28.016L18.6403 29.398C18.9415 29.485 19.2504 29.5159 19.5525 29.4949L19.4527 28.0598ZM20.0916 27.8212L19.2241 26.6737C19.2603 26.6463 19.3068 26.6278 19.3561 26.6245L19.4527 28.0598L19.5493 29.4951C20.0767 29.4596 20.5627 29.2684 20.959 28.9688L20.0916 27.8212ZM20.24 27.6883L19.1938 26.7009C19.2036 26.6906 19.2142 26.6811 19.2253 26.6727L20.0916 27.8212L20.9578 28.9697C21.0743 28.8819 21.1843 28.7837 21.2862 28.6757L20.24 27.6883ZM20.5669 26.8668H19.1284C19.1284 26.8028 19.155 26.742 19.1949 26.6998L20.24 27.6883L21.2851 28.6769C21.7304 28.2062 22.0055 27.567 22.0055 26.8668H20.5669ZM20.5669 17.3007H19.1284L19.1284 26.8668H20.5669H22.0055V17.3007L20.5669 17.3007Z" fill="black" mask="url(#path-6-outside-2_2384_5641)"/>
<path d="M70.5386 21.1399C82.2723 21.1399 91.7847 30.6523 91.7847 42.386C91.7846 49.1191 88.651 55.1195 83.7642 59.012C88.6515 62.9045 91.7847 68.9063 91.7847 75.6399C91.7845 87.3735 82.2722 96.885 70.5386 96.885C69.6433 96.885 68.7612 96.8275 67.895 96.72V102.065C69.8766 102.197 73.8394 103.65 73.8394 108.406C73.7071 109.727 72.6502 112.368 69.48 112.368H57.5913V92.4817C56.5108 91.6497 55.5115 90.7175 54.6099 89.6965C53.706 90.7199 52.704 91.654 51.6206 92.4875V112.368H39.731C36.5608 112.368 35.5037 109.727 35.3716 108.406C35.3716 103.65 39.3354 102.197 41.3169 102.065V96.7219C40.4536 96.8288 39.5744 96.886 38.6821 96.886C26.9485 96.886 17.4361 87.3736 17.436 75.6399C17.436 68.9062 20.5692 62.9045 25.4565 59.012C20.5696 55.1195 17.4362 49.1192 17.436 42.386C17.436 30.6523 26.9484 21.1399 38.6821 21.1399C45.0247 21.14 50.7171 23.9202 54.6099 28.3274C58.5027 23.92 64.1958 21.1399 70.5386 21.1399Z" fill="#FFE6E4"/>
<path d="M70.5386 21.1399V20.4206V21.1399ZM91.7847 42.386L92.504 42.386V42.386H91.7847ZM83.7642 59.012L83.316 58.4493L82.6096 59.012L83.316 59.5746L83.7642 59.012ZM91.7847 75.6399L92.504 75.6399V75.6399H91.7847ZM70.5386 96.885V97.6043V96.885ZM67.895 96.72L67.9837 96.0062L67.1757 95.9059V96.72H67.895ZM67.895 102.065H67.1757V102.738L67.8472 102.782L67.895 102.065ZM73.8394 108.406L74.5551 108.477L74.5586 108.441V108.406H73.8394ZM57.5913 112.368H56.872V113.088H57.5913V112.368ZM57.5913 92.4817H58.3106V92.1277L58.0302 91.9118L57.5913 92.4817ZM54.6099 89.6965L55.149 89.2204L54.6099 88.61L54.0707 89.2204L54.6099 89.6965ZM51.6206 92.4875L51.182 91.9175L50.9013 92.1334V92.4875H51.6206ZM51.6206 112.368V113.088H52.3399V112.368H51.6206ZM39.731 112.368L39.7309 113.088H39.731V112.368ZM35.3716 108.406H34.6523V108.441L34.6559 108.477L35.3716 108.406ZM41.3169 102.065L41.3647 102.782L42.0362 102.738V102.065H41.3169ZM41.3169 96.7219H42.0362V95.9081L41.2285 96.0081L41.3169 96.7219ZM38.6821 96.886V97.6053H38.6821L38.6821 96.886ZM17.436 75.6399H16.7168H17.436ZM25.4565 59.012L25.9047 59.5746L26.6111 59.012L25.9047 58.4493L25.4565 59.012ZM17.436 42.386H16.7168V42.386L17.436 42.386ZM38.6821 21.1399L38.6821 20.4206H38.6821V21.1399ZM54.6099 28.3274L54.0708 28.8036L54.6099 29.4139L55.149 28.8036L54.6099 28.3274ZM70.5386 21.1399V21.8592C81.875 21.8592 91.0654 31.0496 91.0654 42.386H91.7847H92.504C92.504 30.2551 82.6695 20.4206 70.5386 20.4206V21.1399ZM91.7847 42.386L91.0654 42.386C91.0653 48.8907 88.039 54.6874 83.316 58.4493L83.7642 59.012L84.2123 59.5746C89.263 55.5516 92.5038 49.3476 92.504 42.386L91.7847 42.386ZM83.7642 59.012L83.316 59.5746C88.0394 63.3365 91.0654 69.1347 91.0654 75.6399H91.7847H92.504C92.504 68.6779 89.2635 62.4724 84.2123 58.4493L83.7642 59.012ZM91.7847 75.6399L91.0654 75.6399C91.0653 86.9762 81.875 96.1657 70.5386 96.1657V96.885V97.6043C82.6694 97.6043 92.5038 87.7707 92.504 75.6399L91.7847 75.6399ZM70.5386 96.885V96.1657C69.6741 96.1657 68.8216 96.1102 67.9837 96.0062L67.895 96.72L67.8064 97.4338C68.7007 97.5448 69.6124 97.6043 70.5386 97.6043V96.885ZM67.895 96.72H67.1757V102.065H67.895H68.6143V96.72H67.895ZM67.895 102.065L67.8472 102.782C68.7224 102.841 70.062 103.198 71.1655 104.067C72.2395 104.911 73.1201 106.259 73.1201 108.406H73.8394H74.5586C74.5586 105.796 73.4579 104.04 72.055 102.936C70.6818 101.856 69.0492 101.421 67.9429 101.347L67.895 102.065ZM73.8394 108.406L73.1236 108.334C73.0691 108.879 72.8146 109.729 72.2428 110.426C71.6927 111.097 70.8349 111.649 69.48 111.649V112.368V113.088C71.2953 113.088 72.5511 112.319 73.3551 111.338C74.1374 110.385 74.4774 109.253 74.5551 108.477L73.8394 108.406ZM69.48 112.368V111.649H57.5913V112.368V113.088H69.48V112.368ZM57.5913 112.368H58.3106V92.4817H57.5913H56.872V112.368H57.5913ZM57.5913 92.4817L58.0302 91.9118C56.9856 91.1074 56.0199 90.2065 55.149 89.2204L54.6099 89.6965L54.0707 90.1727C55.0031 91.2284 56.0361 92.1919 57.1525 93.0516L57.5913 92.4817ZM54.6099 89.6965L54.0707 89.2204C53.1978 90.2088 52.2295 91.1115 51.182 91.9175L51.6206 92.4875L52.0592 93.0576C53.1785 92.1964 54.2143 91.2309 55.149 90.1727L54.6099 89.6965ZM51.6206 92.4875H50.9013V112.368H51.6206H52.3399V92.4875H51.6206ZM51.6206 112.368V111.649H39.731V112.368V113.088H51.6206V112.368ZM39.731 112.368L39.731 111.649C38.3761 111.649 37.5182 111.097 36.9682 110.426C36.3963 109.729 36.1419 108.879 36.0873 108.334L35.3716 108.406L34.6559 108.477C34.7335 109.253 35.0736 110.385 35.8558 111.338C36.6599 112.319 37.9157 113.088 39.7309 113.088L39.731 112.368ZM35.3716 108.406H36.0909C36.0909 106.259 36.9717 104.911 38.0458 104.067C39.1496 103.198 40.4895 102.841 41.3647 102.782L41.3169 102.065L41.269 101.347C40.1627 101.421 38.53 101.856 37.1565 102.936C35.7534 104.039 34.6523 105.796 34.6523 108.406H35.3716ZM41.3169 102.065H42.0362V96.7219H41.3169H40.5976V102.065H41.3169ZM41.3169 96.7219L41.2285 96.0081C40.3933 96.1115 39.5437 96.1667 38.6821 96.1667L38.6821 96.886L38.6821 97.6053C39.6052 97.6053 40.5139 97.5461 41.4053 97.4358L41.3169 96.7219ZM38.6821 96.886V96.1667C27.3457 96.1667 18.1553 86.9763 18.1553 75.6399H17.436H16.7168C16.7168 87.7708 26.5512 97.6053 38.6821 97.6053V96.886ZM17.436 75.6399H18.1553C18.1553 69.1346 21.1812 63.3365 25.9047 59.5746L25.4565 59.012L25.0084 58.4493C19.9571 62.4724 16.7168 68.6779 16.7168 75.6399H17.436ZM25.4565 59.012L25.9047 58.4493C21.1816 54.6874 18.1554 48.8908 18.1553 42.386L17.436 42.386L16.7168 42.386C16.7169 49.3477 19.9576 55.5516 25.0084 59.5746L25.4565 59.012ZM17.436 42.386H18.1553C18.1553 31.0496 27.3457 21.8592 38.6821 21.8592V21.1399V20.4206C26.5512 20.4206 16.7168 30.2551 16.7168 42.386H17.436ZM38.6821 21.1399L38.6821 21.8592C44.8097 21.8593 50.3087 24.5443 54.0708 28.8036L54.6099 28.3274L55.149 27.8512C51.1255 23.2961 45.2396 20.4207 38.6821 20.4206L38.6821 21.1399ZM54.6099 28.3274L55.149 28.8036C58.9111 24.5441 64.4107 21.8592 70.5386 21.8592V21.1399V20.4206C63.9809 20.4206 58.0943 23.2958 54.0708 27.8512L54.6099 28.3274Z" fill="black"/>
<path d="M57.4092 38.2356C55.1896 40.5947 49.7144 44.217 45.5702 39.833C40.39 34.3531 49.0152 31.9269 49.8128 36.9222C50.4769 41.0813 47.6524 45.2177 42.3915 43.4395C41.4167 43.11 39.2303 42.091 38.3947 39.7593" stroke="#FF6F61" stroke-width="1.43856" stroke-linecap="round"/>
<ellipse cx="39.3408" cy="53.5323" rx="3.21291" ry="4.28387" fill="black"/>
<ellipse cx="56.4697" cy="53.5324" rx="3.21291" ry="4.28387" fill="black"/>
<ellipse cx="47.9033" cy="57.8145" rx="2.14194" ry="3.21291" transform="rotate(90 47.9033 57.8145)" fill="black"/>
<path d="M59.238 64.5873C59.238 64.0767 58.8241 63.6628 58.3136 63.6628H16.2092C15.6987 63.6628 15.2848 64.0767 15.2848 64.5873V98.8254H44.0288C44.5393 98.8254 44.949 99.242 45.0487 99.7427C45.4311 101.662 47.0537 104.32 51.5462 104.32C56.7373 104.32 58.8061 100.771 59.2194 98.9135C59.2326 98.854 59.238 98.7947 59.238 98.7338V64.5873Z" fill="white"/>
<path d="M51.5462 104.32C47.0537 104.32 45.4311 101.662 45.0487 99.7427C44.949 99.242 44.5393 98.8254 44.0288 98.8254H15.2848H1.92441C1.41387 98.8254 0.99672 99.2402 1.06416 99.7463C1.31994 101.666 2.4022 104.32 5.39532 104.32H51.5462Z" fill="white"/>
<path d="M51.5462 104.32C56.7373 104.32 58.8061 100.771 59.2194 98.9135C59.2326 98.854 59.238 98.7947 59.238 98.7338V64.5873C59.238 64.0767 58.8241 63.6628 58.3136 63.6628H16.2092C15.6987 63.6628 15.2848 64.0767 15.2848 64.5873V98.8254M51.5462 104.32C47.0537 104.32 45.4311 101.662 45.0487 99.7427C44.949 99.242 44.5393 98.8254 44.0288 98.8254H15.2848M51.5462 104.32H5.39532C2.4022 104.32 1.31994 101.666 1.06416 99.7463C0.99672 99.2402 1.41387 98.8254 1.92441 98.8254H15.2848" stroke="black" stroke-width="1.43856" stroke-linecap="round"/>
<circle cx="16.253" cy="74.2937" r="7.8575" fill="#FFE6E4" stroke="black" stroke-width="1.43856"/>
<path d="M62.4783 68.6544L67.7406 65.5325C70.6998 68.7447 71.3803 76.9574 68.5483 79.7482C65.9735 82.2856 63.6829 82.4584 59.1267 83.5753C56.8926 83.9927 52.1738 83.487 51.172 78.1252C50.1701 72.7633 54.3806 70.2143 56.611 69.6101C58.334 65.9887 61.2405 67.464 62.4783 68.6544Z" fill="#FFE6E4"/>
<path d="M68.4819 79.8401C65.379 81.6946 62.4281 83.2189 59.4 83.7846C57.1659 84.2021 52.1737 83.4871 51.1718 78.1252C50.17 72.7633 54.3804 70.2143 56.6109 69.6101C58.3338 65.9887 61.2403 67.4641 62.4782 68.6544L66.6711 66.2846" stroke="black" stroke-width="1.43856"/>
</g>
<rect x="1" y="1" width="80" height="80" rx="40" stroke="#D5D5DE"/>
<defs>
<clipPath id="clip0_2384_5641">
<rect x="1" y="1" width="80" height="80" rx="40" fill="white"/>
</clipPath>
</defs>
</svg>
