<svg width="82" height="82" viewBox="0 0 82 82" fill="none" xmlns="http://www.w3.org/2000/svg">
<g clip-path="url(#clip0_821_4079)">
<rect x="1" y="1" width="80" height="80" rx="40" fill="#F3F3F6"/>
<path fill-rule="evenodd" clip-rule="evenodd" d="M59.4342 55.7771C64.2745 51.9214 67.3769 45.9768 67.3769 39.3075C67.3769 27.685 57.9549 18.263 46.3324 18.263C40.0503 18.263 34.4112 21.0157 30.5552 25.3806C26.6993 21.0156 21.0601 18.2629 14.7779 18.2629C3.15539 18.2629 -6.26654 27.6849 -6.26654 39.3074C-6.26654 45.9767 -3.16416 51.9213 1.67618 55.777C-3.16419 59.6326 -6.2666 65.5773 -6.2666 72.2466C-6.2666 83.8692 3.15532 93.2911 14.7779 93.2911C15.6616 93.2911 16.5326 93.2366 17.3877 93.1309V98.4212C15.4249 98.552 11.4994 99.9914 11.4994 104.702C11.6302 106.011 12.677 108.628 15.8175 108.628H27.5941L27.5941 88.9397C28.6678 88.1141 29.6596 87.1873 30.5551 86.1735C31.4484 87.1846 32.4373 88.1092 33.5077 88.9332V108.627H45.2843C48.4248 108.627 49.4716 106.01 49.6025 104.702C49.6025 99.9913 45.6769 98.5519 43.7141 98.4211V93.1298C44.5719 93.2363 45.4458 93.2911 46.3324 93.2911C57.9549 93.2911 67.3769 83.8692 67.3769 72.2466C67.3769 65.5774 64.2745 59.6327 59.4342 55.7771Z" fill="#FFE6E4"/>
<path d="M59.4342 55.7771L58.986 55.2145L58.2798 55.7771L58.986 56.3397L59.4342 55.7771ZM30.5552 25.3806L30.0162 25.8568L30.5552 26.467L31.0943 25.8568L30.5552 25.3806ZM1.67618 55.777L2.12433 56.3396L2.83062 55.777L2.12433 55.2144L1.67618 55.777ZM17.3877 93.1309H18.107V92.3171L17.2994 92.417L17.3877 93.1309ZM17.3877 98.4212L17.4355 99.1389L18.107 99.0941V98.4212H17.3877ZM11.4994 104.702H10.7801V104.738L10.7837 104.774L11.4994 104.702ZM27.5941 108.628V109.347H28.3134V108.628H27.5941ZM27.5941 88.9397L27.1557 88.3695L26.8748 88.5854V88.9397H27.5941ZM30.5551 86.1735L31.0942 85.6973L30.5551 85.0871L30.0161 85.6973L30.5551 86.1735ZM33.5077 88.9332H34.227V88.5791L33.9464 88.3632L33.5077 88.9332ZM33.5077 108.627H32.7884V109.347H33.5077V108.627ZM49.6025 104.702L50.3182 104.773L50.3217 104.738V104.702H49.6025ZM43.7141 98.4211H42.9949V99.094L43.6663 99.1387L43.7141 98.4211ZM43.7141 93.1298L43.8027 92.416L42.9949 92.3157V93.1298H43.7141ZM66.6576 39.3075C66.6576 45.7485 63.6624 51.4894 58.986 55.2145L59.8823 56.3397C64.8866 52.3534 68.0962 46.2051 68.0962 39.3075H66.6576ZM46.3324 18.9823C57.5577 18.9823 66.6576 28.0822 66.6576 39.3075H68.0962C68.0962 27.2877 58.3522 17.5438 46.3324 17.5438V18.9823ZM31.0943 25.8568C34.8195 21.6399 40.2652 18.9823 46.3324 18.9823V17.5438C39.8355 17.5438 34.0028 20.3915 30.0162 24.9044L31.0943 25.8568ZM14.7779 18.9822C20.8452 18.9822 26.2909 21.6398 30.0162 25.8568L31.0943 24.9044C27.1076 20.3914 21.2749 17.5437 14.7779 17.5437V18.9822ZM-5.54726 39.3074C-5.54726 28.0821 3.55264 18.9822 14.7779 18.9822V17.5437C2.75814 17.5437 -6.98582 27.2876 -6.98582 39.3074H-5.54726ZM2.12433 55.2144C-2.55205 51.4893 -5.54726 45.7484 -5.54726 39.3074H-6.98582C-6.98582 46.205 -3.77626 52.3533 1.22803 56.3396L2.12433 55.2144ZM-5.54732 72.2466C-5.54732 65.8056 -2.55209 60.0646 2.12433 56.3396L1.22803 55.2144C-3.7763 59.2006 -6.98588 65.349 -6.98588 72.2466H-5.54732ZM14.7779 92.5718C3.55257 92.5718 -5.54732 83.4719 -5.54732 72.2466H-6.98588C-6.98588 84.2664 2.75808 94.0104 14.7779 94.0104V92.5718ZM17.2994 92.417C16.4735 92.5192 15.632 92.5718 14.7779 92.5718V94.0104C15.6912 94.0104 16.5917 93.9541 17.476 93.8447L17.2994 92.417ZM16.6684 93.1309V98.4212H18.107V93.1309H16.6684ZM17.3398 97.7035C16.2429 97.7766 14.6243 98.2077 13.2628 99.2789C11.8716 100.373 10.7801 102.115 10.7801 104.702H12.2186C12.2186 102.578 13.0899 101.245 14.1522 100.41C15.2441 99.5505 16.5697 99.1966 17.4355 99.1389L17.3398 97.7035ZM10.7837 104.774C10.8606 105.543 11.1978 106.665 11.9736 107.612C12.7712 108.584 14.0171 109.347 15.8175 109.347V107.908C14.4774 107.908 13.6296 107.362 13.086 106.699C12.5206 106.01 12.269 105.17 12.2151 104.63L10.7837 104.774ZM15.8175 109.347H27.5941V107.908H15.8175V109.347ZM28.3134 108.628L28.3134 88.9397H26.8748L26.8748 108.628H28.3134ZM30.0161 85.6973C29.1509 86.6766 28.1928 87.572 27.1557 88.3695L28.0326 89.5099C29.1428 88.6562 30.1682 87.6979 31.0942 86.6497L30.0161 85.6973ZM33.9464 88.3632C32.9124 87.5673 31.9571 86.6741 31.0942 85.6973L30.0161 86.6497C30.9396 87.6952 31.9621 88.6512 33.069 89.5031L33.9464 88.3632ZM34.227 108.627V88.9332H32.7884V108.627H34.227ZM45.2843 107.908H33.5077V109.347H45.2843V107.908ZM48.8867 104.63C48.8328 105.17 48.5812 106.01 48.0158 106.699C47.4722 107.362 46.6244 107.908 45.2843 107.908V109.347C47.0847 109.347 48.3306 108.584 49.1282 107.611C49.904 106.665 50.2412 105.543 50.3182 104.773L48.8867 104.63ZM43.6663 99.1387C44.5321 99.1965 45.8577 99.5504 46.9496 100.409C48.0119 101.245 48.8832 102.578 48.8832 104.702H50.3217C50.3217 102.115 49.2302 100.373 47.8391 99.2787C46.4775 98.2076 44.8589 97.7765 43.762 97.7034L43.6663 99.1387ZM42.9949 93.1298V98.4211H44.4334V93.1298H42.9949ZM46.3324 92.5718C45.4755 92.5718 44.6312 92.5188 43.8027 92.416L43.6255 93.8436C44.5127 93.9537 45.4161 94.0104 46.3324 94.0104V92.5718ZM66.6576 72.2466C66.6576 83.4719 57.5577 92.5718 46.3324 92.5718V94.0104C58.3522 94.0104 68.0962 84.2664 68.0962 72.2466H66.6576ZM58.986 56.3397C63.6624 60.0647 66.6576 65.8057 66.6576 72.2466H68.0962C68.0962 65.3491 64.8866 59.2007 59.8823 55.2145L58.986 56.3397Z" fill="black"/>
<path d="M41.5635 35.632C38.644 37.6322 31.9549 40.2213 28.5543 34.5752C24.3035 27.5176 34.0757 26.9401 33.7617 32.4579C33.5003 37.0522 29.5206 40.8084 24.3201 37.6831C23.3565 37.1039 21.2605 35.5063 20.9125 32.8225" stroke="#FF6F61" stroke-width="1.43856" stroke-linecap="round"/>
<path d="M-3.63443 56.8786L1.73591 59.9522C0.395345 64.4432 1.03063 71.7083 -2.83452 70.6719C-6.34859 69.7295 -15.1493 65.6561 -18.4068 62.1129C-19.8898 60.303 -21.8044 55.7088 -17.5985 51.8112C-13.3927 47.9137 -9.05091 50.3446 -7.40576 52.0473C-3.36585 51.6082 -3.20824 55.0852 -3.63443 56.8786Z" fill="#FFE6E4"/>
<path d="M-4.82861 70.1461C-8.00173 68.4144 -16.2284 63.8707 -18.2532 61.5491C-19.7471 59.8363 -21.6657 55.1723 -17.5549 51.587C-13.4441 48.0016 -9.11043 50.3349 -7.45745 51.9498C-3.46276 51.5956 -3.2582 54.8486 -3.65525 56.5194L-0.153282 58.6376" stroke="black" stroke-width="1.43856" stroke-linecap="round"/>
<ellipse cx="38.4286" cy="45.2586" rx="3.18247" ry="4.24329" fill="black"/>
<ellipse cx="29.9425" cy="49.5002" rx="2.12165" ry="3.18247" transform="rotate(90 29.9425 49.5002)" fill="black"/>
<path d="M18.9082 42.4446C20.5865 42.5972 22.9991 43.36 23.9432 45.2761C22.3697 45.2761 20.1669 46.1064 18.9082 47.4795" stroke="black" stroke-width="1.43856" stroke-linecap="round" stroke-linejoin="round"/>
<rect x="39.1958" y="51.0851" width="9.75463" height="5.78485" rx="2.15784" fill="#FF6F61" stroke="black" stroke-width="1.43856"/>
<rect x="6.68018" y="53.6561" width="47.4725" height="27.6387" rx="6.47353" fill="#FF998F" stroke="black" stroke-width="1.43856"/>
<ellipse cx="29.4413" cy="67.7969" rx="8.45401" ry="8.3559" fill="#FFCDC9" stroke="black" stroke-width="1.43856"/>
<ellipse cx="29.4414" cy="67.7969" rx="3.90185" ry="3.85657" fill="#FFE6E4" stroke="black" stroke-width="1.43856"/>
<ellipse cx="12.2078" cy="59.7623" rx="1.62577" ry="1.6069" fill="#FF998F" stroke="black" stroke-width="1.43856"/>
<path d="M44.3984 57.5128L44.3984 77.4384" stroke="black" stroke-width="1.43856" stroke-linecap="round"/>
<path d="M57.6741 65.3281L63.2785 67.7833C62.394 72.0603 60.9322 79.9066 57.0136 79.2328C53.451 78.6202 47.1612 74.3546 43.5974 71.3041C41.9558 69.7323 40.309 66.1665 43.3877 61.6637C45.1455 59.0929 51.6856 59.6584 53.4769 61.1183C57.0137 63.4086 55.9347 63.4086 57.6741 65.3281Z" fill="#FFE6E4"/>
<path d="M58.485 64.7854C55.9675 62.9872 56.3272 63.3469 53.4168 61.6105C50.9325 59.9079 46.0354 58.8978 43.3873 61.6637C39.615 65.6037 41.9447 70.0765 43.5863 71.6483C45.8114 73.7787 51.5565 76.9781 54.8723 78.4179" stroke="black" stroke-width="1.43856"/>
</g>
<rect x="1" y="1" width="80" height="80" rx="40" stroke="#D5D5DE"/>
<defs>
<clipPath id="clip0_821_4079">
<rect x="1" y="1" width="80" height="80" rx="40" fill="white"/>
</clipPath>
</defs>
</svg>
