<svg width="82" height="82" viewBox="0 0 82 82" fill="none" xmlns="http://www.w3.org/2000/svg">
<g clip-path="url(#clip0_2384_5539)">
<rect x="1" y="1" width="80" height="80" rx="40" fill="white"/>
<path d="M46.332 18.2629C57.9546 18.2629 67.377 27.6853 67.377 39.3079C67.3768 45.9776 64.2726 51.9211 59.4316 55.7766C64.2729 59.6322 67.3769 65.5764 67.377 72.2463C67.377 83.8689 57.9546 93.2913 46.332 93.2913C45.4453 93.2912 44.5717 93.2337 43.7139 93.1272V98.4211C45.6766 98.552 49.6025 99.9917 49.6025 104.702C49.4715 106.011 48.4243 108.627 45.2842 108.627H33.5078V88.9299C32.4376 88.1058 31.4478 87.1824 30.5547 86.1711C29.6594 87.1848 28.667 88.1102 27.5938 88.9358V108.627H15.8174C12.6773 108.627 11.63 106.011 11.499 104.702C11.499 99.9917 15.4249 98.552 17.3877 98.4211V93.1282C16.5323 93.2341 15.6614 93.2913 14.7773 93.2913C3.15502 93.291 -6.2666 83.8687 -6.2666 72.2463C-6.26651 65.5766 -3.16324 59.6322 1.67773 55.7766C-3.16295 51.9211 -6.26646 45.9773 -6.2666 39.3079C-6.2666 27.6853 3.15579 18.2629 14.7783 18.2629C21.0606 18.2631 26.6988 21.0169 30.5547 25.3821C34.4106 21.0166 40.0496 18.263 46.332 18.2629Z" fill="#FFE6E4"/>
<path d="M46.332 18.2629V17.5437H46.332L46.332 18.2629ZM67.377 39.3079L68.0962 39.3079V39.3079H67.377ZM59.4316 55.7766L58.9835 55.214L58.2771 55.7766L58.9835 56.3393L59.4316 55.7766ZM67.377 72.2463H68.0962V72.2463L67.377 72.2463ZM46.332 93.2913L46.332 94.0105H46.332V93.2913ZM43.7139 93.1272L43.8025 92.4134L42.9946 92.3131V93.1272H43.7139ZM43.7139 98.4211H42.9946V99.0941L43.666 99.1388L43.7139 98.4211ZM49.6025 104.702L50.3182 104.774L50.3218 104.738V104.702H49.6025ZM33.5078 108.627H32.7885V109.346H33.5078V108.627ZM33.5078 88.9299H34.2271V88.576L33.9466 88.36L33.5078 88.9299ZM30.5547 86.1711L31.0938 85.695L30.5547 85.0846L30.0156 85.695L30.5547 86.1711ZM27.5938 88.9358L27.1552 88.3657L26.8745 88.5816V88.9358H27.5938ZM27.5938 108.627V109.346H28.313V108.627H27.5938ZM15.8174 108.627L15.8174 109.346H15.8174V108.627ZM11.499 104.702H10.7797V104.738L10.7833 104.774L11.499 104.702ZM17.3877 98.4211L17.4355 99.1388L18.107 99.0941V98.4211H17.3877ZM17.3877 93.1282H18.107V92.3144L17.2993 92.4143L17.3877 93.1282ZM14.7773 93.2913L14.7773 94.0105H14.7773V93.2913ZM-6.2666 72.2463L-6.98588 72.2463V72.2463H-6.2666ZM1.67773 55.7766L2.12584 56.3392L2.83226 55.7766L2.12586 55.214L1.67773 55.7766ZM-6.2666 39.3079H-6.98588V39.3079L-6.2666 39.3079ZM14.7783 18.2629L14.7783 17.5437H14.7783V18.2629ZM30.5547 25.3821L30.0156 25.8583L30.5547 26.4686L31.0938 25.8583L30.5547 25.3821ZM46.332 18.2629V18.9822C57.5573 18.9822 66.6577 28.0826 66.6577 39.3079H67.377H68.0962C68.0962 27.2881 58.3518 17.5437 46.332 17.5437V18.2629ZM67.377 39.3079L66.6577 39.3078C66.6576 45.7491 63.6607 51.4889 58.9835 55.214L59.4316 55.7766L59.8798 56.3392C64.8846 52.3532 68.0961 46.206 68.0962 39.3079L67.377 39.3079ZM59.4316 55.7766L58.9835 56.3393C63.6609 60.0643 66.6576 65.8048 66.6577 72.2463L67.377 72.2463L68.0962 72.2463C68.0961 65.348 64.8849 59.2 59.8797 55.214L59.4316 55.7766ZM67.377 72.2463H66.6577C66.6577 83.4716 57.5573 92.572 46.332 92.572V93.2913V94.0105C58.3518 94.0105 68.0962 84.2661 68.0962 72.2463H67.377ZM46.332 93.2913L46.332 92.572C45.4765 92.572 44.6325 92.5165 43.8025 92.4134L43.7139 93.1272L43.6252 93.841C44.511 93.951 45.4142 94.0105 46.332 94.0105L46.332 93.2913ZM43.7139 93.1272H42.9946V98.4211H43.7139H44.4331V93.1272H43.7139ZM43.7139 98.4211L43.666 99.1388C44.5318 99.1965 45.8575 99.5506 46.9495 100.41C48.0119 101.245 48.8833 102.579 48.8833 104.702H49.6025H50.3218C50.3218 102.115 49.2302 100.374 47.839 99.279C46.4773 98.2078 44.8587 97.7766 43.7617 97.7035L43.7139 98.4211ZM49.6025 104.702L48.8868 104.631C48.8328 105.17 48.5811 106.01 48.0156 106.699C47.472 107.362 46.6241 107.908 45.2842 107.908V108.627V109.346C47.0843 109.346 48.3301 108.584 49.1279 107.612C49.9038 106.666 50.2412 105.543 50.3182 104.774L49.6025 104.702ZM45.2842 108.627V107.908H33.5078V108.627V109.346H45.2842V108.627ZM33.5078 108.627H34.2271V88.9299H33.5078H32.7885V108.627H33.5078ZM33.5078 88.9299L33.9466 88.36C32.9123 87.5636 31.9562 86.6714 31.0938 85.695L30.5547 86.1711L30.0156 86.6473C30.9394 87.6933 31.9628 88.6481 33.069 89.4998L33.5078 88.9299ZM30.5547 86.1711L30.0156 85.695C29.1511 86.6737 28.1924 87.5678 27.1552 88.3657L27.5938 88.9358L28.0323 89.5059C29.1416 88.6526 30.1677 87.6958 31.0938 86.6473L30.5547 86.1711ZM27.5938 88.9358H26.8745V108.627H27.5938H28.313V88.9358H27.5938ZM27.5938 108.627V107.908H15.8174V108.627V109.346H27.5938V108.627ZM15.8174 108.627L15.8174 107.908C14.4774 107.908 13.6296 107.362 13.0859 106.699C12.5204 106.01 12.2687 105.17 12.2147 104.631L11.499 104.702L10.7833 104.774C10.8603 105.543 11.1977 106.666 11.9737 107.612C12.7714 108.584 14.0172 109.346 15.8174 109.346L15.8174 108.627ZM11.499 104.702H12.2183C12.2183 102.579 13.0897 101.245 14.152 100.41C15.244 99.5506 16.5697 99.1965 17.4355 99.1388L17.3877 98.4211L17.3398 97.7035C16.2429 97.7766 14.6242 98.2078 13.2626 99.279C11.8713 100.374 10.7797 102.115 10.7797 104.702H11.499ZM17.3877 98.4211H18.107V93.1282H17.3877H16.6684V98.4211H17.3877ZM17.3877 93.1282L17.2993 92.4143C16.4717 92.5168 15.6303 92.572 14.7773 92.572V93.2913V94.0105C15.6924 94.0105 16.5929 93.9513 17.4761 93.842L17.3877 93.1282ZM14.7773 93.2913L14.7774 92.572C3.5523 92.5717 -5.54732 83.4715 -5.54732 72.2463H-6.2666H-6.98588C-6.98588 84.2659 2.75774 94.0103 14.7773 94.0105L14.7773 93.2913ZM-6.2666 72.2463L-5.54732 72.2463C-5.54723 65.805 -2.55119 60.0642 2.12584 56.3392L1.67773 55.7766L1.22962 55.214C-3.77528 59.2001 -6.98579 65.3483 -6.98588 72.2463L-6.2666 72.2463ZM1.67773 55.7766L2.12586 55.214C-2.55094 51.489 -5.54718 45.7489 -5.54732 39.3078L-6.2666 39.3079L-6.98588 39.3079C-6.98573 46.2057 -3.77496 52.3532 1.22961 56.3392L1.67773 55.7766ZM-6.2666 39.3079H-5.54732C-5.54732 28.0826 3.55303 18.9822 14.7783 18.9822V18.2629V17.5437C2.75854 17.5437 -6.98588 27.2881 -6.98588 39.3079H-6.2666ZM14.7783 18.2629L14.7783 18.9822C20.8456 18.9824 26.2904 21.641 30.0156 25.8583L30.5547 25.3821L31.0938 24.9059C27.1072 20.3927 21.2755 17.5438 14.7783 17.5437L14.7783 18.2629ZM30.5547 25.3821L31.0938 25.8583C34.819 21.6408 40.2645 18.9823 46.332 18.9822L46.332 18.2629L46.332 17.5437C39.8347 17.5438 34.0022 20.3925 30.0156 24.9059L30.5547 25.3821Z" fill="black"/>
<path d="M41.5635 35.632C38.644 37.6322 31.9549 40.2213 28.5543 34.5752C24.3035 27.5176 34.0757 26.9401 33.7617 32.4579C33.5003 37.0522 29.5206 40.8084 24.3201 37.6831C23.3565 37.1039 21.2605 35.5063 20.9125 32.8225" stroke="#FF6F61" stroke-width="1.43856" stroke-linecap="round"/>
<path d="M-3.63443 56.8786L1.73591 59.9522C0.395345 64.4432 1.03063 71.7083 -2.83452 70.6719C-6.34859 69.7295 -15.1493 65.6561 -18.4068 62.1129C-19.8898 60.303 -21.8044 55.7088 -17.5985 51.8112C-13.3927 47.9137 -9.05091 50.3446 -7.40576 52.0473C-3.36585 51.6082 -3.20824 55.0852 -3.63443 56.8786Z" fill="#FFE6E4"/>
<path d="M-4.82861 70.1461C-8.00173 68.4144 -16.2284 63.8707 -18.2532 61.5491C-19.7471 59.8363 -21.6657 55.1723 -17.5549 51.587C-13.4441 48.0016 -9.11043 50.3349 -7.45745 51.9498C-3.46276 51.5956 -3.2582 54.8486 -3.65525 56.5194L-0.153282 58.6376" stroke="black" stroke-width="1.43856" stroke-linecap="round"/>
<ellipse cx="38.4286" cy="45.2586" rx="3.18247" ry="4.24329" fill="black"/>
<ellipse cx="29.9425" cy="49.5002" rx="2.12165" ry="3.18247" transform="rotate(90 29.9425 49.5002)" fill="black"/>
<path d="M18.9082 42.4446C20.5865 42.5972 22.9991 43.36 23.9432 45.2761C22.3697 45.2761 20.1669 46.1064 18.9082 47.4795" stroke="black" stroke-width="1.43856" stroke-linecap="round" stroke-linejoin="round"/>
<rect x="39.1958" y="51.0851" width="9.75463" height="5.78485" rx="2.15784" fill="#FF6F61" stroke="black" stroke-width="1.43856"/>
<rect x="6.68018" y="53.6561" width="47.4725" height="27.6387" rx="6.47353" fill="#FF998F" stroke="black" stroke-width="1.43856"/>
<ellipse cx="29.4413" cy="67.7969" rx="8.45401" ry="8.3559" fill="#FFCDC9" stroke="black" stroke-width="1.43856"/>
<ellipse cx="29.4414" cy="67.7969" rx="3.90185" ry="3.85657" fill="#FFE6E4" stroke="black" stroke-width="1.43856"/>
<ellipse cx="12.2078" cy="59.7623" rx="1.62577" ry="1.6069" fill="#FF998F" stroke="black" stroke-width="1.43856"/>
<path d="M44.3984 57.5128L44.3984 77.4384" stroke="black" stroke-width="1.43856" stroke-linecap="round"/>
<path d="M57.6741 65.3281L63.2785 67.7833C62.394 72.0603 60.9322 79.9066 57.0136 79.2328C53.451 78.6202 47.1612 74.3546 43.5974 71.3041C41.9558 69.7323 40.309 66.1665 43.3877 61.6637C45.1455 59.0929 51.6856 59.6584 53.4769 61.1183C57.0137 63.4086 55.9347 63.4086 57.6741 65.3281Z" fill="#FFE6E4"/>
<path d="M58.485 64.7854C55.9675 62.9872 56.3272 63.3469 53.4168 61.6105C50.9325 59.9079 46.0354 58.8978 43.3873 61.6637C39.615 65.6037 41.9447 70.0765 43.5863 71.6483C45.8114 73.7787 51.5565 76.9781 54.8723 78.4179" stroke="black" stroke-width="1.43856"/>
</g>
<rect x="1" y="1" width="80" height="80" rx="40" stroke="#D5D5DE"/>
<defs>
<clipPath id="clip0_2384_5539">
<rect x="1" y="1" width="80" height="80" rx="40" fill="white"/>
</clipPath>
</defs>
</svg>
