<svg width="234" height="50" viewBox="0 0 234 50" fill="none" xmlns="http://www.w3.org/2000/svg">
<path d="M227.929 28.7054C227.763 27.1694 227.348 25.7788 226.684 24.5335C226.019 23.2466 225.065 22.2088 223.819 21.4201C222.615 20.5899 221.1 20.1747 219.274 20.1747C217.655 20.1747 216.16 20.5484 214.79 21.2956C213.462 22.0428 212.362 23.0806 211.49 24.4089C210.619 25.6958 210.058 27.1487 209.809 28.7676L227.929 28.7054ZM232.661 23.5994C233.408 25.3844 233.824 27.1487 233.907 28.8922C234.031 30.5941 234.031 32.0885 233.907 33.3754V33.6867H209.809C210.017 35.3472 210.577 36.8209 211.49 38.1077C212.404 39.3531 213.545 40.3493 214.915 41.0965C216.285 41.8022 217.717 42.1551 219.211 42.1551C221.702 42.1551 223.57 41.7192 224.816 40.8475C226.102 39.9757 227.016 39.0625 227.555 38.1077L227.68 37.9832L232.848 40.3493C231.852 42.3834 230.191 44.1061 227.867 45.5175C225.542 46.8874 222.636 47.5723 219.149 47.5723C216.119 47.5723 213.421 46.8874 211.054 45.5175C208.688 44.1061 206.841 42.1551 205.513 39.6644C204.226 37.1737 203.582 34.3509 203.582 31.196C203.582 27.9997 204.226 25.1561 205.513 22.6654C206.841 20.1747 208.688 18.2445 211.054 16.8746C213.421 15.4632 216.119 14.7575 219.149 14.7575C222.138 14.7575 224.608 15.3594 226.559 16.5632C228.51 17.7671 229.921 19.0124 230.793 20.2993C231.706 21.5861 232.308 22.6447 232.599 23.4749L232.661 23.5994Z" fill="#FF6F61"/>
<path d="M212.41 42.9645C211.705 43.5403 211.013 44.005 210.334 44.3588C209.666 44.7527 208.751 45.1054 207.588 45.417C205.824 45.8897 204.133 45.9131 202.514 45.4872C200.925 45.0105 199.537 44.1578 198.348 42.9292C197.199 41.6898 196.383 40.168 195.9 38.3636L187.729 7.86983L193.984 6.19377L202.155 36.6875C202.456 37.8103 203.009 38.672 203.814 39.2726C204.66 39.8626 205.57 40.0487 206.543 39.8309C207.395 39.6454 208.368 39.1054 209.461 38.211L209.505 38.1347L212.783 42.6713L212.41 42.9645ZM184.761 18.2057L204.369 12.9519L205.771 18.1845L186.163 23.4383L184.761 18.2057Z" fill="#FF6F61"/>
<path d="M114.629 12.8268V47.3852H108.153V1.55648H115.127L131.815 28.5805L148.44 1.55648H155.476V47.3852H149V12.7646L131.815 39.664L114.629 12.8268Z" fill="#FF6F61"/>
<path d="M103.464 14.7573V47.5098H96.9878V14.7573H103.464ZM100.226 -5.76973e-05C101.305 -5.76973e-05 102.177 0.352789 102.841 1.05848C103.505 1.72267 103.837 2.59441 103.837 3.6737C103.837 4.71149 103.505 5.58323 102.841 6.28893C102.177 6.99462 101.305 7.34747 100.226 7.34747C99.1464 7.34747 98.2539 6.99462 97.5482 6.28893C96.8425 5.58323 96.4896 4.71149 96.4896 3.6737C96.4896 2.59441 96.8425 1.72267 97.5482 1.05848C98.2539 0.352789 99.1464 -5.76973e-05 100.226 -5.76973e-05Z" fill="#FF6F61"/>
<path d="M92.4013 46.2024C91.5711 46.576 90.7823 46.8458 90.0351 47.0118C89.2879 47.2194 88.3124 47.3232 87.1086 47.3232C85.2821 47.3232 83.6424 46.908 82.1895 46.0778C80.7781 45.2061 79.6573 44.023 78.827 42.5286C78.0383 41.0342 77.644 39.353 77.644 37.4849V5.91546H84.1197V37.4849C84.1197 38.6473 84.4311 39.6228 85.0538 40.4115C85.7179 41.2002 86.5482 41.6153 87.5445 41.6568C88.4162 41.6984 89.4955 41.4285 90.7823 40.8474L90.8446 40.7851L92.8372 46.0156L92.4013 46.2024ZM72.1022 15.131H92.4013V20.5483H72.1022V15.131Z" fill="#FF6F61"/>
<path d="M55.3166 38.4811C56.2714 39.768 57.4337 40.7435 58.8036 41.4077C60.215 42.0719 61.5641 42.4039 62.8509 42.4039C64.6359 42.4039 66.0888 41.9888 67.2096 41.1586C68.372 40.2869 68.9531 39.1868 68.9531 37.8584C68.9531 37.1528 68.6833 36.5508 68.1437 36.0527C67.604 35.5546 66.8983 35.1394 66.0266 34.8074C65.1548 34.4337 64.034 34.0394 62.6641 33.6243C60.4225 32.9186 58.5545 32.2336 57.0601 31.5695C55.6072 30.9053 54.3411 29.9505 53.2618 28.7052C52.224 27.4598 51.7051 25.8409 51.7051 23.8483C51.7051 22.0218 52.2032 20.4029 53.1995 18.9915C54.1958 17.5801 55.5657 16.48 57.3092 15.6913C59.0941 14.8611 61.1075 14.446 63.3491 14.446C65.3001 14.446 67.2512 14.8818 69.2022 15.7536C71.1532 16.6253 72.7099 17.8707 73.8722 19.4896L69.5758 23.2256C68.7871 22.1048 67.8116 21.2746 66.6492 20.735C65.5284 20.1538 64.4284 19.8632 63.3491 19.8632C61.8132 19.8632 60.5678 20.2368 59.613 20.984C58.6583 21.6897 58.1809 22.6237 58.1809 23.7861C58.1809 24.4917 58.4507 25.1144 58.9904 25.6541C59.53 26.1522 60.2357 26.5673 61.1075 26.8994C62.0207 27.2315 63.1623 27.6259 64.5322 28.0825C66.8153 28.7467 68.6625 29.4109 70.0739 30.075C71.5268 30.7392 72.7722 31.694 73.81 32.9393C74.8893 34.1847 75.4289 35.7829 75.4289 37.7339C75.4289 39.7265 74.8893 41.4907 73.81 43.0266C72.7722 44.521 71.2985 45.7041 69.389 46.5759C67.4795 47.4476 65.3001 47.8835 62.8509 47.8835C60.7339 47.8835 58.5545 47.3853 56.3129 46.3891C54.1128 45.3928 52.307 44.0021 50.8956 42.2171L55.3166 38.4811Z" fill="#FF6F61"/>
<path d="M46.6134 28.7054C46.4473 27.1694 46.0322 25.7788 45.3681 24.5335C44.7039 23.2466 43.7491 22.2088 42.5038 21.4201C41.2999 20.5899 39.7848 20.1747 37.9582 20.1747C36.3393 20.1747 34.8449 20.5484 33.475 21.2956C32.1466 22.0428 31.0466 23.0806 30.1748 24.4089C29.3031 25.6958 28.7427 27.1487 28.4936 28.7676L46.6134 28.7054ZM51.3457 23.5994C52.0929 25.3844 52.508 27.1487 52.591 28.8922C52.7156 30.5941 52.7156 32.0885 52.591 33.3754V33.6867H28.4936C28.7012 35.3472 29.2616 36.8209 30.1748 38.1077C31.0881 39.3531 32.2297 40.3493 33.5995 41.0965C34.9694 41.8022 36.4016 42.1551 37.896 42.1551C40.3867 42.1551 42.2547 41.7192 43.5 40.8475C44.7869 39.9757 45.7001 39.0625 46.2398 38.1077L46.3643 37.9832L51.5325 40.3493C50.5362 42.3834 48.8758 44.1061 46.5511 45.5175C44.2265 46.8874 41.3207 47.5723 37.8337 47.5723C34.8034 47.5723 32.1051 46.8874 29.739 45.5175C27.3728 44.1061 25.5256 42.1551 24.1972 39.6644C22.9103 37.1737 22.2669 34.3509 22.2669 31.196C22.2669 27.9997 22.9103 25.1561 24.1972 22.6654C25.5256 20.1747 27.3728 18.2445 29.739 16.8746C32.1051 15.4632 34.8034 14.7575 37.8337 14.7575C40.8225 14.7575 43.2925 15.3594 45.2435 16.5632C47.1946 17.7671 48.6059 19.0124 49.4777 20.2993C50.3909 21.5861 50.9929 22.6447 51.2834 23.4749L51.3457 23.5994Z" fill="#FF6F61"/>
<path d="M31.4449 7.16053H6.47579V21.6065H27.3976V27.2106H6.47579V47.3852H0V1.55648H31.4449V7.16053Z" fill="#FF6F61"/>
<mask id="path-9-inside-1_210_3031" fill="white">
<path fill-rule="evenodd" clip-rule="evenodd" d="M176.25 12.8674C176.25 9.27464 173.337 6.36212 169.744 6.36212C166.151 6.36212 163.239 9.27464 163.239 12.8674H158.43C155.306 12.8674 152.773 15.4002 152.773 18.5244V24.1814C152.773 24.1814 152.773 24.1814 152.773 24.1814C149.181 24.1814 146.268 27.094 146.268 30.6869C146.268 34.2798 149.181 37.1924 152.773 37.1924C152.773 37.1924 152.773 37.1924 152.773 37.1924V42.8493C152.773 45.9735 155.306 48.5062 158.43 48.5062H182.755C185.88 48.5062 188.412 45.9735 188.412 42.8493V37.1924H188.412C184.819 37.1924 181.907 34.2798 181.907 30.6869C181.907 27.094 184.819 24.1814 188.412 24.1814H188.412V18.5244C188.412 15.4002 185.88 12.8674 182.755 12.8674H176.25Z"/>
</mask>
<path fill-rule="evenodd" clip-rule="evenodd" d="M176.25 12.8674C176.25 9.27464 173.337 6.36212 169.744 6.36212C166.151 6.36212 163.239 9.27464 163.239 12.8674H158.43C155.306 12.8674 152.773 15.4002 152.773 18.5244V24.1814C152.773 24.1814 152.773 24.1814 152.773 24.1814C149.181 24.1814 146.268 27.094 146.268 30.6869C146.268 34.2798 149.181 37.1924 152.773 37.1924C152.773 37.1924 152.773 37.1924 152.773 37.1924V42.8493C152.773 45.9735 155.306 48.5062 158.43 48.5062H182.755C185.88 48.5062 188.412 45.9735 188.412 42.8493V37.1924H188.412C184.819 37.1924 181.907 34.2798 181.907 30.6869C181.907 27.094 184.819 24.1814 188.412 24.1814H188.412V18.5244C188.412 15.4002 185.88 12.8674 182.755 12.8674H176.25Z" fill="#FF6F61"/>
<path d="M176.25 12.8674L174.974 12.8675L174.974 14.1433H176.25V12.8674ZM163.239 12.8674V14.1433H164.515L164.515 12.8675L163.239 12.8674ZM152.773 24.1814V25.4573H154.049V24.1814H152.773ZM152.773 37.1924H154.049V35.9166H152.773V37.1924ZM188.412 37.1924H189.688V35.9166H188.412V37.1924ZM188.412 24.1814V25.4573H189.688V24.1814H188.412ZM177.526 12.8674C177.526 8.56999 174.042 5.08628 169.744 5.08628V7.63795C172.633 7.63795 174.974 9.97928 174.974 12.8675L177.526 12.8674ZM169.744 5.08628C165.447 5.08628 161.963 8.56999 161.963 12.8674L164.515 12.8675C164.515 9.97928 166.856 7.63795 169.744 7.63795V5.08628ZM163.239 11.5916H158.43V14.1433H163.239V11.5916ZM158.43 11.5916C154.602 11.5916 151.498 14.6955 151.498 18.5244H154.049C154.049 16.1048 156.011 14.1433 158.43 14.1433V11.5916ZM151.498 18.5244V24.1814H154.049V18.5244H151.498ZM152.773 22.9056C152.773 22.9056 152.773 22.9056 152.773 22.9056C152.773 22.9056 152.773 22.9056 152.773 22.9056C152.773 22.9056 152.773 22.9056 152.773 22.9056C152.773 22.9056 152.773 22.9056 152.773 22.9056C152.773 22.9056 152.773 22.9056 152.773 22.9056C152.773 22.9056 152.773 22.9056 152.773 22.9056C152.773 22.9056 152.773 22.9056 152.773 22.9056C152.773 22.9056 152.773 22.9056 152.773 22.9056C152.773 22.9056 152.773 22.9056 152.773 22.9056C152.773 22.9056 152.773 22.9056 152.773 22.9056C152.773 22.9056 152.773 22.9056 152.773 22.9056H152.773H152.773H152.773H152.773H152.773H152.773H152.773H152.773H152.773H152.773C152.773 22.9056 152.773 22.9056 152.773 22.9056C152.773 22.9056 152.773 22.9056 152.773 22.9056C152.773 22.9056 152.773 22.9056 152.773 22.9056C152.773 22.9056 152.773 22.9056 152.773 22.9056C152.773 22.9056 152.773 22.9056 152.773 22.9056C152.773 22.9056 152.773 22.9056 152.773 22.9056C152.773 22.9056 152.773 22.9056 152.773 22.9056C152.773 22.9056 152.773 22.9056 152.773 22.9056C152.773 22.9056 152.773 22.9056 152.773 22.9056C152.773 22.9056 152.773 22.9056 152.773 22.9056C152.773 22.9056 152.773 22.9056 152.773 22.9056C152.773 22.9056 152.773 22.9056 152.773 22.9056C152.773 22.9056 152.773 22.9056 152.773 22.9056C152.773 22.9056 152.773 22.9056 152.773 22.9056C152.773 22.9056 152.773 22.9056 152.773 22.9056C152.773 22.9056 152.773 22.9056 152.773 22.9056C152.773 22.9056 152.773 22.9056 152.773 22.9056C152.773 22.9056 152.773 22.9056 152.773 22.9056C152.773 22.9056 152.773 22.9056 152.773 22.9056C152.773 22.9056 152.773 22.9056 152.773 22.9056C152.773 22.9056 152.773 22.9056 152.773 22.9056C152.773 22.9056 152.773 22.9056 152.773 22.9056H152.773H152.773H152.773H152.773H152.773H152.773H152.773H152.773H152.773H152.773H152.773C152.773 22.9056 152.773 22.9056 152.773 22.9056C152.773 22.9056 152.773 22.9056 152.773 22.9056C152.773 22.9056 152.773 22.9056 152.773 22.9056C152.773 22.9056 152.773 22.9056 152.773 22.9056C152.773 22.9056 152.773 22.9056 152.773 22.9056C152.773 22.9056 152.773 22.9056 152.773 22.9056C152.773 22.9056 152.773 22.9056 152.773 22.9056C152.773 22.9056 152.773 22.9056 152.773 22.9056C152.773 22.9056 152.773 22.9056 152.773 22.9056C152.773 22.9056 152.773 22.9056 152.773 22.9056C152.773 22.9056 152.773 22.9056 152.773 22.9056C152.773 22.9056 152.773 22.9056 152.773 22.9056C152.773 22.9056 152.773 22.9056 152.773 22.9056C152.773 22.9056 152.773 22.9056 152.773 22.9056C152.773 22.9056 152.773 22.9056 152.773 22.9056C152.773 22.9056 152.773 22.9056 152.773 22.9056C152.773 22.9056 152.773 22.9056 152.773 22.9056C152.773 22.9056 152.773 22.9056 152.773 22.9056C152.773 22.9056 152.773 22.9056 152.773 22.9056C152.773 22.9056 152.773 22.9056 152.773 22.9056C152.773 22.9056 152.773 22.9056 152.773 22.9056H152.773H152.773H152.773H152.773H152.773H152.773H152.773H152.773H152.773H152.773H152.773C152.773 22.9056 152.773 22.9056 152.773 22.9056C152.773 22.9056 152.773 22.9056 152.773 22.9056C152.773 22.9056 152.773 22.9056 152.773 22.9056C152.773 22.9056 152.773 22.9056 152.773 22.9056C152.773 22.9056 152.773 22.9056 152.773 22.9056C152.773 22.9056 152.773 22.9056 152.773 22.9056C152.773 22.9056 152.773 22.9056 152.773 22.9056C152.773 22.9056 152.773 22.9056 152.773 22.9056C152.773 22.9056 152.773 22.9056 152.773 22.9056C152.773 22.9056 152.773 22.9056 152.773 22.9056C152.773 22.9056 152.773 22.9056 152.773 22.9056C152.773 22.9056 152.773 22.9056 152.773 22.9056C152.773 22.9056 152.773 22.9056 152.773 22.9056C152.773 22.9056 152.773 22.9056 152.773 22.9056C152.773 22.9056 152.773 22.9056 152.773 22.9056C152.773 22.9056 152.773 22.9056 152.773 22.9056C152.773 22.9056 152.773 22.9056 152.773 22.9056C152.773 22.9056 152.773 22.9056 152.773 22.9056C152.773 22.9056 152.773 22.9056 152.773 22.9056C152.773 22.9056 152.773 22.9056 152.773 22.9056C152.773 22.9056 152.773 22.9056 152.773 22.9056H152.773H152.773H152.773H152.773H152.773H152.773H152.773H152.773H152.773H152.773H152.773C152.773 22.9056 152.773 22.9056 152.773 22.9056C152.773 22.9056 152.773 22.9056 152.773 22.9056C152.773 22.9056 152.773 22.9056 152.773 22.9056C152.773 22.9056 152.773 22.9056 152.773 22.9056C152.773 22.9056 152.773 22.9056 152.773 22.9056C152.773 22.9056 152.773 22.9056 152.773 22.9056C152.773 22.9056 152.773 22.9056 152.773 22.9056C152.773 22.9056 152.773 22.9056 152.773 22.9056C152.773 22.9056 152.773 22.9056 152.773 22.9056C152.773 22.9056 152.773 22.9056 152.773 22.9056C152.773 22.9056 152.773 22.9056 152.773 22.9056V25.4573C152.773 25.4573 152.773 25.4573 152.773 25.4573C152.773 25.4573 152.773 25.4573 152.773 25.4573C152.773 25.4573 152.773 25.4573 152.773 25.4573C152.773 25.4573 152.773 25.4573 152.773 25.4573C152.773 25.4573 152.773 25.4573 152.773 25.4573C152.773 25.4573 152.773 25.4573 152.773 25.4573C152.773 25.4573 152.773 25.4573 152.773 25.4573C152.773 25.4573 152.773 25.4573 152.773 25.4573C152.773 25.4573 152.773 25.4573 152.773 25.4573C152.773 25.4573 152.773 25.4573 152.773 25.4573C152.773 25.4573 152.773 25.4573 152.773 25.4573H152.773H152.773H152.773H152.773H152.773H152.773H152.773H152.773H152.773H152.773H152.773C152.773 25.4573 152.773 25.4573 152.773 25.4573C152.773 25.4573 152.773 25.4573 152.773 25.4573C152.773 25.4573 152.773 25.4573 152.773 25.4573C152.773 25.4573 152.773 25.4573 152.773 25.4573C152.773 25.4573 152.773 25.4573 152.773 25.4573C152.773 25.4573 152.773 25.4573 152.773 25.4573C152.773 25.4573 152.773 25.4573 152.773 25.4573C152.773 25.4573 152.773 25.4573 152.773 25.4573C152.773 25.4573 152.773 25.4573 152.773 25.4573C152.773 25.4573 152.773 25.4573 152.773 25.4573C152.773 25.4573 152.773 25.4573 152.773 25.4573C152.773 25.4573 152.773 25.4573 152.773 25.4573C152.773 25.4573 152.773 25.4573 152.773 25.4573C152.773 25.4573 152.773 25.4573 152.773 25.4573C152.773 25.4573 152.773 25.4573 152.773 25.4573C152.773 25.4573 152.773 25.4573 152.773 25.4573C152.773 25.4573 152.773 25.4573 152.773 25.4573C152.773 25.4573 152.773 25.4573 152.773 25.4573C152.773 25.4573 152.773 25.4573 152.773 25.4573C152.773 25.4573 152.773 25.4573 152.773 25.4573C152.773 25.4573 152.773 25.4573 152.773 25.4573H152.773H152.773H152.773H152.773H152.773H152.773H152.773H152.773H152.773H152.773H152.773C152.773 25.4573 152.773 25.4573 152.773 25.4573C152.773 25.4573 152.773 25.4573 152.773 25.4573C152.773 25.4573 152.773 25.4573 152.773 25.4573C152.773 25.4573 152.773 25.4573 152.773 25.4573C152.773 25.4573 152.773 25.4573 152.773 25.4573C152.773 25.4573 152.773 25.4573 152.773 25.4573C152.773 25.4573 152.773 25.4573 152.773 25.4573C152.773 25.4573 152.773 25.4573 152.773 25.4573C152.773 25.4573 152.773 25.4573 152.773 25.4573C152.773 25.4573 152.773 25.4573 152.773 25.4573C152.773 25.4573 152.773 25.4573 152.773 25.4573C152.773 25.4573 152.773 25.4573 152.773 25.4573C152.773 25.4573 152.773 25.4573 152.773 25.4573C152.773 25.4573 152.773 25.4573 152.773 25.4573C152.773 25.4573 152.773 25.4573 152.773 25.4573C152.773 25.4573 152.773 25.4573 152.773 25.4573C152.773 25.4573 152.773 25.4573 152.773 25.4573C152.773 25.4573 152.773 25.4573 152.773 25.4573C152.773 25.4573 152.773 25.4573 152.773 25.4573C152.773 25.4573 152.773 25.4573 152.773 25.4573C152.773 25.4573 152.773 25.4573 152.773 25.4573H152.773H152.773H152.773H152.773H152.773H152.773H152.773H152.773H152.773H152.773H152.773C152.773 25.4573 152.773 25.4573 152.773 25.4573C152.773 25.4573 152.773 25.4573 152.773 25.4573C152.773 25.4573 152.773 25.4573 152.773 25.4573C152.773 25.4573 152.773 25.4573 152.773 25.4573C152.773 25.4573 152.773 25.4573 152.773 25.4573C152.773 25.4573 152.773 25.4573 152.773 25.4573C152.773 25.4573 152.773 25.4573 152.773 25.4573C152.773 25.4573 152.773 25.4573 152.773 25.4573C152.773 25.4573 152.773 25.4573 152.773 25.4573C152.773 25.4573 152.773 25.4573 152.773 25.4573C152.773 25.4573 152.773 25.4573 152.773 25.4573C152.773 25.4573 152.773 25.4573 152.773 25.4573C152.773 25.4573 152.773 25.4573 152.773 25.4573C152.773 25.4573 152.773 25.4573 152.773 25.4573C152.773 25.4573 152.773 25.4573 152.773 25.4573C152.773 25.4573 152.773 25.4573 152.773 25.4573C152.773 25.4573 152.773 25.4573 152.773 25.4573C152.773 25.4573 152.773 25.4573 152.773 25.4573C152.773 25.4573 152.773 25.4573 152.773 25.4573C152.773 25.4573 152.773 25.4573 152.773 25.4573C152.773 25.4573 152.773 25.4573 152.773 25.4573C152.773 25.4573 152.773 25.4573 152.773 25.4573H152.773H152.773H152.773H152.773H152.773H152.773H152.773H152.773H152.773H152.773C152.773 25.4573 152.773 25.4573 152.773 25.4573C152.773 25.4573 152.773 25.4573 152.773 25.4573C152.773 25.4573 152.773 25.4573 152.773 25.4573C152.773 25.4573 152.773 25.4573 152.773 25.4573C152.773 25.4573 152.773 25.4573 152.773 25.4573C152.773 25.4573 152.773 25.4573 152.773 25.4573C152.773 25.4573 152.773 25.4573 152.773 25.4573C152.773 25.4573 152.773 25.4573 152.773 25.4573C152.773 25.4573 152.773 25.4573 152.773 25.4573C152.773 25.4573 152.773 25.4573 152.773 25.4573C152.773 25.4573 152.773 25.4573 152.773 25.4573V22.9056ZM152.773 22.9056C148.476 22.9056 144.992 26.3894 144.992 30.6869H147.544C147.544 27.7987 149.885 25.4573 152.773 25.4573V22.9056ZM144.992 30.6869C144.992 34.9844 148.476 38.4682 152.773 38.4682V35.9166C149.885 35.9166 147.544 33.5752 147.544 30.6869H144.992ZM152.773 38.4682C152.773 38.4682 152.773 38.4682 152.773 38.4682C152.773 38.4682 152.773 38.4682 152.773 38.4682C152.773 38.4682 152.773 38.4682 152.773 38.4682C152.773 38.4682 152.773 38.4682 152.773 38.4682C152.773 38.4682 152.773 38.4682 152.773 38.4682C152.773 38.4682 152.773 38.4682 152.773 38.4682C152.773 38.4682 152.773 38.4682 152.773 38.4682C152.773 38.4682 152.773 38.4682 152.773 38.4682C152.773 38.4682 152.773 38.4682 152.773 38.4682C152.773 38.4682 152.773 38.4682 152.773 38.4682C152.773 38.4682 152.773 38.4682 152.773 38.4682H152.773H152.773H152.773H152.773H152.773H152.773H152.773H152.773H152.773H152.773H152.773C152.773 38.4682 152.773 38.4682 152.773 38.4682C152.773 38.4682 152.773 38.4682 152.773 38.4682C152.773 38.4682 152.773 38.4682 152.773 38.4682C152.773 38.4682 152.773 38.4682 152.773 38.4682C152.773 38.4682 152.773 38.4682 152.773 38.4682C152.773 38.4682 152.773 38.4682 152.773 38.4682C152.773 38.4682 152.773 38.4682 152.773 38.4682C152.773 38.4682 152.773 38.4682 152.773 38.4682C152.773 38.4682 152.773 38.4682 152.773 38.4682C152.773 38.4682 152.773 38.4682 152.773 38.4682C152.773 38.4682 152.773 38.4682 152.773 38.4682C152.773 38.4682 152.773 38.4682 152.773 38.4682C152.773 38.4682 152.773 38.4682 152.773 38.4682C152.773 38.4682 152.773 38.4682 152.773 38.4682C152.773 38.4682 152.773 38.4682 152.773 38.4682C152.773 38.4682 152.773 38.4682 152.773 38.4682C152.773 38.4682 152.773 38.4682 152.773 38.4682C152.773 38.4682 152.773 38.4682 152.773 38.4682C152.773 38.4682 152.773 38.4682 152.773 38.4682C152.773 38.4682 152.773 38.4682 152.773 38.4682C152.773 38.4682 152.773 38.4682 152.773 38.4682H152.773H152.773H152.773H152.773H152.773H152.773H152.773H152.773H152.773H152.773H152.773C152.773 38.4682 152.773 38.4682 152.773 38.4682C152.773 38.4682 152.773 38.4682 152.773 38.4682C152.773 38.4682 152.773 38.4682 152.773 38.4682C152.773 38.4682 152.773 38.4682 152.773 38.4682C152.773 38.4682 152.773 38.4682 152.773 38.4682C152.773 38.4682 152.773 38.4682 152.773 38.4682C152.773 38.4682 152.773 38.4682 152.773 38.4682C152.773 38.4682 152.773 38.4682 152.773 38.4682C152.773 38.4682 152.773 38.4682 152.773 38.4682C152.773 38.4682 152.773 38.4682 152.773 38.4682C152.773 38.4682 152.773 38.4682 152.773 38.4682C152.773 38.4682 152.773 38.4682 152.773 38.4682C152.773 38.4682 152.773 38.4682 152.773 38.4682C152.773 38.4682 152.773 38.4682 152.773 38.4682C152.773 38.4682 152.773 38.4682 152.773 38.4682C152.773 38.4682 152.773 38.4682 152.773 38.4682C152.773 38.4682 152.773 38.4682 152.773 38.4682C152.773 38.4682 152.773 38.4682 152.773 38.4682C152.773 38.4682 152.773 38.4682 152.773 38.4682C152.773 38.4682 152.773 38.4682 152.773 38.4682C152.773 38.4682 152.773 38.4682 152.773 38.4682H152.773H152.773H152.773H152.773H152.773H152.773H152.773H152.773H152.773H152.773H152.773C152.773 38.4682 152.773 38.4682 152.773 38.4682C152.773 38.4682 152.773 38.4682 152.773 38.4682C152.773 38.4682 152.773 38.4682 152.773 38.4682C152.773 38.4682 152.773 38.4682 152.773 38.4682C152.773 38.4682 152.773 38.4682 152.773 38.4682C152.773 38.4682 152.773 38.4682 152.773 38.4682C152.773 38.4682 152.773 38.4682 152.773 38.4682C152.773 38.4682 152.773 38.4682 152.773 38.4682C152.773 38.4682 152.773 38.4682 152.773 38.4682C152.773 38.4682 152.773 38.4682 152.773 38.4682C152.773 38.4682 152.773 38.4682 152.773 38.4682C152.773 38.4682 152.773 38.4682 152.773 38.4682C152.773 38.4682 152.773 38.4682 152.773 38.4682C152.773 38.4682 152.773 38.4682 152.773 38.4682C152.773 38.4682 152.773 38.4682 152.773 38.4682C152.773 38.4682 152.773 38.4682 152.773 38.4682C152.773 38.4682 152.773 38.4682 152.773 38.4682C152.773 38.4682 152.773 38.4682 152.773 38.4682C152.773 38.4682 152.773 38.4682 152.773 38.4682C152.773 38.4682 152.773 38.4682 152.773 38.4682C152.773 38.4682 152.773 38.4682 152.773 38.4682C152.773 38.4682 152.773 38.4682 152.773 38.4682H152.773H152.773H152.773H152.773H152.773H152.773H152.773H152.773H152.773H152.773C152.773 38.4682 152.773 38.4682 152.773 38.4682C152.773 38.4682 152.773 38.4682 152.773 38.4682C152.773 38.4682 152.773 38.4682 152.773 38.4682C152.773 38.4682 152.773 38.4682 152.773 38.4682C152.773 38.4682 152.773 38.4682 152.773 38.4682C152.773 38.4682 152.773 38.4682 152.773 38.4682C152.773 38.4682 152.773 38.4682 152.773 38.4682C152.773 38.4682 152.773 38.4682 152.773 38.4682C152.773 38.4682 152.773 38.4682 152.773 38.4682C152.773 38.4682 152.773 38.4682 152.773 38.4682C152.773 38.4682 152.773 38.4682 152.773 38.4682V35.9166C152.773 35.9166 152.773 35.9166 152.773 35.9166C152.773 35.9166 152.773 35.9166 152.773 35.9166C152.773 35.9166 152.773 35.9166 152.773 35.9166C152.773 35.9166 152.773 35.9166 152.773 35.9166C152.773 35.9166 152.773 35.9166 152.773 35.9166C152.773 35.9166 152.773 35.9166 152.773 35.9166C152.773 35.9166 152.773 35.9166 152.773 35.9166C152.773 35.9166 152.773 35.9166 152.773 35.9166C152.773 35.9166 152.773 35.9166 152.773 35.9166C152.773 35.9166 152.773 35.9166 152.773 35.9166C152.773 35.9166 152.773 35.9166 152.773 35.9166H152.773H152.773H152.773H152.773H152.773H152.773H152.773H152.773H152.773H152.773C152.773 35.9166 152.773 35.9166 152.773 35.9166C152.773 35.9166 152.773 35.9166 152.773 35.9166C152.773 35.9166 152.773 35.9166 152.773 35.9166C152.773 35.9166 152.773 35.9166 152.773 35.9166C152.773 35.9166 152.773 35.9166 152.773 35.9166C152.773 35.9166 152.773 35.9166 152.773 35.9166C152.773 35.9166 152.773 35.9166 152.773 35.9166C152.773 35.9166 152.773 35.9166 152.773 35.9166C152.773 35.9166 152.773 35.9166 152.773 35.9166C152.773 35.9166 152.773 35.9166 152.773 35.9166C152.773 35.9166 152.773 35.9166 152.773 35.9166C152.773 35.9166 152.773 35.9166 152.773 35.9166C152.773 35.9166 152.773 35.9166 152.773 35.9166C152.773 35.9166 152.773 35.9166 152.773 35.9166C152.773 35.9166 152.773 35.9166 152.773 35.9166C152.773 35.9166 152.773 35.9166 152.773 35.9166C152.773 35.9166 152.773 35.9166 152.773 35.9166C152.773 35.9166 152.773 35.9166 152.773 35.9166C152.773 35.9166 152.773 35.9166 152.773 35.9166C152.773 35.9166 152.773 35.9166 152.773 35.9166C152.773 35.9166 152.773 35.9166 152.773 35.9166C152.773 35.9166 152.773 35.9166 152.773 35.9166H152.773H152.773H152.773H152.773H152.773H152.773H152.773H152.773H152.773H152.773H152.773C152.773 35.9166 152.773 35.9166 152.773 35.9166C152.773 35.9166 152.773 35.9166 152.773 35.9166C152.773 35.9166 152.773 35.9166 152.773 35.9166C152.773 35.9166 152.773 35.9166 152.773 35.9166C152.773 35.9166 152.773 35.9166 152.773 35.9166C152.773 35.9166 152.773 35.9166 152.773 35.9166C152.773 35.9166 152.773 35.9166 152.773 35.9166C152.773 35.9166 152.773 35.9166 152.773 35.9166C152.773 35.9166 152.773 35.9166 152.773 35.9166C152.773 35.9166 152.773 35.9166 152.773 35.9166C152.773 35.9166 152.773 35.9166 152.773 35.9166C152.773 35.9166 152.773 35.9166 152.773 35.9166C152.773 35.9166 152.773 35.9166 152.773 35.9166C152.773 35.9166 152.773 35.9166 152.773 35.9166C152.773 35.9166 152.773 35.9166 152.773 35.9166C152.773 35.9166 152.773 35.9166 152.773 35.9166C152.773 35.9166 152.773 35.9166 152.773 35.9166C152.773 35.9166 152.773 35.9166 152.773 35.9166C152.773 35.9166 152.773 35.9166 152.773 35.9166C152.773 35.9166 152.773 35.9166 152.773 35.9166C152.773 35.9166 152.773 35.9166 152.773 35.9166H152.773H152.773H152.773H152.773H152.773H152.773H152.773H152.773H152.773H152.773H152.773C152.773 35.9166 152.773 35.9166 152.773 35.9166C152.773 35.9166 152.773 35.9166 152.773 35.9166C152.773 35.9166 152.773 35.9166 152.773 35.9166C152.773 35.9166 152.773 35.9166 152.773 35.9166C152.773 35.9166 152.773 35.9166 152.773 35.9166C152.773 35.9166 152.773 35.9166 152.773 35.9166C152.773 35.9166 152.773 35.9166 152.773 35.9166C152.773 35.9166 152.773 35.9166 152.773 35.9166C152.773 35.9166 152.773 35.9166 152.773 35.9166C152.773 35.9166 152.773 35.9166 152.773 35.9166C152.773 35.9166 152.773 35.9166 152.773 35.9166C152.773 35.9166 152.773 35.9166 152.773 35.9166C152.773 35.9166 152.773 35.9166 152.773 35.9166C152.773 35.9166 152.773 35.9166 152.773 35.9166C152.773 35.9166 152.773 35.9166 152.773 35.9166C152.773 35.9166 152.773 35.9166 152.773 35.9166C152.773 35.9166 152.773 35.9166 152.773 35.9166C152.773 35.9166 152.773 35.9166 152.773 35.9166C152.773 35.9166 152.773 35.9166 152.773 35.9166C152.773 35.9166 152.773 35.9166 152.773 35.9166C152.773 35.9166 152.773 35.9166 152.773 35.9166H152.773H152.773H152.773H152.773H152.773H152.773H152.773H152.773H152.773H152.773H152.773C152.773 35.9166 152.773 35.9166 152.773 35.9166C152.773 35.9166 152.773 35.9166 152.773 35.9166C152.773 35.9166 152.773 35.9166 152.773 35.9166C152.773 35.9166 152.773 35.9166 152.773 35.9166C152.773 35.9166 152.773 35.9166 152.773 35.9166C152.773 35.9166 152.773 35.9166 152.773 35.9166C152.773 35.9166 152.773 35.9166 152.773 35.9166C152.773 35.9166 152.773 35.9166 152.773 35.9166C152.773 35.9166 152.773 35.9166 152.773 35.9166C152.773 35.9166 152.773 35.9166 152.773 35.9166C152.773 35.9166 152.773 35.9166 152.773 35.9166V38.4682ZM151.498 37.1924V42.8493H154.049V37.1924H151.498ZM151.498 42.8493C151.498 46.6782 154.602 49.7821 158.43 49.7821V47.2304C156.011 47.2304 154.049 45.2689 154.049 42.8493H151.498ZM158.43 49.7821H182.755V47.2304H158.43V49.7821ZM182.755 49.7821C186.584 49.7821 189.688 46.6782 189.688 42.8493H187.136C187.136 45.2689 185.175 47.2304 182.755 47.2304V49.7821ZM189.688 42.8493V37.1924H187.136V42.8493H189.688ZM188.412 35.9166H188.412V38.4683H188.412V35.9166ZM188.412 35.9166C185.524 35.9166 183.182 33.5752 183.182 30.6869H180.631C180.631 34.9844 184.115 38.4683 188.412 38.4683V35.9166ZM183.182 30.6869C183.182 27.7987 185.524 25.4573 188.412 25.4573V22.9056C184.115 22.9056 180.631 26.3894 180.631 30.6869H183.182ZM188.412 25.4573H188.412V22.9056H188.412V25.4573ZM189.688 24.1814V18.5244H187.136V24.1814H189.688ZM189.688 18.5244C189.688 14.6955 186.584 11.5916 182.755 11.5916V14.1433C185.175 14.1433 187.136 16.1048 187.136 18.5244H189.688ZM182.755 11.5916H176.25V14.1433H182.755V11.5916Z" fill="#171717" mask="url(#path-9-inside-1_210_3031)"/>
<circle cx="162.673" cy="23.8987" r="4.24271" fill="white"/>
<circle cx="161.097" cy="23.7773" r="2.66685" fill="#171717"/>
<circle cx="172.128" cy="23.8984" r="4.24271" fill="white"/>
<circle cx="170.553" cy="23.7773" r="2.66685" fill="#171717"/>
<circle cx="167.482" cy="28.4243" r="1.13139" fill="#171717"/>
</svg>
