<svg width="354" height="385" viewBox="0 0 354 385" fill="none" xmlns="http://www.w3.org/2000/svg">
<g clip-path="url(#clip0_210_1025)">
<path d="M144.465 92.5604V99.5901H115.524V111.106H141.921V118.136H115.524V135.613H107.79V92.5604H144.452H144.465Z" fill="#FF6F61"/>
<path d="M165.045 136.395C153.294 136.395 146.643 128.505 146.643 118.684C146.643 108.863 153.294 101.051 165.045 101.051C175.244 101.051 182.365 107.076 183.056 115.123V120.927H154.533C155.146 126.418 158.315 129.509 165.045 129.509C169.453 129.509 173.705 128.113 174.709 125.648H182.9C181.269 131.987 173.77 136.395 165.045 136.395ZM175.335 114.823C174.944 110.337 170.927 107.937 165.058 107.937C159.189 107.937 155.863 110.415 154.781 114.823H175.348H175.335Z" fill="#FF6F61"/>
<path d="M206.297 129.431C211.71 129.431 216.275 129.744 217.435 126.574C218.596 123.483 213.875 122.857 206.61 121.931C197.637 120.849 187.973 119.688 188.899 111.106C189.982 100.594 203.898 100.829 208.762 101.129C215.649 101.599 222.287 104.455 224.309 112.88H217.422C216.809 110.559 213.94 108.863 208.293 108.081C204.276 107.533 197.155 107.311 196.698 111.015C196.307 114.184 200.259 114.797 207.523 115.736C216.496 116.819 226.852 118.906 225.235 127.174C223.383 136.76 211.006 136.291 206.297 136.291C198.407 136.291 189.669 132.117 186.891 128.792L192.068 124.775C194.546 127.018 203.05 129.418 206.297 129.418V129.431Z" fill="#FF6F61"/>
<path d="M236.881 100.908V89.4696H244.694V100.908H251.958V107.09H244.694V135.613H236.881V107.09H229.226V100.908H236.881Z" fill="#FF6F61"/>
<path d="M262.431 89.0001C266.526 89.0001 268 91.0086 268 93.5648C268 96.1211 266.526 98.0513 262.431 98.0513C258.336 98.0513 257.019 96.0428 257.019 93.5648C257.019 91.0868 258.492 89.0001 262.431 89.0001Z" fill="#FF6F61"/>
<path d="M213.796 150.846V139.408H221.609V150.846H228.873V157.028H221.609V185.564H213.796V157.028H206.141V150.846H213.796Z" fill="#FF6F61"/>
<path d="M249.988 186.334C238.237 186.334 231.586 178.443 231.586 168.622C231.586 158.802 238.237 150.989 249.988 150.989C260.187 150.989 267.308 157.015 268 165.062V170.866H239.476C240.089 176.356 243.259 179.447 249.988 179.447C254.397 179.447 258.648 178.052 259.653 175.587H267.843C266.213 181.925 258.714 186.334 249.988 186.334ZM260.266 164.775C259.874 160.288 255.857 157.889 249.988 157.889C244.119 157.889 240.794 160.367 239.711 164.775H260.279H260.266Z" fill="#FF6F61"/>
<path d="M265.404 135.443L257.892 133.239L258.14 132.391C260.214 125.349 260.983 122.349 258.962 118.971C253.966 110.637 260.292 101.299 260.566 100.894L267.022 105.329C267.022 105.329 263.292 110.95 265.678 114.941C269.552 121.397 267.83 127.227 265.652 134.608L265.404 135.443Z" fill="#FF6F61"/>
<path d="M154.442 188.173L147.086 186.255C147.282 185.499 147.595 184.456 147.973 183.203C149.786 177.152 155.29 158.736 149.747 154.367C148.534 153.402 146.186 154.759 144.895 155.658C143.539 156.597 142.209 157.771 140.944 159.089C141.165 160.001 141.348 160.954 141.465 161.945C142.548 170.892 139.065 182.956 133.118 184.521C127.158 186.086 124.771 182.864 124.028 181.404C121.811 177.087 124.393 170.474 126.949 165.688C128.462 162.858 130.275 160.093 132.231 157.589C130.745 155.163 128.371 153.989 124.928 153.937C122.541 153.885 120.78 154.641 119.372 156.297C113.946 162.623 115.381 179.2 116.385 185.042L108.886 186.334C108.456 183.829 104.882 161.514 113.594 151.341C116.476 147.977 120.428 146.268 125.058 146.32C130.301 146.412 134.566 148.381 137.448 151.889C137.866 151.498 138.296 151.133 138.713 150.794C146.708 144.22 151.99 146.464 154.442 148.394C164.041 155.958 158.107 175.835 155.251 185.382C154.912 186.529 154.625 187.481 154.442 188.173ZM133.796 168.988C131.918 172.444 130.758 175.574 130.732 177.269C130.784 177.269 130.823 177.256 130.875 177.243C131.905 176.278 133.236 172.926 133.796 168.988Z" fill="#FF6F61"/>
<path d="M192.03 151.094V156.115C189.395 153.259 184.765 151.094 178.805 151.094C165.58 151.094 163.337 163.079 163.337 168.335V169.105C163.337 174.361 165.58 186.347 178.805 186.347C184.752 186.347 189.395 184.182 192.03 181.325V185.577H199.764V151.094H192.03ZM184.752 175.443L180.748 173.565L178.883 177.582L177.018 173.565L173.014 175.443L174.162 171.166L169.884 170.018L173.51 167.488L170.967 163.862L175.375 164.253L175.753 159.845L178.883 162.975L182.013 159.845L182.392 164.253L186.8 163.862L184.257 167.488L187.882 170.018L183.604 171.166L184.752 175.443Z" fill="#FF6F61"/>
</g>
<path d="M130.062 230.907V232.385H124.119V233.812H128.386V238.444H126.543V235.29H117.894V233.812H122.293V232.385H116.383V230.907H130.062ZM124.119 223.453V224.881H128.718V226.325H124.252C124.451 227.604 126.211 228.649 129.382 228.882L128.801 230.276C126.128 230.052 124.144 229.222 123.206 227.919C122.268 229.222 120.276 230.052 117.611 230.276L117.03 228.882C120.168 228.649 121.944 227.604 122.16 226.325H117.728V224.881H122.293V223.453H124.119ZM143.991 223.47V238.478H142.231V223.47H143.991ZM140.937 223.752V237.747H139.193V230.193H137.035V228.699H139.193V223.752H140.937ZM135.707 227.57C135.707 230.11 136.62 232.65 138.762 233.879L137.666 235.24C136.28 234.41 135.358 232.982 134.844 231.272C134.312 233.124 133.358 234.701 131.938 235.589L130.81 234.211C132.984 232.899 133.931 230.177 133.931 227.57V226.574H131.324V225.08H138.131V226.574H135.707V227.57ZM158.717 223.47V238.478H156.94V223.47H158.717ZM155.629 223.735V237.747H153.869V230.608H152.441C152.267 233.53 151.014 235.34 149.154 235.323C147.195 235.34 145.917 233.265 145.917 229.961C145.917 226.657 147.195 224.615 149.154 224.615C150.972 224.615 152.209 226.309 152.425 229.114H153.869V223.735H155.629ZM149.154 226.358C148.208 226.342 147.61 227.62 147.627 229.961C147.61 232.302 148.208 233.58 149.154 233.563C150.15 233.58 150.748 232.302 150.748 229.961C150.748 227.62 150.15 226.342 149.154 226.358ZM166.005 227.072C166.005 229.861 167.333 232.601 169.724 233.646L168.611 235.124C166.91 234.294 165.714 232.7 165.075 230.741C164.419 232.808 163.199 234.526 161.473 235.406L160.311 233.912C162.751 232.767 164.112 229.878 164.129 227.072V224.682H166.005V227.072ZM173.044 223.47V238.494H171.218V229.812H168.063V228.317H171.218V223.47H173.044ZM191.671 223.47V238.494H189.812V223.47H191.671ZM183.586 224.565C185.844 224.565 187.487 226.624 187.504 229.861C187.487 233.132 185.844 235.174 183.586 235.174C181.312 235.174 179.668 233.132 179.668 229.861C179.668 226.624 181.312 224.565 183.586 224.565ZM183.586 226.226C182.308 226.226 181.444 227.57 181.444 229.861C181.444 232.169 182.308 233.514 183.586 233.514C184.848 233.514 185.711 232.169 185.711 229.861C185.711 227.57 184.848 226.226 183.586 226.226ZM199.191 225.86C199.191 227.753 200.42 229.529 202.728 230.26L201.731 231.704C200.113 231.156 198.951 230.061 198.312 228.666C197.647 230.26 196.436 231.513 194.709 232.119L193.713 230.675C196.137 229.828 197.332 227.836 197.349 225.694V224.267H199.191V225.86ZM205.716 223.47V227.122H207.808V228.649H205.716V232.451H203.873V223.47H205.716ZM200.835 232.783C203.939 232.767 205.849 233.829 205.865 235.605C205.849 237.415 203.939 238.461 200.835 238.461C197.697 238.461 195.755 237.415 195.755 235.605C195.755 233.829 197.697 232.767 200.835 232.783ZM200.835 234.228C198.776 234.228 197.598 234.726 197.598 235.605C197.598 236.535 198.776 237 200.835 237C202.894 237 204.039 236.535 204.039 235.605C204.039 234.726 202.894 234.228 200.835 234.228ZM216.988 224.964V226.425H208.604V224.964H211.958V223.337H213.801V224.964H216.988ZM212.854 227.022C214.896 227.022 216.357 228.151 216.374 229.828C216.357 231.488 214.896 232.601 212.854 232.601C210.812 232.601 209.368 231.488 209.385 229.828C209.368 228.151 210.812 227.022 212.854 227.022ZM212.854 228.4C211.792 228.4 211.095 228.932 211.111 229.828C211.095 230.708 211.792 231.223 212.854 231.223C213.917 231.223 214.647 230.708 214.647 229.828C214.647 228.932 213.917 228.4 212.854 228.4ZM221.139 223.47V233.082H219.296V231.322H217.071V229.845H219.296V228.367H217.088V226.873H219.296V223.47H221.139ZM216.092 233.248C219.263 233.248 221.222 234.211 221.222 235.854C221.222 237.481 219.263 238.461 216.092 238.461C212.921 238.461 210.962 237.481 210.962 235.854C210.962 234.211 212.921 233.248 216.092 233.248ZM216.092 234.659C214.066 234.659 212.904 235.058 212.904 235.854C212.904 236.635 214.066 237.05 216.092 237.05C218.101 237.05 219.246 236.635 219.246 235.854C219.246 235.058 218.101 234.659 216.092 234.659ZM232.693 226.541C232.693 228.151 233.905 229.729 236.263 230.359L235.433 231.771C233.689 231.314 232.461 230.318 231.797 229.031C231.125 230.442 229.863 231.538 228.095 232.053L227.215 230.592C229.589 229.961 230.851 228.301 230.851 226.541V226.491H227.713V225.03H230.851V223.403H232.71V225.03H235.831V226.491H232.693V226.541ZM239.135 223.47V226.956H241.227V228.483H239.135V232.069H237.292V223.47H239.135ZM239.351 232.767V234.244H235.383C235.731 235.489 237.417 236.651 239.981 237.017L239.317 238.428C236.968 238.096 235.192 237.091 234.32 235.722C233.457 237.083 231.697 238.062 229.373 238.395L228.692 237C231.266 236.643 232.934 235.522 233.291 234.244H229.307V232.767H239.351ZM254.524 223.47V238.478H252.665V223.47H254.524ZM250.042 225.063C250.042 229.529 248.315 233.331 243.053 235.821L242.09 234.344C246.016 232.476 247.842 229.936 248.166 226.524H242.854V225.063H250.042ZM259.771 224.98L259.588 233.464H257.712L257.513 224.98H259.771ZM258.658 237.133C257.944 237.133 257.363 236.552 257.363 235.838C257.363 235.141 257.944 234.56 258.658 234.56C259.339 234.56 259.937 235.141 259.937 235.838C259.937 236.552 259.339 237.133 258.658 237.133ZM110.539 247.47V262.478H108.763V254.891H107.103V261.714H105.376V247.752H107.103V253.38H108.763V247.47H110.539ZM100.163 249.196V257.115C101.458 257.09 102.877 256.982 104.446 256.667L104.629 258.277C102.604 258.643 100.894 258.742 99.2998 258.742H98.3037V249.196H100.163ZM125.397 249.047V250.491H122.293C122.326 251.786 123.513 252.94 125.729 253.38L124.999 254.808C123.281 254.451 122.061 253.646 121.396 252.566C120.741 253.745 119.512 254.633 117.744 255.007L116.964 253.579C119.213 253.139 120.409 251.869 120.434 250.491H117.346V249.047H120.45V247.503H122.293V249.047H125.397ZM128.934 247.486V262.461H127.107V247.486H128.934ZM116.399 255.787C119.188 255.787 122.924 255.771 126.128 255.372L126.261 256.7C124.966 256.924 123.621 257.065 122.31 257.148V262.013H120.45V257.248C119.081 257.306 117.777 257.314 116.632 257.314L116.399 255.787ZM144.954 249.811V251.321H142.912V253.031H144.954V254.542H142.912V257.049H141.069V247.47H142.912V249.811H144.954ZM138.064 257.182C141.136 257.182 143.078 258.161 143.078 259.821C143.078 261.465 141.136 262.461 138.064 262.461C134.943 262.461 133.034 261.465 133.051 259.821C133.034 258.161 134.943 257.182 138.064 257.182ZM138.064 258.593C136.006 258.593 134.86 258.991 134.877 259.821C134.86 260.618 136.006 261.066 138.064 261.066C140.09 261.066 141.235 260.618 141.235 259.821C141.235 258.991 140.09 258.593 138.064 258.593ZM139.99 248.997V250.441H131.092V248.997H134.628V247.37H136.471V248.997H139.99ZM135.541 251.039C137.716 251.039 139.193 252.118 139.21 253.729C139.193 255.339 137.716 256.401 135.541 256.401C133.35 256.401 131.855 255.339 131.855 253.729C131.855 252.118 133.35 251.039 135.541 251.039ZM135.541 252.4C134.396 252.4 133.648 252.898 133.648 253.729C133.648 254.542 134.396 255.007 135.541 255.007C136.687 255.007 137.45 254.542 137.45 253.729C137.45 252.898 136.687 252.4 135.541 252.4ZM158.717 247.47V262.478H156.94V247.47H158.717ZM155.629 247.735V261.747H153.869V254.608H152.441C152.267 257.53 151.014 259.34 149.154 259.323C147.195 259.34 145.917 257.265 145.917 253.961C145.917 250.657 147.195 248.615 149.154 248.615C150.972 248.615 152.209 250.309 152.425 253.114H153.869V247.735H155.629ZM149.154 250.358C148.208 250.342 147.61 251.62 147.627 253.961C147.61 256.302 148.208 257.58 149.154 257.563C150.15 257.58 150.748 256.302 150.748 253.961C150.748 251.62 150.15 250.342 149.154 250.358ZM172.114 248.466V254.99H165.009V248.466H172.114ZM166.818 249.943V253.513H170.305V249.943H166.818ZM176.331 247.47V250.84H178.423V252.367H176.331V255.937H174.488V247.47H176.331ZM176.547 256.7V258.161H172.562C172.853 259.439 174.555 260.643 177.178 261.017L176.514 262.428C174.173 262.096 172.388 261.091 171.533 259.738C170.662 261.091 168.91 262.087 166.569 262.395L165.889 261C168.537 260.643 170.197 259.473 170.504 258.161H166.503V256.7H176.547ZM191.339 251.72V253.181H180.946V248.018H182.772V251.72H191.339ZM192.883 254.924V256.385H179.17V254.924H192.883ZM191.438 260.635V262.129H180.813V257.713H182.656V260.635H191.438ZM210.862 247.47V262.478H209.086V254.791H207.492V261.747H205.749V247.735H207.492V253.264H209.086V247.47H210.862ZM204.271 249.097V258.609H198.378V249.097H204.271ZM200.104 250.558V257.148H202.545V250.558H200.104ZM221.504 249.146V250.607H218.3C218.308 252.276 219.62 253.911 222.019 254.542L221.155 255.97C219.412 255.513 218.134 254.484 217.437 253.164C216.756 254.633 215.478 255.787 213.685 256.318L212.788 254.891C215.17 254.193 216.449 252.409 216.457 250.607H213.253V249.146H216.457V247.486H218.316V249.146H221.504ZM225.106 247.486V256.584H223.247V247.486H225.106ZM220.026 256.85C223.181 256.85 225.14 257.879 225.14 259.655C225.14 261.432 223.181 262.461 220.026 262.461C216.839 262.461 214.896 261.432 214.896 259.655C214.896 257.879 216.839 256.85 220.026 256.85ZM220.026 258.277C217.901 258.277 216.756 258.775 216.756 259.655C216.756 260.552 217.901 261.033 220.026 261.033C222.135 261.033 223.313 260.552 223.33 259.655C223.313 258.775 222.135 258.277 220.026 258.277ZM236.877 251.072C236.877 253.861 238.205 256.601 240.596 257.646L239.483 259.124C237.782 258.294 236.586 256.7 235.947 254.741C235.292 256.808 234.071 258.526 232.345 259.406L231.183 257.912C233.623 256.767 234.984 253.878 235.001 251.072V248.682H236.877V251.072ZM243.916 247.47V262.494H242.09V253.812H238.936V252.317H242.09V247.47H243.916ZM258.509 247.47V262.494H256.649V247.47H258.509ZM248.664 248.698V252.45H252.3V248.698H254.126V258.958H246.821V248.698H248.664ZM248.664 257.447H252.3V253.895H248.664V257.447ZM268.47 249.528C268.47 251.853 270.744 254.177 273.882 254.725L273.052 256.269C270.537 255.737 268.478 254.218 267.507 252.201C266.511 254.202 264.452 255.729 261.945 256.269L261.132 254.725C264.236 254.16 266.494 251.836 266.511 249.528V248.416H268.47V249.528ZM274.43 259.041V260.568H260.717V259.041H274.43ZM278.497 248.98L278.314 257.464H276.438L276.239 248.98H278.497ZM277.385 261.133C276.671 261.133 276.09 260.552 276.09 259.838C276.09 259.141 276.671 258.56 277.385 258.56C278.065 258.56 278.663 259.141 278.663 259.838C278.663 260.552 278.065 261.133 277.385 261.133Z" fill="#171717"/>
<rect x="32" y="296.494" width="10" height="51.1134" transform="rotate(-34.1808 32 296.494)" fill="url(#paint0_linear_210_1025)"/>
<rect x="247" y="6.49445" width="10" height="51.1134" transform="rotate(-34.1808 247 6.49445)" fill="url(#paint1_linear_210_1025)"/>
<rect x="344.18" y="177" width="10" height="51.1134" transform="rotate(25.7174 344.18 177)" fill="url(#paint2_linear_210_1025)"/>
<path d="M329.43 332.805C314.398 329.021 282.985 328.543 277.588 356.904C270.843 392.354 311.868 379.886 302.198 357.694C294.147 339.216 272.092 329.828 255.473 350.566C252.394 354.408 246.209 364.155 248.855 375.709" stroke="url(#paint3_linear_210_1025)" stroke-width="10"/>
<circle cx="118" cy="362" r="5" fill="#FEE500"/>
<circle cx="343" cy="303" r="5" transform="rotate(-60.8959 343 303)" fill="url(#paint4_linear_210_1025)"/>
<circle cx="62" cy="54" r="5" fill="url(#paint5_linear_210_1025)"/>
<path d="M-8 139.409C1.66667 136.575 21.2 136.109 22 156.909C23 182.909 47 174.409 49.5 156.909" stroke="url(#paint6_linear_210_1025)" stroke-width="10"/>
<defs>
<linearGradient id="paint0_linear_210_1025" x1="37" y1="296.494" x2="37" y2="347.608" gradientUnits="userSpaceOnUse">
<stop stop-color="#FF6F61"/>
<stop offset="1" stop-color="white"/>
</linearGradient>
<linearGradient id="paint1_linear_210_1025" x1="252" y1="6.49445" x2="252" y2="57.6079" gradientUnits="userSpaceOnUse">
<stop stop-color="#FF6F61"/>
<stop offset="1" stop-color="white"/>
</linearGradient>
<linearGradient id="paint2_linear_210_1025" x1="349.18" y1="177" x2="349.18" y2="228.113" gradientUnits="userSpaceOnUse">
<stop stop-color="#0086FF"/>
<stop offset="1" stop-color="white"/>
</linearGradient>
<linearGradient id="paint3_linear_210_1025" x1="329" y1="341" x2="253.5" y2="385.5" gradientUnits="userSpaceOnUse">
<stop stop-color="#FF6F61"/>
<stop offset="1" stop-color="white"/>
</linearGradient>
<linearGradient id="paint4_linear_210_1025" x1="343" y1="298" x2="343" y2="308" gradientUnits="userSpaceOnUse">
<stop stop-color="#FF6F61"/>
<stop offset="1" stop-color="white"/>
</linearGradient>
<linearGradient id="paint5_linear_210_1025" x1="62" y1="49" x2="62" y2="59" gradientUnits="userSpaceOnUse">
<stop stop-color="#FF6F61"/>
<stop offset="1" stop-color="white"/>
</linearGradient>
<linearGradient id="paint6_linear_210_1025" x1="-8" y1="155.909" x2="48.2424" y2="192.484" gradientUnits="userSpaceOnUse">
<stop stop-color="#FFDF45"/>
<stop offset="1" stop-color="white"/>
</linearGradient>
<clipPath id="clip0_210_1025">
<rect width="160" height="98.8618" fill="white" transform="translate(108 89)"/>
</clipPath>
</defs>
</svg>
