<svg width="321" height="479" viewBox="0 0 321 479" fill="none" xmlns="http://www.w3.org/2000/svg">
<mask id="path-1-inside-1_890_3349" fill="white">
<path fill-rule="evenodd" clip-rule="evenodd" d="M139.389 0C142.823 0 145.958 1.95432 147.47 5.03779L153.933 18.2188C155.445 21.3022 158.58 23.2566 162.014 23.2566H312C316.971 23.2566 321 27.286 321 32.2566V469.257C321 474.227 316.971 478.257 312 478.257H9C4.02943 478.257 0 474.227 0 469.257V46.9085V23.2566V9C0 4.02944 4.02943 0 9 0H139.389Z"/>
</mask>
<path fill-rule="evenodd" clip-rule="evenodd" d="M139.389 0C142.823 0 145.958 1.95432 147.47 5.03779L153.933 18.2188C155.445 21.3022 158.58 23.2566 162.014 23.2566H312C316.971 23.2566 321 27.286 321 32.2566V469.257C321 474.227 316.971 478.257 312 478.257H9C4.02943 478.257 0 474.227 0 469.257V46.9085V23.2566V9C0 4.02944 4.02943 0 9 0H139.389Z" fill="white"/>
<path d="M147.47 5.03779L148.368 4.59755L147.47 5.03779ZM153.933 18.2188L153.035 18.659L153.933 18.2188ZM154.831 17.7785L148.368 4.59755L146.572 5.47804L153.035 18.659L154.831 17.7785ZM162.014 24.2566H312V22.2566H162.014V24.2566ZM320 32.2566V469.257H322V32.2566H320ZM312 477.257H9V479.257H312V477.257ZM1 469.257V46.9085H-1V469.257H1ZM1 46.9085V23.2566H-1V46.9085H1ZM-1 9V23.2566H1V9H-1ZM139.389 -1H9V1H139.389V-1ZM1 9C1 4.58172 4.58172 1 9 1V-1C3.47715 -1 -1 3.47715 -1 9H1ZM9 477.257C4.58172 477.257 1 473.675 1 469.257H-1C-1 474.779 3.47715 479.257 9 479.257V477.257ZM320 469.257C320 473.675 316.418 477.257 312 477.257V479.257C317.523 479.257 322 474.779 322 469.257H320ZM312 24.2566C316.418 24.2566 320 27.8383 320 32.2566H322C322 26.7337 317.523 22.2566 312 22.2566V24.2566ZM148.368 4.59755C146.688 1.17147 143.205 -1 139.389 -1V1C142.442 1 145.228 2.73718 146.572 5.47804L148.368 4.59755ZM153.035 18.659C154.715 22.0851 158.198 24.2566 162.014 24.2566V22.2566C158.961 22.2566 156.175 20.5194 154.831 17.7785L153.035 18.659Z" fill="#D5D5DE" mask="url(#path-1-inside-1_890_3349)"/>
<path fill-rule="evenodd" clip-rule="evenodd" d="M165.013 448.951C164.677 448.924 164.166 449.06 163.708 449.93C162.766 451.721 163.155 453.413 163.395 454.453C163.41 454.518 163.424 454.581 163.438 454.642L161.857 454.996C161.843 454.935 161.827 454.868 161.81 454.795C161.565 453.75 161.042 451.518 162.274 449.177C162.967 447.858 164.03 447.247 165.144 447.337C165.835 447.393 166.463 447.716 166.935 448.178C167.198 448.036 167.489 447.912 167.811 447.813C168.42 447.626 168.988 447.603 169.5 447.744C170.014 447.886 170.413 448.177 170.706 448.519C171.27 449.176 171.472 450.048 171.46 450.661C171.433 452.079 170.963 453.606 170.53 455.012L170.516 455.057L168.968 454.581C169.422 453.103 169.818 451.79 169.84 450.63C169.846 450.324 169.727 449.866 169.476 449.572C169.361 449.439 169.229 449.349 169.069 449.305C168.907 449.26 168.659 449.246 168.289 449.36C168.093 449.42 167.915 449.494 167.753 449.578C167.819 449.798 167.874 450.035 167.919 450.273C168.014 450.775 168.075 451.348 168.077 451.9C168.078 452.44 168.023 453.023 167.842 453.51C167.663 453.991 167.273 454.581 166.513 454.665C166.239 454.695 165.702 454.752 165.244 454.428C164.765 454.091 164.609 453.525 164.549 452.99C164.518 452.717 164.488 451.727 164.865 450.661C165.035 450.181 165.291 449.678 165.669 449.219C165.471 449.067 165.239 448.969 165.013 448.951ZM166.412 451.148C166.406 451.166 166.399 451.183 166.393 451.201C166.258 451.583 166.195 451.959 166.168 452.262C166.156 452.412 166.152 452.541 166.153 452.639C166.153 452.688 166.154 452.728 166.156 452.758C166.156 452.773 166.157 452.785 166.158 452.794C166.158 452.799 166.159 452.802 166.159 452.805C166.159 452.807 166.159 452.808 166.159 452.808L166.159 452.808C166.173 452.927 166.189 453.01 166.204 453.068C166.223 453.067 166.245 453.065 166.271 453.063C166.284 453.04 166.302 453.004 166.323 452.947C166.406 452.722 166.458 452.361 166.457 451.905C166.456 451.657 166.44 451.4 166.412 451.148ZM166.247 453.094C166.247 453.093 166.25 453.089 166.257 453.084C166.251 453.092 166.247 453.095 166.247 453.094Z" fill="#FF998F"/>
<path d="M192.334 449.848C192.197 449.614 192.017 449.411 191.792 449.239C191.566 449.067 191.307 448.953 191.012 448.898C190.727 448.84 190.423 448.869 190.1 448.986C189.786 449.1 189.523 449.272 189.312 449.501C189.11 449.727 188.966 449.987 188.88 450.282C188.792 450.568 188.768 450.851 188.808 451.13L192.334 449.848ZM193.298 448.356C193.587 448.647 193.815 448.98 193.983 449.355C194.156 449.719 194.289 450.071 194.383 450.412L194.432 450.547L189.279 452.421C189.431 452.7 189.644 452.922 189.917 453.087C190.187 453.242 190.477 453.34 190.786 453.38C191.092 453.41 191.384 453.375 191.662 453.274C192.119 453.108 192.437 452.906 192.615 452.669C192.801 452.429 192.916 452.214 192.959 452.026L192.968 452.008L194.659 452.048C194.61 452.583 194.383 453.102 193.977 453.605C193.567 454.099 192.972 454.487 192.192 454.771C191.51 455.019 190.849 455.087 190.209 454.975C189.566 454.853 188.996 454.573 188.501 454.134C188.006 453.695 187.631 453.126 187.376 452.427C187.118 451.719 187.038 451.038 187.135 450.384C187.228 449.721 187.484 449.141 187.902 448.644C188.317 448.138 188.866 447.761 189.547 447.513C190.22 447.268 190.827 447.205 191.368 447.323C191.914 447.428 192.344 447.592 192.659 447.812C192.973 448.033 193.181 448.216 193.285 448.361L193.298 448.356Z" fill="#FF998F"/>
<path d="M186.518 454.644C186.289 454.758 186.069 454.839 185.859 454.887C185.649 454.944 185.358 454.973 184.986 454.973C184.527 454.973 184.117 454.868 183.754 454.658C183.392 454.439 183.11 454.134 182.909 453.743C182.709 453.352 182.609 452.908 182.609 452.412V445.089H184.556V452.412C184.556 452.651 184.613 452.856 184.728 453.028C184.852 453.199 185.005 453.29 185.186 453.299C185.415 453.328 185.687 453.256 186.002 453.085L186.017 453.07L186.675 454.572L186.518 454.644ZM181.234 447.435H186.489V448.994H181.234V447.435Z" fill="#FF998F"/>
<path d="M176.239 453.542C176.592 453.542 176.921 453.442 177.227 453.242C177.532 453.042 177.776 452.765 177.957 452.412C178.138 452.06 178.229 451.669 178.229 451.24C178.229 450.82 178.138 450.434 177.957 450.081C177.776 449.728 177.532 449.451 177.227 449.251C176.921 449.051 176.592 448.951 176.239 448.951C175.866 448.951 175.537 449.046 175.251 449.237C174.974 449.418 174.754 449.685 174.592 450.038C174.439 450.381 174.363 450.782 174.363 451.24C174.363 451.707 174.439 452.117 174.592 452.47C174.754 452.813 174.974 453.08 175.251 453.271C175.537 453.452 175.866 453.542 176.239 453.542ZM180.176 454.973L178.229 454.987V454.029C178.038 454.267 177.823 454.468 177.585 454.63C177.356 454.782 177.107 454.897 176.84 454.973C176.582 455.059 176.32 455.102 176.053 455.102C175.346 455.102 174.716 454.94 174.162 454.615C173.609 454.282 173.179 453.824 172.874 453.242C172.568 452.66 172.416 451.993 172.416 451.24C172.416 450.496 172.568 449.833 172.874 449.251C173.179 448.669 173.609 448.217 174.162 447.892C174.716 447.559 175.346 447.392 176.053 447.392C176.463 447.392 176.859 447.482 177.241 447.663C177.623 447.845 177.952 448.112 178.229 448.464V447.363H180.176V454.973Z" fill="#FF998F"/>
<path d="M160.511 447.277V455.045H158.564V447.277H160.511Z" fill="#FF998F"/>
<path d="M157.232 454.644C157.003 454.758 156.783 454.839 156.573 454.887C156.363 454.944 156.072 454.973 155.7 454.973C155.242 454.973 154.831 454.868 154.468 454.658C154.106 454.439 153.824 454.134 153.624 453.743C153.423 453.352 153.323 452.908 153.323 452.412V445.089H155.27V452.412C155.27 452.651 155.327 452.856 155.442 453.028C155.566 453.199 155.719 453.29 155.9 453.299C156.129 453.328 156.401 453.256 156.716 453.085L156.731 453.07L157.389 454.572L157.232 454.644ZM151.948 447.435H157.203V448.994H151.948V447.435Z" fill="#FF998F"/>
<path d="M146.291 452.519C146.511 452.777 146.773 452.982 147.079 453.134C147.394 453.287 147.68 453.363 147.938 453.363C148.281 453.363 148.563 453.287 148.783 453.134C149.002 452.972 149.112 452.767 149.112 452.519C149.112 452.414 149.059 452.324 148.954 452.247C148.859 452.162 148.716 452.085 148.525 452.019C148.343 451.952 148.133 451.88 147.895 451.804C147.341 451.632 146.878 451.465 146.506 451.303C146.143 451.141 145.823 450.908 145.546 450.602C145.279 450.288 145.146 449.892 145.146 449.415C145.146 448.967 145.27 448.571 145.518 448.228C145.766 447.875 146.11 447.599 146.549 447.398C146.997 447.198 147.499 447.098 148.052 447.098C148.52 447.098 148.993 447.208 149.47 447.427C149.947 447.637 150.339 447.918 150.644 448.271L149.413 449.387C149.231 449.167 149.016 448.996 148.768 448.872C148.52 448.738 148.281 448.671 148.052 448.671C147.775 448.671 147.546 448.738 147.365 448.872C147.184 448.996 147.093 449.162 147.093 449.372C147.093 449.487 147.145 449.587 147.25 449.673C147.365 449.758 147.518 449.84 147.709 449.916C147.909 449.983 148.133 450.054 148.382 450.13C148.926 450.302 149.374 450.469 149.728 450.631C150.09 450.784 150.401 451.013 150.658 451.318C150.926 451.613 151.059 451.995 151.059 452.462C151.059 452.948 150.926 453.377 150.658 453.749C150.401 454.121 150.033 454.412 149.556 454.622C149.088 454.832 148.549 454.937 147.938 454.937C147.432 454.937 146.907 454.817 146.363 454.579C145.828 454.341 145.384 454.026 145.031 453.635L146.291 452.519Z" fill="#FF998F"/>
<path d="M142.407 450.453C142.359 450.186 142.259 449.933 142.106 449.695C141.953 449.456 141.748 449.261 141.49 449.108C141.242 448.956 140.946 448.879 140.603 448.879C140.269 448.879 139.963 448.951 139.686 449.094C139.419 449.237 139.195 449.432 139.013 449.68C138.832 449.919 138.713 450.176 138.655 450.453H142.407ZM143.824 449.38C143.996 449.752 144.097 450.143 144.125 450.553C144.163 450.954 144.168 451.33 144.139 451.683V451.826H138.655C138.703 452.141 138.827 452.422 139.028 452.67C139.228 452.908 139.467 453.099 139.744 453.242C140.02 453.376 140.307 453.442 140.603 453.442C141.09 453.442 141.457 453.361 141.705 453.199C141.963 453.037 142.144 452.875 142.249 452.713L142.264 452.699L143.839 453.314C143.61 453.8 143.218 454.21 142.665 454.544C142.111 454.868 141.419 455.03 140.588 455.03C139.863 455.03 139.219 454.868 138.655 454.544C138.092 454.21 137.653 453.752 137.338 453.171C137.023 452.589 136.865 451.926 136.865 451.182C136.865 450.429 137.023 449.761 137.338 449.18C137.653 448.589 138.092 448.131 138.655 447.807C139.219 447.473 139.863 447.306 140.588 447.306C141.304 447.306 141.896 447.454 142.364 447.749C142.841 448.035 143.19 448.336 143.409 448.651C143.629 448.965 143.762 449.208 143.81 449.38H143.824Z" fill="#FF998F"/>
<path d="M136.632 445.918H130.947V448.779H135.744V450.438H130.947V454.987H129V444.259H136.632V445.918Z" fill="#FF998F"/>
<ellipse cx="159.533" cy="445.641" rx="0.972235" ry="0.971246" fill="#FF998F"/>
<path d="M89.0669 368.176V369.293H84.522V370.397H87.7847V374.13H86.3755V371.54H79.7612V370.397H83.1255V369.293H78.606V368.176H89.0669ZM81.3608 362.933V364.075H86.312V362.933H87.7085V367.325H79.9644V362.933H81.3608ZM81.3608 366.195H86.312V365.129H81.3608V366.195ZM94.0562 364.621C94.0562 366.018 94.9829 367.427 96.7603 368.023L96.0493 369.115C94.7671 368.696 93.8594 367.827 93.3579 366.754C92.8565 367.954 91.898 368.918 90.5396 369.369L89.8159 368.252C91.6441 367.655 92.6216 366.132 92.6216 364.634V364.481H90.2349V363.352H96.4302V364.481H94.0562V364.621ZM99.4517 370.042V374.13H98.0425V371.172H91.6314V370.042H99.4517ZM99.4517 362.653V369.496H98.0425V366.652H96.0874V365.497H98.0425V362.653H99.4517ZM110.624 362.653V374.143H109.202V362.653H110.624ZM104.441 363.491C106.167 363.491 107.424 365.065 107.437 367.541C107.424 370.042 106.167 371.604 104.441 371.604C102.702 371.604 101.445 370.042 101.445 367.541C101.445 365.065 102.702 363.491 104.441 363.491ZM104.441 364.761C103.463 364.761 102.803 365.789 102.803 367.541C102.803 369.306 103.463 370.334 104.441 370.334C105.406 370.334 106.066 369.306 106.066 367.541C106.066 365.789 105.406 364.761 104.441 364.761ZM121.605 365.903V367.021H113.658V363.072H115.054V365.903H121.605ZM122.786 368.354V369.471H112.299V368.354H122.786ZM121.681 372.721V373.863H113.556V370.486H114.965V372.721H121.681ZM135.798 363.199V364.063C135.798 364.938 135.798 365.929 135.519 367.224L134.11 367.084C134.364 365.935 134.389 365.084 134.389 364.304H127.851V363.199H135.798ZM137.068 367.909V369.026H126.658V367.909H130.695V365.713H132.091V367.909H137.068ZM132.523 370.207C132.523 371.502 133.919 372.683 136.332 372.987L135.811 374.066C133.945 373.812 132.523 373.038 131.812 371.934C131.095 373.038 129.673 373.812 127.826 374.066L127.318 372.987C129.692 372.683 131.088 371.502 131.101 370.207V369.788H132.523V370.207ZM148.354 371.591V372.746H137.868V371.591H142.387V369.356H139.023V363.415H140.432V365.294H145.751V363.415H147.161V369.356H143.784V371.591H148.354ZM140.432 368.214H145.751V366.424H140.432V368.214ZM158.091 362.653V367.008H159.856V368.163H158.091V374.143H156.682V362.653H158.091ZM154.943 363.745V364.888H150.982V370.156C152.766 370.156 154.175 370.067 155.755 369.788L155.92 370.981C154.143 371.286 152.594 371.337 150.525 371.337H149.573V363.745H154.943ZM169.631 365.903V367.021H161.684V363.072H163.081V365.903H169.631ZM170.812 368.354V369.471H160.326V368.354H170.812ZM169.708 372.721V373.863H161.583V370.486H162.992V372.721H169.708ZM185.145 371.591V372.746H174.659V371.591H179.191V368.95H180.6V371.591H185.145ZM184.244 363.58V364.735H180.625C180.67 366.386 182.371 367.903 184.726 368.252L184.167 369.369C182.225 369.014 180.638 367.992 179.902 366.563C179.159 368.011 177.585 369.071 175.674 369.433L175.116 368.315C177.407 367.928 179.096 366.386 179.14 364.735H175.535V363.58H184.244ZM196.355 368.176V369.306H185.894V368.176H188.332V366.716C187.468 366.354 186.973 365.776 186.973 365.027C186.973 363.656 188.585 362.844 191.112 362.844C193.638 362.844 195.238 363.656 195.25 365.027C195.244 365.783 194.749 366.36 193.879 366.716V368.176H196.355ZM191.112 370.004C193.587 369.991 195.073 370.728 195.085 372.048C195.073 373.381 193.587 374.104 191.112 374.104C188.611 374.104 187.113 373.381 187.113 372.048C187.113 370.728 188.611 369.991 191.112 370.004ZM191.112 371.07C189.436 371.07 188.535 371.4 188.547 372.048C188.535 372.695 189.436 373.038 191.112 373.038C192.75 373.038 193.664 372.695 193.676 372.048C193.664 371.4 192.75 371.07 191.112 371.07ZM191.112 363.936C189.411 363.936 188.433 364.316 188.446 365.027C188.433 365.726 189.411 366.094 191.112 366.094C192.8 366.094 193.791 365.726 193.791 365.027C193.791 364.316 192.8 363.936 191.112 363.936ZM189.753 368.176H192.47V367.084C192.058 367.141 191.601 367.173 191.112 367.173C190.623 367.173 190.166 367.141 189.753 367.084V368.176ZM206.181 362.666V366.271H207.781V367.439H206.181V371.235H204.772V362.666H206.181ZM203.947 363.936V365.065H197.142V363.936H199.846V362.653H201.255V363.936H203.947ZM200.544 365.535C202.195 365.535 203.337 366.411 203.35 367.731C203.337 369.039 202.195 369.902 200.544 369.902C198.881 369.902 197.726 369.039 197.726 367.731C197.726 366.411 198.881 365.535 200.544 365.535ZM200.544 366.627C199.668 366.627 199.097 367.033 199.097 367.731C199.097 368.417 199.668 368.823 200.544 368.811C201.42 368.823 202.004 368.417 202.004 367.731C202.004 367.033 201.42 366.627 200.544 366.627ZM206.638 372.759V373.901H198.831V370.563H200.24V372.759H206.638ZM220.616 363.199V364.063C220.616 364.938 220.616 365.929 220.336 367.224L218.927 367.084C219.181 365.935 219.207 365.084 219.207 364.304H212.668V363.199H220.616ZM221.885 367.909V369.026H211.475V367.909H215.512V365.713H216.909V367.909H221.885ZM217.34 370.207C217.34 371.502 218.737 372.683 221.149 372.987L220.628 374.066C218.762 373.812 217.34 373.038 216.629 371.934C215.912 373.038 214.49 373.812 212.643 374.066L212.135 372.987C214.509 372.683 215.906 371.502 215.918 370.207V369.788H217.34V370.207ZM232.587 362.653V374.13H231.229V362.653H232.587ZM230.226 362.856V373.571H228.88V368.112H227.789C227.655 370.347 226.697 371.73 225.275 371.718C223.777 371.73 222.799 370.144 222.799 367.617C222.799 365.091 223.777 363.529 225.275 363.529C226.665 363.529 227.611 364.824 227.776 366.97H228.88V362.856H230.226ZM225.275 364.862C224.551 364.85 224.094 365.827 224.107 367.617C224.094 369.407 224.551 370.385 225.275 370.372C226.037 370.385 226.494 369.407 226.494 367.617C226.494 365.827 226.037 364.85 225.275 364.862ZM238.161 365.408C238.161 367.541 239.176 369.636 241.004 370.436L240.154 371.565C238.853 370.931 237.938 369.712 237.45 368.214C236.948 369.794 236.015 371.108 234.695 371.781L233.806 370.639C235.672 369.763 236.713 367.554 236.726 365.408V363.58H238.161V365.408ZM243.543 362.653V374.143H242.147V367.503H239.735V366.36H242.147V362.653H243.543ZM109.678 389.565V390.708H99.1914V389.565H103.686V386.912H105.082V389.565H109.678ZM105.12 382.189C105.12 383.929 106.859 385.643 109.271 386.023L108.662 387.191C106.72 386.823 105.133 385.712 104.371 384.208C103.609 385.706 102.035 386.836 100.105 387.191L99.4961 386.023C101.896 385.643 103.609 383.916 103.622 382.189V381.352H105.12V382.189ZM120.913 389.565V390.708H110.427V389.565H114.921V386.912H116.317V389.565H120.913ZM116.355 382.189C116.355 383.929 118.095 385.643 120.507 386.023L119.897 387.191C117.955 386.823 116.368 385.712 115.606 384.208C114.845 385.706 113.271 386.836 111.341 387.191L110.731 386.023C113.131 385.643 114.845 383.916 114.857 382.189V381.352H116.355V382.189ZM130.65 380.653V385.224H132.415V386.392H130.65V392.13H129.254V380.653H130.65ZM128.365 382.418V383.548H121.599V382.418H124.315V380.818H125.725V382.418H128.365ZM125.026 384.297C126.677 384.297 127.908 385.414 127.908 387.001C127.908 388.588 126.677 389.692 125.026 389.692C123.351 389.692 122.119 388.588 122.132 387.001C122.119 385.414 123.351 384.297 125.026 384.297ZM125.026 385.452C124.125 385.452 123.478 386.062 123.478 387.001C123.478 387.94 124.125 388.537 125.026 388.524C125.902 388.537 126.55 387.94 126.562 387.001C126.55 386.062 125.902 385.452 125.026 385.452ZM142.8 380.653V392.13H141.454V380.653H142.8ZM140.362 380.933V391.584H139.029V386.303H136.985C136.312 387.623 135.233 388.766 133.608 389.705L132.809 388.702C135.189 387.299 136.274 385.503 136.49 383.192H133.393V382.05H137.887C137.887 383.161 137.753 384.202 137.442 385.173H139.029V380.933H140.362ZM157.679 385.389V386.519H147.218V385.389H157.679ZM156.371 387.293V390.111H149.846V390.949H156.688V392.028H148.462V389.108H154.987V388.334H148.449V387.293H156.371ZM156.739 381.047V382.164H153.324C153.61 383.015 155.025 383.757 157.184 383.903L156.739 384.995C154.683 384.83 153.127 384.138 152.436 383.116C151.744 384.132 150.208 384.83 148.17 384.995L147.726 383.903C149.865 383.757 151.261 383.015 151.56 382.164H148.17V381.047H156.739ZM168.038 380.653V392.13H166.616V380.653H168.038ZM164.61 381.872C164.61 385.287 163.29 388.194 159.266 390.099L158.529 388.969C161.532 387.541 162.928 385.598 163.176 382.989H159.113V381.872H164.61ZM178.981 383.903V385.021H171.034V381.072H172.431V383.903H178.981ZM180.162 386.354V387.471H169.676V386.354H180.162ZM179.058 390.721V391.863H170.933V388.486H172.342V390.721H179.058ZM193.911 380.653V392.13H192.565V380.653H193.911ZM191.474 380.933V391.584H190.141V386.303H188.097C187.424 387.623 186.345 388.766 184.72 389.705L183.92 388.702C186.3 387.299 187.386 385.503 187.602 383.192H184.504V382.05H188.998C188.998 383.161 188.865 384.202 188.554 385.173H190.141V380.933H191.474ZM202.849 386.798V388.651C203.845 388.601 204.848 388.512 205.794 388.372L205.908 389.413C203.331 389.883 200.576 389.908 198.558 389.908L198.38 388.766C199.275 388.759 200.329 388.753 201.439 388.715V386.798H202.849ZM205.324 382.063V383.205H202.874C202.937 384.43 203.909 385.535 205.642 385.973L204.994 387.077C203.636 386.709 202.665 385.916 202.15 384.894C201.643 385.973 200.684 386.798 199.319 387.166L198.646 386.1C200.379 385.624 201.332 384.494 201.414 383.205H198.989V382.063H201.439V380.755H202.849V382.063H205.324ZM207.889 380.653V392.143H206.479V380.653H207.889ZM218.934 381.707V382.812C218.921 384.233 218.921 385.833 218.477 388.232L217.055 388.08C217.499 385.846 217.499 384.214 217.512 382.837H210.656V381.707H218.934ZM220.025 389.489V390.645H209.564V389.489H213.424V385.503H214.82V389.489H220.025ZM223.161 381.809L223.021 388.296H221.587L221.435 381.809H223.161ZM222.311 391.102C221.765 391.102 221.32 390.657 221.32 390.111C221.32 389.578 221.765 389.134 222.311 389.134C222.831 389.134 223.288 389.578 223.288 390.111C223.288 390.657 222.831 391.102 222.311 391.102ZM43.3574 399.491C45.084 399.491 46.3281 401.065 46.3408 403.541C46.3281 406.042 45.084 407.604 43.3574 407.604C41.6182 407.604 40.3613 406.042 40.374 403.541C40.3613 401.065 41.6182 399.491 43.3574 399.491ZM43.3574 400.761C42.3926 400.761 41.7324 401.789 41.7324 403.541C41.7324 405.306 42.3926 406.334 43.3574 406.334C44.335 406.334 44.9824 405.306 44.9824 403.541C44.9824 401.789 44.335 400.761 43.3574 400.761ZM49.2607 398.653V403.059H51.0254V404.252H49.2607V410.13H47.8516V398.653H49.2607ZM61.9815 405.153V406.296H57.4111V410.117H56.0147V406.296H51.4951V405.153H61.9815ZM60.6992 399.237V403.808H52.7774V399.237H60.6992ZM54.1611 400.367V402.703H59.29V400.367H54.1611ZM72.3535 398.666V406.321H70.9443V402.919H68.7607V401.764H70.9443V398.666H72.3535ZM68.6846 399.555C68.6719 402.589 66.9199 404.671 63.5049 405.737L62.8955 404.633C65.5361 403.839 66.9199 402.462 67.1611 400.685H63.4922V399.555H68.6846ZM69.2305 405.864C69.2178 407.286 70.6397 408.581 72.9248 408.949L72.3535 410.066C70.5762 409.762 69.2051 408.924 68.5195 407.73C67.8149 408.924 66.4375 409.768 64.6602 410.079L64.1016 408.962C66.3994 408.619 67.8213 407.286 67.8213 405.864V405.42H69.2305V405.864ZM83.2969 403.871V404.988H79.8945V407.616H84.4648V408.771H73.9785V407.616H78.4981V404.988H75.2481V399.504H83.208V400.634H76.6572V403.871H83.2969ZM97.2871 398.653V403.224H99.0518V404.392H97.2871V410.13H95.8906V398.653H97.2871ZM95.002 400.418V401.548H88.2354V400.418H90.9522V398.818H92.3613V400.418H95.002ZM91.6631 402.297C93.3135 402.297 94.5449 403.414 94.5449 405.001C94.5449 406.588 93.3135 407.692 91.6631 407.692C89.9873 407.692 88.7559 406.588 88.7686 405.001C88.7559 403.414 89.9873 402.297 91.6631 402.297ZM91.6631 403.452C90.7617 403.452 90.1143 404.062 90.1143 405.001C90.1143 405.94 90.7617 406.537 91.6631 406.524C92.5391 406.537 93.1865 405.94 93.1992 405.001C93.1865 404.062 92.5391 403.452 91.6631 403.452ZM103.863 401.916C103.863 403.795 104.968 405.775 106.821 406.55L106.047 407.667C104.688 407.083 103.698 405.877 103.178 404.417C102.645 405.991 101.642 407.312 100.296 407.946L99.4834 406.842C101.299 406.004 102.429 403.871 102.429 401.916V400.951H99.9023V399.783H106.377V400.951H103.863V401.916ZM109.081 398.653V410.13H107.659V398.653H109.081ZM113.943 399.25C115.695 399.237 116.978 400.354 116.99 401.903C116.978 403.478 115.695 404.582 113.943 404.582C112.204 404.582 110.884 403.478 110.896 401.903C110.884 400.354 112.204 399.237 113.943 399.25ZM113.943 400.405C112.991 400.405 112.268 401.002 112.28 401.903C112.268 402.817 112.991 403.427 113.943 403.427C114.896 403.427 115.619 402.817 115.619 401.903C115.619 401.002 114.896 400.405 113.943 400.405ZM119.821 398.653V401.104H121.421V402.271H119.821V404.341H118.412V398.653H119.821ZM113.245 405.496V408.657C113.905 408.625 114.584 408.53 115.238 408.314L115.441 409.419C114.426 409.774 113.448 409.812 112.471 409.812H111.861V405.496H113.245ZM120.824 405.521V406.575H115.048V405.521H117.257V404.646H118.641V405.521H120.824ZM117.93 406.88C119.225 406.88 120.126 407.515 120.126 408.505C120.126 409.495 119.225 410.117 117.93 410.117C116.622 410.117 115.733 409.495 115.746 408.505C115.733 407.515 116.622 406.88 117.93 406.88ZM117.93 407.857C117.384 407.87 116.99 408.111 117.003 408.505C116.99 408.911 117.384 409.14 117.93 409.14C118.463 409.14 118.856 408.911 118.856 408.505C118.856 408.111 118.463 407.87 117.93 407.857ZM125.09 399.491C126.816 399.491 128.061 401.065 128.073 403.541C128.061 406.042 126.816 407.604 125.09 407.604C123.351 407.604 122.094 406.042 122.106 403.541C122.094 401.065 123.351 399.491 125.09 399.491ZM125.09 400.761C124.125 400.761 123.465 401.789 123.465 403.541C123.465 405.306 124.125 406.334 125.09 406.334C126.067 406.334 126.715 405.306 126.715 403.541C126.715 401.789 126.067 400.761 125.09 400.761ZM130.993 398.653V403.059H132.758V404.252H130.993V410.13H129.584V398.653H130.993ZM142.559 403.871V404.988H139.156V407.616H143.727V408.771H133.24V407.616H137.76V404.988H134.51V399.504H142.47V400.634H135.919V403.871H142.559ZM156.612 398.653V401.142H158.212V402.297H156.612V404.709H155.203V398.653H156.612ZM153.515 399.453C153.502 402.424 151.585 404.239 148.132 404.925L147.535 403.795C150.404 403.268 151.769 402.024 151.94 400.57H148.081V399.453H153.515ZM156.65 405.179V406.22H150.569V407.058H156.536V408.073H150.569V408.937H156.917V409.99H149.147V405.179H156.65ZM168.343 398.653V410.143H166.921V398.653H168.343ZM162.16 399.491C163.887 399.491 165.144 401.065 165.156 403.541C165.144 406.042 163.887 407.604 162.16 407.604C160.421 407.604 159.164 406.042 159.164 403.541C159.164 401.065 160.421 399.491 162.16 399.491ZM162.16 400.761C161.183 400.761 160.522 401.789 160.522 403.541C160.522 405.306 161.183 406.334 162.16 406.334C163.125 406.334 163.785 405.306 163.785 403.541C163.785 401.789 163.125 400.761 162.16 400.761ZM177.191 406.118C177.191 407.07 177.629 408.073 178.613 408.695C179.61 408.029 180.073 406.988 180.086 406.118V405.648H181.47V406.118C181.457 407.324 182.168 408.441 183.679 408.924L182.993 409.952C181.876 409.578 181.133 408.848 180.733 407.934C180.365 408.835 179.686 409.641 178.651 410.054C177.56 409.66 176.874 408.886 176.519 407.972C176.106 408.854 175.376 409.571 174.31 409.952L173.611 408.924C175.097 408.403 175.808 407.235 175.82 406.118V405.648H177.191V406.118ZM182.676 398.666V405.166H181.254V398.666H182.676ZM176.417 399.275C178.182 399.275 179.502 400.393 179.502 402.005C179.502 403.604 178.182 404.722 176.417 404.722C174.64 404.722 173.319 403.604 173.319 402.005C173.319 400.393 174.64 399.275 176.417 399.275ZM176.417 400.469C175.414 400.469 174.69 401.065 174.703 402.005C174.69 402.944 175.414 403.554 176.417 403.554C177.407 403.554 178.118 402.944 178.118 402.005C178.118 401.065 177.407 400.469 176.417 400.469ZM189.569 399.301C191.994 399.301 193.848 400.583 193.848 402.538C193.848 404.519 191.994 405.801 189.569 405.801C187.157 405.801 185.304 404.519 185.316 402.538C185.304 400.583 187.157 399.301 189.569 399.301ZM189.569 400.443C187.906 400.431 186.675 401.269 186.675 402.538C186.675 403.833 187.906 404.646 189.569 404.646C191.245 404.646 192.464 403.833 192.464 402.538C192.464 401.269 191.245 400.431 189.569 400.443ZM194.838 407.527V408.683H184.352V407.527H194.838ZM201.478 399.618V400.532H203.788V398.666H205.197V407.02H203.788V404.125H201.478V405.115H196.082V399.618H201.478ZM197.491 400.735V404.011H200.081V400.735H197.491ZM205.451 408.759V409.901H197.631V406.245H199.065V408.759H205.451ZM201.478 402.995H203.788V401.688H201.478V402.995ZM219.035 399.771V401.065C219.035 402.602 219.035 404.188 218.616 406.601L217.182 406.474C217.626 404.214 217.626 402.551 217.626 401.065V400.913H211.012V399.771H219.035ZM220.368 407.4V408.556H209.907V407.4H220.368ZM228.341 401.916C228.341 403.693 229.395 405.712 231.21 406.55L230.423 407.667C229.128 407.058 228.169 405.826 227.655 404.392C227.135 405.966 226.132 407.312 224.812 407.946L223.986 406.842C225.814 405.979 226.919 403.82 226.932 401.916V400.951H224.431V399.783H230.74V400.951H228.341V401.916ZM233.216 398.653V403.122H234.98V404.303H233.216V410.13H231.807V398.653H233.216ZM238.967 402.157C238.967 403.935 239.703 405.725 241.303 406.588L240.516 407.629C239.449 407.064 238.726 406.055 238.319 404.849C237.913 406.15 237.189 407.261 236.11 407.896L235.285 406.829C236.91 405.89 237.634 403.973 237.634 402.157V401.802H235.679V400.659H237.634V399.06H238.967V400.659H240.884V401.802H238.967V402.157ZM245.34 398.653V410.13H243.994V398.653H245.34ZM243.004 398.869V409.571H241.671V404.227H240.173V403.059H241.671V398.869H243.004ZM257.185 407.629V408.797H246.698V407.629H251.218V405.763H247.942V402.005H254.544V400.583H247.917V399.44H255.94V403.122H249.352V404.607H256.207V405.763H252.614V407.629H257.185ZM270.553 398.628V404.887H269.156V398.628H270.553ZM270.553 405.382V408.149H264.37V408.975H270.896V410.028H262.974V407.172H269.182V406.423H262.961V405.382H270.553ZM268.141 399.567V400.646H261.158V399.567H263.951V398.552H265.373V399.567H268.141ZM264.662 401.027C266.414 401.027 267.519 401.764 267.519 402.906C267.519 404.074 266.414 404.785 264.662 404.785C262.936 404.785 261.793 404.074 261.806 402.906C261.793 401.764 262.936 401.027 264.662 401.027ZM264.662 402.043C263.735 402.03 263.151 402.36 263.151 402.906C263.151 403.452 263.735 403.77 264.662 403.77C265.576 403.77 266.173 403.452 266.173 402.906C266.173 402.36 265.576 402.03 264.662 402.043ZM281.813 398.666V405.661H280.392V398.666H281.813ZM278.132 399.352V402.716H274.247V403.947C276.215 403.941 277.605 403.877 279.249 403.63L279.427 404.76C277.611 405.052 276.062 405.103 273.841 405.103H272.863V401.662H276.735V400.507H272.838V399.352H278.132ZM277.954 405.864C280.392 405.864 281.877 406.639 281.877 407.997C281.877 409.33 280.392 410.117 277.954 410.117C275.504 410.117 274.031 409.33 274.031 407.997C274.031 406.639 275.504 405.864 277.954 405.864ZM277.954 406.969C276.329 406.969 275.428 407.324 275.428 407.997C275.428 408.657 276.329 409.013 277.954 409.013C279.566 409.013 280.468 408.657 280.468 407.997C280.468 407.324 279.566 406.969 277.954 406.969Z" fill="#575A63"/>
<path d="M22.7505 13.081H18.3615V15.446H22.0575V16.579H18.3615V20.121H17.0415V11.937H22.7505V13.081ZM29.7221 13.081H25.2231V15.336H29.1501V16.48H25.2231V18.977H29.7221V20.121H23.9031V11.937H29.7221V13.081ZM31.7802 17.987C32.0442 18.3023 32.3522 18.559 32.7042 18.757C33.0635 18.9477 33.4082 19.043 33.7382 19.043C34.0682 19.043 34.3615 18.988 34.6182 18.878C34.8822 18.768 35.0838 18.6177 35.2232 18.427C35.3698 18.229 35.4432 18.0053 35.4432 17.756C35.4432 17.5433 35.3662 17.3637 35.2122 17.217C35.0655 17.0703 34.8785 16.953 34.6512 16.865C34.4312 16.7697 34.1195 16.6633 33.7162 16.546C33.1662 16.3847 32.7115 16.227 32.3522 16.073C32.0002 15.919 31.6958 15.688 31.4392 15.38C31.1898 15.0647 31.0652 14.654 31.0652 14.148C31.0652 13.708 31.1825 13.3157 31.4172 12.971C31.6518 12.6263 31.9818 12.3587 32.4072 12.168C32.8325 11.9773 33.3128 11.882 33.8482 11.882C34.3175 11.882 34.7868 11.9993 35.2562 12.234C35.7255 12.4613 36.1142 12.7583 36.4222 13.125L35.4542 13.895C35.2415 13.631 34.9885 13.4183 34.6952 13.257C34.4092 13.0957 34.1268 13.015 33.8482 13.015C33.4155 13.015 33.0635 13.1213 32.7922 13.334C32.5208 13.5467 32.3852 13.818 32.3852 14.148C32.3852 14.3753 32.4622 14.566 32.6162 14.72C32.7702 14.874 32.9608 14.9987 33.1882 15.094C33.4228 15.1893 33.7455 15.2993 34.1562 15.424C34.7135 15.6073 35.1608 15.776 35.4982 15.93C35.8428 16.084 36.1398 16.3113 36.3892 16.612C36.6385 16.9053 36.7632 17.2867 36.7632 17.756C36.7632 18.2253 36.6348 18.6433 36.3782 19.01C36.1215 19.3767 35.7622 19.6627 35.3002 19.868C34.8455 20.0733 34.3248 20.176 33.7382 20.176C33.2028 20.176 32.6638 20.0477 32.1212 19.791C31.5858 19.5343 31.1458 19.1933 30.8012 18.768L31.7802 17.987ZM43.5617 13.081H41.1967V20.121H39.8767V13.081H37.4897V11.937H43.5617V13.081ZM46.152 11.937V20.121H44.832V11.937H46.152ZM52.2486 20.121H50.7196L47.2766 11.937H48.7066L51.4676 18.68L54.0636 11.937H55.4826L52.2486 20.121ZM63.1653 20.121H61.7353L60.8443 17.954H57.2033L56.3013 20.121H54.8713L58.2813 11.937H59.8103L63.1653 20.121ZM60.3823 16.81L59.0403 13.543L57.6763 16.81H60.3823ZM65.5841 18.977H69.5441V20.121H64.2641V11.937H65.5841V18.977ZM79.2365 13.081H76.8715V20.121H75.5515V13.081H73.1645V11.937H79.2365V13.081ZM84.5838 16.92V20.121H83.2638V16.92L80.0188 11.937H81.5918L83.9238 15.688L86.2558 11.937H87.8288L84.5838 16.92ZM92.209 16.238C92.495 16.238 92.7443 16.1757 92.957 16.051C93.177 15.919 93.3457 15.732 93.463 15.49C93.5803 15.248 93.639 14.9693 93.639 14.654C93.639 14.1847 93.507 13.807 93.243 13.521C92.9863 13.2277 92.638 13.081 92.198 13.081H90.141V16.238H92.209ZM92.242 11.937C92.77 11.937 93.2393 12.0543 93.65 12.289C94.0607 12.5163 94.3797 12.839 94.607 13.257C94.8417 13.6677 94.959 14.1333 94.959 14.654C94.959 15.1893 94.8417 15.6623 94.607 16.073C94.3797 16.4837 94.0607 16.8063 93.65 17.041C93.2393 17.2683 92.7737 17.382 92.253 17.382H90.141V20.121H88.821V11.937H92.242ZM101.749 13.081H97.2495V15.336H101.177V16.48H97.2495V18.977H101.749V20.121H95.9295V11.937H101.749V13.081ZM111.431 13.081H109.066V20.121H107.746V13.081H105.359V11.937H111.431V13.081ZM118.324 13.081H113.825V15.336H117.752V16.48H113.825V18.977H118.324V20.121H112.505V11.937H118.324V13.081ZM120.382 17.987C120.646 18.3023 120.954 18.559 121.306 18.757C121.665 18.9477 122.01 19.043 122.34 19.043C122.67 19.043 122.963 18.988 123.22 18.878C123.484 18.768 123.685 18.6177 123.825 18.427C123.971 18.229 124.045 18.0053 124.045 17.756C124.045 17.5433 123.968 17.3637 123.814 17.217C123.667 17.0703 123.48 16.953 123.253 16.865C123.033 16.7697 122.721 16.6633 122.318 16.546C121.768 16.3847 121.313 16.227 120.954 16.073C120.602 15.919 120.297 15.688 120.041 15.38C119.791 15.0647 119.667 14.654 119.667 14.148C119.667 13.708 119.784 13.3157 120.019 12.971C120.253 12.6263 120.583 12.3587 121.009 12.168C121.434 11.9773 121.914 11.882 122.45 11.882C122.919 11.882 123.388 11.9993 123.858 12.234C124.327 12.4613 124.716 12.7583 125.024 13.125L124.056 13.895C123.843 13.631 123.59 13.4183 123.297 13.257C123.011 13.0957 122.728 13.015 122.45 13.015C122.017 13.015 121.665 13.1213 121.394 13.334C121.122 13.5467 120.987 13.818 120.987 14.148C120.987 14.3753 121.064 14.566 121.218 14.72C121.372 14.874 121.562 14.9987 121.79 15.094C122.024 15.1893 122.347 15.2993 122.758 15.424C123.315 15.6073 123.762 15.776 124.1 15.93C124.444 16.084 124.741 16.3113 124.991 16.612C125.24 16.9053 125.365 17.2867 125.365 17.756C125.365 18.2253 125.236 18.6433 124.98 19.01C124.723 19.3767 124.364 19.6627 123.902 19.868C123.447 20.0733 122.926 20.176 122.34 20.176C121.804 20.176 121.265 20.0477 120.723 19.791C120.187 19.5343 119.747 19.1933 119.403 18.768L120.382 17.987ZM132.163 13.081H129.798V20.121H128.478V13.081H126.091V11.937H132.163V13.081Z" fill="#D5D5DE"/>
<path d="M19 330L302 330" stroke="#E6E6EB" stroke-width="2" stroke-linecap="round" stroke-dasharray="6 6"/>
<path d="M84.332 284.955C85.5259 284.955 86.522 285.614 87.1299 286.757H90.0596V284.018H91.9053V297.377H90.0596V292.382H87.2764C86.6758 293.7 85.6211 294.462 84.332 294.462C82.3106 294.462 80.8604 292.631 80.875 289.701C80.8604 286.801 82.3106 284.955 84.332 284.955ZM84.332 286.64C83.3359 286.64 82.6475 287.724 82.6621 289.701C82.6475 291.693 83.3359 292.763 84.332 292.763C85.3428 292.763 86.002 291.693 86.002 289.701C86.002 287.724 85.3428 286.64 84.332 286.64ZM87.6572 288.266C87.7378 288.705 87.7891 289.188 87.7891 289.701C87.7891 290.119 87.7524 290.514 87.7012 290.888H90.0596V288.266H87.6572ZM105.807 291.43V292.938H102.95V297.348H101.046V292.938H98.3213V297.348H96.4024V292.938H93.6045V291.43H105.807ZM99.669 284.457C102.525 284.457 104.532 285.644 104.532 287.475C104.532 289.276 102.525 290.404 99.669 290.404C96.8125 290.404 94.8203 289.276 94.835 287.475C94.8203 285.644 96.8125 284.457 99.669 284.457ZM99.669 285.951C97.8818 285.951 96.7393 286.493 96.7539 287.475C96.7393 288.412 97.8818 288.939 99.669 288.939C101.471 288.939 102.599 288.412 102.599 287.475C102.599 286.493 101.471 285.951 99.669 285.951ZM118.785 294.33V295.868H106.583V294.33H111.725V292.323H107.989V287.841H115.533V286.376H107.975V284.882H117.379V289.306H109.864V290.8H117.687V292.323H113.585V294.33H118.785ZM131.734 290.507V292.001H126.681V294.315H124.791V292.001H119.532V290.507H131.734ZM130.387 295.604V297.113H120.982V293.129H122.872V295.604H130.387ZM125.626 284.267C128.512 284.281 130.431 285.351 130.445 287.035C130.431 288.734 128.512 289.789 125.626 289.789C122.726 289.789 120.792 288.734 120.792 287.035C120.792 285.351 122.726 284.281 125.626 284.267ZM125.626 285.746C123.897 285.746 122.799 286.186 122.813 287.035C122.799 287.855 123.897 288.295 125.626 288.295C127.34 288.295 128.438 287.855 128.438 287.035C128.438 286.186 127.34 285.746 125.626 285.746ZM148.155 291.474V292.968H142.94V297.333H141.095V292.968H135.953V291.474H148.155ZM146.69 284.662V290.038H137.389V284.662H146.69ZM139.234 286.142V288.573H144.83V286.142H139.234ZM159.801 290.185V291.679H150.367V285.131H159.698V286.64H152.213V290.185H159.801ZM161.134 294.184V295.722H148.932V294.184H161.134ZM166.217 284.911C168.326 284.896 169.908 286.273 169.908 288.178C169.908 290.097 168.326 291.459 166.217 291.459C164.107 291.459 162.511 290.097 162.511 288.178C162.511 286.273 164.107 284.896 166.217 284.911ZM166.217 286.522C165.162 286.522 164.356 287.138 164.371 288.178C164.356 289.232 165.162 289.833 166.217 289.833C167.271 289.833 168.077 289.232 168.092 288.178C168.077 287.138 167.286 286.522 166.217 286.522ZM173.102 284.018V297.377H171.241V284.018H173.102ZM161.954 293.129C164.327 293.144 167.623 293.1 170.479 292.704L170.626 294.052C167.667 294.623 164.503 294.652 162.174 294.652L161.954 293.129Z" fill="#3A3C42"/>
<path d="M189.464 283.988V291.21H187.604V283.988H189.464ZM189.464 291.737V295.106H182.403V295.883H189.815V297.26H180.543V293.832H187.633V293.1H180.543V291.737H189.464ZM186.563 284.999V286.42H178.463V284.999H181.583V283.9H183.473V284.999H186.563ZM182.535 286.771C184.586 286.771 185.89 287.621 185.89 288.954C185.89 290.302 184.586 291.137 182.535 291.137C180.499 291.137 179.166 290.302 179.181 288.954C179.166 287.621 180.499 286.771 182.535 286.771ZM182.535 288.09C181.568 288.09 180.968 288.397 180.968 288.954C180.968 289.496 181.568 289.804 182.535 289.804C183.487 289.804 184.088 289.496 184.103 288.954C184.088 288.397 183.487 288.09 182.535 288.09ZM202.442 284.032V292.133H200.567V284.032H202.442ZM198.15 284.809V288.852H193.814V290.053C196.041 290.038 197.608 289.965 199.41 289.687L199.645 291.181C197.594 291.518 195.807 291.576 193.155 291.576H191.983V287.46H196.29V286.317H191.969V284.809H198.15ZM197.916 292.353C200.772 292.353 202.516 293.246 202.53 294.843C202.516 296.425 200.772 297.348 197.916 297.348C195.074 297.348 193.331 296.425 193.331 294.843C193.331 293.246 195.074 292.353 197.916 292.353ZM197.916 293.803C196.129 293.803 195.191 294.14 195.191 294.843C195.191 295.546 196.129 295.897 197.916 295.897C199.703 295.897 200.641 295.546 200.655 294.843C200.641 294.14 199.703 293.803 197.916 293.803ZM209.928 285.395V288.866H211.261V284.208H213.019V296.732H211.261V290.36H209.928V293.993H204.625V285.395H209.928ZM206.368 286.874V292.528H208.185V286.874H206.368ZM215.802 284.018V297.348H214.015V284.018H215.802ZM228.37 284.018V297.377H226.48V284.018H228.37ZM221.134 284.955C223.141 284.955 224.635 286.801 224.635 289.701C224.635 292.631 223.141 294.462 221.134 294.462C219.083 294.462 217.589 292.631 217.604 289.701C217.589 286.801 219.083 284.955 221.134 284.955ZM221.134 286.64C220.094 286.64 219.405 287.724 219.405 289.701C219.405 291.693 220.094 292.763 221.134 292.763C222.145 292.763 222.833 291.693 222.833 289.701C222.833 287.724 222.145 286.64 221.134 286.64ZM241.041 290.902V292.382H231.607V284.999H240.938V286.508H233.512V287.914H240.631V289.379H233.512V290.902H241.041ZM242.374 294.271V295.795H230.172V294.271H242.374Z" fill="#FF6F61"/>
<ellipse cx="160.119" cy="239.852" rx="59.1187" ry="12.8519" fill="#F3F3F6"/>
<path d="M70.8451 225.469L67 217.568" stroke="black" stroke-width="2" stroke-linecap="round"/>
<path d="M75.3784 224.999L76.7622 215" stroke="black" stroke-width="2" stroke-linecap="round"/>
<path d="M230.084 246L226.239 238.099" stroke="black" stroke-width="2" stroke-linecap="round"/>
<path d="M238.759 245.936C238.759 245.936 238.759 242 241.263 238.035" stroke="black" stroke-width="2" stroke-linecap="round"/>
<path d="M234.617 245.53C234.617 245.53 232.5 241 235.003 233.027" stroke="black" stroke-width="2" stroke-linecap="round"/>
<path fill-rule="evenodd" clip-rule="evenodd" d="M113.192 127.223C128.156 124.875 139.603 111.925 139.603 96.3013C139.603 79.0141 125.588 65 108.301 65C91.0141 65 77 79.0141 77 96.3013C77 111.925 88.4463 124.875 103.41 127.223L99.5369 133.863H117.066L113.192 127.223Z" fill="#FF6F61"/>
<path d="M113.192 127.223L113.037 126.235C112.711 126.286 112.431 126.495 112.289 126.794C112.147 127.092 112.162 127.441 112.328 127.727L113.192 127.223ZM103.41 127.223L104.274 127.727C104.441 127.441 104.455 127.092 104.314 126.794C104.172 126.495 103.892 126.286 103.565 126.235L103.41 127.223ZM99.5369 133.863L98.6731 133.359C98.4927 133.668 98.4914 134.05 98.6698 134.361C98.8481 134.671 99.1788 134.863 99.5369 134.863V133.863ZM117.066 133.863V134.863C117.424 134.863 117.754 134.671 117.933 134.361C118.111 134.05 118.11 133.668 117.929 133.359L117.066 133.863ZM138.603 96.3013C138.603 111.425 127.522 123.962 113.037 126.235L113.347 128.211C128.79 125.787 140.603 112.425 140.603 96.3013H138.603ZM108.301 66C125.036 66 138.603 79.5663 138.603 96.3013H140.603C140.603 78.4618 126.141 64 108.301 64V66ZM78 96.3013C78 79.5663 91.5663 66 108.301 66V64C90.4618 64 76 78.4618 76 96.3013H78ZM103.565 126.235C89.0802 123.962 78 111.425 78 96.3013H76C76 112.425 87.8123 125.787 103.255 128.211L103.565 126.235ZM100.401 134.367L104.274 127.727L102.547 126.719L98.6731 133.359L100.401 134.367ZM117.066 132.863H99.5369V134.863H117.066V132.863ZM112.328 127.727L116.202 134.367L117.929 133.359L114.056 126.719L112.328 127.727Z" fill="black"/>
<path d="M108.301 133.863C106.215 142.418 102.292 166.041 105.797 179.563C109.303 193.085 107.258 211.073 105.797 218.376" stroke="black" stroke-width="2" stroke-linecap="round" stroke-linejoin="round"/>
<path d="M86.7755 147C86.6773 154.771 88.1831 175.757 94.6045 186.296C101.026 196.835 103.084 212.574 103.31 219.126" stroke="black" stroke-width="2" stroke-linecap="round" stroke-linejoin="round"/>
<path fill-rule="evenodd" clip-rule="evenodd" d="M90.996 142.382C103.099 138.291 110.759 125.529 108.522 112.035C106.046 97.1039 92.3901 86.9315 78.0198 89.3141C63.6495 91.6968 54.0069 105.732 56.4824 120.663C58.7198 134.157 70.0892 143.764 82.8646 143.73L80.5956 149.999L95.1667 147.583L90.996 142.382Z" fill="#FF998F"/>
<path d="M90.996 142.382L90.6758 141.434C90.3665 141.539 90.1278 141.788 90.0362 142.101C89.9445 142.414 90.0116 142.753 90.2158 143.007L90.996 142.382ZM82.8646 143.73L83.8049 144.07C83.916 143.763 83.8703 143.421 83.6824 143.154C83.4946 142.887 83.1883 142.729 82.8619 142.73L82.8646 143.73ZM80.5956 149.999L79.6553 149.658C79.5345 149.992 79.5998 150.365 79.8269 150.638C80.054 150.911 80.4089 151.043 80.7592 150.985L80.5956 149.999ZM95.1667 147.583L95.3303 148.569C95.6806 148.511 95.9739 148.272 96.1007 147.94C96.2276 147.608 96.169 147.234 95.9469 146.957L95.1667 147.583ZM107.535 112.198C109.696 125.229 102.295 137.507 90.6758 141.434L91.3161 143.329C103.902 139.075 111.823 125.829 109.509 111.871L107.535 112.198ZM78.1834 90.3007C91.9736 88.0142 105.144 97.7764 107.535 112.198L109.509 111.871C106.949 96.4314 92.8066 85.8488 77.8562 88.3276L78.1834 90.3007ZM57.469 120.5C55.0778 106.078 64.3931 92.5871 78.1834 90.3007L77.8562 88.3276C62.9058 90.8064 52.9359 105.387 55.4959 120.827L57.469 120.5ZM82.8619 142.73C70.5967 142.763 59.6294 133.53 57.469 120.5L55.4959 120.827C57.8101 134.784 69.5817 144.766 82.8673 144.73L82.8619 142.73ZM81.5359 150.339L83.8049 144.07L81.9243 143.389L79.6553 149.658L81.5359 150.339ZM95.0031 146.596L80.4321 149.012L80.7592 150.985L95.3303 148.569L95.0031 146.596ZM90.2158 143.007L94.3866 148.208L95.9469 146.957L91.7761 141.756L90.2158 143.007Z" fill="black"/>
<path d="M183.783 127.219L179.589 137.463" stroke="black" stroke-width="2"/>
<path fill-rule="evenodd" clip-rule="evenodd" d="M197.422 117.45C197.711 117.08 197.955 116.665 198.141 116.21C199.231 113.547 197.957 110.505 195.294 109.415C193.854 108.825 192.303 108.927 191.01 109.567C190.536 108.204 189.502 107.044 188.062 106.454C185.4 105.364 182.358 106.639 181.268 109.301C181.081 109.757 180.964 110.224 180.911 110.69C178.548 110.271 176.131 111.536 175.184 113.847C174.238 116.159 175.074 118.756 177.052 120.114C176.763 120.484 176.52 120.899 176.333 121.354C175.243 124.017 176.518 127.059 179.18 128.149C180.62 128.738 182.171 128.636 183.464 127.997C183.938 129.36 184.972 130.52 186.412 131.11C189.074 132.2 192.117 130.925 193.207 128.262C193.393 127.807 193.511 127.34 193.563 126.874C195.926 127.293 198.344 126.028 199.29 123.716C200.236 121.405 199.4 118.808 197.422 117.45ZM189.291 121.157C189.344 120.691 189.461 120.224 189.648 119.769C189.834 119.313 190.078 118.898 190.367 118.529C189.435 117.889 188.757 116.975 188.399 115.945C187.421 116.428 186.296 116.604 185.183 116.407C185.13 116.873 185.013 117.339 184.827 117.795C184.64 118.251 184.396 118.666 184.107 119.035C185.039 119.675 185.718 120.589 186.076 121.619C187.053 121.136 188.178 120.96 189.291 121.157Z" fill="#FF6F61"/>
<path d="M197.422 117.45L196.634 116.833L195.978 117.672L196.856 118.274L197.422 117.45ZM191.01 109.567L190.065 109.895L190.437 110.965L191.453 110.463L191.01 109.567ZM180.911 110.69L180.736 111.675L181.784 111.861L181.904 110.803L180.911 110.69ZM177.052 120.114L177.84 120.731L178.496 119.892L177.618 119.29L177.052 120.114ZM183.464 127.997L184.409 127.669L184.037 126.599L183.021 127.101L183.464 127.997ZM193.563 126.874L193.738 125.889L192.69 125.703L192.57 126.761L193.563 126.874ZM189.291 121.157L189.116 122.142L190.164 122.328L190.285 121.27L189.291 121.157ZM190.367 118.529L191.155 119.145L191.811 118.307L190.933 117.704L190.367 118.529ZM188.399 115.945L189.343 115.616L188.971 114.546L187.956 115.048L188.399 115.945ZM185.183 116.407L185.358 115.422L184.31 115.236L184.19 116.294L185.183 116.407ZM184.107 119.035L183.32 118.419L182.664 119.257L183.541 119.859L184.107 119.035ZM186.076 121.619L185.131 121.948L185.503 123.018L186.519 122.516L186.076 121.619ZM197.216 115.831C197.064 116.2 196.867 116.536 196.634 116.833L198.209 118.066C198.555 117.625 198.845 117.13 199.067 116.589L197.216 115.831ZM194.915 110.34C197.067 111.221 198.097 113.679 197.216 115.831L199.067 116.589C200.366 113.415 198.847 109.789 195.673 108.489L194.915 110.34ZM191.453 110.463C192.5 109.946 193.752 109.864 194.915 110.34L195.673 108.489C193.956 107.787 192.106 107.909 190.567 108.67L191.453 110.463ZM187.684 107.38C188.847 107.856 189.682 108.792 190.065 109.895L191.955 109.238C191.391 107.616 190.158 106.231 188.441 105.529L187.684 107.38ZM182.193 109.68C183.074 107.529 185.532 106.499 187.684 107.38L188.441 105.529C185.268 104.229 181.641 105.749 180.342 108.923L182.193 109.68ZM181.904 110.803C181.947 110.427 182.042 110.05 182.193 109.68L180.342 108.923C180.12 109.464 179.98 110.02 179.917 110.577L181.904 110.803ZM176.11 114.226C176.874 112.36 178.827 111.336 180.736 111.675L181.086 109.705C178.269 109.206 175.387 110.713 174.259 113.469L176.11 114.226ZM177.618 119.29C176.02 118.192 175.346 116.093 176.11 114.226L174.259 113.469C173.131 116.225 174.128 119.32 176.487 120.939L177.618 119.29ZM177.259 121.733C177.41 121.363 177.607 121.028 177.84 120.731L176.265 119.498C175.92 119.939 175.629 120.434 175.408 120.975L177.259 121.733ZM179.559 127.224C177.408 126.343 176.378 123.885 177.259 121.733L175.408 120.975C174.108 124.149 175.628 127.775 178.802 129.074L179.559 127.224ZM183.021 127.101C181.974 127.618 180.723 127.7 179.559 127.224L178.802 129.074C180.518 129.777 182.368 129.655 183.907 128.894L183.021 127.101ZM186.791 130.184C185.627 129.708 184.792 128.772 184.409 127.669L182.52 128.326C183.084 129.948 184.317 131.332 186.033 132.035L186.791 130.184ZM192.281 127.883C191.4 130.035 188.942 131.065 186.791 130.184L186.033 132.035C189.207 133.334 192.833 131.815 194.132 128.641L192.281 127.883ZM192.57 126.761C192.527 127.137 192.433 127.514 192.281 127.883L194.132 128.641C194.354 128.1 194.494 127.543 194.557 126.987L192.57 126.761ZM198.364 123.338C197.6 125.204 195.647 126.228 193.738 125.889L193.389 127.859C196.206 128.358 199.087 126.851 200.215 124.095L198.364 123.338ZM196.856 118.274C198.454 119.371 199.129 121.471 198.364 123.338L200.215 124.095C201.344 121.339 200.346 118.244 197.988 116.625L196.856 118.274ZM190.285 121.27C190.327 120.894 190.422 120.517 190.573 120.148L188.722 119.39C188.501 119.932 188.361 120.488 188.297 121.044L190.285 121.27ZM190.573 120.148C190.724 119.778 190.922 119.443 191.155 119.145L189.58 117.912C189.234 118.354 188.944 118.848 188.722 119.39L190.573 120.148ZM190.933 117.704C190.182 117.189 189.633 116.45 189.343 115.616L187.454 116.273C187.88 117.499 188.689 118.589 189.801 119.353L190.933 117.704ZM187.956 115.048C187.164 115.439 186.255 115.581 185.358 115.422L185.009 117.391C186.338 117.627 187.678 117.416 188.842 116.841L187.956 115.048ZM184.19 116.294C184.147 116.669 184.053 117.046 183.901 117.416L185.752 118.174C185.974 117.632 186.114 117.076 186.177 116.519L184.19 116.294ZM183.901 117.416C183.75 117.786 183.553 118.121 183.32 118.419L184.895 119.651C185.24 119.21 185.53 118.715 185.752 118.174L183.901 117.416ZM183.541 119.859C184.292 120.375 184.841 121.113 185.131 121.948L187.02 121.291C186.594 120.065 185.786 118.974 184.673 118.211L183.541 119.859ZM186.519 122.516C187.31 122.124 188.219 121.983 189.116 122.142L189.466 120.173C188.137 119.937 186.796 120.148 185.633 120.723L186.519 122.516Z" fill="black"/>
<circle cx="187.237" cy="118.782" r="5.20947" transform="rotate(22.2645 187.237 118.782)" fill="white"/>
<circle cx="165.658" cy="183.757" r="50.9601" fill="#FFCDC9" stroke="black" stroke-width="2"/>
<path d="M136.337 158.726C140.51 160.835 149.72 163.057 153.187 155.07C157.52 145.086 144.623 146.037 145.998 153.207C147.143 159.177 153.01 163.4 159.274 158.399C160.434 157.473 162.9 155.015 162.886 151.44" stroke="#FF6F61" stroke-width="2" stroke-linecap="round"/>
<ellipse cx="132.037" cy="173.192" rx="4.63702" ry="6.1827" transform="rotate(6.3656 132.037 173.192)" fill="black"/>
<ellipse cx="156.606" cy="175.933" rx="4.63702" ry="6.1827" transform="rotate(6.3656 156.606 175.933)" fill="black"/>
<ellipse cx="143.633" cy="180.704" rx="3.09135" ry="4.63702" transform="rotate(96.3656 143.633 180.704)" fill="black"/>
<path d="M191.216 220.364L187.257 213.083C191.754 209.241 202.904 208.735 206.539 212.709C209.842 216.323 209.96 219.432 211.242 225.655C211.693 228.7 210.77 235.061 203.462 236.146C196.154 237.231 192.918 231.403 192.213 228.353C187.398 225.838 189.542 221.979 191.216 220.364Z" fill="#FFCDC9"/>
<path d="M206.659 212.804C209.012 217.097 210.926 221.168 211.539 225.296C211.99 228.341 210.77 235.061 203.462 236.146C196.154 237.231 192.917 231.403 192.212 228.353C187.398 225.838 189.542 221.979 191.216 220.364L188.22 214.569" stroke="black" stroke-width="2"/>
<path d="M121.285 223.786C121.285 229.625 118.716 234.651 115.025 236.911C113.688 237.729 112.205 238.185 110.642 238.185C104.765 238.185 100 231.738 100 223.786C100 215.834 104.765 209.387 110.642 209.387C112.868 209.387 115.746 211.601 117.454 213.181C120.257 215.774 121.285 218.845 121.285 223.786Z" fill="#FFCDC9"/>
<path d="M121.285 223.786C121.285 229.625 118.716 234.651 115.025 236.911L150.708 220.03L131.227 208.172L117.454 213.181C120.257 215.774 121.285 218.845 121.285 223.786Z" fill="#FFCDC9"/>
<path d="M128.097 209.424L117.454 213.806C115.159 211.511 109.116 208.135 104.468 212.517C97.3523 219.225 99.4596 231.924 105.72 236.306C109.297 238.811 113.072 238.848 115.736 236.932L139.792 226.29" stroke="black" stroke-width="2" stroke-linecap="round"/>
<path d="M147.578 231.924C147.578 237.763 145.009 242.79 141.318 245.049C139.981 245.867 138.498 246.323 136.935 246.323C131.058 246.323 126.293 239.876 126.293 231.924C126.293 223.972 131.058 217.526 136.935 217.526C139.161 217.526 141.227 218.45 142.935 220.03C145.738 222.623 147.578 226.983 147.578 231.924Z" fill="#FFCDC9"/>
<path d="M147.578 231.924C147.578 237.763 145.009 242.79 141.318 245.049L177.001 228.168L156.342 215.021L142.935 220.03C145.738 222.623 147.578 226.983 147.578 231.924Z" fill="#FFCDC9"/>
<path d="M154.39 216.937L143.121 221.945C141.869 219.441 135.057 216.274 130.409 220.656C123.293 227.364 125.401 240.063 131.661 244.445C135.238 246.949 138.739 246.986 141.677 245.071L165.733 234.428" stroke="black" stroke-width="2" stroke-linecap="round"/>
<path d="M219 156.307C219.5 153.07 224.996 151.188 227.5 155.57C229.5 159.07 234.5 158.57 235.5 154.57" stroke="black" stroke-width="2" stroke-linecap="round" stroke-linejoin="round"/>
<g clip-path="url(#clip0_890_3349)">
<path fill-rule="evenodd" clip-rule="evenodd" d="M245.514 142.771C245.207 142.898 244.964 143.142 244.837 143.449C244.71 143.756 244.71 144.101 244.837 144.407L247.999 152.028C247.141 152.037 246.309 152.321 245.625 152.839C244.94 153.357 244.441 154.082 244.2 154.905C243.959 155.729 243.99 156.608 244.287 157.413C244.584 158.218 245.132 158.907 245.85 159.376C246.568 159.846 247.418 160.072 248.275 160.022C249.132 159.971 249.95 159.647 250.608 159.096C251.266 158.545 251.729 157.797 251.929 156.962C252.13 156.128 252.056 155.251 251.72 154.462L247.68 144.724C247.999 144.665 248.32 144.632 248.644 144.624C249.383 144.609 250.108 144.731 250.775 144.983C251.442 145.235 252.039 145.609 252.535 146.082C253.031 146.555 253.418 147.118 253.676 147.74C253.803 148.047 254.047 148.29 254.354 148.417C254.661 148.544 255.005 148.544 255.312 148.417C255.619 148.289 255.862 148.045 255.989 147.739C256.116 147.432 256.116 147.087 255.989 146.78C255.596 145.834 255.009 144.981 254.264 144.27C253.513 143.558 252.627 143.004 251.658 142.64C250.678 142.271 249.635 142.094 248.588 142.12C247.532 142.145 246.49 142.366 245.514 142.772L245.514 142.771Z" fill="black"/>
</g>
<defs>
<clipPath id="clip0_890_3349">
<rect width="17.5287" height="17.5287" fill="white" transform="translate(238 145.718) rotate(-22.5352)"/>
</clipPath>
</defs>
</svg>
