<svg width="321" height="479" viewBox="0 0 321 479" fill="none" xmlns="http://www.w3.org/2000/svg">
<mask id="path-1-inside-1_890_3351" fill="white">
<path fill-rule="evenodd" clip-rule="evenodd" d="M139.389 0C142.823 0 145.958 1.95432 147.47 5.03779L153.933 18.2188C155.445 21.3022 158.58 23.2566 162.014 23.2566H312C316.971 23.2566 321 27.286 321 32.2566V469.257C321 474.227 316.971 478.257 312 478.257H9C4.02943 478.257 0 474.227 0 469.257V46.9085V23.2566V9C0 4.02944 4.02943 0 9 0H139.389Z"/>
</mask>
<path fill-rule="evenodd" clip-rule="evenodd" d="M139.389 0C142.823 0 145.958 1.95432 147.47 5.03779L153.933 18.2188C155.445 21.3022 158.58 23.2566 162.014 23.2566H312C316.971 23.2566 321 27.286 321 32.2566V469.257C321 474.227 316.971 478.257 312 478.257H9C4.02943 478.257 0 474.227 0 469.257V46.9085V23.2566V9C0 4.02944 4.02943 0 9 0H139.389Z" fill="white"/>
<path d="M147.47 5.03779L148.368 4.59755L147.47 5.03779ZM153.933 18.2188L153.035 18.659L153.933 18.2188ZM154.831 17.7785L148.368 4.59755L146.572 5.47804L153.035 18.659L154.831 17.7785ZM162.014 24.2566H312V22.2566H162.014V24.2566ZM320 32.2566V469.257H322V32.2566H320ZM312 477.257H9V479.257H312V477.257ZM1 469.257V46.9085H-1V469.257H1ZM1 46.9085V23.2566H-1V46.9085H1ZM-1 9V23.2566H1V9H-1ZM139.389 -1H9V1H139.389V-1ZM1 9C1 4.58172 4.58172 1 9 1V-1C3.47715 -1 -1 3.47715 -1 9H1ZM9 477.257C4.58172 477.257 1 473.675 1 469.257H-1C-1 474.779 3.47715 479.257 9 479.257V477.257ZM320 469.257C320 473.675 316.418 477.257 312 477.257V479.257C317.523 479.257 322 474.779 322 469.257H320ZM312 24.2566C316.418 24.2566 320 27.8383 320 32.2566H322C322 26.7337 317.523 22.2566 312 22.2566V24.2566ZM148.368 4.59755C146.688 1.17147 143.205 -1 139.389 -1V1C142.442 1 145.228 2.73718 146.572 5.47804L148.368 4.59755ZM153.035 18.659C154.715 22.0851 158.198 24.2566 162.014 24.2566V22.2566C158.961 22.2566 156.175 20.5194 154.831 17.7785L153.035 18.659Z" fill="#D5D5DE" mask="url(#path-1-inside-1_890_3351)"/>
<path fill-rule="evenodd" clip-rule="evenodd" d="M165.013 448.951C164.677 448.924 164.165 449.06 163.708 449.93C162.766 451.721 163.155 453.413 163.394 454.453C163.409 454.518 163.424 454.581 163.438 454.642L161.856 454.996C161.843 454.935 161.827 454.868 161.81 454.795C161.565 453.75 161.042 451.518 162.273 449.177C162.967 447.858 164.03 447.247 165.144 447.337C165.835 447.393 166.463 447.716 166.935 448.178C167.198 448.036 167.489 447.912 167.811 447.813C168.419 447.626 168.988 447.603 169.5 447.744C170.014 447.886 170.412 448.177 170.706 448.519C171.269 449.176 171.472 450.048 171.46 450.661C171.433 452.079 170.963 453.606 170.53 455.012L170.516 455.057L168.967 454.581C169.422 453.103 169.817 451.79 169.84 450.63C169.846 450.324 169.727 449.866 169.475 449.572C169.361 449.439 169.229 449.349 169.069 449.305C168.907 449.26 168.659 449.246 168.288 449.36C168.092 449.42 167.915 449.494 167.753 449.578C167.819 449.798 167.874 450.035 167.918 450.273C168.013 450.775 168.075 451.348 168.077 451.9C168.078 452.44 168.023 453.023 167.842 453.51C167.663 453.991 167.273 454.581 166.513 454.665C166.239 454.695 165.702 454.752 165.243 454.428C164.765 454.091 164.609 453.525 164.549 452.99C164.518 452.717 164.488 451.727 164.865 450.661C165.035 450.181 165.291 449.678 165.669 449.219C165.47 449.067 165.239 448.969 165.013 448.951ZM166.412 451.148C166.405 451.166 166.399 451.183 166.393 451.201C166.258 451.583 166.194 451.959 166.168 452.262C166.155 452.412 166.152 452.541 166.152 452.639C166.153 452.688 166.154 452.728 166.155 452.758C166.156 452.773 166.157 452.785 166.158 452.794C166.158 452.799 166.158 452.802 166.159 452.805C166.159 452.807 166.159 452.808 166.159 452.808L166.159 452.808C166.172 452.927 166.189 453.01 166.204 453.068C166.223 453.067 166.245 453.065 166.27 453.063C166.284 453.04 166.301 453.004 166.323 452.947C166.406 452.722 166.458 452.361 166.456 451.905C166.456 451.657 166.44 451.4 166.412 451.148ZM166.247 453.094C166.247 453.093 166.25 453.089 166.257 453.084C166.251 453.092 166.247 453.095 166.247 453.094Z" fill="#FF998F"/>
<path d="M192.334 449.848C192.198 449.614 192.017 449.411 191.792 449.239C191.567 449.067 191.307 448.953 191.012 448.898C190.727 448.84 190.423 448.869 190.1 448.986C189.786 449.1 189.523 449.272 189.312 449.501C189.11 449.727 188.966 449.987 188.881 450.282C188.792 450.568 188.768 450.851 188.809 451.13L192.334 449.848ZM193.299 448.356C193.588 448.647 193.816 448.98 193.983 449.355C194.156 449.719 194.289 450.071 194.383 450.412L194.432 450.547L189.279 452.421C189.431 452.7 189.644 452.922 189.918 453.087C190.188 453.242 190.477 453.34 190.786 453.38C191.092 453.41 191.384 453.375 191.662 453.274C192.12 453.108 192.437 452.906 192.615 452.669C192.802 452.429 192.917 452.214 192.96 452.026L192.968 452.008L194.659 452.048C194.61 452.583 194.383 453.102 193.977 453.605C193.568 454.099 192.973 454.487 192.192 454.771C191.511 455.019 190.85 455.087 190.209 454.975C189.566 454.853 188.996 454.573 188.501 454.134C188.006 453.695 187.631 453.126 187.376 452.427C187.119 451.719 187.038 451.038 187.135 450.384C187.228 449.721 187.484 449.141 187.903 448.644C188.318 448.138 188.866 447.761 189.548 447.513C190.22 447.268 190.827 447.205 191.368 447.323C191.914 447.428 192.345 447.592 192.659 447.812C192.973 448.033 193.182 448.216 193.285 448.361L193.299 448.356Z" fill="#FF998F"/>
<path d="M186.518 454.644C186.288 454.758 186.069 454.839 185.859 454.887C185.649 454.944 185.358 454.973 184.985 454.973C184.527 454.973 184.117 454.868 183.754 454.658C183.391 454.439 183.11 454.134 182.909 453.743C182.709 453.352 182.608 452.908 182.608 452.412V445.089H184.556V452.412C184.556 452.651 184.613 452.856 184.728 453.028C184.852 453.199 185.005 453.29 185.186 453.299C185.415 453.328 185.687 453.256 186.002 453.085L186.016 453.07L186.675 454.572L186.518 454.644ZM181.234 447.435H186.489V448.994H181.234V447.435Z" fill="#FF998F"/>
<path d="M176.239 453.542C176.592 453.542 176.921 453.442 177.227 453.242C177.532 453.042 177.776 452.765 177.957 452.412C178.138 452.06 178.229 451.669 178.229 451.24C178.229 450.82 178.138 450.434 177.957 450.081C177.776 449.728 177.532 449.451 177.227 449.251C176.921 449.051 176.592 448.951 176.239 448.951C175.866 448.951 175.537 449.046 175.251 449.237C174.974 449.418 174.754 449.685 174.592 450.038C174.439 450.381 174.363 450.782 174.363 451.24C174.363 451.707 174.439 452.117 174.592 452.47C174.754 452.813 174.974 453.08 175.251 453.271C175.537 453.452 175.866 453.542 176.239 453.542ZM180.176 454.973L178.229 454.987V454.029C178.038 454.267 177.823 454.468 177.585 454.63C177.356 454.782 177.107 454.897 176.84 454.973C176.582 455.059 176.32 455.102 176.053 455.102C175.346 455.102 174.716 454.94 174.162 454.615C173.609 454.282 173.179 453.824 172.874 453.242C172.568 452.66 172.416 451.993 172.416 451.24C172.416 450.496 172.568 449.833 172.874 449.251C173.179 448.669 173.609 448.217 174.162 447.892C174.716 447.559 175.346 447.392 176.053 447.392C176.463 447.392 176.859 447.482 177.241 447.663C177.623 447.845 177.952 448.112 178.229 448.464V447.363H180.176V454.973Z" fill="#FF998F"/>
<path d="M160.511 447.277V455.045H158.563V447.277H160.511Z" fill="#FF998F"/>
<path d="M157.232 454.644C157.003 454.758 156.783 454.839 156.573 454.887C156.363 454.944 156.072 454.973 155.7 454.973C155.242 454.973 154.831 454.868 154.468 454.658C154.106 454.439 153.824 454.134 153.624 453.743C153.423 453.352 153.323 452.908 153.323 452.412V445.089H155.27V452.412C155.27 452.651 155.327 452.856 155.442 453.028C155.566 453.199 155.719 453.29 155.9 453.299C156.129 453.328 156.401 453.256 156.716 453.085L156.731 453.07L157.389 454.572L157.232 454.644ZM151.948 447.435H157.203V448.994H151.948V447.435Z" fill="#FF998F"/>
<path d="M146.291 452.519C146.51 452.777 146.773 452.982 147.078 453.134C147.393 453.287 147.68 453.363 147.937 453.363C148.281 453.363 148.563 453.287 148.782 453.134C149.002 452.972 149.112 452.767 149.112 452.519C149.112 452.414 149.059 452.324 148.954 452.247C148.859 452.162 148.715 452.085 148.525 452.019C148.343 451.952 148.133 451.88 147.895 451.804C147.341 451.632 146.878 451.465 146.506 451.303C146.143 451.141 145.823 450.908 145.546 450.602C145.279 450.288 145.145 449.892 145.145 449.415C145.145 448.967 145.269 448.571 145.518 448.228C145.766 447.875 146.109 447.599 146.549 447.398C146.997 447.198 147.498 447.098 148.052 447.098C148.52 447.098 148.992 447.208 149.47 447.427C149.947 447.637 150.338 447.918 150.644 448.271L149.412 449.387C149.231 449.167 149.016 448.996 148.768 448.872C148.52 448.738 148.281 448.671 148.052 448.671C147.775 448.671 147.546 448.738 147.365 448.872C147.183 448.996 147.093 449.162 147.093 449.372C147.093 449.487 147.145 449.587 147.25 449.673C147.365 449.758 147.517 449.84 147.708 449.916C147.909 449.983 148.133 450.054 148.381 450.13C148.925 450.302 149.374 450.469 149.727 450.631C150.09 450.784 150.4 451.013 150.658 451.318C150.925 451.613 151.059 451.995 151.059 452.462C151.059 452.948 150.925 453.377 150.658 453.749C150.4 454.121 150.033 454.412 149.556 454.622C149.088 454.832 148.548 454.937 147.937 454.937C147.432 454.937 146.907 454.817 146.362 454.579C145.828 454.341 145.384 454.026 145.031 453.635L146.291 452.519Z" fill="#FF998F"/>
<path d="M142.407 450.453C142.359 450.186 142.259 449.933 142.106 449.695C141.953 449.456 141.748 449.261 141.49 449.108C141.242 448.956 140.946 448.879 140.602 448.879C140.268 448.879 139.963 448.951 139.686 449.094C139.419 449.237 139.194 449.432 139.013 449.68C138.832 449.919 138.712 450.176 138.655 450.453H142.407ZM143.824 449.38C143.996 449.752 144.096 450.143 144.125 450.553C144.163 450.954 144.168 451.33 144.139 451.683V451.826H138.655C138.703 452.141 138.827 452.422 139.027 452.67C139.228 452.908 139.466 453.099 139.743 453.242C140.02 453.376 140.307 453.442 140.602 453.442C141.089 453.442 141.457 453.361 141.705 453.199C141.963 453.037 142.144 452.875 142.249 452.713L142.263 452.699L143.839 453.314C143.609 453.8 143.218 454.21 142.664 454.544C142.111 454.868 141.419 455.03 140.588 455.03C139.863 455.03 139.218 454.868 138.655 454.544C138.092 454.21 137.653 453.752 137.338 453.171C137.023 452.589 136.865 451.926 136.865 451.182C136.865 450.429 137.023 449.761 137.338 449.18C137.653 448.589 138.092 448.131 138.655 447.807C139.218 447.473 139.863 447.306 140.588 447.306C141.304 447.306 141.896 447.454 142.364 447.749C142.841 448.035 143.189 448.336 143.409 448.651C143.629 448.965 143.762 449.208 143.81 449.38H143.824Z" fill="#FF998F"/>
<path d="M136.632 445.918H130.947V448.779H135.744V450.438H130.947V454.987H129V444.259H136.632V445.918Z" fill="#FF998F"/>
<ellipse cx="159.533" cy="445.641" rx="0.972235" ry="0.971246" fill="#FF998F"/>
<path d="M82.2368 365.637C82.2368 367.566 82.897 369.458 84.4839 370.309L83.646 371.426C82.6113 370.848 81.9321 369.845 81.5513 368.62C81.126 369.972 80.3897 371.102 79.3169 371.743L78.4155 370.715C80.104 369.725 80.8657 367.681 80.8657 365.726V363.669H82.2368V365.637ZM88.5083 362.653V374.13H87.1499V368.315H85.9692V373.571H84.6362V362.856H85.9692V367.173H87.1499V362.653H88.5083ZM100.328 371.629V372.797H89.8413V371.629H94.3608V369.763H91.0855V366.005H97.687V364.583H91.0601V363.44H99.0835V367.122H92.4946V368.607H99.3501V369.763H95.7573V371.629H100.328ZM111.55 368.328V369.458H107.12V371.565H105.685V369.458H101.064V368.328H111.55ZM110.395 372.746V373.901H102.346V370.499H103.768V372.746H110.395ZM106.294 362.907C108.77 362.907 110.408 363.809 110.408 365.256C110.408 366.703 108.77 367.592 106.294 367.592C103.819 367.592 102.181 366.703 102.181 365.256C102.181 363.809 103.819 362.907 106.294 362.907ZM106.294 364.024C104.72 364.024 103.692 364.469 103.705 365.256C103.692 366.018 104.72 366.462 106.294 366.462C107.881 366.462 108.897 366.018 108.897 365.256C108.897 364.469 107.881 364.024 106.294 364.024ZM119.498 365.408C119.485 367.452 120.513 369.534 122.291 370.385L121.427 371.515C120.183 370.886 119.288 369.674 118.799 368.214C118.298 369.775 117.358 371.07 116.044 371.73L115.181 370.601C117.022 369.725 118.076 367.528 118.088 365.408V363.58H119.498V365.408ZM124.385 362.653V367.147H126.15V368.354H124.385V374.13H122.976V362.653H124.385ZM135.684 362.666V365.459H137.296V366.64H135.684V369.483H134.275V362.666H135.684ZM135.684 369.991V373.99H128.257V369.991H135.684ZM129.641 371.096V372.848H134.3V371.096H129.641ZM132.307 363.25V366.614H128.486V367.846C130.435 367.839 131.768 367.776 133.335 367.516L133.488 368.633C131.774 368.95 130.289 369.001 128.016 369.001H127.077V365.548H130.923V364.38H127.064V363.25H132.307ZM146.78 363.644V369.064H141.346V363.644H146.78ZM142.73 364.773V367.947H145.396V364.773H142.73ZM150.004 362.653V366.018H151.604V367.198H150.004V371.032H148.595V362.653H150.004ZM150.461 372.759V373.901H142.654V370.22H144.063V372.759H150.461ZM162.877 367.084V368.239H161.176V374.104H159.767V362.653H161.176V367.084H162.877ZM153.991 363.771V370.105C155.521 370.08 157.152 369.947 158.878 369.585L159.031 370.778C157.101 371.159 155.26 371.273 153.559 371.273H152.594V363.771H153.991ZM172.716 365.903V367.021H164.769V363.072H166.166V365.903H172.716ZM173.897 368.354V369.471H163.411V368.354H173.897ZM172.792 372.721V373.863H164.667V370.486H166.077V372.721H172.792ZM187.354 362.666V370.321H185.945V366.919H183.761V365.764H185.945V362.666H187.354ZM183.685 363.555C183.672 366.589 181.92 368.671 178.505 369.737L177.896 368.633C180.537 367.839 181.92 366.462 182.162 364.685H178.493V363.555H183.685ZM184.231 369.864C184.218 371.286 185.64 372.581 187.925 372.949L187.354 374.066C185.577 373.762 184.206 372.924 183.52 371.73C182.815 372.924 181.438 373.768 179.661 374.079L179.102 372.962C181.4 372.619 182.822 371.286 182.822 369.864V369.42H184.231V369.864ZM194.197 362.831C196.812 362.831 198.323 363.529 198.335 364.799C198.323 366.081 196.812 366.767 194.197 366.779C191.582 366.767 190.058 366.081 190.058 364.799C190.058 363.529 191.582 362.831 194.197 362.831ZM194.197 363.872C192.445 363.872 191.531 364.202 191.543 364.799C191.531 365.434 192.445 365.726 194.197 365.726C195.974 365.726 196.875 365.434 196.875 364.799C196.875 364.202 195.974 363.872 194.197 363.872ZM199.44 367.389V368.519H188.979V367.389H199.44ZM198.132 369.293V372.099H191.607V372.949H198.45V374.028H190.223V371.096H196.749V370.334H190.21V369.293H198.132ZM209.215 366.068V367.224H213.773V368.366H203.287V367.224H207.819V366.068H209.215ZM212.821 362.971V364.05H209.533C209.799 364.869 211.158 365.561 213.265 365.688L212.821 366.741C210.694 366.576 209.126 365.853 208.53 364.761C207.927 365.853 206.353 366.576 204.239 366.741L203.782 365.688C205.851 365.567 207.222 364.862 207.514 364.05H204.251V362.971H212.821ZM212.783 369.648V370.715H204.251V369.648H207.806V368.722H209.228V369.648H212.783ZM208.504 371.134C210.726 371.134 212.021 371.654 212.021 372.645C212.021 373.647 210.726 374.168 208.504 374.168C206.27 374.168 205.013 373.647 205.013 372.645C205.013 371.654 206.27 371.134 208.504 371.134ZM208.504 372.086C207.171 372.086 206.46 372.251 206.46 372.645C206.46 373.038 207.171 373.229 208.504 373.229C209.863 373.229 210.548 373.038 210.561 372.645C210.548 372.251 209.863 372.086 208.504 372.086ZM217.62 363.491C219.346 363.491 220.59 365.065 220.603 367.541C220.59 370.042 219.346 371.604 217.62 371.604C215.88 371.604 214.624 370.042 214.636 367.541C214.624 365.065 215.88 363.491 217.62 363.491ZM217.62 364.761C216.655 364.761 215.995 365.789 215.995 367.541C215.995 369.306 216.655 370.334 217.62 370.334C218.597 370.334 219.245 369.306 219.245 367.541C219.245 365.789 218.597 364.761 217.62 364.761ZM223.523 362.653V367.059H225.288V368.252H223.523V374.13H222.114V362.653H223.523ZM234.758 362.653V367.224H236.523V368.392H234.758V374.13H233.362V362.653H234.758ZM232.473 364.418V365.548H225.707V364.418H228.423V362.818H229.833V364.418H232.473ZM229.134 366.297C230.785 366.297 232.016 367.414 232.016 369.001C232.016 370.588 230.785 371.692 229.134 371.692C227.458 371.692 226.227 370.588 226.24 369.001C226.227 367.414 227.458 366.297 229.134 366.297ZM229.134 367.452C228.233 367.452 227.585 368.062 227.585 369.001C227.585 369.94 228.233 370.537 229.134 370.524C230.01 370.537 230.658 369.94 230.67 369.001C230.658 368.062 230.01 367.452 229.134 367.452ZM246.375 363.707V364.812C246.362 366.233 246.362 367.833 245.917 370.232L244.496 370.08C244.94 367.846 244.94 366.214 244.953 364.837H238.097V363.707H246.375ZM247.466 371.489V372.645H237.005V371.489H240.865V367.503H242.261V371.489H247.466ZM113.093 386.595V387.725H108.662V389.705H107.266V387.725H102.606V386.595H113.093ZM111.938 390.759V391.901H103.876V388.74H105.272V390.759H111.938ZM105.374 381.021V382.316H110.325V381.021H111.722V385.693H103.978V381.021H105.374ZM105.374 384.576H110.325V383.37H105.374V384.576ZM117.6 381.161C119.339 381.148 120.608 382.139 120.608 383.573C120.608 384.982 119.339 385.985 117.6 385.973C115.873 385.985 114.616 384.982 114.616 383.573C114.616 382.139 115.873 381.148 117.6 381.161ZM117.6 382.304C116.66 382.291 115.975 382.786 115.987 383.573C115.975 384.348 116.66 384.817 117.6 384.817C118.577 384.817 119.263 384.348 119.263 383.573C119.263 382.786 118.577 382.291 117.6 382.304ZM123.452 380.666V392.117H122.056V380.666H123.452ZM113.867 386.76C115.937 386.76 118.831 386.722 121.307 386.354L121.408 387.395C120.418 387.585 119.39 387.706 118.387 387.775V391.774H116.965V387.864C115.905 387.909 114.908 387.915 114.045 387.928L113.867 386.76ZM134.675 380.653V392.13H133.253V380.653H134.675ZM131.247 381.872C131.247 385.287 129.927 388.194 125.902 390.099L125.166 388.969C128.168 387.541 129.565 385.598 129.812 382.989H125.75V381.872H131.247ZM146.799 385.858V386.925H136.312V385.858H146.799ZM145.529 387.61V390.226H138.953V391.025H145.872V392.003H137.544V389.312H144.133V388.601H137.531V387.61H145.529ZM145.504 380.907V383.497H139.042V384.246H145.707V385.211H137.646V382.583H144.095V381.885H137.607V380.907H145.504ZM161.106 387.052V388.194H156.549V392.117H155.152V388.194H150.646V387.052H161.106ZM160.142 381.301V382.418H156.701C156.784 383.675 158.294 384.881 160.561 385.173L160.053 386.277C158.098 386.004 156.574 385.109 155.876 383.865C155.178 385.109 153.654 386.004 151.725 386.277L151.191 385.173C153.445 384.881 154.956 383.675 155.063 382.418H151.61V381.301H160.142ZM171.199 385.871V386.988H167.797V389.616H172.367V390.771H161.881V389.616H166.4V386.988H163.15V381.504H171.11V382.634H164.56V385.871H171.199ZM182.104 380.653V385.224H183.869V386.392H182.104V392.13H180.708V380.653H182.104ZM179.819 382.418V383.548H173.053V382.418H175.77V380.818H177.179V382.418H179.819ZM176.48 384.297C178.131 384.297 179.362 385.414 179.362 387.001C179.362 388.588 178.131 389.692 176.48 389.692C174.805 389.692 173.573 388.588 173.586 387.001C173.573 385.414 174.805 384.297 176.48 384.297ZM176.48 385.452C175.579 385.452 174.932 386.062 174.932 387.001C174.932 387.94 175.579 388.537 176.48 388.524C177.356 388.537 178.004 387.94 178.017 387.001C178.004 386.062 177.356 385.452 176.48 385.452ZM193.645 383.903V385.021H185.697V381.072H187.094V383.903H193.645ZM194.825 386.354V387.471H184.339V386.354H194.825ZM193.721 390.721V391.863H185.596V388.486H187.005V390.721H193.721ZM204.562 381.644V382.799H200.576V384.843H204.359V385.96H200.576V388.321C202.341 388.309 203.718 388.245 205.324 387.979L205.451 389.121C203.687 389.4 202.15 389.464 200.094 389.464H199.142V381.644H204.562ZM207.66 380.653V385.097H209.425V386.277H207.66V392.13H206.251V380.653H207.66ZM219.467 380.653V386.811H218.045V380.653H219.467ZM213.271 387.344V388.524H218.058V387.344H219.467V391.99H211.875V387.344H213.271ZM213.271 390.848H218.058V389.629H213.271V390.848ZM213.208 381.161C214.973 381.148 216.293 382.253 216.293 383.853C216.293 385.414 214.973 386.519 213.208 386.519C211.431 386.519 210.11 385.414 210.11 383.853C210.11 382.253 211.431 381.148 213.208 381.161ZM213.208 382.342C212.205 382.342 211.481 382.926 211.494 383.853C211.481 384.767 212.205 385.351 213.208 385.363C214.198 385.351 214.909 384.767 214.909 383.853C214.909 382.926 214.198 382.342 213.208 382.342ZM70.1128 398.653V410.13H68.7671V398.653H70.1128ZM67.7388 398.933V409.584H66.3931V405.75H64.603V404.595H66.3931V402.894H64.8062C64.2666 404.798 63.0669 406.436 60.9214 407.705L60.0962 406.702C62.4766 405.299 63.5684 403.503 63.7778 401.192H60.7056V400.05H65.1743C65.1743 400.627 65.1362 401.192 65.0601 401.738H66.3931V398.933H67.7388ZM78.6441 399.567V400.608H71.8521V399.567H74.5308V398.59H75.9399V399.567H78.6441ZM75.2544 400.938C76.9302 400.926 78.0728 401.599 78.0728 402.665C78.0728 403.566 77.2349 404.169 75.9399 404.328V404.938C76.9111 404.893 77.8823 404.811 78.7964 404.696L78.898 405.661C76.4351 406.08 73.7183 406.118 71.687 406.118L71.4966 405.026C72.4107 405.033 73.4517 405.026 74.5308 404.988V404.315C73.2295 404.163 72.4107 403.56 72.4233 402.665C72.4107 401.599 73.5405 400.926 75.2544 400.938ZM75.2544 401.891C74.353 401.878 73.7691 402.157 73.7817 402.665C73.7691 403.135 74.353 403.414 75.2544 403.401C76.1304 403.414 76.7144 403.135 76.7271 402.665C76.7144 402.157 76.1304 401.878 75.2544 401.891ZM81.0181 398.679V406.397H79.5962V398.679H81.0181ZM81.0181 406.867V410.13H79.5962V407.972H73.1216V406.867H81.0181ZM93.1675 407.591V408.746H82.6812V407.591H87.2007V405.356H83.8364V399.415H85.2456V401.294H90.5649V399.415H91.9741V405.356H88.5972V407.591H93.1675ZM85.2456 404.214H90.5649V402.424H85.2456V404.214ZM102.905 398.653V403.008H104.669V404.163H102.905V410.143H101.496V398.653H102.905ZM99.7564 399.745V400.888H95.7954V406.156C97.5791 406.156 98.9883 406.067 100.569 405.788L100.734 406.981C98.9565 407.286 97.4077 407.337 95.3384 407.337H94.3862V399.745H99.7564ZM114.445 401.903V403.021H106.498V399.072H107.894V401.903H114.445ZM115.625 404.354V405.471H105.139V404.354H115.625ZM114.521 408.721V409.863H106.396V406.486H107.805V408.721H114.521ZM128.994 399.148V400.278H125.68C125.852 401.281 127.254 402.202 129.438 402.411L128.917 403.503C126.854 403.293 125.312 402.456 124.69 401.269C124.068 402.449 122.544 403.293 120.475 403.503L119.98 402.411C122.138 402.176 123.528 401.269 123.725 400.278H120.424V399.148H128.994ZM129.933 404.087V405.217H119.472V404.087H129.933ZM128.651 406.156V410.13H127.242V407.299H120.627V406.156H128.651ZM135.925 406.563C138.452 406.563 139.886 407.172 139.899 408.34C139.886 409.521 138.452 410.13 135.925 410.13C133.361 410.13 131.926 409.521 131.926 408.34C131.926 407.172 133.361 406.563 135.925 406.563ZM135.925 407.578C134.224 407.578 133.374 407.845 133.374 408.34C133.374 408.848 134.224 409.102 135.925 409.089C137.614 409.102 138.464 408.848 138.477 408.34C138.464 407.845 137.614 407.578 135.925 407.578ZM140.597 399.555V400.621H131.228V399.555H135.227V398.526H136.636V399.555H140.597ZM135.925 400.977C138.375 400.977 139.747 401.561 139.747 402.64C139.747 403.719 138.375 404.277 135.925 404.277C133.5 404.277 132.117 403.719 132.117 402.64C132.117 401.561 133.5 400.977 135.925 400.977ZM135.925 401.929C134.402 401.929 133.627 402.17 133.627 402.64C133.627 403.097 134.402 403.3 135.925 403.313C137.461 403.3 138.236 403.097 138.236 402.64C138.236 402.17 137.461 401.929 135.925 401.929ZM141.168 404.874V405.953H130.708V404.874H141.168ZM146.158 400.621C146.158 402.018 147.084 403.427 148.862 404.023L148.151 405.115C146.869 404.696 145.961 403.827 145.459 402.754C144.958 403.954 144 404.918 142.641 405.369L141.917 404.252C143.746 403.655 144.723 402.132 144.723 400.634V400.481H142.336V399.352H148.532V400.481H146.158V400.621ZM151.553 406.042V410.13H150.144V407.172H143.733V406.042H151.553ZM151.553 398.653V405.496H150.144V402.652H148.189V401.497H150.144V398.653H151.553ZM162.738 398.666V406.956H161.316V398.666H162.738ZM163.055 408.759V409.901H155.146V406.118H156.568V408.759H163.055ZM156.479 399.415C158.218 399.415 159.564 400.621 159.564 402.284C159.564 403.985 158.218 405.166 156.479 405.166C154.727 405.166 153.381 403.985 153.381 402.284C153.381 400.621 154.727 399.415 156.479 399.415ZM156.479 400.646C155.501 400.646 154.752 401.294 154.765 402.284C154.752 403.3 155.501 403.935 156.479 403.935C157.431 403.935 158.18 403.3 158.18 402.284C158.18 401.294 157.431 400.646 156.479 400.646ZM177.985 407.578V408.733H167.499V407.578H172.018V405.077H168.654V399.542H176.779V405.077H173.415V407.578H177.985ZM170.038 400.672V403.973H175.382V400.672H170.038ZM188.344 398.653V405.598H186.935V403.224H185.297V402.056H186.935V398.653H188.344ZM188.344 406.118V409.99H180.714V406.118H188.344ZM182.124 407.235V408.848H186.96V407.235H182.124ZM185.488 399.72V400.862H178.759V399.72H181.425V398.564H182.822V399.72H185.488ZM182.124 401.307C183.723 401.307 184.84 402.157 184.853 403.363C184.84 404.607 183.723 405.42 182.124 405.42C180.537 405.42 179.407 404.607 179.407 403.363C179.407 402.157 180.537 401.307 182.124 401.307ZM182.124 402.373C181.298 402.373 180.752 402.754 180.752 403.363C180.752 403.998 181.298 404.366 182.124 404.366C182.949 404.366 183.495 403.998 183.495 403.363C183.495 402.754 182.949 402.373 182.124 402.373ZM195.187 398.831C197.802 398.831 199.313 399.529 199.326 400.799C199.313 402.081 197.802 402.767 195.187 402.779C192.572 402.767 191.048 402.081 191.048 400.799C191.048 399.529 192.572 398.831 195.187 398.831ZM195.187 399.872C193.435 399.872 192.521 400.202 192.534 400.799C192.521 401.434 193.435 401.726 195.187 401.726C196.964 401.726 197.866 401.434 197.866 400.799C197.866 400.202 196.964 399.872 195.187 399.872ZM200.43 403.389V404.519H189.969V403.389H200.43ZM199.123 405.293V408.099H192.597V408.949H199.44V410.028H191.213V407.096H197.739V406.334H191.201V405.293H199.123ZM210.206 402.068V403.224H214.763V404.366H204.277V403.224H208.809V402.068H210.206ZM213.811 398.971V400.05H210.523C210.79 400.869 212.148 401.561 214.255 401.688L213.811 402.741C211.685 402.576 210.117 401.853 209.52 400.761C208.917 401.853 207.343 402.576 205.229 402.741L204.772 401.688C206.841 401.567 208.212 400.862 208.504 400.05H205.242V398.971H213.811ZM213.773 405.648V406.715H205.242V405.648H208.796V404.722H210.218V405.648H213.773ZM209.495 407.134C211.716 407.134 213.011 407.654 213.011 408.645C213.011 409.647 211.716 410.168 209.495 410.168C207.26 410.168 206.003 409.647 206.003 408.645C206.003 407.654 207.26 407.134 209.495 407.134ZM209.495 408.086C208.162 408.086 207.451 408.251 207.451 408.645C207.451 409.038 208.162 409.229 209.495 409.229C210.853 409.229 211.539 409.038 211.551 408.645C211.539 408.251 210.853 408.086 209.495 408.086ZM218.61 399.491C220.336 399.491 221.581 401.065 221.593 403.541C221.581 406.042 220.336 407.604 218.61 407.604C216.871 407.604 215.614 406.042 215.626 403.541C215.614 401.065 216.871 399.491 218.61 399.491ZM218.61 400.761C217.645 400.761 216.985 401.789 216.985 403.541C216.985 405.306 217.645 406.334 218.61 406.334C219.587 406.334 220.235 405.306 220.235 403.541C220.235 401.789 219.587 400.761 218.61 400.761ZM224.513 398.653V403.059H226.278V404.252H224.513V410.13H223.104V398.653H224.513ZM235.749 398.653V403.224H237.513V404.392H235.749V410.13H234.352V398.653H235.749ZM233.463 400.418V401.548H226.697V400.418H229.414V398.818H230.823V400.418H233.463ZM230.125 402.297C231.775 402.297 233.006 403.414 233.006 405.001C233.006 406.588 231.775 407.692 230.125 407.692C228.449 407.692 227.217 406.588 227.23 405.001C227.217 403.414 228.449 402.297 230.125 402.297ZM230.125 403.452C229.223 403.452 228.576 404.062 228.576 405.001C228.576 405.94 229.223 406.537 230.125 406.524C231 406.537 231.648 405.94 231.661 405.001C231.648 404.062 231 403.452 230.125 403.452ZM247.289 401.903V403.021H239.341V399.072H240.738V401.903H247.289ZM248.469 404.354V405.471H237.983V404.354H248.469ZM247.365 408.721V409.863H239.24V406.486H240.649V408.721H247.365ZM261.926 398.653V407.134H260.517V404.138H258.892V402.97H260.517V401.878H258.892V400.735H260.517V398.653H261.926ZM258.727 399.517V400.646H257.711V404.303C258.143 404.277 258.562 404.246 258.968 404.201L259.032 405.229C256.861 405.585 254.309 405.623 252.481 405.623L252.329 404.455L253.624 404.442V400.646H252.621V399.517H258.727ZM262.218 408.759V409.901H254.385V406.474H255.807V408.759H262.218ZM254.995 404.43L256.353 404.379V400.646H254.995V404.43Z" fill="#575A63"/>
<path d="M22.7505 13.081H18.3615V15.446H22.0575V16.579H18.3615V20.121H17.0415V11.937H22.7505V13.081ZM29.7221 13.081H25.2231V15.336H29.1501V16.48H25.2231V18.977H29.7221V20.121H23.9031V11.937H29.7221V13.081ZM31.7802 17.987C32.0442 18.3023 32.3522 18.559 32.7042 18.757C33.0635 18.9477 33.4082 19.043 33.7382 19.043C34.0682 19.043 34.3615 18.988 34.6182 18.878C34.8822 18.768 35.0838 18.6177 35.2232 18.427C35.3698 18.229 35.4432 18.0053 35.4432 17.756C35.4432 17.5433 35.3662 17.3637 35.2122 17.217C35.0655 17.0703 34.8785 16.953 34.6512 16.865C34.4312 16.7697 34.1195 16.6633 33.7162 16.546C33.1662 16.3847 32.7115 16.227 32.3522 16.073C32.0002 15.919 31.6958 15.688 31.4392 15.38C31.1898 15.0647 31.0652 14.654 31.0652 14.148C31.0652 13.708 31.1825 13.3157 31.4172 12.971C31.6518 12.6263 31.9818 12.3587 32.4072 12.168C32.8325 11.9773 33.3128 11.882 33.8482 11.882C34.3175 11.882 34.7868 11.9993 35.2562 12.234C35.7255 12.4613 36.1142 12.7583 36.4222 13.125L35.4542 13.895C35.2415 13.631 34.9885 13.4183 34.6952 13.257C34.4092 13.0957 34.1268 13.015 33.8482 13.015C33.4155 13.015 33.0635 13.1213 32.7922 13.334C32.5208 13.5467 32.3852 13.818 32.3852 14.148C32.3852 14.3753 32.4622 14.566 32.6162 14.72C32.7702 14.874 32.9608 14.9987 33.1882 15.094C33.4228 15.1893 33.7455 15.2993 34.1562 15.424C34.7135 15.6073 35.1608 15.776 35.4982 15.93C35.8428 16.084 36.1398 16.3113 36.3892 16.612C36.6385 16.9053 36.7632 17.2867 36.7632 17.756C36.7632 18.2253 36.6348 18.6433 36.3782 19.01C36.1215 19.3767 35.7622 19.6627 35.3002 19.868C34.8455 20.0733 34.3248 20.176 33.7382 20.176C33.2028 20.176 32.6638 20.0477 32.1212 19.791C31.5858 19.5343 31.1458 19.1933 30.8012 18.768L31.7802 17.987ZM43.5617 13.081H41.1967V20.121H39.8767V13.081H37.4897V11.937H43.5617V13.081ZM46.152 11.937V20.121H44.832V11.937H46.152ZM52.2486 20.121H50.7196L47.2766 11.937H48.7066L51.4676 18.68L54.0636 11.937H55.4826L52.2486 20.121ZM63.1653 20.121H61.7353L60.8443 17.954H57.2033L56.3013 20.121H54.8713L58.2813 11.937H59.8103L63.1653 20.121ZM60.3823 16.81L59.0403 13.543L57.6763 16.81H60.3823ZM65.5841 18.977H69.5441V20.121H64.2641V11.937H65.5841V18.977ZM79.2365 13.081H76.8715V20.121H75.5515V13.081H73.1645V11.937H79.2365V13.081ZM84.5838 16.92V20.121H83.2638V16.92L80.0188 11.937H81.5918L83.9238 15.688L86.2558 11.937H87.8288L84.5838 16.92ZM92.209 16.238C92.495 16.238 92.7443 16.1757 92.957 16.051C93.177 15.919 93.3457 15.732 93.463 15.49C93.5803 15.248 93.639 14.9693 93.639 14.654C93.639 14.1847 93.507 13.807 93.243 13.521C92.9863 13.2277 92.638 13.081 92.198 13.081H90.141V16.238H92.209ZM92.242 11.937C92.77 11.937 93.2393 12.0543 93.65 12.289C94.0607 12.5163 94.3797 12.839 94.607 13.257C94.8417 13.6677 94.959 14.1333 94.959 14.654C94.959 15.1893 94.8417 15.6623 94.607 16.073C94.3797 16.4837 94.0607 16.8063 93.65 17.041C93.2393 17.2683 92.7737 17.382 92.253 17.382H90.141V20.121H88.821V11.937H92.242ZM101.749 13.081H97.2495V15.336H101.177V16.48H97.2495V18.977H101.749V20.121H95.9295V11.937H101.749V13.081ZM111.431 13.081H109.066V20.121H107.746V13.081H105.359V11.937H111.431V13.081ZM118.324 13.081H113.825V15.336H117.752V16.48H113.825V18.977H118.324V20.121H112.505V11.937H118.324V13.081ZM120.382 17.987C120.646 18.3023 120.954 18.559 121.306 18.757C121.665 18.9477 122.01 19.043 122.34 19.043C122.67 19.043 122.963 18.988 123.22 18.878C123.484 18.768 123.685 18.6177 123.825 18.427C123.971 18.229 124.045 18.0053 124.045 17.756C124.045 17.5433 123.968 17.3637 123.814 17.217C123.667 17.0703 123.48 16.953 123.253 16.865C123.033 16.7697 122.721 16.6633 122.318 16.546C121.768 16.3847 121.313 16.227 120.954 16.073C120.602 15.919 120.297 15.688 120.041 15.38C119.791 15.0647 119.667 14.654 119.667 14.148C119.667 13.708 119.784 13.3157 120.019 12.971C120.253 12.6263 120.583 12.3587 121.009 12.168C121.434 11.9773 121.914 11.882 122.45 11.882C122.919 11.882 123.388 11.9993 123.858 12.234C124.327 12.4613 124.716 12.7583 125.024 13.125L124.056 13.895C123.843 13.631 123.59 13.4183 123.297 13.257C123.011 13.0957 122.728 13.015 122.45 13.015C122.017 13.015 121.665 13.1213 121.394 13.334C121.122 13.5467 120.987 13.818 120.987 14.148C120.987 14.3753 121.064 14.566 121.218 14.72C121.372 14.874 121.562 14.9987 121.79 15.094C122.024 15.1893 122.347 15.2993 122.758 15.424C123.315 15.6073 123.762 15.776 124.1 15.93C124.444 16.084 124.741 16.3113 124.991 16.612C125.24 16.9053 125.365 17.2867 125.365 17.756C125.365 18.2253 125.236 18.6433 124.98 19.01C124.723 19.3767 124.364 19.6627 123.902 19.868C123.447 20.0733 122.926 20.176 122.34 20.176C121.804 20.176 121.265 20.0477 120.723 19.791C120.187 19.5343 119.747 19.1933 119.403 18.768L120.382 17.987ZM132.163 13.081H129.798V20.121H128.478V13.081H126.091V11.937H132.163V13.081Z" fill="#D5D5DE"/>
<path d="M19 330L302 330" stroke="#E6E6EB" stroke-width="2" stroke-linecap="round" stroke-dasharray="6 6"/>
<path d="M97.7993 284.032V293.612H95.9243V284.032H97.7993ZM98.1509 295.619V297.113H88.8638V292.646H90.7534V295.619H98.1509ZM90.4898 284.882C92.5405 284.882 94.1372 286.288 94.1372 288.236C94.1372 290.229 92.5405 291.62 90.4898 291.62C88.439 291.62 86.8423 290.229 86.8423 288.236C86.8423 286.288 88.439 284.882 90.4898 284.882ZM90.4898 286.508C89.4497 286.493 88.6587 287.152 88.6733 288.236C88.6587 289.35 89.4497 289.994 90.4898 289.994C91.5005 289.994 92.2915 289.35 92.2915 288.236C92.2915 287.152 91.5005 286.493 90.4898 286.508ZM110.47 284.018V289.013H111.994V290.565H110.47V297.348H108.566V293.173L107.467 294.447C106.603 293.781 106.076 292.777 105.768 291.62C105.431 292.821 104.875 293.869 103.937 294.55C103.021 293.883 102.465 292.851 102.135 291.664C101.828 292.777 101.322 293.729 100.524 294.374L99.2642 293.114C100.978 291.752 101.242 289.467 101.242 287.387V285.072H103V287.387C102.985 288.91 103.124 290.653 103.952 292.03C104.75 290.668 104.875 288.917 104.889 287.387V285.072H106.647V287.387C106.647 289.459 106.889 291.745 108.566 293.07V284.018H110.47ZM118.966 284.794V288.954H114.938V290.375C116.923 290.375 118.095 290.309 119.45 290.053L119.625 291.547C118.073 291.825 116.667 291.869 114.088 291.869H113.092V287.563H117.091V286.259H113.063V284.794H118.966ZM123.8 284.032V292.235H121.94V290.185H119.728V288.705H121.94V287.357H119.728V285.878H121.94V284.032H123.8ZM123.8 292.836V297.348H121.94V294.33H114.616V292.836H123.8ZM135.783 285.116V291.518H129.381V285.116H135.783ZM131.227 286.61V290.053H133.937V286.61H131.227ZM139.562 284.018V287.855H141.364V289.394H139.562V293.744H137.687V284.018H139.562ZM140.045 295.619V297.113H130.919V292.792H132.78V295.619H140.045ZM147.194 284.867V288.69H144.293V289.774C145.67 289.767 146.74 289.701 147.97 289.481L148.161 290.932C146.623 291.195 145.333 291.254 143.415 291.239H142.492V287.328H145.407V286.317H142.477V284.867H147.194ZM153.405 284.032V291.488H151.632V284.032H153.405ZM150.68 284.281V291.43H148.922V288.295H147.677V286.786H148.922V284.281H150.68ZM146.168 292.016V293.129H151.559V292.016H153.405V297.201H144.323V292.016H146.168ZM146.168 295.707H151.559V294.579H146.168V295.707Z" fill="#3A3C42"/>
<path d="M164.845 285.38V286.83H158.297V285.38H160.656V284.105H162.516V285.38H164.845ZM161.593 287.24C163.292 287.24 164.494 288.236 164.508 289.672C164.494 291.049 163.292 292.03 161.593 292.03C159.923 292.03 158.708 291.049 158.708 289.672C158.708 288.236 159.923 287.24 161.593 287.24ZM161.593 288.632C160.861 288.632 160.377 288.983 160.377 289.672C160.377 290.302 160.861 290.653 161.593 290.653C162.326 290.653 162.809 290.302 162.824 289.672C162.809 288.983 162.326 288.632 161.593 288.632ZM169.826 284.032V292.367H168.053V289.071H167.028V292.294H165.255V284.237H167.028V287.548H168.053V284.032H169.826ZM169.826 292.968V297.348H167.965V294.462H160.612V292.968H169.826ZM182.497 284.032V293.612H180.622V284.032H182.497ZM182.848 295.619V297.113H173.561V292.646H175.451V295.619H182.848ZM175.187 284.882C177.238 284.882 178.834 286.288 178.834 288.236C178.834 290.229 177.238 291.62 175.187 291.62C173.136 291.62 171.54 290.229 171.54 288.236C171.54 286.288 173.136 284.882 175.187 284.882ZM175.187 286.508C174.147 286.493 173.356 287.152 173.371 288.236C173.356 289.35 174.147 289.994 175.187 289.994C176.198 289.994 176.989 289.35 176.989 288.236C176.989 287.152 176.198 286.493 175.187 286.508ZM195.167 284.018V289.013H196.691V290.565H195.167V297.348H193.263V293.173L192.165 294.447C191.3 293.781 190.773 292.777 190.465 291.62C190.128 292.821 189.572 293.869 188.634 294.55C187.719 293.883 187.162 292.851 186.833 291.664C186.525 292.777 186.02 293.729 185.221 294.374L183.961 293.114C185.675 291.752 185.939 289.467 185.939 287.387V285.072H187.697V287.387C187.682 288.91 187.821 290.653 188.649 292.03C189.447 290.668 189.572 288.917 189.586 287.387V285.072H191.344V287.387C191.344 289.459 191.586 291.745 193.263 293.07V284.018H195.167ZM202.946 285.395V288.866H204.279V284.208H206.037V296.732H204.279V290.36H202.946V293.993H197.643V285.395H202.946ZM199.386 286.874V292.528H201.203V286.874H199.386ZM208.82 284.018V297.348H207.033V284.018H208.82ZM221.388 284.018V297.377H219.499V284.018H221.388ZM214.152 284.955C216.159 284.955 217.653 286.801 217.653 289.701C217.653 292.631 216.159 294.462 214.152 294.462C212.101 294.462 210.607 292.631 210.622 289.701C210.607 286.801 212.101 284.955 214.152 284.955ZM214.152 286.64C213.112 286.64 212.423 287.724 212.423 289.701C212.423 291.693 213.112 292.763 214.152 292.763C215.163 292.763 215.851 291.693 215.851 289.701C215.851 287.724 215.163 286.64 214.152 286.64ZM234.059 290.902V292.382H224.625V284.999H233.957V286.508H226.53V287.914H233.649V289.379H226.53V290.902H234.059ZM235.392 294.271V295.795H223.19V294.271H235.392Z" fill="#FF6F61"/>
<ellipse cx="160.119" cy="239.852" rx="59.1187" ry="12.8519" fill="#F3F3F6"/>
<circle cx="131.5" cy="235.5" r="6.5" fill="black"/>
<circle cx="195.5" cy="235.5" r="6.5" fill="black"/>
<path fill-rule="evenodd" clip-rule="evenodd" d="M227.291 222.964C228.394 224.082 228.188 225.725 226.83 226.633L216.691 233.416C216.126 233.794 215.421 234 214.693 234H112.04C111.24 234 110.47 233.751 109.884 233.303L101.012 226.52C99.7302 225.54 99.6559 223.889 100.847 222.834C102.037 221.778 104.042 221.717 105.324 222.697L113.284 228.783H213.568L222.834 222.584C224.192 221.676 226.187 221.846 227.291 222.964Z" fill="#FF6F61" stroke="black" stroke-width="2" stroke-linecap="round" stroke-linejoin="round"/>
<path d="M92.1338 211.343C88.9621 208.573 80.6948 204.16 73.0001 208.665" stroke="black" stroke-width="2" stroke-linecap="round" stroke-linejoin="round"/>
<path d="M94.2533 216.751C90.3717 215.118 81.1363 213.527 75.2476 220.222" stroke="black" stroke-width="2" stroke-linecap="round" stroke-linejoin="round"/>
<path d="M82.1685 99.979L89.9812 105.028L99.0896 98.3845L98.3013 108.119L111.179 110.807L98.3606 115.133L102.877 122.452L91.0929 120.559L88.6282 126.545L86.2123 122.631L78.8415 130.765L81.0579 119.701L73.1573 114.389L83.4403 110.945L82.1685 99.979Z" fill="#FF6F61" stroke="black" stroke-width="2"/>
<path d="M206.636 158.166L199.17 162.439C201.034 168.683 200.15 178.783 205.524 177.342C210.41 176.032 222.645 170.369 227.174 165.443C229.236 162.927 231.897 156.54 226.05 151.121C220.203 145.702 214.167 149.082 211.879 151.449C206.263 150.839 206.044 155.673 206.636 158.166Z" fill="#FFCDC9"/>
<path d="M208.296 176.612C212.707 174.204 224.145 167.887 226.96 164.659C229.037 162.278 231.704 155.794 225.989 150.809C220.274 145.825 214.249 149.069 211.951 151.314C206.397 150.821 206.113 155.344 206.665 157.667L201.796 160.612" stroke="black" stroke-width="2" stroke-linecap="round"/>
<path fill-rule="evenodd" clip-rule="evenodd" d="M184.653 200.952C202.36 193.777 214.845 176.463 214.845 156.244C214.845 129.599 193.165 108 166.422 108C139.679 108 118 129.599 118 156.244C118 174.8 128.515 190.909 143.933 198.98L127 211.773L136.568 224.436C139.119 227.813 142.783 226.813 144.297 225.89C149.362 222.063 147.721 216.673 146.267 214.456L160.015 204.069C162.111 204.345 164.25 204.488 166.422 204.488C167.931 204.488 169.424 204.419 170.897 204.284V228H186.769C191.001 228 192.412 224.473 192.588 222.71C192.588 216.361 187.298 214.421 184.653 214.245V200.952Z" fill="#FFCDC9"/>
<path d="M184.653 200.952L184.277 200.025L183.653 200.278V200.952H184.653ZM143.933 198.98L144.536 199.778L145.795 198.826L144.397 198.094L143.933 198.98ZM127 211.773L126.397 210.975L125.599 211.578L126.202 212.376L127 211.773ZM136.568 224.436L135.77 225.039L136.568 224.436ZM144.297 225.89L144.817 226.744L144.86 226.718L144.9 226.688L144.297 225.89ZM146.267 214.456L145.664 213.658L144.918 214.222L145.431 215.004L146.267 214.456ZM160.015 204.069L160.145 203.078L159.739 203.024L159.412 203.271L160.015 204.069ZM170.897 204.284H171.897V203.189L170.806 203.288L170.897 204.284ZM170.897 228H169.897V229H170.897V228ZM192.588 222.71L193.583 222.809L193.588 222.76V222.71H192.588ZM184.653 214.245H183.653V215.181L184.586 215.243L184.653 214.245ZM213.845 156.244C213.845 176.04 201.622 192.997 184.277 200.025L185.028 201.879C203.099 194.557 215.845 176.886 215.845 156.244H213.845ZM166.422 109C192.617 109 213.845 130.155 213.845 156.244H215.845C215.845 129.044 193.714 107 166.422 107V109ZM119 156.244C119 130.155 140.228 109 166.422 109V107C139.131 107 117 129.044 117 156.244H119ZM144.397 198.094C129.294 190.188 119 174.412 119 156.244H117C117 175.188 127.736 191.63 143.469 199.866L144.397 198.094ZM127.603 212.571L144.536 199.778L143.33 198.182L126.397 210.975L127.603 212.571ZM137.365 223.834L127.798 211.17L126.202 212.376L135.77 225.039L137.365 223.834ZM143.776 225.037C143.157 225.414 142.055 225.824 140.861 225.776C139.715 225.731 138.448 225.267 137.365 223.834L135.77 225.039C137.238 226.983 139.079 227.707 140.782 227.775C142.436 227.841 143.923 227.289 144.817 226.744L143.776 225.037ZM145.431 215.004C146.069 215.978 146.763 217.685 146.727 219.55C146.691 221.362 145.97 223.373 143.694 225.093L144.9 226.688C147.689 224.581 148.68 221.983 148.726 219.589C148.772 217.247 147.918 215.151 147.103 213.908L145.431 215.004ZM159.412 203.271L145.664 213.658L146.87 215.254L160.618 204.867L159.412 203.271ZM166.422 203.488C164.294 203.488 162.199 203.348 160.145 203.078L159.884 205.06C162.024 205.342 164.206 205.488 166.422 205.488V203.488ZM170.806 203.288C169.363 203.42 167.901 203.488 166.422 203.488V205.488C167.962 205.488 169.485 205.417 170.988 205.28L170.806 203.288ZM171.897 228V204.284H169.897V228H171.897ZM186.769 227H170.897V229H186.769V227ZM191.593 222.61C191.521 223.332 191.184 224.458 190.426 225.382C189.699 226.269 188.565 227 186.769 227V229C189.205 229 190.892 227.968 191.973 226.65C193.023 225.37 193.479 223.851 193.583 222.809L191.593 222.61ZM184.586 215.243C185.748 215.32 187.528 215.796 188.994 216.949C190.419 218.07 191.588 219.858 191.588 222.71H193.588C193.588 219.214 192.113 216.857 190.231 215.377C188.39 213.929 186.202 213.346 184.719 213.247L184.586 215.243ZM183.653 200.952V214.245H185.653V200.952H183.653Z" fill="black"/>
<path d="M200.152 128.618C196.467 131.494 187.859 135.453 182.914 128.287C176.733 119.329 189.57 117.77 189.607 125.07C189.637 131.149 184.697 136.426 177.585 132.73C176.268 132.046 173.374 130.11 172.696 126.6" stroke="#FF6F61" stroke-width="2" stroke-linecap="round"/>
<path d="M121.271 156.548L129.383 159.411C128.671 165.888 131.354 175.666 125.809 175.213C120.767 174.802 107.714 171.428 102.374 167.395C99.8937 165.29 96.1282 159.484 100.907 153.104C105.687 146.723 112.232 148.964 114.907 150.882C120.322 149.273 121.406 153.989 121.271 156.548Z" fill="#FFCDC9"/>
<path d="M122.95 174.992C118.178 173.416 105.792 169.255 102.443 166.586C99.9726 164.616 96.1842 158.716 100.911 152.786C105.638 146.856 112.148 148.966 114.812 150.761C120.187 149.28 121.279 153.678 121.153 156.062L126.471 158.085" stroke="black" stroke-width="2" stroke-linecap="round"/>
<ellipse cx="4.63702" cy="6.1827" rx="4.63702" ry="6.1827" transform="matrix(-0.993835 0.110872 0.110872 0.993835 205.786 139)" fill="black"/>
<ellipse cx="4.63702" cy="6.1827" rx="4.63702" ry="6.1827" transform="matrix(-0.993835 0.110872 0.110872 0.993835 181.217 141.741)" fill="black"/>
<ellipse cx="3.09135" cy="4.63702" rx="3.09135" ry="4.63702" transform="matrix(0.110872 0.993835 0.993835 -0.110872 185.316 150.613)" fill="black"/>
<path fill-rule="evenodd" clip-rule="evenodd" d="M205.197 123.813C207.173 123.376 209.13 124.624 209.568 126.601C210.661 131.543 207.54 136.435 202.599 137.528L199.295 138.259C195.475 139.104 191.686 137.432 189.657 134.348C188.483 138.522 184.654 141.587 180.103 141.599L176.43 141.609C170.934 141.624 166.467 137.181 166.452 131.686C166.446 129.487 168.223 127.701 170.422 127.695L186.036 127.652C187.082 127.65 188.035 128.051 188.747 128.709C189.24 127.828 190.092 127.154 191.155 126.919L205.197 123.813Z" fill="black"/>
<path d="M170.822 134.594L177.252 138.344" stroke="white" stroke-width="1.5" stroke-linecap="round" stroke-linejoin="round"/>
<path d="M176.716 134.058L181.002 136.737" stroke="white" stroke-width="1.5" stroke-linecap="round" stroke-linejoin="round"/>
<path d="M259.791 129.705C250.732 128.309 235.702 136.261 234.111 142.858C236.452 139.513 248.371 138.636 250.667 138.299C248.718 142.585 248.59 144.157 247.946 147.801C250.28 146.605 264.352 139.774 273.458 140.14C269.242 136.532 261.489 135.995 258.256 136.868L259.791 129.705Z" fill="#FF6F61" stroke="black" stroke-width="2" stroke-linecap="round" stroke-linejoin="round"/>
<path d="M234.359 114.502C228.312 116.99 221.794 127.787 223.074 132.667C223.368 129.618 230.395 124.582 231.691 123.503C231.96 127.016 232.42 128.085 233.271 130.693C234.297 129.042 240.61 119.332 246.333 116.158C242.507 115.394 237.556 117.951 235.868 119.73L234.359 114.502Z" fill="white" stroke="black" stroke-width="2" stroke-linecap="round" stroke-linejoin="round"/>
<path fill-rule="evenodd" clip-rule="evenodd" d="M131.544 138.254L105.562 139.217L111.054 170.399L111.091 170.397C111.248 171.3 115.089 171.887 119.775 171.713C124.462 171.539 128.248 170.67 128.338 169.758L128.375 169.757L131.544 138.254Z" fill="#FFE6E4" stroke="black" stroke-width="2" stroke-linejoin="round"/>
<path fill-rule="evenodd" clip-rule="evenodd" d="M106.94 149.285L106.936 149.285L108.765 160.542L108.775 160.541C108.959 161.469 113.62 162.046 119.314 161.835C125.008 161.624 129.614 160.704 129.729 159.765L129.729 159.765L130.919 148.397L130.915 148.397C130.777 149.336 125.504 150.282 118.99 150.523C112.475 150.765 107.146 150.212 106.94 149.285Z" fill="#FF998F" stroke="black" stroke-width="2" stroke-linejoin="round"/>
<path fill-rule="evenodd" clip-rule="evenodd" d="M132.901 134.352C132.861 133.287 126.315 132.235 118.14 132.537C109.966 132.84 103.381 134.38 103.421 135.445L103.58 139.735L103.583 139.81L103.588 139.81C103.855 141.305 110.416 142.27 118.423 141.973C126.43 141.677 132.902 140.229 133.057 138.718L133.062 138.718L133.06 138.642L132.901 134.352Z" fill="#FF998F"/>
<path d="M132.901 134.352L131.901 134.389L131.901 134.389L132.901 134.352ZM103.583 139.81L102.583 139.847C102.593 140.112 102.708 140.362 102.902 140.543C103.097 140.723 103.355 140.819 103.62 140.809L103.583 139.81ZM103.588 139.81L104.572 139.634C104.485 139.143 104.049 138.792 103.551 138.811L103.588 139.81ZM133.057 138.718L133.02 137.719C132.522 137.737 132.113 138.12 132.062 138.616L133.057 138.718ZM133.062 138.718L133.099 139.717C133.651 139.697 134.082 139.233 134.062 138.681L133.062 138.718ZM133.06 138.642L134.059 138.605L134.059 138.605L133.06 138.642ZM118.177 133.537C122.218 133.387 125.84 133.573 128.438 133.923C129.743 134.099 130.753 134.311 131.417 134.527C131.756 134.638 131.951 134.733 132.043 134.793C132.19 134.889 131.916 134.775 131.901 134.389L133.9 134.315C133.876 133.663 133.388 133.283 133.138 133.119C132.832 132.919 132.446 132.759 132.037 132.626C131.208 132.355 130.062 132.124 128.704 131.941C125.976 131.574 122.238 131.385 118.103 131.538L118.177 133.537ZM104.42 135.408C104.435 135.802 104.159 135.937 104.308 135.825C104.399 135.757 104.593 135.647 104.929 135.511C105.589 135.244 106.599 134.957 107.905 134.684C110.504 134.142 114.137 133.687 118.177 133.537L118.103 131.538C113.969 131.691 110.223 132.157 107.496 132.726C106.139 133.01 104.999 133.326 104.18 133.656C103.777 133.819 103.399 134.006 103.106 134.227C102.87 134.404 102.397 134.82 102.422 135.482L104.42 135.408ZM102.422 135.482L102.581 139.772L104.579 139.698L104.42 135.408L102.422 135.482ZM102.581 139.772L102.583 139.847L104.582 139.773L104.579 139.698L102.581 139.772ZM103.62 140.809L103.625 140.809L103.551 138.811L103.546 138.811L103.62 140.809ZM102.603 139.985C102.699 140.52 103.048 140.895 103.366 141.138C103.693 141.389 104.101 141.589 104.537 141.755C105.413 142.089 106.59 142.353 107.958 142.553C110.708 142.955 114.414 143.123 118.46 142.973L118.386 140.974C114.425 141.121 110.846 140.954 108.247 140.574C106.941 140.383 105.928 140.145 105.248 139.886C104.906 139.756 104.695 139.638 104.582 139.55C104.458 139.456 104.544 139.474 104.572 139.634L102.603 139.985ZM118.46 142.973C122.506 142.823 126.189 142.382 128.902 141.777C130.252 141.476 131.406 141.125 132.255 140.728C132.677 140.53 133.069 140.3 133.377 140.026C133.676 139.76 133.996 139.36 134.052 138.82L132.062 138.616C132.079 138.453 132.163 138.429 132.047 138.533C131.94 138.628 131.739 138.761 131.407 138.917C130.749 139.225 129.755 139.538 128.467 139.825C125.904 140.396 122.347 140.827 118.386 140.974L118.46 142.973ZM133.094 139.717L133.099 139.717L133.025 137.718L133.02 137.719L133.094 139.717ZM134.062 138.681L134.059 138.605L132.06 138.679L132.063 138.755L134.062 138.681ZM134.059 138.605L133.9 134.315L131.901 134.389L132.06 138.679L134.059 138.605Z" fill="black"/>
<path fill-rule="evenodd" clip-rule="evenodd" d="M124.873 124.103C125.262 124.793 124.939 125.636 124.153 125.985L119.337 128.125L119.632 136.085C119.526 137.99 120.259 137.963 118.027 138.045C116.528 138.101 116.528 138.101 116.458 136.202L116.129 127.342C116.109 126.793 116.454 126.282 117.013 126.034L122.745 123.487C123.532 123.137 124.484 123.413 124.873 124.103Z" fill="#FF6F61" stroke="black" stroke-width="2" stroke-linecap="round" stroke-linejoin="round"/>
<path d="M107.491 137.256C111.032 138.305 120.544 138.453 125.5 137.185" stroke="black" stroke-width="2" stroke-linecap="round" stroke-linejoin="round"/>
<path d="M106.339 159.504C105.306 155.955 102.781 154.792 105.337 153.443C107.894 152.094 110.804 153.877 111.837 157.426C112.871 160.974 111.636 164.945 109.08 166.294C106.523 167.644 107.373 163.052 106.339 159.504Z" fill="#FFCDC9"/>
<path d="M105.794 153.438C106.455 152.887 107.226 152.655 108.024 152.767C108.821 152.879 109.613 153.331 110.312 154.073C111.011 154.816 111.59 155.819 111.986 156.973C112.381 158.127 112.577 159.387 112.552 160.613C112.527 161.839 112.282 162.984 111.844 163.921C111.406 164.859 110.792 165.552 110.07 165.925C109.348 166.298 108.546 166.336 107.753 166.035" stroke="black" stroke-width="2" stroke-linecap="round"/>
</svg>
