<svg width="321" height="479" viewBox="0 0 321 479" fill="none" xmlns="http://www.w3.org/2000/svg">
<mask id="path-1-inside-1_890_3348" fill="white">
<path fill-rule="evenodd" clip-rule="evenodd" d="M139.389 0C142.823 0 145.958 1.95432 147.47 5.03779L153.933 18.2188C155.445 21.3022 158.58 23.2566 162.014 23.2566H312C316.971 23.2566 321 27.286 321 32.2566V469.257C321 474.227 316.971 478.257 312 478.257H9C4.02943 478.257 0 474.227 0 469.257V46.9085V23.2566V9C0 4.02944 4.02943 0 9 0H139.389Z"/>
</mask>
<path fill-rule="evenodd" clip-rule="evenodd" d="M139.389 0C142.823 0 145.958 1.95432 147.47 5.03779L153.933 18.2188C155.445 21.3022 158.58 23.2566 162.014 23.2566H312C316.971 23.2566 321 27.286 321 32.2566V469.257C321 474.227 316.971 478.257 312 478.257H9C4.02943 478.257 0 474.227 0 469.257V46.9085V23.2566V9C0 4.02944 4.02943 0 9 0H139.389Z" fill="white"/>
<path d="M147.47 5.03779L148.368 4.59755L147.47 5.03779ZM153.933 18.2188L153.035 18.659L153.933 18.2188ZM154.831 17.7785L148.368 4.59755L146.572 5.47804L153.035 18.659L154.831 17.7785ZM162.014 24.2566H312V22.2566H162.014V24.2566ZM320 32.2566V469.257H322V32.2566H320ZM312 477.257H9V479.257H312V477.257ZM1 469.257V46.9085H-1V469.257H1ZM1 46.9085V23.2566H-1V46.9085H1ZM-1 9V23.2566H1V9H-1ZM139.389 -1H9V1H139.389V-1ZM1 9C1 4.58172 4.58172 1 9 1V-1C3.47715 -1 -1 3.47715 -1 9H1ZM9 477.257C4.58172 477.257 1 473.675 1 469.257H-1C-1 474.779 3.47715 479.257 9 479.257V477.257ZM320 469.257C320 473.675 316.418 477.257 312 477.257V479.257C317.523 479.257 322 474.779 322 469.257H320ZM312 24.2566C316.418 24.2566 320 27.8383 320 32.2566H322C322 26.7337 317.523 22.2566 312 22.2566V24.2566ZM148.368 4.59755C146.688 1.17147 143.205 -1 139.389 -1V1C142.442 1 145.228 2.73718 146.572 5.47804L148.368 4.59755ZM153.035 18.659C154.715 22.0851 158.198 24.2566 162.014 24.2566V22.2566C158.961 22.2566 156.175 20.5194 154.831 17.7785L153.035 18.659Z" fill="#D5D5DE" mask="url(#path-1-inside-1_890_3348)"/>
<path fill-rule="evenodd" clip-rule="evenodd" d="M165.013 448.951C164.677 448.924 164.165 449.06 163.708 449.93C162.766 451.721 163.155 453.413 163.394 454.453C163.409 454.518 163.424 454.581 163.438 454.642L161.856 454.996C161.843 454.935 161.827 454.868 161.81 454.795C161.565 453.75 161.042 451.518 162.273 449.177C162.967 447.858 164.03 447.247 165.144 447.337C165.835 447.393 166.463 447.716 166.935 448.178C167.198 448.036 167.489 447.912 167.811 447.813C168.419 447.626 168.988 447.603 169.5 447.744C170.014 447.886 170.412 448.177 170.706 448.519C171.269 449.176 171.472 450.048 171.46 450.661C171.433 452.079 170.963 453.606 170.53 455.012L170.516 455.057L168.967 454.581C169.422 453.103 169.817 451.79 169.84 450.63C169.846 450.324 169.727 449.866 169.475 449.572C169.361 449.439 169.229 449.349 169.069 449.305C168.907 449.26 168.659 449.246 168.288 449.36C168.092 449.42 167.915 449.494 167.753 449.578C167.819 449.798 167.874 450.035 167.918 450.273C168.013 450.775 168.075 451.348 168.077 451.9C168.078 452.44 168.023 453.023 167.842 453.51C167.663 453.991 167.273 454.581 166.513 454.665C166.239 454.695 165.702 454.752 165.243 454.428C164.765 454.091 164.609 453.525 164.549 452.99C164.518 452.717 164.488 451.727 164.865 450.661C165.035 450.181 165.291 449.678 165.669 449.219C165.47 449.067 165.239 448.969 165.013 448.951ZM166.412 451.148C166.405 451.166 166.399 451.183 166.393 451.201C166.258 451.583 166.194 451.959 166.168 452.262C166.155 452.412 166.152 452.541 166.152 452.639C166.153 452.688 166.154 452.728 166.155 452.758C166.156 452.773 166.157 452.785 166.158 452.794C166.158 452.799 166.158 452.802 166.159 452.805C166.159 452.807 166.159 452.808 166.159 452.808L166.159 452.808C166.172 452.927 166.189 453.01 166.204 453.068C166.223 453.067 166.245 453.065 166.27 453.063C166.284 453.04 166.301 453.004 166.323 452.947C166.406 452.722 166.458 452.361 166.456 451.905C166.456 451.657 166.44 451.4 166.412 451.148ZM166.247 453.094C166.247 453.093 166.25 453.089 166.257 453.084C166.251 453.092 166.247 453.095 166.247 453.094Z" fill="#FF998F"/>
<path d="M192.334 449.848C192.198 449.614 192.017 449.411 191.792 449.239C191.567 449.067 191.307 448.953 191.012 448.898C190.727 448.84 190.423 448.869 190.1 448.986C189.786 449.1 189.523 449.272 189.312 449.501C189.11 449.727 188.966 449.987 188.881 450.282C188.792 450.568 188.768 450.851 188.809 451.13L192.334 449.848ZM193.299 448.356C193.588 448.647 193.816 448.98 193.983 449.355C194.156 449.719 194.289 450.071 194.383 450.412L194.432 450.547L189.279 452.421C189.431 452.7 189.644 452.922 189.918 453.087C190.188 453.242 190.477 453.34 190.786 453.38C191.092 453.41 191.384 453.375 191.662 453.274C192.12 453.108 192.437 452.906 192.615 452.669C192.802 452.429 192.917 452.214 192.96 452.026L192.968 452.008L194.659 452.048C194.61 452.583 194.383 453.102 193.977 453.605C193.568 454.099 192.973 454.487 192.192 454.771C191.511 455.019 190.85 455.087 190.209 454.975C189.566 454.853 188.996 454.573 188.501 454.134C188.006 453.695 187.631 453.126 187.376 452.427C187.119 451.719 187.038 451.038 187.135 450.384C187.228 449.721 187.484 449.141 187.903 448.644C188.318 448.138 188.866 447.761 189.548 447.513C190.22 447.268 190.827 447.205 191.368 447.323C191.914 447.428 192.345 447.592 192.659 447.812C192.973 448.033 193.182 448.216 193.285 448.361L193.299 448.356Z" fill="#FF998F"/>
<path d="M186.518 454.644C186.288 454.758 186.069 454.839 185.859 454.887C185.649 454.944 185.358 454.973 184.985 454.973C184.527 454.973 184.117 454.868 183.754 454.658C183.391 454.439 183.11 454.134 182.909 453.743C182.709 453.352 182.608 452.908 182.608 452.412V445.089H184.556V452.412C184.556 452.651 184.613 452.856 184.728 453.028C184.852 453.199 185.005 453.29 185.186 453.299C185.415 453.328 185.687 453.256 186.002 453.085L186.016 453.07L186.675 454.572L186.518 454.644ZM181.234 447.435H186.489V448.994H181.234V447.435Z" fill="#FF998F"/>
<path d="M176.239 453.542C176.592 453.542 176.921 453.442 177.227 453.242C177.532 453.042 177.776 452.765 177.957 452.412C178.138 452.06 178.229 451.669 178.229 451.24C178.229 450.82 178.138 450.434 177.957 450.081C177.776 449.728 177.532 449.451 177.227 449.251C176.921 449.051 176.592 448.951 176.239 448.951C175.866 448.951 175.537 449.046 175.251 449.237C174.974 449.418 174.754 449.685 174.592 450.038C174.439 450.381 174.363 450.782 174.363 451.24C174.363 451.707 174.439 452.117 174.592 452.47C174.754 452.813 174.974 453.08 175.251 453.271C175.537 453.452 175.866 453.542 176.239 453.542ZM180.176 454.973L178.229 454.987V454.029C178.038 454.267 177.823 454.468 177.585 454.63C177.356 454.782 177.107 454.897 176.84 454.973C176.582 455.059 176.32 455.102 176.053 455.102C175.346 455.102 174.716 454.94 174.162 454.615C173.609 454.282 173.179 453.824 172.874 453.242C172.568 452.66 172.416 451.993 172.416 451.24C172.416 450.496 172.568 449.833 172.874 449.251C173.179 448.669 173.609 448.217 174.162 447.892C174.716 447.559 175.346 447.392 176.053 447.392C176.463 447.392 176.859 447.482 177.241 447.663C177.623 447.845 177.952 448.112 178.229 448.464V447.363H180.176V454.973Z" fill="#FF998F"/>
<path d="M160.511 447.277V455.045H158.563V447.277H160.511Z" fill="#FF998F"/>
<path d="M157.232 454.644C157.003 454.758 156.783 454.839 156.573 454.887C156.363 454.944 156.072 454.973 155.7 454.973C155.242 454.973 154.831 454.868 154.468 454.658C154.106 454.439 153.824 454.134 153.624 453.743C153.423 453.352 153.323 452.908 153.323 452.412V445.089H155.27V452.412C155.27 452.651 155.327 452.856 155.442 453.028C155.566 453.199 155.719 453.29 155.9 453.299C156.129 453.328 156.401 453.256 156.716 453.085L156.731 453.07L157.389 454.572L157.232 454.644ZM151.948 447.435H157.203V448.994H151.948V447.435Z" fill="#FF998F"/>
<path d="M146.291 452.519C146.51 452.777 146.773 452.982 147.078 453.134C147.393 453.287 147.68 453.363 147.937 453.363C148.281 453.363 148.563 453.287 148.782 453.134C149.002 452.972 149.112 452.767 149.112 452.519C149.112 452.414 149.059 452.324 148.954 452.247C148.859 452.162 148.715 452.085 148.525 452.019C148.343 451.952 148.133 451.88 147.895 451.804C147.341 451.632 146.878 451.465 146.506 451.303C146.143 451.141 145.823 450.908 145.546 450.602C145.279 450.288 145.145 449.892 145.145 449.415C145.145 448.967 145.269 448.571 145.518 448.228C145.766 447.875 146.109 447.599 146.549 447.398C146.997 447.198 147.498 447.098 148.052 447.098C148.52 447.098 148.992 447.208 149.47 447.427C149.947 447.637 150.338 447.918 150.644 448.271L149.412 449.387C149.231 449.167 149.016 448.996 148.768 448.872C148.52 448.738 148.281 448.671 148.052 448.671C147.775 448.671 147.546 448.738 147.365 448.872C147.183 448.996 147.093 449.162 147.093 449.372C147.093 449.487 147.145 449.587 147.25 449.673C147.365 449.758 147.517 449.84 147.708 449.916C147.909 449.983 148.133 450.054 148.381 450.13C148.925 450.302 149.374 450.469 149.727 450.631C150.09 450.784 150.4 451.013 150.658 451.318C150.925 451.613 151.059 451.995 151.059 452.462C151.059 452.948 150.925 453.377 150.658 453.749C150.4 454.121 150.033 454.412 149.556 454.622C149.088 454.832 148.548 454.937 147.937 454.937C147.432 454.937 146.907 454.817 146.362 454.579C145.828 454.341 145.384 454.026 145.031 453.635L146.291 452.519Z" fill="#FF998F"/>
<path d="M142.407 450.453C142.359 450.186 142.259 449.933 142.106 449.695C141.953 449.456 141.748 449.261 141.49 449.108C141.242 448.956 140.946 448.879 140.602 448.879C140.268 448.879 139.963 448.951 139.686 449.094C139.419 449.237 139.194 449.432 139.013 449.68C138.832 449.919 138.712 450.176 138.655 450.453H142.407ZM143.824 449.38C143.996 449.752 144.096 450.143 144.125 450.553C144.163 450.954 144.168 451.33 144.139 451.683V451.826H138.655C138.703 452.141 138.827 452.422 139.027 452.67C139.228 452.908 139.466 453.099 139.743 453.242C140.02 453.376 140.307 453.442 140.602 453.442C141.089 453.442 141.457 453.361 141.705 453.199C141.963 453.037 142.144 452.875 142.249 452.713L142.263 452.699L143.839 453.314C143.609 453.8 143.218 454.21 142.664 454.544C142.111 454.868 141.419 455.03 140.588 455.03C139.863 455.03 139.218 454.868 138.655 454.544C138.092 454.21 137.653 453.752 137.338 453.171C137.023 452.589 136.865 451.926 136.865 451.182C136.865 450.429 137.023 449.761 137.338 449.18C137.653 448.589 138.092 448.131 138.655 447.807C139.218 447.473 139.863 447.306 140.588 447.306C141.304 447.306 141.896 447.454 142.364 447.749C142.841 448.035 143.189 448.336 143.409 448.651C143.629 448.965 143.762 449.208 143.81 449.38H143.824Z" fill="#FF998F"/>
<path d="M136.632 445.918H130.947V448.779H135.744V450.438H130.947V454.987H129V444.259H136.632V445.918Z" fill="#FF998F"/>
<ellipse cx="159.533" cy="445.641" rx="0.972235" ry="0.971246" fill="#FF998F"/>
<path d="M91.8472 362.653V374.143H90.438V368.277H88.2163V367.135H90.438V362.653H91.8472ZM86.4136 366.297C86.4009 368.036 87.4419 369.89 89.2573 370.689L88.4956 371.769C87.1816 371.21 86.2295 370.061 85.728 368.684C85.2202 370.144 84.2744 371.369 82.9605 371.959L82.1987 370.867C83.9888 370.055 85.0044 368.1 85.0044 366.297V365.7H82.5415V364.57H85.0171V362.895H86.4263V364.57H88.8257V365.7H86.4136V366.297ZM98.6773 362.882C101.216 362.882 102.803 363.72 102.816 365.116C102.803 366.487 101.216 367.313 98.6773 367.3C96.1636 367.313 94.5386 366.487 94.5386 365.116C94.5386 363.72 96.1636 362.882 98.6773 362.882ZM98.6773 363.986C97.0015 363.986 95.9985 364.38 96.0112 365.116C95.9985 365.814 97.0015 366.195 98.6773 366.208C100.353 366.195 101.356 365.814 101.356 365.116C101.356 364.38 100.353 363.986 98.6773 363.986ZM102.651 370.131V373.99H94.6909V370.131H102.651ZM96.0874 371.248V372.848H101.28V371.248H96.0874ZM103.92 368.074V369.217H93.4595V368.074H103.92ZM114.242 362.653V374.143H112.82V362.653H114.242ZM108.059 363.491C109.786 363.491 111.042 365.065 111.055 367.541C111.042 370.042 109.786 371.604 108.059 371.604C106.32 371.604 105.063 370.042 105.063 367.541C105.063 365.065 106.32 363.491 108.059 363.491ZM108.059 364.761C107.082 364.761 106.421 365.789 106.421 367.541C106.421 369.306 107.082 370.334 108.059 370.334C109.024 370.334 109.684 369.306 109.684 367.541C109.684 365.789 109.024 364.761 108.059 364.761ZM124.918 362.653V367.059H126.683V368.239H124.918V374.143H123.522V362.653H124.918ZM121.668 363.656V367.985H117.809V370.271C119.625 370.258 121.04 370.182 122.646 369.902L122.773 371.045C121.008 371.362 119.434 371.438 117.352 371.438H116.413V366.855H120.259V364.799H116.387V363.656H121.668ZM139.861 362.653V369.471H138.452V366.665H136.497V365.51H138.452V362.653H139.861ZM135.976 369.763C138.414 369.763 139.899 370.563 139.899 371.946C139.899 373.33 138.414 374.13 135.976 374.13C133.551 374.13 132.066 373.33 132.079 371.946C132.066 370.563 133.551 369.763 135.976 369.763ZM135.976 370.842C134.376 370.842 133.475 371.223 133.475 371.946C133.475 372.657 134.376 373.038 135.976 373.038C137.576 373.038 138.49 372.657 138.49 371.946C138.49 371.223 137.576 370.842 135.976 370.842ZM134.465 364.621C134.465 366.018 135.392 367.427 137.169 368.023L136.458 369.141C135.183 368.709 134.275 367.833 133.78 366.754C133.272 367.979 132.313 368.957 130.949 369.445L130.212 368.328C132.053 367.693 133.031 366.145 133.031 364.634V364.545H130.644V363.402H136.839V364.545H134.465V364.621ZM151.045 362.666V371.045H149.624V362.666H151.045ZM151.363 372.759V373.901H143.454V370.245H144.875V372.759H151.363ZM145.764 364.418C145.764 366.018 146.704 367.528 148.519 368.138L147.795 369.255C146.488 368.798 145.555 367.884 145.053 366.716C144.533 367.966 143.587 368.969 142.235 369.458L141.499 368.341C143.365 367.681 144.304 366.068 144.304 364.418V363.301H145.764V364.418ZM155.324 369.369V370.601H156.834V369.369H158.142V373.013C159.488 372.448 160.11 371.286 160.11 370.194V369.28H161.519V370.194C161.519 371.388 162.128 372.543 163.55 373.025L162.827 374.079C161.817 373.717 161.164 373.019 160.808 372.149C160.421 372.994 159.767 373.692 158.815 374.079L158.142 373.076V373.99H154.003V369.369H155.324ZM155.324 372.911H156.834V371.654H155.324V372.911ZM155.908 363.123C157.387 363.123 158.555 363.948 158.853 365.192H160.922V362.653H162.332V368.734H160.922V366.36H158.853C158.574 367.636 157.393 368.48 155.908 368.48C154.143 368.48 152.874 367.376 152.874 365.789C152.874 364.215 154.143 363.123 155.908 363.123ZM155.908 364.291C154.917 364.291 154.219 364.875 154.219 365.789C154.219 366.716 154.917 367.325 155.908 367.325C156.873 367.325 157.558 366.716 157.571 365.789C157.558 364.875 156.873 364.291 155.908 364.291ZM168.286 365.916C168.286 367.795 169.39 369.775 171.244 370.55L170.469 371.667C169.111 371.083 168.121 369.877 167.6 368.417C167.067 369.991 166.064 371.312 164.718 371.946L163.906 370.842C165.721 370.004 166.851 367.871 166.851 365.916V364.951H164.325V363.783H170.799V364.951H168.286V365.916ZM173.503 362.653V374.13H172.082V362.653H173.503ZM181.019 363.644V369.064H175.585V363.644H181.019ZM176.969 364.773V367.947H179.635V364.773H176.969ZM184.244 362.653V366.018H185.843V367.198H184.244V371.032H182.834V362.653H184.244ZM184.701 372.759V373.901H176.893V370.22H178.302V372.759H184.701ZM188.662 372.099L187.595 375.653H186.389L187.049 372.099H188.662ZM198.043 370.563C200.57 370.563 202.004 371.172 202.017 372.34C202.004 373.521 200.57 374.13 198.043 374.13C195.479 374.13 194.044 373.521 194.044 372.34C194.044 371.172 195.479 370.563 198.043 370.563ZM198.043 371.578C196.342 371.578 195.492 371.845 195.492 372.34C195.492 372.848 196.342 373.102 198.043 373.089C199.732 373.102 200.583 372.848 200.595 372.34C200.583 371.845 199.732 371.578 198.043 371.578ZM202.715 363.555V364.621H193.346V363.555H197.345V362.526H198.754V363.555H202.715ZM198.043 364.977C200.494 364.977 201.865 365.561 201.865 366.64C201.865 367.719 200.494 368.277 198.043 368.277C195.619 368.277 194.235 367.719 194.235 366.64C194.235 365.561 195.619 364.977 198.043 364.977ZM198.043 365.929C196.52 365.929 195.746 366.17 195.746 366.64C195.746 367.097 196.52 367.3 198.043 367.313C199.58 367.3 200.354 367.097 200.354 366.64C200.354 366.17 199.58 365.929 198.043 365.929ZM203.287 368.874V369.953H192.826V368.874H203.287ZM210.129 363.732V371.337H204.67V363.732H210.129ZM206.067 364.837V370.207H208.758V364.837H206.067ZM213.608 362.653V374.143H212.186V362.653H213.608ZM219.651 364.989C219.651 366.411 220.628 367.808 222.457 368.379L221.733 369.483C220.432 369.058 219.486 368.201 218.965 367.109C218.445 368.296 217.474 369.242 216.109 369.712L215.385 368.595C217.226 367.985 218.216 366.5 218.229 364.989V364.659H215.753V363.529H222.063V364.659H219.651V364.989ZM224.856 362.666V370.994H223.434V362.666H224.856ZM225.173 372.759V373.901H217.264V370.232H218.686V372.759H225.173ZM230.886 364.989C230.886 366.411 231.864 367.808 233.692 368.379L232.968 369.483C231.667 369.058 230.721 368.201 230.201 367.109C229.68 368.296 228.709 369.242 227.344 369.712L226.621 368.595C228.461 367.985 229.452 366.5 229.464 364.989V364.659H226.989V363.529H233.298V364.659H230.886V364.989ZM236.091 362.666V370.994H234.669V362.666H236.091ZM236.409 372.759V373.901H228.5V370.232H229.921V372.759H236.409ZM240.128 363.809L239.989 370.296H238.554L238.402 363.809H240.128ZM239.278 373.102C238.732 373.102 238.288 372.657 238.288 372.111C238.288 371.578 238.732 371.134 239.278 371.134C239.798 371.134 240.255 371.578 240.255 372.111C240.255 372.657 239.798 373.102 239.278 373.102ZM78.314 381.491C79.8691 381.491 81.0181 382.786 81.2212 384.881H83.4048V380.653H84.8013V392.143H83.4048V386.023H81.2339C81.0816 388.239 79.9136 389.604 78.314 389.604C76.5874 389.604 75.3687 388.042 75.3687 385.541C75.3687 383.065 76.5874 381.491 78.314 381.491ZM78.314 382.761C77.3618 382.761 76.7144 383.789 76.7271 385.541C76.7144 387.306 77.3618 388.334 78.314 388.334C79.2661 388.334 79.9009 387.306 79.9136 385.541C79.9009 383.789 79.2661 382.761 78.314 382.761ZM95.7446 385.77V386.925H87.6196V381.656H89.0415V385.77H95.7446ZM96.8999 389.502V390.695H86.4136V389.502H96.8999ZM101.28 383.637C101.28 385.566 101.94 387.458 103.527 388.309L102.689 389.426C101.654 388.848 100.975 387.845 100.594 386.62C100.169 387.972 99.4326 389.102 98.3599 389.743L97.4585 388.715C99.147 387.725 99.9087 385.681 99.9087 383.726V381.669H101.28V383.637ZM107.551 380.653V392.13H106.193V386.315H105.012V391.571H103.679V380.856H105.012V385.173H106.193V380.653H107.551ZM122.443 386.595V387.725H118.012V389.705H116.616V387.725H111.957V386.595H122.443ZM121.288 390.759V391.901H113.226V388.74H114.623V390.759H121.288ZM114.724 381.021V382.316H119.675V381.021H121.072V385.693H113.328V381.021H114.724ZM114.724 384.576H119.675V383.37H114.724V384.576ZM126.95 381.161C128.689 381.148 129.958 382.139 129.958 383.573C129.958 384.982 128.689 385.985 126.95 385.973C125.223 385.985 123.966 384.982 123.966 383.573C123.966 382.139 125.223 381.148 126.95 381.161ZM126.95 382.304C126.01 382.291 125.325 382.786 125.337 383.573C125.325 384.348 126.01 384.817 126.95 384.817C127.927 384.817 128.613 384.348 128.613 383.573C128.613 382.786 127.927 382.291 126.95 382.304ZM132.802 380.666V392.117H131.406V380.666H132.802ZM123.217 386.76C125.287 386.76 128.181 386.722 130.657 386.354L130.758 387.395C129.768 387.585 128.74 387.706 127.737 387.775V391.774H126.315V387.864C125.255 387.909 124.258 387.915 123.395 387.928L123.217 386.76ZM144.025 380.653V392.13H142.603V380.653H144.025ZM140.597 381.872C140.597 385.287 139.277 388.194 135.252 390.099L134.516 388.969C137.519 387.541 138.915 385.598 139.163 382.989H135.1V381.872H140.597ZM156.149 385.858V386.925H145.663V385.858H156.149ZM154.879 387.61V390.226H148.303V391.025H155.222V392.003H146.894V389.312H153.483V388.601H146.881V387.61H154.879ZM154.854 380.907V383.497H148.392V384.246H155.057V385.211H146.996V382.583H153.445V381.885H146.958V380.907H154.854ZM170.457 385.389V386.519H159.996V385.389H170.457ZM169.149 387.293V390.111H162.624V390.949H169.466V392.028H161.24V389.108H167.765V388.334H161.227V387.293H169.149ZM169.517 381.047V382.164H166.102C166.388 383.015 167.803 383.757 169.961 383.903L169.517 384.995C167.46 384.83 165.905 384.138 165.213 383.116C164.521 384.132 162.985 384.83 160.948 384.995L160.503 383.903C162.643 383.757 164.039 383.015 164.337 382.164H160.948V381.047H169.517ZM180.816 380.653V392.13H179.394V380.653H180.816ZM177.388 381.872C177.388 385.287 176.068 388.194 172.043 390.099L171.307 388.969C174.31 387.541 175.706 385.598 175.954 382.989H171.891V381.872H177.388ZM188.357 381.618V382.532H190.667V380.666H192.077V389.02H190.667V386.125H188.357V387.115H182.961V381.618H188.357ZM184.371 382.735V386.011H186.96V382.735H184.371ZM192.331 390.759V391.901H184.51V388.245H185.945V390.759H192.331ZM188.357 384.995H190.667V383.688H188.357V384.995ZM197.942 383.408C197.942 385.541 198.958 387.636 200.786 388.436L199.935 389.565C198.634 388.931 197.72 387.712 197.231 386.214C196.729 387.794 195.796 389.108 194.476 389.781L193.587 388.639C195.454 387.763 196.495 385.554 196.507 383.408V381.58H197.942V383.408ZM203.325 380.653V392.143H201.928V385.503H199.516V384.36H201.928V380.653H203.325ZM217.835 380.666V389.235H216.49V380.666H217.835ZM215.576 380.882V388.956H214.23V384.957H212.935V383.827H214.23V380.882H215.576ZM218.153 390.759V391.901H210.218V388.296H211.64V390.759H218.153ZM212.872 381.555V382.697H209.863V383.979H212.44V385.059H209.863V386.379C211.24 386.373 212.186 386.334 213.303 386.125L213.456 387.242C212.135 387.483 211.043 387.534 209.266 387.534H208.504V381.555H212.872ZM223.434 382.685C223.434 384.297 224.335 385.884 226.1 386.544L225.313 387.636C224.088 387.153 223.212 386.195 222.736 385.008C222.241 386.277 221.314 387.287 219.994 387.801L219.232 386.684C221.06 386.023 222 384.398 222.012 382.685V381.313H223.434V382.685ZM228.868 380.666V389.185H227.458V385.63H225.364V384.5H227.458V383.37H225.364V382.228H227.458V380.666H228.868ZM229.122 390.759V391.901H221.301V388.347H222.736V390.759H229.122ZM236.764 381.161C238.25 381.148 239.417 382.005 239.709 383.269H241.779V380.653H243.188V386.811H241.779V384.411H239.722C239.437 385.7 238.256 386.569 236.764 386.569C235 386.569 233.73 385.439 233.73 383.853C233.73 382.291 235 381.148 236.764 381.161ZM236.764 382.342C235.774 382.342 235.076 382.926 235.076 383.853C235.076 384.767 235.774 385.376 236.764 385.376C237.729 385.376 238.415 384.767 238.427 383.853C238.415 382.926 237.729 382.342 236.764 382.342ZM237.018 387.344V388.563H241.779V387.344H243.188V391.99H235.622V387.344H237.018ZM237.018 390.848H241.779V389.654H237.018V390.848ZM247.174 381.809L247.035 388.296H245.6L245.448 381.809H247.174ZM246.324 391.102C245.778 391.102 245.333 390.657 245.333 390.111C245.333 389.578 245.778 389.134 246.324 389.134C246.844 389.134 247.301 389.578 247.301 390.111C247.301 390.657 246.844 391.102 246.324 391.102ZM58.6743 398.653V401.561H60.2739V402.741H58.6743V405.572H57.2651V398.653H58.6743ZM58.6743 406.118V409.99H51.2603V406.118H58.6743ZM52.6567 407.235V408.848H57.2778V407.235H52.6567ZM56.4399 399.758V400.888H49.6353V399.758H52.3394V398.577H53.7485V399.758H56.4399ZM53.0376 401.307C54.7007 401.307 55.8306 402.145 55.8433 403.363C55.8306 404.595 54.7007 405.42 53.0376 405.42C51.3618 405.42 50.2192 404.595 50.2192 403.363C50.2192 402.145 51.3618 401.307 53.0376 401.307ZM53.0376 402.373C52.1616 402.373 51.5903 402.741 51.5903 403.363C51.5903 403.998 52.1616 404.366 53.0376 404.366C53.9136 404.366 54.4976 403.998 54.4976 403.363C54.4976 402.741 53.9136 402.373 53.0376 402.373ZM63.689 399.999C63.6763 402.703 63.3716 405.318 61.8482 407.578L60.7437 406.981C62.0132 405.198 62.3814 403.338 62.4702 401.142H61.0737V399.999H63.689ZM66.2534 399.999C66.2471 400.983 66.228 402.005 66.1265 403.021H67.2817V398.933H68.6148V409.584H67.2817V404.163H65.9741C65.7202 405.585 65.2568 406.969 64.4126 408.213L63.3335 407.604C64.7109 405.629 64.9775 403.42 65.0347 401.142H64.0317V399.999H66.2534ZM70.8364 398.653V410.13H69.478V398.653H70.8364ZM81.0815 398.653V403.059H82.8462V404.239H81.0815V410.143H79.6851V398.653H81.0815ZM77.8316 399.656V403.985H73.9722V406.271C75.7876 406.258 77.2031 406.182 78.8091 405.902L78.936 407.045C77.1714 407.362 75.5972 407.438 73.5151 407.438H72.5757V402.855H76.4224V400.799H72.5503V399.656H77.8316ZM89.2192 399.618V400.532H91.5298V398.666H92.939V407.02H91.5298V404.125H89.2192V405.115H83.8237V399.618H89.2192ZM85.2329 400.735V404.011H87.8228V400.735H85.2329ZM93.1929 408.759V409.901H85.3726V406.245H86.8071V408.759H93.1929ZM89.2192 402.995H91.5298V401.688H89.2192V402.995ZM103.451 399.694V400.85H99.6294V406.194C101.419 406.182 102.683 406.105 104.111 405.839L104.263 406.981C102.651 407.299 101.267 407.362 99.1216 407.362H98.2075V399.694H103.451ZM107.285 398.653V410.143H105.875V403.846H102.841V402.69H105.875V398.653H107.285ZM115.6 401.637C115.6 403.566 116.26 405.458 117.847 406.309L117.009 407.426C115.975 406.848 115.295 405.845 114.915 404.62C114.489 405.972 113.753 407.102 112.68 407.743L111.779 406.715C113.467 405.725 114.229 403.681 114.229 401.726V399.669H115.6V401.637ZM121.872 398.653V410.13H120.513V404.315H119.333V409.571H118V398.856H119.333V403.173H120.513V398.653H121.872ZM133.678 404.417V405.534H123.192V404.417H127.737V403.579H124.525V400.685H130.974V399.936H124.487V398.856H132.383V401.7H125.921V402.5H132.612V403.579H129.133V404.417H133.678ZM125.947 406.004V406.88H131.025V406.004H132.409V409.99H124.55V406.004H125.947ZM125.947 408.886H131.025V407.946H125.947V408.886ZM143.809 399.707V400.812C143.796 402.233 143.796 403.833 143.352 406.232L141.93 406.08C142.375 403.846 142.375 402.214 142.387 400.837H135.532V399.707H143.809ZM144.901 407.489V408.645H134.44V407.489H138.299V403.503H139.696V407.489H144.901ZM158.713 398.653V410.13H157.368V404.315H156.187V409.571H154.854V398.856H156.187V403.147H157.368V398.653H158.713ZM152.328 401.586C152.328 403.63 153.013 405.509 154.714 406.385L153.889 407.464C152.797 406.88 152.08 405.871 151.68 404.62C151.287 406.048 150.569 407.197 149.433 407.87L148.57 406.791C150.271 405.826 150.957 403.82 150.957 401.586V401.04H148.913V399.91H154.207V401.04H152.328V401.586ZM164.071 406.156C164.071 407.102 164.509 408.099 165.493 408.721C166.489 408.061 166.953 407.013 166.965 406.156V405.598H168.349V406.156C168.336 407.35 169.047 408.467 170.558 408.937L169.873 409.978C168.755 409.603 168.013 408.873 167.613 407.959C167.245 408.86 166.565 409.667 165.531 410.079C164.439 409.686 163.753 408.911 163.398 407.997C162.985 408.879 162.255 409.597 161.189 409.978L160.491 408.937C161.976 408.429 162.687 407.261 162.7 406.156V405.598H164.071V406.156ZM166.115 399.39V404.468H160.58V399.39H166.115ZM161.976 400.52V403.351H164.718V400.52H161.976ZM169.555 398.666V405.217H168.133V398.666H169.555ZM180.524 401.903V403.021H172.577V399.072H173.973V401.903H180.524ZM181.705 404.354V405.471H171.218V404.354H181.705ZM180.6 408.721V409.863H172.475V406.486H173.884V408.721H180.6ZM196.012 404.341V405.471H191.467V406.563H194.73V410.104H193.321V407.692H186.707V406.563H190.071V405.471H185.551V404.341H196.012ZM191.467 398.641V399.732H194.984V400.837H191.569C191.721 401.814 193.067 402.614 195.492 402.792L195.047 403.858C193.003 403.687 191.486 403.052 190.769 402.056C190.052 403.052 188.528 403.687 186.491 403.858L186.046 402.792C188.446 402.614 189.804 401.814 189.969 400.837H186.58V399.732H190.071V398.641H191.467ZM206.664 398.653V410.13H205.318V398.653H206.664ZM204.328 398.869V409.571H202.995V403.795H201.344V402.652H202.995V398.869H204.328ZM200.329 401.789C200.329 403.731 201.027 405.674 202.665 406.613L201.827 407.654C200.767 407.02 200.062 405.928 199.668 404.62C199.262 406.036 198.532 407.242 197.447 407.921L196.583 406.867C198.247 405.864 198.97 403.782 198.97 401.789V401.027H196.977V399.885H202.182V401.027H200.329V401.789ZM221.568 403.389V404.519H211.107V403.389H221.568ZM220.26 405.293V408.111H213.735V408.949H220.578V410.028H212.351V407.108H218.876V406.334H212.338V405.293H220.26ZM220.628 399.047V400.164H217.213C217.499 401.015 218.915 401.757 221.073 401.903L220.628 402.995C218.572 402.83 217.017 402.138 216.325 401.116C215.633 402.132 214.097 402.83 212.059 402.995L211.615 401.903C213.754 401.757 215.15 401.015 215.449 400.164H212.059V399.047H220.628ZM231.927 398.653V410.13H230.505V398.653H231.927ZM228.5 399.872C228.5 403.287 227.179 406.194 223.155 408.099L222.418 406.969C225.421 405.541 226.817 403.598 227.065 400.989H223.002V399.872H228.5ZM243.163 398.653V410.13H241.741V398.653H243.163ZM239.735 399.872C239.735 403.287 238.415 406.194 234.39 408.099L233.654 406.969C236.656 405.541 238.053 403.598 238.3 400.989H234.238V399.872H239.735ZM256.886 398.653V403.135H258.587V404.315H256.886V410.104H255.477V398.653H256.886ZM253.852 399.847C253.852 403.224 252.456 406.182 248.634 408.061L247.834 406.969C250.627 405.579 252.138 403.624 252.43 401.015H248.457V399.847H253.852ZM268.414 401.637V402.779H260.492V398.856H261.901V401.637H268.414ZM269.607 403.884V405.026H259.133V403.884H269.607ZM264.351 405.852C266.827 405.864 268.312 406.626 268.325 407.972C268.312 409.317 266.827 410.079 264.351 410.079C261.85 410.079 260.352 409.317 260.352 407.972C260.352 406.626 261.85 405.864 264.351 405.852ZM264.351 406.956C262.675 406.969 261.774 407.286 261.787 407.972C261.774 408.632 262.675 409 264.351 409C265.989 409 266.903 408.632 266.916 407.972C266.903 407.286 265.989 406.969 264.351 406.956ZM272.73 399.809L272.59 406.296H271.156L271.003 399.809H272.73ZM271.879 409.102C271.333 409.102 270.889 408.657 270.889 408.111C270.889 407.578 271.333 407.134 271.879 407.134C272.4 407.134 272.857 407.578 272.857 408.111C272.857 408.657 272.4 409.102 271.879 409.102Z" fill="#575A63"/>
<path d="M22.7505 13.081H18.3615V15.446H22.0575V16.579H18.3615V20.121H17.0415V11.937H22.7505V13.081ZM29.7221 13.081H25.2231V15.336H29.1501V16.48H25.2231V18.977H29.7221V20.121H23.9031V11.937H29.7221V13.081ZM31.7802 17.987C32.0442 18.3023 32.3522 18.559 32.7042 18.757C33.0635 18.9477 33.4082 19.043 33.7382 19.043C34.0682 19.043 34.3615 18.988 34.6182 18.878C34.8822 18.768 35.0838 18.6177 35.2232 18.427C35.3698 18.229 35.4432 18.0053 35.4432 17.756C35.4432 17.5433 35.3662 17.3637 35.2122 17.217C35.0655 17.0703 34.8785 16.953 34.6512 16.865C34.4312 16.7697 34.1195 16.6633 33.7162 16.546C33.1662 16.3847 32.7115 16.227 32.3522 16.073C32.0002 15.919 31.6958 15.688 31.4392 15.38C31.1898 15.0647 31.0652 14.654 31.0652 14.148C31.0652 13.708 31.1825 13.3157 31.4172 12.971C31.6518 12.6263 31.9818 12.3587 32.4072 12.168C32.8325 11.9773 33.3128 11.882 33.8482 11.882C34.3175 11.882 34.7868 11.9993 35.2562 12.234C35.7255 12.4613 36.1142 12.7583 36.4222 13.125L35.4542 13.895C35.2415 13.631 34.9885 13.4183 34.6952 13.257C34.4092 13.0957 34.1268 13.015 33.8482 13.015C33.4155 13.015 33.0635 13.1213 32.7922 13.334C32.5208 13.5467 32.3852 13.818 32.3852 14.148C32.3852 14.3753 32.4622 14.566 32.6162 14.72C32.7702 14.874 32.9608 14.9987 33.1882 15.094C33.4228 15.1893 33.7455 15.2993 34.1562 15.424C34.7135 15.6073 35.1608 15.776 35.4982 15.93C35.8428 16.084 36.1398 16.3113 36.3892 16.612C36.6385 16.9053 36.7632 17.2867 36.7632 17.756C36.7632 18.2253 36.6348 18.6433 36.3782 19.01C36.1215 19.3767 35.7622 19.6627 35.3002 19.868C34.8455 20.0733 34.3248 20.176 33.7382 20.176C33.2028 20.176 32.6638 20.0477 32.1212 19.791C31.5858 19.5343 31.1458 19.1933 30.8012 18.768L31.7802 17.987ZM43.5617 13.081H41.1967V20.121H39.8767V13.081H37.4897V11.937H43.5617V13.081ZM46.152 11.937V20.121H44.832V11.937H46.152ZM52.2486 20.121H50.7196L47.2766 11.937H48.7066L51.4676 18.68L54.0636 11.937H55.4826L52.2486 20.121ZM63.1653 20.121H61.7353L60.8443 17.954H57.2033L56.3013 20.121H54.8713L58.2813 11.937H59.8103L63.1653 20.121ZM60.3823 16.81L59.0403 13.543L57.6763 16.81H60.3823ZM65.5841 18.977H69.5441V20.121H64.2641V11.937H65.5841V18.977ZM79.2365 13.081H76.8715V20.121H75.5515V13.081H73.1645V11.937H79.2365V13.081ZM84.5838 16.92V20.121H83.2638V16.92L80.0188 11.937H81.5918L83.9238 15.688L86.2558 11.937H87.8288L84.5838 16.92ZM92.209 16.238C92.495 16.238 92.7443 16.1757 92.957 16.051C93.177 15.919 93.3457 15.732 93.463 15.49C93.5803 15.248 93.639 14.9693 93.639 14.654C93.639 14.1847 93.507 13.807 93.243 13.521C92.9863 13.2277 92.638 13.081 92.198 13.081H90.141V16.238H92.209ZM92.242 11.937C92.77 11.937 93.2393 12.0543 93.65 12.289C94.0607 12.5163 94.3797 12.839 94.607 13.257C94.8417 13.6677 94.959 14.1333 94.959 14.654C94.959 15.1893 94.8417 15.6623 94.607 16.073C94.3797 16.4837 94.0607 16.8063 93.65 17.041C93.2393 17.2683 92.7737 17.382 92.253 17.382H90.141V20.121H88.821V11.937H92.242ZM101.749 13.081H97.2495V15.336H101.177V16.48H97.2495V18.977H101.749V20.121H95.9295V11.937H101.749V13.081ZM111.431 13.081H109.066V20.121H107.746V13.081H105.359V11.937H111.431V13.081ZM118.324 13.081H113.825V15.336H117.752V16.48H113.825V18.977H118.324V20.121H112.505V11.937H118.324V13.081ZM120.382 17.987C120.646 18.3023 120.954 18.559 121.306 18.757C121.665 18.9477 122.01 19.043 122.34 19.043C122.67 19.043 122.963 18.988 123.22 18.878C123.484 18.768 123.685 18.6177 123.825 18.427C123.971 18.229 124.045 18.0053 124.045 17.756C124.045 17.5433 123.968 17.3637 123.814 17.217C123.667 17.0703 123.48 16.953 123.253 16.865C123.033 16.7697 122.721 16.6633 122.318 16.546C121.768 16.3847 121.313 16.227 120.954 16.073C120.602 15.919 120.297 15.688 120.041 15.38C119.791 15.0647 119.667 14.654 119.667 14.148C119.667 13.708 119.784 13.3157 120.019 12.971C120.253 12.6263 120.583 12.3587 121.009 12.168C121.434 11.9773 121.914 11.882 122.45 11.882C122.919 11.882 123.388 11.9993 123.858 12.234C124.327 12.4613 124.716 12.7583 125.024 13.125L124.056 13.895C123.843 13.631 123.59 13.4183 123.297 13.257C123.011 13.0957 122.728 13.015 122.45 13.015C122.017 13.015 121.665 13.1213 121.394 13.334C121.122 13.5467 120.987 13.818 120.987 14.148C120.987 14.3753 121.064 14.566 121.218 14.72C121.372 14.874 121.562 14.9987 121.79 15.094C122.024 15.1893 122.347 15.2993 122.758 15.424C123.315 15.6073 123.762 15.776 124.1 15.93C124.444 16.084 124.741 16.3113 124.991 16.612C125.24 16.9053 125.365 17.2867 125.365 17.756C125.365 18.2253 125.236 18.6433 124.98 19.01C124.723 19.3767 124.364 19.6627 123.902 19.868C123.447 20.0733 122.926 20.176 122.34 20.176C121.804 20.176 121.265 20.0477 120.723 19.791C120.187 19.5343 119.747 19.1933 119.403 18.768L120.382 17.987ZM132.163 13.081H129.798V20.121H128.478V13.081H126.091V11.937H132.163V13.081Z" fill="#D5D5DE"/>
<path d="M19 330L302 330" stroke="#E6E6EB" stroke-width="2" stroke-linecap="round" stroke-dasharray="6 6"/>
<path d="M98.7954 290.58V292.06H93.6245V293.217H97.3159V297.333H95.4556V294.696H87.9849V293.217H91.7788V292.06H86.6372V290.58H98.7954ZM93.6245 284.032V285.233H97.6235V286.684H93.771C93.9834 287.643 95.3384 288.507 98.2534 288.705L97.6821 290.097C95.2358 289.928 93.5366 289.225 92.7017 288.148C91.8594 289.225 90.1602 289.928 87.7212 290.097L87.1499 288.705C90.0503 288.507 91.4053 287.643 91.6323 286.684H87.8091V285.233H91.7788V284.032H93.6245ZM111.129 284.018V297.348H109.357V284.018H111.129ZM108.405 284.237V296.732H106.647V290.097H104.889V288.588H106.647V284.237H108.405ZM103.82 287.592C103.82 289.804 104.508 292.045 106.457 293.158L105.358 294.535C104.171 293.832 103.388 292.638 102.941 291.21C102.479 292.763 101.674 294.081 100.451 294.828L99.3228 293.451C101.286 292.25 102.018 289.848 102.018 287.592V286.874H99.8355V285.38H105.841V286.874H103.82V287.592ZM123.083 284.018V289.13H124.972V290.668H123.083V297.318H121.208V284.018H123.083ZM119.523 285.38C119.508 289.364 117.956 292.821 113.473 295.019L112.418 293.583C115.575 292.001 117.267 289.877 117.619 286.903H113.18V285.38H119.523ZM140.25 284.018V297.377H138.375V290.639H135.973V289.145H138.375V284.018H140.25ZM133.981 288.192C133.981 290.126 135.036 292.279 137.218 293.217L136.222 294.652C134.706 294.022 133.651 292.748 133.073 291.225C132.487 292.843 131.439 294.206 129.909 294.857L128.927 293.422C131.066 292.47 132.106 290.199 132.121 288.192V287.68H129.352V286.186H132.121V284.311H133.996V286.186H136.691V287.68H133.981V288.192ZM148.029 284.267C150.988 284.267 152.863 285.248 152.877 286.874C152.863 288.485 150.988 289.467 148.029 289.452C145.084 289.467 143.166 288.485 143.166 286.874C143.166 285.248 145.084 284.267 148.029 284.267ZM148.029 285.717C146.168 285.717 145.099 286.112 145.114 286.874C145.099 287.621 146.168 288.002 148.029 288.002C149.875 288.002 150.944 287.621 150.944 286.874C150.944 286.112 149.875 285.717 148.029 285.717ZM152.658 292.66V297.201H143.356V292.66H152.658ZM145.202 294.14V295.707H150.827V294.14H145.202ZM154.108 290.229V291.723H141.95V290.229H154.108ZM166.076 284.032V293.612H164.201V284.032H166.076ZM166.427 295.619V297.113H157.14V292.646H159.03V295.619H166.427ZM158.766 284.882C160.817 284.882 162.414 286.288 162.414 288.236C162.414 290.229 160.817 291.62 158.766 291.62C156.715 291.62 155.119 290.229 155.119 288.236C155.119 286.288 156.715 284.882 158.766 284.882ZM158.766 286.508C157.726 286.493 156.935 287.152 156.95 288.236C156.935 289.35 157.726 289.994 158.766 289.994C159.777 289.994 160.568 289.35 160.568 288.236C160.568 287.152 159.777 286.493 158.766 286.508Z" fill="#3A3C42"/>
<path d="M182.145 288.222V289.716H172.814V284.618H174.674V288.222H182.145ZM183.493 291.225V292.719H180.709V297.348H178.82V292.719H176.022V297.348H174.147V292.719H171.334V291.225H183.493ZM195.46 284.018V297.377H193.571V284.018H195.46ZM186.833 285.072V288.324H189.704V285.072H191.549V294.257H184.958V285.072H186.833ZM186.833 292.748H189.704V289.774H186.833V292.748ZM202.946 285.395V288.866H204.279V284.208H206.037V296.732H204.279V290.36H202.946V293.993H197.643V285.395H202.946ZM199.386 286.874V292.528H201.203V286.874H199.386ZM208.82 284.018V297.348H207.033V284.018H208.82ZM221.388 284.018V297.377H219.499V284.018H221.388ZM214.152 284.955C216.159 284.955 217.653 286.801 217.653 289.701C217.653 292.631 216.159 294.462 214.152 294.462C212.101 294.462 210.607 292.631 210.622 289.701C210.607 286.801 212.101 284.955 214.152 284.955ZM214.152 286.64C213.112 286.64 212.423 287.724 212.423 289.701C212.423 291.693 213.112 292.763 214.152 292.763C215.163 292.763 215.851 291.693 215.851 289.701C215.851 287.724 215.163 286.64 214.152 286.64ZM234.059 290.902V292.382H224.625V284.999H233.957V286.508H226.53V287.914H233.649V289.379H226.53V290.902H234.059ZM235.392 294.271V295.795H223.19V294.271H235.392Z" fill="#FF6F61"/>
<ellipse cx="160.119" cy="239.852" rx="59.1187" ry="12.8519" fill="#F3F3F6"/>
<path d="M241.562 104.6C230.076 96.3045 218.798 97.1311 215.4 100.133C215.4 100.133 216.293 110.302 216.268 119.302C216.242 128.301 216.268 133.952 216.268 133.952C217.897 129.954 223.76 127.367 238.77 126.462C253.779 125.557 262.853 114.149 265.514 108.558C261.104 112.026 254.128 113.675 241.562 104.6Z" fill="#FF998F" stroke="black" stroke-width="2" stroke-linejoin="round"/>
<path d="M177.894 222.369C176.112 226.74 176.5 231.288 178.575 234.106C179.325 235.127 180.297 235.921 181.467 236.397C185.867 238.192 191.402 234.82 193.829 228.866C196.257 222.913 195.614 218.431 191.213 216.637C189.547 215.958 185.301 217.161 183.539 217.822C180.649 218.908 179.403 218.67 177.894 222.369Z" fill="#FFE6E4"/>
<path d="M177.894 222.369C176.112 226.74 176.5 231.288 178.575 234.106L152.436 209.455L163.63 199.638L183.539 217.822C180.649 218.908 179.403 218.67 177.894 222.369Z" fill="#FFE6E4"/>
<path d="M179.667 213.076L184.706 218.298C187.051 216.264 192.257 214.431 194.981 218.819C198.327 224.207 190.192 232.073 185.989 236.602C184.134 238.6 180.943 236.602 178.299 234.013L155.419 211.162" stroke="black" stroke-width="2" stroke-linecap="round"/>
<path d="M194.741 170.397L186.298 170.125C184.858 175.979 189.502 186.365 194.786 187.855C199.589 189.21 202.474 187.894 208.728 186.211C211.708 185.228 217.078 181.475 214.72 174.324C212.362 167.172 205.573 166.892 202.473 167.647C198.006 168.733 198.006 168.881 194.741 170.397Z" fill="#FFE6E4"/>
<path d="M194.927 187.922C199.914 188.099 204.498 187.978 208.537 186.646C211.517 185.664 217.078 181.476 214.72 174.324C212.362 167.172 205.573 166.893 202.473 167.647C198.644 168.578 197.368 169.519 194.741 170.397L188.092 170.322" stroke="black" stroke-width="2"/>
<path fill-rule="evenodd" clip-rule="evenodd" d="M191.475 165.18C198.222 159.806 202.545 151.521 202.545 142.226C202.545 126.027 189.414 112.895 173.215 112.895C164.459 112.895 156.599 116.732 151.225 122.815C145.851 116.732 137.991 112.895 129.235 112.895C113.037 112.895 99.9048 126.027 99.9048 142.226C99.9048 151.521 104.229 159.807 110.975 165.18C104.229 170.554 99.9048 178.839 99.9048 188.135C99.9048 204.334 113.037 217.465 129.235 217.465C131.484 217.465 133.674 217.212 135.777 216.733L131.81 234.589L151.864 239.045C157.212 240.233 159.798 237.013 160.423 235.254C161.869 228.743 155.627 225.269 152.324 224.345L155.223 211.3C160.19 215.164 166.434 217.465 173.215 217.465C189.414 217.465 202.545 204.333 202.545 188.134C202.545 178.839 198.222 170.554 191.475 165.18Z" fill="#FFE6E4"/>
<path d="M191.475 165.18L190.852 164.398L189.87 165.18L190.852 165.962L191.475 165.18ZM151.225 122.815L150.476 123.478L151.225 124.326L151.974 123.478L151.225 122.815ZM110.975 165.18L111.598 165.963L112.58 165.18L111.598 164.398L110.975 165.18ZM135.777 216.733L136.753 216.95L137.096 215.407L135.555 215.758L135.777 216.733ZM131.81 234.589L130.833 234.372L130.616 235.349L131.593 235.565L131.81 234.589ZM151.864 239.045L151.647 240.021L151.864 239.045ZM160.423 235.254L161.365 235.588L161.386 235.53L161.399 235.471L160.423 235.254ZM152.324 224.345L151.348 224.128L151.143 225.053L152.055 225.308L152.324 224.345ZM155.223 211.3L155.837 210.511L154.589 209.541L154.247 211.083L155.223 211.3ZM201.545 142.226C201.545 151.204 197.371 159.206 190.852 164.398L192.098 165.962C199.073 160.407 203.545 151.838 203.545 142.226H201.545ZM173.215 113.895C188.861 113.895 201.545 126.579 201.545 142.226H203.545C203.545 125.475 189.966 111.895 173.215 111.895V113.895ZM151.974 123.478C157.167 117.6 164.758 113.895 173.215 113.895V111.895C164.16 111.895 156.032 115.864 150.476 122.153L151.974 123.478ZM129.235 113.895C137.692 113.895 145.283 117.6 150.476 123.478L151.974 122.153C146.418 115.864 138.29 111.895 129.235 111.895V113.895ZM100.905 142.226C100.905 126.579 113.589 113.895 129.235 113.895V111.895C112.484 111.895 98.9048 125.475 98.9048 142.226H100.905ZM111.598 164.398C105.08 159.206 100.905 151.204 100.905 142.226H98.9048C98.9048 151.839 103.378 160.407 110.352 165.963L111.598 164.398ZM100.905 188.135C100.905 179.157 105.08 171.155 111.598 165.963L110.352 164.398C103.378 169.954 98.9048 178.522 98.9048 188.135H100.905ZM129.235 216.465C113.589 216.465 100.905 203.781 100.905 188.135H98.9048C98.9048 204.886 112.484 218.465 129.235 218.465V216.465ZM135.555 215.758C133.524 216.221 131.409 216.465 129.235 216.465V218.465C131.559 218.465 133.823 218.204 135.999 217.708L135.555 215.758ZM134.801 216.516L130.833 234.372L132.786 234.806L136.753 216.95L134.801 216.516ZM131.593 235.565L151.647 240.021L152.081 238.069L132.026 233.613L131.593 235.565ZM151.647 240.021C154.562 240.669 156.818 240.126 158.447 239.101C160.046 238.095 160.984 236.662 161.365 235.588L159.481 234.919C159.237 235.604 158.57 236.661 157.382 237.408C156.226 238.136 154.514 238.609 152.081 238.069L151.647 240.021ZM161.399 235.471C162.212 231.812 160.84 228.982 158.863 226.998C156.918 225.049 154.365 223.877 152.594 223.382L152.055 225.308C153.586 225.736 155.805 226.764 157.446 228.41C159.054 230.022 160.08 232.185 159.447 235.037L161.399 235.471ZM153.301 224.562L156.199 211.517L154.247 211.083L151.348 224.128L153.301 224.562ZM173.215 216.465C166.664 216.465 160.635 214.243 155.837 210.511L154.609 212.09C159.746 216.085 166.204 218.465 173.215 218.465V216.465ZM201.545 188.134C201.545 203.781 188.861 216.465 173.215 216.465V218.465C189.966 218.465 203.545 204.886 203.545 188.134H201.545ZM190.852 165.962C197.371 171.155 201.545 179.157 201.545 188.134H203.545C203.545 178.522 199.073 169.953 192.098 164.398L190.852 165.962Z" fill="black"/>
<path d="M179.193 133.882C175.822 137.466 167.505 142.968 161.21 136.309C153.342 127.985 166.443 124.3 167.655 131.887C168.663 138.205 164.373 144.488 156.382 141.787C154.901 141.286 151.58 139.739 150.311 136.197" stroke="#FF6F61" stroke-width="2" stroke-linecap="round"/>
<ellipse cx="156.098" cy="155.483" rx="4.43556" ry="5.91408" transform="rotate(-7.24189 156.098 155.483)" fill="black"/>
<ellipse cx="179.557" cy="152.502" rx="4.43556" ry="5.91408" transform="rotate(-7.24189 179.557 152.502)" fill="black"/>
<ellipse cx="168.57" cy="159.857" rx="2.95704" ry="4.43556" transform="rotate(82.7581 168.57 159.857)" fill="black"/>
<path d="M203.276 188.191C209.445 176.917 219.229 152.457 215.4 99.4951" stroke="black" stroke-width="2" stroke-linecap="round"/>
<path d="M210.211 178.548C210.211 181.367 212.238 183.086 209.504 183.086C206.769 183.086 204.553 180.8 204.553 177.981C204.553 175.162 206.769 172.876 209.504 172.876C212.238 172.876 210.211 175.729 210.211 178.548Z" fill="#FFE6E4"/>
<path d="M209.037 183.03C208.276 183.169 207.498 183.048 206.789 182.681C206.08 182.314 205.468 181.715 205.02 180.95C204.572 180.184 204.306 179.283 204.251 178.345C204.196 177.406 204.355 176.468 204.709 175.633C205.063 174.797 205.6 174.098 206.259 173.612C206.918 173.125 207.674 172.871 208.444 172.876C209.214 172.882 209.967 173.147 210.622 173.643" stroke="black" stroke-width="2" stroke-linecap="round"/>
<path d="M112.508 165.036C115.849 164.378 123.067 164.645 127.187 171.119L127.292 171.304C127.735 172.185 127.496 173.263 126.722 173.874L126.547 173.997C125.637 174.576 124.448 174.361 123.793 173.532L123.669 173.357C120.864 168.948 115.806 168.641 113.364 169.117L113.135 169.165C112.083 169.407 111.034 168.808 110.694 167.807L110.635 167.602C110.376 166.48 111.076 165.361 112.198 165.102L112.508 165.036Z" fill="#FF998F" stroke="black" stroke-width="2" stroke-linecap="round" stroke-linejoin="round"/>
<path d="M128.262 189.954L128.472 189.993C129.431 190.224 130.099 191.103 130.065 192.088L130.046 192.3C129.338 197.495 124.63 207.948 111.554 209.351L110.925 209.411C109.85 209.5 108.897 208.757 108.704 207.718L108.674 207.506C108.579 206.359 109.432 205.351 110.58 205.255L111.087 205.208C121.65 204.078 125.368 195.75 125.916 191.737L125.955 191.528C126.202 190.501 127.193 189.808 128.262 189.954Z" fill="#FF998F" stroke="black" stroke-width="2" stroke-linecap="round" stroke-linejoin="round"/>
<path d="M93.0209 208.422C96.2866 210.878 105.39 213.106 110.82 208.422C116.25 203.737 116.25 192.691 113.013 180.955C106.538 185.097 97.9247 178.193 95.3912 174.742C88.6135 183.172 84.9562 202.357 93.0209 208.422Z" fill="#FF6F61"/>
<path d="M111.394 169.894C110.315 167.838 108.523 164.263 101.633 168.412C99.6952 169.982 97.479 172.145 95.3912 174.742C97.9247 178.193 106.538 185.097 113.013 180.955C112.473 176.813 112.473 171.95 111.394 169.894Z" fill="#FF6F61"/>
<path d="M95.3912 174.742C97.479 172.145 99.6952 169.982 101.633 168.412C108.523 164.263 110.315 167.838 111.394 169.894C112.473 171.95 112.473 176.813 113.013 180.955M95.3912 174.742C88.6135 183.172 84.9562 202.357 93.0209 208.422C96.2866 210.878 105.39 213.106 110.82 208.422C116.25 203.737 116.25 192.691 113.013 180.955M95.3912 174.742C97.9247 178.193 106.538 185.097 113.013 180.955" stroke="black" stroke-width="2" stroke-linecap="round"/>
<path d="M92.2476 198.1V189.016L106.286 189.842C106.01 192.87 105.295 199.091 104.634 199.751C103.808 200.577 99.6795 203.88 97.2022 203.054C95.2203 202.394 93.0733 199.476 92.2476 198.1Z" fill="#FFE6E4" stroke="black" stroke-width="2" stroke-linecap="round" stroke-linejoin="round"/>
<path d="M97.2022 193.971L92.2476 188.19L106.286 189.842L97.2022 193.971Z" fill="#FF998F" stroke="black" stroke-width="2" stroke-linecap="round" stroke-linejoin="round"/>
<path d="M97.2021 197.274C97.2021 198.65 97.3673 199.916 98.0279 200.577" stroke="black" stroke-width="2" stroke-linecap="round"/>
<path d="M129.929 174.06L121.641 172.43C119.276 177.976 122.186 188.975 127.159 191.297C131.681 193.408 134.741 192.574 141.185 191.922C144.284 191.432 150.189 188.594 149.014 181.156C147.84 173.717 141.185 172.347 138.004 172.592C134.089 168.677 130.99 171.939 129.929 174.06Z" fill="#FFE6E4"/>
<path d="M127.288 191.385C132.182 192.364 136.725 192.983 140.926 192.32C144.025 191.831 150.189 188.594 149.015 181.155C147.84 173.717 141.185 172.347 138.004 172.592C134.089 168.677 130.99 171.939 129.93 174.06L123.38 172.914" stroke="black" stroke-width="2"/>
<path d="M73.6859 151.382C72.8537 152.09 72.2186 152.92 71.796 153.871C71.3735 154.823 71.186 155.775 71.2579 156.721C71.3298 157.667 71.6471 158.48 72.225 159.159C72.8029 159.838 73.5606 160.289 74.4891 160.518C75.3953 160.746 76.3985 160.725 77.4008 160.457C78.4166 160.185 79.3346 159.706 80.1668 158.997C80.7096 158.536 81.2462 157.865 81.7796 156.97C82.3129 156.076 82.7485 155.176 83.0772 154.28C83.3194 153.52 83.5662 152.655 83.8085 151.693C84.0508 150.732 84.3482 149.157 84.4162 148.797L82.4539 148.855C81.5259 148.865 80.5289 148.958 79.4601 149.15C78.3913 149.342 77.3117 149.631 76.2275 150.025C75.1309 150.404 74.292 150.866 73.6859 151.382Z" fill="#FF6F61" stroke="black" stroke-width="2" stroke-linejoin="round"/>
<path d="M78.4726 133.768C77.6912 134.057 77.019 134.485 76.4672 135.055C75.9153 135.626 75.5314 136.259 75.335 136.955C75.1385 137.651 75.1527 138.316 75.3884 138.953C75.6241 139.591 76.0484 140.112 76.6529 140.52C77.242 140.92 77.9657 141.168 78.7533 141.239C79.5519 141.31 80.3347 141.208 81.1161 140.919C81.6257 140.731 82.1857 140.391 82.8019 139.89C83.4182 139.39 83.9657 138.86 84.4361 138.304C84.8087 137.824 85.212 137.27 85.6374 136.645C86.0629 136.02 86.6886 134.97 86.8316 134.73L85.4115 134.258C84.7448 134.021 84.0067 133.827 83.1912 133.684C82.3758 133.541 81.5271 133.465 80.6477 133.463C79.7633 133.447 79.0416 133.558 78.4726 133.768Z" fill="#FF6F61" stroke="black" stroke-width="2" stroke-linejoin="round"/>
<path d="M181.086 100.264C180.603 100.148 180.155 100.201 179.741 100.424C179.327 100.648 179.067 100.977 178.963 101.411C178.845 101.903 178.924 102.33 179.201 102.693C179.479 103.057 179.847 103.293 180.306 103.404C180.774 103.516 181.215 103.476 181.63 103.282C182.045 103.089 182.312 102.744 182.431 102.245C182.536 101.81 182.458 101.4 182.199 101.015C181.939 100.63 181.568 100.379 181.086 100.264ZM188.604 90.6473C188.323 89.8682 187.819 89.1765 187.104 88.5932C186.394 88.0131 185.506 87.5933 184.462 87.3425C183.34 87.0727 182.284 87.0672 181.326 87.3271C180.367 87.5863 179.57 88.0238 178.955 88.6281C178.337 89.2339 177.939 89.8968 177.771 90.5983C177.681 90.9737 177.752 91.3604 177.983 91.7481C178.214 92.138 178.559 92.3903 179.006 92.4977C179.766 92.6806 180.396 92.3574 180.871 91.544C181.287 90.8746 181.717 90.3925 182.149 90.108C182.556 89.8401 183.122 89.7913 183.833 89.9621C184.446 90.1094 184.888 90.3974 185.187 90.8434C185.481 91.2839 185.564 91.7452 185.442 92.2527C185.386 92.4989 185.265 92.7261 185.094 92.9117C184.911 93.11 184.702 93.282 184.472 93.4226C184.228 93.5719 183.833 93.7906 183.297 94.0711C182.673 94.3994 182.161 94.6966 181.778 94.9513C181.372 95.2252 181.017 95.5672 180.727 95.9621C180.426 96.3705 180.199 96.8884 180.052 97.5019C179.926 98.0262 179.975 98.4672 180.197 98.8133C180.417 99.1566 180.74 99.3815 181.157 99.4817C181.954 99.6733 182.559 99.358 182.903 98.5789C183.062 98.2585 183.175 98.0352 183.246 97.9091C183.31 97.7949 183.39 97.6814 183.484 97.5714C183.575 97.4649 183.707 97.3503 183.876 97.23C184.053 97.1042 184.286 96.9617 184.566 96.8075C185.609 96.2465 186.349 95.836 186.764 95.5878C187.192 95.3312 187.592 94.997 187.954 94.5931C188.325 94.1785 188.589 93.6507 188.74 93.0236C188.931 92.2289 188.884 91.43 188.602 90.6476" fill="black"/>
</svg>
