<svg width="321" height="479" viewBox="0 0 321 479" fill="none" xmlns="http://www.w3.org/2000/svg">
<mask id="path-1-inside-1_890_3347" fill="white">
<path fill-rule="evenodd" clip-rule="evenodd" d="M139.389 0C142.823 0 145.958 1.95432 147.47 5.03779L153.933 18.2188C155.445 21.3022 158.58 23.2566 162.014 23.2566H312C316.971 23.2566 321 27.286 321 32.2566V469.257C321 474.227 316.971 478.257 312 478.257H9C4.02943 478.257 0 474.227 0 469.257V46.9085V23.2566V9C0 4.02944 4.02943 0 9 0H139.389Z"/>
</mask>
<path fill-rule="evenodd" clip-rule="evenodd" d="M139.389 0C142.823 0 145.958 1.95432 147.47 5.03779L153.933 18.2188C155.445 21.3022 158.58 23.2566 162.014 23.2566H312C316.971 23.2566 321 27.286 321 32.2566V469.257C321 474.227 316.971 478.257 312 478.257H9C4.02943 478.257 0 474.227 0 469.257V46.9085V23.2566V9C0 4.02944 4.02943 0 9 0H139.389Z" fill="white"/>
<path d="M147.47 5.03779L148.368 4.59755L147.47 5.03779ZM153.933 18.2188L153.035 18.659L153.933 18.2188ZM154.831 17.7785L148.368 4.59755L146.572 5.47804L153.035 18.659L154.831 17.7785ZM162.014 24.2566H312V22.2566H162.014V24.2566ZM320 32.2566V469.257H322V32.2566H320ZM312 477.257H9V479.257H312V477.257ZM1 469.257V46.9085H-1V469.257H1ZM1 46.9085V23.2566H-1V46.9085H1ZM-1 9V23.2566H1V9H-1ZM139.389 -1H9V1H139.389V-1ZM1 9C1 4.58172 4.58172 1 9 1V-1C3.47715 -1 -1 3.47715 -1 9H1ZM9 477.257C4.58172 477.257 1 473.675 1 469.257H-1C-1 474.779 3.47715 479.257 9 479.257V477.257ZM320 469.257C320 473.675 316.418 477.257 312 477.257V479.257C317.523 479.257 322 474.779 322 469.257H320ZM312 24.2566C316.418 24.2566 320 27.8383 320 32.2566H322C322 26.7337 317.523 22.2566 312 22.2566V24.2566ZM148.368 4.59755C146.688 1.17147 143.205 -1 139.389 -1V1C142.442 1 145.228 2.73718 146.572 5.47804L148.368 4.59755ZM153.035 18.659C154.715 22.0851 158.198 24.2566 162.014 24.2566V22.2566C158.961 22.2566 156.175 20.5194 154.831 17.7785L153.035 18.659Z" fill="#D5D5DE" mask="url(#path-1-inside-1_890_3347)"/>
<path fill-rule="evenodd" clip-rule="evenodd" d="M165.013 448.951C164.677 448.924 164.166 449.06 163.708 449.93C162.766 451.721 163.155 453.413 163.395 454.453C163.41 454.518 163.424 454.581 163.438 454.642L161.857 454.996C161.843 454.935 161.827 454.868 161.81 454.795C161.565 453.75 161.042 451.518 162.274 449.177C162.967 447.858 164.03 447.247 165.144 447.337C165.835 447.393 166.463 447.716 166.935 448.178C167.198 448.036 167.489 447.912 167.811 447.813C168.42 447.626 168.988 447.603 169.5 447.744C170.014 447.886 170.413 448.177 170.706 448.519C171.27 449.176 171.472 450.048 171.46 450.661C171.433 452.079 170.963 453.606 170.53 455.012L170.516 455.057L168.968 454.581C169.422 453.103 169.818 451.79 169.84 450.63C169.846 450.324 169.727 449.866 169.476 449.572C169.361 449.439 169.229 449.349 169.069 449.305C168.907 449.26 168.659 449.246 168.289 449.36C168.093 449.42 167.915 449.494 167.753 449.578C167.819 449.798 167.874 450.035 167.919 450.273C168.014 450.775 168.075 451.348 168.077 451.9C168.078 452.44 168.023 453.023 167.842 453.51C167.663 453.991 167.273 454.581 166.513 454.665C166.239 454.695 165.702 454.752 165.244 454.428C164.765 454.091 164.609 453.525 164.549 452.99C164.518 452.717 164.488 451.727 164.865 450.661C165.035 450.181 165.291 449.678 165.669 449.219C165.471 449.067 165.239 448.969 165.013 448.951ZM166.412 451.148C166.406 451.166 166.399 451.183 166.393 451.201C166.258 451.583 166.195 451.959 166.168 452.262C166.156 452.412 166.152 452.541 166.153 452.639C166.153 452.688 166.154 452.728 166.156 452.758C166.156 452.773 166.157 452.785 166.158 452.794C166.158 452.799 166.159 452.802 166.159 452.805C166.159 452.807 166.159 452.808 166.159 452.808L166.159 452.808C166.173 452.927 166.189 453.01 166.204 453.068C166.223 453.067 166.245 453.065 166.271 453.063C166.284 453.04 166.302 453.004 166.323 452.947C166.406 452.722 166.458 452.361 166.457 451.905C166.456 451.657 166.44 451.4 166.412 451.148ZM166.247 453.094C166.247 453.093 166.25 453.089 166.257 453.084C166.251 453.092 166.247 453.095 166.247 453.094Z" fill="#FF998F"/>
<path d="M192.334 449.848C192.197 449.614 192.017 449.411 191.792 449.239C191.566 449.067 191.307 448.953 191.012 448.898C190.727 448.84 190.423 448.869 190.1 448.986C189.786 449.1 189.523 449.272 189.312 449.501C189.11 449.727 188.966 449.987 188.88 450.282C188.792 450.568 188.768 450.851 188.808 451.13L192.334 449.848ZM193.298 448.356C193.587 448.647 193.815 448.98 193.983 449.355C194.156 449.719 194.289 450.071 194.383 450.412L194.432 450.547L189.279 452.421C189.431 452.7 189.644 452.922 189.917 453.087C190.187 453.242 190.477 453.34 190.786 453.38C191.092 453.41 191.384 453.375 191.662 453.274C192.119 453.108 192.437 452.906 192.615 452.669C192.801 452.429 192.916 452.214 192.959 452.026L192.968 452.008L194.659 452.048C194.61 452.583 194.383 453.102 193.977 453.605C193.567 454.099 192.972 454.487 192.192 454.771C191.51 455.019 190.849 455.087 190.209 454.975C189.566 454.853 188.996 454.573 188.501 454.134C188.006 453.695 187.631 453.126 187.376 452.427C187.118 451.719 187.038 451.038 187.135 450.384C187.228 449.721 187.484 449.141 187.902 448.644C188.317 448.138 188.866 447.761 189.547 447.513C190.22 447.268 190.827 447.205 191.368 447.323C191.914 447.428 192.344 447.592 192.659 447.812C192.973 448.033 193.181 448.216 193.285 448.361L193.298 448.356Z" fill="#FF998F"/>
<path d="M186.518 454.644C186.289 454.758 186.069 454.839 185.859 454.887C185.649 454.944 185.358 454.973 184.986 454.973C184.527 454.973 184.117 454.868 183.754 454.658C183.392 454.439 183.11 454.134 182.909 453.743C182.709 453.352 182.609 452.908 182.609 452.412V445.089H184.556V452.412C184.556 452.651 184.613 452.856 184.728 453.028C184.852 453.199 185.005 453.29 185.186 453.299C185.415 453.328 185.687 453.256 186.002 453.085L186.017 453.07L186.675 454.572L186.518 454.644ZM181.234 447.435H186.489V448.994H181.234V447.435Z" fill="#FF998F"/>
<path d="M176.239 453.542C176.592 453.542 176.921 453.442 177.227 453.242C177.532 453.042 177.776 452.765 177.957 452.412C178.138 452.06 178.229 451.669 178.229 451.24C178.229 450.82 178.138 450.434 177.957 450.081C177.776 449.728 177.532 449.451 177.227 449.251C176.921 449.051 176.592 448.951 176.239 448.951C175.866 448.951 175.537 449.046 175.251 449.237C174.974 449.418 174.754 449.685 174.592 450.038C174.439 450.381 174.363 450.782 174.363 451.24C174.363 451.707 174.439 452.117 174.592 452.47C174.754 452.813 174.974 453.08 175.251 453.271C175.537 453.452 175.866 453.542 176.239 453.542ZM180.176 454.973L178.229 454.987V454.029C178.038 454.267 177.823 454.468 177.585 454.63C177.356 454.782 177.107 454.897 176.84 454.973C176.582 455.059 176.32 455.102 176.053 455.102C175.346 455.102 174.716 454.94 174.162 454.615C173.609 454.282 173.179 453.824 172.874 453.242C172.568 452.66 172.416 451.993 172.416 451.24C172.416 450.496 172.568 449.833 172.874 449.251C173.179 448.669 173.609 448.217 174.162 447.892C174.716 447.559 175.346 447.392 176.053 447.392C176.463 447.392 176.859 447.482 177.241 447.663C177.623 447.845 177.952 448.112 178.229 448.464V447.363H180.176V454.973Z" fill="#FF998F"/>
<path d="M160.511 447.277V455.045H158.564V447.277H160.511Z" fill="#FF998F"/>
<path d="M157.232 454.644C157.003 454.758 156.783 454.839 156.573 454.887C156.363 454.944 156.072 454.973 155.7 454.973C155.242 454.973 154.831 454.868 154.468 454.658C154.106 454.439 153.824 454.134 153.624 453.743C153.423 453.352 153.323 452.908 153.323 452.412V445.089H155.27V452.412C155.27 452.651 155.327 452.856 155.442 453.028C155.566 453.199 155.719 453.29 155.9 453.299C156.129 453.328 156.401 453.256 156.716 453.085L156.731 453.07L157.389 454.572L157.232 454.644ZM151.948 447.435H157.203V448.994H151.948V447.435Z" fill="#FF998F"/>
<path d="M146.291 452.519C146.511 452.777 146.773 452.982 147.079 453.134C147.394 453.287 147.68 453.363 147.938 453.363C148.281 453.363 148.563 453.287 148.783 453.134C149.002 452.972 149.112 452.767 149.112 452.519C149.112 452.414 149.059 452.324 148.954 452.247C148.859 452.162 148.716 452.085 148.525 452.019C148.343 451.952 148.133 451.88 147.895 451.804C147.341 451.632 146.878 451.465 146.506 451.303C146.143 451.141 145.823 450.908 145.546 450.602C145.279 450.288 145.146 449.892 145.146 449.415C145.146 448.967 145.27 448.571 145.518 448.228C145.766 447.875 146.11 447.599 146.549 447.398C146.997 447.198 147.499 447.098 148.052 447.098C148.52 447.098 148.993 447.208 149.47 447.427C149.947 447.637 150.339 447.918 150.644 448.271L149.413 449.387C149.231 449.167 149.016 448.996 148.768 448.872C148.52 448.738 148.281 448.671 148.052 448.671C147.775 448.671 147.546 448.738 147.365 448.872C147.184 448.996 147.093 449.162 147.093 449.372C147.093 449.487 147.145 449.587 147.25 449.673C147.365 449.758 147.518 449.84 147.709 449.916C147.909 449.983 148.133 450.054 148.382 450.13C148.926 450.302 149.374 450.469 149.728 450.631C150.09 450.784 150.401 451.013 150.658 451.318C150.926 451.613 151.059 451.995 151.059 452.462C151.059 452.948 150.926 453.377 150.658 453.749C150.401 454.121 150.033 454.412 149.556 454.622C149.088 454.832 148.549 454.937 147.938 454.937C147.432 454.937 146.907 454.817 146.363 454.579C145.828 454.341 145.384 454.026 145.031 453.635L146.291 452.519Z" fill="#FF998F"/>
<path d="M142.407 450.453C142.359 450.186 142.259 449.933 142.106 449.695C141.953 449.456 141.748 449.261 141.49 449.108C141.242 448.956 140.946 448.879 140.603 448.879C140.269 448.879 139.963 448.951 139.686 449.094C139.419 449.237 139.195 449.432 139.013 449.68C138.832 449.919 138.713 450.176 138.655 450.453H142.407ZM143.824 449.38C143.996 449.752 144.097 450.143 144.125 450.553C144.163 450.954 144.168 451.33 144.139 451.683V451.826H138.655C138.703 452.141 138.827 452.422 139.028 452.67C139.228 452.908 139.467 453.099 139.744 453.242C140.02 453.376 140.307 453.442 140.603 453.442C141.09 453.442 141.457 453.361 141.705 453.199C141.963 453.037 142.144 452.875 142.249 452.713L142.264 452.699L143.839 453.314C143.61 453.8 143.218 454.21 142.665 454.544C142.111 454.868 141.419 455.03 140.588 455.03C139.863 455.03 139.219 454.868 138.655 454.544C138.092 454.21 137.653 453.752 137.338 453.171C137.023 452.589 136.865 451.926 136.865 451.182C136.865 450.429 137.023 449.761 137.338 449.18C137.653 448.589 138.092 448.131 138.655 447.807C139.219 447.473 139.863 447.306 140.588 447.306C141.304 447.306 141.896 447.454 142.364 447.749C142.841 448.035 143.19 448.336 143.409 448.651C143.629 448.965 143.762 449.208 143.81 449.38H143.824Z" fill="#FF998F"/>
<path d="M136.632 445.918H130.947V448.779H135.744V450.438H130.947V454.987H129V444.259H136.632V445.918Z" fill="#FF998F"/>
<ellipse cx="159.533" cy="445.641" rx="0.972235" ry="0.971246" fill="#FF998F"/>
<path d="M83.2461 362.653V370.397H81.8369V366.602H79.5264V368.696H74.1309V363.479H79.5264V365.459H81.8369V362.653H83.2461ZM75.54 364.621V367.566H78.1299V364.621H75.54ZM80.1738 370.017C80.1611 371.362 81.5957 372.632 83.919 372.962L83.3604 374.066C81.5195 373.787 80.1167 372.93 79.4248 371.743C78.7202 372.911 77.311 373.787 75.4893 374.066L74.9815 372.962C77.2285 372.619 78.7139 371.299 78.7139 370.017V369.648H80.1738V370.017ZM89.2256 364.989C89.2256 366.411 90.2031 367.808 92.0313 368.379L91.3076 369.483C90.0064 369.058 89.0606 368.201 88.54 367.109C88.0195 368.296 87.0483 369.242 85.6836 369.712L84.96 368.595C86.8008 367.985 87.791 366.5 87.8037 364.989V364.659H85.3281V363.529H91.6377V364.659H89.2256V364.989ZM94.4307 362.666V370.994H93.0088V362.666H94.4307ZM94.7481 372.759V373.901H86.8389V370.232H88.2607V372.759H94.7481ZM105.146 363.39C105.146 364.748 106.732 366.145 109.081 366.475L108.548 367.592C106.663 367.3 105.158 366.386 104.435 365.154C103.692 366.405 102.181 367.325 100.296 367.617L99.7627 366.513C102.099 366.157 103.686 364.786 103.698 363.39V362.945H105.146V363.39ZM109.665 368.354V369.496H105.234V371.591H103.838V369.496H99.1787V368.354H109.665ZM108.51 372.759V373.901H100.448V370.563H101.857V372.759H108.51ZM119.479 362.653V365.954H121.078V367.135H119.479V370.931H118.044V362.653H119.479ZM116.355 363.529C116.355 366.576 114.375 368.747 110.973 369.737L110.389 368.62C113.01 367.865 114.572 366.437 114.819 364.685H110.871V363.529H116.355ZM119.91 372.759V373.901H112.103V370.08H113.537V372.759H119.91ZM132.136 367.249V368.366H121.662V367.249H132.136ZM130.892 365.396V366.513H122.995V362.945H130.79V364.075H124.404V365.396H130.892ZM130.815 369.153V372.035H124.29V372.911H131.133V374.016H122.906V371.02H129.432V370.22H122.894V369.153H130.815ZM138.115 362.831C140.73 362.831 142.241 363.529 142.254 364.799C142.241 366.081 140.73 366.767 138.115 366.779C135.5 366.767 133.977 366.081 133.977 364.799C133.977 363.529 135.5 362.831 138.115 362.831ZM138.115 363.872C136.363 363.872 135.449 364.202 135.462 364.799C135.449 365.434 136.363 365.726 138.115 365.726C139.893 365.726 140.794 365.434 140.794 364.799C140.794 364.202 139.893 363.872 138.115 363.872ZM143.358 367.389V368.519H132.897V367.389H143.358ZM142.051 369.293V372.099H135.525V372.949H142.368V374.028H134.142V371.096H140.667V370.334H134.129V369.293H142.051ZM156.346 363.771V365.065C156.346 366.602 156.346 368.188 155.927 370.601L154.492 370.474C154.937 368.214 154.937 366.551 154.937 365.065V364.913H148.322V363.771H156.346ZM157.679 371.4V372.556H147.218V371.4H157.679ZM169.079 364.215V365.37H167.505V366.652H169.079V367.833H167.505V369.395H166.096V362.653H167.505V364.215H169.079ZM163.76 369.547C166.096 369.534 167.606 370.423 167.619 371.832C167.606 373.267 166.096 374.13 163.76 374.13C161.398 374.13 159.875 373.267 159.875 371.832C159.875 370.423 161.398 369.534 163.76 369.547ZM163.76 370.677C162.198 370.677 161.246 371.083 161.259 371.832C161.246 372.581 162.198 373 163.76 373C165.283 373 166.223 372.581 166.223 371.832C166.223 371.083 165.283 370.677 163.76 370.677ZM160.37 363.326V367.414C161.843 367.401 163.392 367.274 165.067 366.944L165.232 368.087C163.328 368.468 161.563 368.595 159.9 368.582H158.948V363.326H160.37ZM183.26 371.591V372.746H172.773V371.591H177.293V369.356H173.929V363.415H175.338V365.294H180.657V363.415H182.066V369.356H178.689V371.591H183.26ZM175.338 368.214H180.657V366.424H175.338V368.214ZM193.822 362.666V368.506H192.477V366.145H191.245V368.48H189.937V362.882H191.245V365.015H192.477V362.666H193.822ZM185.913 363.288V366.868C186.992 366.855 188.014 366.786 189.188 366.551L189.328 367.693C187.868 367.973 186.649 368.023 185.266 368.011H184.504V363.288H185.913ZM193.822 368.938V371.946H187.487V372.873H194.229V373.99H186.065V370.905H192.413V370.067H186.053V368.938H193.822ZM204.309 363.605C204.309 365.053 205.921 366.513 208.371 366.83L207.812 367.973C205.864 367.681 204.315 366.722 203.572 365.421C202.817 366.722 201.274 367.681 199.345 367.973L198.786 366.83C201.211 366.513 202.823 365.053 202.823 363.605V363.021H204.309V363.605ZM208.79 368.963V370.131H204.232V374.13H202.836V370.131H198.329V368.963H208.79ZM218.857 365.903V367.021H210.91V363.072H212.307V365.903H218.857ZM220.038 368.354V369.471H209.552V368.354H220.038ZM218.934 372.721V373.863H210.809V370.486H212.218V372.721H218.934ZM226.487 369.369V370.601H227.998V369.369H229.306V373.013C230.651 372.448 231.273 371.286 231.273 370.194V369.28H232.683V370.194C232.683 371.388 233.292 372.543 234.714 373.025L233.99 374.079C232.981 373.717 232.327 373.019 231.972 372.149C231.584 372.994 230.931 373.692 229.979 374.079L229.306 373.076V373.99H225.167V369.369H226.487ZM226.487 372.911H227.998V371.654H226.487V372.911ZM227.071 363.123C228.55 363.123 229.718 363.948 230.017 365.192H232.086V362.653H233.495V368.734H232.086V366.36H230.017C229.737 367.636 228.557 368.48 227.071 368.48C225.307 368.48 224.037 367.376 224.037 365.789C224.037 364.215 225.307 363.123 227.071 363.123ZM227.071 364.291C226.081 364.291 225.383 364.875 225.383 365.789C225.383 366.716 226.081 367.325 227.071 367.325C228.036 367.325 228.722 366.716 228.734 365.789C228.722 364.875 228.036 364.291 227.071 364.291ZM239.449 365.916C239.449 367.795 240.554 369.775 242.407 370.55L241.633 371.667C240.274 371.083 239.284 369.877 238.764 368.417C238.23 369.991 237.228 371.312 235.882 371.946L235.069 370.842C236.885 370.004 238.015 367.871 238.015 365.916V364.951H235.488V363.783H241.963V364.951H239.449V365.916ZM244.667 362.653V374.13H243.245V362.653H244.667ZM248.717 363.809L248.577 370.296H247.143L246.99 363.809H248.717ZM247.866 373.102C247.32 373.102 246.876 372.657 246.876 372.111C246.876 371.578 247.32 371.134 247.866 371.134C248.387 371.134 248.844 371.578 248.844 372.111C248.844 372.657 248.387 373.102 247.866 373.102ZM108.243 380.666V383.154H109.855V384.322H108.243V387.128H106.834V380.666H108.243ZM108.243 387.687V391.978H100.816V387.687H108.243ZM102.2 388.791V390.86H106.859V388.791H102.2ZM101.108 381.225V385.262C102.581 385.249 104.13 385.116 105.806 384.792L105.971 385.947C104.066 386.328 102.302 386.43 100.639 386.43H99.6865V381.225H101.108ZM119.72 383.903V385.021H111.772V381.072H113.169V383.903H119.72ZM120.9 386.354V387.471H110.414V386.354H120.9ZM119.796 390.721V391.863H111.671V388.486H113.08V390.721H119.796ZM131.272 380.666V389.083H129.863V385.224H127.654V384.056H129.863V380.666H131.272ZM127.73 381.529C127.73 384.551 125.725 386.823 122.411 387.877L121.814 386.747C124.29 385.96 125.921 384.5 126.194 382.685H122.411V381.529H127.73ZM131.564 390.759V391.901H123.795V388.232H125.229V390.759H131.564ZM140.083 383.408C140.07 385.452 141.099 387.534 142.876 388.385L142.013 389.515C140.769 388.886 139.874 387.674 139.385 386.214C138.883 387.775 137.944 389.07 136.63 389.73L135.767 388.601C137.607 387.725 138.661 385.528 138.674 383.408V381.58H140.083V383.408ZM144.971 380.653V385.147H146.735V386.354H144.971V392.13H143.562V380.653H144.971ZM151.572 382.989C151.572 384.411 152.55 385.808 154.378 386.379L153.654 387.483C152.353 387.058 151.407 386.201 150.887 385.109C150.366 386.296 149.395 387.242 148.03 387.712L147.307 386.595C149.147 385.985 150.138 384.5 150.15 382.989V382.659H147.675V381.529H153.984V382.659H151.572V382.989ZM156.777 380.666V388.994H155.355V380.666H156.777ZM157.095 390.759V391.901H149.186V388.232H150.607V390.759H157.095ZM160.662 381.034V382.278H161.982V381.034H163.303V385.693H159.329V381.034H160.662ZM160.662 384.563H161.982V383.345H160.662V384.563ZM165.397 381.034V382.278H166.692V381.034H168.038V385.693H164.052V381.034H165.397ZM165.397 384.563H166.692V383.345H165.397V384.563ZM168.927 386.633V387.75H164.496V389.756H163.1V387.75H158.44V386.633H168.927ZM167.771 390.81V391.952H159.71V388.842H161.106V390.81H167.771ZM176.899 382.85C176.899 383.954 177.864 385.008 179.642 385.389L179.045 386.455C177.699 386.157 176.734 385.471 176.214 384.563C175.7 385.573 174.703 386.341 173.307 386.684L172.697 385.592C174.5 385.16 175.49 384.056 175.49 382.85V382.837H173.091V381.72H175.49V380.615H176.912V381.72H179.299V382.837H176.899V382.85ZM181.825 380.653V383.053H183.425V384.208H181.825V386.646H180.416V380.653H181.825ZM181.825 387.153V390.073H175.731V390.937H182.181V392.028H174.335V389.045H180.416V388.232H174.322V387.153H181.825ZM189.925 381.352C189.912 384.398 188.287 386.557 184.707 387.712L184.136 386.607C185.761 386.106 186.884 385.408 187.589 384.538L184.326 384.792L184.123 383.675L188.186 383.497C188.306 383.18 188.389 382.843 188.439 382.494H184.707V381.352H189.925ZM193.061 380.653V383.51H194.66V384.665H193.061V387.496H191.651V380.653H193.061ZM193.061 388.004V392.13H191.651V389.134H185.507V388.004H193.061ZM202.455 382.85C202.455 383.954 203.42 385.008 205.197 385.389L204.601 386.455C203.255 386.157 202.29 385.471 201.77 384.563C201.255 385.573 200.259 386.341 198.862 386.684L198.253 385.592C200.056 385.16 201.046 384.056 201.046 382.85V382.837H198.646V381.72H201.046V380.615H202.468V381.72H204.854V382.837H202.455V382.85ZM207.381 380.653V383.053H208.98V384.208H207.381V386.646H205.972V380.653H207.381ZM207.381 387.153V390.073H201.287V390.937H207.736V392.028H199.891V389.045H205.972V388.232H199.878V387.153H207.381ZM215.48 381.352C215.468 384.398 213.843 386.557 210.263 387.712L209.691 386.607C211.316 386.106 212.44 385.408 213.145 384.538L209.882 384.792L209.679 383.675L213.741 383.497C213.862 383.18 213.944 382.843 213.995 382.494H210.263V381.352H215.48ZM218.616 380.653V383.51H220.216V384.665H218.616V387.496H217.207V380.653H218.616ZM218.616 388.004V392.13H217.207V389.134H211.062V388.004H218.616ZM223.161 381.809L223.021 388.296H221.587L221.435 381.809H223.161ZM222.311 391.102C221.765 391.102 221.32 390.657 221.32 390.111C221.32 389.578 221.765 389.134 222.311 389.134C222.831 389.134 223.288 389.578 223.288 390.111C223.288 390.657 222.831 391.102 222.311 391.102ZM97.2363 398.653V401.142H98.8359V402.297H97.2363V404.709H95.8272V398.653H97.2363ZM94.1387 399.453C94.126 402.424 92.209 404.239 88.7559 404.925L88.1592 403.795C91.0283 403.268 92.3931 402.024 92.5645 400.57H88.7051V399.453H94.1387ZM97.2744 405.179V406.22H91.1934V407.058H97.1602V408.073H91.1934V408.937H97.541V409.99H89.7715V405.179H97.2744ZM108.967 398.653V410.143H107.545V398.653H108.967ZM102.784 399.491C104.511 399.491 105.768 401.065 105.78 403.541C105.768 406.042 104.511 407.604 102.784 407.604C101.045 407.604 99.7881 406.042 99.7881 403.541C99.7881 401.065 101.045 399.491 102.784 399.491ZM102.784 400.761C101.807 400.761 101.146 401.789 101.146 403.541C101.146 405.306 101.807 406.334 102.784 406.334C103.749 406.334 104.409 405.306 104.409 403.541C104.409 401.789 103.749 400.761 102.784 400.761ZM117.815 406.118C117.815 407.07 118.253 408.073 119.237 408.695C120.234 408.029 120.697 406.988 120.71 406.118V405.648H122.094V406.118C122.081 407.324 122.792 408.441 124.303 408.924L123.617 409.952C122.5 409.578 121.757 408.848 121.357 407.934C120.989 408.835 120.31 409.641 119.275 410.054C118.184 409.66 117.498 408.886 117.143 407.972C116.73 408.854 116 409.571 114.934 409.952L114.235 408.924C115.721 408.403 116.432 407.235 116.444 406.118V405.648H117.815V406.118ZM123.3 398.666V405.166H121.878V398.666H123.3ZM117.041 399.275C118.806 399.275 120.126 400.393 120.126 402.005C120.126 403.604 118.806 404.722 117.041 404.722C115.264 404.722 113.943 403.604 113.943 402.005C113.943 400.393 115.264 399.275 117.041 399.275ZM117.041 400.469C116.038 400.469 115.314 401.065 115.327 402.005C115.314 402.944 116.038 403.554 117.041 403.554C118.031 403.554 118.742 402.944 118.742 402.005C118.742 401.065 118.031 400.469 117.041 400.469ZM130.193 399.301C132.618 399.301 134.472 400.583 134.472 402.538C134.472 404.519 132.618 405.801 130.193 405.801C127.781 405.801 125.928 404.519 125.94 402.538C125.928 400.583 127.781 399.301 130.193 399.301ZM130.193 400.443C128.53 400.431 127.299 401.269 127.299 402.538C127.299 403.833 128.53 404.646 130.193 404.646C131.869 404.646 133.088 403.833 133.088 402.538C133.088 401.269 131.869 400.431 130.193 400.443ZM135.462 407.527V408.683H124.976V407.527H135.462ZM142.102 399.618V400.532H144.412V398.666H145.821V407.02H144.412V404.125H142.102V405.115H136.706V399.618H142.102ZM138.115 400.735V404.011H140.705V400.735H138.115ZM146.075 408.759V409.901H138.255V406.245H139.689V408.759H146.075ZM142.102 402.995H144.412V401.688H142.102V402.995ZM160.091 398.666V406.956H158.669V398.666H160.091ZM160.408 408.759V409.901H152.499V406.118H153.921V408.759H160.408ZM153.832 399.415C155.571 399.415 156.917 400.621 156.917 402.284C156.917 403.985 155.571 405.166 153.832 405.166C152.08 405.166 150.734 403.985 150.734 402.284C150.734 400.621 152.08 399.415 153.832 399.415ZM153.832 400.646C152.854 400.646 152.105 401.294 152.118 402.284C152.105 403.3 152.854 403.935 153.832 403.935C154.784 403.935 155.533 403.3 155.533 402.284C155.533 401.294 154.784 400.646 153.832 400.646ZM165.347 400.786C165.347 402.03 166.07 403.274 167.581 403.846L166.832 404.925C165.81 404.531 165.099 403.801 164.687 402.906C164.268 403.935 163.519 404.811 162.427 405.268L161.665 404.188C163.239 403.49 163.976 402.056 163.988 400.786V399.364H165.347V400.786ZM171.58 398.666V405.699H170.234V402.716H169.092V405.344H167.771V398.882H169.092V401.561H170.234V398.666H171.58ZM167.708 405.89C170.107 405.89 171.631 406.677 171.644 407.997C171.631 409.317 170.107 410.117 167.708 410.117C165.283 410.117 163.772 409.317 163.772 407.997C163.772 406.677 165.283 405.89 167.708 405.89ZM167.708 406.956C166.121 406.956 165.182 407.324 165.182 407.997C165.182 408.683 166.121 409.038 167.708 409.038C169.282 409.038 170.222 408.683 170.222 407.997C170.222 407.324 169.282 406.956 167.708 406.956ZM183.615 400.481V401.637H182.054V403.059H183.615V404.227H182.054V406.347H180.645V398.653H182.054V400.481H183.615ZM177.115 400.52C177.103 401.954 178.029 403.325 179.819 403.871L179.058 404.963C177.82 404.55 176.931 403.725 176.442 402.665C175.928 403.877 174.989 404.823 173.662 405.293L172.888 404.176C174.754 403.541 175.693 402.018 175.693 400.38V399.313H177.115V400.52ZM179.146 406.093C179.134 407.451 180.568 408.645 182.879 408.987L182.32 410.066C180.53 409.787 179.146 409 178.461 407.87C177.75 409 176.366 409.787 174.576 410.066L174.03 408.987C176.341 408.645 177.737 407.451 177.737 406.093V405.775H179.146V406.093ZM193.289 399.352C193.276 402.31 191.334 404.379 187.982 405.318L187.424 404.214C190.007 403.509 191.518 402.17 191.766 400.494H188.033V399.352H193.289ZM196.933 405.813V410.092H195.523V406.943H189.112V405.813H196.933ZM196.933 398.666V405.356H195.523V402.69H193.378V401.522H195.523V398.666H196.933ZM208.168 398.653V405.471H206.759V402.665H204.804V401.51H206.759V398.653H208.168ZM204.283 405.763C206.721 405.763 208.206 406.563 208.206 407.946C208.206 409.33 206.721 410.13 204.283 410.13C201.858 410.13 200.373 409.33 200.386 407.946C200.373 406.563 201.858 405.763 204.283 405.763ZM204.283 406.842C202.684 406.842 201.782 407.223 201.782 407.946C201.782 408.657 202.684 409.038 204.283 409.038C205.883 409.038 206.797 408.657 206.797 407.946C206.797 407.223 205.883 406.842 204.283 406.842ZM202.772 400.621C202.772 402.018 203.699 403.427 205.477 404.023L204.766 405.141C203.49 404.709 202.582 403.833 202.087 402.754C201.579 403.979 200.621 404.957 199.256 405.445L198.52 404.328C200.36 403.693 201.338 402.145 201.338 400.634V400.545H198.951V399.402H205.146V400.545H202.772V400.621ZM220.901 399.809V409H219.429L215.074 402.716H214.998V409H213.348V399.809H214.846L219.175 406.093H219.264V399.809H220.901ZM230.804 404.404C230.804 407.375 229.001 409.127 226.589 409.127C224.177 409.127 222.374 407.362 222.374 404.404C222.374 401.434 224.177 399.682 226.589 399.682C229.001 399.682 230.804 401.434 230.804 404.404ZM229.141 404.404C229.141 402.31 228.087 401.167 226.589 401.167C225.091 401.167 224.037 402.31 224.037 404.404C224.037 406.499 225.091 407.642 226.589 407.642C228.087 407.642 229.141 406.499 229.141 404.404ZM234.168 399.809L234.028 406.296H232.594L232.441 399.809H234.168ZM233.317 409.102C232.771 409.102 232.327 408.657 232.327 408.111C232.327 407.578 232.771 407.134 233.317 407.134C233.838 407.134 234.295 407.578 234.295 408.111C234.295 408.657 233.838 409.102 233.317 409.102Z" fill="#575A63"/>
<path d="M22.7505 13.081H18.3615V15.446H22.0575V16.579H18.3615V20.121H17.0415V11.937H22.7505V13.081ZM29.7221 13.081H25.2231V15.336H29.1501V16.48H25.2231V18.977H29.7221V20.121H23.9031V11.937H29.7221V13.081ZM31.7802 17.987C32.0442 18.3023 32.3522 18.559 32.7042 18.757C33.0635 18.9477 33.4082 19.043 33.7382 19.043C34.0682 19.043 34.3615 18.988 34.6182 18.878C34.8822 18.768 35.0838 18.6177 35.2232 18.427C35.3698 18.229 35.4432 18.0053 35.4432 17.756C35.4432 17.5433 35.3662 17.3637 35.2122 17.217C35.0655 17.0703 34.8785 16.953 34.6512 16.865C34.4312 16.7697 34.1195 16.6633 33.7162 16.546C33.1662 16.3847 32.7115 16.227 32.3522 16.073C32.0002 15.919 31.6958 15.688 31.4392 15.38C31.1898 15.0647 31.0652 14.654 31.0652 14.148C31.0652 13.708 31.1825 13.3157 31.4172 12.971C31.6518 12.6263 31.9818 12.3587 32.4072 12.168C32.8325 11.9773 33.3128 11.882 33.8482 11.882C34.3175 11.882 34.7868 11.9993 35.2562 12.234C35.7255 12.4613 36.1142 12.7583 36.4222 13.125L35.4542 13.895C35.2415 13.631 34.9885 13.4183 34.6952 13.257C34.4092 13.0957 34.1268 13.015 33.8482 13.015C33.4155 13.015 33.0635 13.1213 32.7922 13.334C32.5208 13.5467 32.3852 13.818 32.3852 14.148C32.3852 14.3753 32.4622 14.566 32.6162 14.72C32.7702 14.874 32.9608 14.9987 33.1882 15.094C33.4228 15.1893 33.7455 15.2993 34.1562 15.424C34.7135 15.6073 35.1608 15.776 35.4982 15.93C35.8428 16.084 36.1398 16.3113 36.3892 16.612C36.6385 16.9053 36.7632 17.2867 36.7632 17.756C36.7632 18.2253 36.6348 18.6433 36.3782 19.01C36.1215 19.3767 35.7622 19.6627 35.3002 19.868C34.8455 20.0733 34.3248 20.176 33.7382 20.176C33.2028 20.176 32.6638 20.0477 32.1212 19.791C31.5858 19.5343 31.1458 19.1933 30.8012 18.768L31.7802 17.987ZM43.5617 13.081H41.1967V20.121H39.8767V13.081H37.4897V11.937H43.5617V13.081ZM46.152 11.937V20.121H44.832V11.937H46.152ZM52.2486 20.121H50.7196L47.2766 11.937H48.7066L51.4676 18.68L54.0636 11.937H55.4826L52.2486 20.121ZM63.1653 20.121H61.7353L60.8443 17.954H57.2033L56.3013 20.121H54.8713L58.2813 11.937H59.8103L63.1653 20.121ZM60.3823 16.81L59.0403 13.543L57.6763 16.81H60.3823ZM65.5841 18.977H69.5441V20.121H64.2641V11.937H65.5841V18.977ZM79.2365 13.081H76.8715V20.121H75.5515V13.081H73.1645V11.937H79.2365V13.081ZM84.5838 16.92V20.121H83.2638V16.92L80.0188 11.937H81.5918L83.9238 15.688L86.2558 11.937H87.8288L84.5838 16.92ZM92.209 16.238C92.495 16.238 92.7443 16.1757 92.957 16.051C93.177 15.919 93.3457 15.732 93.463 15.49C93.5803 15.248 93.639 14.9693 93.639 14.654C93.639 14.1847 93.507 13.807 93.243 13.521C92.9863 13.2277 92.638 13.081 92.198 13.081H90.141V16.238H92.209ZM92.242 11.937C92.77 11.937 93.2393 12.0543 93.65 12.289C94.0607 12.5163 94.3797 12.839 94.607 13.257C94.8417 13.6677 94.959 14.1333 94.959 14.654C94.959 15.1893 94.8417 15.6623 94.607 16.073C94.3797 16.4837 94.0607 16.8063 93.65 17.041C93.2393 17.2683 92.7737 17.382 92.253 17.382H90.141V20.121H88.821V11.937H92.242ZM101.749 13.081H97.2495V15.336H101.177V16.48H97.2495V18.977H101.749V20.121H95.9295V11.937H101.749V13.081ZM111.431 13.081H109.066V20.121H107.746V13.081H105.359V11.937H111.431V13.081ZM118.324 13.081H113.825V15.336H117.752V16.48H113.825V18.977H118.324V20.121H112.505V11.937H118.324V13.081ZM120.382 17.987C120.646 18.3023 120.954 18.559 121.306 18.757C121.665 18.9477 122.01 19.043 122.34 19.043C122.67 19.043 122.963 18.988 123.22 18.878C123.484 18.768 123.685 18.6177 123.825 18.427C123.971 18.229 124.045 18.0053 124.045 17.756C124.045 17.5433 123.968 17.3637 123.814 17.217C123.667 17.0703 123.48 16.953 123.253 16.865C123.033 16.7697 122.721 16.6633 122.318 16.546C121.768 16.3847 121.313 16.227 120.954 16.073C120.602 15.919 120.297 15.688 120.041 15.38C119.791 15.0647 119.667 14.654 119.667 14.148C119.667 13.708 119.784 13.3157 120.019 12.971C120.253 12.6263 120.583 12.3587 121.009 12.168C121.434 11.9773 121.914 11.882 122.45 11.882C122.919 11.882 123.388 11.9993 123.858 12.234C124.327 12.4613 124.716 12.7583 125.024 13.125L124.056 13.895C123.843 13.631 123.59 13.4183 123.297 13.257C123.011 13.0957 122.728 13.015 122.45 13.015C122.017 13.015 121.665 13.1213 121.394 13.334C121.122 13.5467 120.987 13.818 120.987 14.148C120.987 14.3753 121.064 14.566 121.218 14.72C121.372 14.874 121.562 14.9987 121.79 15.094C122.024 15.1893 122.347 15.2993 122.758 15.424C123.315 15.6073 123.762 15.776 124.1 15.93C124.444 16.084 124.741 16.3113 124.991 16.612C125.24 16.9053 125.365 17.2867 125.365 17.756C125.365 18.2253 125.236 18.6433 124.98 19.01C124.723 19.3767 124.364 19.6627 123.902 19.868C123.447 20.0733 122.926 20.176 122.34 20.176C121.804 20.176 121.265 20.0477 120.723 19.791C120.187 19.5343 119.747 19.1933 119.403 18.768L120.382 17.987ZM132.163 13.081H129.798V20.121H128.478V13.081H126.091V11.937H132.163V13.081Z" fill="#D5D5DE"/>
<path d="M19 330L302 330" stroke="#E6E6EB" stroke-width="2" stroke-linecap="round" stroke-dasharray="6 6"/>
<path d="M83.6069 284.032V293.612H81.7319V284.032H83.6069ZM83.9585 295.619V297.113H74.6714V292.646H76.561V295.619H83.9585ZM76.2974 284.882C78.3482 284.882 79.9448 286.288 79.9448 288.236C79.9448 290.229 78.3482 291.62 76.2974 291.62C74.2466 291.62 72.6499 290.229 72.6499 288.236C72.6499 286.288 74.2466 284.882 76.2974 284.882ZM76.2974 286.508C75.2573 286.493 74.4663 287.152 74.481 288.236C74.4663 289.35 75.2573 289.994 76.2974 289.994C77.3081 289.994 78.0991 289.35 78.0991 288.236C78.0991 287.152 77.3081 286.493 76.2974 286.508ZM92.4253 285.775C92.4253 287.724 94.1538 289.818 97.1714 290.331L96.3511 291.884C94.0293 291.422 92.3008 290.119 91.4439 288.397C90.5576 290.104 88.8291 291.415 86.522 291.884L85.7163 290.331C88.6753 289.804 90.4185 287.709 90.4331 285.775V284.809H92.4253V285.775ZM97.6108 294.169V295.707H85.4087V294.169H97.6108ZM105.213 285.116V286.64H100.79V288.837H105.023V290.302H100.79V292.821C102.701 292.807 104.254 292.726 106.034 292.44L106.209 293.949C104.173 294.257 102.357 294.315 100.028 294.315H98.8999V285.116H105.213ZM108.89 284.018V289.071H110.853V290.639H108.89V297.348H107.015V284.018H108.89ZM125.37 284.018V286.933H127.171V288.471H125.37V291.474H123.495V284.018H125.37ZM121.634 284.794C121.62 288.324 119.393 290.712 115.394 291.767L114.647 290.287C117.635 289.547 119.283 288.068 119.598 286.288H115.306V284.794H121.634ZM125.37 291.972V297.187H116.654V291.972H125.37ZM118.514 293.48V295.722H123.524V293.48H118.514ZM132.796 285.834C132.782 287.621 133.705 289.262 135.843 289.921L134.862 291.386C133.426 290.888 132.452 289.965 131.903 288.764C131.302 290.155 130.226 291.254 128.622 291.796L127.64 290.302C129.925 289.569 130.892 287.782 130.907 285.922V284.706H132.796V285.834ZM138.993 284.018V291.825H137.132V287.987H134.627V286.464H137.132V284.018H138.993ZM134.437 292.177C137.279 292.177 139.022 293.129 139.037 294.77C139.022 296.41 137.279 297.348 134.437 297.348C131.595 297.348 129.852 296.41 129.852 294.77C129.852 293.129 131.595 292.177 134.437 292.177ZM134.437 293.627C132.665 293.627 131.712 294.008 131.712 294.77C131.712 295.502 132.665 295.897 134.437 295.897C136.209 295.897 137.176 295.502 137.176 294.77C137.176 294.008 136.209 293.627 134.437 293.627ZM156.38 294.271V295.795H144.178V294.271H149.32V291.811H145.467V284.867H147.342V286.933H153.158V284.867H155.018V291.811H151.18V294.271H156.38ZM147.342 290.316H153.158V288.427H147.342V290.316ZM164.715 284.911V286.405H162.064C162.079 287.958 163.009 289.459 165.14 290.082L164.247 291.547C162.774 291.1 161.756 290.207 161.17 289.057C160.577 290.404 159.493 291.474 157.889 292.001L156.937 290.521C159.149 289.826 160.145 288.097 160.174 286.405H157.45V284.911H164.715ZM167.718 284.018V287.108H169.52V288.632H167.718V291.928H165.843V284.018H167.718ZM163.353 292.191C166.122 292.177 167.85 293.129 167.85 294.755C167.85 296.381 166.122 297.348 163.353 297.348C160.526 297.348 158.783 296.381 158.783 294.755C158.783 293.129 160.526 292.177 163.353 292.191ZM163.353 293.642C161.595 293.642 160.643 294.008 160.658 294.755C160.643 295.517 161.595 295.897 163.353 295.897C165.082 295.897 166.004 295.517 166.004 294.755C166.004 294.008 165.082 293.642 163.353 293.642Z" fill="#3A3C42"/>
<path d="M184.725 284.032V293.612H182.85V284.032H184.725ZM185.077 295.619V297.113H175.79V292.646H177.679V295.619H185.077ZM177.416 284.882C179.466 284.882 181.063 286.288 181.063 288.236C181.063 290.229 179.466 291.62 177.416 291.62C175.365 291.62 173.768 290.229 173.768 288.236C173.768 286.288 175.365 284.882 177.416 284.882ZM177.416 286.508C176.375 286.493 175.584 287.152 175.599 288.236C175.584 289.35 176.375 289.994 177.416 289.994C178.426 289.994 179.217 289.35 179.217 288.236C179.217 287.152 178.426 286.493 177.416 286.508ZM198.685 290.155V291.664H186.527V290.155H198.685ZM192.591 292.411C195.477 292.411 197.22 293.319 197.235 294.887C197.22 296.469 195.477 297.348 192.591 297.348C189.676 297.348 187.918 296.469 187.918 294.887C187.918 293.319 189.676 292.411 192.591 292.411ZM192.591 293.861C190.746 293.861 189.808 294.184 189.823 294.887C189.808 295.575 190.746 295.897 192.591 295.897C194.393 295.897 195.345 295.575 195.36 294.887C195.345 294.184 194.393 293.861 192.591 293.861ZM197.586 284.633V286.127H193.954C194.254 287.057 195.609 287.98 198.172 288.207L197.513 289.672C195.001 289.43 193.302 288.478 192.591 287.182C191.888 288.478 190.218 289.43 187.684 289.672L187.069 288.207C189.574 287.98 190.943 287.064 191.258 286.127H187.64V284.633H197.586ZM211.795 286.054V287.563H210.067V289.057H211.795V290.58H210.067V292.938H208.192V284.018H210.067V286.054H211.795ZM204.413 286.156C204.398 287.768 205.335 289.32 207.474 289.95L206.478 291.386C205.064 290.932 204.076 290.023 203.504 288.866C202.911 290.207 201.864 291.254 200.326 291.767L199.33 290.302C201.556 289.569 202.523 287.797 202.538 285.98V284.794H204.413V286.156ZM206.712 292.646C206.712 294.066 208.133 295.473 210.99 295.854L210.243 297.289C208.133 296.989 206.61 296.11 205.804 294.887C204.999 296.11 203.475 296.989 201.366 297.289L200.633 295.854C203.475 295.473 204.867 294.066 204.867 292.646V292.279H206.712V292.646ZM218.138 285.395V288.866H219.471V284.208H221.229V296.732H219.471V290.36H218.138V293.993H212.835V285.395H218.138ZM214.579 286.874V292.528H216.395V286.874H214.579ZM224.012 284.018V297.348H222.225V284.018H224.012ZM236.581 284.018V297.377H234.691V284.018H236.581ZM229.344 284.955C231.351 284.955 232.845 286.801 232.845 289.701C232.845 292.631 231.351 294.462 229.344 294.462C227.293 294.462 225.799 292.631 225.814 289.701C225.799 286.801 227.293 284.955 229.344 284.955ZM229.344 286.64C228.304 286.64 227.616 287.724 227.616 289.701C227.616 291.693 228.304 292.763 229.344 292.763C230.355 292.763 231.043 291.693 231.043 289.701C231.043 287.724 230.355 286.64 229.344 286.64ZM249.251 290.902V292.382H239.818V284.999H249.149V286.508H241.722V287.914H248.841V289.379H241.722V290.902H249.251ZM250.584 294.271V295.795H238.382V294.271H250.584Z" fill="#FF6F61"/>
<ellipse cx="160.119" cy="239.852" rx="59.1187" ry="12.8519" fill="#F3F3F6"/>
<rect x="219.792" y="100.203" width="38.0601" height="50.3862" transform="rotate(13.2972 219.792 100.203)" fill="#FF998F" stroke="black" stroke-width="2"/>
<rect x="223.8" y="106.691" width="27.2747" height="31.1266" transform="rotate(13.2972 223.8 106.691)" fill="white" stroke="black" stroke-width="2"/>
<rect x="238.43" y="102.464" width="38.0601" height="50.3862" transform="rotate(28.2972 238.43 102.464)" fill="#FFE6E4" stroke="black" stroke-width="2"/>
<rect x="240.622" y="109.769" width="27.2747" height="31.1266" transform="rotate(28.2972 240.622 109.769)" fill="white" stroke="black" stroke-width="2"/>
<path fill-rule="evenodd" clip-rule="evenodd" d="M200.342 161.523C207.072 156.163 211.385 147.898 211.385 138.626C211.385 122.467 198.286 109.368 182.127 109.368C173.393 109.368 165.553 113.195 160.192 119.264C154.832 113.195 146.992 109.368 138.258 109.368C122.099 109.368 109 122.467 109 138.626C109 147.898 113.313 156.163 120.043 161.523C113.313 166.884 109 175.148 109 184.42C109 200.579 122.099 213.678 138.258 213.678C139.486 213.678 140.697 213.602 141.886 213.455V220.81C139.157 220.992 133.7 222.993 133.7 229.542C133.882 231.361 135.337 235 139.703 235H156.076V207.628C157.569 206.48 158.947 205.192 160.192 203.783C161.434 205.189 162.809 206.474 164.298 207.62V235H180.671C185.037 235 186.492 231.361 186.674 229.542C186.674 222.993 181.216 220.992 178.488 220.81V213.454C179.68 213.602 180.895 213.678 182.127 213.678C198.286 213.678 211.385 200.579 211.385 184.42C211.385 175.148 207.072 166.884 200.342 161.523Z" fill="#FFE6E4"/>
<path d="M200.342 161.523L199.719 160.741L198.737 161.523L199.719 162.305L200.342 161.523ZM160.192 119.264L159.443 119.926L160.192 120.774L160.942 119.926L160.192 119.264ZM120.043 161.523L120.666 162.305L121.648 161.523L120.666 160.741L120.043 161.523ZM141.886 213.455H142.886V212.324L141.763 212.463L141.886 213.455ZM141.886 220.81L141.953 221.808L142.886 221.746V220.81H141.886ZM133.7 229.542H132.7V229.592L132.705 229.642L133.7 229.542ZM156.076 235V236H157.076V235H156.076ZM156.076 207.628L155.466 206.835L155.076 207.136V207.628H156.076ZM160.192 203.783L160.942 203.121L160.192 202.272L159.443 203.121L160.192 203.783ZM164.298 207.62H165.298V207.128L164.908 206.827L164.298 207.62ZM164.298 235H163.298V236H164.298V235ZM186.674 229.542L187.669 229.642L187.674 229.592V229.542H186.674ZM178.488 220.81H177.488V221.746L178.421 221.808L178.488 220.81ZM178.488 213.454L178.611 212.461L177.488 212.322V213.454H178.488ZM210.385 138.626C210.385 147.581 206.221 155.562 199.719 160.741L200.965 162.305C207.923 156.763 212.385 148.215 212.385 138.626H210.385ZM182.127 110.368C197.733 110.368 210.385 123.02 210.385 138.626H212.385C212.385 121.915 198.838 108.368 182.127 108.368V110.368ZM160.942 119.926C166.121 114.063 173.692 110.368 182.127 110.368V108.368C173.095 108.368 164.986 112.327 159.443 118.602L160.942 119.926ZM138.258 110.368C146.693 110.368 154.264 114.063 159.443 119.926L160.942 118.602C155.399 112.327 147.29 108.368 138.258 108.368V110.368ZM110 138.626C110 123.02 122.651 110.368 138.258 110.368V108.368C121.547 108.368 108 121.915 108 138.626H110ZM120.666 160.741C114.164 155.562 110 147.581 110 138.626H108C108 148.215 112.462 156.763 119.419 162.305L120.666 160.741ZM110 184.42C110 175.466 114.164 167.484 120.666 162.305L119.419 160.741C112.462 166.283 108 174.831 108 184.42H110ZM138.258 212.678C122.651 212.678 110 200.027 110 184.42H108C108 201.131 121.547 214.678 138.258 214.678V212.678ZM141.763 212.463C140.615 212.605 139.445 212.678 138.258 212.678V214.678C139.527 214.678 140.779 214.6 142.009 214.448L141.763 212.463ZM140.886 213.455V220.81H142.886V213.455H140.886ZM141.82 219.812C140.295 219.914 138.044 220.513 136.151 222.003C134.217 223.524 132.7 225.946 132.7 229.542H134.7C134.7 226.59 135.911 224.736 137.388 223.574C138.906 222.38 140.749 221.888 141.953 221.808L141.82 219.812ZM132.705 229.642C132.812 230.711 133.281 232.272 134.359 233.587C135.468 234.94 137.2 236 139.703 236V234C137.84 234 136.661 233.241 135.906 232.319C135.12 231.361 134.77 230.192 134.695 229.443L132.705 229.642ZM139.703 236H156.076V234H139.703V236ZM157.076 235V207.628H155.076V235H157.076ZM159.443 203.121C158.24 204.482 156.908 205.727 155.466 206.835L156.686 208.421C158.229 207.234 159.655 205.902 160.942 204.445L159.443 203.121ZM164.908 206.827C163.47 205.721 162.142 204.479 160.942 203.121L159.443 204.445C160.727 205.898 162.149 207.228 163.688 208.412L164.908 206.827ZM165.298 235V207.62H163.298V235H165.298ZM180.671 234H164.298V236H180.671V234ZM185.679 229.443C185.604 230.192 185.254 231.361 184.468 232.319C183.712 233.241 182.534 234 180.671 234V236C183.174 236 184.906 234.94 186.015 233.587C187.093 232.272 187.562 230.711 187.669 229.642L185.679 229.443ZM178.421 221.808C179.625 221.888 181.468 222.38 182.986 223.574C184.463 224.736 185.674 226.59 185.674 229.542H187.674C187.674 225.946 186.157 223.524 184.222 222.002C182.33 220.513 180.079 219.914 178.554 219.812L178.421 221.808ZM177.488 213.454V220.81H179.488V213.454H177.488ZM182.127 212.678C180.936 212.678 179.762 212.604 178.611 212.461L178.365 214.446C179.598 214.599 180.854 214.678 182.127 214.678V212.678ZM210.385 184.42C210.385 200.027 197.733 212.678 182.127 212.678V214.678C198.838 214.678 212.385 201.131 212.385 184.42H210.385ZM199.719 162.305C206.221 167.484 210.385 175.466 210.385 184.42H212.385C212.385 174.831 207.923 166.283 200.965 160.741L199.719 162.305Z" fill="black"/>
<path d="M175.497 133.516C171.438 136.297 162.139 139.897 157.411 132.047C151.501 122.235 165.087 121.432 164.65 129.103C164.287 135.491 158.754 140.713 151.524 136.368C150.184 135.563 147.27 133.341 146.787 129.61" stroke="#FF6F61" stroke-width="2" stroke-linecap="round"/>
<path d="M112.66 163.054L120.126 167.328C118.262 173.571 119.145 183.672 113.772 182.231C108.886 180.921 96.6509 175.258 92.1221 170.332C90.0603 167.815 87.3985 161.428 93.2458 156.009C99.0931 150.591 105.129 153.97 107.417 156.338C113.033 155.727 113.252 160.561 112.66 163.054Z" fill="#FFE6E4"/>
<path d="M111 181.5C106.588 179.092 95.1508 172.775 92.3358 169.548C90.2589 167.167 87.5915 160.682 93.3067 155.698C99.0218 150.713 105.047 153.957 107.345 156.202C112.899 155.71 113.183 160.232 112.631 162.555L117.5 165.5" stroke="black" stroke-width="2" stroke-linecap="round"/>
<ellipse cx="171.138" cy="146.899" rx="4.42452" ry="5.89936" fill="black"/>
<ellipse cx="159.341" cy="152.797" rx="2.94968" ry="4.42452" transform="rotate(90 159.341 152.797)" fill="black"/>
<path d="M144 142.987C146.333 143.199 149.688 144.26 151 146.924C148.812 146.924 145.75 148.078 144 149.987" stroke="black" stroke-width="2" stroke-linecap="round" stroke-linejoin="round"/>
<rect x="172.206" y="155" width="13.5616" height="8.04255" rx="3" fill="#FF6F61" stroke="black" stroke-width="2"/>
<rect x="127" y="158.574" width="66" height="38.4255" rx="9" fill="#FF998F" stroke="black" stroke-width="2"/>
<ellipse cx="158.644" cy="178.234" rx="11.7534" ry="11.617" fill="#FFCDC9" stroke="black" stroke-width="2"/>
<ellipse cx="158.644" cy="178.234" rx="5.42466" ry="5.3617" fill="#FFE6E4" stroke="black" stroke-width="2"/>
<ellipse cx="134.685" cy="167.064" rx="2.26027" ry="2.23404" fill="#FF998F" stroke="black" stroke-width="2"/>
<path d="M179.438 163.936L179.438 191.638" stroke="black" stroke-width="2" stroke-linecap="round"/>
<path d="M197.895 174.802L205.686 178.215C204.457 184.161 202.424 195.07 196.977 194.133C192.024 193.281 183.279 187.351 178.324 183.11C176.042 180.925 173.752 175.967 178.033 169.707C180.477 166.133 189.569 166.919 192.06 168.949C196.977 172.133 195.477 172.133 197.895 174.802Z" fill="#FFE6E4"/>
<path d="M199.023 174.047C195.523 171.547 196.023 172.047 191.977 169.633C188.523 167.266 181.714 165.862 178.033 169.707C172.788 175.185 176.027 181.403 178.309 183.588C181.403 186.55 189.39 190.998 194 193" stroke="black" stroke-width="2"/>
<path d="M72.1114 101.938C77.2884 100.311 80.8428 92.4946 80.762 88.0279C81.4001 92.4946 82.5785 99.3681 88.4193 101.938C82.775 103.358 81.4001 113.552 80.8497 116.936C79.4858 111.638 77.9521 104.507 72.1114 101.938Z" fill="#FF6F61" stroke="black" stroke-width="2" stroke-linecap="round" stroke-linejoin="round"/>
<path d="M94.7999 92.2361C98.3736 91.1135 100.599 84.4352 100.543 81.3518C100.983 84.4352 102.311 90.4621 106.343 92.2358C102.447 93.2166 101.498 100.253 101.118 102.589C100.176 98.9317 98.8318 94.0098 94.7999 92.2361Z" fill="#FF6F61" stroke="black" stroke-width="2" stroke-linecap="round" stroke-linejoin="round"/>
</svg>
