<svg width="321" height="479" viewBox="0 0 321 479" fill="none" xmlns="http://www.w3.org/2000/svg">
<mask id="path-1-inside-1_890_3350" fill="white">
<path fill-rule="evenodd" clip-rule="evenodd" d="M139.389 0C142.823 0 145.958 1.95432 147.47 5.03779L153.933 18.2188C155.445 21.3022 158.58 23.2566 162.014 23.2566H312C316.971 23.2566 321 27.286 321 32.2566V469.257C321 474.227 316.971 478.257 312 478.257H9C4.02943 478.257 0 474.227 0 469.257V46.9085V23.2566V9C0 4.02944 4.02943 0 9 0H139.389Z"/>
</mask>
<path fill-rule="evenodd" clip-rule="evenodd" d="M139.389 0C142.823 0 145.958 1.95432 147.47 5.03779L153.933 18.2188C155.445 21.3022 158.58 23.2566 162.014 23.2566H312C316.971 23.2566 321 27.286 321 32.2566V469.257C321 474.227 316.971 478.257 312 478.257H9C4.02943 478.257 0 474.227 0 469.257V46.9085V23.2566V9C0 4.02944 4.02943 0 9 0H139.389Z" fill="white"/>
<path d="M147.47 5.03779L148.368 4.59755L147.47 5.03779ZM153.933 18.2188L153.035 18.659L153.933 18.2188ZM154.831 17.7785L148.368 4.59755L146.572 5.47804L153.035 18.659L154.831 17.7785ZM162.014 24.2566H312V22.2566H162.014V24.2566ZM320 32.2566V469.257H322V32.2566H320ZM312 477.257H9V479.257H312V477.257ZM1 469.257V46.9085H-1V469.257H1ZM1 46.9085V23.2566H-1V46.9085H1ZM-1 9V23.2566H1V9H-1ZM139.389 -1H9V1H139.389V-1ZM1 9C1 4.58172 4.58172 1 9 1V-1C3.47715 -1 -1 3.47715 -1 9H1ZM9 477.257C4.58172 477.257 1 473.675 1 469.257H-1C-1 474.779 3.47715 479.257 9 479.257V477.257ZM320 469.257C320 473.675 316.418 477.257 312 477.257V479.257C317.523 479.257 322 474.779 322 469.257H320ZM312 24.2566C316.418 24.2566 320 27.8383 320 32.2566H322C322 26.7337 317.523 22.2566 312 22.2566V24.2566ZM148.368 4.59755C146.688 1.17147 143.205 -1 139.389 -1V1C142.442 1 145.228 2.73718 146.572 5.47804L148.368 4.59755ZM153.035 18.659C154.715 22.0851 158.198 24.2566 162.014 24.2566V22.2566C158.961 22.2566 156.175 20.5194 154.831 17.7785L153.035 18.659Z" fill="#D5D5DE" mask="url(#path-1-inside-1_890_3350)"/>
<path fill-rule="evenodd" clip-rule="evenodd" d="M165.013 448.951C164.677 448.924 164.166 449.06 163.708 449.93C162.766 451.721 163.155 453.413 163.395 454.453C163.41 454.518 163.424 454.581 163.438 454.642L161.857 454.996C161.843 454.935 161.827 454.868 161.81 454.795C161.565 453.75 161.042 451.518 162.274 449.177C162.967 447.858 164.03 447.247 165.144 447.337C165.835 447.393 166.463 447.716 166.935 448.178C167.198 448.036 167.489 447.912 167.811 447.813C168.42 447.626 168.988 447.603 169.5 447.744C170.014 447.886 170.413 448.177 170.706 448.519C171.27 449.176 171.472 450.048 171.46 450.661C171.433 452.079 170.963 453.606 170.53 455.012L170.516 455.057L168.968 454.581C169.422 453.103 169.818 451.79 169.84 450.63C169.846 450.324 169.727 449.866 169.476 449.572C169.361 449.439 169.229 449.349 169.069 449.305C168.907 449.26 168.659 449.246 168.289 449.36C168.093 449.42 167.915 449.494 167.753 449.578C167.819 449.798 167.874 450.035 167.919 450.273C168.014 450.775 168.075 451.348 168.077 451.9C168.078 452.44 168.023 453.023 167.842 453.51C167.663 453.991 167.273 454.581 166.513 454.665C166.239 454.695 165.702 454.752 165.244 454.428C164.765 454.091 164.609 453.525 164.549 452.99C164.518 452.717 164.488 451.727 164.865 450.661C165.035 450.181 165.291 449.678 165.669 449.219C165.471 449.067 165.239 448.969 165.013 448.951ZM166.412 451.148C166.406 451.166 166.399 451.183 166.393 451.201C166.258 451.583 166.195 451.959 166.168 452.262C166.156 452.412 166.152 452.541 166.153 452.639C166.153 452.688 166.154 452.728 166.156 452.758C166.156 452.773 166.157 452.785 166.158 452.794C166.158 452.799 166.159 452.802 166.159 452.805C166.159 452.807 166.159 452.808 166.159 452.808L166.159 452.808C166.173 452.927 166.189 453.01 166.204 453.068C166.223 453.067 166.245 453.065 166.271 453.063C166.284 453.04 166.302 453.004 166.323 452.947C166.406 452.722 166.458 452.361 166.457 451.905C166.456 451.657 166.44 451.4 166.412 451.148ZM166.247 453.094C166.247 453.093 166.25 453.089 166.257 453.084C166.251 453.092 166.247 453.095 166.247 453.094Z" fill="#FF998F"/>
<path d="M192.334 449.848C192.197 449.614 192.017 449.411 191.792 449.239C191.566 449.067 191.307 448.953 191.012 448.898C190.727 448.84 190.423 448.869 190.1 448.986C189.786 449.1 189.523 449.272 189.312 449.501C189.11 449.727 188.966 449.987 188.88 450.282C188.792 450.568 188.768 450.851 188.808 451.13L192.334 449.848ZM193.298 448.356C193.587 448.647 193.815 448.98 193.983 449.355C194.156 449.719 194.289 450.071 194.383 450.412L194.432 450.547L189.279 452.421C189.431 452.7 189.644 452.922 189.917 453.087C190.187 453.242 190.477 453.34 190.786 453.38C191.092 453.41 191.384 453.375 191.662 453.274C192.119 453.108 192.437 452.906 192.615 452.669C192.801 452.429 192.916 452.214 192.959 452.026L192.968 452.008L194.659 452.048C194.61 452.583 194.383 453.102 193.977 453.605C193.567 454.099 192.972 454.487 192.192 454.771C191.51 455.019 190.849 455.087 190.209 454.975C189.566 454.853 188.996 454.573 188.501 454.134C188.006 453.695 187.631 453.126 187.376 452.427C187.118 451.719 187.038 451.038 187.135 450.384C187.228 449.721 187.484 449.141 187.902 448.644C188.317 448.138 188.866 447.761 189.547 447.513C190.22 447.268 190.827 447.205 191.368 447.323C191.914 447.428 192.344 447.592 192.659 447.812C192.973 448.033 193.181 448.216 193.285 448.361L193.298 448.356Z" fill="#FF998F"/>
<path d="M186.518 454.644C186.289 454.758 186.069 454.839 185.859 454.887C185.649 454.944 185.358 454.973 184.986 454.973C184.527 454.973 184.117 454.868 183.754 454.658C183.392 454.439 183.11 454.134 182.909 453.743C182.709 453.352 182.609 452.908 182.609 452.412V445.089H184.556V452.412C184.556 452.651 184.613 452.856 184.728 453.028C184.852 453.199 185.005 453.29 185.186 453.299C185.415 453.328 185.687 453.256 186.002 453.085L186.017 453.07L186.675 454.572L186.518 454.644ZM181.234 447.435H186.489V448.994H181.234V447.435Z" fill="#FF998F"/>
<path d="M176.239 453.542C176.592 453.542 176.921 453.442 177.227 453.242C177.532 453.042 177.776 452.765 177.957 452.412C178.138 452.06 178.229 451.669 178.229 451.24C178.229 450.82 178.138 450.434 177.957 450.081C177.776 449.728 177.532 449.451 177.227 449.251C176.921 449.051 176.592 448.951 176.239 448.951C175.866 448.951 175.537 449.046 175.251 449.237C174.974 449.418 174.754 449.685 174.592 450.038C174.439 450.381 174.363 450.782 174.363 451.24C174.363 451.707 174.439 452.117 174.592 452.47C174.754 452.813 174.974 453.08 175.251 453.271C175.537 453.452 175.866 453.542 176.239 453.542ZM180.176 454.973L178.229 454.987V454.029C178.038 454.267 177.823 454.468 177.585 454.63C177.356 454.782 177.107 454.897 176.84 454.973C176.582 455.059 176.32 455.102 176.053 455.102C175.346 455.102 174.716 454.94 174.162 454.615C173.609 454.282 173.179 453.824 172.874 453.242C172.568 452.66 172.416 451.993 172.416 451.24C172.416 450.496 172.568 449.833 172.874 449.251C173.179 448.669 173.609 448.217 174.162 447.892C174.716 447.559 175.346 447.392 176.053 447.392C176.463 447.392 176.859 447.482 177.241 447.663C177.623 447.845 177.952 448.112 178.229 448.464V447.363H180.176V454.973Z" fill="#FF998F"/>
<path d="M160.511 447.277V455.045H158.564V447.277H160.511Z" fill="#FF998F"/>
<path d="M157.232 454.644C157.003 454.758 156.783 454.839 156.573 454.887C156.363 454.944 156.072 454.973 155.7 454.973C155.242 454.973 154.831 454.868 154.468 454.658C154.106 454.439 153.824 454.134 153.624 453.743C153.423 453.352 153.323 452.908 153.323 452.412V445.089H155.27V452.412C155.27 452.651 155.327 452.856 155.442 453.028C155.566 453.199 155.719 453.29 155.9 453.299C156.129 453.328 156.401 453.256 156.716 453.085L156.731 453.07L157.389 454.572L157.232 454.644ZM151.948 447.435H157.203V448.994H151.948V447.435Z" fill="#FF998F"/>
<path d="M146.291 452.519C146.511 452.777 146.773 452.982 147.079 453.134C147.394 453.287 147.68 453.363 147.938 453.363C148.281 453.363 148.563 453.287 148.783 453.134C149.002 452.972 149.112 452.767 149.112 452.519C149.112 452.414 149.059 452.324 148.954 452.247C148.859 452.162 148.716 452.085 148.525 452.019C148.343 451.952 148.133 451.88 147.895 451.804C147.341 451.632 146.878 451.465 146.506 451.303C146.143 451.141 145.823 450.908 145.546 450.602C145.279 450.288 145.146 449.892 145.146 449.415C145.146 448.967 145.27 448.571 145.518 448.228C145.766 447.875 146.11 447.599 146.549 447.398C146.997 447.198 147.499 447.098 148.052 447.098C148.52 447.098 148.993 447.208 149.47 447.427C149.947 447.637 150.339 447.918 150.644 448.271L149.413 449.387C149.231 449.167 149.016 448.996 148.768 448.872C148.52 448.738 148.281 448.671 148.052 448.671C147.775 448.671 147.546 448.738 147.365 448.872C147.184 448.996 147.093 449.162 147.093 449.372C147.093 449.487 147.145 449.587 147.25 449.673C147.365 449.758 147.518 449.84 147.709 449.916C147.909 449.983 148.133 450.054 148.382 450.13C148.926 450.302 149.374 450.469 149.728 450.631C150.09 450.784 150.401 451.013 150.658 451.318C150.926 451.613 151.059 451.995 151.059 452.462C151.059 452.948 150.926 453.377 150.658 453.749C150.401 454.121 150.033 454.412 149.556 454.622C149.088 454.832 148.549 454.937 147.938 454.937C147.432 454.937 146.907 454.817 146.363 454.579C145.828 454.341 145.384 454.026 145.031 453.635L146.291 452.519Z" fill="#FF998F"/>
<path d="M142.407 450.453C142.359 450.186 142.259 449.933 142.106 449.695C141.953 449.456 141.748 449.261 141.49 449.108C141.242 448.956 140.946 448.879 140.603 448.879C140.269 448.879 139.963 448.951 139.686 449.094C139.419 449.237 139.195 449.432 139.013 449.68C138.832 449.919 138.713 450.176 138.655 450.453H142.407ZM143.824 449.38C143.996 449.752 144.097 450.143 144.125 450.553C144.163 450.954 144.168 451.33 144.139 451.683V451.826H138.655C138.703 452.141 138.827 452.422 139.028 452.67C139.228 452.908 139.467 453.099 139.744 453.242C140.02 453.376 140.307 453.442 140.603 453.442C141.09 453.442 141.457 453.361 141.705 453.199C141.963 453.037 142.144 452.875 142.249 452.713L142.264 452.699L143.839 453.314C143.61 453.8 143.218 454.21 142.665 454.544C142.111 454.868 141.419 455.03 140.588 455.03C139.863 455.03 139.219 454.868 138.655 454.544C138.092 454.21 137.653 453.752 137.338 453.171C137.023 452.589 136.865 451.926 136.865 451.182C136.865 450.429 137.023 449.761 137.338 449.18C137.653 448.589 138.092 448.131 138.655 447.807C139.219 447.473 139.863 447.306 140.588 447.306C141.304 447.306 141.896 447.454 142.364 447.749C142.841 448.035 143.19 448.336 143.409 448.651C143.629 448.965 143.762 449.208 143.81 449.38H143.824Z" fill="#FF998F"/>
<path d="M136.632 445.918H130.947V448.779H135.744V450.438H130.947V454.987H129V444.259H136.632V445.918Z" fill="#FF998F"/>
<ellipse cx="159.533" cy="445.641" rx="0.972235" ry="0.971246" fill="#FF998F"/>
<path d="M64.2222 367.617V368.658H59.7026V369.496H62.9399V372.188H56.4146V372.975H63.2573V374.028H55.0308V371.223H61.5562V370.512H55.0181V369.496H58.3062V368.658H53.812V367.617H64.2222ZM59.7026 362.628V363.593H63.2192V364.646H59.855C60.1279 365.459 61.4609 366.068 63.7524 366.183L63.3335 367.236C61.2769 367.109 59.728 366.551 59.0044 365.624C58.2808 366.551 56.7383 367.109 54.6626 367.236L54.2691 366.183C56.5352 366.068 57.8682 365.459 58.1665 364.646H54.8149V363.593H58.3062V362.628H59.7026ZM66.812 363.161V364.621H69.4907V363.161H70.8872V368.163H65.4155V363.161H66.812ZM66.812 367.046H69.4907V365.688H66.812V367.046ZM74.0737 362.653V364.977H75.6733V366.119H74.0737V368.531H72.6646V362.653H74.0737ZM74.0737 368.988V371.997H67.98V372.911H74.4292V374.028H66.5835V370.969H72.6646V370.093H66.5708V368.988H74.0737ZM88.9526 362.666V371.045H87.5435V366.843H85.5122V365.7H87.5435V362.666H88.9526ZM89.2446 372.759V373.901H81.4243V370.309H82.8335V372.759H89.2446ZM83.5571 364.951C83.5571 366.335 84.4839 367.757 86.2612 368.341L85.5503 369.471C84.2681 369.033 83.3604 368.163 82.8589 367.071C82.3511 368.284 81.3926 369.242 80.0405 369.712L79.3169 368.569C81.145 367.973 82.1226 366.462 82.1226 364.938V364.634H79.7358V363.491H85.9312V364.634H83.5571V364.951ZM100.48 362.653V374.13H99.1216V362.653H100.48ZM98.1187 362.856V373.571H96.773V368.112H95.6812C95.5479 370.347 94.5894 371.73 93.1675 371.718C91.6694 371.73 90.6919 370.144 90.6919 367.617C90.6919 365.091 91.6694 363.529 93.1675 363.529C94.5576 363.529 95.5034 364.824 95.6685 366.97H96.773V362.856H98.1187ZM93.1675 364.862C92.4439 364.85 91.9868 365.827 91.9995 367.617C91.9868 369.407 92.4439 370.385 93.1675 370.372C93.9292 370.385 94.3862 369.407 94.3862 367.617C94.3862 365.827 93.9292 364.85 93.1675 364.862ZM115.372 368.15V369.28H104.898V368.15H109.443V367.059H106.18V363.174H114.102V364.278H107.589V365.941H114.166V367.059H110.827V368.15H115.372ZM110.116 369.94C112.591 369.94 114.077 370.689 114.089 372.035C114.077 373.368 112.591 374.13 110.116 374.13C107.615 374.13 106.117 373.368 106.117 372.035C106.117 370.689 107.615 369.94 110.116 369.94ZM110.116 371.02C108.44 371.02 107.539 371.375 107.551 372.035C107.539 372.695 108.44 373.038 110.116 373.038C111.753 373.038 112.667 372.695 112.68 372.035C112.667 371.375 111.753 371.02 110.116 371.02ZM120.31 364.685C120.31 366.208 121.224 367.693 123.001 368.303L122.227 369.407C120.989 368.938 120.101 368.042 119.625 366.919C119.123 368.176 118.19 369.172 116.844 369.674L116.095 368.557C117.936 367.935 118.875 366.348 118.888 364.672V363.364H120.31V364.685ZM125.744 362.666V371.185H124.334V366.348H122.049V365.192H124.334V362.666H125.744ZM125.998 372.759V373.901H118.177V370.258H119.612V372.759H125.998ZM140.064 362.653V369.471H138.655V366.665H136.7V365.51H138.655V362.653H140.064ZM136.179 369.763C138.617 369.763 140.102 370.563 140.102 371.946C140.102 373.33 138.617 374.13 136.179 374.13C133.754 374.13 132.269 373.33 132.282 371.946C132.269 370.563 133.754 369.763 136.179 369.763ZM136.179 370.842C134.58 370.842 133.678 371.223 133.678 371.946C133.678 372.657 134.58 373.038 136.179 373.038C137.779 373.038 138.693 372.657 138.693 371.946C138.693 371.223 137.779 370.842 136.179 370.842ZM134.668 364.621C134.668 366.018 135.595 367.427 137.373 368.023L136.662 369.141C135.386 368.709 134.478 367.833 133.983 366.754C133.475 367.979 132.517 368.957 131.152 369.445L130.416 368.328C132.256 367.693 133.234 366.145 133.234 364.634V364.545H130.847V363.402H137.042V364.545H134.668V364.621ZM151.249 362.653V374.143H149.852V362.653H151.249ZM147.719 363.656V367.96H143.771V370.271C145.58 370.258 147.142 370.169 148.925 369.864L149.052 371.02C147.097 371.362 145.383 371.426 143.327 371.426H142.324V366.843H146.285V364.799H142.311V363.656H147.719ZM155.159 372.099L154.092 375.653H152.886L153.546 372.099H155.159ZM165.074 363.479V368.709H159.716V363.479H165.074ZM161.1 364.608V367.579H163.677V364.608H161.1ZM168.375 362.653V365.611H169.974V366.792H168.375V370.245H166.965V362.653H168.375ZM165.467 370.017C165.455 371.4 166.876 372.632 169.187 372.962L168.628 374.066C166.851 373.781 165.467 372.975 164.782 371.832C164.071 372.975 162.687 373.781 160.91 374.066L160.351 372.962C162.649 372.632 164.058 371.4 164.058 370.017V369.699H165.467V370.017ZM177.325 363.339V364.469H174.913C174.932 365.814 175.922 367.103 177.731 367.617L177.02 368.722C175.693 368.328 174.735 367.497 174.214 366.437C173.7 367.579 172.716 368.48 171.345 368.912L170.634 367.808C172.469 367.268 173.459 365.891 173.491 364.469H171.015V363.339H177.325ZM180.118 362.653V368.874H178.696V362.653H180.118ZM173.922 369.382V370.563H178.708V369.382H180.118V373.99H172.526V369.382H173.922ZM173.922 372.848H178.708V371.654H173.922V372.848ZM194.781 362.653V374.13H193.422V362.653H194.781ZM192.458 362.856V373.571H191.125V369.953H189.626C189.201 371.083 188.439 371.724 187.468 371.718C185.97 371.73 184.993 370.144 184.993 367.617C184.993 365.091 185.97 363.529 187.468 363.529C188.439 363.529 189.195 364.164 189.626 365.281H191.125V362.856H192.458ZM187.468 364.862C186.719 364.85 186.275 365.827 186.288 367.617C186.275 369.407 186.719 370.385 187.468 370.372C188.23 370.385 188.7 369.407 188.7 367.617C188.7 365.827 188.23 364.85 187.468 364.862ZM189.906 366.424C189.963 366.792 189.995 367.192 189.995 367.617C189.995 368.036 189.963 368.43 189.918 368.798H191.125V366.424H189.906ZM206.727 364.253V365.396H205.166V366.716H206.727V367.896H205.166V369.433H203.756V362.653H205.166V364.253H206.727ZM205.166 369.928V374.13H203.756V371.07H197.523V369.928H205.166ZM199.338 363.313C201.103 363.301 202.423 364.456 202.436 366.068C202.423 367.706 201.103 368.849 199.338 368.849C197.561 368.849 196.228 367.706 196.241 366.068C196.228 364.456 197.561 363.301 199.338 363.313ZM199.338 364.507C198.348 364.52 197.612 365.116 197.625 366.068C197.612 367.046 198.348 367.655 199.338 367.643C200.316 367.655 201.052 367.046 201.052 366.068C201.052 365.116 200.316 364.52 199.338 364.507ZM209.583 372.099L208.517 375.653H207.311L207.971 372.099H209.583ZM223.244 362.983V364.05H221.669V365.789H223.18V366.855H214.75V365.789H216.261V364.05H214.687V362.983H223.244ZM224.208 367.579V368.696H213.748V367.579H224.208ZM222.901 369.471V372.2H216.375V372.975H223.218V374.028H214.992V371.223H221.517V370.499H214.979V369.471H222.901ZM217.67 365.789H220.248V364.05H217.67V365.789ZM234.796 362.666V371.185H233.451V367.135H232.257V370.918H230.937V362.882H232.257V365.979H233.451V362.666H234.796ZM235.114 372.759V373.901H227.116V370.385H228.525V372.759H235.114ZM229.82 363.605V367.084H226.836V368.442C228.169 368.43 229.185 368.36 230.353 368.138L230.48 369.268C229.096 369.509 227.928 369.56 226.252 369.56H225.465V366.018H228.461V364.723H225.453V363.605H229.82ZM239.773 373V363.809H243.29C245.283 363.809 246.273 364.824 246.273 366.195C246.273 367.313 245.562 367.935 244.661 368.15V368.239C245.638 368.29 246.628 369.103 246.628 370.499C246.628 371.934 245.6 373 243.493 373H239.773ZM243.239 371.616C244.445 371.616 244.953 371.096 244.953 370.372C244.953 369.547 244.305 368.912 243.277 368.912H241.423V371.616H243.239ZM243.086 367.719C243.962 367.719 244.623 367.211 244.623 366.398C244.623 365.688 244.115 365.18 243.125 365.18H241.423V367.719H243.086ZM256.658 362.653V367.236H258.245V368.404H256.658V374.13H255.236V362.653H256.658ZM250.945 363.859C250.932 366.868 250.513 369.407 248.444 371.642L247.339 370.842C248.958 369.128 249.485 367.313 249.599 365.015H247.796V363.859H250.945ZM254.119 363.859C254.106 366.944 253.789 369.89 251.719 372.378L250.589 371.604C252.227 369.655 252.684 367.503 252.786 365.015H251.326V363.859H254.119ZM263.069 365.916C263.069 367.795 264.173 369.775 266.027 370.55L265.252 371.667C263.894 371.083 262.904 369.877 262.383 368.417C261.85 369.991 260.847 371.312 259.501 371.946L258.689 370.842C260.504 370.004 261.634 367.871 261.634 365.916V364.951H259.108V363.783H265.583V364.951H263.069V365.916ZM268.287 362.653V374.13H266.865V362.653H268.287ZM58.6934 382.189C58.6807 383.161 58.8521 384.398 59.5947 385.313C60.3184 384.411 60.4707 383.192 60.4707 382.189V381.326H61.791V382.189C61.791 383.561 62.1973 385.084 63.543 385.858L62.7432 386.849C61.937 386.385 61.4356 385.617 61.1436 384.729C60.8706 385.649 60.3945 386.474 59.582 386.988C58.7568 386.468 58.2744 385.617 58.0078 384.678C57.7158 385.585 57.2144 386.373 56.4082 386.849L55.6338 385.858C56.9541 385.046 57.3477 383.484 57.3604 382.189V381.326H58.6934V382.189ZM65.168 380.653V383.446H66.4375V384.627H65.168V387.407H63.7588V380.653H65.168ZM65.168 387.915V392.13H63.7588V389.032H57.2334V387.915H65.168ZM79.1201 380.653V385.008H80.8848V386.163H79.1201V392.143H77.7109V380.653H79.1201ZM75.9717 381.745V382.888H72.0107V388.156C73.7944 388.156 75.2036 388.067 76.7842 387.788L76.9492 388.981C75.1719 389.286 73.6231 389.337 71.5537 389.337H70.6016V381.745H75.9717ZM94.0625 380.653V387.471H92.6533V384.665H90.6982V383.51H92.6533V380.653H94.0625ZM90.1777 387.763C92.6152 387.763 94.1006 388.563 94.1006 389.946C94.1006 391.33 92.6152 392.13 90.1777 392.13C87.7529 392.13 86.2676 391.33 86.2803 389.946C86.2676 388.563 87.7529 387.763 90.1777 387.763ZM90.1777 388.842C88.5781 388.842 87.6768 389.223 87.6768 389.946C87.6768 390.657 88.5781 391.038 90.1777 391.038C91.7774 391.038 92.6914 390.657 92.6914 389.946C92.6914 389.223 91.7774 388.842 90.1777 388.842ZM88.667 382.621C88.667 384.018 89.5938 385.427 91.3711 386.023L90.6602 387.141C89.3843 386.709 88.4766 385.833 87.9815 384.754C87.4736 385.979 86.5151 386.957 85.1504 387.445L84.4141 386.328C86.2549 385.693 87.2324 384.145 87.2324 382.634V382.545H84.8457V381.402H91.041V382.545H88.667V382.621ZM105.247 380.653V392.143H103.851V380.653H105.247ZM101.718 381.656V385.96H97.7695V388.271C99.5786 388.258 101.14 388.169 102.924 387.864L103.051 389.02C101.096 389.362 99.3818 389.426 97.3252 389.426H96.3223V384.843H100.283V382.799H96.3096V381.656H101.718ZM113.474 381.148C115.149 381.148 116.343 382.075 116.355 383.459C116.343 384.595 115.486 385.452 114.21 385.693V386.62C115.162 386.569 116.121 386.48 117.016 386.354L117.13 387.382C114.743 387.813 112.077 387.852 110.135 387.852L109.982 386.722C110.808 386.728 111.772 386.722 112.788 386.684V385.693C111.474 385.478 110.592 384.614 110.604 383.459C110.592 382.075 111.785 381.148 113.474 381.148ZM113.474 382.228C112.56 382.228 111.912 382.685 111.925 383.459C111.912 384.208 112.56 384.678 113.474 384.69C114.388 384.678 115.01 384.208 115.022 383.459C115.01 382.685 114.388 382.228 113.474 382.228ZM119.098 380.666V384.373H120.646V385.541H119.098V389.426H117.688V380.666H119.098ZM119.504 390.746V391.889H111.557V388.651H112.966V390.746H119.504ZM131.729 389.629V390.797H121.243V389.629H124.023V387.737H122.487V383.992H129.089V382.583H122.462V381.44H130.485V385.122H123.896V386.595H130.752V387.737H129.076V389.629H131.729ZM125.395 389.629H127.692V387.737H125.395V389.629ZM144.615 380.653V383.142H146.215V384.297H144.615V386.709H143.206V380.653H144.615ZM141.518 381.453C141.505 384.424 139.588 386.239 136.135 386.925L135.538 385.795C138.407 385.268 139.772 384.024 139.943 382.57H136.084V381.453H141.518ZM144.653 387.179V388.22H138.572V389.058H144.539V390.073H138.572V390.937H144.92V391.99H137.15V387.179H144.653ZM156.346 380.653V392.143H154.924V380.653H156.346ZM150.163 381.491C151.89 381.491 153.146 383.065 153.159 385.541C153.146 388.042 151.89 389.604 150.163 389.604C148.424 389.604 147.167 388.042 147.167 385.541C147.167 383.065 148.424 381.491 150.163 381.491ZM150.163 382.761C149.186 382.761 148.525 383.789 148.525 385.541C148.525 387.306 149.186 388.334 150.163 388.334C151.128 388.334 151.788 387.306 151.788 385.541C151.788 383.789 151.128 382.761 150.163 382.761ZM165.194 388.118C165.194 389.07 165.632 390.073 166.616 390.695C167.613 390.029 168.076 388.988 168.089 388.118V387.648H169.473V388.118C169.46 389.324 170.171 390.441 171.682 390.924L170.996 391.952C169.879 391.578 169.136 390.848 168.736 389.934C168.368 390.835 167.689 391.641 166.654 392.054C165.562 391.66 164.877 390.886 164.521 389.972C164.109 390.854 163.379 391.571 162.312 391.952L161.614 390.924C163.1 390.403 163.811 389.235 163.823 388.118V387.648H165.194V388.118ZM170.679 380.666V387.166H169.257V380.666H170.679ZM164.42 381.275C166.185 381.275 167.505 382.393 167.505 384.005C167.505 385.604 166.185 386.722 164.42 386.722C162.643 386.722 161.322 385.604 161.322 384.005C161.322 382.393 162.643 381.275 164.42 381.275ZM164.42 382.469C163.417 382.469 162.693 383.065 162.706 384.005C162.693 384.944 163.417 385.554 164.42 385.554C165.41 385.554 166.121 384.944 166.121 384.005C166.121 383.065 165.41 382.469 164.42 382.469ZM177.572 381.301C179.997 381.301 181.851 382.583 181.851 384.538C181.851 386.519 179.997 387.801 177.572 387.801C175.16 387.801 173.307 386.519 173.319 384.538C173.307 382.583 175.16 381.301 177.572 381.301ZM177.572 382.443C175.909 382.431 174.678 383.269 174.678 384.538C174.678 385.833 175.909 386.646 177.572 386.646C179.248 386.646 180.467 385.833 180.467 384.538C180.467 383.269 179.248 382.431 177.572 382.443ZM182.841 389.527V390.683H172.354V389.527H182.841ZM189.48 381.618V382.532H191.791V380.666H193.2V389.02H191.791V386.125H189.48V387.115H184.085V381.618H189.48ZM185.494 382.735V386.011H188.084V382.735H185.494ZM193.454 390.759V391.901H185.634V388.245H187.068V390.759H193.454ZM189.48 384.995H191.791V383.688H189.48V384.995ZM202.252 383.408C202.239 385.516 203.344 387.623 205.21 388.423L204.372 389.553C203.052 388.943 202.081 387.725 201.554 386.227C201.027 387.845 200.043 389.166 198.646 389.819L197.783 388.639C199.7 387.813 200.817 385.617 200.817 383.408V381.58H202.252V383.408ZM207.457 380.653V392.143H206.035V380.653H207.457ZM218.197 380.653V383.954H219.797V385.135H218.197V388.931H216.763V380.653H218.197ZM215.074 381.529C215.074 384.576 213.094 386.747 209.691 387.737L209.107 386.62C211.729 385.865 213.291 384.437 213.538 382.685H209.59V381.529H215.074ZM218.629 390.759V391.901H210.821V388.08H212.256V390.759H218.629ZM232.518 380.653V383.383H234.117V384.538H232.518V387.395H231.108V380.653H232.518ZM228.772 387.547C231.108 387.534 232.619 388.423 232.632 389.832C232.619 391.267 231.108 392.13 228.772 392.13C226.411 392.13 224.888 391.267 224.888 389.832C224.888 388.423 226.411 387.534 228.772 387.547ZM228.772 388.677C227.211 388.677 226.259 389.083 226.271 389.832C226.259 390.581 227.211 391 228.772 391C230.296 391 231.235 390.581 231.235 389.832C231.235 389.083 230.296 388.677 228.772 388.677ZM225.383 381.326V385.414C226.855 385.401 228.404 385.274 230.08 384.944L230.245 386.087C228.341 386.468 226.576 386.595 224.913 386.582H223.961V381.326H225.383ZM244.248 380.653V392.143H242.826V380.653H244.248ZM236.72 381.593V384.462H239.5V381.593H240.896V389.438H235.311V381.593H236.72ZM236.72 388.283H239.5V385.566H236.72V388.283ZM257.045 381.809V391H255.572L251.218 384.716H251.142V391H249.491V381.809H250.989L255.318 388.093H255.407V381.809H257.045ZM266.947 386.404C266.947 389.375 265.145 391.127 262.732 391.127C260.32 391.127 258.518 389.362 258.518 386.404C258.518 383.434 260.32 381.682 262.732 381.682C265.145 381.682 266.947 383.434 266.947 386.404ZM265.284 386.404C265.284 384.31 264.23 383.167 262.732 383.167C261.234 383.167 260.181 384.31 260.181 386.404C260.181 388.499 261.234 389.642 262.732 389.642C264.23 389.642 265.284 388.499 265.284 386.404Z" fill="#575A63"/>
<path d="M22.7505 13.081H18.3615V15.446H22.0575V16.579H18.3615V20.121H17.0415V11.937H22.7505V13.081ZM29.7221 13.081H25.2231V15.336H29.1501V16.48H25.2231V18.977H29.7221V20.121H23.9031V11.937H29.7221V13.081ZM31.7802 17.987C32.0442 18.3023 32.3522 18.559 32.7042 18.757C33.0635 18.9477 33.4082 19.043 33.7382 19.043C34.0682 19.043 34.3615 18.988 34.6182 18.878C34.8822 18.768 35.0838 18.6177 35.2232 18.427C35.3698 18.229 35.4432 18.0053 35.4432 17.756C35.4432 17.5433 35.3662 17.3637 35.2122 17.217C35.0655 17.0703 34.8785 16.953 34.6512 16.865C34.4312 16.7697 34.1195 16.6633 33.7162 16.546C33.1662 16.3847 32.7115 16.227 32.3522 16.073C32.0002 15.919 31.6958 15.688 31.4392 15.38C31.1898 15.0647 31.0652 14.654 31.0652 14.148C31.0652 13.708 31.1825 13.3157 31.4172 12.971C31.6518 12.6263 31.9818 12.3587 32.4072 12.168C32.8325 11.9773 33.3128 11.882 33.8482 11.882C34.3175 11.882 34.7868 11.9993 35.2562 12.234C35.7255 12.4613 36.1142 12.7583 36.4222 13.125L35.4542 13.895C35.2415 13.631 34.9885 13.4183 34.6952 13.257C34.4092 13.0957 34.1268 13.015 33.8482 13.015C33.4155 13.015 33.0635 13.1213 32.7922 13.334C32.5208 13.5467 32.3852 13.818 32.3852 14.148C32.3852 14.3753 32.4622 14.566 32.6162 14.72C32.7702 14.874 32.9608 14.9987 33.1882 15.094C33.4228 15.1893 33.7455 15.2993 34.1562 15.424C34.7135 15.6073 35.1608 15.776 35.4982 15.93C35.8428 16.084 36.1398 16.3113 36.3892 16.612C36.6385 16.9053 36.7632 17.2867 36.7632 17.756C36.7632 18.2253 36.6348 18.6433 36.3782 19.01C36.1215 19.3767 35.7622 19.6627 35.3002 19.868C34.8455 20.0733 34.3248 20.176 33.7382 20.176C33.2028 20.176 32.6638 20.0477 32.1212 19.791C31.5858 19.5343 31.1458 19.1933 30.8012 18.768L31.7802 17.987ZM43.5617 13.081H41.1967V20.121H39.8767V13.081H37.4897V11.937H43.5617V13.081ZM46.152 11.937V20.121H44.832V11.937H46.152ZM52.2486 20.121H50.7196L47.2766 11.937H48.7066L51.4676 18.68L54.0636 11.937H55.4826L52.2486 20.121ZM63.1653 20.121H61.7353L60.8443 17.954H57.2033L56.3013 20.121H54.8713L58.2813 11.937H59.8103L63.1653 20.121ZM60.3823 16.81L59.0403 13.543L57.6763 16.81H60.3823ZM65.5841 18.977H69.5441V20.121H64.2641V11.937H65.5841V18.977ZM79.2365 13.081H76.8715V20.121H75.5515V13.081H73.1645V11.937H79.2365V13.081ZM84.5838 16.92V20.121H83.2638V16.92L80.0188 11.937H81.5918L83.9238 15.688L86.2558 11.937H87.8288L84.5838 16.92ZM92.209 16.238C92.495 16.238 92.7443 16.1757 92.957 16.051C93.177 15.919 93.3457 15.732 93.463 15.49C93.5803 15.248 93.639 14.9693 93.639 14.654C93.639 14.1847 93.507 13.807 93.243 13.521C92.9863 13.2277 92.638 13.081 92.198 13.081H90.141V16.238H92.209ZM92.242 11.937C92.77 11.937 93.2393 12.0543 93.65 12.289C94.0607 12.5163 94.3797 12.839 94.607 13.257C94.8417 13.6677 94.959 14.1333 94.959 14.654C94.959 15.1893 94.8417 15.6623 94.607 16.073C94.3797 16.4837 94.0607 16.8063 93.65 17.041C93.2393 17.2683 92.7737 17.382 92.253 17.382H90.141V20.121H88.821V11.937H92.242ZM101.749 13.081H97.2495V15.336H101.177V16.48H97.2495V18.977H101.749V20.121H95.9295V11.937H101.749V13.081ZM111.431 13.081H109.066V20.121H107.746V13.081H105.359V11.937H111.431V13.081ZM118.324 13.081H113.825V15.336H117.752V16.48H113.825V18.977H118.324V20.121H112.505V11.937H118.324V13.081ZM120.382 17.987C120.646 18.3023 120.954 18.559 121.306 18.757C121.665 18.9477 122.01 19.043 122.34 19.043C122.67 19.043 122.963 18.988 123.22 18.878C123.484 18.768 123.685 18.6177 123.825 18.427C123.971 18.229 124.045 18.0053 124.045 17.756C124.045 17.5433 123.968 17.3637 123.814 17.217C123.667 17.0703 123.48 16.953 123.253 16.865C123.033 16.7697 122.721 16.6633 122.318 16.546C121.768 16.3847 121.313 16.227 120.954 16.073C120.602 15.919 120.297 15.688 120.041 15.38C119.791 15.0647 119.667 14.654 119.667 14.148C119.667 13.708 119.784 13.3157 120.019 12.971C120.253 12.6263 120.583 12.3587 121.009 12.168C121.434 11.9773 121.914 11.882 122.45 11.882C122.919 11.882 123.388 11.9993 123.858 12.234C124.327 12.4613 124.716 12.7583 125.024 13.125L124.056 13.895C123.843 13.631 123.59 13.4183 123.297 13.257C123.011 13.0957 122.728 13.015 122.45 13.015C122.017 13.015 121.665 13.1213 121.394 13.334C121.122 13.5467 120.987 13.818 120.987 14.148C120.987 14.3753 121.064 14.566 121.218 14.72C121.372 14.874 121.562 14.9987 121.79 15.094C122.024 15.1893 122.347 15.2993 122.758 15.424C123.315 15.6073 123.762 15.776 124.1 15.93C124.444 16.084 124.741 16.3113 124.991 16.612C125.24 16.9053 125.365 17.2867 125.365 17.756C125.365 18.2253 125.236 18.6433 124.98 19.01C124.723 19.3767 124.364 19.6627 123.902 19.868C123.447 20.0733 122.926 20.176 122.34 20.176C121.804 20.176 121.265 20.0477 120.723 19.791C120.187 19.5343 119.747 19.1933 119.403 18.768L120.382 17.987ZM132.163 13.081H129.798V20.121H128.478V13.081H126.091V11.937H132.163V13.081Z" fill="#D5D5DE"/>
<path d="M19 330L302 330" stroke="#E6E6EB" stroke-width="2" stroke-linecap="round" stroke-dasharray="6 6"/>
<path d="M64.6572 290.58V292.06H59.4863V293.217H63.1777V297.333H61.3174V294.696H53.8467V293.217H57.6406V292.06H52.499V290.58H64.6572ZM59.4863 284.032V285.233H63.4854V286.684H59.6328C59.8452 287.643 61.2002 288.507 64.1152 288.705L63.544 290.097C61.0977 289.928 59.3984 289.225 58.5635 288.148C57.7212 289.225 56.022 289.928 53.583 290.097L53.0117 288.705C55.9121 288.507 57.2671 287.643 57.4941 286.684H53.6709V285.233H57.6406V284.032H59.4863ZM76.9912 284.018V297.348H75.2188V284.018H76.9912ZM74.2666 284.237V296.732H72.5088V290.097H70.751V288.588H72.5088V284.237H74.2666ZM69.6816 287.592C69.6816 289.804 70.3701 292.045 72.3184 293.158L71.2197 294.535C70.0332 293.832 69.2495 292.638 68.8027 291.21C68.3413 292.763 67.5357 294.081 66.3125 294.828L65.1846 293.451C67.1475 292.25 67.8799 289.848 67.8799 287.592V286.874H65.6973V285.38H71.7031V286.874H69.6816V287.592ZM90.6143 289.994V291.386H78.4121V289.994H90.6143ZM89.1494 292.045V295.194H81.6787V295.956H89.5449V297.23H79.8184V294.008H87.3037V293.334H79.8037V292.045H89.1494ZM89.1348 284.252V287.387H81.7959V288.104H89.3691V289.364H79.9356V286.2H87.2598V285.526H79.9063V284.252H89.1348ZM98.8613 284.56C100.81 284.56 102.216 285.658 102.216 287.27C102.216 288.573 101.256 289.569 99.8281 289.877V290.844C100.868 290.785 101.916 290.69 102.89 290.551L103.036 291.913C100.297 292.396 97.2354 292.455 95.0088 292.455L94.8184 290.976C95.7412 290.976 96.8179 290.968 97.9531 290.932V289.892C96.481 289.599 95.4922 288.595 95.5068 287.27C95.4922 285.658 96.8984 284.56 98.8613 284.56ZM98.8613 285.966C97.9092 285.98 97.2354 286.435 97.25 287.27C97.2354 288.075 97.9092 288.559 98.8613 288.559C99.8135 288.559 100.458 288.075 100.458 287.27C100.458 286.435 99.8135 285.98 98.8613 285.966ZM105.512 284.032V288.222H107.211V289.774H105.512V294.198H103.637V284.032H105.512ZM105.966 295.604V297.099H96.5762V293.305H98.4512V295.604H105.966ZM110.258 284.794V286.684H112.88V284.794H114.726V285.98H117.187V284.018H119.047V291.972H117.187V290.229H114.726V291.356H108.383V284.794H110.258ZM110.258 289.848H112.88V288.119H110.258V289.848ZM119.047 292.543V297.348H117.187V294.037H109.892V292.543H119.047ZM114.726 288.72H117.187V287.475H114.726V288.72ZM131.293 284.018V289.232H133.256V290.771H131.293V297.348H129.447V284.018H131.293ZM128.539 286.01V287.504H120.702V286.01H123.72V284.223H125.595V286.01H128.539ZM124.657 288.251C126.605 288.251 128.056 289.569 128.056 291.43C128.056 293.29 126.605 294.608 124.657 294.608C122.694 294.608 121.244 293.29 121.244 291.43C121.244 289.569 122.694 288.251 124.657 288.251ZM124.657 289.76C123.72 289.774 123.031 290.404 123.031 291.43C123.031 292.47 123.72 293.085 124.657 293.07C125.595 293.085 126.269 292.47 126.269 291.43C126.269 290.404 125.595 289.774 124.657 289.76ZM145.297 284.018V297.348H143.539V284.018H145.297ZM142.455 284.311V296.762H140.712V290.639H138.529C137.768 292.162 136.53 293.48 134.633 294.579L133.578 293.261C136.266 291.664 137.453 289.723 137.709 287.108H134.311V285.6H139.569C139.562 286.867 139.43 288.061 139.115 289.159H140.712V284.311H142.455ZM162.318 289.438V290.917H150.16V289.438H162.318ZM160.839 291.649V295.048H153.412V295.854H161.19V297.26H151.581V293.744H158.993V293.012H151.566V291.649H160.839ZM161.22 284.442V285.907H157.47C157.88 286.72 159.286 287.489 161.791 287.636L161.205 289.071C158.737 288.888 157.03 288.112 156.225 286.991C155.426 288.104 153.734 288.888 151.288 289.071L150.702 287.636C153.185 287.489 154.577 286.72 154.994 285.907H151.273V284.442H161.22ZM174.33 284.018V297.348H172.44V284.018H174.33ZM170.331 285.409C170.331 289.452 168.91 292.807 164.149 295.063L163.168 293.568C166.61 291.942 168.126 289.833 168.427 286.874H163.886V285.409H170.331ZM186.913 287.65V289.115H177.597V284.486H179.457V287.65H186.913ZM188.275 290.551V292.016H176.073V290.551H188.275ZM187.001 295.561V297.055H177.479V293.1H179.354V295.561H187.001Z" fill="#3A3C42"/>
<path d="M204.066 284.018V297.348H202.309V284.018H204.066ZM201.283 284.311V296.762H199.511V292.367H197.621V290.858H199.511V289.042H197.87C197.248 291.239 195.9 293.1 193.402 294.579L192.304 293.261C195.006 291.664 196.193 289.723 196.449 287.108H193.08V285.6H198.31C198.31 286.266 198.266 286.911 198.192 287.533H199.511V284.311H201.283ZM213.837 284.999V286.361H205.927V284.999H208.944V283.93H210.805V284.999H213.837ZM209.882 286.669C211.859 286.669 213.207 287.445 213.222 288.69C213.207 289.708 212.27 290.404 210.805 290.609V291.239C211.874 291.195 212.943 291.115 213.954 290.99L214.086 292.235C211.244 292.733 208.124 292.777 205.78 292.777L205.531 291.356C206.564 291.356 207.729 291.349 208.944 291.313V290.609C207.458 290.404 206.527 289.708 206.542 288.69C206.527 287.445 207.86 286.669 209.882 286.669ZM209.882 287.914C208.93 287.914 208.344 288.163 208.344 288.69C208.344 289.174 208.93 289.423 209.882 289.423C210.79 289.423 211.42 289.174 211.42 288.69C211.42 288.163 210.79 287.914 209.882 287.914ZM216.679 284.047V293.041H214.774V284.047H216.679ZM216.679 293.568V297.348H214.774V295.004H207.406V293.568H216.679ZM226.039 285.248V286.742H224.853V292.558C225.395 292.514 225.922 292.462 226.435 292.396L226.537 293.744C223.812 294.228 220.751 294.271 218.466 294.286L218.261 292.763L219.784 292.748V286.742H218.598V285.248H226.039ZM228.954 284.018V289.086H230.917V290.609H228.954V297.348H227.079V284.018H228.954ZM221.586 292.719L223.051 292.66V286.742H221.586V292.719ZM237.084 285.395V288.866H238.417V284.208H240.175V296.732H238.417V290.36H237.084V293.993H231.781V285.395H237.084ZM233.524 286.874V292.528H235.341V286.874H233.524ZM242.958 284.018V297.348H241.171V284.018H242.958ZM255.526 284.018V297.377H253.637V284.018H255.526ZM248.29 284.955C250.297 284.955 251.791 286.801 251.791 289.701C251.791 292.631 250.297 294.462 248.29 294.462C246.239 294.462 244.745 292.631 244.76 289.701C244.745 286.801 246.239 284.955 248.29 284.955ZM248.29 286.64C247.25 286.64 246.562 287.724 246.562 289.701C246.562 291.693 247.25 292.763 248.29 292.763C249.301 292.763 249.989 291.693 249.989 289.701C249.989 287.724 249.301 286.64 248.29 286.64ZM268.197 290.902V292.382H258.764V284.999H268.095V286.508H260.668V287.914H267.787V289.379H260.668V290.902H268.197ZM269.53 294.271V295.795H257.328V294.271H269.53Z" fill="#FF6F61"/>
<ellipse cx="160.119" cy="239.852" rx="59.1187" ry="12.8519" fill="#F3F3F6"/>
<mask id="path-18-outside-2_890_3350" maskUnits="userSpaceOnUse" x="214.75" y="69" width="22" height="21" fill="black">
<rect fill="white" x="214.75" y="69" width="22" height="21"/>
<path fill-rule="evenodd" clip-rule="evenodd" d="M234.742 71.3599C234.742 71.1611 234.581 71 234.382 71L217.109 71C216.911 71 216.75 71.1611 216.75 71.3599L216.75 76.0379C216.75 76.2367 216.911 76.3978 217.109 76.3978L222.533 76.3978V87.0219C222.533 87.2585 222.677 87.4503 222.854 87.4503H228.638C228.815 87.4503 228.959 87.2585 228.959 87.0219V76.3978L234.382 76.3978C234.581 76.3978 234.742 76.2367 234.742 76.0379V71.3599Z"/>
</mask>
<path fill-rule="evenodd" clip-rule="evenodd" d="M234.742 71.3599C234.742 71.1611 234.581 71 234.382 71L217.109 71C216.911 71 216.75 71.1611 216.75 71.3599L216.75 76.0379C216.75 76.2367 216.911 76.3978 217.109 76.3978L222.533 76.3978V87.0219C222.533 87.2585 222.677 87.4503 222.854 87.4503H228.638C228.815 87.4503 228.959 87.2585 228.959 87.0219V76.3978L234.382 76.3978C234.581 76.3978 234.742 76.2367 234.742 76.0379V71.3599Z" fill="#6C0A00"/>
<path d="M234.382 71V69V71ZM217.109 71L217.109 73L217.109 71ZM216.75 71.3599L214.75 71.3599L216.75 71.3599ZM216.75 76.0379H218.75H216.75ZM217.109 76.3978L217.109 74.3978H217.109V76.3978ZM222.533 76.3978H224.533V74.3978L222.533 74.3978V76.3978ZM228.959 76.3978L228.959 74.3978H226.959V76.3978H228.959ZM234.382 76.3978V78.3978V76.3978ZM234.382 73C233.476 73 232.742 72.2657 232.742 71.3599H236.742C236.742 70.0565 235.686 69 234.382 69V73ZM217.109 73L234.382 73V69L217.109 69L217.109 73ZM218.75 71.3599C218.75 72.2657 218.015 73 217.109 73L217.109 69C215.806 69 214.75 70.0565 214.75 71.3599L218.75 71.3599ZM218.75 76.0379L218.75 71.3599L214.75 71.3599L214.75 76.0379H218.75ZM217.109 74.3978C218.015 74.3978 218.75 75.1321 218.75 76.0379H214.75C214.75 77.3413 215.806 78.3978 217.109 78.3978V74.3978ZM222.533 74.3978L217.109 74.3978L217.109 78.3978L222.533 78.3978V74.3978ZM224.533 87.0219V76.3978H220.533V87.0219H224.533ZM222.854 85.4503C223.536 85.4503 224.001 85.8235 224.227 86.1248C224.453 86.4255 224.533 86.7493 224.533 87.0219H220.533C220.533 87.5311 220.685 88.0691 221.027 88.5248C221.369 88.9812 221.995 89.4503 222.854 89.4503V85.4503ZM228.638 85.4503H222.854V89.4503H228.638V85.4503ZM226.959 87.0219C226.959 86.7493 227.039 86.4255 227.265 86.1248C227.491 85.8235 227.956 85.4503 228.638 85.4503V89.4503C229.497 89.4503 230.122 88.9812 230.465 88.5248C230.807 88.0691 230.959 87.5311 230.959 87.0219H226.959ZM226.959 76.3978V87.0219H230.959V76.3978H226.959ZM234.382 74.3978L228.959 74.3978L228.959 78.3978L234.382 78.3978V74.3978ZM232.742 76.0379C232.742 75.1321 233.476 74.3978 234.382 74.3978V78.3978C235.686 78.3978 236.742 77.3413 236.742 76.0379H232.742ZM232.742 71.3599V76.0379H236.742V71.3599H232.742Z" fill="black" mask="url(#path-18-outside-2_890_3350)"/>
<path d="M249.922 110.493C249.922 124.121 238.874 135.169 225.246 135.169C211.618 135.169 200.571 124.121 200.571 110.493C200.571 96.8653 211.618 85.8176 225.246 85.8176C238.874 85.8176 249.922 96.8653 249.922 110.493Z" fill="white" stroke="black" stroke-width="2"/>
<path d="M225.246 82.2473C240.846 82.2474 253.492 94.8936 253.492 110.493C253.492 126.093 240.846 138.739 225.246 138.74C209.646 138.74 197 126.093 197 110.493C197 94.8936 209.646 82.2473 225.246 82.2473ZM225.246 89.3879C213.59 89.3879 204.141 98.8373 204.141 110.493C204.141 122.149 213.59 131.599 225.246 131.599C236.902 131.599 246.352 122.149 246.352 110.493C246.352 98.8373 236.902 89.388 225.246 89.3879Z" fill="#FF998F" stroke="black" stroke-width="2"/>
<mask id="path-22-outside-3_890_3350" maskUnits="userSpaceOnUse" x="214.119" y="98" width="17" height="21" fill="black">
<rect fill="white" x="214.119" y="98" width="17" height="21"/>
<path fill-rule="evenodd" clip-rule="evenodd" d="M228.203 101.662C228.203 100.744 227.458 100 226.54 100C225.622 100 224.878 100.744 224.878 101.662L224.878 112.097L219.606 109.085C218.809 108.63 217.794 108.907 217.338 109.704C216.883 110.501 217.16 111.517 217.957 111.972L225.703 116.398C225.81 116.461 225.924 116.511 226.044 116.549C226.244 116.612 226.45 116.635 226.653 116.621C227.518 116.563 228.203 115.842 228.203 114.962L228.203 101.662Z"/>
</mask>
<path fill-rule="evenodd" clip-rule="evenodd" d="M228.203 101.662C228.203 100.744 227.458 100 226.54 100C225.622 100 224.878 100.744 224.878 101.662L224.878 112.097L219.606 109.085C218.809 108.63 217.794 108.907 217.338 109.704C216.883 110.501 217.16 111.517 217.957 111.972L225.703 116.398C225.81 116.461 225.924 116.511 226.044 116.549C226.244 116.612 226.45 116.635 226.653 116.621C227.518 116.563 228.203 115.842 228.203 114.962L228.203 101.662Z" fill="#FF6F61"/>
<path d="M228.203 101.662H226.203V101.662L228.203 101.662ZM224.878 101.662H222.878V101.662L224.878 101.662ZM224.878 112.097L223.885 113.834L226.878 115.544V112.097H224.878ZM219.606 109.085L218.614 110.822L218.614 110.822L219.606 109.085ZM217.338 109.704L215.602 108.712L215.602 108.712L217.338 109.704ZM217.957 111.972L218.949 110.236H218.949L217.957 111.972ZM225.703 116.398L226.712 114.671L226.703 114.667L226.695 114.662L225.703 116.398ZM226.044 116.549L226.642 114.64L226.64 114.64L226.044 116.549ZM226.653 116.621L226.519 114.625L226.515 114.625L226.653 116.621ZM228.203 114.962H230.203H228.203ZM226.54 102C226.354 102 226.203 101.849 226.203 101.662H230.203C230.203 99.6397 228.563 98 226.54 98V102ZM226.878 101.662C226.878 101.849 226.727 102 226.54 102V98C224.517 98 222.878 99.6397 222.878 101.662H226.878ZM226.878 112.097L226.878 101.662L222.878 101.662L222.878 112.097H226.878ZM218.614 110.822L223.885 113.834L225.87 110.361L220.599 107.349L218.614 110.822ZM219.075 110.696C218.982 110.858 218.776 110.914 218.614 110.822L220.599 107.349C218.842 106.345 216.605 106.955 215.602 108.712L219.075 110.696ZM218.949 110.236C219.111 110.328 219.167 110.534 219.075 110.696L215.602 108.712C214.598 110.468 215.208 112.705 216.965 113.709L218.949 110.236ZM226.695 114.662L218.949 110.236L216.965 113.709L224.711 118.135L226.695 114.662ZM226.64 114.64C226.666 114.648 226.69 114.659 226.712 114.671L224.694 118.125C224.929 118.263 225.182 118.375 225.448 118.458L226.64 114.64ZM226.515 114.625C226.556 114.622 226.599 114.627 226.642 114.64L225.446 118.457C225.889 118.596 226.345 118.647 226.791 118.616L226.515 114.625ZM226.203 114.962C226.203 114.782 226.342 114.637 226.519 114.625L226.787 118.616C228.695 118.488 230.203 116.902 230.203 114.962H226.203ZM226.203 101.662L226.203 114.962H230.203L230.203 101.662L226.203 101.662Z" fill="black" mask="url(#path-22-outside-3_890_3350)"/>
<path fill-rule="evenodd" clip-rule="evenodd" d="M203.067 165.654C209.861 160.242 214.215 151.898 214.215 142.537C214.215 126.224 200.991 113 184.677 113C175.86 113 167.945 116.864 162.533 122.99C157.121 116.864 149.206 113 140.388 113C124.075 113 110.851 126.224 110.851 142.537C110.851 151.898 115.205 160.242 121.999 165.654C115.205 171.065 110.851 179.409 110.851 188.77C110.851 205.083 124.075 218.307 140.388 218.307C141.628 218.307 142.851 218.231 144.051 218.083V225.508C141.296 225.691 135.786 227.712 135.786 234.323C135.97 236.16 137.439 239.833 141.847 239.833H158.376V212.2C159.883 211.041 161.276 209.74 162.533 208.317C163.787 209.736 165.175 211.034 166.677 212.191V239.833H183.206C187.614 239.833 189.083 236.16 189.267 234.323C189.267 227.712 183.757 225.691 181.002 225.508V218.081C182.206 218.23 183.433 218.307 184.677 218.307C200.991 218.307 214.215 205.083 214.215 188.77C214.215 179.409 209.861 171.065 203.067 165.654Z" fill="#FFE6E4"/>
<path d="M203.067 165.654L202.444 164.871L201.462 165.654L202.444 166.436L203.067 165.654ZM162.533 122.99L161.783 123.652L162.533 124.501L163.282 123.652L162.533 122.99ZM121.999 165.654L122.622 166.436L123.604 165.654L122.622 164.872L121.999 165.654ZM144.051 218.083H145.051V216.951L143.928 217.09L144.051 218.083ZM144.051 225.508L144.117 226.505L145.051 226.443V225.508H144.051ZM135.786 234.323H134.786V234.373L134.791 234.423L135.786 234.323ZM158.376 239.833V240.833H159.376V239.833H158.376ZM158.376 212.2L157.767 211.407L157.376 211.708V212.2H158.376ZM162.533 208.317L163.282 207.655L162.533 206.807L161.783 207.655L162.533 208.317ZM166.677 212.191H167.677V211.698L167.287 211.398L166.677 212.191ZM166.677 239.833H165.677V240.833H166.677V239.833ZM189.267 234.323L190.262 234.423L190.267 234.373V234.323H189.267ZM181.002 225.508H180.002V226.443L180.936 226.506L181.002 225.508ZM181.002 218.081L181.126 217.089L180.002 216.949V218.081H181.002ZM213.215 142.537C213.215 151.581 209.01 159.641 202.444 164.871L203.69 166.436C210.712 160.843 215.215 152.216 215.215 142.537H213.215ZM184.677 114C200.438 114 213.215 126.777 213.215 142.537H215.215C215.215 125.672 201.543 112 184.677 112V114ZM163.282 123.652C168.513 117.731 176.159 114 184.677 114V112C175.561 112 167.377 115.996 161.783 122.328L163.282 123.652ZM140.388 114C148.907 114 156.553 117.731 161.783 123.652L163.282 122.328C157.688 115.996 149.504 112 140.388 112V114ZM111.851 142.537C111.851 126.777 124.627 114 140.388 114V112C123.523 112 109.851 125.672 109.851 142.537H111.851ZM122.622 164.872C116.056 159.641 111.851 151.581 111.851 142.537H109.851C109.851 152.216 114.354 160.843 121.376 166.436L122.622 164.872ZM111.851 188.77C111.851 179.727 116.056 171.666 122.622 166.436L121.376 164.872C114.354 170.465 109.851 179.092 109.851 188.77H111.851ZM140.388 217.307C124.627 217.307 111.851 204.531 111.851 188.77H109.851C109.851 205.635 123.523 219.307 140.388 219.307V217.307ZM143.928 217.09C142.769 217.234 141.587 217.307 140.388 217.307V219.307C141.669 219.307 142.933 219.228 144.174 219.075L143.928 217.09ZM143.051 218.083V225.508H145.051V218.083H143.051ZM143.984 224.51C142.446 224.612 140.176 225.217 138.267 226.719C136.317 228.253 134.786 230.695 134.786 234.323H136.786C136.786 231.34 138.011 229.466 139.504 228.291C141.038 227.084 142.901 226.587 144.117 226.505L143.984 224.51ZM134.791 234.423C134.899 235.501 135.372 237.075 136.459 238.401C137.577 239.764 139.323 240.833 141.847 240.833V238.833C139.963 238.833 138.77 238.065 138.006 237.133C137.211 236.163 136.857 234.982 136.781 234.224L134.791 234.423ZM141.847 240.833H158.376V238.833H141.847V240.833ZM159.376 239.833V212.2H157.376V239.833H159.376ZM161.783 207.655C160.569 209.03 159.223 210.288 157.767 211.407L158.986 212.993C160.544 211.795 161.983 210.45 163.282 208.979L161.783 207.655ZM167.287 211.398C165.835 210.281 164.494 209.027 163.282 207.655L161.783 208.979C163.079 210.446 164.514 211.788 166.067 212.983L167.287 211.398ZM167.677 239.833V212.191H165.677V239.833H167.677ZM183.206 238.833H166.677V240.833H183.206V238.833ZM188.272 234.224C188.196 234.982 187.843 236.163 187.048 237.133C186.283 238.066 185.09 238.833 183.206 238.833V240.833C185.73 240.833 187.476 239.764 188.594 238.401C189.682 237.075 190.154 235.501 190.262 234.423L188.272 234.224ZM180.936 226.506C182.153 226.587 184.015 227.084 185.55 228.291C187.043 229.466 188.267 231.34 188.267 234.323H190.267C190.267 230.696 188.737 228.254 186.786 226.719C184.877 225.217 182.607 224.613 181.069 224.51L180.936 226.506ZM180.002 218.081V225.508H182.002V218.081H180.002ZM184.677 217.307C183.474 217.307 182.289 217.233 181.126 217.089L180.879 219.073C182.124 219.228 183.392 219.307 184.677 219.307V217.307ZM213.215 188.77C213.215 204.531 200.438 217.307 184.677 217.307V219.307C201.543 219.307 215.215 205.635 215.215 188.77H213.215ZM202.444 166.436C209.01 171.666 213.215 179.726 213.215 188.77H215.215C215.215 179.092 210.712 170.465 203.69 164.871L202.444 166.436Z" fill="black"/>
<path d="M166.424 136.768C163.338 140.047 155.726 145.083 149.965 138.988C142.763 131.37 154.754 127.997 155.863 134.942C156.786 140.724 152.86 146.475 145.546 144.002C144.19 143.544 141.151 142.128 139.989 138.886" stroke="#FF6F61" stroke-width="2" stroke-linecap="round"/>
<ellipse cx="141.304" cy="158.035" rx="4.46683" ry="5.95577" fill="black"/>
<ellipse cx="165.118" cy="158.035" rx="4.46683" ry="5.95577" fill="black"/>
<ellipse cx="153.208" cy="163.988" rx="2.97789" ry="4.46683" transform="rotate(90 153.208 163.988)" fill="black"/>
<path d="M168.967 173.404C168.967 172.694 168.392 172.119 167.682 172.119H109.145C108.435 172.119 107.86 172.694 107.86 173.404V221.004H147.822C148.532 221.004 149.101 221.584 149.24 222.28C149.772 224.948 152.027 228.643 158.273 228.643C165.49 228.643 168.367 223.71 168.941 221.127C168.959 221.044 168.967 220.962 168.967 220.877V173.404Z" fill="white"/>
<path d="M158.273 228.643C152.027 228.643 149.772 224.948 149.24 222.28C149.101 221.584 148.532 221.004 147.822 221.004H107.86H89.2852C88.5754 221.004 87.9954 221.581 88.0892 222.285C88.4448 224.953 89.9494 228.643 94.1107 228.643H158.273Z" fill="white"/>
<path d="M158.273 228.643C165.49 228.643 168.367 223.71 168.941 221.127C168.959 221.044 168.967 220.962 168.967 220.877V173.404C168.967 172.694 168.392 172.119 167.682 172.119H109.145C108.435 172.119 107.86 172.694 107.86 173.404V221.004M158.273 228.643C152.027 228.643 149.772 224.948 149.24 222.28C149.101 221.584 148.532 221.004 147.822 221.004H107.86M158.273 228.643H94.1107C89.9494 228.643 88.4448 224.953 88.0892 222.285C87.9954 221.581 88.5754 221.004 89.2852 221.004H107.86" stroke="black" stroke-width="2" stroke-linecap="round"/>
<circle cx="109.206" cy="186.898" r="10.9241" fill="#FFE6E4" stroke="black" stroke-width="2"/>
<path d="M173.472 179.058L180.788 174.718C184.902 179.184 185.848 190.602 181.911 194.482C178.331 198.01 175.147 198.25 168.812 199.803C165.706 200.383 159.146 199.68 157.753 192.225C156.36 184.771 162.214 181.227 165.315 180.387C167.71 175.352 171.751 177.404 173.472 179.058Z" fill="#FFE6E4"/>
<path d="M181.819 194.609C177.505 197.188 173.402 199.307 169.192 200.094C166.086 200.674 159.146 199.68 157.753 192.225C156.36 184.771 162.214 181.227 165.315 180.387C167.71 175.352 171.751 177.403 173.472 179.058L179.301 175.764" stroke="black" stroke-width="2"/>
<path d="M65.1941 110.991C68.4391 118.61 78.167 136.474 86.1246 144.251L84.3618 151.02C84.1829 151.707 83.4811 152.119 82.7942 151.94L77.3603 150.525C69.4722 142.481 61.3432 125.097 58.5631 118.431L65.1941 110.991Z" fill="#FF6F61"/>
<path d="M77.3603 150.525L76.2852 154.653C76.1479 155.181 75.693 155.564 75.15 155.61L69.8584 156.058C62.6405 146.811 48.0063 126.338 47.2133 118.431L58.5631 118.431C61.3432 125.097 69.4722 142.481 77.3603 150.525Z" fill="#FF6F61"/>
<path d="M82.7942 151.94C83.4811 152.119 84.1829 151.707 84.3618 151.02L86.1246 144.251C86.3476 146.77 86.665 149.022 87.0396 151.681C87.2242 152.99 87.4226 154.398 87.6304 155.985C86.2265 157.948 83.2404 161.852 82.5271 161.759C78.0748 161.24 72.8943 159.694 69.8584 156.058L75.15 155.61C75.693 155.564 76.1479 155.181 76.2852 154.653L77.3603 150.525L82.7942 151.94Z" fill="white"/>
<path d="M47.2133 118.431L51.2609 109.846C51.4102 109.529 51.6822 109.287 52.014 109.175L60.9473 106.174C61.5056 105.986 62.12 106.202 62.4382 106.698L65.1941 110.991L58.5631 118.431L47.2133 118.431Z" fill="white"/>
<path d="M87.6304 155.985C87.8113 157.365 87.9992 158.881 88.1914 160.585C88.2722 161.303 87.7431 161.945 87.0214 161.965C85.7196 162.001 84.1731 161.95 82.5271 161.759C83.2404 161.852 86.2265 157.948 87.6304 155.985Z" fill="black"/>
<path d="M65.1941 110.991C68.4391 118.61 78.167 136.474 86.1246 144.251M65.1941 110.991L62.4382 106.698C62.12 106.202 61.5056 105.986 60.9473 106.174L52.014 109.175C51.6822 109.287 51.4102 109.529 51.2609 109.846L47.2133 118.431M65.1941 110.991L58.5631 118.431M86.1246 144.251L84.3618 151.02C84.1829 151.707 83.4811 152.119 82.7942 151.94L77.3603 150.525M86.1246 144.251C86.3476 146.77 86.665 149.022 87.0396 151.681C87.2242 152.99 87.4226 154.398 87.6304 155.985M77.3603 150.525L76.2852 154.653C76.1479 155.181 75.693 155.564 75.15 155.61L69.8584 156.058M77.3603 150.525C69.4722 142.481 61.3432 125.097 58.5631 118.431M69.8584 156.058C62.6405 146.811 48.0063 126.338 47.2133 118.431M69.8584 156.058C72.8943 159.694 78.0748 161.24 82.5271 161.759M47.2133 118.431L58.5631 118.431M87.6304 155.985C87.8113 157.365 87.9992 158.881 88.1914 160.585C88.2722 161.303 87.7431 161.945 87.0214 161.965C85.7196 162.001 84.1731 161.95 82.5271 161.759M87.6304 155.985C86.2265 157.948 83.2404 161.852 82.5271 161.759" stroke="black" stroke-width="2"/>
<ellipse cx="2.57038" cy="1.45653" rx="2.57038" ry="1.45653" transform="matrix(-0.817326 0.576175 0.576175 0.817326 56.8821 109.478)" fill="black"/>
<path d="M61.7761 100.996L61.1335 92" stroke="black" stroke-width="2" stroke-linecap="round"/>
<path d="M66.2743 102.282L71.415 93.2853" stroke="black" stroke-width="2" stroke-linecap="round"/>
</svg>
