<svg width="40" height="40" viewBox="0 0 40 40" fill="none" xmlns="http://www.w3.org/2000/svg">
<mask id="mask0_1913_10229" style="mask-type:luminance" maskUnits="userSpaceOnUse" x="1" y="1" width="38" height="38">
<path d="M20.0007 36.6667C22.1898 36.6694 24.3578 36.2395 26.3803 35.4018C28.4027 34.564 30.2397 33.3349 31.7857 31.785C33.3355 30.2391 34.5646 28.4021 35.4024 26.3796C36.2402 24.3572 36.67 22.1891 36.6673 20C36.67 17.8109 36.2402 15.6429 35.4024 13.6204C34.5646 11.598 33.3355 9.76101 31.7857 8.21503C30.2397 6.66516 28.4027 5.43605 26.3803 4.59829C24.3578 3.76054 22.1898 3.33066 20.0007 3.33336C17.8116 3.33066 15.6435 3.76054 13.6211 4.59829C11.5986 5.43605 9.76164 6.66516 8.21566 8.21503C6.6658 9.76101 5.43668 11.598 4.59893 13.6204C3.76117 15.6429 3.3313 17.8109 3.334 20C3.3313 22.1891 3.76117 24.3572 4.59893 26.3796C5.43668 28.4021 6.6658 30.2391 8.21566 31.785C9.76164 33.3349 11.5986 34.564 13.6211 35.4018C15.6435 36.2395 17.8116 36.6694 20.0007 36.6667Z" fill="white" stroke="white" stroke-width="3.33333" stroke-linejoin="round"/>
<path d="M13.334 20L18.334 25L28.334 15" stroke="black" stroke-width="3.33333" stroke-linecap="round" stroke-linejoin="round"/>
</mask>
<g mask="url(#mask0_1913_10229)">
<path d="M0 7.62939e-06H40V40H0V7.62939e-06Z" fill="#FF6F61"/>
</g>
</svg>
