<svg width="25" height="25" viewBox="0 0 25 25" fill="none" xmlns="http://www.w3.org/2000/svg">
<g clip-path="url(#clip0_1913_10357)">
<path d="M24 12.5C24 18.8513 18.8513 24 12.5 24C6.14873 24 1 18.8513 1 12.5C1 6.14873 6.14873 1 12.5 1C18.8513 1 24 6.14873 24 12.5Z" fill="white"/>
<path fill-rule="evenodd" clip-rule="evenodd" d="M10.2221 0.207246C10.9614 0.071043 11.7228 0 12.5 0C13.2772 0 14.0386 0.0710428 14.7779 0.207246C15.3211 0.307306 15.6803 0.828726 15.5802 1.37187C15.4802 1.91502 14.9587 2.27421 14.4156 2.17415C13.7952 2.05986 13.155 2 12.5 2C11.845 2 11.2048 2.05986 10.5844 2.17415C10.0413 2.27421 9.51985 1.91502 9.41979 1.37187C9.31973 0.828727 9.67892 0.307306 10.2221 0.207246ZM18.1905 2.45445C18.5037 1.99957 19.1264 1.88474 19.5813 2.19795C20.8415 3.06568 21.9343 4.15854 22.802 5.41872C23.1153 5.87359 23.0004 6.49626 22.5455 6.80947C22.0907 7.12269 21.468 7.00785 21.1548 6.55297C20.4254 5.49364 19.5064 4.57464 18.447 3.84521C17.9921 3.53199 17.8773 2.90933 18.1905 2.45445ZM6.80947 2.45445C7.12269 2.90933 7.00785 3.53199 6.55297 3.84521C5.49364 4.57464 4.57464 5.49364 3.84521 6.55298C3.53199 7.00785 2.90933 7.12269 2.45445 6.80947C1.99957 6.49626 1.88474 5.87359 2.19795 5.41872C3.06568 4.15854 4.15854 3.06568 5.41872 2.19795C5.87359 1.88474 6.49626 1.99958 6.80947 2.45445ZM23.6281 9.41979C24.1713 9.31973 24.6927 9.67892 24.7928 10.2221C24.929 10.9614 25 11.7228 25 12.5C25 13.2772 24.929 14.0386 24.7928 14.7779C24.6927 15.3211 24.1713 15.6803 23.6281 15.5802C23.085 15.4802 22.7258 14.9587 22.8259 14.4156C22.9401 13.7952 23 13.155 23 12.5C23 11.845 22.9401 11.2048 22.8259 10.5844C22.7258 10.0413 23.085 9.51985 23.6281 9.41979ZM1.37187 9.41979C1.91502 9.51985 2.27421 10.0413 2.17415 10.5844C2.05986 11.2048 2 11.845 2 12.5C2 13.155 2.05986 13.7952 2.17415 14.4156C2.27421 14.9587 1.91502 15.4802 1.37187 15.5802C0.828727 15.6803 0.307306 15.3211 0.207246 14.7779C0.071043 14.0386 0 13.2772 0 12.5C0 11.7228 0.0710428 10.9614 0.207246 10.2221C0.307306 9.67892 0.828726 9.31973 1.37187 9.41979ZM22.5455 18.1905C23.0004 18.5037 23.1153 19.1264 22.802 19.5813C21.9343 20.8415 20.8415 21.9343 19.5813 22.802C19.1264 23.1153 18.5037 23.0004 18.1905 22.5455C17.8773 22.0907 17.9921 21.468 18.447 21.1548C19.5064 20.4254 20.4254 19.5064 21.1548 18.447C21.468 17.9921 22.0907 17.8773 22.5455 18.1905ZM2.45445 18.1905C2.90933 17.8773 3.53199 17.9921 3.84521 18.447C4.57464 19.5064 5.49364 20.4254 6.55298 21.1548C7.00785 21.468 7.12269 22.0907 6.80947 22.5455C6.49626 23.0004 5.87359 23.1153 5.41872 22.802C4.15854 21.9343 3.06568 20.8415 2.19795 19.5813C1.88474 19.1264 1.99958 18.5037 2.45445 18.1905ZM9.41979 23.6281C9.51985 23.085 10.0413 22.7258 10.5844 22.8259C11.2048 22.9401 11.845 23 12.5 23C13.155 23 13.7952 22.9401 14.4156 22.8259C14.9587 22.7258 15.4802 23.085 15.5802 23.6281C15.6803 24.1713 15.3211 24.6927 14.7779 24.7928C14.0386 24.929 13.2772 25 12.5 25C11.7228 25 10.9614 24.929 10.2221 24.7928C9.67892 24.6927 9.31973 24.1713 9.41979 23.6281Z" fill="#FF6F61"/>
</g>
<defs>
<clipPath id="clip0_1913_10357">
<rect width="25" height="25" fill="white"/>
</clipPath>
</defs>
</svg>
