<svg width="17" height="17" viewBox="0 0 17 17" fill="none" xmlns="http://www.w3.org/2000/svg">
<path d="M8.5 0C10.7543 0 12.9163 0.895533 14.5104 2.48959C16.1045 4.08365 17 6.24566 17 8.5C17 10.7543 16.1045 12.9163 14.5104 14.5104C12.9163 16.1045 10.7543 17 8.5 17C6.24566 17 4.08365 16.1045 2.48959 14.5104C0.895533 12.9163 0 10.7543 0 8.5C0 6.24566 0.895533 4.08365 2.48959 2.48959C4.08365 0.895533 6.24566 0 8.5 0ZM8.5 6.375C8.6196 6.375 8.73802 6.35144 8.84852 6.30568C8.95901 6.25991 9.0594 6.19283 9.14397 6.10826C9.22854 6.02369 9.29562 5.92329 9.34139 5.8128C9.38716 5.70231 9.41072 5.58388 9.41072 5.46429C9.41072 5.34469 9.38716 5.22626 9.34139 5.11577C9.29562 5.00528 9.22854 4.90488 9.14397 4.82031C9.0594 4.73575 8.95901 4.66866 8.84852 4.6229C8.73802 4.57713 8.6196 4.55357 8.5 4.55357C8.25879 4.55357 8.02745 4.64939 7.85689 4.81996C7.68632 4.99052 7.5905 5.22186 7.5905 5.46307C7.5905 5.70429 7.68632 5.93562 7.85689 6.10619C8.02745 6.27675 8.25879 6.37257 8.5 6.37257M9.10714 7.89043C9.10714 7.7294 9.04318 7.57498 8.92932 7.46111C8.81545 7.34725 8.66102 7.28329 8.5 7.28329C8.33898 7.28329 8.18455 7.34725 8.07069 7.46111C7.95682 7.57498 7.89286 7.7294 7.89286 7.89043V11.5333C7.89286 11.6943 7.95682 11.8487 8.07069 11.9626C8.18455 12.0765 8.33898 12.1404 8.5 12.1404C8.66102 12.1404 8.81545 12.0765 8.92932 11.9626C9.04318 11.8487 9.10714 11.6943 9.10714 11.5333V7.89043Z" fill="#3A3C42"/>
</svg>
