<svg width="247" height="49" viewBox="0 0 247 49" fill="none" xmlns="http://www.w3.org/2000/svg">
<path fill-rule="evenodd" clip-rule="evenodd" d="M135.294 22.3562C134.031 22.2538 132.11 22.7672 130.391 26.0351C126.85 32.7644 128.313 39.1188 129.213 43.0265C129.27 43.2727 129.324 43.5092 129.375 43.7354L123.435 45.0668C123.384 44.8379 123.325 44.5861 123.261 44.3127C122.34 40.384 120.374 32.0022 125.002 23.206C127.608 18.252 131.601 15.9557 135.786 16.2949C138.382 16.5052 140.74 17.7171 142.515 19.4539C143.503 18.9188 144.596 18.4549 145.804 18.0825C148.091 17.3777 150.226 17.2931 152.15 17.8243C154.08 18.3568 155.578 19.4477 156.681 20.7334C158.797 23.2017 159.559 26.4796 159.514 28.7824C159.41 34.1076 157.645 39.8446 156.019 45.1283L155.968 45.2945L150.149 43.5078C151.858 37.9554 153.343 33.0236 153.428 28.6643C153.45 27.5163 153.004 25.7932 152.058 24.6899C151.629 24.1898 151.132 23.8522 150.529 23.686C149.923 23.5185 148.989 23.4649 147.599 23.8935C146.862 24.1204 146.194 24.3961 145.588 24.7117C145.833 25.5399 146.04 26.4309 146.209 27.3232C146.565 29.2092 146.798 31.3616 146.803 33.4373C146.809 35.4627 146.601 37.6537 145.92 39.4859C145.249 41.2917 143.782 43.508 140.927 43.8235C139.898 43.9372 137.883 44.1486 136.159 42.9331C134.362 41.6653 133.777 39.5414 133.55 37.5296C133.434 36.5036 133.321 32.7873 134.737 28.7819C135.375 26.9792 136.338 25.0881 137.758 23.3644C137.012 22.791 136.143 22.425 135.294 22.3562ZM140.548 30.611C140.524 30.6767 140.5 30.7424 140.477 30.8081C139.969 32.244 139.732 33.6564 139.634 34.7953C139.585 35.3606 139.572 35.8446 139.574 36.2123C139.575 36.3959 139.58 36.5466 139.586 36.6601C139.588 36.7168 139.591 36.762 139.594 36.7956C139.595 36.8123 139.596 36.8252 139.597 36.8345C139.598 36.8427 139.599 36.847 139.599 36.8477L139.599 36.8477C139.649 37.2928 139.711 37.6073 139.767 37.8224C139.84 37.8182 139.923 37.812 140.018 37.8034C140.067 37.7194 140.134 37.5827 140.213 37.3696C140.527 36.5241 140.721 35.1679 140.716 33.454C140.713 32.523 140.653 31.5558 140.548 30.611ZM139.929 37.9211C139.929 37.9183 139.94 37.9026 139.967 37.8824C139.943 37.9139 139.93 37.924 139.929 37.9211Z" fill="white"/>
<path d="M237.931 25.7279C237.419 24.8465 236.74 24.0831 235.895 23.4375C235.049 22.7919 234.073 22.3652 232.967 22.1574C231.894 21.9374 230.752 22.0479 229.538 22.489C228.359 22.9179 227.372 23.5624 226.579 24.4228C225.82 25.2708 225.279 26.2489 224.958 27.357C224.624 28.4314 224.534 29.4935 224.687 30.5433L237.931 25.7279ZM241.556 20.121C242.641 21.2134 243.497 22.465 244.126 23.8758C244.776 25.2407 245.277 26.5644 245.63 27.8467L245.814 28.3517L226.454 35.3911C227.027 36.4407 227.827 37.2746 228.854 37.8925C229.868 38.4769 230.956 38.8438 232.117 38.9935C233.266 39.1094 234.363 38.9775 235.407 38.5977C237.126 37.9727 238.319 37.2149 238.987 36.324C239.688 35.4208 240.12 34.6157 240.282 33.9086L240.314 33.8398L246.666 33.9894C246.483 36.0004 245.628 37.9504 244.103 39.8393C242.566 41.6946 240.331 43.1552 237.399 44.2212C234.838 45.1525 232.355 45.4072 229.949 44.9856C227.532 44.5302 225.393 43.4779 223.533 41.8287C221.672 40.1795 220.264 38.042 219.307 35.4161C218.338 32.7566 218.036 30.1979 218.4 27.74C218.751 25.2484 219.713 23.0689 221.284 21.2013C222.843 19.3001 224.903 17.8839 227.464 16.9527C229.991 16.0337 232.271 15.7958 234.302 16.239C236.355 16.6363 237.972 17.2495 239.152 18.0787C240.331 18.9078 241.116 19.5947 241.505 20.1394L241.556 20.121Z" fill="white"/>
<path d="M216.082 43.7436C215.221 44.1735 214.396 44.4781 213.607 44.6572C212.818 44.8721 211.724 44.9796 210.326 44.9796C208.604 44.9796 207.062 44.5855 205.699 43.7974C204.337 42.9734 203.279 41.827 202.526 40.3581C201.773 38.8893 201.396 37.2234 201.396 35.3605V7.84656H208.712V35.3605C208.712 36.2561 208.927 37.0264 209.357 37.6712C209.824 38.3161 210.397 38.6564 211.079 38.6923C211.939 38.7997 212.962 38.531 214.145 37.8862L214.199 37.8324L216.673 43.4749L216.082 43.7436ZM196.232 16.6596H215.974V22.5171H196.232V16.6596Z" fill="white"/>
<path d="M177.466 39.606C178.793 39.606 180.03 39.2298 181.177 38.4775C182.325 37.7251 183.239 36.6862 183.921 35.3606C184.602 34.0351 184.943 32.5663 184.943 30.9541C184.943 29.3778 184.602 27.9269 183.921 26.6013C183.239 25.2758 182.325 24.2369 181.177 23.4845C180.03 22.7322 178.793 22.356 177.466 22.356C176.067 22.356 174.83 22.7143 173.754 23.4308C172.714 24.1115 171.889 25.1146 171.28 26.4401C170.706 27.7298 170.419 29.2345 170.419 30.9541C170.419 32.7096 170.706 34.2501 171.28 35.5756C171.889 36.8653 172.714 37.8684 173.754 38.5849C174.83 39.2656 176.067 39.606 177.466 39.606ZM192.259 44.9798L184.943 45.0335V41.4331C184.226 42.3287 183.419 43.081 182.522 43.6901C181.662 44.2633 180.729 44.6932 179.725 44.9798C178.757 45.3022 177.771 45.4634 176.766 45.4634C174.113 45.4634 171.746 44.8544 169.666 43.6363C167.586 42.3824 165.972 40.6628 164.824 38.4775C163.677 36.2921 163.103 33.7843 163.103 30.9541C163.103 28.1597 163.677 25.6699 164.824 23.4845C165.972 21.2992 167.586 19.5975 169.666 18.3794C171.746 17.1255 174.113 16.4986 176.766 16.4986C178.308 16.4986 179.797 16.8389 181.231 17.5196C182.666 18.2003 183.903 19.2034 184.943 20.5289V16.3911H192.259V44.9798Z" fill="white"/>
<path d="M118.38 16.0687V45.2485H111.064V16.0687H118.38Z" fill="white"/>
<path d="M106.061 43.7436C105.201 44.1735 104.376 44.4781 103.587 44.6572C102.798 44.8721 101.704 44.9796 100.306 44.9796C98.5843 44.9796 97.0422 44.5855 95.6795 43.7974C94.3167 42.9734 93.2588 41.827 92.5057 40.3581C91.7526 38.8893 91.376 37.2234 91.376 35.3605V7.84656H98.6919V35.3605C98.6919 36.2561 98.907 37.0264 99.3374 37.6712C99.8036 38.3161 100.377 38.6564 101.059 38.6923C101.919 38.7997 102.941 38.531 104.125 37.8862L104.179 37.8324L106.653 43.4749L106.061 43.7436ZM86.2119 16.6596H105.954V22.5171H86.2119V16.6596Z" fill="white"/>
<path d="M64.9584 35.762C65.7832 36.7293 66.7694 37.4996 67.917 38.0728C69.1004 38.646 70.1763 38.9326 71.1446 38.9326C72.4356 38.9326 73.4935 38.646 74.3183 38.0728C75.1432 37.4637 75.5556 36.6935 75.5556 35.762C75.5556 35.3679 75.3583 35.0276 74.9639 34.741C74.6052 34.4186 74.0673 34.132 73.3501 33.8812C72.6687 33.6304 71.8797 33.3617 70.9832 33.0751C68.9032 32.4303 67.1639 31.8033 65.7653 31.1943C64.4025 30.5852 63.2011 29.7075 62.1612 28.5611C61.157 27.3789 60.655 25.8921 60.655 24.1008C60.655 22.417 61.1212 20.9303 62.0536 19.6406C62.986 18.315 64.277 17.2761 65.9267 16.5238C67.6122 15.7714 69.4949 15.3953 71.5749 15.3953C73.3321 15.3953 75.1073 15.8073 76.9004 16.6312C78.6935 17.4194 80.1638 18.4763 81.3114 19.8018L76.6852 23.9934C76.0039 23.1694 75.197 22.5245 74.2645 22.0588C73.3321 21.5572 72.4356 21.3065 71.5749 21.3065C70.5349 21.3065 69.6742 21.5572 68.9928 22.0588C68.3115 22.5245 67.9708 23.1515 67.9708 23.9396C67.9708 24.3695 68.168 24.7457 68.5625 25.0681C68.9928 25.3906 69.5666 25.6951 70.2839 25.9817C71.037 26.2325 71.8797 26.5011 72.8121 26.7878C74.8563 27.4326 76.5418 28.0596 77.8687 28.6686C79.2314 29.2418 80.3969 30.1016 81.3652 31.248C82.3693 32.3586 82.8714 33.7916 82.8714 35.5471C82.8714 37.3742 82.3693 38.9863 81.3652 40.3835C80.3969 41.7807 79.0163 42.8734 77.2232 43.6615C75.4659 44.4497 73.4397 44.8438 71.1446 44.8438C69.2439 44.8438 67.2715 44.396 65.2273 43.5003C63.2191 42.6047 61.5515 41.4224 60.2246 39.9536L64.9584 35.762Z" fill="white"/>
<path d="M50.3667 27.9986C50.1874 26.9955 49.8108 26.0461 49.237 25.1505C48.6632 24.2548 47.8922 23.5204 46.9239 22.9472C45.9915 22.374 44.8798 22.0874 43.5888 22.0874C42.3336 22.0874 41.186 22.3561 40.146 22.8935C39.1419 23.4309 38.2991 24.1653 37.6178 25.0967C36.9364 25.9924 36.4881 26.9597 36.2729 27.9986H50.3667ZM55.6922 23.9682C56.3377 25.3654 56.7142 26.8343 56.8218 28.3748C56.9653 29.8794 56.9832 31.2945 56.8756 32.6201V33.1575H36.2729C36.4522 34.3397 36.9184 35.3965 37.6715 36.328C38.4247 37.2236 39.3212 37.9402 40.3612 38.4775C41.4012 38.9791 42.477 39.2299 43.5888 39.2299C45.4177 39.2299 46.7984 38.9254 47.7308 38.3163C48.6991 37.7073 49.3805 37.0983 49.7749 36.4892L49.8287 36.4355L55.746 38.7462C54.8853 40.5733 53.4149 42.1138 51.3349 43.3677C49.2549 44.5858 46.655 45.1948 43.535 45.1948C40.8095 45.1948 38.3888 44.5858 36.2729 43.3677C34.1571 42.1138 32.5074 40.3942 31.324 38.2088C30.1405 36.0235 29.5488 33.5336 29.5488 30.7392C29.5488 27.909 30.1405 25.4013 31.324 23.2159C32.5074 20.9947 34.1571 19.2751 36.2729 18.057C38.3888 16.8032 40.8095 16.1762 43.535 16.1762C46.2246 16.1762 48.4481 16.7315 50.2053 17.8421C51.9984 18.9169 53.3073 20.0454 54.1322 21.2276C54.957 22.4098 55.4591 23.3234 55.6384 23.9682H55.6922Z" fill="white"/>
<path d="M28.6716 10.9637H7.31583V21.7114H25.3364V27.945H7.31583V45.0337H0V4.7301H28.6716V10.9637Z" fill="white"/>
<ellipse cx="114.707" cy="9.92223" rx="3.65248" ry="3.64876" fill="white"/>
</svg>
