<svg width="234" height="50" viewBox="0 0 234 50" fill="none" xmlns="http://www.w3.org/2000/svg">
<path d="M227.929 28.7054C227.763 27.1695 227.348 25.7789 226.684 24.5335C226.019 23.2467 225.065 22.2089 223.819 21.4202C222.615 20.5899 221.1 20.1748 219.274 20.1748C217.655 20.1748 216.16 20.5484 214.79 21.2956C213.462 22.0428 212.362 23.0806 211.49 24.409C210.619 25.6958 210.058 27.1487 209.809 28.7677L227.929 28.7054ZM232.661 23.5995C233.408 25.3845 233.824 27.1487 233.907 28.8922C234.031 30.5942 234.031 32.0886 233.907 33.3755V33.6868H209.809C210.017 35.3473 210.577 36.8209 211.49 38.1078C212.404 39.3531 213.545 40.3494 214.915 41.0966C216.285 41.8023 217.717 42.1551 219.211 42.1551C221.702 42.1551 223.57 41.7193 224.816 40.8475C226.102 39.9758 227.016 39.0625 227.555 38.1078L227.68 37.9832L232.848 40.3494C231.852 42.3835 230.191 44.1062 227.867 45.5176C225.542 46.8875 222.636 47.5724 219.149 47.5724C216.119 47.5724 213.421 46.8875 211.054 45.5176C208.688 44.1062 206.841 42.1551 205.513 39.6645C204.226 37.1738 203.582 34.351 203.582 31.1961C203.582 27.9997 204.226 25.1562 205.513 22.6655C206.841 20.1748 208.688 18.2445 211.054 16.8747C213.421 15.4633 216.119 14.7576 219.149 14.7576C222.138 14.7576 224.608 15.3595 226.559 16.5633C228.51 17.7672 229.921 19.0125 230.793 20.2994C231.706 21.5862 232.308 22.6448 232.599 23.475L232.661 23.5995Z" fill="#FF6F61"/>
<path d="M212.41 42.9646C211.705 43.5403 211.013 44.0051 210.334 44.3589C209.666 44.7527 208.751 45.1055 207.588 45.417C205.824 45.8898 204.133 45.9132 202.514 45.4873C200.925 45.0105 199.537 44.1579 198.348 42.9292C197.199 41.6899 196.383 40.168 195.9 38.3637L187.729 7.86988L193.984 6.19382L202.155 36.6876C202.456 37.8103 203.009 38.672 203.814 39.2727C204.66 39.8626 205.57 40.0487 206.543 39.831C207.395 39.6454 208.368 39.1055 209.461 38.211L209.505 38.1348L212.783 42.6713L212.41 42.9646ZM184.761 18.2057L204.369 12.9519L205.771 18.1846L186.163 23.4384L184.761 18.2057Z" fill="#FF6F61"/>
<path d="M114.629 12.8268V47.3851H108.153V1.5564H115.127L131.815 28.5804L148.44 1.5564H155.476V47.3851H149V12.7645L131.815 39.6639L114.629 12.8268Z" fill="#FF6F61"/>
<path d="M103.464 14.7573V47.5099H96.9878V14.7573H103.464ZM100.226 0C101.305 0 102.177 0.352847 102.841 1.05854C103.505 1.72273 103.837 2.59447 103.837 3.67376C103.837 4.71155 103.505 5.58329 102.841 6.28898C102.177 6.99468 101.305 7.34753 100.226 7.34753C99.1464 7.34753 98.2539 6.99468 97.5482 6.28898C96.8425 5.58329 96.4896 4.71155 96.4896 3.67376C96.4896 2.59447 96.8425 1.72273 97.5482 1.05854C98.2539 0.352847 99.1464 0 100.226 0Z" fill="#FF6F61"/>
<path d="M92.4013 46.2024C91.5711 46.576 90.7823 46.8458 90.0351 47.0119C89.2879 47.2195 88.3124 47.3232 87.1086 47.3232C85.2821 47.3232 83.6424 46.9081 82.1895 46.0779C80.7781 45.2061 79.6573 44.0231 78.827 42.5287C78.0383 41.0342 77.644 39.353 77.644 37.485V5.91553H84.1197V37.485C84.1197 38.6473 84.4311 39.6228 85.0538 40.4116C85.7179 41.2003 86.5482 41.6154 87.5445 41.6569C88.4162 41.6984 89.4955 41.4286 90.7823 40.8474L90.8446 40.7852L92.8372 46.0156L92.4013 46.2024ZM72.1022 15.1311H92.4013V20.5483H72.1022V15.1311Z" fill="#FF6F61"/>
<path d="M55.3166 38.4812C56.2714 39.7681 57.4337 40.7436 58.8036 41.4077C60.215 42.0719 61.5641 42.404 62.8509 42.404C64.6359 42.404 66.0888 41.9889 67.2096 41.1587C68.372 40.2869 68.9531 39.1869 68.9531 37.8585C68.9531 37.1528 68.6833 36.5509 68.1437 36.0528C67.604 35.5546 66.8983 35.1395 66.0266 34.8074C65.1548 34.4338 64.034 34.0395 62.6641 33.6243C60.4225 32.9187 58.5545 32.2337 57.0601 31.5695C55.6072 30.9053 54.3411 29.9506 53.2618 28.7052C52.224 27.4599 51.7051 25.8409 51.7051 23.8484C51.7051 22.0219 52.2032 20.4029 53.1995 18.9916C54.1958 17.5802 55.5657 16.4801 57.3092 15.6914C59.0941 14.8612 61.1075 14.446 63.3491 14.446C65.3001 14.446 67.2512 14.8819 69.2022 15.7537C71.1532 16.6254 72.7099 17.8707 73.8722 19.4897L69.5758 23.2257C68.7871 22.1049 67.8116 21.2747 66.6492 20.735C65.5284 20.1539 64.4284 19.8633 63.3491 19.8633C61.8132 19.8633 60.5678 20.2369 59.613 20.9841C58.6583 21.6898 58.1809 22.6238 58.1809 23.7861C58.1809 24.4918 58.4507 25.1145 58.9904 25.6541C59.53 26.1523 60.2357 26.5674 61.1075 26.8995C62.0207 27.2316 63.1623 27.6259 64.5322 28.0826C66.8153 28.7467 68.6625 29.4109 70.0739 30.0751C71.5268 30.7393 72.7722 31.6941 73.81 32.9394C74.8893 34.1848 75.4289 35.7829 75.4289 37.734C75.4289 39.7265 74.8893 41.4908 73.81 43.0267C72.7722 44.5211 71.2985 45.7042 69.389 46.5759C67.4795 47.4477 65.3001 47.8835 62.8509 47.8835C60.7339 47.8835 58.5545 47.3854 56.3129 46.3891C54.1128 45.3929 52.307 44.0022 50.8956 42.2172L55.3166 38.4812Z" fill="#FF6F61"/>
<path d="M46.6133 28.7054C46.4473 27.1695 46.0322 25.7789 45.368 24.5335C44.7038 23.2467 43.749 22.2089 42.5037 21.4202C41.2999 20.5899 39.7847 20.1748 37.9582 20.1748C36.3392 20.1748 34.8448 20.5484 33.4749 21.2956C32.1466 22.0428 31.0465 23.0806 30.1748 24.409C29.303 25.6958 28.7426 27.1487 28.4936 28.7677L46.6133 28.7054ZM51.3456 23.5995C52.0929 25.3845 52.508 27.1487 52.591 28.8922C52.7155 30.5942 52.7155 32.0886 52.591 33.3755V33.6868H28.4936C28.7011 35.3473 29.2615 36.8209 30.1748 38.1078C31.088 39.3531 32.2296 40.3494 33.5995 41.0966C34.9694 41.8023 36.4015 42.1551 37.8959 42.1551C40.3866 42.1551 42.2546 41.7193 43.5 40.8475C44.7868 39.9758 45.7001 39.0625 46.2397 38.1078L46.3643 37.9832L51.5324 40.3494C50.5362 42.3835 48.8757 44.1062 46.5511 45.5176C44.2264 46.8875 41.3206 47.5724 37.8337 47.5724C34.8033 47.5724 32.1051 46.8875 29.7389 45.5176C27.3728 44.1062 25.5255 42.1551 24.1971 39.6645C22.9103 37.1738 22.2668 34.351 22.2668 31.1961C22.2668 27.9997 22.9103 25.1562 24.1971 22.6655C25.5255 20.1748 27.3728 18.2445 29.7389 16.8747C32.1051 15.4633 34.8033 14.7576 37.8337 14.7576C40.8225 14.7576 43.2924 15.3595 45.2435 16.5633C47.1945 17.7672 48.6059 19.0125 49.4776 20.2994C50.3909 21.5862 50.9928 22.6448 51.2834 23.475L51.3456 23.5995Z" fill="#FF6F61"/>
<path d="M31.4449 7.16045H6.47579V21.6064H27.3976V27.2105H6.47579V47.3851H0V1.5564H31.4449V7.16045Z" fill="#FF6F61"/>
<mask id="path-9-inside-1_257_990" fill="white">
<path fill-rule="evenodd" clip-rule="evenodd" d="M176.25 12.8674C176.25 9.27458 173.337 6.36206 169.744 6.36206C166.151 6.36206 163.239 9.27458 163.239 12.8674H158.43C155.306 12.8674 152.773 15.4001 152.773 18.5243V24.1814C152.773 24.1814 152.773 24.1814 152.773 24.1814C149.181 24.1814 146.268 27.094 146.268 30.6869C146.268 34.2797 149.181 37.1924 152.773 37.1924C152.773 37.1924 152.773 37.1924 152.773 37.1924V42.8492C152.773 45.9735 155.306 48.5062 158.43 48.5062H182.755C185.88 48.5062 188.412 45.9735 188.412 42.8492V37.1924H188.412C184.819 37.1924 181.907 34.2798 181.907 30.6869C181.907 27.094 184.819 24.1814 188.412 24.1814H188.412V18.5243C188.412 15.4001 185.88 12.8674 182.755 12.8674H176.25Z"/>
</mask>
<path fill-rule="evenodd" clip-rule="evenodd" d="M176.25 12.8674C176.25 9.27458 173.337 6.36206 169.744 6.36206C166.151 6.36206 163.239 9.27458 163.239 12.8674H158.43C155.306 12.8674 152.773 15.4001 152.773 18.5243V24.1814C152.773 24.1814 152.773 24.1814 152.773 24.1814C149.181 24.1814 146.268 27.094 146.268 30.6869C146.268 34.2797 149.181 37.1924 152.773 37.1924C152.773 37.1924 152.773 37.1924 152.773 37.1924V42.8492C152.773 45.9735 155.306 48.5062 158.43 48.5062H182.755C185.88 48.5062 188.412 45.9735 188.412 42.8492V37.1924H188.412C184.819 37.1924 181.907 34.2798 181.907 30.6869C181.907 27.094 184.819 24.1814 188.412 24.1814H188.412V18.5243C188.412 15.4001 185.88 12.8674 182.755 12.8674H176.25Z" fill="#FF6F61"/>
<path d="M176.25 12.8674L174.974 12.8674L174.974 14.1432H176.25V12.8674ZM163.239 12.8674V14.1432H164.515L164.515 12.8674L163.239 12.8674ZM152.773 24.1814V25.4572H154.049V24.1814H152.773ZM152.773 37.1924H154.049V35.9165H152.773V37.1924ZM188.412 37.1924H189.688V35.9165H188.412V37.1924ZM188.412 24.1814V25.4572H189.688V24.1814H188.412ZM177.526 12.8674C177.526 8.56994 174.042 5.08622 169.744 5.08622V7.6379C172.633 7.6379 174.974 9.97923 174.974 12.8674L177.526 12.8674ZM169.744 5.08622C165.447 5.08622 161.963 8.56994 161.963 12.8674L164.515 12.8674C164.515 9.97923 166.856 7.6379 169.744 7.6379V5.08622ZM163.239 11.5916H158.43V14.1432H163.239V11.5916ZM158.43 11.5916C154.602 11.5916 151.498 14.6955 151.498 18.5243H154.049C154.049 16.1047 156.011 14.1432 158.43 14.1432V11.5916ZM151.498 18.5243V24.1814H154.049V18.5243H151.498ZM152.773 22.9055C152.773 22.9055 152.773 22.9055 152.773 22.9055C152.773 22.9055 152.773 22.9055 152.773 22.9055C152.773 22.9055 152.773 22.9055 152.773 22.9055C152.773 22.9055 152.773 22.9055 152.773 22.9055C152.773 22.9055 152.773 22.9055 152.773 22.9055C152.773 22.9055 152.773 22.9055 152.773 22.9055C152.773 22.9055 152.773 22.9055 152.773 22.9055C152.773 22.9055 152.773 22.9055 152.773 22.9055C152.773 22.9055 152.773 22.9055 152.773 22.9055C152.773 22.9055 152.773 22.9055 152.773 22.9055C152.773 22.9055 152.773 22.9055 152.773 22.9055H152.773H152.773H152.773H152.773H152.773H152.773H152.773H152.773H152.773H152.773C152.773 22.9055 152.773 22.9055 152.773 22.9055C152.773 22.9055 152.773 22.9055 152.773 22.9055C152.773 22.9055 152.773 22.9055 152.773 22.9055C152.773 22.9055 152.773 22.9055 152.773 22.9055C152.773 22.9055 152.773 22.9055 152.773 22.9055C152.773 22.9055 152.773 22.9055 152.773 22.9055C152.773 22.9055 152.773 22.9055 152.773 22.9055C152.773 22.9055 152.773 22.9055 152.773 22.9055C152.773 22.9055 152.773 22.9055 152.773 22.9055C152.773 22.9055 152.773 22.9055 152.773 22.9055C152.773 22.9055 152.773 22.9055 152.773 22.9055C152.773 22.9055 152.773 22.9055 152.773 22.9055C152.773 22.9055 152.773 22.9055 152.773 22.9055C152.773 22.9055 152.773 22.9055 152.773 22.9055C152.773 22.9055 152.773 22.9055 152.773 22.9055C152.773 22.9055 152.773 22.9055 152.773 22.9055C152.773 22.9055 152.773 22.9055 152.773 22.9055C152.773 22.9055 152.773 22.9055 152.773 22.9055C152.773 22.9055 152.773 22.9055 152.773 22.9055C152.773 22.9055 152.773 22.9055 152.773 22.9055C152.773 22.9055 152.773 22.9055 152.773 22.9055C152.773 22.9055 152.773 22.9055 152.773 22.9055H152.773H152.773H152.773H152.773H152.773H152.773H152.773H152.773H152.773H152.773H152.773C152.773 22.9055 152.773 22.9055 152.773 22.9055C152.773 22.9055 152.773 22.9055 152.773 22.9055C152.773 22.9055 152.773 22.9055 152.773 22.9055C152.773 22.9055 152.773 22.9055 152.773 22.9055C152.773 22.9055 152.773 22.9055 152.773 22.9055C152.773 22.9055 152.773 22.9055 152.773 22.9055C152.773 22.9055 152.773 22.9055 152.773 22.9055C152.773 22.9055 152.773 22.9055 152.773 22.9055C152.773 22.9055 152.773 22.9055 152.773 22.9055C152.773 22.9055 152.773 22.9055 152.773 22.9055C152.773 22.9055 152.773 22.9055 152.773 22.9055C152.773 22.9055 152.773 22.9055 152.773 22.9055C152.773 22.9055 152.773 22.9055 152.773 22.9055C152.773 22.9055 152.773 22.9055 152.773 22.9055C152.773 22.9055 152.773 22.9055 152.773 22.9055C152.773 22.9055 152.773 22.9055 152.773 22.9055C152.773 22.9055 152.773 22.9055 152.773 22.9055C152.773 22.9055 152.773 22.9055 152.773 22.9055C152.773 22.9055 152.773 22.9055 152.773 22.9055C152.773 22.9055 152.773 22.9055 152.773 22.9055C152.773 22.9055 152.773 22.9055 152.773 22.9055H152.773H152.773H152.773H152.773H152.773H152.773H152.773H152.773H152.773H152.773H152.773C152.773 22.9055 152.773 22.9055 152.773 22.9055C152.773 22.9055 152.773 22.9055 152.773 22.9055C152.773 22.9055 152.773 22.9055 152.773 22.9055C152.773 22.9055 152.773 22.9055 152.773 22.9055C152.773 22.9055 152.773 22.9055 152.773 22.9055C152.773 22.9055 152.773 22.9055 152.773 22.9055C152.773 22.9055 152.773 22.9055 152.773 22.9055C152.773 22.9055 152.773 22.9055 152.773 22.9055C152.773 22.9055 152.773 22.9055 152.773 22.9055C152.773 22.9055 152.773 22.9055 152.773 22.9055C152.773 22.9055 152.773 22.9055 152.773 22.9055C152.773 22.9055 152.773 22.9055 152.773 22.9055C152.773 22.9055 152.773 22.9055 152.773 22.9055C152.773 22.9055 152.773 22.9055 152.773 22.9055C152.773 22.9055 152.773 22.9055 152.773 22.9055C152.773 22.9055 152.773 22.9055 152.773 22.9055C152.773 22.9055 152.773 22.9055 152.773 22.9055C152.773 22.9055 152.773 22.9055 152.773 22.9055C152.773 22.9055 152.773 22.9055 152.773 22.9055C152.773 22.9055 152.773 22.9055 152.773 22.9055C152.773 22.9055 152.773 22.9055 152.773 22.9055H152.773H152.773H152.773H152.773H152.773H152.773H152.773H152.773H152.773H152.773H152.773C152.773 22.9055 152.773 22.9055 152.773 22.9055C152.773 22.9055 152.773 22.9055 152.773 22.9055C152.773 22.9055 152.773 22.9055 152.773 22.9055C152.773 22.9055 152.773 22.9055 152.773 22.9055C152.773 22.9055 152.773 22.9055 152.773 22.9055C152.773 22.9055 152.773 22.9055 152.773 22.9055C152.773 22.9055 152.773 22.9055 152.773 22.9055C152.773 22.9055 152.773 22.9055 152.773 22.9055C152.773 22.9055 152.773 22.9055 152.773 22.9055C152.773 22.9055 152.773 22.9055 152.773 22.9055C152.773 22.9055 152.773 22.9055 152.773 22.9055V25.4572C152.773 25.4572 152.773 25.4572 152.773 25.4572C152.773 25.4572 152.773 25.4572 152.773 25.4572C152.773 25.4572 152.773 25.4572 152.773 25.4572C152.773 25.4572 152.773 25.4572 152.773 25.4572C152.773 25.4572 152.773 25.4572 152.773 25.4572C152.773 25.4572 152.773 25.4572 152.773 25.4572C152.773 25.4572 152.773 25.4572 152.773 25.4572C152.773 25.4572 152.773 25.4572 152.773 25.4572C152.773 25.4572 152.773 25.4572 152.773 25.4572C152.773 25.4572 152.773 25.4572 152.773 25.4572C152.773 25.4572 152.773 25.4572 152.773 25.4572H152.773H152.773H152.773H152.773H152.773H152.773H152.773H152.773H152.773H152.773H152.773C152.773 25.4572 152.773 25.4572 152.773 25.4572C152.773 25.4572 152.773 25.4572 152.773 25.4572C152.773 25.4572 152.773 25.4572 152.773 25.4572C152.773 25.4572 152.773 25.4572 152.773 25.4572C152.773 25.4572 152.773 25.4572 152.773 25.4572C152.773 25.4572 152.773 25.4572 152.773 25.4572C152.773 25.4572 152.773 25.4572 152.773 25.4572C152.773 25.4572 152.773 25.4572 152.773 25.4572C152.773 25.4572 152.773 25.4572 152.773 25.4572C152.773 25.4572 152.773 25.4572 152.773 25.4572C152.773 25.4572 152.773 25.4572 152.773 25.4572C152.773 25.4572 152.773 25.4572 152.773 25.4572C152.773 25.4572 152.773 25.4572 152.773 25.4572C152.773 25.4572 152.773 25.4572 152.773 25.4572C152.773 25.4572 152.773 25.4572 152.773 25.4572C152.773 25.4572 152.773 25.4572 152.773 25.4572C152.773 25.4572 152.773 25.4572 152.773 25.4572C152.773 25.4572 152.773 25.4572 152.773 25.4572C152.773 25.4572 152.773 25.4572 152.773 25.4572C152.773 25.4572 152.773 25.4572 152.773 25.4572C152.773 25.4572 152.773 25.4572 152.773 25.4572H152.773H152.773H152.773H152.773H152.773H152.773H152.773H152.773H152.773H152.773H152.773C152.773 25.4572 152.773 25.4572 152.773 25.4572C152.773 25.4572 152.773 25.4572 152.773 25.4572C152.773 25.4572 152.773 25.4572 152.773 25.4572C152.773 25.4572 152.773 25.4572 152.773 25.4572C152.773 25.4572 152.773 25.4572 152.773 25.4572C152.773 25.4572 152.773 25.4572 152.773 25.4572C152.773 25.4572 152.773 25.4572 152.773 25.4572C152.773 25.4572 152.773 25.4572 152.773 25.4572C152.773 25.4572 152.773 25.4572 152.773 25.4572C152.773 25.4572 152.773 25.4572 152.773 25.4572C152.773 25.4572 152.773 25.4572 152.773 25.4572C152.773 25.4572 152.773 25.4572 152.773 25.4572C152.773 25.4572 152.773 25.4572 152.773 25.4572C152.773 25.4572 152.773 25.4572 152.773 25.4572C152.773 25.4572 152.773 25.4572 152.773 25.4572C152.773 25.4572 152.773 25.4572 152.773 25.4572C152.773 25.4572 152.773 25.4572 152.773 25.4572C152.773 25.4572 152.773 25.4572 152.773 25.4572C152.773 25.4572 152.773 25.4572 152.773 25.4572C152.773 25.4572 152.773 25.4572 152.773 25.4572C152.773 25.4572 152.773 25.4572 152.773 25.4572H152.773H152.773H152.773H152.773H152.773H152.773H152.773H152.773H152.773H152.773H152.773C152.773 25.4572 152.773 25.4572 152.773 25.4572C152.773 25.4572 152.773 25.4572 152.773 25.4572C152.773 25.4572 152.773 25.4572 152.773 25.4572C152.773 25.4572 152.773 25.4572 152.773 25.4572C152.773 25.4572 152.773 25.4572 152.773 25.4572C152.773 25.4572 152.773 25.4572 152.773 25.4572C152.773 25.4572 152.773 25.4572 152.773 25.4572C152.773 25.4572 152.773 25.4572 152.773 25.4572C152.773 25.4572 152.773 25.4572 152.773 25.4572C152.773 25.4572 152.773 25.4572 152.773 25.4572C152.773 25.4572 152.773 25.4572 152.773 25.4572C152.773 25.4572 152.773 25.4572 152.773 25.4572C152.773 25.4572 152.773 25.4572 152.773 25.4572C152.773 25.4572 152.773 25.4572 152.773 25.4572C152.773 25.4572 152.773 25.4572 152.773 25.4572C152.773 25.4572 152.773 25.4572 152.773 25.4572C152.773 25.4572 152.773 25.4572 152.773 25.4572C152.773 25.4572 152.773 25.4572 152.773 25.4572C152.773 25.4572 152.773 25.4572 152.773 25.4572C152.773 25.4572 152.773 25.4572 152.773 25.4572C152.773 25.4572 152.773 25.4572 152.773 25.4572C152.773 25.4572 152.773 25.4572 152.773 25.4572H152.773H152.773H152.773H152.773H152.773H152.773H152.773H152.773H152.773H152.773C152.773 25.4572 152.773 25.4572 152.773 25.4572C152.773 25.4572 152.773 25.4572 152.773 25.4572C152.773 25.4572 152.773 25.4572 152.773 25.4572C152.773 25.4572 152.773 25.4572 152.773 25.4572C152.773 25.4572 152.773 25.4572 152.773 25.4572C152.773 25.4572 152.773 25.4572 152.773 25.4572C152.773 25.4572 152.773 25.4572 152.773 25.4572C152.773 25.4572 152.773 25.4572 152.773 25.4572C152.773 25.4572 152.773 25.4572 152.773 25.4572C152.773 25.4572 152.773 25.4572 152.773 25.4572C152.773 25.4572 152.773 25.4572 152.773 25.4572V22.9055ZM152.773 22.9055C148.476 22.9055 144.992 26.3894 144.992 30.6869H147.544C147.544 27.7986 149.885 25.4572 152.773 25.4572V22.9055ZM144.992 30.6869C144.992 34.9844 148.476 38.4682 152.773 38.4682V35.9165C149.885 35.9165 147.544 33.5751 147.544 30.6869H144.992ZM152.773 38.4682C152.773 38.4682 152.773 38.4682 152.773 38.4682C152.773 38.4682 152.773 38.4682 152.773 38.4682C152.773 38.4682 152.773 38.4682 152.773 38.4682C152.773 38.4682 152.773 38.4682 152.773 38.4682C152.773 38.4682 152.773 38.4682 152.773 38.4682C152.773 38.4682 152.773 38.4682 152.773 38.4682C152.773 38.4682 152.773 38.4682 152.773 38.4682C152.773 38.4682 152.773 38.4682 152.773 38.4682C152.773 38.4682 152.773 38.4682 152.773 38.4682C152.773 38.4682 152.773 38.4682 152.773 38.4682C152.773 38.4682 152.773 38.4682 152.773 38.4682H152.773H152.773H152.773H152.773H152.773H152.773H152.773H152.773H152.773H152.773H152.773C152.773 38.4682 152.773 38.4682 152.773 38.4682C152.773 38.4682 152.773 38.4682 152.773 38.4682C152.773 38.4682 152.773 38.4682 152.773 38.4682C152.773 38.4682 152.773 38.4682 152.773 38.4682C152.773 38.4682 152.773 38.4682 152.773 38.4682C152.773 38.4682 152.773 38.4682 152.773 38.4682C152.773 38.4682 152.773 38.4682 152.773 38.4682C152.773 38.4682 152.773 38.4682 152.773 38.4682C152.773 38.4682 152.773 38.4682 152.773 38.4682C152.773 38.4682 152.773 38.4682 152.773 38.4682C152.773 38.4682 152.773 38.4682 152.773 38.4682C152.773 38.4682 152.773 38.4682 152.773 38.4682C152.773 38.4682 152.773 38.4682 152.773 38.4682C152.773 38.4682 152.773 38.4682 152.773 38.4682C152.773 38.4682 152.773 38.4682 152.773 38.4682C152.773 38.4682 152.773 38.4682 152.773 38.4682C152.773 38.4682 152.773 38.4682 152.773 38.4682C152.773 38.4682 152.773 38.4682 152.773 38.4682C152.773 38.4682 152.773 38.4682 152.773 38.4682C152.773 38.4682 152.773 38.4682 152.773 38.4682C152.773 38.4682 152.773 38.4682 152.773 38.4682H152.773H152.773H152.773H152.773H152.773H152.773H152.773H152.773H152.773H152.773H152.773C152.773 38.4682 152.773 38.4682 152.773 38.4682C152.773 38.4682 152.773 38.4682 152.773 38.4682C152.773 38.4682 152.773 38.4682 152.773 38.4682C152.773 38.4682 152.773 38.4682 152.773 38.4682C152.773 38.4682 152.773 38.4682 152.773 38.4682C152.773 38.4682 152.773 38.4682 152.773 38.4682C152.773 38.4682 152.773 38.4682 152.773 38.4682C152.773 38.4682 152.773 38.4682 152.773 38.4682C152.773 38.4682 152.773 38.4682 152.773 38.4682C152.773 38.4682 152.773 38.4682 152.773 38.4682C152.773 38.4682 152.773 38.4682 152.773 38.4682C152.773 38.4682 152.773 38.4682 152.773 38.4682C152.773 38.4682 152.773 38.4682 152.773 38.4682C152.773 38.4682 152.773 38.4682 152.773 38.4682C152.773 38.4682 152.773 38.4682 152.773 38.4682C152.773 38.4682 152.773 38.4682 152.773 38.4682C152.773 38.4682 152.773 38.4682 152.773 38.4682C152.773 38.4682 152.773 38.4682 152.773 38.4682C152.773 38.4682 152.773 38.4682 152.773 38.4682C152.773 38.4682 152.773 38.4682 152.773 38.4682C152.773 38.4682 152.773 38.4682 152.773 38.4682H152.773H152.773H152.773H152.773H152.773H152.773H152.773H152.773H152.773H152.773H152.773C152.773 38.4682 152.773 38.4682 152.773 38.4682C152.773 38.4682 152.773 38.4682 152.773 38.4682C152.773 38.4682 152.773 38.4682 152.773 38.4682C152.773 38.4682 152.773 38.4682 152.773 38.4682C152.773 38.4682 152.773 38.4682 152.773 38.4682C152.773 38.4682 152.773 38.4682 152.773 38.4682C152.773 38.4682 152.773 38.4682 152.773 38.4682C152.773 38.4682 152.773 38.4682 152.773 38.4682C152.773 38.4682 152.773 38.4682 152.773 38.4682C152.773 38.4682 152.773 38.4682 152.773 38.4682C152.773 38.4682 152.773 38.4682 152.773 38.4682C152.773 38.4682 152.773 38.4682 152.773 38.4682C152.773 38.4682 152.773 38.4682 152.773 38.4682C152.773 38.4682 152.773 38.4682 152.773 38.4682C152.773 38.4682 152.773 38.4682 152.773 38.4682C152.773 38.4682 152.773 38.4682 152.773 38.4682C152.773 38.4682 152.773 38.4682 152.773 38.4682C152.773 38.4682 152.773 38.4682 152.773 38.4682C152.773 38.4682 152.773 38.4682 152.773 38.4682C152.773 38.4682 152.773 38.4682 152.773 38.4682C152.773 38.4682 152.773 38.4682 152.773 38.4682C152.773 38.4682 152.773 38.4682 152.773 38.4682H152.773H152.773H152.773H152.773H152.773H152.773H152.773H152.773H152.773H152.773C152.773 38.4682 152.773 38.4682 152.773 38.4682C152.773 38.4682 152.773 38.4682 152.773 38.4682C152.773 38.4682 152.773 38.4682 152.773 38.4682C152.773 38.4682 152.773 38.4682 152.773 38.4682C152.773 38.4682 152.773 38.4682 152.773 38.4682C152.773 38.4682 152.773 38.4682 152.773 38.4682C152.773 38.4682 152.773 38.4682 152.773 38.4682C152.773 38.4682 152.773 38.4682 152.773 38.4682C152.773 38.4682 152.773 38.4682 152.773 38.4682C152.773 38.4682 152.773 38.4682 152.773 38.4682C152.773 38.4682 152.773 38.4682 152.773 38.4682V35.9165C152.773 35.9165 152.773 35.9165 152.773 35.9165C152.773 35.9165 152.773 35.9165 152.773 35.9165C152.773 35.9165 152.773 35.9165 152.773 35.9165C152.773 35.9165 152.773 35.9165 152.773 35.9165C152.773 35.9165 152.773 35.9165 152.773 35.9165C152.773 35.9165 152.773 35.9165 152.773 35.9165C152.773 35.9165 152.773 35.9165 152.773 35.9165C152.773 35.9165 152.773 35.9165 152.773 35.9165C152.773 35.9165 152.773 35.9165 152.773 35.9165C152.773 35.9165 152.773 35.9165 152.773 35.9165C152.773 35.9165 152.773 35.9165 152.773 35.9165H152.773H152.773H152.773H152.773H152.773H152.773H152.773H152.773H152.773H152.773C152.773 35.9165 152.773 35.9165 152.773 35.9165C152.773 35.9165 152.773 35.9165 152.773 35.9165C152.773 35.9165 152.773 35.9165 152.773 35.9165C152.773 35.9165 152.773 35.9165 152.773 35.9165C152.773 35.9165 152.773 35.9165 152.773 35.9165C152.773 35.9165 152.773 35.9165 152.773 35.9165C152.773 35.9165 152.773 35.9165 152.773 35.9165C152.773 35.9165 152.773 35.9165 152.773 35.9165C152.773 35.9165 152.773 35.9165 152.773 35.9165C152.773 35.9165 152.773 35.9165 152.773 35.9165C152.773 35.9165 152.773 35.9165 152.773 35.9165C152.773 35.9165 152.773 35.9165 152.773 35.9165C152.773 35.9165 152.773 35.9165 152.773 35.9165C152.773 35.9165 152.773 35.9165 152.773 35.9165C152.773 35.9165 152.773 35.9165 152.773 35.9165C152.773 35.9165 152.773 35.9165 152.773 35.9165C152.773 35.9165 152.773 35.9165 152.773 35.9165C152.773 35.9165 152.773 35.9165 152.773 35.9165C152.773 35.9165 152.773 35.9165 152.773 35.9165C152.773 35.9165 152.773 35.9165 152.773 35.9165C152.773 35.9165 152.773 35.9165 152.773 35.9165C152.773 35.9165 152.773 35.9165 152.773 35.9165H152.773H152.773H152.773H152.773H152.773H152.773H152.773H152.773H152.773H152.773H152.773C152.773 35.9165 152.773 35.9165 152.773 35.9165C152.773 35.9165 152.773 35.9165 152.773 35.9165C152.773 35.9165 152.773 35.9165 152.773 35.9165C152.773 35.9165 152.773 35.9165 152.773 35.9165C152.773 35.9165 152.773 35.9165 152.773 35.9165C152.773 35.9165 152.773 35.9165 152.773 35.9165C152.773 35.9165 152.773 35.9165 152.773 35.9165C152.773 35.9165 152.773 35.9165 152.773 35.9165C152.773 35.9165 152.773 35.9165 152.773 35.9165C152.773 35.9165 152.773 35.9165 152.773 35.9165C152.773 35.9165 152.773 35.9165 152.773 35.9165C152.773 35.9165 152.773 35.9165 152.773 35.9165C152.773 35.9165 152.773 35.9165 152.773 35.9165C152.773 35.9165 152.773 35.9165 152.773 35.9165C152.773 35.9165 152.773 35.9165 152.773 35.9165C152.773 35.9165 152.773 35.9165 152.773 35.9165C152.773 35.9165 152.773 35.9165 152.773 35.9165C152.773 35.9165 152.773 35.9165 152.773 35.9165C152.773 35.9165 152.773 35.9165 152.773 35.9165C152.773 35.9165 152.773 35.9165 152.773 35.9165C152.773 35.9165 152.773 35.9165 152.773 35.9165H152.773H152.773H152.773H152.773H152.773H152.773H152.773H152.773H152.773H152.773H152.773C152.773 35.9165 152.773 35.9165 152.773 35.9165C152.773 35.9165 152.773 35.9165 152.773 35.9165C152.773 35.9165 152.773 35.9165 152.773 35.9165C152.773 35.9165 152.773 35.9165 152.773 35.9165C152.773 35.9165 152.773 35.9165 152.773 35.9165C152.773 35.9165 152.773 35.9165 152.773 35.9165C152.773 35.9165 152.773 35.9165 152.773 35.9165C152.773 35.9165 152.773 35.9165 152.773 35.9165C152.773 35.9165 152.773 35.9165 152.773 35.9165C152.773 35.9165 152.773 35.9165 152.773 35.9165C152.773 35.9165 152.773 35.9165 152.773 35.9165C152.773 35.9165 152.773 35.9165 152.773 35.9165C152.773 35.9165 152.773 35.9165 152.773 35.9165C152.773 35.9165 152.773 35.9165 152.773 35.9165C152.773 35.9165 152.773 35.9165 152.773 35.9165C152.773 35.9165 152.773 35.9165 152.773 35.9165C152.773 35.9165 152.773 35.9165 152.773 35.9165C152.773 35.9165 152.773 35.9165 152.773 35.9165C152.773 35.9165 152.773 35.9165 152.773 35.9165C152.773 35.9165 152.773 35.9165 152.773 35.9165C152.773 35.9165 152.773 35.9165 152.773 35.9165H152.773H152.773H152.773H152.773H152.773H152.773H152.773H152.773H152.773H152.773H152.773C152.773 35.9165 152.773 35.9165 152.773 35.9165C152.773 35.9165 152.773 35.9165 152.773 35.9165C152.773 35.9165 152.773 35.9165 152.773 35.9165C152.773 35.9165 152.773 35.9165 152.773 35.9165C152.773 35.9165 152.773 35.9165 152.773 35.9165C152.773 35.9165 152.773 35.9165 152.773 35.9165C152.773 35.9165 152.773 35.9165 152.773 35.9165C152.773 35.9165 152.773 35.9165 152.773 35.9165C152.773 35.9165 152.773 35.9165 152.773 35.9165C152.773 35.9165 152.773 35.9165 152.773 35.9165C152.773 35.9165 152.773 35.9165 152.773 35.9165V38.4682ZM151.498 37.1924V42.8492H154.049V37.1924H151.498ZM151.498 42.8492C151.498 46.6781 154.602 49.782 158.43 49.782V47.2303C156.011 47.2303 154.049 45.2688 154.049 42.8492H151.498ZM158.43 49.782H182.755V47.2303H158.43V49.782ZM182.755 49.782C186.584 49.782 189.688 46.6781 189.688 42.8492H187.136C187.136 45.2688 185.175 47.2303 182.755 47.2303V49.782ZM189.688 42.8492V37.1924H187.136V42.8492H189.688ZM188.412 35.9165H188.412V38.4682H188.412V35.9165ZM188.412 35.9165C185.524 35.9165 183.182 33.5751 183.182 30.6869H180.631C180.631 34.9844 184.115 38.4682 188.412 38.4682V35.9165ZM183.182 30.6869C183.182 27.7986 185.524 25.4572 188.412 25.4572V22.9055C184.115 22.9055 180.631 26.3894 180.631 30.6869H183.182ZM188.412 25.4572H188.412V22.9055H188.412V25.4572ZM189.688 24.1814V18.5243H187.136V24.1814H189.688ZM189.688 18.5243C189.688 14.6955 186.584 11.5916 182.755 11.5916V14.1432C185.175 14.1432 187.136 16.1047 187.136 18.5243H189.688ZM182.755 11.5916H176.25V14.1432H182.755V11.5916Z" fill="#171717" mask="url(#path-9-inside-1_257_990)"/>
<circle cx="162.673" cy="23.8987" r="4.24271" fill="white"/>
<circle cx="161.097" cy="23.7772" r="2.66685" fill="#171717"/>
<circle cx="172.128" cy="23.8982" r="4.24271" fill="white"/>
<circle cx="170.553" cy="23.7772" r="2.66685" fill="#171717"/>
<circle cx="167.482" cy="28.4241" r="1.13139" fill="#171717"/>
</svg>
