<svg width="27" height="27" viewBox="0 0 27 27" fill="none" xmlns="http://www.w3.org/2000/svg">
<ellipse cx="13.3366" cy="14.879" rx="10.3365" ry="7.95114" fill="#FFE6E4"/>
<ellipse cx="7.78085" cy="8.64635" rx="3.66319" ry="3.36217" transform="rotate(-26.5927 7.78085 8.64635)" fill="#FFE6E4"/>
<ellipse cx="3.66319" cy="3.36217" rx="3.66319" ry="3.36217" transform="matrix(-0.894211 -0.447645 -0.447645 0.894211 23.6027 7.27966)" fill="#FFE6E4"/>
<ellipse cx="11.2249" cy="14.3475" rx="0.795371" ry="1.06049" fill="#FF6F61"/>
<ellipse cx="15.4653" cy="14.3475" rx="0.795371" ry="1.06049" fill="#FF6F61"/>
<ellipse cx="13.3445" cy="15.4076" rx="0.530247" ry="0.795371" transform="rotate(90 13.3445 15.4076)" fill="#FF6F61"/>
<path d="M9.63379 7.52219C9.33681 7.08269 8.86688 6.78627 8.32738 6.69814C7.78788 6.61001 7.22301 6.7374 6.75702 7.05227C6.29103 7.36714 5.9621 7.84371 5.84259 8.37714C5.72308 8.91056 5.82277 9.45715 6.11975 9.89665L7.87677 8.70942L9.63379 7.52219Z" fill="#F5CDCA"/>
<path d="M17 7.52244C17.297 7.08293 17.7669 6.78651 18.3064 6.69839C18.8459 6.61026 19.4108 6.73764 19.8768 7.05252C20.3428 7.36739 20.6717 7.84396 20.7912 8.37738C20.9107 8.91081 20.811 9.45739 20.514 9.8969L18.757 8.70967L17 7.52244Z" fill="#F5CDCA"/>
</svg>
