<svg width="27" height="27" viewBox="0 0 27 27" fill="none" xmlns="http://www.w3.org/2000/svg">
<path fill-rule="evenodd" clip-rule="evenodd" d="M6.19873 5.73449C6.19873 4.22427 7.42301 3 8.93323 3C10.4434 3 11.6677 4.22428 11.6677 5.7345V10.511C12.2053 10.4574 12.7568 10.4295 13.3188 10.4295C13.9168 10.4295 14.5029 10.4611 15.073 10.5216V5.7345C15.073 4.22428 16.2972 3.00001 17.8075 3.00001C19.3177 3.00001 20.5419 4.22428 20.5419 5.7345V12.2583C22.4524 13.4194 23.6377 15.0375 23.6377 16.8272C23.6377 20.3606 19.0178 23.2249 13.3188 23.2249C7.61991 23.2249 3 20.3606 3 16.8272C3 15.0056 4.22799 13.3617 6.19873 12.1966V5.73449Z" fill="#FFE6E4"/>
<rect x="7.43701" y="4.4447" width="2.78609" height="6.91363" rx="1.39304" fill="#F5CDCA"/>
<rect x="16.4144" y="4.4447" width="2.78609" height="6.91363" rx="1.39304" fill="#F5CDCA"/>
<ellipse cx="11.2248" cy="14.7921" rx="0.795371" ry="1.06049" fill="#FF6F61"/>
<ellipse cx="15.4652" cy="14.7921" rx="0.795371" ry="1.06049" fill="#FF6F61"/>
<ellipse cx="13.3445" cy="15.8521" rx="0.530247" ry="0.795371" transform="rotate(90 13.3445 15.8521)" fill="#FF6F61"/>
<path d="M8.46313 17.4923L4.99999 18.8473" stroke="#FF6F61" stroke-width="0.619131" stroke-linecap="round"/>
<path d="M8.46631 16.355L5.00317 15" stroke="#FF6F61" stroke-width="0.619131" stroke-linecap="round"/>
<path d="M18.4701 17.4923L21.9332 18.8473" stroke="#FF6F61" stroke-width="0.619131" stroke-linecap="round"/>
<path d="M18.4663 16.355L21.9294 15" stroke="#FF6F61" stroke-width="0.619131" stroke-linecap="round"/>
</svg>
