<svg width="27" height="27" viewBox="0 0 27 27" fill="none" xmlns="http://www.w3.org/2000/svg">
<path fill-rule="evenodd" clip-rule="evenodd" d="M6.80154 4.49327C6.83042 4.08624 7.28908 3.86311 7.62715 4.09163L12.0551 7.08481C12.6257 7.00971 13.2122 6.9706 13.8106 6.9706C14.2565 6.9706 14.6958 6.99232 15.1268 7.03445L19.4803 4.09163C19.8183 3.86311 20.277 4.08624 20.3059 4.49327L20.6214 8.94054C22.7825 10.3979 24.1471 12.5372 24.1471 14.9217C24.1471 19.313 19.5193 22.8729 13.8106 22.8729C8.10192 22.8729 3.47412 19.313 3.47412 14.9217C3.47412 12.7431 4.6132 10.7692 6.45821 9.33301L6.80154 4.49327Z" fill="#FFE6E4"/>
<ellipse cx="11.6909" cy="14.392" rx="0.795371" ry="1.06049" fill="#FF6F61"/>
<ellipse cx="15.9312" cy="14.392" rx="0.795371" ry="1.06049" fill="#FF6F61"/>
<ellipse cx="13.8106" cy="15.4521" rx="0.530247" ry="0.795371" transform="rotate(90 13.8106 15.4521)" fill="#FF6F61"/>
<path d="M8.96313 16.4923L5.49999 17.8473" stroke="#FF6F61" stroke-width="0.619131" stroke-linecap="round"/>
<path d="M8.96631 15.355L5.50317 14" stroke="#FF6F61" stroke-width="0.619131" stroke-linecap="round"/>
<path d="M18.9701 16.4923L22.4332 17.8473" stroke="#FF6F61" stroke-width="0.619131" stroke-linecap="round"/>
<path d="M18.9663 15.355L22.4294 14" stroke="#FF6F61" stroke-width="0.619131" stroke-linecap="round"/>
<path d="M7.49596 5.51248C7.50655 5.27888 7.76846 5.14668 7.96269 5.27688L10.925 7.26268C11.1157 7.39047 11.098 7.67627 10.8932 7.77969L7.76922 9.35657C7.56435 9.45998 7.32395 9.30442 7.33435 9.07516L7.49596 5.51248Z" fill="#F5CDCA"/>
<path d="M19.7809 5.51248C19.7703 5.27888 19.5084 5.14668 19.3142 5.27688L16.3518 7.26268C16.1612 7.39047 16.1788 7.67627 16.3837 7.77969L19.5076 9.35657C19.7125 9.45998 19.9529 9.30442 19.9425 9.07516L19.7809 5.51248Z" fill="#F5CDCA"/>
</svg>
