<svg width="27" height="27" viewBox="0 0 27 27" fill="none" xmlns="http://www.w3.org/2000/svg">
<ellipse cx="13.2671" cy="6.16696" rx="2.83768" ry="2.16696" fill="#FF6F61"/>
<ellipse cx="17.2915" cy="7.61154" rx="2.83768" ry="2.16696" fill="#FF6F61"/>
<ellipse cx="19.6648" cy="9.77853" rx="2.83768" ry="2.16696" fill="#FF6F61"/>
<ellipse cx="13.3364" cy="14.1181" rx="10.3365" ry="7.95114" fill="#FFE6E4"/>
<path d="M11.9415 16.2587C11.9821 16.3214 12.0739 16.3214 12.1146 16.2587L12.8011 15.2006C12.8456 15.132 12.7963 15.0413 12.7145 15.0413H11.3416C11.2597 15.0413 11.2105 15.132 11.255 15.2006L11.9415 16.2587Z" fill="white"/>
<path d="M14.5213 16.2587C14.562 16.3214 14.6537 16.3214 14.6944 16.2587L15.3809 15.2006C15.4254 15.132 15.3762 15.0413 15.2943 15.0413H13.9214C13.8396 15.0413 13.7903 15.132 13.8348 15.2006L14.5213 16.2587Z" fill="white"/>
<ellipse cx="11.0185" cy="12.7996" rx="0.795371" ry="1.06049" fill="#FF6F61"/>
<ellipse cx="15.2587" cy="12.7996" rx="0.795371" ry="1.06049" fill="#FF6F61"/>
<ellipse cx="13.1381" cy="13.8597" rx="0.530247" ry="0.795371" transform="rotate(90 13.1381 13.8597)" fill="#FF6F61"/>
</svg>
