<svg width="27" height="27" viewBox="0 0 27 27" fill="none" xmlns="http://www.w3.org/2000/svg">
<path fill-rule="evenodd" clip-rule="evenodd" d="M6.078 6.17144C6.35749 5.05999 7.7059 4.62716 8.58006 5.3683L13.8157 9.80724L19.0513 5.3683C19.9255 4.62716 21.2739 5.05999 21.5534 6.17144L23.919 15.579C24.1195 16.2323 23.9103 17.0108 23.165 17.4055L14.5871 21.9485C14.134 22.1885 13.5914 22.1885 13.1382 21.9485L4.67161 17.4644C3.97137 17.207 3.49312 16.451 3.69951 15.6302L6.078 6.17144Z" fill="#FFE6E4"/>
<ellipse cx="11.6698" cy="13.3834" rx="0.795371" ry="1.06049" fill="#FF6F61"/>
<ellipse cx="15.91" cy="13.3834" rx="0.795371" ry="1.06049" fill="#FF6F61"/>
<ellipse cx="13.7954" cy="14.5304" rx="0.530247" ry="0.795371" transform="rotate(90 13.7954 14.5304)" fill="#FF6F61"/>
<path d="M7.36438 7.3443C7.45938 6.9723 7.90604 6.82154 8.20704 7.05989L10.5575 8.92112C10.8871 9.18209 10.7963 9.70449 10.398 9.83892L7.30565 10.8826C6.90734 11.0171 6.51853 10.6565 6.62254 10.2492L7.36438 7.3443Z" fill="#F5CDCA"/>
<path d="M20.1982 7.3443C20.1032 6.9723 19.6566 6.82154 19.3556 7.05989L17.0051 8.92112C16.6755 9.18209 16.7663 9.70449 17.1647 9.83892L20.257 10.8826C20.6553 11.0171 21.0441 10.6565 20.9401 10.2492L20.1982 7.3443Z" fill="#F5CDCA"/>
</svg>
