<svg width="62" height="62" viewBox="0 0 62 62" fill="none" xmlns="http://www.w3.org/2000/svg">
<g clip-path="url(#clip0_2384_5478)">
<rect x="1" y="1" width="60" height="60" rx="30" fill="#F3F3F6"/>
<ellipse cx="30.6" cy="48.3709" rx="25.267" ry="19.4361" fill="#FFE6E4"/>
<ellipse cx="17.0192" cy="33.1355" rx="8.95447" ry="8.21865" transform="rotate(-26.5927 17.0192 33.1355)" fill="#FFE6E4"/>
<ellipse cx="8.95447" cy="8.21865" rx="8.95447" ry="8.21865" transform="matrix(-0.894211 -0.447645 -0.447645 0.894211 55.6948 29.7947)" fill="#FFE6E4"/>
<ellipse cx="25.4389" cy="47.0717" rx="1.94424" ry="2.59232" fill="#FF6F61"/>
<ellipse cx="35.8041" cy="47.0717" rx="1.94424" ry="2.59232" fill="#FF6F61"/>
<ellipse cx="30.6207" cy="49.6631" rx="1.29616" ry="1.94424" transform="rotate(90 30.6207 49.6631)" fill="#FF6F61"/>
<path d="M21.5492 30.3876C20.8233 29.3132 19.6745 28.5886 18.3558 28.3732C17.037 28.1578 15.6562 28.4692 14.5171 29.2389C13.378 30.0086 12.574 31.1735 12.2818 32.4774C11.9897 33.7814 12.2334 35.1175 12.9593 36.1918L17.2543 33.2897L21.5492 30.3876Z" fill="#F5CDCA"/>
<path d="M39.5558 30.3882C40.2817 29.3138 41.4304 28.5893 42.7492 28.3738C44.068 28.1584 45.4488 28.4698 46.5879 29.2395C47.727 30.0092 48.531 31.1741 48.8232 32.478C49.1153 33.782 48.8716 35.1181 48.1456 36.1924L43.8507 33.2903L39.5558 30.3882Z" fill="#F5CDCA"/>
</g>
<rect x="1" y="1" width="60" height="60" rx="30" stroke="#D5D5DE"/>
<defs>
<clipPath id="clip0_2384_5478">
<rect x="1" y="1" width="60" height="60" rx="30" fill="white"/>
</clipPath>
</defs>
</svg>
