<svg width="62" height="62" viewBox="0 0 62 62" fill="none" xmlns="http://www.w3.org/2000/svg">
<g clip-path="url(#clip0_2384_5472)">
<rect x="1" y="1" width="60" height="60" rx="30" fill="#F3F3F6"/>
<path d="M45.6182 22.0017C46.4445 21.4431 47.5661 21.9892 47.6367 22.9841L48.4072 33.8562C53.6901 37.4186 57.0264 42.6476 57.0264 48.4763C57.0261 59.2104 45.7132 67.9119 31.7588 67.9119C17.8046 67.9117 6.49251 59.2103 6.49219 48.4763C6.49219 43.1511 9.2765 38.3257 13.7861 34.8152L14.626 22.9841C14.6966 21.9892 15.8182 21.4431 16.6445 22.0017L27.4697 29.3191C28.8638 29.1357 30.2968 29.0398 31.7588 29.0398C32.8484 29.0398 33.9224 29.0921 34.9756 29.1951L45.6182 22.0017Z" fill="#FFE6E4"/>
<ellipse cx="26.5775" cy="47.1806" rx="1.94424" ry="2.59232" fill="#FF6F61"/>
<ellipse cx="36.9428" cy="47.1806" rx="1.94424" ry="2.59232" fill="#FF6F61"/>
<ellipse cx="31.7594" cy="49.7719" rx="1.29616" ry="1.94424" transform="rotate(90 31.7594 49.7719)" fill="#FF6F61"/>
<path d="M19.9102 52.3146L11.4447 55.6267" stroke="#FF6F61" stroke-width="1.51343" stroke-linecap="round"/>
<path d="M19.9175 49.5344L11.452 46.2223" stroke="#FF6F61" stroke-width="1.51343" stroke-linecap="round"/>
<path d="M44.3716 52.3146L52.837 55.6267" stroke="#FF6F61" stroke-width="1.51343" stroke-linecap="round"/>
<path d="M44.3618 49.5344L52.8273 46.2223" stroke="#FF6F61" stroke-width="1.51343" stroke-linecap="round"/>
<path d="M16.3233 25.4748C16.3492 24.9038 16.9895 24.5807 17.4643 24.8989L24.7055 29.7531C25.1715 30.0655 25.1284 30.7641 24.6276 31.0169L16.9913 34.8715C16.4905 35.1243 15.9029 34.744 15.9283 34.1836L16.3233 25.4748Z" fill="#F5CDCA"/>
<path d="M46.3534 25.4748C46.3275 24.9038 45.6873 24.5807 45.2125 24.8989L37.9713 29.7531C37.5053 30.0655 37.5483 30.7641 38.0491 31.0169L45.6854 34.8715C46.1862 35.1243 46.7739 34.744 46.7485 34.1836L46.3534 25.4748Z" fill="#F5CDCA"/>
</g>
<rect x="1" y="1" width="60" height="60" rx="30" stroke="#D5D5DE"/>
<defs>
<clipPath id="clip0_2384_5472">
<rect x="1" y="1" width="60" height="60" rx="30" fill="white"/>
</clipPath>
</defs>
</svg>
