<svg width="62" height="62" viewBox="0 0 62 62" fill="none" xmlns="http://www.w3.org/2000/svg">
<g clip-path="url(#clip0_2384_5480)">
<rect x="1" y="1" width="60" height="60" rx="30" fill="#F3F3F6"/>
<ellipse cx="30.4312" cy="27.0748" rx="6.93656" ry="5.29701" fill="#FF6F61"/>
<ellipse cx="40.2671" cy="30.6061" rx="6.93656" ry="5.29701" fill="#FF6F61"/>
<ellipse cx="46.0694" cy="35.9031" rx="6.93656" ry="5.29701" fill="#FF6F61"/>
<ellipse cx="30.6" cy="46.5111" rx="25.267" ry="19.4361" fill="#FFE6E4"/>
<path d="M27.1905 51.7434C27.29 51.8967 27.5143 51.8967 27.6137 51.7434L29.2917 49.1571C29.4006 48.9893 29.2802 48.7676 29.0801 48.7676H25.7241C25.5241 48.7676 25.4036 48.9893 25.5125 49.1571L27.1905 51.7434Z" fill="white"/>
<path d="M33.4962 51.7434C33.5956 51.8967 33.8199 51.8967 33.9194 51.7434L35.5974 49.1571C35.7063 48.9893 35.5858 48.7676 35.3858 48.7676H32.0298C31.8297 48.7676 31.7093 48.9893 31.8182 49.1571L33.4962 51.7434Z" fill="white"/>
<ellipse cx="24.934" cy="43.288" rx="1.94424" ry="2.59232" fill="#FF6F61"/>
<ellipse cx="35.2992" cy="43.288" rx="1.94424" ry="2.59232" fill="#FF6F61"/>
<ellipse cx="30.1158" cy="45.8793" rx="1.29616" ry="1.94424" transform="rotate(90 30.1158 45.8793)" fill="#FF6F61"/>
</g>
<rect x="1" y="1" width="60" height="60" rx="30" stroke="#D5D5DE"/>
<defs>
<clipPath id="clip0_2384_5480">
<rect x="1" y="1" width="60" height="60" rx="30" fill="white"/>
</clipPath>
</defs>
</svg>
