<svg width="580" height="100" viewBox="0 0 580 100" fill="none" xmlns="http://www.w3.org/2000/svg">
<rect x="0.5" y="0.5" width="579" height="99" rx="4.5" stroke="#9747FF" stroke-dasharray="10 5"/>
<g clip-path="url(#clip0_2384_5471)">
<rect x="212" y="20" width="60" height="60" rx="30" fill="#F3F3F6"/>
<path d="M256.618 41.0017C257.445 40.4431 258.566 40.9892 258.637 41.9841L259.407 52.8562C264.69 56.4186 268.026 61.6476 268.026 67.4763C268.026 78.2104 256.713 86.9119 242.759 86.9119C228.805 86.9117 217.493 78.2103 217.492 67.4763C217.492 62.1511 220.276 57.3257 224.786 53.8152L225.626 41.9841C225.697 40.9892 226.818 40.4431 227.645 41.0017L238.47 48.3191C239.864 48.1357 241.297 48.0398 242.759 48.0398C243.848 48.0398 244.922 48.0921 245.976 48.1951L256.618 41.0017Z" fill="#FFE6E4"/>
<ellipse cx="237.578" cy="66.1806" rx="1.94424" ry="2.59232" fill="#FF6F61"/>
<ellipse cx="247.943" cy="66.1806" rx="1.94424" ry="2.59232" fill="#FF6F61"/>
<ellipse cx="242.759" cy="68.7719" rx="1.29616" ry="1.94424" transform="rotate(90 242.759 68.7719)" fill="#FF6F61"/>
<path d="M230.91 71.3146L222.445 74.6267" stroke="#FF6F61" stroke-width="1.51343" stroke-linecap="round"/>
<path d="M230.917 68.5344L222.452 65.2223" stroke="#FF6F61" stroke-width="1.51343" stroke-linecap="round"/>
<path d="M255.372 71.3146L263.837 74.6267" stroke="#FF6F61" stroke-width="1.51343" stroke-linecap="round"/>
<path d="M255.362 68.5344L263.827 65.2223" stroke="#FF6F61" stroke-width="1.51343" stroke-linecap="round"/>
<path d="M227.323 44.4748C227.349 43.9038 227.989 43.5807 228.464 43.8989L235.706 48.7531C236.171 49.0655 236.128 49.7641 235.628 50.0169L227.991 53.8715C227.491 54.1243 226.903 53.744 226.928 53.1836L227.323 44.4748Z" fill="#F5CDCA"/>
<path d="M257.353 44.4748C257.328 43.9038 256.687 43.5807 256.213 43.8989L248.971 48.7531C248.505 49.0655 248.548 49.7641 249.049 50.0169L256.685 53.8715C257.186 54.1243 257.774 53.744 257.748 53.1836L257.353 44.4748Z" fill="#F5CDCA"/>
</g>
<rect x="212" y="20" width="60" height="60" rx="30" stroke="#D5D5DE"/>
<g clip-path="url(#clip1_2384_5471)">
<rect x="308" y="20" width="60" height="60" rx="30" fill="#F3F3F6"/>
<path d="M351.569 44.1225C353.706 42.3109 357.002 43.3687 357.685 46.0854L363.483 69.144C363.941 70.7281 363.423 72.5937 361.624 73.5463L340.657 84.6518C339.549 85.2384 338.222 85.2384 337.115 84.6518L316.408 73.684C314.703 73.0507 313.539 71.2089 314.042 69.2074L319.857 46.0854C320.54 43.3687 323.836 42.3109 325.973 44.1225L338.771 54.9731L351.569 44.1225Z" fill="#FFE6E4"/>
<ellipse cx="333.525" cy="63.7149" rx="1.94424" ry="2.59232" fill="#FF6F61"/>
<ellipse cx="343.89" cy="63.7149" rx="1.94424" ry="2.59232" fill="#FF6F61"/>
<ellipse cx="338.721" cy="66.5187" rx="1.29616" ry="1.94424" transform="rotate(90 338.721 66.5187)" fill="#FF6F61"/>
<path d="M323.001 48.9526C323.234 48.0433 324.325 47.6748 325.061 48.2574L330.807 52.8071C331.612 53.445 331.39 54.722 330.417 55.0506L322.858 57.6019C321.884 57.9305 320.934 57.0492 321.188 56.0536L323.001 48.9526Z" fill="#F5CDCA"/>
<path d="M354.374 48.9526C354.141 48.0433 353.05 47.6748 352.314 48.2574L346.568 52.8071C345.763 53.445 345.985 54.722 346.958 55.0506L354.517 57.6019C355.491 57.9305 356.441 57.0492 356.187 56.0536L354.374 48.9526Z" fill="#F5CDCA"/>
</g>
<rect x="308" y="20" width="60" height="60" rx="30" stroke="#D5D5DE"/>
<g clip-path="url(#clip2_2384_5471)">
<rect x="20" y="20" width="60" height="60" rx="30" fill="#F3F3F6"/>
<path d="M60.5283 38.3334C64.22 38.3334 67.2129 41.3263 67.2129 45.0179V60.9652C71.8829 63.8035 74.7802 67.7584 74.7803 72.1332C74.7803 80.7702 63.4874 87.7719 49.5566 87.7719C35.6259 87.7718 24.333 80.7702 24.333 72.1332C24.3331 67.6801 27.3346 63.6611 32.1523 60.8129V45.0179C32.1523 41.3264 35.1444 38.3336 38.8359 38.3334C42.5276 38.3334 45.5205 41.3263 45.5205 45.0179V56.6947C46.8347 56.5637 48.1828 56.4945 49.5566 56.4945C51.018 56.4945 52.4504 56.5722 53.8438 56.7201V45.0179C53.8438 41.3263 56.8367 38.3334 60.5283 38.3334Z" fill="#FFE6E4"/>
<rect x="35.1792" y="41.8649" width="6.81044" height="16.9" rx="3.40522" fill="#F5CDCA"/>
<rect x="57.124" y="41.8649" width="6.81044" height="16.9" rx="3.40522" fill="#F5CDCA"/>
<ellipse cx="44.4374" cy="67.1584" rx="1.94424" ry="2.59232" fill="#FF6F61"/>
<ellipse cx="54.8022" cy="67.1584" rx="1.94424" ry="2.59232" fill="#FF6F61"/>
<ellipse cx="49.6187" cy="69.7496" rx="1.29616" ry="1.94424" transform="rotate(90 49.6187 69.7496)" fill="#FF6F61"/>
<path d="M37.688 73.759L29.2225 77.0712" stroke="#FF6F61" stroke-width="1.51343" stroke-linecap="round"/>
<path d="M37.6953 70.9789L29.2299 67.6667" stroke="#FF6F61" stroke-width="1.51343" stroke-linecap="round"/>
<path d="M62.1494 73.759L70.6149 77.0712" stroke="#FF6F61" stroke-width="1.51343" stroke-linecap="round"/>
<path d="M62.1396 70.9789L70.6051 67.6667" stroke="#FF6F61" stroke-width="1.51343" stroke-linecap="round"/>
</g>
<rect x="20" y="20" width="60" height="60" rx="30" stroke="#D5D5DE"/>
<g clip-path="url(#clip3_2384_5471)">
<rect x="116" y="20" width="60" height="60" rx="30" fill="#F3F3F6"/>
<ellipse cx="145.6" cy="67.3709" rx="25.267" ry="19.4361" fill="#FFE6E4"/>
<ellipse cx="132.019" cy="52.1355" rx="8.95447" ry="8.21865" transform="rotate(-26.5927 132.019 52.1355)" fill="#FFE6E4"/>
<ellipse cx="8.95447" cy="8.21865" rx="8.95447" ry="8.21865" transform="matrix(-0.894211 -0.447645 -0.447645 0.894211 170.695 48.7947)" fill="#FFE6E4"/>
<ellipse cx="140.439" cy="66.0717" rx="1.94424" ry="2.59232" fill="#FF6F61"/>
<ellipse cx="150.804" cy="66.0717" rx="1.94424" ry="2.59232" fill="#FF6F61"/>
<ellipse cx="145.621" cy="68.6631" rx="1.29616" ry="1.94424" transform="rotate(90 145.621 68.6631)" fill="#FF6F61"/>
<path d="M136.549 49.3876C135.823 48.3132 134.675 47.5886 133.356 47.3732C132.037 47.1578 130.656 47.4692 129.517 48.2389C128.378 49.0086 127.574 50.1735 127.282 51.4774C126.99 52.7814 127.233 54.1175 127.959 55.1918L132.254 52.2897L136.549 49.3876Z" fill="#F5CDCA"/>
<path d="M154.556 49.3882C155.282 48.3138 156.43 47.5893 157.749 47.3738C159.068 47.1584 160.449 47.4698 161.588 48.2395C162.727 49.0092 163.531 50.1741 163.823 51.478C164.115 52.782 163.872 54.1181 163.146 55.1924L158.851 52.2903L154.556 49.3882Z" fill="#F5CDCA"/>
</g>
<rect x="116" y="20" width="60" height="60" rx="30" stroke="#D5D5DE"/>
<g clip-path="url(#clip4_2384_5471)">
<rect x="404" y="20" width="60" height="60" rx="30" fill="#F3F3F6"/>
<ellipse cx="433.431" cy="46.0748" rx="6.93656" ry="5.29701" fill="#FF6F61"/>
<ellipse cx="443.267" cy="49.6061" rx="6.93656" ry="5.29701" fill="#FF6F61"/>
<ellipse cx="449.069" cy="54.9031" rx="6.93656" ry="5.29701" fill="#FF6F61"/>
<ellipse cx="433.6" cy="65.5111" rx="25.267" ry="19.4361" fill="#FFE6E4"/>
<path d="M430.191 70.7434C430.29 70.8967 430.514 70.8967 430.614 70.7434L432.292 68.1571C432.401 67.9893 432.28 67.7676 432.08 67.7676H428.724C428.524 67.7676 428.404 67.9893 428.512 68.1571L430.191 70.7434Z" fill="white"/>
<path d="M436.496 70.7434C436.596 70.8967 436.82 70.8967 436.919 70.7434L438.597 68.1571C438.706 67.9893 438.586 67.7676 438.386 67.7676H435.03C434.83 67.7676 434.709 67.9893 434.818 68.1571L436.496 70.7434Z" fill="white"/>
<ellipse cx="427.934" cy="62.288" rx="1.94424" ry="2.59232" fill="#FF6F61"/>
<ellipse cx="438.299" cy="62.288" rx="1.94424" ry="2.59232" fill="#FF6F61"/>
<ellipse cx="433.116" cy="64.8793" rx="1.29616" ry="1.94424" transform="rotate(90 433.116 64.8793)" fill="#FF6F61"/>
</g>
<rect x="404" y="20" width="60" height="60" rx="30" stroke="#D5D5DE"/>
<g clip-path="url(#clip5_2384_5471)">
<rect x="500" y="20" width="60" height="60" rx="30" fill="#F3F3F6"/>
<ellipse cx="529.6" cy="65.1034" rx="25.267" ry="19.4361" fill="#FFE6E4"/>
<ellipse cx="524.439" cy="63.8086" rx="1.94424" ry="2.59232" fill="#FF6F61"/>
<ellipse cx="534.805" cy="63.8086" rx="1.94424" ry="2.59232" fill="#FF6F61"/>
<ellipse cx="529.621" cy="66.3999" rx="1.29616" ry="1.94424" transform="rotate(90 529.621 66.3999)" fill="#FF6F61"/>
<ellipse cx="512.466" cy="51.791" rx="10.2168" ry="5.26292" transform="rotate(-20.9556 512.466 51.791)" fill="#FF6F61"/>
<ellipse cx="10.2168" cy="5.26292" rx="10.2168" ry="5.26292" transform="matrix(-0.933858 -0.357645 -0.357645 0.933858 558.958 50.5308)" fill="#FF6F61"/>
</g>
<rect x="500" y="20" width="60" height="60" rx="30" stroke="#D5D5DE"/>
<defs>
<clipPath id="clip0_2384_5471">
<rect x="212" y="20" width="60" height="60" rx="30" fill="white"/>
</clipPath>
<clipPath id="clip1_2384_5471">
<rect x="308" y="20" width="60" height="60" rx="30" fill="white"/>
</clipPath>
<clipPath id="clip2_2384_5471">
<rect x="20" y="20" width="60" height="60" rx="30" fill="white"/>
</clipPath>
<clipPath id="clip3_2384_5471">
<rect x="116" y="20" width="60" height="60" rx="30" fill="white"/>
</clipPath>
<clipPath id="clip4_2384_5471">
<rect x="404" y="20" width="60" height="60" rx="30" fill="white"/>
</clipPath>
<clipPath id="clip5_2384_5471">
<rect x="500" y="20" width="60" height="60" rx="30" fill="white"/>
</clipPath>
</defs>
</svg>
