<svg width="53" height="53" viewBox="0 0 53 53" fill="none" xmlns="http://www.w3.org/2000/svg">
<rect width="53" height="53" rx="26.5" fill="white"/>
<path d="M40.0076 13.81C40.175 13.7248 40.3536 13.9034 40.2684 14.0708L39.5872 15.4075C39.5491 15.4824 39.5635 15.5732 39.6229 15.6326L40.6838 16.6935C40.8165 16.8263 40.7018 17.0514 40.5164 17.022L39.0345 16.7873C38.9516 16.7742 38.8696 16.816 38.8315 16.8908L38.1504 18.2276C38.0651 18.3949 37.8156 18.3554 37.7862 18.1699L37.5515 16.688C37.5383 16.6051 37.4733 16.54 37.3903 16.5269L35.9085 16.2922C35.723 16.2628 35.6835 16.0133 35.8508 15.928L37.1876 15.2469C37.2624 15.2088 37.3042 15.1268 37.2911 15.0439L37.0564 13.562C37.027 13.3765 37.2521 13.2618 37.3849 13.3946L38.4458 14.4555C38.5052 14.5149 38.596 14.5293 38.6709 14.4912L40.0076 13.81Z" fill="#FF6F61"/>
<path d="M34.843 19.2352L31.66 22.4183" stroke="#FF6F61" stroke-width="1.18461" stroke-linecap="round"/>
<path d="M13.6786 40.1202L22.6134 16.3868L37.412 31.1854L13.6786 40.1202Z" fill="#FFE6E4"/>
<path fill-rule="evenodd" clip-rule="evenodd" d="M33.3668 32.7081L19.2312 25.3695L20.5763 21.7967L36.0628 29.8366L37.4116 31.1854L33.3668 32.7081Z" fill="#FF6F61"/>
<path fill-rule="evenodd" clip-rule="evenodd" d="M28.3287 34.6532L23.5597 36.4485L16.4903 32.7783L17.8354 29.2055L28.3287 34.6532Z" fill="#FF6F61"/>
<path d="M33.5036 24.5965C36.2958 22.3628 42.3827 19.1351 44.393 24.0939" stroke="#FF6F61" stroke-width="1.18461" stroke-linecap="round"/>
<path d="M29.4828 20.576C31.7166 17.7839 34.9443 11.697 29.9854 9.68664" stroke="#FF6F61" stroke-width="1.18461" stroke-linecap="round"/>
</svg>
