<svg width="130" height="26" viewBox="0 0 130 26" fill="none" xmlns="http://www.w3.org/2000/svg">
<path fill-rule="evenodd" clip-rule="evenodd" d="M71.2075 11.8625C70.5425 11.8082 69.5316 12.0806 68.6267 13.8145C66.7635 17.3852 67.5335 20.7569 68.007 22.8304C68.0368 22.961 68.0654 23.0865 68.0922 23.2066L64.966 23.913C64.9389 23.7915 64.9079 23.6579 64.8741 23.5129C64.3893 21.4283 63.3551 16.9808 65.7906 12.3134C67.1623 9.68476 69.2638 8.46631 71.4665 8.64625C72.8326 8.75784 74.0739 9.40091 75.0079 10.3225C75.528 10.0385 76.1032 9.79239 76.7392 9.59478C77.9427 9.22083 79.0662 9.17591 80.0793 9.45779C81.0948 9.74035 81.8833 10.3192 82.4636 11.0014C83.5776 12.3111 83.9784 14.0504 83.9548 15.2723C83.9004 18.0979 82.9712 21.142 82.1155 23.9456L82.0886 24.0338L79.0261 23.0858C79.9252 20.1396 80.7069 17.5227 80.7515 15.2096C80.7633 14.6005 80.5284 13.6862 80.0304 13.1007C79.8048 12.8354 79.5431 12.6563 79.2261 12.5681C78.9068 12.4792 78.4155 12.4508 77.6837 12.6782C77.2962 12.7986 76.9446 12.9449 76.6254 13.1123C76.7545 13.5518 76.8635 14.0246 76.9522 14.498C77.1397 15.4988 77.262 16.6409 77.265 17.7422C77.268 18.8169 77.1585 19.9795 76.8002 20.9517C76.447 21.9099 75.675 23.0859 74.1722 23.2533C73.6308 23.3136 72.5701 23.4258 71.663 22.7809C70.7169 22.1081 70.409 20.9811 70.2894 19.9137C70.2284 19.3692 70.1689 17.3973 70.9146 15.272C71.2502 14.3155 71.7571 13.3121 72.5045 12.3974C72.1118 12.0932 71.6543 11.899 71.2075 11.8625ZM73.973 16.2426C73.9602 16.2774 73.9477 16.3123 73.9354 16.3471C73.6681 17.1091 73.5433 17.8585 73.4915 18.4628C73.4659 18.7628 73.4588 19.0196 73.46 19.2147C73.4605 19.3121 73.4631 19.3921 73.4662 19.4523C73.4677 19.4824 73.4693 19.5064 73.4707 19.5242C73.4713 19.5331 73.4719 19.5399 73.4724 19.5448C73.4728 19.5492 73.473 19.5515 73.4731 19.5518L73.4731 19.5518C73.4995 19.788 73.5322 19.9549 73.5619 20.069C73.6 20.0668 73.6436 20.0635 73.6937 20.0589C73.7195 20.0144 73.7549 19.9419 73.7965 19.8288C73.9619 19.3801 74.0636 18.6605 74.0611 17.7511C74.0598 17.2571 74.0279 16.7439 73.973 16.2426ZM73.6472 20.1214C73.6468 20.1199 73.653 20.1116 73.6668 20.1009C73.6545 20.1176 73.6476 20.1229 73.6472 20.1214Z" fill="#FF6F61"/>
<path d="M125.227 13.6515C124.958 13.1839 124.6 12.7788 124.155 12.4362C123.71 12.0937 123.196 11.8673 122.614 11.757C122.05 11.6402 121.448 11.6989 120.81 11.9329C120.189 12.1605 119.67 12.5025 119.252 12.959C118.853 13.409 118.568 13.928 118.399 14.5159C118.223 15.0861 118.176 15.6496 118.257 16.2067L125.227 13.6515ZM127.135 10.6765C127.706 11.2561 128.157 11.9202 128.487 12.6688C128.829 13.393 129.093 14.0954 129.279 14.7758L129.376 15.0438L119.186 18.7789C119.488 19.3359 119.909 19.7783 120.449 20.1062C120.983 20.4163 121.556 20.611 122.167 20.6904C122.772 20.7519 123.349 20.6819 123.899 20.4804C124.803 20.1488 125.431 19.7467 125.783 19.2739C126.152 18.7947 126.379 18.3675 126.464 17.9923L126.481 17.9558L129.824 18.0352C129.728 19.1022 129.278 20.1369 128.475 21.1392C127.666 22.1237 126.49 22.8987 124.947 23.4643C123.599 23.9585 122.292 24.0936 121.026 23.8699C119.754 23.6283 118.628 23.0699 117.649 22.1948C116.67 21.3197 115.928 20.1855 115.425 18.7922C114.915 17.3811 114.756 16.0234 114.947 14.7192C115.132 13.3971 115.638 12.2406 116.465 11.2497C117.286 10.2409 118.37 9.48942 119.718 8.9953C121.048 8.50768 122.248 8.38145 123.317 8.61663C124.398 8.82744 125.248 9.15281 125.869 9.59276C126.49 10.0327 126.903 10.3972 127.108 10.6862L127.135 10.6765Z" fill="#FF6F61"/>
<path d="M113.727 23.2109C113.274 23.439 112.84 23.6006 112.425 23.6956C112.01 23.8097 111.434 23.8667 110.698 23.8667C109.792 23.8667 108.98 23.6576 108.263 23.2394C107.546 22.8022 106.989 22.1939 106.593 21.4145C106.196 20.6351 105.998 19.7512 105.998 18.7627V4.16348H109.848V18.7627C109.848 19.2379 109.962 19.6466 110.188 19.9888C110.434 20.331 110.736 20.5116 111.094 20.5306C111.547 20.5876 112.085 20.445 112.708 20.1029L112.736 20.0744L114.039 23.0683L113.727 23.2109ZM103.28 8.8398H113.671V11.9478H103.28V8.8398Z" fill="#FF6F61"/>
<path d="M93.4031 21.0154C94.1014 21.0154 94.7526 20.8158 95.3566 20.4166C95.9606 20.0174 96.4419 19.4661 96.8005 18.7628C97.1591 18.0594 97.3384 17.2801 97.3384 16.4246C97.3384 15.5882 97.1591 14.8183 96.8005 14.115C96.4419 13.4116 95.9606 12.8604 95.3566 12.4612C94.7526 12.062 94.1014 11.8624 93.4031 11.8624C92.6669 11.8624 92.0158 12.0525 91.4495 12.4327C90.9022 12.7938 90.468 13.3261 90.1472 14.0295C89.8452 14.7138 89.6942 15.5122 89.6942 16.4246C89.6942 17.3561 89.8452 18.1735 90.1472 18.8769C90.468 19.5612 90.9022 20.0935 91.4495 20.4736C92.0158 20.8348 92.6669 21.0154 93.4031 21.0154ZM101.189 23.8668L97.3384 23.8953V21.9849C96.9609 22.4601 96.5363 22.8593 96.0644 23.1825C95.6114 23.4866 95.1207 23.7147 94.5922 23.8668C94.0826 24.0379 93.5635 24.1235 93.035 24.1235C91.6383 24.1235 90.3925 23.8003 89.2978 23.154C88.2031 22.4886 87.3537 21.5762 86.7497 20.4166C86.1457 19.257 85.8438 17.9264 85.8438 16.4246C85.8438 14.9419 86.1457 13.6208 86.7497 12.4612C87.3537 11.3016 88.2031 10.3987 89.2978 9.75233C90.3925 9.08701 91.6383 8.75434 93.035 8.75434C93.8466 8.75434 94.6299 8.93493 95.3849 9.29611C96.1399 9.65729 96.7911 10.1896 97.3384 10.8929V8.69731H101.189V23.8668Z" fill="#FF6F61"/>
<path d="M62.3055 8.52623V24.0094H58.4551V8.52623H62.3055Z" fill="#FF6F61"/>
<path d="M55.8219 23.2109C55.3689 23.439 54.9348 23.6006 54.5195 23.6956C54.1043 23.8097 53.5286 23.8667 52.7925 23.8667C51.8865 23.8667 51.0749 23.6576 50.3577 23.2394C49.6404 22.8022 49.0836 22.1939 48.6873 21.4145C48.2909 20.6351 48.0927 19.7512 48.0927 18.7627V4.16348H51.9431V18.7627C51.9431 19.2379 52.0564 19.6466 52.2829 19.9888C52.5283 20.331 52.8303 20.5116 53.1889 20.5306C53.6419 20.5876 54.1798 20.445 54.8027 20.1029L54.831 20.0744L56.1333 23.0683L55.8219 23.2109ZM45.3748 8.8398H55.7653V11.9478H45.3748V8.8398Z" fill="#FF6F61"/>
<path d="M34.1887 18.9758C34.6228 19.489 35.1419 19.8977 35.7459 20.2019C36.3688 20.506 36.935 20.6581 37.4446 20.6581C38.1241 20.6581 38.6809 20.506 39.115 20.2019C39.5491 19.8787 39.7662 19.47 39.7662 18.9758C39.7662 18.7667 39.6624 18.5861 39.4548 18.434C39.266 18.2629 38.9829 18.1108 38.6054 17.9778C38.2468 17.8447 37.8315 17.7021 37.3597 17.5501C36.2649 17.2079 35.3495 16.8752 34.6134 16.5521C33.8962 16.2289 33.2639 15.7632 32.7165 15.1549C32.188 14.5276 31.9238 13.7387 31.9238 12.7882C31.9238 11.8948 32.1691 11.1059 32.6599 10.4215C33.1506 9.71818 33.8301 9.16691 34.6983 8.76771C35.5855 8.36851 36.5764 8.16891 37.6711 8.16891C38.596 8.16891 39.5303 8.38752 40.474 8.82474C41.4177 9.24295 42.1916 9.80372 42.7956 10.5071L40.3607 12.7312C40.0021 12.294 39.5774 11.9518 39.0867 11.7047C38.596 11.4385 38.1241 11.3055 37.6711 11.3055C37.1237 11.3055 36.6707 11.4385 36.3121 11.7047C35.9535 11.9518 35.7742 12.2845 35.7742 12.7027C35.7742 12.9308 35.878 13.1304 36.0856 13.3015C36.3121 13.4725 36.6141 13.6341 36.9916 13.7862C37.388 13.9193 37.8315 14.0618 38.3223 14.2139C39.3981 14.5561 40.2852 14.8887 40.9836 15.2119C41.7009 15.5161 42.3143 15.9723 42.8239 16.5806C43.3524 17.1699 43.6166 17.9302 43.6166 18.8617C43.6166 19.8312 43.3524 20.6866 42.8239 21.428C42.3143 22.1693 41.5876 22.7491 40.6439 23.1673C39.719 23.5855 38.6526 23.7947 37.4446 23.7947C36.4443 23.7947 35.4061 23.557 34.3303 23.0818C33.2733 22.6066 32.3956 21.9793 31.6973 21.1999L34.1887 18.9758Z" fill="#FF6F61"/>
<path d="M26.5088 14.8564C26.4144 14.3241 26.2162 13.8204 25.9142 13.3452C25.6122 12.8699 25.2064 12.4802 24.6968 12.1761C24.206 11.8719 23.6209 11.7198 22.9414 11.7198C22.2808 11.7198 21.6768 11.8624 21.1295 12.1476C20.601 12.4327 20.1574 12.8224 19.7988 13.3166C19.4402 13.7919 19.2043 14.3051 19.091 14.8564H26.5088ZM29.3117 12.7178C29.6514 13.4592 29.8496 14.2386 29.9062 15.056C29.9817 15.8544 29.9911 16.6053 29.9345 17.3086V17.5938H19.091C19.1854 18.2211 19.4307 18.7818 19.8271 19.2761C20.2235 19.7513 20.6954 20.1315 21.2427 20.4167C21.7901 20.6828 22.3563 20.8159 22.9414 20.8159C23.9041 20.8159 24.6307 20.6543 25.1215 20.3311C25.6311 20.008 25.9897 19.6848 26.1973 19.3616L26.2256 19.3331L29.34 20.5592C28.887 21.5287 28.1131 22.3461 27.0184 23.0114C25.9236 23.6578 24.5552 23.9809 22.9131 23.9809C21.4787 23.9809 20.2046 23.6578 19.091 23.0114C17.9774 22.3461 17.1092 21.4337 16.4863 20.2741C15.8634 19.1145 15.552 17.7934 15.552 16.3106C15.552 14.8089 15.8634 13.4782 16.4863 12.3186C17.1092 11.1401 17.9774 10.2276 19.091 9.58129C20.2046 8.91596 21.4787 8.58329 22.9131 8.58329C24.3287 8.58329 25.499 8.87794 26.4238 9.46723C27.3676 10.0375 28.0565 10.6363 28.4906 11.2636C28.9247 11.8909 29.189 12.3757 29.2833 12.7178H29.3117Z" fill="#FF6F61"/>
<path d="M15.0903 5.81749H3.85044V11.5203H13.335V14.8279H3.85044V23.8954H0V2.50985H15.0903V5.81749Z" fill="#FF6F61"/>
<ellipse cx="60.3723" cy="5.26485" rx="1.92236" ry="1.93608" fill="#FF6F61"/>
</svg>
