<svg width="62" height="62" viewBox="0 0 62 62" fill="none" xmlns="http://www.w3.org/2000/svg">
<g clip-path="url(#clip0_2384_5474)">
<rect x="1" y="1" width="60" height="60" rx="30" fill="#F3F3F6"/>
<path d="M44.5688 25.1225C46.7055 23.3109 50.0017 24.3687 50.685 27.0854L56.4828 50.144C56.9414 51.7281 56.4231 53.5937 54.6245 54.5463L33.6567 65.6518C32.549 66.2384 31.2224 66.2384 30.1147 65.6518L9.40765 54.684C7.70258 54.0507 6.53936 52.2089 7.04242 50.2074L12.8569 27.0854C13.5402 24.3687 16.8363 23.3109 18.9731 25.1225L31.7709 35.9731L44.5688 25.1225Z" fill="#FFE6E4"/>
<ellipse cx="26.5253" cy="44.7149" rx="1.94424" ry="2.59232" fill="#FF6F61"/>
<ellipse cx="36.89" cy="44.7149" rx="1.94424" ry="2.59232" fill="#FF6F61"/>
<ellipse cx="31.7208" cy="47.5187" rx="1.29616" ry="1.94424" transform="rotate(90 31.7208 47.5187)" fill="#FF6F61"/>
<path d="M16.0014 29.9526C16.2336 29.0433 17.3255 28.6748 18.0612 29.2574L23.8069 33.8071C24.6125 34.445 24.3905 35.722 23.4168 36.0506L15.8578 38.6019C14.8842 38.9305 13.9338 38.0492 14.188 37.0536L16.0014 29.9526Z" fill="#F5CDCA"/>
<path d="M47.3736 29.9526C47.1414 29.0433 46.0495 28.6748 45.3138 29.2574L39.5681 33.8071C38.7625 34.445 38.9845 35.722 39.9582 36.0506L47.5172 38.6019C48.4908 38.9305 49.4412 38.0492 49.187 37.0536L47.3736 29.9526Z" fill="#F5CDCA"/>
</g>
<rect x="1" y="1" width="60" height="60" rx="30" stroke="#D5D5DE"/>
<defs>
<clipPath id="clip0_2384_5474">
<rect x="1" y="1" width="60" height="60" rx="30" fill="white"/>
</clipPath>
</defs>
</svg>
