<svg width="53" height="53" viewBox="0 0 53 53" fill="none" xmlns="http://www.w3.org/2000/svg">
<rect width="53" height="53" rx="26.5" fill="white"/>
<path d="M38.5189 18.6336C38.4472 18.6539 38.375 18.6763 38.3041 18.7035C37.0277 19.1942 36.3912 20.6268 36.8816 21.9033C37.3721 23.1798 38.8042 23.8174 40.0808 23.3271C40.1517 23.2998 40.2202 23.2681 40.2871 23.2352L42.0677 27.8688L14.3293 38.5277L12.5488 33.8941C13.686 33.3352 14.2291 31.9916 13.7658 30.7859C13.3025 29.5802 11.9991 28.945 10.7802 29.2916L9 24.6589L36.7384 14L38.5189 18.6336Z" fill="#D5D5DE"/>
<path d="M44.2188 28.869C44.1445 28.8623 44.0692 28.8583 43.9932 28.8583C42.6257 28.8584 41.5167 29.9664 41.5166 31.3339C41.5166 32.7014 42.6256 33.8103 43.9932 33.8104C44.0692 33.8104 44.1445 33.8054 44.2188 33.7987V38.7626H14.5029V33.7987C15.7649 33.6849 16.7539 32.6255 16.7539 31.3339C16.7538 30.0423 15.7649 28.9828 14.5029 28.869V23.9052H44.2188V28.869Z" fill="#F3F3F6"/>
<rect x="14.5029" y="23.9052" width="29.7156" height="2.70142" fill="#7B7C87"/>
<path d="M28.9326 29.2751C29.0673 28.8603 29.6542 28.8603 29.789 29.2751L30.2705 30.7572C30.3308 30.9427 30.5037 31.0683 30.6987 31.0683H32.2571C32.6932 31.0683 32.8746 31.6265 32.5217 31.8828L31.261 32.7988C31.1032 32.9134 31.0371 33.1167 31.0974 33.3022L31.579 34.7843C31.7138 35.1991 31.239 35.544 30.8861 35.2876L29.6254 34.3717C29.4676 34.257 29.2539 34.257 29.0961 34.3717L27.8354 35.2876C27.4825 35.544 27.0078 35.1991 27.1425 34.7843L27.6241 33.3022C27.6844 33.1167 27.6183 32.9134 27.4605 32.7988L26.1998 31.8828C25.8469 31.6265 26.0283 31.0683 26.4644 31.0683H28.0228C28.2179 31.0683 28.3907 30.9427 28.451 30.7572L28.9326 29.2751Z" fill="#7B7C87"/>
</svg>
