<svg width="53" height="53" viewBox="0 0 53 53" fill="none" xmlns="http://www.w3.org/2000/svg">
<rect width="53" height="53" rx="26.5" fill="white"/>
<path d="M40.0076 13.8101C40.175 13.7248 40.3536 13.9035 40.2684 14.0708L39.5872 15.4076C39.5491 15.4824 39.5635 15.5733 39.6229 15.6326L40.6838 16.6935C40.8165 16.8263 40.7018 17.0514 40.5164 17.0221L39.0345 16.7874C38.9516 16.7742 38.8696 16.816 38.8315 16.8908L38.1504 18.2276C38.0651 18.3949 37.8156 18.3554 37.7862 18.1699L37.5515 16.6881C37.5383 16.6051 37.4733 16.5401 37.3903 16.5269L35.9085 16.2922C35.723 16.2629 35.6835 16.0133 35.8508 15.9281L37.1876 15.2469C37.2624 15.2088 37.3042 15.1268 37.2911 15.0439L37.0564 13.5621C37.027 13.3766 37.2521 13.2619 37.3849 13.3947L38.4458 14.4555C38.5052 14.5149 38.596 14.5293 38.6709 14.4912L40.0076 13.8101Z" fill="#7B7C87"/>
<path d="M34.8428 19.2352L31.6597 22.4183" stroke="#7B7C87" stroke-width="1.18461" stroke-linecap="round"/>
<path d="M13.6783 40.1203L22.6131 16.3869L37.4118 31.1855L13.6783 40.1203Z" fill="#F3F3F6"/>
<path d="M33.3665 32.7072L19.232 25.3689L20.5771 21.796L36.0631 29.8366L37.4117 31.1852L33.3665 32.7072Z" fill="#7B7C87"/>
<path d="M23.5592 36.4483L16.4902 32.7781L17.8354 29.2053L28.3281 34.6529L23.5592 36.4483Z" fill="#7B7C87"/>
<path d="M33.5036 24.5965C36.2958 22.3628 42.3827 19.135 44.393 24.0939" stroke="#7B7C87" stroke-width="1.18461" stroke-linecap="round"/>
<path d="M29.4826 20.576C31.7163 17.7838 34.9441 11.6969 29.9852 9.68658" stroke="#7B7C87" stroke-width="1.18461" stroke-linecap="round"/>
</svg>
