<svg width="43" height="43" viewBox="0 0 43 43" fill="none" xmlns="http://www.w3.org/2000/svg">
<path fill-rule="evenodd" clip-rule="evenodd" d="M4 19.6589L31.7382 9.0001L33.5183 13.6326C33.4467 13.6529 33.3754 13.6766 33.3046 13.7039C32.0279 14.1944 31.3907 15.627 31.8813 16.9036C32.3718 18.1802 33.8044 18.8174 35.081 18.3269C35.1518 18.2997 35.2207 18.2696 35.2875 18.2367L37.0676 22.8692L9.32942 33.528L7.54929 28.8955C8.68663 28.3366 9.22939 26.9917 8.76605 25.7859C8.30271 24.5801 6.99899 23.9447 5.78006 24.2913L4 19.6589Z" fill="#E6E6EB"/>
<path fill-rule="evenodd" clip-rule="evenodd" d="M9.50293 18.9052H39.2185V23.8679C39.1444 23.8612 39.0692 23.8578 38.9933 23.8578C37.6257 23.8578 36.517 24.9665 36.517 26.3341C36.517 27.7017 37.6257 28.8104 38.9933 28.8104C39.0692 28.8104 39.1444 28.807 39.2185 28.8003V33.7629H9.50293V28.8003C10.765 28.6865 11.754 27.6258 11.754 26.3341C11.754 25.0424 10.765 23.9817 9.50293 23.8679V18.9052Z" fill="#F3F3F6"/>
<rect x="9.50293" y="18.9052" width="29.7156" height="2.70142" fill="#7B7C87"/>
<path d="M23.9326 24.2751C24.0673 23.8603 24.6542 23.8603 24.789 24.2751L25.2705 25.7572C25.3308 25.9427 25.5037 26.0683 25.6987 26.0683H27.2571C27.6932 26.0683 27.8746 26.6265 27.5217 26.8828L26.261 27.7988C26.1032 27.9134 26.0371 28.1167 26.0974 28.3022L26.579 29.7843C26.7138 30.1991 26.239 30.544 25.8861 30.2876L24.6254 29.3717C24.4676 29.257 24.2539 29.257 24.0961 29.3717L22.8354 30.2876C22.4825 30.544 22.0078 30.1991 22.1425 29.7843L22.6241 28.3022C22.6844 28.1167 22.6183 27.9134 22.4605 27.7988L21.1998 26.8828C20.8469 26.6265 21.0283 26.0683 21.4644 26.0683H23.0228C23.2179 26.0683 23.3907 25.9427 23.451 25.7572L23.9326 24.2751Z" fill="#7B7C87"/>
</svg>
