<svg width="53" height="53" viewBox="0 0 53 53" fill="none" xmlns="http://www.w3.org/2000/svg">
<rect width="53" height="53" rx="26.5" fill="white"/>
<path d="M26.8037 19.6352C26.9748 19.4282 27.4014 19.428 27.5723 19.6352L33.0088 26.2358H38.4111C39.5507 26.2358 40.4746 27.1597 40.4746 28.2992V39.9399C40.4746 41.0776 39.5518 42.0004 38.4141 42.0004H15.0635C13.924 42.0004 13.0001 41.0764 13 39.9369V28.2992C13 27.1597 13.924 26.2358 15.0635 26.2358H21.3662L26.8037 19.6352Z" fill="#F3F3F6"/>
<path d="M32.9078 14.6176C33.0607 14.7113 33.0607 14.9456 32.9078 15.0393L27.0608 18.6239C26.9079 18.7176 26.7168 18.6004 26.7168 18.413L26.7168 11.2438C26.7168 11.0564 26.9079 10.9393 27.0608 11.033L32.9078 14.6176Z" fill="#7B7C87"/>
<circle cx="26.9624" cy="28.4878" r="3.15282" fill="white"/>
<path d="M26.9624 26.6863L26.9624 28.4879" stroke="#3A3C42" stroke-width="0.687777" stroke-linecap="round"/>
<path d="M25.1606 28.4879H26.9623" stroke="#3A3C42" stroke-width="0.687777" stroke-linecap="round"/>
<path d="M23.3594 39.2976C23.3594 37.3076 24.9726 35.6943 26.9626 35.6943C28.9526 35.6943 30.5658 37.3076 30.5658 39.2976V42H23.3594V39.2976Z" fill="#7B7C87"/>
<path d="M13 26.3628H21.3672L26.9911 19.5044L33.0265 26.3628H40.4336" stroke="#7B7C87" stroke-width="2.09459"/>
<path d="M27.0605 11L27.0606 18.5" stroke="#3A3C42"/>
</svg>
