<svg width="43" height="43" viewBox="0 0 43 43" fill="none" xmlns="http://www.w3.org/2000/svg">
<path d="M35.0076 8.81006C35.175 8.72481 35.3536 8.90347 35.2684 9.07078L34.5872 10.4076C34.5491 10.4824 34.5635 10.5733 34.6229 10.6326L35.6838 11.6935C35.8165 11.8263 35.7018 12.0514 35.5164 12.0221L34.0345 11.7874C33.9516 11.7742 33.8696 11.816 33.8315 11.8908L33.1504 13.2276C33.0651 13.3949 32.8156 13.3554 32.7862 13.1699L32.5515 11.6881C32.5383 11.6051 32.4733 11.5401 32.3903 11.5269L30.9085 11.2922C30.723 11.2629 30.6835 11.0133 30.8508 10.9281L32.1876 10.2469C32.2624 10.2088 32.3042 10.1268 32.2911 10.0439L32.0564 8.56205C32.027 8.37658 32.2521 8.26188 32.3849 8.39466L33.4458 9.45554C33.5052 9.51492 33.596 9.52931 33.6709 9.49119L35.0076 8.81006Z" fill="#FF6F61"/>
<path d="M29.8428 14.2352L26.6597 17.4183" stroke="#FF6F61" stroke-width="1.18461" stroke-linecap="round"/>
<path d="M8.67831 35.1203L17.6131 11.3869L32.4118 26.1855L8.67831 35.1203Z" fill="#FFE6E4"/>
<path fill-rule="evenodd" clip-rule="evenodd" d="M28.367 27.7081L14.2315 20.3695L15.5765 16.7966L31.063 24.8366L32.4118 26.1854L28.367 27.7081Z" fill="#FF6F61"/>
<path fill-rule="evenodd" clip-rule="evenodd" d="M23.3284 29.6532L18.5595 31.4486L11.4901 27.7784L12.8351 24.2055L23.3284 29.6532Z" fill="#FF6F61"/>
<path d="M28.5036 19.5965C31.2958 17.3628 37.3827 14.135 39.393 19.0939" stroke="#FF6F61" stroke-width="1.18461" stroke-linecap="round"/>
<path d="M24.4826 15.576C26.7163 12.7838 29.9441 6.69693 24.9852 4.68658" stroke="#FF6F61" stroke-width="1.18461" stroke-linecap="round"/>
</svg>
