<svg width="53" height="53" viewBox="0 0 53 53" fill="none" xmlns="http://www.w3.org/2000/svg">
<rect width="53" height="53" rx="26.5" fill="white"/>
<path fill-rule="evenodd" clip-rule="evenodd" d="M9 24.6589L36.7382 14.0001L38.5183 18.6326C38.4467 18.6529 38.3754 18.6766 38.3046 18.7039C37.0279 19.1944 36.3907 20.627 36.8813 21.9036C37.3718 23.1802 38.8044 23.8174 40.081 23.3269C40.1518 23.2997 40.2207 23.2696 40.2875 23.2367L42.0676 27.8692L14.3294 38.528L12.5493 33.8955C13.6866 33.3366 14.2294 31.9917 13.766 30.7859C13.3027 29.5801 11.999 28.9447 10.7801 29.2913L9 24.6589Z" fill="#F5CDCA"/>
<path fill-rule="evenodd" clip-rule="evenodd" d="M14.5029 23.9052H44.2185V28.8679C44.1444 28.8612 44.0692 28.8578 43.9933 28.8578C42.6257 28.8578 41.517 29.9665 41.517 31.3341C41.517 32.7017 42.6257 33.8104 43.9933 33.8104C44.0692 33.8104 44.1444 33.807 44.2185 33.8003V38.7629H14.5029V33.8003C15.765 33.6865 16.754 32.6258 16.754 31.3341C16.754 30.0424 15.765 28.9817 14.5029 28.8679V23.9052Z" fill="#FFE6E4"/>
<rect x="14.5029" y="23.9052" width="29.7156" height="2.70142" fill="#FF6F61"/>
<path d="M28.9326 29.2751C29.0673 28.8603 29.6542 28.8603 29.789 29.2751L30.2705 30.7572C30.3308 30.9427 30.5037 31.0683 30.6987 31.0683H32.2571C32.6932 31.0683 32.8746 31.6265 32.5217 31.8828L31.261 32.7988C31.1032 32.9134 31.0371 33.1167 31.0974 33.3022L31.579 34.7843C31.7138 35.1991 31.239 35.544 30.8861 35.2876L29.6254 34.3717C29.4676 34.257 29.2539 34.257 29.0961 34.3717L27.8354 35.2876C27.4825 35.544 27.0078 35.1991 27.1425 34.7843L27.6241 33.3022C27.6844 33.1167 27.6183 32.9134 27.4605 32.7988L26.1998 31.8828C25.8469 31.6265 26.0283 31.0683 26.4644 31.0683H28.0228C28.2179 31.0683 28.3907 30.9427 28.451 30.7572L28.9326 29.2751Z" fill="#FF6F61"/>
</svg>
