<svg width="57" height="57" viewBox="0 0 57 57" fill="none" xmlns="http://www.w3.org/2000/svg">
<rect width="57" height="57" rx="28.5" fill="#FF6F61"/>
<path fill-rule="evenodd" clip-rule="evenodd" d="M28.5 17.9531C28.8357 17.9531 29.1576 18.0865 29.3949 18.3238C29.6323 18.5612 29.7656 18.8831 29.7656 19.2188V27.2344H37.7812C38.1169 27.2344 38.4388 27.3677 38.6762 27.6051C38.9135 27.8424 39.0469 28.1643 39.0469 28.5C39.0469 28.8357 38.9135 29.1576 38.6762 29.3949C38.4388 29.6323 38.1169 29.7656 37.7812 29.7656H29.7656V37.7812C29.7656 38.1169 29.6323 38.4388 29.3949 38.6762C29.1576 38.9135 28.8357 39.0469 28.5 39.0469C28.1643 39.0469 27.8424 38.9135 27.6051 38.6762C27.3677 38.4388 27.2344 38.1169 27.2344 37.7812V29.7656H19.2188C18.8831 29.7656 18.5612 29.6323 18.3238 29.3949C18.0865 29.1576 17.9531 28.8357 17.9531 28.5C17.9531 28.1643 18.0865 27.8424 18.3238 27.6051C18.5612 27.3677 18.8831 27.2344 19.2188 27.2344H27.2344V19.2188C27.2344 18.8831 27.3677 18.5612 27.6051 18.3238C27.8424 18.0865 28.1643 17.9531 28.5 17.9531Z" fill="white"/>
</svg>
