<svg width="20" height="20" viewBox="0 0 20 20" fill="none" xmlns="http://www.w3.org/2000/svg">
<path fill-rule="evenodd" clip-rule="evenodd" d="M16.8599 4.28741C16.9534 4.36757 17.0302 4.46538 17.0859 4.57524C17.1416 4.6851 17.1751 4.80486 17.1845 4.92768C17.1939 5.0505 17.179 5.17397 17.1407 5.29103C17.1024 5.40809 17.0413 5.51645 16.9611 5.60991L9.46111 14.3599C9.37702 14.458 9.27356 14.5377 9.15723 14.5939C9.04089 14.6501 8.91419 14.6817 8.78508 14.6866C8.65597 14.6915 8.52723 14.6697 8.40694 14.6225C8.28666 14.5754 8.17743 14.5038 8.08611 14.4124L3.71111 10.0374C3.54042 9.86052 3.44603 9.62366 3.44828 9.37785C3.45053 9.13204 3.54924 8.89695 3.72314 8.72321C3.89704 8.54947 4.13223 8.45099 4.37804 8.44897C4.62385 8.44695 4.86062 8.54155 5.03736 8.71241L8.69736 12.3712L15.5386 4.38991C15.7005 4.20139 15.9305 4.08484 16.1783 4.06585C16.426 4.04687 16.6712 4.12576 16.8599 4.28741Z" fill="#FF6F61"/>
</svg>
