<svg width="53" height="53" viewBox="0 0 53 53" fill="none" xmlns="http://www.w3.org/2000/svg">
<rect width="53" height="53" rx="26.5" fill="white"/>
<path fill-rule="evenodd" clip-rule="evenodd" d="M27.5723 19.6354C27.4014 19.4279 26.9741 19.4279 26.8032 19.6354L21.3661 26.2359H15.0633C13.9238 26.2359 13 27.1597 13 28.2993V39.9367C13 41.0762 13.9238 42 15.0633 42H38.4145C39.5522 42 40.4745 41.0777 40.4745 39.94V28.2993C40.4745 27.1597 39.5508 26.2359 38.4112 26.2359H33.0094L27.5723 19.6354Z" fill="#FFE6E4"/>
<path d="M32.9078 14.6176C33.0607 14.7113 33.0607 14.9456 32.9078 15.0393L27.0608 18.6239C26.9079 18.7176 26.7168 18.6004 26.7168 18.413L26.7168 11.2438C26.7168 11.0564 26.9079 10.9393 27.0608 11.033L32.9078 14.6176Z" fill="#FF6F61"/>
<circle cx="26.9624" cy="28.4878" r="3.15282" fill="white"/>
<path d="M26.9624 26.6863L26.9624 28.4879" stroke="#373737" stroke-width="0.687777" stroke-linecap="round"/>
<path d="M25.1609 28.4879H26.9625" stroke="#373737" stroke-width="0.687777" stroke-linecap="round"/>
<path d="M23.3594 39.2976C23.3594 37.3076 24.9726 35.6944 26.9626 35.6944C28.9526 35.6944 30.5658 37.3076 30.5658 39.2976V42H23.3594V39.2976Z" fill="#FF6F61"/>
<path d="M13 26.3628H21.3672L26.9911 19.5044L33.0265 26.3628H40.4336" stroke="#FF6F61" stroke-width="2.09459"/>
<path d="M27.0608 11L27.0608 18.5" stroke="#6C0A00"/>
</svg>
