<svg width="43" height="43" viewBox="0 0 43 43" fill="none" xmlns="http://www.w3.org/2000/svg">
<path fill-rule="evenodd" clip-rule="evenodd" d="M22.5723 14.6353C22.4014 14.4279 21.9741 14.4279 21.8032 14.6353L16.3661 21.2359H10.0633C8.92378 21.2359 8 22.1597 8 23.2992V34.9366C8 36.0762 8.92378 37 10.0633 37H33.4145C34.5522 37 35.4745 36.0777 35.4745 34.94V23.2992C35.4745 22.1597 34.5508 21.2359 33.4112 21.2359H28.0094L22.5723 14.6353Z" fill="#FFE6E4"/>
<path d="M27.9078 9.61756C28.0607 9.71128 28.0607 9.94556 27.9078 10.0393L22.0608 13.6239C21.9079 13.7176 21.7168 13.6004 21.7168 13.413L21.7168 6.24384C21.7168 6.05641 21.9079 5.93927 22.0608 6.03298L27.9078 9.61756Z" fill="#FF6F61"/>
<circle cx="21.9624" cy="23.4878" r="3.15282" fill="white"/>
<path d="M21.9624 21.6863L21.9624 23.4879" stroke="#373737" stroke-width="0.687777" stroke-linecap="round"/>
<path d="M20.1609 23.4878H21.9625" stroke="#373737" stroke-width="0.687777" stroke-linecap="round"/>
<path d="M18.3594 34.2976C18.3594 32.3076 19.9726 30.6943 21.9626 30.6943C23.9526 30.6943 25.5658 32.3076 25.5658 34.2976V37H18.3594V34.2976Z" fill="#FF6F61"/>
<path d="M8 21.3628H16.3672L21.9911 14.5044L28.0265 21.3628H35.4336" stroke="#FF6F61" stroke-width="2.09459"/>
<path d="M22.0608 6L22.0608 13.5" stroke="#6C0A00"/>
</svg>
