<svg width="13" height="13" viewBox="0 0 13 13" fill="none" xmlns="http://www.w3.org/2000/svg">
<g clip-path="url(#clip0_1988_9289)">
<path d="M6.5 0.8125C8.00842 0.8125 9.45506 1.41172 10.5217 2.47833C11.5883 3.54494 12.1875 4.99158 12.1875 6.5C12.1875 8.00842 11.5883 9.45506 10.5217 10.5217C9.45506 11.5883 8.00842 12.1875 6.5 12.1875C4.99158 12.1875 3.54494 11.5883 2.47833 10.5217C1.41172 9.45506 0.8125 8.00842 0.8125 6.5C0.8125 4.99158 1.41172 3.54494 2.47833 2.47833C3.54494 1.41172 4.99158 0.8125 6.5 0.8125ZM6.5 5.07812C6.58002 5.07812 6.65927 5.06236 6.7332 5.03174C6.80713 5.00112 6.87431 4.95623 6.93089 4.89964C6.98748 4.84306 7.03236 4.77588 7.06299 4.70195C7.09361 4.62802 7.10938 4.54877 7.10938 4.46875C7.10938 4.38873 7.09361 4.30948 7.06299 4.23555C7.03236 4.16162 6.98748 4.09444 6.93089 4.03786C6.87431 3.98127 6.80713 3.93638 6.7332 3.90576C6.65927 3.87514 6.58002 3.85938 6.5 3.85938C6.3386 3.85938 6.18381 3.92349 6.06968 4.03762C5.95555 4.15175 5.89144 4.30654 5.89144 4.46794C5.89144 4.62934 5.95555 4.78413 6.06968 4.89826C6.18381 5.01238 6.3386 5.0765 6.5 5.0765M6.90625 6.09212C6.90625 5.98438 6.86345 5.88105 6.78726 5.80486C6.71108 5.72868 6.60774 5.68587 6.5 5.68587C6.39226 5.68587 6.28892 5.72868 6.21274 5.80486C6.13655 5.88105 6.09375 5.98438 6.09375 6.09212V8.52962C6.09375 8.63737 6.13655 8.7407 6.21274 8.81689C6.28892 8.89307 6.39226 8.93587 6.5 8.93587C6.60774 8.93587 6.71108 8.89307 6.78726 8.81689C6.86345 8.7407 6.90625 8.63737 6.90625 8.52962V6.09212Z" fill="#FF6F61"/>
</g>
<defs>
<clipPath id="clip0_1988_9289">
<rect width="13" height="13" fill="white"/>
</clipPath>
</defs>
</svg>
