<svg width="20" height="21" viewBox="0 0 20 21" fill="none" xmlns="http://www.w3.org/2000/svg">
<path d="M13.8111 10.0639L7.02225 3.66638C6.90898 3.55958 6.75848 3.5 6.60198 3.5C6.44549 3.5 6.29499 3.55958 6.18172 3.66638L6.17441 3.67361C6.11931 3.72538 6.07543 3.7877 6.04545 3.85677C6.01546 3.92585 6 4.00023 6 4.07541C6 4.15058 6.01546 4.22496 6.04545 4.29404C6.07543 4.36311 6.11931 4.42543 6.17441 4.47721L12.5673 10.5012L6.17441 16.5228C6.11931 16.5746 6.07543 16.6369 6.04545 16.706C6.01546 16.775 6 16.8494 6 16.9246C6 16.9998 6.01546 17.0741 6.04545 17.1432C6.07543 17.2123 6.11931 17.2746 6.17441 17.3264L6.18172 17.3336C6.29499 17.4404 6.44549 17.5 6.60198 17.5C6.75848 17.5 6.90898 17.4404 7.02225 17.3336L13.8111 10.9361C13.8708 10.8799 13.9183 10.8122 13.9508 10.7372C13.9833 10.6623 14 10.5816 14 10.5C14 10.4184 13.9833 10.3377 13.9508 10.2628C13.9183 10.1878 13.8708 10.1201 13.8111 10.0639Z" fill="#D5D5DE"/>
</svg>
