<svg width="27" height="27" viewBox="0 0 27 27" fill="none" xmlns="http://www.w3.org/2000/svg">
<path fill-rule="evenodd" clip-rule="evenodd" d="M18.7776 23.4468C15.341 23.4468 12.5552 21.4376 12.5552 18.9591C12.5552 16.4806 15.341 14.4714 18.7776 14.4714C22.2141 14.4714 25 16.4806 25 18.9591C25 20.0015 24.5072 20.9609 23.6806 21.7227L24.3726 23.0871C24.4424 23.2246 24.3196 23.3876 24.1739 23.3508L21.9946 22.8013C21.0559 23.211 19.9549 23.4468 18.7776 23.4468Z" fill="#FFE6E4"/>
<path fill-rule="evenodd" clip-rule="evenodd" d="M21.7043 11.1056C21.7043 15.0299 17.2934 18.2112 11.8522 18.2112C9.98772 18.2112 8.24425 17.8377 6.75774 17.1887L3.30672 18.059C3.07609 18.1171 2.88172 17.8591 2.99215 17.6414L4.08824 15.4804C2.77985 14.2744 2 12.7557 2 11.1056C2 7.18128 6.41096 4 11.8522 4C17.2934 4 21.7043 7.18128 21.7043 11.1056ZM7.98199 12.2275C8.56498 12.2275 9.03758 11.7252 9.03758 11.1056C9.03758 10.486 8.56498 9.98366 7.98199 9.98366C7.39901 9.98366 6.9264 10.486 6.9264 11.1056C6.9264 11.7252 7.39901 12.2275 7.98199 12.2275ZM13.2602 11.1055C13.2602 11.7251 12.7876 12.2274 12.2046 12.2274C11.6217 12.2274 11.1491 11.7251 11.1491 11.1055C11.1491 10.4858 11.6217 9.98353 12.2046 9.98353C12.7876 9.98353 13.2602 10.4858 13.2602 11.1055ZM16.4263 12.2274C17.0093 12.2274 17.4819 11.7251 17.4819 11.1055C17.4819 10.4858 17.0093 9.98353 16.4263 9.98353C15.8433 9.98353 15.3707 10.4858 15.3707 11.1055C15.3707 11.7251 15.8433 12.2274 16.4263 12.2274Z" fill="#FF6F61"/>
</svg>
