<svg width="16" height="16" viewBox="0 0 16 16" fill="none" xmlns="http://www.w3.org/2000/svg">
<path d="M11.8333 4.74843H6.95936C6.80564 4.74883 6.6535 4.77953 6.51166 4.83878C6.36981 4.89803 6.24104 4.98466 6.1327 5.09372C6.02437 5.20279 5.9386 5.33214 5.88031 5.47438C5.82202 5.61663 5.79234 5.76897 5.79298 5.92269V12.0351C5.79298 12.6835 6.31528 13.2094 6.95936 13.2094H11.8333C11.987 13.209 12.1392 13.1783 12.281 13.1191C12.4229 13.0598 12.5517 12.9732 12.66 12.8641C12.7683 12.755 12.8541 12.6257 12.9124 12.4834C12.9707 12.3412 13.0003 12.1889 12.9997 12.0351V5.92269C12.9997 5.27436 12.4774 4.74843 11.8333 4.74843Z" stroke="#FF6F61" stroke-width="1.1" stroke-linecap="round" stroke-linejoin="round"/>
<path d="M10.2067 4.74842V3.17426C10.2067 2.86282 10.0837 2.56411 9.86499 2.34416C9.75701 2.23527 9.62856 2.14881 9.48703 2.08974C9.34551 2.03068 9.1937 2.00018 9.04035 2H4.16638C3.85737 2 3.56047 2.12361 3.34234 2.34416C3.12344 2.56503 3.00043 2.86329 3 3.17426V9.28671C3 9.59815 3.123 9.89687 3.34173 10.1168C3.56047 10.3368 3.85676 10.461 4.16638 10.461H5.79326" stroke="#FF6F61" stroke-width="1.1" stroke-linecap="round" stroke-linejoin="round"/>
</svg>
