<svg width="70" height="62" viewBox="0 0 70 62" fill="none" xmlns="http://www.w3.org/2000/svg">
<path d="M71.2081 10.6291C63.9793 5.40827 56.8811 5.92851 54.7426 7.81781C54.7426 7.81781 55.3047 14.2178 55.2885 19.8819C55.2722 25.5461 55.2885 29.1026 55.2885 29.1026C56.3141 26.5863 60.0039 24.958 69.4505 24.3885C78.8971 23.819 84.6079 16.6393 86.2826 13.1206C83.5072 15.3031 79.1164 16.3406 71.2081 10.6291Z" fill="#FF998F" stroke="black" stroke-width="1.25874" stroke-linejoin="round"/>
<path d="M41.7414 52.0398L36.4279 51.8684C35.5213 55.5533 38.4445 62.0898 41.7695 63.0274C44.7925 63.8799 46.6085 63.0516 50.5444 61.9927C52.4199 61.3743 55.7998 59.0123 54.3157 54.5112C52.8316 50.0101 48.5588 49.8341 46.6078 50.3088C43.7965 50.9928 43.7965 51.0854 41.7414 52.0398Z" fill="#FFE6E4"/>
<path d="M41.8584 63.0695C44.9973 63.181 47.882 63.1048 50.424 62.2666C52.2994 61.6482 55.7998 59.0122 54.3157 54.5112C52.8316 50.0101 48.5587 49.8341 46.6078 50.3088C44.1981 50.895 43.3949 51.4869 41.7413 52.0397L37.5569 51.9928" stroke="black" stroke-width="1.25874"/>
<path fill-rule="evenodd" clip-rule="evenodd" d="M39.6859 48.7564C43.9317 45.3743 46.653 40.1598 46.653 34.3097C46.653 24.1146 38.3882 15.8498 28.1931 15.8498C22.6824 15.8498 17.7357 18.2645 14.3533 22.0936C10.9709 18.2646 6.02424 15.8499 0.513569 15.8499C-9.68153 15.8499 -17.9463 24.1147 -17.9463 34.3098C-17.9463 40.1599 -15.225 45.3744 -10.9791 48.7566C-15.225 52.1387 -17.9463 57.3532 -17.9463 63.2034C-17.9463 73.3985 -9.68153 81.6632 0.513569 81.6632C1.92819 81.6632 3.30565 81.5041 4.62902 81.2028L2.13213 92.4405L14.7539 95.2449C18.1197 95.9927 19.7474 93.9657 20.1405 92.8586C21.0509 88.7612 17.1218 86.5744 15.0435 85.9932L16.868 77.7819C19.9948 80.2144 23.9248 81.663 28.1931 81.663C38.3882 81.663 46.653 73.3983 46.653 63.2032C46.653 57.3531 43.9317 52.1386 39.6859 48.7564Z" fill="#FFE6E4"/>
<path d="M39.6859 48.7564L39.2938 48.2642L38.6758 48.7564L39.2938 49.2487L39.6859 48.7564ZM14.3533 22.0936L13.8816 22.5102L14.3533 23.0442L14.825 22.5102L14.3533 22.0936ZM-10.9791 48.7566L-10.587 49.2488L-9.96902 48.7566L-10.587 48.2643L-10.9791 48.7566ZM4.62902 81.2028L5.2434 81.3393L5.45915 80.3683L4.48929 80.5891L4.62902 81.2028ZM2.13213 92.4405L1.51774 92.304L1.38123 92.9184L1.99562 93.0549L2.13213 92.4405ZM14.7539 95.2449L14.6173 95.8593L14.6173 95.8593L14.7539 95.2449ZM20.1405 92.8586L20.7336 93.0693L20.7465 93.0329L20.7549 92.9952L20.1405 92.8586ZM15.0435 85.9932L14.4291 85.8567L14.2998 86.4387L14.874 86.5993L15.0435 85.9932ZM16.868 77.7819L17.2544 77.2851L16.4693 76.6743L16.2536 77.6454L16.868 77.7819ZM46.0236 34.3097C46.0236 39.9601 43.3961 44.9963 39.2938 48.2642L40.0781 49.2487C44.4673 45.7523 47.2824 40.3596 47.2824 34.3097H46.0236ZM28.1931 16.4792C38.0406 16.4792 46.0236 24.4622 46.0236 34.3097H47.2824C47.2824 23.767 38.7358 15.2205 28.1931 15.2205V16.4792ZM14.825 22.5102C18.093 18.8107 22.8704 16.4792 28.1931 16.4792V15.2205C22.4945 15.2205 17.3784 17.7184 13.8816 21.6769L14.825 22.5102ZM0.513569 16.4793C5.83627 16.4793 10.6136 18.8107 13.8816 22.5102L14.825 21.6769C11.3282 17.7184 6.21221 15.2205 0.513569 15.2205V16.4793ZM-17.3169 34.3098C-17.3169 24.4623 -9.33394 16.4793 0.513569 16.4793V15.2205C-10.0291 15.2205 -18.5757 23.7671 -18.5757 34.3098H-17.3169ZM-10.587 48.2643C-14.6894 44.9964 -17.3169 39.9602 -17.3169 34.3098H-18.5757C-18.5757 40.3597 -15.7606 45.7525 -11.3713 49.2488L-10.587 48.2643ZM-17.3169 63.2034C-17.3169 57.553 -14.6894 52.5167 -10.587 49.2488L-11.3713 48.2643C-15.7606 51.7607 -18.5757 57.1535 -18.5757 63.2034H-17.3169ZM0.513569 81.0338C-9.33394 81.0338 -17.3169 73.0509 -17.3169 63.2034H-18.5757C-18.5757 73.746 -10.0291 82.2926 0.513569 82.2926V81.0338ZM4.48929 80.5891C3.21145 80.8801 1.88085 81.0338 0.513569 81.0338V82.2926C1.97553 82.2926 3.39984 82.1281 4.76874 81.8164L4.48929 80.5891ZM4.01463 81.0663L1.51774 92.304L2.74652 92.577L5.2434 81.3393L4.01463 81.0663ZM1.99562 93.0549L14.6173 95.8593L14.8904 94.6305L2.26864 91.8261L1.99562 93.0549ZM14.6173 95.8593C16.452 96.2669 17.8715 95.9253 18.8971 95.28C19.9031 94.6471 20.4936 93.7451 20.7336 93.0693L19.5474 92.648C19.3943 93.0793 18.9743 93.7443 18.2268 94.2146C17.4988 94.6727 16.4215 94.9707 14.8904 94.6305L14.6173 95.8593ZM20.7549 92.9952C21.2665 90.6924 20.4033 88.9114 19.1584 87.663C17.9349 86.4358 16.3277 85.6988 15.213 85.3871L14.874 86.5993C15.8376 86.8688 17.2341 87.5158 18.2671 88.5517C19.2788 89.5663 19.9249 90.9275 19.5261 92.7221L20.7549 92.9952ZM15.6579 86.1297L17.4823 77.9184L16.2536 77.6454L14.4291 85.8567L15.6579 86.1297ZM28.1931 81.0337C24.0696 81.0337 20.2746 79.6347 17.2544 77.2851L16.4815 78.2786C19.7149 80.794 23.7799 82.2924 28.1931 82.2924V81.0337ZM46.0236 63.2032C46.0236 73.0507 38.0406 81.0337 28.1931 81.0337V82.2924C38.7358 82.2924 47.2824 73.7459 47.2824 63.2032H46.0236ZM39.2938 49.2487C43.3961 52.5166 46.0236 57.5528 46.0236 63.2032H47.2824C47.2824 57.1533 44.4673 51.7606 40.0781 48.2642L39.2938 49.2487Z" fill="black"/>
<path d="M31.9551 29.0587C29.8332 31.314 24.5989 34.7769 20.6371 30.5858C15.6848 25.347 23.9305 23.0276 24.693 27.803C25.3278 31.7791 22.6277 35.7335 17.5983 34.0335C16.6663 33.7185 14.5762 32.7444 13.7773 30.5153" stroke="#FF6F61" stroke-width="1.25874" stroke-linecap="round"/>
<ellipse cx="17.4202" cy="42.6534" rx="2.79161" ry="3.72215" transform="rotate(-7.24189 17.4202 42.6534)" fill="black"/>
<ellipse cx="32.1848" cy="40.7773" rx="2.79161" ry="3.72215" transform="rotate(-7.24189 32.1848 40.7773)" fill="black"/>
<ellipse cx="25.269" cy="45.4065" rx="1.86108" ry="2.79161" transform="rotate(82.7581 25.269 45.4065)" fill="black"/>
<path d="M47.1113 63.2386C50.9935 56.1437 57.1513 40.7491 54.7417 7.41635" stroke="black" stroke-width="1.25874" stroke-linecap="round"/>
<path d="M51.476 57.17C51.476 58.9444 52.7518 60.0258 51.0309 60.0258C49.3101 60.0258 47.915 58.5874 47.915 56.813C47.915 55.0387 49.3101 53.6002 51.0309 53.6002C52.7518 53.6002 51.476 55.3956 51.476 57.17Z" fill="#FFE6E4"/>
<path d="M50.7375 59.9905C50.2582 60.078 49.7685 60.0021 49.3223 59.7711C48.8762 59.5401 48.4909 59.1629 48.2091 58.6813C47.9273 58.1997 47.7599 57.6323 47.7254 57.0418C47.6909 56.4513 47.7906 55.8607 48.0136 55.335C48.2365 54.8094 48.5739 54.3692 48.9887 54.0631C49.4035 53.757 49.8794 53.5968 50.364 53.6003C50.8486 53.6038 51.3229 53.7707 51.7347 54.0828" stroke="black" stroke-width="1.25874" stroke-linecap="round"/>
<path d="M-9.61975 51.2644C-8.14623 50.9243 -4.81271 51.0385 -2.98976 53.9031C-2.60072 54.5145 -1.78973 54.6947 -1.17838 54.3056C-0.567019 53.9166 -0.386801 53.1056 -0.775845 52.4943L-1.30682 52.8322L-0.775846 52.4943C-3.45218 48.2886 -8.20636 48.2451 -10.2098 48.7074C-10.9159 48.8704 -11.3562 49.5748 -11.1933 50.2809C-11.0303 50.987 -10.3258 51.4273 -9.61975 51.2644Z" fill="#FF998F" stroke="black" stroke-width="1.25874" stroke-linecap="round" stroke-linejoin="round"/>
<path d="M0.950365 54.345L-4.26605 53.3194C-5.7547 56.81 -3.92334 63.7321 -0.79295 65.1935C2.0531 66.5221 3.97882 65.9974 8.03402 65.5868C9.98463 65.2788 13.7011 63.4924 12.9619 58.8109C12.2228 54.1295 8.03412 53.2671 6.0322 53.4211C3.56829 50.9571 1.61768 53.0104 0.950365 54.345Z" fill="#FFE6E4"/>
<path d="M-0.712519 65.2495C2.36737 65.8655 5.22668 66.2552 7.87049 65.8378C9.8211 65.5298 13.7005 63.4925 12.9614 58.811C12.2222 54.1296 8.03358 53.2672 6.03166 53.4211C3.56775 50.9572 1.61714 53.0105 0.949826 54.3451L-3.17233 53.6242" stroke="black" stroke-width="1.25874"/>
<path d="M35.6903 9.98588C35.3831 9.91205 35.0979 9.94612 34.8347 10.0881C34.5711 10.2302 34.406 10.4397 34.3397 10.7163C34.2645 11.0291 34.3151 11.301 34.4913 11.532C34.6682 11.7633 34.9018 11.9139 35.1944 11.9842C35.4918 12.0557 35.7726 12.0299 36.0367 11.9068C36.3007 11.7841 36.4707 11.5642 36.5467 11.2469C36.6132 10.9703 36.5639 10.7093 36.3989 10.4641C36.2334 10.2189 35.9972 10.0595 35.6903 9.98588ZM40.4745 3.86638C40.2959 3.37065 39.9751 2.93048 39.5201 2.55928C39.0686 2.1901 38.5032 1.92298 37.8392 1.76338C37.1247 1.59169 36.4532 1.58818 35.8436 1.75357C35.2329 1.91852 34.726 2.19691 34.3347 2.58146C33.9412 2.967 33.6882 3.38885 33.581 3.83521C33.5235 4.0741 33.5689 4.32021 33.7156 4.56695C33.8631 4.81505 34.0823 4.97559 34.3667 5.04394C34.8509 5.16031 35.2513 4.95468 35.554 4.43707C35.8186 4.01107 36.0923 3.70426 36.3672 3.52321C36.6259 3.35272 36.9864 3.32167 37.4387 3.43036C37.8288 3.52411 38.1102 3.70739 38.3003 3.99118C38.4873 4.27151 38.5404 4.5651 38.4628 4.88801C38.4266 5.04472 38.3502 5.18927 38.2411 5.30737C38.1249 5.43361 37.9918 5.54305 37.8454 5.63254C37.6903 5.72754 37.4388 5.8667 37.0978 6.04523C36.7002 6.25411 36.3745 6.44325 36.1308 6.60533C35.8726 6.77964 35.6465 6.99724 35.4624 7.24855C35.2709 7.50846 35.1264 7.83801 35.0325 8.22841C34.9524 8.56206 34.9833 8.84269 35.1249 9.06293C35.2648 9.28142 35.4701 9.42453 35.7354 9.4883C36.2427 9.61021 36.6279 9.40956 36.8471 8.91379C36.948 8.70994 37.02 8.56782 37.0649 8.48754C37.1055 8.4149 37.1565 8.34268 37.2166 8.27267C37.2747 8.2049 37.3587 8.13199 37.4662 8.05538C37.5785 7.97536 37.727 7.8847 37.9051 7.78657C38.569 7.42956 39.0395 7.16834 39.3037 7.01035C39.5762 6.84708 39.8309 6.63439 40.0614 6.3774C40.2971 6.11353 40.4655 5.77768 40.5614 5.37862C40.6826 4.87286 40.6531 4.36448 40.4735 3.86663" fill="black"/>
</svg>
