<svg width="16" height="16" viewBox="0 0 16 16" fill="none" xmlns="http://www.w3.org/2000/svg">
<path d="M12.3865 1.96266C12.1365 1.7127 11.7974 1.57228 11.4438 1.57228C11.0903 1.57228 10.7512 1.7127 10.5012 1.96266L9.40449 3.06L12.9398 6.59533L14.0365 5.49933C14.1604 5.37551 14.2586 5.2285 14.3257 5.0667C14.3927 4.9049 14.4272 4.73147 14.4272 4.55633C14.4272 4.38119 14.3927 4.20776 14.3257 4.04596C14.2586 3.88416 14.1604 3.73715 14.0365 3.61333L12.3865 1.96266ZM11.9972 7.538L8.46183 4.00266L2.57183 9.89266L1.85449 14.146L6.10783 13.428L11.9972 7.538Z" fill="#E6E6EB"/>
</svg>
