<svg width="27" height="27" viewBox="0 0 27 27" fill="none" xmlns="http://www.w3.org/2000/svg">
<path fill-rule="evenodd" clip-rule="evenodd" d="M4 11.8211C4 11.8211 4 11.8211 4.00001 11.8211L13.1462 3.17015C13.3861 2.94328 13.7614 2.94328 14.0012 3.17015L23.1115 11.7871C23.1245 11.7994 23.1158 11.8211 23.098 11.8211C23.0871 11.8211 23.0783 11.8299 23.0783 11.8408V23.9179C23.0783 24.2614 22.7998 24.54 22.4562 24.54H4.62212C4.27853 24.54 4 24.2614 4 23.9179V11.8211Z" fill="#FF998F"/>
<rect x="6.97266" y="8.64136" width="13.2719" height="14.5161" rx="0.62212" fill="#FFE6E4"/>
<line x1="9.01223" y1="10.6805" x2="18.1367" y2="10.6805" stroke="#FF998F" stroke-width="0.62212" stroke-linecap="round"/>
<line x1="9.01223" y1="13.0999" x2="18.1367" y2="13.0999" stroke="#FF998F" stroke-width="0.62212" stroke-linecap="round"/>
<path fill-rule="evenodd" clip-rule="evenodd" d="M23.1472 11.821L13.5737 18.1574L4.00029 11.821L4.00029 19.0791H4V23.9178C4 24.2609 4.2777 24.5391 4.62059 24.5399H4L4.00029 24.5399H23.1472L23.1475 24.5399H22.5256C22.8691 24.5398 23.1475 24.2613 23.1475 23.9178V19.0791H23.1472V11.821Z" fill="#FF6F61"/>
</svg>
