<svg width="16" height="16" viewBox="0 0 16 16" fill="none" xmlns="http://www.w3.org/2000/svg">
<g clip-path="url(#clip0_1358_2179)">
<circle cx="8" cy="8" r="8" fill="white"/>
<path d="M9.04921 8.3792C9.34041 8.3792 9.59428 8.31573 9.81081 8.1888C10.0348 8.0544 10.2065 7.864 10.326 7.6176C10.4455 7.3712 10.5052 7.08747 10.5052 6.7664C10.5052 6.28853 10.3708 5.904 10.102 5.6128C9.84068 5.31413 9.48601 5.1648 9.03801 5.1648H6.94361V8.3792H9.04921ZM9.08281 4C9.62041 4 10.0983 4.11947 10.5164 4.3584C10.9345 4.58987 11.2593 4.9184 11.4908 5.344C11.7297 5.76213 11.8492 6.23627 11.8492 6.7664C11.8492 7.31147 11.7297 7.79307 11.4908 8.2112C11.2593 8.62933 10.9345 8.95787 10.5164 9.1968C10.0983 9.42827 9.62414 9.544 9.09401 9.544H6.94361V12.3328H5.59961V4H9.08281Z" fill="#FF6F61"/>
</g>
<defs>
<clipPath id="clip0_1358_2179">
<rect width="16" height="16" fill="white"/>
</clipPath>
</defs>
</svg>
